<?xml version="1.0" encoding="utf-8" standalone="no"?>
<!DOCTYPE svg PUBLIC "-//W3C//DTD SVG 1.1//EN"
  "http://www.w3.org/Graphics/SVG/1.1/DTD/svg11.dtd">
<svg height="288pt" version="1.1" viewBox="0 0 576 288" width="576pt" xmlns="http://www.w3.org/2000/svg" xmlns:xlink="http://www.w3.org/1999/xlink">
 <metadata>
  <rdf:RDF xmlns:cc="http://creativecommons.org/ns#" xmlns:dc="http://purl.org/dc/elements/1.1/" xmlns:rdf="http://www.w3.org/1999/02/22-rdf-syntax-ns#">
   <cc:Work>
    <dc:type rdf:resource="http://purl.org/dc/dcmitype/StillImage"/>
    <dc:date>2021-11-04T21:11:35.843027</dc:date>
    <dc:format>image/svg+xml</dc:format>
    <dc:creator>
     <cc:Agent>
      <dc:title>Matplotlib v3.4.3, https://matplotlib.org/</dc:title>
     </cc:Agent>
    </dc:creator>
   </cc:Work>
  </rdf:RDF>
 </metadata>
 <defs>
  <style type="text/css">*{stroke-linecap:butt;stroke-linejoin:round;}</style>
 </defs>
 <g id="figure_1">
  <g id="patch_1">
   <path d="M 0 288 
L 576 288 
L 576 0 
L 0 0 
z
" style="fill:#ffffff;"/>
  </g>
  <g id="axes_1">
   <g id="patch_2">
    <path d="M 33.8 243.2 
L 565.2 243.2 
L 565.2 10.8 
L 33.8 10.8 
z
" style="fill:#e5e5e5;"/>
   </g>
   <g id="matplotlib.axis_1">
    <g id="xtick_1">
     <g id="line2d_1">
      <path clip-path="url(#pf84386a791)" d="M 53.074839 243.2 
L 53.074839 10.8 
" style="fill:none;stroke:#ffffff;stroke-linecap:square;stroke-width:0.8;"/>
     </g>
     <g id="line2d_2">
      <defs>
       <path d="M 0 0 
L 0 3.5 
" id="m6ad860805e" style="stroke:#555555;stroke-width:0.8;"/>
      </defs>
      <g>
       <use style="fill:#555555;stroke:#555555;stroke-width:0.8;" x="53.074839" xlink:href="#m6ad860805e" y="243.2"/>
      </g>
     </g>
     <g id="text_1">
      <!-- 0 -->
      <g style="fill:#555555;" transform="translate(49.893589 257.798437)scale(0.1 -0.1)">
       <defs>
        <path d="M 2034 4250 
Q 1547 4250 1301 3770 
Q 1056 3291 1056 2328 
Q 1056 1369 1301 889 
Q 1547 409 2034 409 
Q 2525 409 2770 889 
Q 3016 1369 3016 2328 
Q 3016 3291 2770 3770 
Q 2525 4250 2034 4250 
z
M 2034 4750 
Q 2819 4750 3233 4129 
Q 3647 3509 3647 2328 
Q 3647 1150 3233 529 
Q 2819 -91 2034 -91 
Q 1250 -91 836 529 
Q 422 1150 422 2328 
Q 422 3509 836 4129 
Q 1250 4750 2034 4750 
z
" id="DejaVuSans-30" transform="scale(0.015625)"/>
       </defs>
       <use xlink:href="#DejaVuSans-30"/>
      </g>
     </g>
    </g>
    <g id="xtick_2">
     <g id="line2d_3">
      <path clip-path="url(#pf84386a791)" d="M 150.668962 243.2 
L 150.668962 10.8 
" style="fill:none;stroke:#ffffff;stroke-linecap:square;stroke-width:0.8;"/>
     </g>
     <g id="line2d_4">
      <g>
       <use style="fill:#555555;stroke:#555555;stroke-width:0.8;" x="150.668962" xlink:href="#m6ad860805e" y="243.2"/>
      </g>
     </g>
     <g id="text_2">
      <!-- 20 -->
      <g style="fill:#555555;" transform="translate(144.306462 257.798437)scale(0.1 -0.1)">
       <defs>
        <path d="M 1228 531 
L 3431 531 
L 3431 0 
L 469 0 
L 469 531 
Q 828 903 1448 1529 
Q 2069 2156 2228 2338 
Q 2531 2678 2651 2914 
Q 2772 3150 2772 3378 
Q 2772 3750 2511 3984 
Q 2250 4219 1831 4219 
Q 1534 4219 1204 4116 
Q 875 4013 500 3803 
L 500 4441 
Q 881 4594 1212 4672 
Q 1544 4750 1819 4750 
Q 2544 4750 2975 4387 
Q 3406 4025 3406 3419 
Q 3406 3131 3298 2873 
Q 3191 2616 2906 2266 
Q 2828 2175 2409 1742 
Q 1991 1309 1228 531 
z
" id="DejaVuSans-32" transform="scale(0.015625)"/>
       </defs>
       <use xlink:href="#DejaVuSans-32"/>
       <use x="63.623047" xlink:href="#DejaVuSans-30"/>
      </g>
     </g>
    </g>
    <g id="xtick_3">
     <g id="line2d_5">
      <path clip-path="url(#pf84386a791)" d="M 248.263085 243.2 
L 248.263085 10.8 
" style="fill:none;stroke:#ffffff;stroke-linecap:square;stroke-width:0.8;"/>
     </g>
     <g id="line2d_6">
      <g>
       <use style="fill:#555555;stroke:#555555;stroke-width:0.8;" x="248.263085" xlink:href="#m6ad860805e" y="243.2"/>
      </g>
     </g>
     <g id="text_3">
      <!-- 40 -->
      <g style="fill:#555555;" transform="translate(241.900585 257.798437)scale(0.1 -0.1)">
       <defs>
        <path d="M 2419 4116 
L 825 1625 
L 2419 1625 
L 2419 4116 
z
M 2253 4666 
L 3047 4666 
L 3047 1625 
L 3713 1625 
L 3713 1100 
L 3047 1100 
L 3047 0 
L 2419 0 
L 2419 1100 
L 313 1100 
L 313 1709 
L 2253 4666 
z
" id="DejaVuSans-34" transform="scale(0.015625)"/>
       </defs>
       <use xlink:href="#DejaVuSans-34"/>
       <use x="63.623047" xlink:href="#DejaVuSans-30"/>
      </g>
     </g>
    </g>
    <g id="xtick_4">
     <g id="line2d_7">
      <path clip-path="url(#pf84386a791)" d="M 345.857208 243.2 
L 345.857208 10.8 
" style="fill:none;stroke:#ffffff;stroke-linecap:square;stroke-width:0.8;"/>
     </g>
     <g id="line2d_8">
      <g>
       <use style="fill:#555555;stroke:#555555;stroke-width:0.8;" x="345.857208" xlink:href="#m6ad860805e" y="243.2"/>
      </g>
     </g>
     <g id="text_4">
      <!-- 60 -->
      <g style="fill:#555555;" transform="translate(339.494708 257.798437)scale(0.1 -0.1)">
       <defs>
        <path d="M 2113 2584 
Q 1688 2584 1439 2293 
Q 1191 2003 1191 1497 
Q 1191 994 1439 701 
Q 1688 409 2113 409 
Q 2538 409 2786 701 
Q 3034 994 3034 1497 
Q 3034 2003 2786 2293 
Q 2538 2584 2113 2584 
z
M 3366 4563 
L 3366 3988 
Q 3128 4100 2886 4159 
Q 2644 4219 2406 4219 
Q 1781 4219 1451 3797 
Q 1122 3375 1075 2522 
Q 1259 2794 1537 2939 
Q 1816 3084 2150 3084 
Q 2853 3084 3261 2657 
Q 3669 2231 3669 1497 
Q 3669 778 3244 343 
Q 2819 -91 2113 -91 
Q 1303 -91 875 529 
Q 447 1150 447 2328 
Q 447 3434 972 4092 
Q 1497 4750 2381 4750 
Q 2619 4750 2861 4703 
Q 3103 4656 3366 4563 
z
" id="DejaVuSans-36" transform="scale(0.015625)"/>
       </defs>
       <use xlink:href="#DejaVuSans-36"/>
       <use x="63.623047" xlink:href="#DejaVuSans-30"/>
      </g>
     </g>
    </g>
    <g id="xtick_5">
     <g id="line2d_9">
      <path clip-path="url(#pf84386a791)" d="M 443.451331 243.2 
L 443.451331 10.8 
" style="fill:none;stroke:#ffffff;stroke-linecap:square;stroke-width:0.8;"/>
     </g>
     <g id="line2d_10">
      <g>
       <use style="fill:#555555;stroke:#555555;stroke-width:0.8;" x="443.451331" xlink:href="#m6ad860805e" y="243.2"/>
      </g>
     </g>
     <g id="text_5">
      <!-- 80 -->
      <g style="fill:#555555;" transform="translate(437.088831 257.798437)scale(0.1 -0.1)">
       <defs>
        <path d="M 2034 2216 
Q 1584 2216 1326 1975 
Q 1069 1734 1069 1313 
Q 1069 891 1326 650 
Q 1584 409 2034 409 
Q 2484 409 2743 651 
Q 3003 894 3003 1313 
Q 3003 1734 2745 1975 
Q 2488 2216 2034 2216 
z
M 1403 2484 
Q 997 2584 770 2862 
Q 544 3141 544 3541 
Q 544 4100 942 4425 
Q 1341 4750 2034 4750 
Q 2731 4750 3128 4425 
Q 3525 4100 3525 3541 
Q 3525 3141 3298 2862 
Q 3072 2584 2669 2484 
Q 3125 2378 3379 2068 
Q 3634 1759 3634 1313 
Q 3634 634 3220 271 
Q 2806 -91 2034 -91 
Q 1263 -91 848 271 
Q 434 634 434 1313 
Q 434 1759 690 2068 
Q 947 2378 1403 2484 
z
M 1172 3481 
Q 1172 3119 1398 2916 
Q 1625 2713 2034 2713 
Q 2441 2713 2670 2916 
Q 2900 3119 2900 3481 
Q 2900 3844 2670 4047 
Q 2441 4250 2034 4250 
Q 1625 4250 1398 4047 
Q 1172 3844 1172 3481 
z
" id="DejaVuSans-38" transform="scale(0.015625)"/>
       </defs>
       <use xlink:href="#DejaVuSans-38"/>
       <use x="63.623047" xlink:href="#DejaVuSans-30"/>
      </g>
     </g>
    </g>
    <g id="xtick_6">
     <g id="line2d_11">
      <path clip-path="url(#pf84386a791)" d="M 541.045455 243.2 
L 541.045455 10.8 
" style="fill:none;stroke:#ffffff;stroke-linecap:square;stroke-width:0.8;"/>
     </g>
     <g id="line2d_12">
      <g>
       <use style="fill:#555555;stroke:#555555;stroke-width:0.8;" x="541.045455" xlink:href="#m6ad860805e" y="243.2"/>
      </g>
     </g>
     <g id="text_6">
      <!-- 100 -->
      <g style="fill:#555555;" transform="translate(531.501705 257.798437)scale(0.1 -0.1)">
       <defs>
        <path d="M 794 531 
L 1825 531 
L 1825 4091 
L 703 3866 
L 703 4441 
L 1819 4666 
L 2450 4666 
L 2450 531 
L 3481 531 
L 3481 0 
L 794 0 
L 794 531 
z
" id="DejaVuSans-31" transform="scale(0.015625)"/>
       </defs>
       <use xlink:href="#DejaVuSans-31"/>
       <use x="63.623047" xlink:href="#DejaVuSans-30"/>
       <use x="127.246094" xlink:href="#DejaVuSans-30"/>
      </g>
     </g>
    </g>
    <g id="text_7">
     <!-- Epoch number -->
     <g style="fill:#555555;" transform="translate(255.803125 272.99625)scale(0.12 -0.12)">
      <defs>
       <path d="M 628 4666 
L 3578 4666 
L 3578 4134 
L 1259 4134 
L 1259 2753 
L 3481 2753 
L 3481 2222 
L 1259 2222 
L 1259 531 
L 3634 531 
L 3634 0 
L 628 0 
L 628 4666 
z
" id="DejaVuSans-45" transform="scale(0.015625)"/>
       <path d="M 1159 525 
L 1159 -1331 
L 581 -1331 
L 581 3500 
L 1159 3500 
L 1159 2969 
Q 1341 3281 1617 3432 
Q 1894 3584 2278 3584 
Q 2916 3584 3314 3078 
Q 3713 2572 3713 1747 
Q 3713 922 3314 415 
Q 2916 -91 2278 -91 
Q 1894 -91 1617 61 
Q 1341 213 1159 525 
z
M 3116 1747 
Q 3116 2381 2855 2742 
Q 2594 3103 2138 3103 
Q 1681 3103 1420 2742 
Q 1159 2381 1159 1747 
Q 1159 1113 1420 752 
Q 1681 391 2138 391 
Q 2594 391 2855 752 
Q 3116 1113 3116 1747 
z
" id="DejaVuSans-70" transform="scale(0.015625)"/>
       <path d="M 1959 3097 
Q 1497 3097 1228 2736 
Q 959 2375 959 1747 
Q 959 1119 1226 758 
Q 1494 397 1959 397 
Q 2419 397 2687 759 
Q 2956 1122 2956 1747 
Q 2956 2369 2687 2733 
Q 2419 3097 1959 3097 
z
M 1959 3584 
Q 2709 3584 3137 3096 
Q 3566 2609 3566 1747 
Q 3566 888 3137 398 
Q 2709 -91 1959 -91 
Q 1206 -91 779 398 
Q 353 888 353 1747 
Q 353 2609 779 3096 
Q 1206 3584 1959 3584 
z
" id="DejaVuSans-6f" transform="scale(0.015625)"/>
       <path d="M 3122 3366 
L 3122 2828 
Q 2878 2963 2633 3030 
Q 2388 3097 2138 3097 
Q 1578 3097 1268 2742 
Q 959 2388 959 1747 
Q 959 1106 1268 751 
Q 1578 397 2138 397 
Q 2388 397 2633 464 
Q 2878 531 3122 666 
L 3122 134 
Q 2881 22 2623 -34 
Q 2366 -91 2075 -91 
Q 1284 -91 818 406 
Q 353 903 353 1747 
Q 353 2603 823 3093 
Q 1294 3584 2113 3584 
Q 2378 3584 2631 3529 
Q 2884 3475 3122 3366 
z
" id="DejaVuSans-63" transform="scale(0.015625)"/>
       <path d="M 3513 2113 
L 3513 0 
L 2938 0 
L 2938 2094 
Q 2938 2591 2744 2837 
Q 2550 3084 2163 3084 
Q 1697 3084 1428 2787 
Q 1159 2491 1159 1978 
L 1159 0 
L 581 0 
L 581 4863 
L 1159 4863 
L 1159 2956 
Q 1366 3272 1645 3428 
Q 1925 3584 2291 3584 
Q 2894 3584 3203 3211 
Q 3513 2838 3513 2113 
z
" id="DejaVuSans-68" transform="scale(0.015625)"/>
       <path id="DejaVuSans-20" transform="scale(0.015625)"/>
       <path d="M 3513 2113 
L 3513 0 
L 2938 0 
L 2938 2094 
Q 2938 2591 2744 2837 
Q 2550 3084 2163 3084 
Q 1697 3084 1428 2787 
Q 1159 2491 1159 1978 
L 1159 0 
L 581 0 
L 581 3500 
L 1159 3500 
L 1159 2956 
Q 1366 3272 1645 3428 
Q 1925 3584 2291 3584 
Q 2894 3584 3203 3211 
Q 3513 2838 3513 2113 
z
" id="DejaVuSans-6e" transform="scale(0.015625)"/>
       <path d="M 544 1381 
L 544 3500 
L 1119 3500 
L 1119 1403 
Q 1119 906 1312 657 
Q 1506 409 1894 409 
Q 2359 409 2629 706 
Q 2900 1003 2900 1516 
L 2900 3500 
L 3475 3500 
L 3475 0 
L 2900 0 
L 2900 538 
Q 2691 219 2414 64 
Q 2138 -91 1772 -91 
Q 1169 -91 856 284 
Q 544 659 544 1381 
z
M 1991 3584 
L 1991 3584 
z
" id="DejaVuSans-75" transform="scale(0.015625)"/>
       <path d="M 3328 2828 
Q 3544 3216 3844 3400 
Q 4144 3584 4550 3584 
Q 5097 3584 5394 3201 
Q 5691 2819 5691 2113 
L 5691 0 
L 5113 0 
L 5113 2094 
Q 5113 2597 4934 2840 
Q 4756 3084 4391 3084 
Q 3944 3084 3684 2787 
Q 3425 2491 3425 1978 
L 3425 0 
L 2847 0 
L 2847 2094 
Q 2847 2600 2669 2842 
Q 2491 3084 2119 3084 
Q 1678 3084 1418 2786 
Q 1159 2488 1159 1978 
L 1159 0 
L 581 0 
L 581 3500 
L 1159 3500 
L 1159 2956 
Q 1356 3278 1631 3431 
Q 1906 3584 2284 3584 
Q 2666 3584 2933 3390 
Q 3200 3197 3328 2828 
z
" id="DejaVuSans-6d" transform="scale(0.015625)"/>
       <path d="M 3116 1747 
Q 3116 2381 2855 2742 
Q 2594 3103 2138 3103 
Q 1681 3103 1420 2742 
Q 1159 2381 1159 1747 
Q 1159 1113 1420 752 
Q 1681 391 2138 391 
Q 2594 391 2855 752 
Q 3116 1113 3116 1747 
z
M 1159 2969 
Q 1341 3281 1617 3432 
Q 1894 3584 2278 3584 
Q 2916 3584 3314 3078 
Q 3713 2572 3713 1747 
Q 3713 922 3314 415 
Q 2916 -91 2278 -91 
Q 1894 -91 1617 61 
Q 1341 213 1159 525 
L 1159 0 
L 581 0 
L 581 4863 
L 1159 4863 
L 1159 2969 
z
" id="DejaVuSans-62" transform="scale(0.015625)"/>
       <path d="M 3597 1894 
L 3597 1613 
L 953 1613 
Q 991 1019 1311 708 
Q 1631 397 2203 397 
Q 2534 397 2845 478 
Q 3156 559 3463 722 
L 3463 178 
Q 3153 47 2828 -22 
Q 2503 -91 2169 -91 
Q 1331 -91 842 396 
Q 353 884 353 1716 
Q 353 2575 817 3079 
Q 1281 3584 2069 3584 
Q 2775 3584 3186 3129 
Q 3597 2675 3597 1894 
z
M 3022 2063 
Q 3016 2534 2758 2815 
Q 2500 3097 2075 3097 
Q 1594 3097 1305 2825 
Q 1016 2553 972 2059 
L 3022 2063 
z
" id="DejaVuSans-65" transform="scale(0.015625)"/>
       <path d="M 2631 2963 
Q 2534 3019 2420 3045 
Q 2306 3072 2169 3072 
Q 1681 3072 1420 2755 
Q 1159 2438 1159 1844 
L 1159 0 
L 581 0 
L 581 3500 
L 1159 3500 
L 1159 2956 
Q 1341 3275 1631 3429 
Q 1922 3584 2338 3584 
Q 2397 3584 2469 3576 
Q 2541 3569 2628 3553 
L 2631 2963 
z
" id="DejaVuSans-72" transform="scale(0.015625)"/>
      </defs>
      <use xlink:href="#DejaVuSans-45"/>
      <use x="63.183594" xlink:href="#DejaVuSans-70"/>
      <use x="126.660156" xlink:href="#DejaVuSans-6f"/>
      <use x="187.841797" xlink:href="#DejaVuSans-63"/>
      <use x="242.822266" xlink:href="#DejaVuSans-68"/>
      <use x="306.201172" xlink:href="#DejaVuSans-20"/>
      <use x="337.988281" xlink:href="#DejaVuSans-6e"/>
      <use x="401.367188" xlink:href="#DejaVuSans-75"/>
      <use x="464.746094" xlink:href="#DejaVuSans-6d"/>
      <use x="562.158203" xlink:href="#DejaVuSans-62"/>
      <use x="625.634766" xlink:href="#DejaVuSans-65"/>
      <use x="687.158203" xlink:href="#DejaVuSans-72"/>
     </g>
    </g>
   </g>
   <g id="matplotlib.axis_2">
    <g id="ytick_1">
     <g id="line2d_13">
      <path clip-path="url(#pf84386a791)" d="M 33.8 226.069667 
L 565.2 226.069667 
" style="fill:none;stroke:#ffffff;stroke-linecap:square;stroke-width:0.8;"/>
     </g>
     <g id="line2d_14">
      <defs>
       <path d="M 0 0 
L -3.5 0 
" id="m4aeb75ab02" style="stroke:#555555;stroke-width:0.8;"/>
      </defs>
      <g>
       <use style="fill:#555555;stroke:#555555;stroke-width:0.8;" x="33.8" xlink:href="#m4aeb75ab02" y="226.069667"/>
      </g>
     </g>
     <g id="text_8">
      <!-- 0.5 -->
      <g style="fill:#555555;" transform="translate(10.896875 229.868885)scale(0.1 -0.1)">
       <defs>
        <path d="M 684 794 
L 1344 794 
L 1344 0 
L 684 0 
L 684 794 
z
" id="DejaVuSans-2e" transform="scale(0.015625)"/>
        <path d="M 691 4666 
L 3169 4666 
L 3169 4134 
L 1269 4134 
L 1269 2991 
Q 1406 3038 1543 3061 
Q 1681 3084 1819 3084 
Q 2600 3084 3056 2656 
Q 3513 2228 3513 1497 
Q 3513 744 3044 326 
Q 2575 -91 1722 -91 
Q 1428 -91 1123 -41 
Q 819 9 494 109 
L 494 744 
Q 775 591 1075 516 
Q 1375 441 1709 441 
Q 2250 441 2565 725 
Q 2881 1009 2881 1497 
Q 2881 1984 2565 2268 
Q 2250 2553 1709 2553 
Q 1456 2553 1204 2497 
Q 953 2441 691 2322 
L 691 4666 
z
" id="DejaVuSans-35" transform="scale(0.015625)"/>
       </defs>
       <use xlink:href="#DejaVuSans-30"/>
       <use x="63.623047" xlink:href="#DejaVuSans-2e"/>
       <use x="95.410156" xlink:href="#DejaVuSans-35"/>
      </g>
     </g>
    </g>
    <g id="ytick_2">
     <g id="line2d_15">
      <path clip-path="url(#pf84386a791)" d="M 33.8 181.798636 
L 565.2 181.798636 
" style="fill:none;stroke:#ffffff;stroke-linecap:square;stroke-width:0.8;"/>
     </g>
     <g id="line2d_16">
      <g>
       <use style="fill:#555555;stroke:#555555;stroke-width:0.8;" x="33.8" xlink:href="#m4aeb75ab02" y="181.798636"/>
      </g>
     </g>
     <g id="text_9">
      <!-- 1.0 -->
      <g style="fill:#555555;" transform="translate(10.896875 185.597855)scale(0.1 -0.1)">
       <use xlink:href="#DejaVuSans-31"/>
       <use x="63.623047" xlink:href="#DejaVuSans-2e"/>
       <use x="95.410156" xlink:href="#DejaVuSans-30"/>
      </g>
     </g>
    </g>
    <g id="ytick_3">
     <g id="line2d_17">
      <path clip-path="url(#pf84386a791)" d="M 33.8 137.527605 
L 565.2 137.527605 
" style="fill:none;stroke:#ffffff;stroke-linecap:square;stroke-width:0.8;"/>
     </g>
     <g id="line2d_18">
      <g>
       <use style="fill:#555555;stroke:#555555;stroke-width:0.8;" x="33.8" xlink:href="#m4aeb75ab02" y="137.527605"/>
      </g>
     </g>
     <g id="text_10">
      <!-- 1.5 -->
      <g style="fill:#555555;" transform="translate(10.896875 141.326824)scale(0.1 -0.1)">
       <use xlink:href="#DejaVuSans-31"/>
       <use x="63.623047" xlink:href="#DejaVuSans-2e"/>
       <use x="95.410156" xlink:href="#DejaVuSans-35"/>
      </g>
     </g>
    </g>
    <g id="ytick_4">
     <g id="line2d_19">
      <path clip-path="url(#pf84386a791)" d="M 33.8 93.256575 
L 565.2 93.256575 
" style="fill:none;stroke:#ffffff;stroke-linecap:square;stroke-width:0.8;"/>
     </g>
     <g id="line2d_20">
      <g>
       <use style="fill:#555555;stroke:#555555;stroke-width:0.8;" x="33.8" xlink:href="#m4aeb75ab02" y="93.256575"/>
      </g>
     </g>
     <g id="text_11">
      <!-- 2.0 -->
      <g style="fill:#555555;" transform="translate(10.896875 97.055794)scale(0.1 -0.1)">
       <use xlink:href="#DejaVuSans-32"/>
       <use x="63.623047" xlink:href="#DejaVuSans-2e"/>
       <use x="95.410156" xlink:href="#DejaVuSans-30"/>
      </g>
     </g>
    </g>
    <g id="ytick_5">
     <g id="line2d_21">
      <path clip-path="url(#pf84386a791)" d="M 33.8 48.985544 
L 565.2 48.985544 
" style="fill:none;stroke:#ffffff;stroke-linecap:square;stroke-width:0.8;"/>
     </g>
     <g id="line2d_22">
      <g>
       <use style="fill:#555555;stroke:#555555;stroke-width:0.8;" x="33.8" xlink:href="#m4aeb75ab02" y="48.985544"/>
      </g>
     </g>
     <g id="text_12">
      <!-- 2.5 -->
      <g style="fill:#555555;" transform="translate(10.896875 52.784763)scale(0.1 -0.1)">
       <use xlink:href="#DejaVuSans-32"/>
       <use x="63.623047" xlink:href="#DejaVuSans-2e"/>
       <use x="95.410156" xlink:href="#DejaVuSans-35"/>
      </g>
     </g>
    </g>
   </g>
   <g id="line2d_23">
    <path clip-path="url(#pf84386a791)" d="M 57.954545 21.363636 
L 62.834252 70.070206 
L 67.713958 96.997256 
L 72.593664 113.25257 
L 77.47337 123.480542 
L 82.353076 134.144224 
L 87.232782 143.232812 
L 92.112489 148.693552 
L 96.992195 155.229436 
L 101.871901 161.160648 
L 106.751607 164.037997 
L 111.631313 169.527141 
L 116.511019 172.668346 
L 121.390725 174.401083 
L 126.270432 179.526982 
L 131.150138 180.408932 
L 136.029844 182.972785 
L 140.90955 186.530892 
L 145.789256 187.495669 
L 150.668962 188.96003 
L 155.548669 191.237006 
L 160.428375 192.460127 
L 165.308081 193.640999 
L 170.187787 195.001488 
L 175.067493 196.220325 
L 179.947199 197.481016 
L 184.826905 198.584312 
L 189.706612 199.530871 
L 194.586318 200.268278 
L 199.466024 201.630905 
L 204.34573 202.819393 
L 209.225436 202.964436 
L 214.105142 203.611176 
L 218.984848 204.385832 
L 223.864555 204.491227 
L 228.744261 206.01004 
L 233.623967 206.475748 
L 238.503673 207.416106 
L 243.383379 207.47906 
L 248.263085 208.182867 
L 253.142792 208.922334 
L 258.022498 209.294027 
L 262.902204 209.460139 
L 267.78191 210.103141 
L 272.661616 210.136392 
L 277.541322 210.936818 
L 282.421028 210.730891 
L 287.300735 211.643901 
L 292.180441 212.044002 
L 297.060147 212.069541 
L 301.939853 212.346888 
L 306.819559 212.779846 
L 311.699265 213.745186 
L 316.578972 213.564717 
L 321.458678 214.010194 
L 326.338384 214.671864 
L 331.21809 214.549045 
L 336.097796 214.503308 
L 340.977502 215.025973 
L 345.857208 215.455627 
L 350.736915 215.700361 
L 355.616621 215.881217 
L 360.496327 215.965157 
L 365.376033 216.413239 
L 370.255739 216.649243 
L 375.135445 216.761908 
L 380.015152 217.277023 
L 384.894858 217.507985 
L 389.774564 217.882474 
L 394.65427 217.869177 
L 399.533976 218.052622 
L 404.413682 218.451015 
L 409.293388 218.446624 
L 414.173095 218.144129 
L 419.052801 218.877297 
L 423.932507 218.680354 
L 428.812213 219.242404 
L 433.691919 219.198665 
L 438.571625 219.348693 
L 443.451331 219.643913 
L 448.331038 219.72796 
L 453.210744 219.772084 
L 458.09045 219.92004 
L 462.970156 220.066076 
L 467.849862 220.261438 
L 472.729568 220.598078 
L 477.609275 220.336026 
L 482.488981 220.970519 
L 487.368687 220.988603 
L 492.248393 220.93332 
L 497.128099 221.143019 
L 502.007805 221.098838 
L 506.887511 221.243863 
L 511.767218 221.225908 
L 516.646924 221.449039 
L 521.52663 221.605259 
L 526.406336 221.584813 
L 531.286042 222.126739 
L 536.165748 221.803768 
L 541.045455 222.102473 
" style="fill:none;stroke:#e24a33;stroke-linecap:square;stroke-width:1.5;"/>
   </g>
   <g id="line2d_24">
    <path clip-path="url(#pf84386a791)" d="M 57.954545 118.473753 
L 62.834252 150.272321 
L 67.713958 165.82491 
L 72.593664 175.938155 
L 77.47337 183.969565 
L 82.353076 190.198056 
L 87.232782 194.713973 
L 92.112489 198.565981 
L 96.992195 201.845849 
L 101.871901 204.646847 
L 106.751607 206.870958 
L 111.631313 208.963063 
L 116.511019 210.531692 
L 121.390725 212.124412 
L 126.270432 213.481858 
L 131.150138 214.987305 
L 136.029844 215.825962 
L 140.90955 216.859589 
L 145.789256 217.840757 
L 150.668962 218.737084 
L 155.548669 219.347132 
L 160.428375 219.87462 
L 165.308081 220.734089 
L 170.187787 221.117322 
L 175.067493 222.130754 
L 179.947199 222.381448 
L 184.826905 223.463714 
L 189.706612 223.517626 
L 194.586318 224.245459 
L 199.466024 224.168513 
L 204.34573 224.7024 
L 209.225436 224.980747 
L 214.105142 225.347993 
L 218.984848 225.922542 
L 223.864555 226.046234 
L 228.744261 226.387137 
L 233.623967 226.790775 
L 238.503673 226.712644 
L 243.383379 227.023786 
L 248.263085 227.217269 
L 253.142792 227.480857 
L 258.022498 227.603344 
L 262.902204 227.826529 
L 267.78191 228.195482 
L 272.661616 228.38204 
L 277.541322 228.746544 
L 282.421028 229.002498 
L 287.300735 228.844571 
L 292.180441 229.101267 
L 297.060147 229.228154 
L 301.939853 229.500963 
L 306.819559 229.355866 
L 311.699265 229.415877 
L 316.578972 229.701308 
L 321.458678 229.824355 
L 326.338384 229.959649 
L 331.21809 229.939084 
L 336.097796 229.948722 
L 340.977502 230.400942 
L 345.857208 230.428652 
L 350.736915 230.499453 
L 355.616621 230.429197 
L 360.496327 230.518568 
L 365.376033 230.727559 
L 370.255739 230.641291 
L 375.135445 230.779776 
L 380.015152 230.858774 
L 384.894858 231.048028 
L 389.774564 230.947214 
L 394.65427 231.083932 
L 399.533976 231.245484 
L 404.413682 231.060788 
L 409.293388 230.945865 
L 414.173095 231.424036 
L 419.052801 231.333328 
L 423.932507 231.205328 
L 428.812213 231.45654 
L 433.691919 231.701839 
L 438.571625 231.713659 
L 443.451331 231.584775 
L 448.331038 231.427683 
L 453.210744 231.694163 
L 458.09045 231.704715 
L 462.970156 231.955674 
L 467.849862 231.76091 
L 472.729568 232.018801 
L 477.609275 232.122747 
L 482.488981 231.624147 
L 487.368687 231.946245 
L 492.248393 232.048548 
L 497.128099 231.937246 
L 502.007805 232.286092 
L 506.887511 232.303764 
L 511.767218 232.178561 
L 516.646924 232.061612 
L 521.52663 231.892235 
L 526.406336 232.075972 
L 531.286042 232.302194 
L 536.165748 232.25455 
L 541.045455 232.430291 
" style="fill:none;stroke:#348abd;stroke-linecap:square;stroke-width:1.5;"/>
   </g>
   <g id="line2d_25">
    <path clip-path="url(#pf84386a791)" d="M 57.954545 133.219857 
L 62.834252 160.023493 
L 67.713958 173.59012 
L 72.593664 183.427316 
L 77.47337 190.796293 
L 82.353076 195.830975 
L 87.232782 200.333773 
L 92.112489 203.838497 
L 96.992195 206.824552 
L 101.871901 209.089627 
L 106.751607 210.99152 
L 111.631313 212.471745 
L 116.511019 214.308549 
L 121.390725 215.889672 
L 126.270432 217.35779 
L 131.150138 218.219646 
L 136.029844 219.195833 
L 140.90955 219.974625 
L 145.789256 220.76746 
L 150.668962 221.888445 
L 155.548669 222.442969 
L 160.428375 223.138626 
L 165.308081 223.492276 
L 170.187787 223.614792 
L 175.067493 224.649698 
L 179.947199 225.158326 
L 184.826905 225.332771 
L 189.706612 225.897415 
L 194.586318 226.169 
L 199.466024 226.509886 
L 204.34573 226.833752 
L 209.225436 227.203999 
L 214.105142 227.501783 
L 218.984848 227.782531 
L 223.864555 227.922494 
L 228.744261 228.256304 
L 233.623967 228.543643 
L 238.503673 228.611908 
L 243.383379 228.850974 
L 248.263085 229.07891 
L 253.142792 229.145965 
L 258.022498 229.502905 
L 262.902204 229.669815 
L 267.78191 229.813 
L 272.661616 230.031986 
L 277.541322 230.243047 
L 282.421028 230.465274 
L 287.300735 230.60067 
L 292.180441 230.442956 
L 297.060147 230.684034 
L 301.939853 230.804032 
L 306.819559 230.686298 
L 311.699265 230.783093 
L 316.578972 231.25264 
L 321.458678 230.830461 
L 326.338384 231.008189 
L 331.21809 231.378375 
L 336.097796 231.456444 
L 340.977502 231.308261 
L 345.857208 231.698929 
L 350.736915 231.853809 
L 355.616621 231.37298 
L 360.496327 231.71408 
L 365.376033 231.695617 
L 370.255739 231.854514 
L 375.135445 231.864691 
L 380.015152 231.961882 
L 384.894858 232.15387 
L 389.774564 232.119891 
L 394.65427 232.196944 
L 399.533976 231.884896 
L 404.413682 232.03562 
L 409.293388 232.471076 
L 414.173095 232.253616 
L 419.052801 232.320925 
L 423.932507 232.203785 
L 428.812213 232.350442 
L 433.691919 231.985345 
L 438.571625 232.349742 
L 443.451331 232.503911 
L 448.331038 232.277023 
L 453.210744 232.52896 
L 458.09045 232.555118 
L 462.970156 232.552111 
L 467.849862 232.628343 
L 472.729568 232.491719 
L 477.609275 232.619301 
L 482.488981 232.421594 
L 487.368687 232.390021 
L 492.248393 232.548695 
L 497.128099 232.492767 
L 502.007805 232.547985 
L 506.887511 232.406007 
L 511.767218 232.497417 
L 516.646924 232.62042 
L 521.52663 232.601816 
L 526.406336 232.636364 
L 531.286042 232.415454 
L 536.165748 232.256259 
L 541.045455 232.454563 
" style="fill:none;stroke:#988ed5;stroke-linecap:square;stroke-width:1.5;"/>
   </g>
   <g id="patch_3">
    <path d="M 33.8 243.2 
L 33.8 10.8 
" style="fill:none;stroke:#ffffff;stroke-linecap:square;stroke-linejoin:miter;"/>
   </g>
   <g id="patch_4">
    <path d="M 565.2 243.2 
L 565.2 10.8 
" style="fill:none;stroke:#ffffff;stroke-linecap:square;stroke-linejoin:miter;"/>
   </g>
   <g id="patch_5">
    <path d="M 33.8 243.2 
L 565.2 243.2 
" style="fill:none;stroke:#ffffff;stroke-linecap:square;stroke-linejoin:miter;"/>
   </g>
   <g id="patch_6">
    <path d="M 33.8 10.8 
L 565.2 10.8 
" style="fill:none;stroke:#ffffff;stroke-linecap:square;stroke-linejoin:miter;"/>
   </g>
   <g id="legend_1">
    <g id="patch_7">
     <path d="M 429.923437 62.834375 
L 558.2 62.834375 
Q 560.2 62.834375 560.2 60.834375 
L 560.2 17.8 
Q 560.2 15.8 558.2 15.8 
L 429.923437 15.8 
Q 427.923437 15.8 427.923437 17.8 
L 427.923437 60.834375 
Q 427.923437 62.834375 429.923437 62.834375 
z
" style="fill:#e5e5e5;opacity:0.8;stroke:#cccccc;stroke-linejoin:miter;stroke-width:0.5;"/>
    </g>
    <g id="line2d_26">
     <path d="M 431.923437 23.898438 
L 451.923437 23.898438 
" style="fill:none;stroke:#e24a33;stroke-linecap:square;stroke-width:1.5;"/>
    </g>
    <g id="line2d_27"/>
    <g id="text_13">
     <!-- dropout 0.7(valid) -->
     <g transform="translate(459.923437 27.398438)scale(0.1 -0.1)">
      <defs>
       <path d="M 2906 2969 
L 2906 4863 
L 3481 4863 
L 3481 0 
L 2906 0 
L 2906 525 
Q 2725 213 2448 61 
Q 2172 -91 1784 -91 
Q 1150 -91 751 415 
Q 353 922 353 1747 
Q 353 2572 751 3078 
Q 1150 3584 1784 3584 
Q 2172 3584 2448 3432 
Q 2725 3281 2906 2969 
z
M 947 1747 
Q 947 1113 1208 752 
Q 1469 391 1925 391 
Q 2381 391 2643 752 
Q 2906 1113 2906 1747 
Q 2906 2381 2643 2742 
Q 2381 3103 1925 3103 
Q 1469 3103 1208 2742 
Q 947 2381 947 1747 
z
" id="DejaVuSans-64" transform="scale(0.015625)"/>
       <path d="M 1172 4494 
L 1172 3500 
L 2356 3500 
L 2356 3053 
L 1172 3053 
L 1172 1153 
Q 1172 725 1289 603 
Q 1406 481 1766 481 
L 2356 481 
L 2356 0 
L 1766 0 
Q 1100 0 847 248 
Q 594 497 594 1153 
L 594 3053 
L 172 3053 
L 172 3500 
L 594 3500 
L 594 4494 
L 1172 4494 
z
" id="DejaVuSans-74" transform="scale(0.015625)"/>
       <path d="M 525 4666 
L 3525 4666 
L 3525 4397 
L 1831 0 
L 1172 0 
L 2766 4134 
L 525 4134 
L 525 4666 
z
" id="DejaVuSans-37" transform="scale(0.015625)"/>
       <path d="M 1984 4856 
Q 1566 4138 1362 3434 
Q 1159 2731 1159 2009 
Q 1159 1288 1364 580 
Q 1569 -128 1984 -844 
L 1484 -844 
Q 1016 -109 783 600 
Q 550 1309 550 2009 
Q 550 2706 781 3412 
Q 1013 4119 1484 4856 
L 1984 4856 
z
" id="DejaVuSans-28" transform="scale(0.015625)"/>
       <path d="M 191 3500 
L 800 3500 
L 1894 563 
L 2988 3500 
L 3597 3500 
L 2284 0 
L 1503 0 
L 191 3500 
z
" id="DejaVuSans-76" transform="scale(0.015625)"/>
       <path d="M 2194 1759 
Q 1497 1759 1228 1600 
Q 959 1441 959 1056 
Q 959 750 1161 570 
Q 1363 391 1709 391 
Q 2188 391 2477 730 
Q 2766 1069 2766 1631 
L 2766 1759 
L 2194 1759 
z
M 3341 1997 
L 3341 0 
L 2766 0 
L 2766 531 
Q 2569 213 2275 61 
Q 1981 -91 1556 -91 
Q 1019 -91 701 211 
Q 384 513 384 1019 
Q 384 1609 779 1909 
Q 1175 2209 1959 2209 
L 2766 2209 
L 2766 2266 
Q 2766 2663 2505 2880 
Q 2244 3097 1772 3097 
Q 1472 3097 1187 3025 
Q 903 2953 641 2809 
L 641 3341 
Q 956 3463 1253 3523 
Q 1550 3584 1831 3584 
Q 2591 3584 2966 3190 
Q 3341 2797 3341 1997 
z
" id="DejaVuSans-61" transform="scale(0.015625)"/>
       <path d="M 603 4863 
L 1178 4863 
L 1178 0 
L 603 0 
L 603 4863 
z
" id="DejaVuSans-6c" transform="scale(0.015625)"/>
       <path d="M 603 3500 
L 1178 3500 
L 1178 0 
L 603 0 
L 603 3500 
z
M 603 4863 
L 1178 4863 
L 1178 4134 
L 603 4134 
L 603 4863 
z
" id="DejaVuSans-69" transform="scale(0.015625)"/>
       <path d="M 513 4856 
L 1013 4856 
Q 1481 4119 1714 3412 
Q 1947 2706 1947 2009 
Q 1947 1309 1714 600 
Q 1481 -109 1013 -844 
L 513 -844 
Q 928 -128 1133 580 
Q 1338 1288 1338 2009 
Q 1338 2731 1133 3434 
Q 928 4138 513 4856 
z
" id="DejaVuSans-29" transform="scale(0.015625)"/>
      </defs>
      <use xlink:href="#DejaVuSans-64"/>
      <use x="63.476562" xlink:href="#DejaVuSans-72"/>
      <use x="102.339844" xlink:href="#DejaVuSans-6f"/>
      <use x="163.521484" xlink:href="#DejaVuSans-70"/>
      <use x="226.998047" xlink:href="#DejaVuSans-6f"/>
      <use x="288.179688" xlink:href="#DejaVuSans-75"/>
      <use x="351.558594" xlink:href="#DejaVuSans-74"/>
      <use x="390.767578" xlink:href="#DejaVuSans-20"/>
      <use x="422.554688" xlink:href="#DejaVuSans-30"/>
      <use x="486.177734" xlink:href="#DejaVuSans-2e"/>
      <use x="517.964844" xlink:href="#DejaVuSans-37"/>
      <use x="581.587891" xlink:href="#DejaVuSans-28"/>
      <use x="620.601562" xlink:href="#DejaVuSans-76"/>
      <use x="679.78125" xlink:href="#DejaVuSans-61"/>
      <use x="741.060547" xlink:href="#DejaVuSans-6c"/>
      <use x="768.84375" xlink:href="#DejaVuSans-69"/>
      <use x="796.626953" xlink:href="#DejaVuSans-64"/>
      <use x="860.103516" xlink:href="#DejaVuSans-29"/>
     </g>
    </g>
    <g id="line2d_28">
     <path d="M 431.923437 38.576562 
L 451.923437 38.576562 
" style="fill:none;stroke:#348abd;stroke-linecap:square;stroke-width:1.5;"/>
    </g>
    <g id="line2d_29"/>
    <g id="text_14">
     <!-- dropout 0.9(valid) -->
     <g transform="translate(459.923437 42.076562)scale(0.1 -0.1)">
      <defs>
       <path d="M 703 97 
L 703 672 
Q 941 559 1184 500 
Q 1428 441 1663 441 
Q 2288 441 2617 861 
Q 2947 1281 2994 2138 
Q 2813 1869 2534 1725 
Q 2256 1581 1919 1581 
Q 1219 1581 811 2004 
Q 403 2428 403 3163 
Q 403 3881 828 4315 
Q 1253 4750 1959 4750 
Q 2769 4750 3195 4129 
Q 3622 3509 3622 2328 
Q 3622 1225 3098 567 
Q 2575 -91 1691 -91 
Q 1453 -91 1209 -44 
Q 966 3 703 97 
z
M 1959 2075 
Q 2384 2075 2632 2365 
Q 2881 2656 2881 3163 
Q 2881 3666 2632 3958 
Q 2384 4250 1959 4250 
Q 1534 4250 1286 3958 
Q 1038 3666 1038 3163 
Q 1038 2656 1286 2365 
Q 1534 2075 1959 2075 
z
" id="DejaVuSans-39" transform="scale(0.015625)"/>
      </defs>
      <use xlink:href="#DejaVuSans-64"/>
      <use x="63.476562" xlink:href="#DejaVuSans-72"/>
      <use x="102.339844" xlink:href="#DejaVuSans-6f"/>
      <use x="163.521484" xlink:href="#DejaVuSans-70"/>
      <use x="226.998047" xlink:href="#DejaVuSans-6f"/>
      <use x="288.179688" xlink:href="#DejaVuSans-75"/>
      <use x="351.558594" xlink:href="#DejaVuSans-74"/>
      <use x="390.767578" xlink:href="#DejaVuSans-20"/>
      <use x="422.554688" xlink:href="#DejaVuSans-30"/>
      <use x="486.177734" xlink:href="#DejaVuSans-2e"/>
      <use x="517.964844" xlink:href="#DejaVuSans-39"/>
      <use x="581.587891" xlink:href="#DejaVuSans-28"/>
      <use x="620.601562" xlink:href="#DejaVuSans-76"/>
      <use x="679.78125" xlink:href="#DejaVuSans-61"/>
      <use x="741.060547" xlink:href="#DejaVuSans-6c"/>
      <use x="768.84375" xlink:href="#DejaVuSans-69"/>
      <use x="796.626953" xlink:href="#DejaVuSans-64"/>
      <use x="860.103516" xlink:href="#DejaVuSans-29"/>
     </g>
    </g>
    <g id="line2d_30">
     <path d="M 431.923437 53.254687 
L 451.923437 53.254687 
" style="fill:none;stroke:#988ed5;stroke-linecap:square;stroke-width:1.5;"/>
    </g>
    <g id="line2d_31"/>
    <g id="text_15">
     <!-- dropout 0.95(valid) -->
     <g transform="translate(459.923437 56.754687)scale(0.1 -0.1)">
      <use xlink:href="#DejaVuSans-64"/>
      <use x="63.476562" xlink:href="#DejaVuSans-72"/>
      <use x="102.339844" xlink:href="#DejaVuSans-6f"/>
      <use x="163.521484" xlink:href="#DejaVuSans-70"/>
      <use x="226.998047" xlink:href="#DejaVuSans-6f"/>
      <use x="288.179688" xlink:href="#DejaVuSans-75"/>
      <use x="351.558594" xlink:href="#DejaVuSans-74"/>
      <use x="390.767578" xlink:href="#DejaVuSans-20"/>
      <use x="422.554688" xlink:href="#DejaVuSans-30"/>
      <use x="486.177734" xlink:href="#DejaVuSans-2e"/>
      <use x="517.964844" xlink:href="#DejaVuSans-39"/>
      <use x="581.587891" xlink:href="#DejaVuSans-35"/>
      <use x="645.210938" xlink:href="#DejaVuSans-28"/>
      <use x="684.224609" xlink:href="#DejaVuSans-76"/>
      <use x="743.404297" xlink:href="#DejaVuSans-61"/>
      <use x="804.683594" xlink:href="#DejaVuSans-6c"/>
      <use x="832.466797" xlink:href="#DejaVuSans-69"/>
      <use x="860.25" xlink:href="#DejaVuSans-64"/>
      <use x="923.726562" xlink:href="#DejaVuSans-29"/>
     </g>
    </g>
   </g>
  </g>
 </g>
 <defs>
  <clipPath id="pf84386a791">
   <rect height="232.4" width="531.4" x="33.8" y="10.8"/>
  </clipPath>
 </defs>
</svg>
