<?xml version="1.0" encoding="utf-8" standalone="no"?>
<!DOCTYPE svg PUBLIC "-//W3C//DTD SVG 1.1//EN"
  "http://www.w3.org/Graphics/SVG/1.1/DTD/svg11.dtd">
<svg height="288pt" version="1.1" viewBox="0 0 576 288" width="576pt" xmlns="http://www.w3.org/2000/svg" xmlns:xlink="http://www.w3.org/1999/xlink">
 <metadata>
  <rdf:RDF xmlns:cc="http://creativecommons.org/ns#" xmlns:dc="http://purl.org/dc/elements/1.1/" xmlns:rdf="http://www.w3.org/1999/02/22-rdf-syntax-ns#">
   <cc:Work>
    <dc:type rdf:resource="http://purl.org/dc/dcmitype/StillImage"/>
    <dc:date>2021-11-04T21:11:36.902265</dc:date>
    <dc:format>image/svg+xml</dc:format>
    <dc:creator>
     <cc:Agent>
      <dc:title>Matplotlib v3.4.3, https://matplotlib.org/</dc:title>
     </cc:Agent>
    </dc:creator>
   </cc:Work>
  </rdf:RDF>
 </metadata>
 <defs>
  <style type="text/css">*{stroke-linecap:butt;stroke-linejoin:round;}</style>
 </defs>
 <g id="figure_1">
  <g id="patch_1">
   <path d="M 0 288 
L 576 288 
L 576 0 
L 0 0 
z
" style="fill:#ffffff;"/>
  </g>
  <g id="axes_1">
   <g id="patch_2">
    <path d="M 33.8 243.2 
L 565.2 243.2 
L 565.2 13.605503 
L 33.8 13.605503 
z
" style="fill:#e5e5e5;"/>
   </g>
   <g id="matplotlib.axis_1">
    <g id="xtick_1">
     <g id="line2d_1">
      <path clip-path="url(#p1d13e26d07)" d="M 53.074839 243.2 
L 53.074839 13.605503 
" style="fill:none;stroke:#ffffff;stroke-linecap:square;stroke-width:0.8;"/>
     </g>
     <g id="line2d_2">
      <defs>
       <path d="M 0 0 
L 0 3.5 
" id="ma93496973b" style="stroke:#555555;stroke-width:0.8;"/>
      </defs>
      <g>
       <use style="fill:#555555;stroke:#555555;stroke-width:0.8;" x="53.074839" xlink:href="#ma93496973b" y="243.2"/>
      </g>
     </g>
     <g id="text_1">
      <!-- 0 -->
      <g style="fill:#555555;" transform="translate(49.893589 257.798437)scale(0.1 -0.1)">
       <defs>
        <path d="M 2034 4250 
Q 1547 4250 1301 3770 
Q 1056 3291 1056 2328 
Q 1056 1369 1301 889 
Q 1547 409 2034 409 
Q 2525 409 2770 889 
Q 3016 1369 3016 2328 
Q 3016 3291 2770 3770 
Q 2525 4250 2034 4250 
z
M 2034 4750 
Q 2819 4750 3233 4129 
Q 3647 3509 3647 2328 
Q 3647 1150 3233 529 
Q 2819 -91 2034 -91 
Q 1250 -91 836 529 
Q 422 1150 422 2328 
Q 422 3509 836 4129 
Q 1250 4750 2034 4750 
z
" id="DejaVuSans-30" transform="scale(0.015625)"/>
       </defs>
       <use xlink:href="#DejaVuSans-30"/>
      </g>
     </g>
    </g>
    <g id="xtick_2">
     <g id="line2d_3">
      <path clip-path="url(#p1d13e26d07)" d="M 150.668962 243.2 
L 150.668962 13.605503 
" style="fill:none;stroke:#ffffff;stroke-linecap:square;stroke-width:0.8;"/>
     </g>
     <g id="line2d_4">
      <g>
       <use style="fill:#555555;stroke:#555555;stroke-width:0.8;" x="150.668962" xlink:href="#ma93496973b" y="243.2"/>
      </g>
     </g>
     <g id="text_2">
      <!-- 20 -->
      <g style="fill:#555555;" transform="translate(144.306462 257.798437)scale(0.1 -0.1)">
       <defs>
        <path d="M 1228 531 
L 3431 531 
L 3431 0 
L 469 0 
L 469 531 
Q 828 903 1448 1529 
Q 2069 2156 2228 2338 
Q 2531 2678 2651 2914 
Q 2772 3150 2772 3378 
Q 2772 3750 2511 3984 
Q 2250 4219 1831 4219 
Q 1534 4219 1204 4116 
Q 875 4013 500 3803 
L 500 4441 
Q 881 4594 1212 4672 
Q 1544 4750 1819 4750 
Q 2544 4750 2975 4387 
Q 3406 4025 3406 3419 
Q 3406 3131 3298 2873 
Q 3191 2616 2906 2266 
Q 2828 2175 2409 1742 
Q 1991 1309 1228 531 
z
" id="DejaVuSans-32" transform="scale(0.015625)"/>
       </defs>
       <use xlink:href="#DejaVuSans-32"/>
       <use x="63.623047" xlink:href="#DejaVuSans-30"/>
      </g>
     </g>
    </g>
    <g id="xtick_3">
     <g id="line2d_5">
      <path clip-path="url(#p1d13e26d07)" d="M 248.263085 243.2 
L 248.263085 13.605503 
" style="fill:none;stroke:#ffffff;stroke-linecap:square;stroke-width:0.8;"/>
     </g>
     <g id="line2d_6">
      <g>
       <use style="fill:#555555;stroke:#555555;stroke-width:0.8;" x="248.263085" xlink:href="#ma93496973b" y="243.2"/>
      </g>
     </g>
     <g id="text_3">
      <!-- 40 -->
      <g style="fill:#555555;" transform="translate(241.900585 257.798437)scale(0.1 -0.1)">
       <defs>
        <path d="M 2419 4116 
L 825 1625 
L 2419 1625 
L 2419 4116 
z
M 2253 4666 
L 3047 4666 
L 3047 1625 
L 3713 1625 
L 3713 1100 
L 3047 1100 
L 3047 0 
L 2419 0 
L 2419 1100 
L 313 1100 
L 313 1709 
L 2253 4666 
z
" id="DejaVuSans-34" transform="scale(0.015625)"/>
       </defs>
       <use xlink:href="#DejaVuSans-34"/>
       <use x="63.623047" xlink:href="#DejaVuSans-30"/>
      </g>
     </g>
    </g>
    <g id="xtick_4">
     <g id="line2d_7">
      <path clip-path="url(#p1d13e26d07)" d="M 345.857208 243.2 
L 345.857208 13.605503 
" style="fill:none;stroke:#ffffff;stroke-linecap:square;stroke-width:0.8;"/>
     </g>
     <g id="line2d_8">
      <g>
       <use style="fill:#555555;stroke:#555555;stroke-width:0.8;" x="345.857208" xlink:href="#ma93496973b" y="243.2"/>
      </g>
     </g>
     <g id="text_4">
      <!-- 60 -->
      <g style="fill:#555555;" transform="translate(339.494708 257.798437)scale(0.1 -0.1)">
       <defs>
        <path d="M 2113 2584 
Q 1688 2584 1439 2293 
Q 1191 2003 1191 1497 
Q 1191 994 1439 701 
Q 1688 409 2113 409 
Q 2538 409 2786 701 
Q 3034 994 3034 1497 
Q 3034 2003 2786 2293 
Q 2538 2584 2113 2584 
z
M 3366 4563 
L 3366 3988 
Q 3128 4100 2886 4159 
Q 2644 4219 2406 4219 
Q 1781 4219 1451 3797 
Q 1122 3375 1075 2522 
Q 1259 2794 1537 2939 
Q 1816 3084 2150 3084 
Q 2853 3084 3261 2657 
Q 3669 2231 3669 1497 
Q 3669 778 3244 343 
Q 2819 -91 2113 -91 
Q 1303 -91 875 529 
Q 447 1150 447 2328 
Q 447 3434 972 4092 
Q 1497 4750 2381 4750 
Q 2619 4750 2861 4703 
Q 3103 4656 3366 4563 
z
" id="DejaVuSans-36" transform="scale(0.015625)"/>
       </defs>
       <use xlink:href="#DejaVuSans-36"/>
       <use x="63.623047" xlink:href="#DejaVuSans-30"/>
      </g>
     </g>
    </g>
    <g id="xtick_5">
     <g id="line2d_9">
      <path clip-path="url(#p1d13e26d07)" d="M 443.451331 243.2 
L 443.451331 13.605503 
" style="fill:none;stroke:#ffffff;stroke-linecap:square;stroke-width:0.8;"/>
     </g>
     <g id="line2d_10">
      <g>
       <use style="fill:#555555;stroke:#555555;stroke-width:0.8;" x="443.451331" xlink:href="#ma93496973b" y="243.2"/>
      </g>
     </g>
     <g id="text_5">
      <!-- 80 -->
      <g style="fill:#555555;" transform="translate(437.088831 257.798437)scale(0.1 -0.1)">
       <defs>
        <path d="M 2034 2216 
Q 1584 2216 1326 1975 
Q 1069 1734 1069 1313 
Q 1069 891 1326 650 
Q 1584 409 2034 409 
Q 2484 409 2743 651 
Q 3003 894 3003 1313 
Q 3003 1734 2745 1975 
Q 2488 2216 2034 2216 
z
M 1403 2484 
Q 997 2584 770 2862 
Q 544 3141 544 3541 
Q 544 4100 942 4425 
Q 1341 4750 2034 4750 
Q 2731 4750 3128 4425 
Q 3525 4100 3525 3541 
Q 3525 3141 3298 2862 
Q 3072 2584 2669 2484 
Q 3125 2378 3379 2068 
Q 3634 1759 3634 1313 
Q 3634 634 3220 271 
Q 2806 -91 2034 -91 
Q 1263 -91 848 271 
Q 434 634 434 1313 
Q 434 1759 690 2068 
Q 947 2378 1403 2484 
z
M 1172 3481 
Q 1172 3119 1398 2916 
Q 1625 2713 2034 2713 
Q 2441 2713 2670 2916 
Q 2900 3119 2900 3481 
Q 2900 3844 2670 4047 
Q 2441 4250 2034 4250 
Q 1625 4250 1398 4047 
Q 1172 3844 1172 3481 
z
" id="DejaVuSans-38" transform="scale(0.015625)"/>
       </defs>
       <use xlink:href="#DejaVuSans-38"/>
       <use x="63.623047" xlink:href="#DejaVuSans-30"/>
      </g>
     </g>
    </g>
    <g id="xtick_6">
     <g id="line2d_11">
      <path clip-path="url(#p1d13e26d07)" d="M 541.045455 243.2 
L 541.045455 13.605503 
" style="fill:none;stroke:#ffffff;stroke-linecap:square;stroke-width:0.8;"/>
     </g>
     <g id="line2d_12">
      <g>
       <use style="fill:#555555;stroke:#555555;stroke-width:0.8;" x="541.045455" xlink:href="#ma93496973b" y="243.2"/>
      </g>
     </g>
     <g id="text_6">
      <!-- 100 -->
      <g style="fill:#555555;" transform="translate(531.501705 257.798437)scale(0.1 -0.1)">
       <defs>
        <path d="M 794 531 
L 1825 531 
L 1825 4091 
L 703 3866 
L 703 4441 
L 1819 4666 
L 2450 4666 
L 2450 531 
L 3481 531 
L 3481 0 
L 794 0 
L 794 531 
z
" id="DejaVuSans-31" transform="scale(0.015625)"/>
       </defs>
       <use xlink:href="#DejaVuSans-31"/>
       <use x="63.623047" xlink:href="#DejaVuSans-30"/>
       <use x="127.246094" xlink:href="#DejaVuSans-30"/>
      </g>
     </g>
    </g>
    <g id="text_7">
     <!-- Epoch number -->
     <g style="fill:#555555;" transform="translate(255.803125 272.99625)scale(0.12 -0.12)">
      <defs>
       <path d="M 628 4666 
L 3578 4666 
L 3578 4134 
L 1259 4134 
L 1259 2753 
L 3481 2753 
L 3481 2222 
L 1259 2222 
L 1259 531 
L 3634 531 
L 3634 0 
L 628 0 
L 628 4666 
z
" id="DejaVuSans-45" transform="scale(0.015625)"/>
       <path d="M 1159 525 
L 1159 -1331 
L 581 -1331 
L 581 3500 
L 1159 3500 
L 1159 2969 
Q 1341 3281 1617 3432 
Q 1894 3584 2278 3584 
Q 2916 3584 3314 3078 
Q 3713 2572 3713 1747 
Q 3713 922 3314 415 
Q 2916 -91 2278 -91 
Q 1894 -91 1617 61 
Q 1341 213 1159 525 
z
M 3116 1747 
Q 3116 2381 2855 2742 
Q 2594 3103 2138 3103 
Q 1681 3103 1420 2742 
Q 1159 2381 1159 1747 
Q 1159 1113 1420 752 
Q 1681 391 2138 391 
Q 2594 391 2855 752 
Q 3116 1113 3116 1747 
z
" id="DejaVuSans-70" transform="scale(0.015625)"/>
       <path d="M 1959 3097 
Q 1497 3097 1228 2736 
Q 959 2375 959 1747 
Q 959 1119 1226 758 
Q 1494 397 1959 397 
Q 2419 397 2687 759 
Q 2956 1122 2956 1747 
Q 2956 2369 2687 2733 
Q 2419 3097 1959 3097 
z
M 1959 3584 
Q 2709 3584 3137 3096 
Q 3566 2609 3566 1747 
Q 3566 888 3137 398 
Q 2709 -91 1959 -91 
Q 1206 -91 779 398 
Q 353 888 353 1747 
Q 353 2609 779 3096 
Q 1206 3584 1959 3584 
z
" id="DejaVuSans-6f" transform="scale(0.015625)"/>
       <path d="M 3122 3366 
L 3122 2828 
Q 2878 2963 2633 3030 
Q 2388 3097 2138 3097 
Q 1578 3097 1268 2742 
Q 959 2388 959 1747 
Q 959 1106 1268 751 
Q 1578 397 2138 397 
Q 2388 397 2633 464 
Q 2878 531 3122 666 
L 3122 134 
Q 2881 22 2623 -34 
Q 2366 -91 2075 -91 
Q 1284 -91 818 406 
Q 353 903 353 1747 
Q 353 2603 823 3093 
Q 1294 3584 2113 3584 
Q 2378 3584 2631 3529 
Q 2884 3475 3122 3366 
z
" id="DejaVuSans-63" transform="scale(0.015625)"/>
       <path d="M 3513 2113 
L 3513 0 
L 2938 0 
L 2938 2094 
Q 2938 2591 2744 2837 
Q 2550 3084 2163 3084 
Q 1697 3084 1428 2787 
Q 1159 2491 1159 1978 
L 1159 0 
L 581 0 
L 581 4863 
L 1159 4863 
L 1159 2956 
Q 1366 3272 1645 3428 
Q 1925 3584 2291 3584 
Q 2894 3584 3203 3211 
Q 3513 2838 3513 2113 
z
" id="DejaVuSans-68" transform="scale(0.015625)"/>
       <path id="DejaVuSans-20" transform="scale(0.015625)"/>
       <path d="M 3513 2113 
L 3513 0 
L 2938 0 
L 2938 2094 
Q 2938 2591 2744 2837 
Q 2550 3084 2163 3084 
Q 1697 3084 1428 2787 
Q 1159 2491 1159 1978 
L 1159 0 
L 581 0 
L 581 3500 
L 1159 3500 
L 1159 2956 
Q 1366 3272 1645 3428 
Q 1925 3584 2291 3584 
Q 2894 3584 3203 3211 
Q 3513 2838 3513 2113 
z
" id="DejaVuSans-6e" transform="scale(0.015625)"/>
       <path d="M 544 1381 
L 544 3500 
L 1119 3500 
L 1119 1403 
Q 1119 906 1312 657 
Q 1506 409 1894 409 
Q 2359 409 2629 706 
Q 2900 1003 2900 1516 
L 2900 3500 
L 3475 3500 
L 3475 0 
L 2900 0 
L 2900 538 
Q 2691 219 2414 64 
Q 2138 -91 1772 -91 
Q 1169 -91 856 284 
Q 544 659 544 1381 
z
M 1991 3584 
L 1991 3584 
z
" id="DejaVuSans-75" transform="scale(0.015625)"/>
       <path d="M 3328 2828 
Q 3544 3216 3844 3400 
Q 4144 3584 4550 3584 
Q 5097 3584 5394 3201 
Q 5691 2819 5691 2113 
L 5691 0 
L 5113 0 
L 5113 2094 
Q 5113 2597 4934 2840 
Q 4756 3084 4391 3084 
Q 3944 3084 3684 2787 
Q 3425 2491 3425 1978 
L 3425 0 
L 2847 0 
L 2847 2094 
Q 2847 2600 2669 2842 
Q 2491 3084 2119 3084 
Q 1678 3084 1418 2786 
Q 1159 2488 1159 1978 
L 1159 0 
L 581 0 
L 581 3500 
L 1159 3500 
L 1159 2956 
Q 1356 3278 1631 3431 
Q 1906 3584 2284 3584 
Q 2666 3584 2933 3390 
Q 3200 3197 3328 2828 
z
" id="DejaVuSans-6d" transform="scale(0.015625)"/>
       <path d="M 3116 1747 
Q 3116 2381 2855 2742 
Q 2594 3103 2138 3103 
Q 1681 3103 1420 2742 
Q 1159 2381 1159 1747 
Q 1159 1113 1420 752 
Q 1681 391 2138 391 
Q 2594 391 2855 752 
Q 3116 1113 3116 1747 
z
M 1159 2969 
Q 1341 3281 1617 3432 
Q 1894 3584 2278 3584 
Q 2916 3584 3314 3078 
Q 3713 2572 3713 1747 
Q 3713 922 3314 415 
Q 2916 -91 2278 -91 
Q 1894 -91 1617 61 
Q 1341 213 1159 525 
L 1159 0 
L 581 0 
L 581 4863 
L 1159 4863 
L 1159 2969 
z
" id="DejaVuSans-62" transform="scale(0.015625)"/>
       <path d="M 3597 1894 
L 3597 1613 
L 953 1613 
Q 991 1019 1311 708 
Q 1631 397 2203 397 
Q 2534 397 2845 478 
Q 3156 559 3463 722 
L 3463 178 
Q 3153 47 2828 -22 
Q 2503 -91 2169 -91 
Q 1331 -91 842 396 
Q 353 884 353 1716 
Q 353 2575 817 3079 
Q 1281 3584 2069 3584 
Q 2775 3584 3186 3129 
Q 3597 2675 3597 1894 
z
M 3022 2063 
Q 3016 2534 2758 2815 
Q 2500 3097 2075 3097 
Q 1594 3097 1305 2825 
Q 1016 2553 972 2059 
L 3022 2063 
z
" id="DejaVuSans-65" transform="scale(0.015625)"/>
       <path d="M 2631 2963 
Q 2534 3019 2420 3045 
Q 2306 3072 2169 3072 
Q 1681 3072 1420 2755 
Q 1159 2438 1159 1844 
L 1159 0 
L 581 0 
L 581 3500 
L 1159 3500 
L 1159 2956 
Q 1341 3275 1631 3429 
Q 1922 3584 2338 3584 
Q 2397 3584 2469 3576 
Q 2541 3569 2628 3553 
L 2631 2963 
z
" id="DejaVuSans-72" transform="scale(0.015625)"/>
      </defs>
      <use xlink:href="#DejaVuSans-45"/>
      <use x="63.183594" xlink:href="#DejaVuSans-70"/>
      <use x="126.660156" xlink:href="#DejaVuSans-6f"/>
      <use x="187.841797" xlink:href="#DejaVuSans-63"/>
      <use x="242.822266" xlink:href="#DejaVuSans-68"/>
      <use x="306.201172" xlink:href="#DejaVuSans-20"/>
      <use x="337.988281" xlink:href="#DejaVuSans-6e"/>
      <use x="401.367188" xlink:href="#DejaVuSans-75"/>
      <use x="464.746094" xlink:href="#DejaVuSans-6d"/>
      <use x="562.158203" xlink:href="#DejaVuSans-62"/>
      <use x="625.634766" xlink:href="#DejaVuSans-65"/>
      <use x="687.158203" xlink:href="#DejaVuSans-72"/>
     </g>
    </g>
   </g>
   <g id="matplotlib.axis_2">
    <g id="ytick_1">
     <g id="line2d_13">
      <path clip-path="url(#p1d13e26d07)" d="M 33.8 229.722045 
L 565.2 229.722045 
" style="fill:none;stroke:#ffffff;stroke-linecap:square;stroke-width:0.8;"/>
     </g>
     <g id="line2d_14">
      <defs>
       <path d="M 0 0 
L -3.5 0 
" id="m232688105d" style="stroke:#555555;stroke-width:0.8;"/>
      </defs>
      <g>
       <use style="fill:#555555;stroke:#555555;stroke-width:0.8;" x="33.8" xlink:href="#m232688105d" y="229.722045"/>
      </g>
     </g>
     <g id="text_8">
      <!-- 0.5 -->
      <g style="fill:#555555;" transform="translate(10.896875 233.521263)scale(0.1 -0.1)">
       <defs>
        <path d="M 684 794 
L 1344 794 
L 1344 0 
L 684 0 
L 684 794 
z
" id="DejaVuSans-2e" transform="scale(0.015625)"/>
        <path d="M 691 4666 
L 3169 4666 
L 3169 4134 
L 1269 4134 
L 1269 2991 
Q 1406 3038 1543 3061 
Q 1681 3084 1819 3084 
Q 2600 3084 3056 2656 
Q 3513 2228 3513 1497 
Q 3513 744 3044 326 
Q 2575 -91 1722 -91 
Q 1428 -91 1123 -41 
Q 819 9 494 109 
L 494 744 
Q 775 591 1075 516 
Q 1375 441 1709 441 
Q 2250 441 2565 725 
Q 2881 1009 2881 1497 
Q 2881 1984 2565 2268 
Q 2250 2553 1709 2553 
Q 1456 2553 1204 2497 
Q 953 2441 691 2322 
L 691 4666 
z
" id="DejaVuSans-35" transform="scale(0.015625)"/>
       </defs>
       <use xlink:href="#DejaVuSans-30"/>
       <use x="63.623047" xlink:href="#DejaVuSans-2e"/>
       <use x="95.410156" xlink:href="#DejaVuSans-35"/>
      </g>
     </g>
    </g>
    <g id="ytick_2">
     <g id="line2d_15">
      <path clip-path="url(#p1d13e26d07)" d="M 33.8 199.028434 
L 565.2 199.028434 
" style="fill:none;stroke:#ffffff;stroke-linecap:square;stroke-width:0.8;"/>
     </g>
     <g id="line2d_16">
      <g>
       <use style="fill:#555555;stroke:#555555;stroke-width:0.8;" x="33.8" xlink:href="#m232688105d" y="199.028434"/>
      </g>
     </g>
     <g id="text_9">
      <!-- 1.0 -->
      <g style="fill:#555555;" transform="translate(10.896875 202.827653)scale(0.1 -0.1)">
       <use xlink:href="#DejaVuSans-31"/>
       <use x="63.623047" xlink:href="#DejaVuSans-2e"/>
       <use x="95.410156" xlink:href="#DejaVuSans-30"/>
      </g>
     </g>
    </g>
    <g id="ytick_3">
     <g id="line2d_17">
      <path clip-path="url(#p1d13e26d07)" d="M 33.8 168.334823 
L 565.2 168.334823 
" style="fill:none;stroke:#ffffff;stroke-linecap:square;stroke-width:0.8;"/>
     </g>
     <g id="line2d_18">
      <g>
       <use style="fill:#555555;stroke:#555555;stroke-width:0.8;" x="33.8" xlink:href="#m232688105d" y="168.334823"/>
      </g>
     </g>
     <g id="text_10">
      <!-- 1.5 -->
      <g style="fill:#555555;" transform="translate(10.896875 172.134042)scale(0.1 -0.1)">
       <use xlink:href="#DejaVuSans-31"/>
       <use x="63.623047" xlink:href="#DejaVuSans-2e"/>
       <use x="95.410156" xlink:href="#DejaVuSans-35"/>
      </g>
     </g>
    </g>
    <g id="ytick_4">
     <g id="line2d_19">
      <path clip-path="url(#p1d13e26d07)" d="M 33.8 137.641213 
L 565.2 137.641213 
" style="fill:none;stroke:#ffffff;stroke-linecap:square;stroke-width:0.8;"/>
     </g>
     <g id="line2d_20">
      <g>
       <use style="fill:#555555;stroke:#555555;stroke-width:0.8;" x="33.8" xlink:href="#m232688105d" y="137.641213"/>
      </g>
     </g>
     <g id="text_11">
      <!-- 2.0 -->
      <g style="fill:#555555;" transform="translate(10.896875 141.440432)scale(0.1 -0.1)">
       <use xlink:href="#DejaVuSans-32"/>
       <use x="63.623047" xlink:href="#DejaVuSans-2e"/>
       <use x="95.410156" xlink:href="#DejaVuSans-30"/>
      </g>
     </g>
    </g>
    <g id="ytick_5">
     <g id="line2d_21">
      <path clip-path="url(#p1d13e26d07)" d="M 33.8 106.947602 
L 565.2 106.947602 
" style="fill:none;stroke:#ffffff;stroke-linecap:square;stroke-width:0.8;"/>
     </g>
     <g id="line2d_22">
      <g>
       <use style="fill:#555555;stroke:#555555;stroke-width:0.8;" x="33.8" xlink:href="#m232688105d" y="106.947602"/>
      </g>
     </g>
     <g id="text_12">
      <!-- 2.5 -->
      <g style="fill:#555555;" transform="translate(10.896875 110.746821)scale(0.1 -0.1)">
       <use xlink:href="#DejaVuSans-32"/>
       <use x="63.623047" xlink:href="#DejaVuSans-2e"/>
       <use x="95.410156" xlink:href="#DejaVuSans-35"/>
      </g>
     </g>
    </g>
    <g id="ytick_6">
     <g id="line2d_23">
      <path clip-path="url(#p1d13e26d07)" d="M 33.8 76.253991 
L 565.2 76.253991 
" style="fill:none;stroke:#ffffff;stroke-linecap:square;stroke-width:0.8;"/>
     </g>
     <g id="line2d_24">
      <g>
       <use style="fill:#555555;stroke:#555555;stroke-width:0.8;" x="33.8" xlink:href="#m232688105d" y="76.253991"/>
      </g>
     </g>
     <g id="text_13">
      <!-- 3.0 -->
      <g style="fill:#555555;" transform="translate(10.896875 80.05321)scale(0.1 -0.1)">
       <defs>
        <path d="M 2597 2516 
Q 3050 2419 3304 2112 
Q 3559 1806 3559 1356 
Q 3559 666 3084 287 
Q 2609 -91 1734 -91 
Q 1441 -91 1130 -33 
Q 819 25 488 141 
L 488 750 
Q 750 597 1062 519 
Q 1375 441 1716 441 
Q 2309 441 2620 675 
Q 2931 909 2931 1356 
Q 2931 1769 2642 2001 
Q 2353 2234 1838 2234 
L 1294 2234 
L 1294 2753 
L 1863 2753 
Q 2328 2753 2575 2939 
Q 2822 3125 2822 3475 
Q 2822 3834 2567 4026 
Q 2313 4219 1838 4219 
Q 1578 4219 1281 4162 
Q 984 4106 628 3988 
L 628 4550 
Q 988 4650 1302 4700 
Q 1616 4750 1894 4750 
Q 2613 4750 3031 4423 
Q 3450 4097 3450 3541 
Q 3450 3153 3228 2886 
Q 3006 2619 2597 2516 
z
" id="DejaVuSans-33" transform="scale(0.015625)"/>
       </defs>
       <use xlink:href="#DejaVuSans-33"/>
       <use x="63.623047" xlink:href="#DejaVuSans-2e"/>
       <use x="95.410156" xlink:href="#DejaVuSans-30"/>
      </g>
     </g>
    </g>
    <g id="ytick_7">
     <g id="line2d_25">
      <path clip-path="url(#p1d13e26d07)" d="M 33.8 45.560381 
L 565.2 45.560381 
" style="fill:none;stroke:#ffffff;stroke-linecap:square;stroke-width:0.8;"/>
     </g>
     <g id="line2d_26">
      <g>
       <use style="fill:#555555;stroke:#555555;stroke-width:0.8;" x="33.8" xlink:href="#m232688105d" y="45.560381"/>
      </g>
     </g>
     <g id="text_14">
      <!-- 3.5 -->
      <g style="fill:#555555;" transform="translate(10.896875 49.3596)scale(0.1 -0.1)">
       <use xlink:href="#DejaVuSans-33"/>
       <use x="63.623047" xlink:href="#DejaVuSans-2e"/>
       <use x="95.410156" xlink:href="#DejaVuSans-35"/>
      </g>
     </g>
    </g>
    <g id="ytick_8">
     <g id="line2d_27">
      <path clip-path="url(#p1d13e26d07)" d="M 33.8 14.86677 
L 565.2 14.86677 
" style="fill:none;stroke:#ffffff;stroke-linecap:square;stroke-width:0.8;"/>
     </g>
     <g id="line2d_28">
      <g>
       <use style="fill:#555555;stroke:#555555;stroke-width:0.8;" x="33.8" xlink:href="#m232688105d" y="14.86677"/>
      </g>
     </g>
     <g id="text_15">
      <!-- 4.0 -->
      <g style="fill:#555555;" transform="translate(10.896875 18.665989)scale(0.1 -0.1)">
       <use xlink:href="#DejaVuSans-34"/>
       <use x="63.623047" xlink:href="#DejaVuSans-2e"/>
       <use x="95.410156" xlink:href="#DejaVuSans-30"/>
      </g>
     </g>
    </g>
   </g>
   <g id="line2d_29">
    <path clip-path="url(#p1d13e26d07)" d="M 57.954545 176.947253 
L 62.834252 191.804674 
L 67.713958 199.302773 
L 72.593664 204.540804 
L 77.47337 208.437813 
L 82.353076 211.566949 
L 87.232782 213.531407 
L 92.112489 215.501633 
L 96.992195 217.299825 
L 101.871901 218.8193 
L 106.751607 219.859302 
L 111.631313 220.462192 
L 116.511019 221.671415 
L 121.390725 222.311307 
L 126.270432 223.011442 
L 131.150138 223.729551 
L 136.029844 224.414913 
L 140.90955 224.816029 
L 145.789256 225.11493 
L 150.668962 225.660234 
L 155.548669 225.473496 
L 160.428375 226.406987 
L 165.308081 226.736351 
L 170.187787 226.886308 
L 175.067493 227.258175 
L 179.947199 227.634682 
L 184.826905 227.909166 
L 189.706612 227.68725 
L 194.586318 228.236367 
L 199.466024 228.408239 
L 204.34573 228.61823 
L 209.225436 228.902507 
L 214.105142 229.020387 
L 218.984848 228.993405 
L 223.864555 229.255628 
L 228.744261 229.253435 
L 233.623967 229.116327 
L 238.503673 229.304715 
L 243.383379 229.740679 
L 248.263085 229.651029 
L 253.142792 229.734923 
L 258.022498 229.831661 
L 262.902204 230.027566 
L 267.78191 229.969514 
L 272.661616 229.598587 
L 277.541322 230.259953 
L 282.421028 230.30153 
L 287.300735 230.309509 
L 292.180441 229.879087 
L 297.060147 230.327103 
L 301.939853 230.467951 
L 306.819559 230.741628 
L 311.699265 230.530688 
L 316.578972 230.49224 
L 321.458678 230.353504 
L 326.338384 230.617965 
L 331.21809 230.619628 
L 336.097796 230.624147 
L 340.977502 230.293331 
L 345.857208 230.728979 
L 350.736915 230.834177 
L 355.616621 230.724549 
L 360.496327 231.013372 
L 365.376033 230.505308 
L 370.255739 230.720416 
L 375.135445 230.644872 
L 380.015152 230.504193 
L 384.894858 230.79333 
L 389.774564 230.639795 
L 394.65427 230.8582 
L 399.533976 230.704413 
L 404.413682 230.873281 
L 409.293388 230.784734 
L 414.173095 230.29641 
L 419.052801 230.770936 
L 423.932507 230.599607 
L 428.812213 230.431031 
L 433.691919 230.565612 
L 438.571625 230.442085 
L 443.451331 230.730044 
L 448.331038 230.597584 
L 453.210744 230.470023 
L 458.09045 230.593317 
L 462.970156 230.552633 
L 467.849862 230.463416 
L 472.729568 230.575098 
L 477.609275 230.20321 
L 482.488981 230.54026 
L 487.368687 229.820141 
L 492.248393 230.442512 
L 497.128099 230.099244 
L 502.007805 230.364029 
L 506.887511 229.938123 
L 511.767218 229.898312 
L 516.646924 230.154497 
L 521.52663 230.248346 
L 526.406336 230.20487 
L 531.286042 230.208606 
L 536.165748 229.77564 
L 541.045455 229.69854 
" style="fill:none;stroke:#e24a33;stroke-linecap:square;stroke-width:1.5;"/>
   </g>
   <g id="line2d_30">
    <path clip-path="url(#p1d13e26d07)" d="M 57.954545 177.166904 
L 62.834252 191.228832 
L 67.713958 198.465189 
L 72.593664 203.857477 
L 77.47337 207.634146 
L 82.353076 210.806368 
L 87.232782 212.972938 
L 92.112489 214.766409 
L 96.992195 216.429321 
L 101.871901 217.741541 
L 106.751607 219.08296 
L 111.631313 220.030228 
L 116.511019 220.823505 
L 121.390725 221.574381 
L 126.270432 222.291911 
L 131.150138 222.775226 
L 136.029844 223.653502 
L 140.90955 223.841852 
L 145.789256 224.055238 
L 150.668962 225.052828 
L 155.548669 225.412909 
L 160.428375 225.672625 
L 165.308081 225.967162 
L 170.187787 225.94665 
L 175.067493 226.74554 
L 179.947199 227.066822 
L 184.826905 227.057558 
L 189.706612 227.207896 
L 194.586318 227.629017 
L 199.466024 227.735414 
L 204.34573 228.067706 
L 209.225436 228.417374 
L 214.105142 228.222573 
L 218.984848 228.40889 
L 223.864555 228.593203 
L 228.744261 228.93939 
L 233.623967 228.951606 
L 238.503673 229.009712 
L 243.383379 229.311074 
L 248.263085 229.423123 
L 253.142792 229.633784 
L 258.022498 229.381168 
L 262.902204 229.970045 
L 267.78191 229.71697 
L 272.661616 229.760083 
L 277.541322 230.0064 
L 282.421028 230.084523 
L 287.300735 230.320633 
L 292.180441 230.323999 
L 297.060147 230.102745 
L 301.939853 230.575632 
L 306.819559 230.27857 
L 311.699265 230.682754 
L 316.578972 230.978154 
L 321.458678 230.953393 
L 326.338384 230.889583 
L 331.21809 231.063593 
L 336.097796 230.830745 
L 340.977502 230.961363 
L 345.857208 230.783619 
L 350.736915 231.329534 
L 355.616621 231.086594 
L 360.496327 231.403979 
L 365.376033 231.511926 
L 370.255739 231.488278 
L 375.135445 231.656418 
L 380.015152 231.363877 
L 384.894858 231.801784 
L 389.774564 231.739693 
L 394.65427 231.761417 
L 399.533976 231.86049 
L 404.413682 231.585703 
L 409.293388 231.957332 
L 414.173095 232.001175 
L 419.052801 232.071657 
L 423.932507 231.971047 
L 428.812213 232.098213 
L 433.691919 232.178292 
L 438.571625 232.407988 
L 443.451331 232.240967 
L 448.331038 232.229739 
L 453.210744 232.119289 
L 458.09045 232.136731 
L 462.970156 232.612214 
L 467.849862 232.169036 
L 472.729568 232.190089 
L 477.609275 232.472561 
L 482.488981 232.611017 
L 487.368687 232.299325 
L 492.248393 232.477316 
L 497.128099 232.470916 
L 502.007805 232.587237 
L 506.887511 232.739671 
L 511.767218 232.597967 
L 516.646924 232.763887 
L 521.52663 232.531494 
L 526.406336 232.748204 
L 531.286042 232.714972 
L 536.165748 232.631436 
L 541.045455 232.725122 
" style="fill:none;stroke:#348abd;stroke-linecap:square;stroke-width:1.5;"/>
   </g>
   <g id="line2d_31">
    <path clip-path="url(#p1d13e26d07)" d="M 57.954545 25.088902 
L 62.834252 24.054051 
L 67.713958 24.054891 
L 72.593664 24.053268 
L 77.47337 24.051955 
L 82.353076 24.051649 
L 87.232782 24.050057 
L 92.112489 24.048994 
L 96.992195 24.048177 
L 101.871901 24.047208 
L 106.751607 24.046447 
L 111.631313 24.046008 
L 116.511019 24.045244 
L 121.390725 24.044845 
L 126.270432 24.044684 
L 131.150138 24.044221 
L 136.029844 24.044026 
L 140.90955 24.04366 
L 145.789256 24.043598 
L 150.668962 24.043411 
L 155.548669 24.043394 
L 160.428375 24.042982 
L 165.308081 24.043099 
L 170.187787 24.042745 
L 175.067493 24.042759 
L 179.947199 24.042607 
L 184.826905 24.042455 
L 189.706612 24.04264 
L 194.586318 24.042634 
L 199.466024 24.042468 
L 204.34573 24.042485 
L 209.225436 24.042511 
L 214.105142 24.042519 
L 218.984848 24.042607 
L 223.864555 24.042431 
L 228.744261 24.042529 
L 233.623967 24.042371 
L 238.503673 24.042248 
L 243.383379 24.042355 
L 248.263085 24.042179 
L 253.142792 24.04225 
L 258.022498 24.04212 
L 262.902204 24.042027 
L 267.78191 24.042298 
L 272.661616 24.0423 
L 277.541322 24.042353 
L 282.421028 24.042221 
L 287.300735 24.042295 
L 292.180441 24.0423 
L 297.060147 24.042378 
L 301.939853 24.042369 
L 306.819559 24.042506 
L 311.699265 24.042449 
L 316.578972 24.04215 
L 321.458678 24.042283 
L 326.338384 24.042225 
L 331.21809 24.042248 
L 336.097796 24.042125 
L 340.977502 24.042309 
L 345.857208 24.042256 
L 350.736915 24.042236 
L 355.616621 24.042055 
L 360.496327 24.041963 
L 365.376033 24.042026 
L 370.255739 24.04191 
L 375.135445 24.041911 
L 380.015152 24.041982 
L 384.894858 24.042112 
L 389.774564 24.042235 
L 394.65427 24.04226 
L 399.533976 24.042266 
L 404.413682 24.042526 
L 409.293388 24.042395 
L 414.173095 24.042285 
L 419.052801 24.042216 
L 423.932507 24.041966 
L 428.812213 24.042075 
L 433.691919 24.042039 
L 438.571625 24.04193 
L 443.451331 24.042041 
L 448.331038 24.041994 
L 453.210744 24.04193 
L 458.09045 24.042058 
L 462.970156 24.042037 
L 467.849862 24.042082 
L 472.729568 24.041617 
L 477.609275 24.04201 
L 482.488981 24.042185 
L 487.368687 24.041841 
L 492.248393 24.041948 
L 497.128099 24.041917 
L 502.007805 24.042251 
L 506.887511 24.041953 
L 511.767218 24.04193 
L 516.646924 24.041942 
L 521.52663 24.041617 
L 526.406336 24.041907 
L 531.286042 24.041662 
L 536.165748 24.041765 
L 541.045455 24.041687 
" style="fill:none;stroke:#988ed5;stroke-linecap:square;stroke-width:1.5;"/>
   </g>
   <g id="patch_3">
    <path d="M 33.8 243.2 
L 33.8 13.605503 
" style="fill:none;stroke:#ffffff;stroke-linecap:square;stroke-linejoin:miter;"/>
   </g>
   <g id="patch_4">
    <path d="M 565.2 243.2 
L 565.2 13.605503 
" style="fill:none;stroke:#ffffff;stroke-linecap:square;stroke-linejoin:miter;"/>
   </g>
   <g id="patch_5">
    <path d="M 33.8 243.2 
L 565.2 243.2 
" style="fill:none;stroke:#ffffff;stroke-linecap:square;stroke-linejoin:miter;"/>
   </g>
   <g id="patch_6">
    <path d="M 33.8 13.605503 
L 565.2 13.605503 
" style="fill:none;stroke:#ffffff;stroke-linecap:square;stroke-linejoin:miter;"/>
   </g>
   <g id="legend_1">
    <g id="patch_7">
     <path d="M 447.135937 151.919939 
L 558.2 151.919939 
Q 560.2 151.919939 560.2 149.919939 
L 560.2 106.885564 
Q 560.2 104.885564 558.2 104.885564 
L 447.135937 104.885564 
Q 445.135937 104.885564 445.135937 106.885564 
L 445.135937 149.919939 
Q 445.135937 151.919939 447.135937 151.919939 
z
" style="fill:#e5e5e5;opacity:0.8;stroke:#cccccc;stroke-linejoin:miter;stroke-width:0.5;"/>
    </g>
    <g id="line2d_32">
     <path d="M 449.135937 112.984002 
L 469.135937 112.984002 
" style="fill:none;stroke:#e24a33;stroke-linecap:square;stroke-width:1.5;"/>
    </g>
    <g id="line2d_33"/>
    <g id="text_16">
     <!-- l2 0.0001(valid) -->
     <g transform="translate(477.135937 116.484002)scale(0.1 -0.1)">
      <defs>
       <path d="M 603 4863 
L 1178 4863 
L 1178 0 
L 603 0 
L 603 4863 
z
" id="DejaVuSans-6c" transform="scale(0.015625)"/>
       <path d="M 1984 4856 
Q 1566 4138 1362 3434 
Q 1159 2731 1159 2009 
Q 1159 1288 1364 580 
Q 1569 -128 1984 -844 
L 1484 -844 
Q 1016 -109 783 600 
Q 550 1309 550 2009 
Q 550 2706 781 3412 
Q 1013 4119 1484 4856 
L 1984 4856 
z
" id="DejaVuSans-28" transform="scale(0.015625)"/>
       <path d="M 191 3500 
L 800 3500 
L 1894 563 
L 2988 3500 
L 3597 3500 
L 2284 0 
L 1503 0 
L 191 3500 
z
" id="DejaVuSans-76" transform="scale(0.015625)"/>
       <path d="M 2194 1759 
Q 1497 1759 1228 1600 
Q 959 1441 959 1056 
Q 959 750 1161 570 
Q 1363 391 1709 391 
Q 2188 391 2477 730 
Q 2766 1069 2766 1631 
L 2766 1759 
L 2194 1759 
z
M 3341 1997 
L 3341 0 
L 2766 0 
L 2766 531 
Q 2569 213 2275 61 
Q 1981 -91 1556 -91 
Q 1019 -91 701 211 
Q 384 513 384 1019 
Q 384 1609 779 1909 
Q 1175 2209 1959 2209 
L 2766 2209 
L 2766 2266 
Q 2766 2663 2505 2880 
Q 2244 3097 1772 3097 
Q 1472 3097 1187 3025 
Q 903 2953 641 2809 
L 641 3341 
Q 956 3463 1253 3523 
Q 1550 3584 1831 3584 
Q 2591 3584 2966 3190 
Q 3341 2797 3341 1997 
z
" id="DejaVuSans-61" transform="scale(0.015625)"/>
       <path d="M 603 3500 
L 1178 3500 
L 1178 0 
L 603 0 
L 603 3500 
z
M 603 4863 
L 1178 4863 
L 1178 4134 
L 603 4134 
L 603 4863 
z
" id="DejaVuSans-69" transform="scale(0.015625)"/>
       <path d="M 2906 2969 
L 2906 4863 
L 3481 4863 
L 3481 0 
L 2906 0 
L 2906 525 
Q 2725 213 2448 61 
Q 2172 -91 1784 -91 
Q 1150 -91 751 415 
Q 353 922 353 1747 
Q 353 2572 751 3078 
Q 1150 3584 1784 3584 
Q 2172 3584 2448 3432 
Q 2725 3281 2906 2969 
z
M 947 1747 
Q 947 1113 1208 752 
Q 1469 391 1925 391 
Q 2381 391 2643 752 
Q 2906 1113 2906 1747 
Q 2906 2381 2643 2742 
Q 2381 3103 1925 3103 
Q 1469 3103 1208 2742 
Q 947 2381 947 1747 
z
" id="DejaVuSans-64" transform="scale(0.015625)"/>
       <path d="M 513 4856 
L 1013 4856 
Q 1481 4119 1714 3412 
Q 1947 2706 1947 2009 
Q 1947 1309 1714 600 
Q 1481 -109 1013 -844 
L 513 -844 
Q 928 -128 1133 580 
Q 1338 1288 1338 2009 
Q 1338 2731 1133 3434 
Q 928 4138 513 4856 
z
" id="DejaVuSans-29" transform="scale(0.015625)"/>
      </defs>
      <use xlink:href="#DejaVuSans-6c"/>
      <use x="27.783203" xlink:href="#DejaVuSans-32"/>
      <use x="91.40625" xlink:href="#DejaVuSans-20"/>
      <use x="123.193359" xlink:href="#DejaVuSans-30"/>
      <use x="186.816406" xlink:href="#DejaVuSans-2e"/>
      <use x="218.603516" xlink:href="#DejaVuSans-30"/>
      <use x="282.226562" xlink:href="#DejaVuSans-30"/>
      <use x="345.849609" xlink:href="#DejaVuSans-30"/>
      <use x="409.472656" xlink:href="#DejaVuSans-31"/>
      <use x="473.095703" xlink:href="#DejaVuSans-28"/>
      <use x="512.109375" xlink:href="#DejaVuSans-76"/>
      <use x="571.289062" xlink:href="#DejaVuSans-61"/>
      <use x="632.568359" xlink:href="#DejaVuSans-6c"/>
      <use x="660.351562" xlink:href="#DejaVuSans-69"/>
      <use x="688.134766" xlink:href="#DejaVuSans-64"/>
      <use x="751.611328" xlink:href="#DejaVuSans-29"/>
     </g>
    </g>
    <g id="line2d_34">
     <path d="M 449.135937 127.662127 
L 469.135937 127.662127 
" style="fill:none;stroke:#348abd;stroke-linecap:square;stroke-width:1.5;"/>
    </g>
    <g id="line2d_35"/>
    <g id="text_17">
     <!-- l2 0.001(valid) -->
     <g transform="translate(477.135937 131.162127)scale(0.1 -0.1)">
      <use xlink:href="#DejaVuSans-6c"/>
      <use x="27.783203" xlink:href="#DejaVuSans-32"/>
      <use x="91.40625" xlink:href="#DejaVuSans-20"/>
      <use x="123.193359" xlink:href="#DejaVuSans-30"/>
      <use x="186.816406" xlink:href="#DejaVuSans-2e"/>
      <use x="218.603516" xlink:href="#DejaVuSans-30"/>
      <use x="282.226562" xlink:href="#DejaVuSans-30"/>
      <use x="345.849609" xlink:href="#DejaVuSans-31"/>
      <use x="409.472656" xlink:href="#DejaVuSans-28"/>
      <use x="448.486328" xlink:href="#DejaVuSans-76"/>
      <use x="507.666016" xlink:href="#DejaVuSans-61"/>
      <use x="568.945312" xlink:href="#DejaVuSans-6c"/>
      <use x="596.728516" xlink:href="#DejaVuSans-69"/>
      <use x="624.511719" xlink:href="#DejaVuSans-64"/>
      <use x="687.988281" xlink:href="#DejaVuSans-29"/>
     </g>
    </g>
    <g id="line2d_36">
     <path d="M 449.135937 142.340252 
L 469.135937 142.340252 
" style="fill:none;stroke:#988ed5;stroke-linecap:square;stroke-width:1.5;"/>
    </g>
    <g id="line2d_37"/>
    <g id="text_18">
     <!-- l2 0.1(valid) -->
     <g transform="translate(477.135937 145.840252)scale(0.1 -0.1)">
      <use xlink:href="#DejaVuSans-6c"/>
      <use x="27.783203" xlink:href="#DejaVuSans-32"/>
      <use x="91.40625" xlink:href="#DejaVuSans-20"/>
      <use x="123.193359" xlink:href="#DejaVuSans-30"/>
      <use x="186.816406" xlink:href="#DejaVuSans-2e"/>
      <use x="218.603516" xlink:href="#DejaVuSans-31"/>
      <use x="282.226562" xlink:href="#DejaVuSans-28"/>
      <use x="321.240234" xlink:href="#DejaVuSans-76"/>
      <use x="380.419922" xlink:href="#DejaVuSans-61"/>
      <use x="441.699219" xlink:href="#DejaVuSans-6c"/>
      <use x="469.482422" xlink:href="#DejaVuSans-69"/>
      <use x="497.265625" xlink:href="#DejaVuSans-64"/>
      <use x="560.742188" xlink:href="#DejaVuSans-29"/>
     </g>
    </g>
   </g>
  </g>
 </g>
 <defs>
  <clipPath id="p1d13e26d07">
   <rect height="229.594497" width="531.4" x="33.8" y="13.605503"/>
  </clipPath>
 </defs>
</svg>
