<?xml version="1.0" encoding="utf-8" standalone="no"?>
<!DOCTYPE svg PUBLIC "-//W3C//DTD SVG 1.1//EN"
  "http://www.w3.org/Graphics/SVG/1.1/DTD/svg11.dtd">
<svg height="288pt" version="1.1" viewBox="0 0 576 288" width="576pt" xmlns="http://www.w3.org/2000/svg" xmlns:xlink="http://www.w3.org/1999/xlink">
 <metadata>
  <rdf:RDF xmlns:cc="http://creativecommons.org/ns#" xmlns:dc="http://purl.org/dc/elements/1.1/" xmlns:rdf="http://www.w3.org/1999/02/22-rdf-syntax-ns#">
   <cc:Work>
    <dc:type rdf:resource="http://purl.org/dc/dcmitype/StillImage"/>
    <dc:date>2021-11-04T21:11:38.618553</dc:date>
    <dc:format>image/svg+xml</dc:format>
    <dc:creator>
     <cc:Agent>
      <dc:title>Matplotlib v3.4.3, https://matplotlib.org/</dc:title>
     </cc:Agent>
    </dc:creator>
   </cc:Work>
  </rdf:RDF>
 </metadata>
 <defs>
  <style type="text/css">*{stroke-linecap:butt;stroke-linejoin:round;}</style>
 </defs>
 <g id="figure_1">
  <g id="patch_1">
   <path d="M 0 288 
L 576 288 
L 576 0 
L 0 0 
z
" style="fill:#ffffff;"/>
  </g>
  <g id="axes_1">
   <g id="patch_2">
    <path d="M 33.8 243.2 
L 542.325 243.2 
L 542.325 48.8 
L 33.8 48.8 
z
" style="fill:#e5e5e5;"/>
   </g>
   <g id="matplotlib.axis_1">
    <g id="xtick_1">
     <g id="line2d_1">
      <path clip-path="url(#p0bbd7ba5de)" d="M 52.245122 243.2 
L 52.245122 48.8 
" style="fill:none;stroke:#ffffff;stroke-linecap:square;stroke-width:0.8;"/>
     </g>
     <g id="line2d_2">
      <defs>
       <path d="M 0 0 
L 0 3.5 
" id="mb4288913e1" style="stroke:#555555;stroke-width:0.8;"/>
      </defs>
      <g>
       <use style="fill:#555555;stroke:#555555;stroke-width:0.8;" x="52.245122" xlink:href="#mb4288913e1" y="243.2"/>
      </g>
     </g>
     <g id="text_1">
      <!-- 0 -->
      <g style="fill:#555555;" transform="translate(49.063872 257.798437)scale(0.1 -0.1)">
       <defs>
        <path d="M 2034 4250 
Q 1547 4250 1301 3770 
Q 1056 3291 1056 2328 
Q 1056 1369 1301 889 
Q 1547 409 2034 409 
Q 2525 409 2770 889 
Q 3016 1369 3016 2328 
Q 3016 3291 2770 3770 
Q 2525 4250 2034 4250 
z
M 2034 4750 
Q 2819 4750 3233 4129 
Q 3647 3509 3647 2328 
Q 3647 1150 3233 529 
Q 2819 -91 2034 -91 
Q 1250 -91 836 529 
Q 422 1150 422 2328 
Q 422 3509 836 4129 
Q 1250 4750 2034 4750 
z
" id="DejaVuSans-30" transform="scale(0.015625)"/>
       </defs>
       <use xlink:href="#DejaVuSans-30"/>
      </g>
     </g>
    </g>
    <g id="xtick_2">
     <g id="line2d_3">
      <path clip-path="url(#p0bbd7ba5de)" d="M 145.638143 243.2 
L 145.638143 48.8 
" style="fill:none;stroke:#ffffff;stroke-linecap:square;stroke-width:0.8;"/>
     </g>
     <g id="line2d_4">
      <g>
       <use style="fill:#555555;stroke:#555555;stroke-width:0.8;" x="145.638143" xlink:href="#mb4288913e1" y="243.2"/>
      </g>
     </g>
     <g id="text_2">
      <!-- 20 -->
      <g style="fill:#555555;" transform="translate(139.275643 257.798437)scale(0.1 -0.1)">
       <defs>
        <path d="M 1228 531 
L 3431 531 
L 3431 0 
L 469 0 
L 469 531 
Q 828 903 1448 1529 
Q 2069 2156 2228 2338 
Q 2531 2678 2651 2914 
Q 2772 3150 2772 3378 
Q 2772 3750 2511 3984 
Q 2250 4219 1831 4219 
Q 1534 4219 1204 4116 
Q 875 4013 500 3803 
L 500 4441 
Q 881 4594 1212 4672 
Q 1544 4750 1819 4750 
Q 2544 4750 2975 4387 
Q 3406 4025 3406 3419 
Q 3406 3131 3298 2873 
Q 3191 2616 2906 2266 
Q 2828 2175 2409 1742 
Q 1991 1309 1228 531 
z
" id="DejaVuSans-32" transform="scale(0.015625)"/>
       </defs>
       <use xlink:href="#DejaVuSans-32"/>
       <use x="63.623047" xlink:href="#DejaVuSans-30"/>
      </g>
     </g>
    </g>
    <g id="xtick_3">
     <g id="line2d_5">
      <path clip-path="url(#p0bbd7ba5de)" d="M 239.031164 243.2 
L 239.031164 48.8 
" style="fill:none;stroke:#ffffff;stroke-linecap:square;stroke-width:0.8;"/>
     </g>
     <g id="line2d_6">
      <g>
       <use style="fill:#555555;stroke:#555555;stroke-width:0.8;" x="239.031164" xlink:href="#mb4288913e1" y="243.2"/>
      </g>
     </g>
     <g id="text_3">
      <!-- 40 -->
      <g style="fill:#555555;" transform="translate(232.668664 257.798437)scale(0.1 -0.1)">
       <defs>
        <path d="M 2419 4116 
L 825 1625 
L 2419 1625 
L 2419 4116 
z
M 2253 4666 
L 3047 4666 
L 3047 1625 
L 3713 1625 
L 3713 1100 
L 3047 1100 
L 3047 0 
L 2419 0 
L 2419 1100 
L 313 1100 
L 313 1709 
L 2253 4666 
z
" id="DejaVuSans-34" transform="scale(0.015625)"/>
       </defs>
       <use xlink:href="#DejaVuSans-34"/>
       <use x="63.623047" xlink:href="#DejaVuSans-30"/>
      </g>
     </g>
    </g>
    <g id="xtick_4">
     <g id="line2d_7">
      <path clip-path="url(#p0bbd7ba5de)" d="M 332.424185 243.2 
L 332.424185 48.8 
" style="fill:none;stroke:#ffffff;stroke-linecap:square;stroke-width:0.8;"/>
     </g>
     <g id="line2d_8">
      <g>
       <use style="fill:#555555;stroke:#555555;stroke-width:0.8;" x="332.424185" xlink:href="#mb4288913e1" y="243.2"/>
      </g>
     </g>
     <g id="text_4">
      <!-- 60 -->
      <g style="fill:#555555;" transform="translate(326.061685 257.798437)scale(0.1 -0.1)">
       <defs>
        <path d="M 2113 2584 
Q 1688 2584 1439 2293 
Q 1191 2003 1191 1497 
Q 1191 994 1439 701 
Q 1688 409 2113 409 
Q 2538 409 2786 701 
Q 3034 994 3034 1497 
Q 3034 2003 2786 2293 
Q 2538 2584 2113 2584 
z
M 3366 4563 
L 3366 3988 
Q 3128 4100 2886 4159 
Q 2644 4219 2406 4219 
Q 1781 4219 1451 3797 
Q 1122 3375 1075 2522 
Q 1259 2794 1537 2939 
Q 1816 3084 2150 3084 
Q 2853 3084 3261 2657 
Q 3669 2231 3669 1497 
Q 3669 778 3244 343 
Q 2819 -91 2113 -91 
Q 1303 -91 875 529 
Q 447 1150 447 2328 
Q 447 3434 972 4092 
Q 1497 4750 2381 4750 
Q 2619 4750 2861 4703 
Q 3103 4656 3366 4563 
z
" id="DejaVuSans-36" transform="scale(0.015625)"/>
       </defs>
       <use xlink:href="#DejaVuSans-36"/>
       <use x="63.623047" xlink:href="#DejaVuSans-30"/>
      </g>
     </g>
    </g>
    <g id="xtick_5">
     <g id="line2d_9">
      <path clip-path="url(#p0bbd7ba5de)" d="M 425.817206 243.2 
L 425.817206 48.8 
" style="fill:none;stroke:#ffffff;stroke-linecap:square;stroke-width:0.8;"/>
     </g>
     <g id="line2d_10">
      <g>
       <use style="fill:#555555;stroke:#555555;stroke-width:0.8;" x="425.817206" xlink:href="#mb4288913e1" y="243.2"/>
      </g>
     </g>
     <g id="text_5">
      <!-- 80 -->
      <g style="fill:#555555;" transform="translate(419.454706 257.798437)scale(0.1 -0.1)">
       <defs>
        <path d="M 2034 2216 
Q 1584 2216 1326 1975 
Q 1069 1734 1069 1313 
Q 1069 891 1326 650 
Q 1584 409 2034 409 
Q 2484 409 2743 651 
Q 3003 894 3003 1313 
Q 3003 1734 2745 1975 
Q 2488 2216 2034 2216 
z
M 1403 2484 
Q 997 2584 770 2862 
Q 544 3141 544 3541 
Q 544 4100 942 4425 
Q 1341 4750 2034 4750 
Q 2731 4750 3128 4425 
Q 3525 4100 3525 3541 
Q 3525 3141 3298 2862 
Q 3072 2584 2669 2484 
Q 3125 2378 3379 2068 
Q 3634 1759 3634 1313 
Q 3634 634 3220 271 
Q 2806 -91 2034 -91 
Q 1263 -91 848 271 
Q 434 634 434 1313 
Q 434 1759 690 2068 
Q 947 2378 1403 2484 
z
M 1172 3481 
Q 1172 3119 1398 2916 
Q 1625 2713 2034 2713 
Q 2441 2713 2670 2916 
Q 2900 3119 2900 3481 
Q 2900 3844 2670 4047 
Q 2441 4250 2034 4250 
Q 1625 4250 1398 4047 
Q 1172 3844 1172 3481 
z
" id="DejaVuSans-38" transform="scale(0.015625)"/>
       </defs>
       <use xlink:href="#DejaVuSans-38"/>
       <use x="63.623047" xlink:href="#DejaVuSans-30"/>
      </g>
     </g>
    </g>
    <g id="xtick_6">
     <g id="line2d_11">
      <path clip-path="url(#p0bbd7ba5de)" d="M 519.210227 243.2 
L 519.210227 48.8 
" style="fill:none;stroke:#ffffff;stroke-linecap:square;stroke-width:0.8;"/>
     </g>
     <g id="line2d_12">
      <g>
       <use style="fill:#555555;stroke:#555555;stroke-width:0.8;" x="519.210227" xlink:href="#mb4288913e1" y="243.2"/>
      </g>
     </g>
     <g id="text_6">
      <!-- 100 -->
      <g style="fill:#555555;" transform="translate(509.666477 257.798437)scale(0.1 -0.1)">
       <defs>
        <path d="M 794 531 
L 1825 531 
L 1825 4091 
L 703 3866 
L 703 4441 
L 1819 4666 
L 2450 4666 
L 2450 531 
L 3481 531 
L 3481 0 
L 794 0 
L 794 531 
z
" id="DejaVuSans-31" transform="scale(0.015625)"/>
       </defs>
       <use xlink:href="#DejaVuSans-31"/>
       <use x="63.623047" xlink:href="#DejaVuSans-30"/>
       <use x="127.246094" xlink:href="#DejaVuSans-30"/>
      </g>
     </g>
    </g>
    <g id="text_7">
     <!-- Epoch number -->
     <g style="fill:#555555;" transform="translate(244.365625 272.99625)scale(0.12 -0.12)">
      <defs>
       <path d="M 628 4666 
L 3578 4666 
L 3578 4134 
L 1259 4134 
L 1259 2753 
L 3481 2753 
L 3481 2222 
L 1259 2222 
L 1259 531 
L 3634 531 
L 3634 0 
L 628 0 
L 628 4666 
z
" id="DejaVuSans-45" transform="scale(0.015625)"/>
       <path d="M 1159 525 
L 1159 -1331 
L 581 -1331 
L 581 3500 
L 1159 3500 
L 1159 2969 
Q 1341 3281 1617 3432 
Q 1894 3584 2278 3584 
Q 2916 3584 3314 3078 
Q 3713 2572 3713 1747 
Q 3713 922 3314 415 
Q 2916 -91 2278 -91 
Q 1894 -91 1617 61 
Q 1341 213 1159 525 
z
M 3116 1747 
Q 3116 2381 2855 2742 
Q 2594 3103 2138 3103 
Q 1681 3103 1420 2742 
Q 1159 2381 1159 1747 
Q 1159 1113 1420 752 
Q 1681 391 2138 391 
Q 2594 391 2855 752 
Q 3116 1113 3116 1747 
z
" id="DejaVuSans-70" transform="scale(0.015625)"/>
       <path d="M 1959 3097 
Q 1497 3097 1228 2736 
Q 959 2375 959 1747 
Q 959 1119 1226 758 
Q 1494 397 1959 397 
Q 2419 397 2687 759 
Q 2956 1122 2956 1747 
Q 2956 2369 2687 2733 
Q 2419 3097 1959 3097 
z
M 1959 3584 
Q 2709 3584 3137 3096 
Q 3566 2609 3566 1747 
Q 3566 888 3137 398 
Q 2709 -91 1959 -91 
Q 1206 -91 779 398 
Q 353 888 353 1747 
Q 353 2609 779 3096 
Q 1206 3584 1959 3584 
z
" id="DejaVuSans-6f" transform="scale(0.015625)"/>
       <path d="M 3122 3366 
L 3122 2828 
Q 2878 2963 2633 3030 
Q 2388 3097 2138 3097 
Q 1578 3097 1268 2742 
Q 959 2388 959 1747 
Q 959 1106 1268 751 
Q 1578 397 2138 397 
Q 2388 397 2633 464 
Q 2878 531 3122 666 
L 3122 134 
Q 2881 22 2623 -34 
Q 2366 -91 2075 -91 
Q 1284 -91 818 406 
Q 353 903 353 1747 
Q 353 2603 823 3093 
Q 1294 3584 2113 3584 
Q 2378 3584 2631 3529 
Q 2884 3475 3122 3366 
z
" id="DejaVuSans-63" transform="scale(0.015625)"/>
       <path d="M 3513 2113 
L 3513 0 
L 2938 0 
L 2938 2094 
Q 2938 2591 2744 2837 
Q 2550 3084 2163 3084 
Q 1697 3084 1428 2787 
Q 1159 2491 1159 1978 
L 1159 0 
L 581 0 
L 581 4863 
L 1159 4863 
L 1159 2956 
Q 1366 3272 1645 3428 
Q 1925 3584 2291 3584 
Q 2894 3584 3203 3211 
Q 3513 2838 3513 2113 
z
" id="DejaVuSans-68" transform="scale(0.015625)"/>
       <path id="DejaVuSans-20" transform="scale(0.015625)"/>
       <path d="M 3513 2113 
L 3513 0 
L 2938 0 
L 2938 2094 
Q 2938 2591 2744 2837 
Q 2550 3084 2163 3084 
Q 1697 3084 1428 2787 
Q 1159 2491 1159 1978 
L 1159 0 
L 581 0 
L 581 3500 
L 1159 3500 
L 1159 2956 
Q 1366 3272 1645 3428 
Q 1925 3584 2291 3584 
Q 2894 3584 3203 3211 
Q 3513 2838 3513 2113 
z
" id="DejaVuSans-6e" transform="scale(0.015625)"/>
       <path d="M 544 1381 
L 544 3500 
L 1119 3500 
L 1119 1403 
Q 1119 906 1312 657 
Q 1506 409 1894 409 
Q 2359 409 2629 706 
Q 2900 1003 2900 1516 
L 2900 3500 
L 3475 3500 
L 3475 0 
L 2900 0 
L 2900 538 
Q 2691 219 2414 64 
Q 2138 -91 1772 -91 
Q 1169 -91 856 284 
Q 544 659 544 1381 
z
M 1991 3584 
L 1991 3584 
z
" id="DejaVuSans-75" transform="scale(0.015625)"/>
       <path d="M 3328 2828 
Q 3544 3216 3844 3400 
Q 4144 3584 4550 3584 
Q 5097 3584 5394 3201 
Q 5691 2819 5691 2113 
L 5691 0 
L 5113 0 
L 5113 2094 
Q 5113 2597 4934 2840 
Q 4756 3084 4391 3084 
Q 3944 3084 3684 2787 
Q 3425 2491 3425 1978 
L 3425 0 
L 2847 0 
L 2847 2094 
Q 2847 2600 2669 2842 
Q 2491 3084 2119 3084 
Q 1678 3084 1418 2786 
Q 1159 2488 1159 1978 
L 1159 0 
L 581 0 
L 581 3500 
L 1159 3500 
L 1159 2956 
Q 1356 3278 1631 3431 
Q 1906 3584 2284 3584 
Q 2666 3584 2933 3390 
Q 3200 3197 3328 2828 
z
" id="DejaVuSans-6d" transform="scale(0.015625)"/>
       <path d="M 3116 1747 
Q 3116 2381 2855 2742 
Q 2594 3103 2138 3103 
Q 1681 3103 1420 2742 
Q 1159 2381 1159 1747 
Q 1159 1113 1420 752 
Q 1681 391 2138 391 
Q 2594 391 2855 752 
Q 3116 1113 3116 1747 
z
M 1159 2969 
Q 1341 3281 1617 3432 
Q 1894 3584 2278 3584 
Q 2916 3584 3314 3078 
Q 3713 2572 3713 1747 
Q 3713 922 3314 415 
Q 2916 -91 2278 -91 
Q 1894 -91 1617 61 
Q 1341 213 1159 525 
L 1159 0 
L 581 0 
L 581 4863 
L 1159 4863 
L 1159 2969 
z
" id="DejaVuSans-62" transform="scale(0.015625)"/>
       <path d="M 3597 1894 
L 3597 1613 
L 953 1613 
Q 991 1019 1311 708 
Q 1631 397 2203 397 
Q 2534 397 2845 478 
Q 3156 559 3463 722 
L 3463 178 
Q 3153 47 2828 -22 
Q 2503 -91 2169 -91 
Q 1331 -91 842 396 
Q 353 884 353 1716 
Q 353 2575 817 3079 
Q 1281 3584 2069 3584 
Q 2775 3584 3186 3129 
Q 3597 2675 3597 1894 
z
M 3022 2063 
Q 3016 2534 2758 2815 
Q 2500 3097 2075 3097 
Q 1594 3097 1305 2825 
Q 1016 2553 972 2059 
L 3022 2063 
z
" id="DejaVuSans-65" transform="scale(0.015625)"/>
       <path d="M 2631 2963 
Q 2534 3019 2420 3045 
Q 2306 3072 2169 3072 
Q 1681 3072 1420 2755 
Q 1159 2438 1159 1844 
L 1159 0 
L 581 0 
L 581 3500 
L 1159 3500 
L 1159 2956 
Q 1341 3275 1631 3429 
Q 1922 3584 2338 3584 
Q 2397 3584 2469 3576 
Q 2541 3569 2628 3553 
L 2631 2963 
z
" id="DejaVuSans-72" transform="scale(0.015625)"/>
      </defs>
      <use xlink:href="#DejaVuSans-45"/>
      <use x="63.183594" xlink:href="#DejaVuSans-70"/>
      <use x="126.660156" xlink:href="#DejaVuSans-6f"/>
      <use x="187.841797" xlink:href="#DejaVuSans-63"/>
      <use x="242.822266" xlink:href="#DejaVuSans-68"/>
      <use x="306.201172" xlink:href="#DejaVuSans-20"/>
      <use x="337.988281" xlink:href="#DejaVuSans-6e"/>
      <use x="401.367188" xlink:href="#DejaVuSans-75"/>
      <use x="464.746094" xlink:href="#DejaVuSans-6d"/>
      <use x="562.158203" xlink:href="#DejaVuSans-62"/>
      <use x="625.634766" xlink:href="#DejaVuSans-65"/>
      <use x="687.158203" xlink:href="#DejaVuSans-72"/>
     </g>
    </g>
   </g>
   <g id="matplotlib.axis_2">
    <g id="ytick_1">
     <g id="line2d_13">
      <path clip-path="url(#p0bbd7ba5de)" d="M 33.8 230.193943 
L 542.325 230.193943 
" style="fill:none;stroke:#ffffff;stroke-linecap:square;stroke-width:0.8;"/>
     </g>
     <g id="line2d_14">
      <defs>
       <path d="M 0 0 
L -3.5 0 
" id="m1496692a52" style="stroke:#555555;stroke-width:0.8;"/>
      </defs>
      <g>
       <use style="fill:#555555;stroke:#555555;stroke-width:0.8;" x="33.8" xlink:href="#m1496692a52" y="230.193943"/>
      </g>
     </g>
     <g id="text_8">
      <!-- 0.5 -->
      <g style="fill:#555555;" transform="translate(10.896875 233.993162)scale(0.1 -0.1)">
       <defs>
        <path d="M 684 794 
L 1344 794 
L 1344 0 
L 684 0 
L 684 794 
z
" id="DejaVuSans-2e" transform="scale(0.015625)"/>
        <path d="M 691 4666 
L 3169 4666 
L 3169 4134 
L 1269 4134 
L 1269 2991 
Q 1406 3038 1543 3061 
Q 1681 3084 1819 3084 
Q 2600 3084 3056 2656 
Q 3513 2228 3513 1497 
Q 3513 744 3044 326 
Q 2575 -91 1722 -91 
Q 1428 -91 1123 -41 
Q 819 9 494 109 
L 494 744 
Q 775 591 1075 516 
Q 1375 441 1709 441 
Q 2250 441 2565 725 
Q 2881 1009 2881 1497 
Q 2881 1984 2565 2268 
Q 2250 2553 1709 2553 
Q 1456 2553 1204 2497 
Q 953 2441 691 2322 
L 691 4666 
z
" id="DejaVuSans-35" transform="scale(0.015625)"/>
       </defs>
       <use xlink:href="#DejaVuSans-30"/>
       <use x="63.623047" xlink:href="#DejaVuSans-2e"/>
       <use x="95.410156" xlink:href="#DejaVuSans-35"/>
      </g>
     </g>
    </g>
    <g id="ytick_2">
     <g id="line2d_15">
      <path clip-path="url(#p0bbd7ba5de)" d="M 33.8 204.442648 
L 542.325 204.442648 
" style="fill:none;stroke:#ffffff;stroke-linecap:square;stroke-width:0.8;"/>
     </g>
     <g id="line2d_16">
      <g>
       <use style="fill:#555555;stroke:#555555;stroke-width:0.8;" x="33.8" xlink:href="#m1496692a52" y="204.442648"/>
      </g>
     </g>
     <g id="text_9">
      <!-- 1.0 -->
      <g style="fill:#555555;" transform="translate(10.896875 208.241867)scale(0.1 -0.1)">
       <use xlink:href="#DejaVuSans-31"/>
       <use x="63.623047" xlink:href="#DejaVuSans-2e"/>
       <use x="95.410156" xlink:href="#DejaVuSans-30"/>
      </g>
     </g>
    </g>
    <g id="ytick_3">
     <g id="line2d_17">
      <path clip-path="url(#p0bbd7ba5de)" d="M 33.8 178.691353 
L 542.325 178.691353 
" style="fill:none;stroke:#ffffff;stroke-linecap:square;stroke-width:0.8;"/>
     </g>
     <g id="line2d_18">
      <g>
       <use style="fill:#555555;stroke:#555555;stroke-width:0.8;" x="33.8" xlink:href="#m1496692a52" y="178.691353"/>
      </g>
     </g>
     <g id="text_10">
      <!-- 1.5 -->
      <g style="fill:#555555;" transform="translate(10.896875 182.490572)scale(0.1 -0.1)">
       <use xlink:href="#DejaVuSans-31"/>
       <use x="63.623047" xlink:href="#DejaVuSans-2e"/>
       <use x="95.410156" xlink:href="#DejaVuSans-35"/>
      </g>
     </g>
    </g>
    <g id="ytick_4">
     <g id="line2d_19">
      <path clip-path="url(#p0bbd7ba5de)" d="M 33.8 152.940057 
L 542.325 152.940057 
" style="fill:none;stroke:#ffffff;stroke-linecap:square;stroke-width:0.8;"/>
     </g>
     <g id="line2d_20">
      <g>
       <use style="fill:#555555;stroke:#555555;stroke-width:0.8;" x="33.8" xlink:href="#m1496692a52" y="152.940057"/>
      </g>
     </g>
     <g id="text_11">
      <!-- 2.0 -->
      <g style="fill:#555555;" transform="translate(10.896875 156.739276)scale(0.1 -0.1)">
       <use xlink:href="#DejaVuSans-32"/>
       <use x="63.623047" xlink:href="#DejaVuSans-2e"/>
       <use x="95.410156" xlink:href="#DejaVuSans-30"/>
      </g>
     </g>
    </g>
    <g id="ytick_5">
     <g id="line2d_21">
      <path clip-path="url(#p0bbd7ba5de)" d="M 33.8 127.188762 
L 542.325 127.188762 
" style="fill:none;stroke:#ffffff;stroke-linecap:square;stroke-width:0.8;"/>
     </g>
     <g id="line2d_22">
      <g>
       <use style="fill:#555555;stroke:#555555;stroke-width:0.8;" x="33.8" xlink:href="#m1496692a52" y="127.188762"/>
      </g>
     </g>
     <g id="text_12">
      <!-- 2.5 -->
      <g style="fill:#555555;" transform="translate(10.896875 130.987981)scale(0.1 -0.1)">
       <use xlink:href="#DejaVuSans-32"/>
       <use x="63.623047" xlink:href="#DejaVuSans-2e"/>
       <use x="95.410156" xlink:href="#DejaVuSans-35"/>
      </g>
     </g>
    </g>
    <g id="ytick_6">
     <g id="line2d_23">
      <path clip-path="url(#p0bbd7ba5de)" d="M 33.8 101.437467 
L 542.325 101.437467 
" style="fill:none;stroke:#ffffff;stroke-linecap:square;stroke-width:0.8;"/>
     </g>
     <g id="line2d_24">
      <g>
       <use style="fill:#555555;stroke:#555555;stroke-width:0.8;" x="33.8" xlink:href="#m1496692a52" y="101.437467"/>
      </g>
     </g>
     <g id="text_13">
      <!-- 3.0 -->
      <g style="fill:#555555;" transform="translate(10.896875 105.236685)scale(0.1 -0.1)">
       <defs>
        <path d="M 2597 2516 
Q 3050 2419 3304 2112 
Q 3559 1806 3559 1356 
Q 3559 666 3084 287 
Q 2609 -91 1734 -91 
Q 1441 -91 1130 -33 
Q 819 25 488 141 
L 488 750 
Q 750 597 1062 519 
Q 1375 441 1716 441 
Q 2309 441 2620 675 
Q 2931 909 2931 1356 
Q 2931 1769 2642 2001 
Q 2353 2234 1838 2234 
L 1294 2234 
L 1294 2753 
L 1863 2753 
Q 2328 2753 2575 2939 
Q 2822 3125 2822 3475 
Q 2822 3834 2567 4026 
Q 2313 4219 1838 4219 
Q 1578 4219 1281 4162 
Q 984 4106 628 3988 
L 628 4550 
Q 988 4650 1302 4700 
Q 1616 4750 1894 4750 
Q 2613 4750 3031 4423 
Q 3450 4097 3450 3541 
Q 3450 3153 3228 2886 
Q 3006 2619 2597 2516 
z
" id="DejaVuSans-33" transform="scale(0.015625)"/>
       </defs>
       <use xlink:href="#DejaVuSans-33"/>
       <use x="63.623047" xlink:href="#DejaVuSans-2e"/>
       <use x="95.410156" xlink:href="#DejaVuSans-30"/>
      </g>
     </g>
    </g>
    <g id="ytick_7">
     <g id="line2d_25">
      <path clip-path="url(#p0bbd7ba5de)" d="M 33.8 75.686171 
L 542.325 75.686171 
" style="fill:none;stroke:#ffffff;stroke-linecap:square;stroke-width:0.8;"/>
     </g>
     <g id="line2d_26">
      <g>
       <use style="fill:#555555;stroke:#555555;stroke-width:0.8;" x="33.8" xlink:href="#m1496692a52" y="75.686171"/>
      </g>
     </g>
     <g id="text_14">
      <!-- 3.5 -->
      <g style="fill:#555555;" transform="translate(10.896875 79.48539)scale(0.1 -0.1)">
       <use xlink:href="#DejaVuSans-33"/>
       <use x="63.623047" xlink:href="#DejaVuSans-2e"/>
       <use x="95.410156" xlink:href="#DejaVuSans-35"/>
      </g>
     </g>
    </g>
    <g id="ytick_8">
     <g id="line2d_27">
      <path clip-path="url(#p0bbd7ba5de)" d="M 33.8 49.934876 
L 542.325 49.934876 
" style="fill:none;stroke:#ffffff;stroke-linecap:square;stroke-width:0.8;"/>
     </g>
     <g id="line2d_28">
      <g>
       <use style="fill:#555555;stroke:#555555;stroke-width:0.8;" x="33.8" xlink:href="#m1496692a52" y="49.934876"/>
      </g>
     </g>
     <g id="text_15">
      <!-- 4.0 -->
      <g style="fill:#555555;" transform="translate(10.896875 53.734095)scale(0.1 -0.1)">
       <use xlink:href="#DejaVuSans-34"/>
       <use x="63.623047" xlink:href="#DejaVuSans-2e"/>
       <use x="95.410156" xlink:href="#DejaVuSans-30"/>
      </g>
     </g>
    </g>
   </g>
   <g id="line2d_29">
    <path clip-path="url(#p0bbd7ba5de)" d="M 56.914773 105.835492 
L 61.584424 134.646301 
L 66.254075 149.237407 
L 70.923726 159.358561 
L 75.593377 164.618871 
L 80.263028 170.363178 
L 84.932679 174.477598 
L 89.60233 178.012526 
L 94.271981 182.186593 
L 98.941632 184.752118 
L 103.611283 186.560799 
L 108.280934 189.557636 
L 112.950585 191.297376 
L 117.620236 193.027598 
L 122.289888 195.005352 
L 126.959539 195.89107 
L 131.62919 197.186041 
L 136.298841 198.732554 
L 140.968492 199.616226 
L 145.638143 200.091266 
L 150.307794 201.862588 
L 154.977445 203.037347 
L 159.647096 202.998334 
L 164.316747 203.815386 
L 168.986398 204.82347 
L 173.656049 205.585478 
L 178.3257 205.945614 
L 182.995351 206.823626 
L 187.665002 207.297633 
L 192.334653 208.427004 
L 197.004304 208.788819 
L 201.673955 208.359513 
L 206.343607 209.772962 
L 211.013258 209.719831 
L 215.682909 209.906494 
L 220.35256 211.0474 
L 225.022211 211.156227 
L 229.691862 211.276193 
L 234.361513 211.631758 
L 239.031164 212.381546 
L 243.700815 212.37464 
L 248.370466 213.163638 
L 253.040117 213.004279 
L 257.709768 213.74701 
L 262.379419 213.422936 
L 267.04907 213.999947 
L 271.718721 213.766951 
L 276.388372 214.687322 
L 281.058023 214.690322 
L 285.727674 215.217837 
L 290.397326 215.068543 
L 295.066977 215.557057 
L 299.736628 215.858611 
L 304.406279 215.546109 
L 309.07593 215.853096 
L 313.745581 216.950996 
L 318.415232 216.64414 
L 323.084883 216.556484 
L 327.754534 216.545599 
L 332.424185 217.230774 
L 337.093836 217.27666 
L 341.763487 217.437662 
L 346.433138 217.092686 
L 351.102789 217.906209 
L 355.77244 218.05222 
L 360.442091 217.604378 
L 365.111742 218.396375 
L 369.781393 218.662132 
L 374.451045 218.772472 
L 379.120696 218.624007 
L 383.790347 218.722577 
L 388.459998 219.278626 
L 393.129649 219.162666 
L 397.7993 219.185047 
L 402.468951 219.398291 
L 407.138602 219.669387 
L 411.808253 219.585095 
L 416.477904 219.388843 
L 421.147555 219.93185 
L 425.817206 219.975358 
L 430.486857 219.836893 
L 435.156508 220.437904 
L 439.826159 220.456005 
L 444.49581 220.48746 
L 449.165461 220.359995 
L 453.835112 220.45929 
L 458.504764 220.901401 
L 463.174415 221.035652 
L 467.844066 221.01914 
L 472.513717 220.637745 
L 477.183368 221.353628 
L 481.853019 221.545987 
L 486.52267 220.903722 
L 491.192321 220.876722 
L 495.861972 221.070628 
L 500.531623 221.437572 
L 505.201274 221.140278 
L 509.870925 221.799734 
L 514.540576 221.682581 
L 519.210227 221.792469 
" style="fill:none;stroke:#e24a33;stroke-linecap:square;stroke-width:1.5;"/>
   </g>
   <g id="line2d_30">
    <path clip-path="url(#p0bbd7ba5de)" d="M 56.914773 105.941469 
L 61.584424 134.523498 
L 66.254075 148.961734 
L 70.923726 158.990525 
L 75.593377 164.246468 
L 80.263028 169.962258 
L 84.932679 174.002426 
L 89.60233 177.571662 
L 94.271981 181.724846 
L 98.941632 184.356081 
L 103.611283 186.151396 
L 108.280934 189.12044 
L 112.950585 190.89674 
L 117.620236 192.607459 
L 122.289888 194.547757 
L 126.959539 195.489298 
L 131.62919 196.737408 
L 136.298841 198.254677 
L 140.968492 199.186372 
L 145.638143 199.641619 
L 150.307794 201.385089 
L 154.977445 202.562773 
L 159.647096 202.543404 
L 164.316747 203.320034 
L 168.986398 204.345076 
L 173.656049 205.083892 
L 178.3257 205.419653 
L 182.995351 206.291167 
L 187.665002 206.767388 
L 192.334653 207.915012 
L 197.004304 208.266797 
L 201.673955 207.831072 
L 206.343607 209.230998 
L 211.013258 209.16906 
L 215.682909 209.305036 
L 220.35256 210.503701 
L 225.022211 210.588634 
L 229.691862 210.686555 
L 234.361513 211.065104 
L 239.031164 211.756993 
L 243.700815 211.805674 
L 248.370466 212.516234 
L 253.040117 212.42547 
L 257.709768 213.131695 
L 262.379419 212.791117 
L 267.04907 213.419886 
L 271.718721 213.102832 
L 276.388372 214.092428 
L 281.058023 214.03655 
L 285.727674 214.561204 
L 290.397326 214.423773 
L 295.066977 214.861624 
L 299.736628 215.229028 
L 304.406279 214.918692 
L 309.07593 215.171332 
L 313.745581 216.2327 
L 318.415232 215.947501 
L 323.084883 215.88363 
L 327.754534 215.856755 
L 332.424185 216.563694 
L 337.093836 216.562677 
L 341.763487 216.760956 
L 346.433138 216.407643 
L 351.102789 217.193408 
L 355.77244 217.319432 
L 360.442091 216.919727 
L 365.111742 217.676998 
L 369.781393 217.964914 
L 374.451045 217.992183 
L 379.120696 217.847174 
L 383.790347 217.934011 
L 388.459998 218.468619 
L 393.129649 218.397414 
L 397.7993 218.453791 
L 402.468951 218.612232 
L 407.138602 218.935387 
L 411.808253 218.853361 
L 416.477904 218.635251 
L 421.147555 219.183048 
L 425.817206 219.17549 
L 430.486857 219.05644 
L 435.156508 219.629562 
L 439.826159 219.614252 
L 444.49581 219.678883 
L 449.165461 219.56965 
L 453.835112 219.640816 
L 458.504764 220.013559 
L 463.174415 220.206688 
L 467.844066 220.138996 
L 472.513717 219.833181 
L 477.183368 220.505914 
L 481.853019 220.736149 
L 486.52267 220.044815 
L 491.192321 220.004557 
L 495.861972 220.245361 
L 500.531623 220.576292 
L 505.201274 220.215147 
L 509.870925 220.928948 
L 514.540576 220.809931 
L 519.210227 220.994338 
" style="fill:none;stroke:#e24a33;stroke-dasharray:5.55,2.4;stroke-dashoffset:0;stroke-width:1.5;"/>
   </g>
   <g id="line2d_31">
    <path clip-path="url(#p0bbd7ba5de)" d="M 56.914773 57.659172 
L 61.584424 57.653286 
L 66.254075 57.653495 
L 70.923726 57.653569 
L 75.593377 57.653809 
L 80.263028 57.653979 
L 84.932679 57.654196 
L 89.60233 57.654299 
L 94.271981 57.654402 
L 98.941632 57.654388 
L 103.611283 57.654473 
L 108.280934 57.65451 
L 112.950585 57.65458 
L 117.620236 57.65454 
L 122.289888 57.654553 
L 126.959539 57.654621 
L 131.62919 57.654634 
L 136.298841 57.654651 
L 140.968492 57.654642 
L 145.638143 57.654719 
L 150.307794 57.654728 
L 154.977445 57.654779 
L 159.647096 57.654783 
L 164.316747 57.654747 
L 168.986398 57.654776 
L 173.656049 57.654829 
L 178.3257 57.654847 
L 182.995351 57.654886 
L 187.665002 57.654871 
L 192.334653 57.654912 
L 197.004304 57.654919 
L 201.673955 57.654952 
L 206.343607 57.654917 
L 211.013258 57.654934 
L 215.682909 57.654958 
L 220.35256 57.654943 
L 225.022211 57.654934 
L 229.691862 57.654924 
L 234.361513 57.654943 
L 239.031164 57.654922 
L 243.700815 57.654942 
L 248.370466 57.654973 
L 253.040117 57.654999 
L 257.709768 57.65497 
L 262.379419 57.65487 
L 267.04907 57.65489 
L 271.718721 57.654842 
L 276.388372 57.654824 
L 281.058023 57.654839 
L 285.727674 57.654856 
L 290.397326 57.654827 
L 295.066977 57.654882 
L 299.736628 57.654909 
L 304.406279 57.654867 
L 309.07593 57.654906 
L 313.745581 57.654826 
L 318.415232 57.654832 
L 323.084883 57.654892 
L 327.754534 57.65486 
L 332.424185 57.654842 
L 337.093836 57.654942 
L 341.763487 57.654941 
L 346.433138 57.654969 
L 351.102789 57.654888 
L 355.77244 57.654901 
L 360.442091 57.654882 
L 365.111742 57.654879 
L 369.781393 57.65493 
L 374.451045 57.654938 
L 379.120696 57.654909 
L 383.790347 57.654912 
L 388.459998 57.654953 
L 393.129649 57.654963 
L 397.7993 57.654954 
L 402.468951 57.654978 
L 407.138602 57.655003 
L 411.808253 57.654959 
L 416.477904 57.655 
L 421.147555 57.655001 
L 425.817206 57.654981 
L 430.486857 57.655003 
L 435.156508 57.655013 
L 439.826159 57.655031 
L 444.49581 57.654998 
L 449.165461 57.654937 
L 453.835112 57.654972 
L 458.504764 57.655014 
L 463.174415 57.65503 
L 467.844066 57.654962 
L 472.513717 57.654997 
L 477.183368 57.655016 
L 481.853019 57.655078 
L 486.52267 57.654991 
L 491.192321 57.655007 
L 495.861972 57.65497 
L 500.531623 57.654931 
L 505.201274 57.654927 
L 509.870925 57.654913 
L 514.540576 57.654889 
L 519.210227 57.654911 
" style="fill:none;stroke:#348abd;stroke-linecap:square;stroke-width:1.5;"/>
   </g>
   <g id="line2d_32">
    <path clip-path="url(#p0bbd7ba5de)" d="M 56.914773 57.657384 
L 61.584424 57.648924 
L 66.254075 57.64789 
L 70.923726 57.647232 
L 75.593377 57.646647 
L 80.263028 57.645921 
L 84.932679 57.644729 
L 89.60233 57.64402 
L 94.271981 57.643654 
L 98.941632 57.642785 
L 103.611283 57.643308 
L 108.280934 57.642488 
L 112.950585 57.642383 
L 117.620236 57.642149 
L 122.289888 57.642433 
L 126.959539 57.641227 
L 131.62919 57.640751 
L 136.298841 57.640089 
L 140.968492 57.639679 
L 145.638143 57.63975 
L 150.307794 57.640289 
L 154.977445 57.640295 
L 159.647096 57.640829 
L 164.316747 57.640674 
L 168.986398 57.640945 
L 173.656049 57.639693 
L 178.3257 57.639416 
L 182.995351 57.639397 
L 187.665002 57.638948 
L 192.334653 57.637768 
L 197.004304 57.637189 
L 201.673955 57.636951 
L 206.343607 57.636912 
L 211.013258 57.636855 
L 215.682909 57.636364 
L 220.35256 57.637335 
L 225.022211 57.637502 
L 229.691862 57.637349 
L 234.361513 57.637505 
L 239.031164 57.63785 
L 243.700815 57.637653 
L 248.370466 57.637976 
L 253.040117 57.638099 
L 257.709768 57.638222 
L 262.379419 57.638225 
L 267.04907 57.639005 
L 271.718721 57.6399 
L 276.388372 57.64043 
L 281.058023 57.640618 
L 285.727674 57.640137 
L 290.397326 57.639979 
L 295.066977 57.639836 
L 299.736628 57.639511 
L 304.406279 57.640397 
L 309.07593 57.640428 
L 313.745581 57.640134 
L 318.415232 57.640526 
L 323.084883 57.640015 
L 327.754534 57.640407 
L 332.424185 57.640922 
L 337.093836 57.640339 
L 341.763487 57.641415 
L 346.433138 57.640965 
L 351.102789 57.641527 
L 355.77244 57.641359 
L 360.442091 57.641227 
L 365.111742 57.641588 
L 369.781393 57.641071 
L 374.451045 57.64049 
L 379.120696 57.640691 
L 383.790347 57.640977 
L 388.459998 57.64043 
L 393.129649 57.640612 
L 397.7993 57.639762 
L 402.468951 57.63907 
L 407.138602 57.63858 
L 411.808253 57.639181 
L 416.477904 57.639115 
L 421.147555 57.638906 
L 425.817206 57.63935 
L 430.486857 57.640365 
L 435.156508 57.639915 
L 439.826159 57.639232 
L 444.49581 57.63936 
L 449.165461 57.640165 
L 453.835112 57.639744 
L 458.504764 57.63973 
L 463.174415 57.639662 
L 467.844066 57.639594 
L 472.513717 57.639185 
L 477.183368 57.639199 
L 481.853019 57.637819 
L 486.52267 57.639376 
L 491.192321 57.638814 
L 495.861972 57.639254 
L 500.531623 57.6398 
L 505.201274 57.639796 
L 509.870925 57.640534 
L 514.540576 57.640551 
L 519.210227 57.640527 
" style="fill:none;stroke:#348abd;stroke-dasharray:5.55,2.4;stroke-dashoffset:0;stroke-width:1.5;"/>
   </g>
   <g id="line2d_33">
    <path clip-path="url(#p0bbd7ba5de)" d="M 56.914773 109.18271 
L 61.584424 139.359872 
L 66.254075 154.508434 
L 70.923726 163.468281 
L 75.593377 169.142517 
L 80.263028 175.472391 
L 84.932679 178.678015 
L 89.60233 181.269441 
L 94.271981 185.893028 
L 98.941632 187.929456 
L 103.611283 190.49233 
L 108.280934 193.130037 
L 112.950585 193.965564 
L 117.620236 195.692813 
L 122.289888 197.277987 
L 126.959539 198.853342 
L 131.62919 200.009742 
L 136.298841 201.446905 
L 140.968492 202.687429 
L 145.638143 203.189322 
L 150.307794 204.203714 
L 154.977445 205.789751 
L 159.647096 205.473288 
L 164.316747 205.750325 
L 168.986398 207.424276 
L 173.656049 207.18581 
L 178.3257 208.166241 
L 182.995351 208.493528 
L 187.665002 209.011318 
L 192.334653 210.1194 
L 197.004304 210.630623 
L 201.673955 210.173449 
L 206.343607 211.242096 
L 211.013258 211.381032 
L 215.682909 211.464712 
L 220.35256 212.101551 
L 225.022211 212.623036 
L 229.691862 212.384753 
L 234.361513 212.783852 
L 239.031164 213.586233 
L 243.700815 213.550306 
L 248.370466 213.824014 
L 253.040117 213.809751 
L 257.709768 214.380156 
L 262.379419 214.165247 
L 267.04907 214.768567 
L 271.718721 214.70946 
L 276.388372 215.564891 
L 281.058023 215.22931 
L 285.727674 215.778481 
L 290.397326 215.713666 
L 295.066977 215.668452 
L 299.736628 216.112442 
L 304.406279 216.006214 
L 309.07593 216.308054 
L 313.745581 217.144762 
L 318.415232 216.795474 
L 323.084883 216.787815 
L 327.754534 216.999254 
L 332.424185 217.148967 
L 337.093836 217.069368 
L 341.763487 217.622798 
L 346.433138 217.362047 
L 351.102789 218.027429 
L 355.77244 218.038695 
L 360.442091 217.705191 
L 365.111742 218.109505 
L 369.781393 218.399831 
L 374.451045 218.317573 
L 379.120696 218.211666 
L 383.790347 218.271017 
L 388.459998 218.698633 
L 393.129649 218.77216 
L 397.7993 218.427902 
L 402.468951 218.901877 
L 407.138602 219.228981 
L 411.808253 219.142144 
L 416.477904 219.105762 
L 421.147555 219.017665 
L 425.817206 219.317347 
L 430.486857 219.338267 
L 435.156508 219.565737 
L 439.826159 219.522506 
L 444.49581 219.442865 
L 449.165461 219.613924 
L 453.835112 219.720943 
L 458.504764 219.891459 
L 463.174415 220.117706 
L 467.844066 220.256335 
L 472.513717 219.917291 
L 477.183368 220.225106 
L 481.853019 220.246354 
L 486.52267 220.520311 
L 491.192321 220.299212 
L 495.861972 220.269439 
L 500.531623 220.320683 
L 505.201274 220.297217 
L 509.870925 220.498781 
L 514.540576 220.413909 
L 519.210227 220.556833 
" style="fill:none;stroke:#988ed5;stroke-linecap:square;stroke-width:1.5;"/>
   </g>
   <g id="line2d_34">
    <path clip-path="url(#p0bbd7ba5de)" d="M 56.914773 109.196442 
L 61.584424 139.128641 
L 66.254075 154.248352 
L 70.923726 163.121619 
L 75.593377 168.702927 
L 80.263028 175.066678 
L 84.932679 178.223029 
L 89.60233 180.840193 
L 94.271981 185.430497 
L 98.941632 187.506599 
L 103.611283 190.005762 
L 108.280934 192.74955 
L 112.950585 193.519656 
L 117.620236 195.256526 
L 122.289888 196.82047 
L 126.959539 198.375492 
L 131.62919 199.516046 
L 136.298841 200.897322 
L 140.968492 202.160551 
L 145.638143 202.673764 
L 150.307794 203.661244 
L 154.977445 205.178922 
L 159.647096 204.898176 
L 164.316747 205.103659 
L 168.986398 206.807352 
L 173.656049 206.523585 
L 178.3257 207.510598 
L 182.995351 207.81093 
L 187.665002 208.347895 
L 192.334653 209.471334 
L 197.004304 209.99521 
L 201.673955 209.489092 
L 206.343607 210.542455 
L 211.013258 210.673707 
L 215.682909 210.712306 
L 220.35256 211.426442 
L 225.022211 211.945887 
L 229.691862 211.648247 
L 234.361513 212.054777 
L 239.031164 212.875308 
L 243.700815 212.743634 
L 248.370466 213.051303 
L 253.040117 213.048333 
L 257.709768 213.58226 
L 262.379419 213.349338 
L 267.04907 213.948941 
L 271.718721 213.890131 
L 276.388372 214.709595 
L 281.058023 214.364303 
L 285.727674 214.892739 
L 290.397326 214.84157 
L 295.066977 214.807797 
L 299.736628 215.2583 
L 304.406279 215.145378 
L 309.07593 215.449726 
L 313.745581 216.286242 
L 318.415232 215.932935 
L 323.084883 215.89142 
L 327.754534 216.106193 
L 332.424185 216.278568 
L 337.093836 216.187158 
L 341.763487 216.741551 
L 346.433138 216.451428 
L 351.102789 217.123554 
L 355.77244 217.138151 
L 360.442091 216.784535 
L 365.111742 217.162942 
L 369.781393 217.534279 
L 374.451045 217.46407 
L 379.120696 217.281574 
L 383.790347 217.314542 
L 388.459998 217.726588 
L 393.129649 217.845164 
L 397.7993 217.476715 
L 402.468951 217.932289 
L 407.138602 218.264796 
L 411.808253 218.166564 
L 416.477904 218.138985 
L 421.147555 218.137337 
L 425.817206 218.446305 
L 430.486857 218.362242 
L 435.156508 218.643416 
L 439.826159 218.577181 
L 444.49581 218.513604 
L 449.165461 218.65155 
L 453.835112 218.787207 
L 458.504764 218.894972 
L 463.174415 219.171276 
L 467.844066 219.303511 
L 472.513717 218.946806 
L 477.183368 219.229085 
L 481.853019 219.262291 
L 486.52267 219.533297 
L 491.192321 219.308874 
L 495.861972 219.286428 
L 500.531623 219.330519 
L 505.201274 219.344249 
L 509.870925 219.531112 
L 514.540576 219.452724 
L 519.210227 219.609306 
" style="fill:none;stroke:#988ed5;stroke-dasharray:5.55,2.4;stroke-dashoffset:0;stroke-width:1.5;"/>
   </g>
   <g id="line2d_35">
    <path clip-path="url(#p0bbd7ba5de)" d="M 56.914773 166.267601 
L 61.584424 184.53376 
L 66.254075 193.113388 
L 70.923726 198.746727 
L 75.593377 203.140935 
L 80.263028 206.695263 
L 84.932679 209.63611 
L 89.60233 211.596344 
L 94.271981 213.950058 
L 98.941632 215.409458 
L 103.611283 216.785387 
L 108.280934 217.888612 
L 112.950585 219.206996 
L 117.620236 219.928675 
L 122.289888 221.128824 
L 126.959539 221.843854 
L 131.62919 222.575846 
L 136.298841 222.869392 
L 140.968492 223.608117 
L 145.638143 224.110305 
L 150.307794 224.755572 
L 154.977445 225.136436 
L 159.647096 225.390673 
L 164.316747 225.858989 
L 168.986398 226.196682 
L 173.656049 226.660264 
L 178.3257 226.919447 
L 182.995351 227.027432 
L 187.665002 227.156866 
L 192.334653 227.478691 
L 197.004304 227.902045 
L 201.673955 228.250169 
L 206.343607 228.486504 
L 211.013258 228.556968 
L 215.682909 228.844567 
L 220.35256 229.071135 
L 225.022211 229.126283 
L 229.691862 229.25605 
L 234.361513 229.604887 
L 239.031164 229.654131 
L 243.700815 229.952422 
L 248.370466 230.049642 
L 253.040117 230.204188 
L 257.709768 230.294856 
L 262.379419 230.468911 
L 267.04907 230.469402 
L 271.718721 230.708669 
L 276.388372 230.8908 
L 281.058023 230.747099 
L 285.727674 231.047135 
L 290.397326 231.304818 
L 295.066977 231.198081 
L 299.736628 231.43934 
L 304.406279 231.534244 
L 309.07593 231.643422 
L 313.745581 231.60468 
L 318.415232 231.695158 
L 323.084883 231.79157 
L 327.754534 232.038961 
L 332.424185 232.12337 
L 337.093836 232.151032 
L 341.763487 232.129188 
L 346.433138 232.260605 
L 351.102789 232.370214 
L 355.77244 232.254379 
L 360.442091 232.544063 
L 365.111742 232.356961 
L 369.781393 232.590539 
L 374.451045 232.61447 
L 379.120696 232.841277 
L 383.790347 232.89481 
L 388.459998 233.02571 
L 393.129649 232.962856 
L 397.7993 233.124058 
L 402.468951 233.091374 
L 407.138602 233.124126 
L 411.808253 233.057428 
L 416.477904 233.287894 
L 421.147555 233.240962 
L 425.817206 233.321182 
L 430.486857 233.513292 
L 435.156508 233.496851 
L 439.826159 233.517006 
L 444.49581 233.602752 
L 449.165461 233.649667 
L 453.835112 233.711337 
L 458.504764 233.805889 
L 463.174415 233.838203 
L 467.844066 233.943225 
L 472.513717 233.850248 
L 477.183368 233.755494 
L 481.853019 233.924409 
L 486.52267 234.004989 
L 491.192321 234.061444 
L 495.861972 234.2238 
L 500.531623 234.154272 
L 505.201274 234.269427 
L 509.870925 234.310054 
L 514.540576 234.363636 
L 519.210227 234.264664 
" style="fill:none;stroke:#777777;stroke-linecap:square;stroke-width:1.5;"/>
   </g>
   <g id="line2d_36">
    <path clip-path="url(#p0bbd7ba5de)" d="M 56.914773 166.393343 
L 61.584424 184.35751 
L 66.254075 192.854165 
L 70.923726 198.440393 
L 75.593377 202.813111 
L 80.263028 206.355668 
L 84.932679 209.213661 
L 89.60233 211.14432 
L 94.271981 213.444096 
L 98.941632 214.838777 
L 103.611283 216.221054 
L 108.280934 217.314771 
L 112.950585 218.60983 
L 117.620236 219.257529 
L 122.289888 220.345227 
L 126.959539 221.066548 
L 131.62919 221.785027 
L 136.298841 221.9749 
L 140.968492 222.668862 
L 145.638143 223.237243 
L 150.307794 223.833259 
L 154.977445 224.191357 
L 159.647096 224.456781 
L 164.316747 224.849141 
L 168.986398 225.217005 
L 173.656049 225.655543 
L 178.3257 225.807797 
L 182.995351 225.926979 
L 187.665002 226.039803 
L 192.334653 226.266 
L 197.004304 226.769302 
L 201.673955 227.070484 
L 206.343607 227.283185 
L 211.013258 227.369922 
L 215.682909 227.622365 
L 220.35256 227.820044 
L 225.022211 227.818497 
L 229.691862 228.018698 
L 234.361513 228.321146 
L 239.031164 228.334776 
L 243.700815 228.636418 
L 248.370466 228.690755 
L 253.040117 228.788014 
L 257.709768 228.948508 
L 262.379419 229.099762 
L 267.04907 229.006276 
L 271.718721 229.311637 
L 276.388372 229.451254 
L 281.058023 229.307968 
L 285.727674 229.567969 
L 290.397326 229.825708 
L 295.066977 229.594695 
L 299.736628 229.872715 
L 304.406279 230.021504 
L 309.07593 230.065363 
L 313.745581 230.030081 
L 318.415232 230.167593 
L 323.084883 230.213492 
L 327.754534 230.432863 
L 332.424185 230.558897 
L 337.093836 230.551415 
L 341.763487 230.547161 
L 346.433138 230.683683 
L 351.102789 230.796214 
L 355.77244 230.613029 
L 360.442091 230.919423 
L 365.111742 230.68195 
L 369.781393 230.987969 
L 374.451045 230.992413 
L 379.120696 231.076234 
L 383.790347 231.182279 
L 388.459998 231.258745 
L 393.129649 231.210749 
L 397.7993 231.345171 
L 402.468951 231.316442 
L 407.138602 231.294069 
L 411.808253 231.317054 
L 416.477904 231.566918 
L 421.147555 231.414255 
L 425.817206 231.488664 
L 430.486857 231.772992 
L 435.156508 231.662428 
L 439.826159 231.652716 
L 444.49581 231.814504 
L 449.165461 231.798032 
L 453.835112 231.892221 
L 458.504764 231.891518 
L 463.174415 232.036936 
L 467.844066 232.127095 
L 472.513717 231.950646 
L 477.183368 231.823553 
L 481.853019 232.024177 
L 486.52267 232.104012 
L 491.192321 232.173516 
L 495.861972 232.241022 
L 500.531623 232.271591 
L 505.201274 232.342375 
L 509.870925 232.398842 
L 514.540576 232.484054 
L 519.210227 232.317629 
" style="fill:none;stroke:#777777;stroke-dasharray:5.55,2.4;stroke-dashoffset:0;stroke-width:1.5;"/>
   </g>
   <g id="line2d_37">
    <path clip-path="url(#p0bbd7ba5de)" d="M 56.914773 120.747681 
L 61.584424 143.485532 
L 66.254075 153.088738 
L 70.923726 157.973966 
L 75.593377 161.707288 
L 80.263028 164.545899 
L 84.932679 165.699375 
L 89.60233 168.516897 
L 94.271981 170.489161 
L 98.941632 171.558849 
L 103.611283 173.029926 
L 108.280934 174.071924 
L 112.950585 175.049443 
L 117.620236 175.843014 
L 122.289888 176.944714 
L 126.959539 177.715215 
L 131.62919 178.830653 
L 136.298841 179.607449 
L 140.968492 180.295228 
L 145.638143 181.161602 
L 150.307794 181.723192 
L 154.977445 182.357786 
L 159.647096 182.932435 
L 164.316747 183.362464 
L 168.986398 184.08906 
L 173.656049 184.830397 
L 178.3257 185.092743 
L 182.995351 185.946011 
L 187.665002 186.247814 
L 192.334653 186.523585 
L 197.004304 187.126379 
L 201.673955 187.438359 
L 206.343607 188.006862 
L 211.013258 188.498418 
L 215.682909 188.621196 
L 220.35256 189.179086 
L 225.022211 189.537326 
L 229.691862 189.806814 
L 234.361513 190.29129 
L 239.031164 190.640846 
L 243.700815 190.833319 
L 248.370466 191.144654 
L 253.040117 191.354429 
L 257.709768 191.769458 
L 262.379419 192.031293 
L 267.04907 192.237848 
L 271.718721 192.227625 
L 276.388372 192.716854 
L 281.058023 192.747994 
L 285.727674 192.984801 
L 290.397326 193.392044 
L 295.066977 193.497685 
L 299.736628 193.7603 
L 304.406279 194.063749 
L 309.07593 194.431755 
L 313.745581 194.594077 
L 318.415232 194.970237 
L 323.084883 195.079699 
L 327.754534 195.137225 
L 332.424185 195.544657 
L 337.093836 195.325827 
L 341.763487 195.72611 
L 346.433138 195.985765 
L 351.102789 196.148136 
L 355.77244 196.267438 
L 360.442091 196.279813 
L 365.111742 196.543913 
L 369.781393 196.700112 
L 374.451045 196.818804 
L 379.120696 196.944002 
L 383.790347 197.107206 
L 388.459998 197.19658 
L 393.129649 197.426829 
L 397.7993 197.330402 
L 402.468951 197.81051 
L 407.138602 197.71571 
L 411.808253 198.06594 
L 416.477904 197.850541 
L 421.147555 198.138165 
L 425.817206 198.12651 
L 430.486857 198.122035 
L 435.156508 198.330113 
L 439.826159 198.516142 
L 444.49581 198.638487 
L 449.165461 198.847904 
L 453.835112 198.741264 
L 458.504764 198.832665 
L 463.174415 198.87361 
L 467.844066 199.146151 
L 472.513717 199.111695 
L 477.183368 199.270914 
L 481.853019 199.192401 
L 486.52267 199.310656 
L 491.192321 199.474332 
L 495.861972 199.717001 
L 500.531623 199.530717 
L 505.201274 199.660195 
L 509.870925 199.850133 
L 514.540576 199.767168 
L 519.210227 199.935546 
" style="fill:none;stroke:#fbc15e;stroke-linecap:square;stroke-width:1.5;"/>
   </g>
   <g id="line2d_38">
    <path clip-path="url(#p0bbd7ba5de)" d="M 56.914773 120.809524 
L 61.584424 143.38724 
L 66.254075 152.950332 
L 70.923726 157.781758 
L 75.593377 161.488731 
L 80.263028 164.317964 
L 84.932679 165.48731 
L 89.60233 168.258981 
L 94.271981 170.193723 
L 98.941632 171.287727 
L 103.611283 172.72108 
L 108.280934 173.803847 
L 112.950585 174.733262 
L 117.620236 175.498686 
L 122.289888 176.598572 
L 126.959539 177.328772 
L 131.62919 178.447008 
L 136.298841 179.235071 
L 140.968492 179.943089 
L 145.638143 180.771345 
L 150.307794 181.379645 
L 154.977445 181.963159 
L 159.647096 182.512137 
L 164.316747 182.98557 
L 168.986398 183.686118 
L 173.656049 184.406974 
L 178.3257 184.689435 
L 182.995351 185.553332 
L 187.665002 185.831351 
L 192.334653 186.120886 
L 197.004304 186.678181 
L 201.673955 187.009407 
L 206.343607 187.610318 
L 211.013258 188.063475 
L 215.682909 188.240406 
L 220.35256 188.791839 
L 225.022211 189.136669 
L 229.691862 189.445837 
L 234.361513 189.881503 
L 239.031164 190.292944 
L 243.700815 190.398208 
L 248.370466 190.743831 
L 253.040117 190.943502 
L 257.709768 191.416536 
L 262.379419 191.663483 
L 267.04907 191.846312 
L 271.718721 191.869572 
L 276.388372 192.310244 
L 281.058023 192.349449 
L 285.727674 192.590945 
L 290.397326 192.998576 
L 295.066977 193.133308 
L 299.736628 193.397413 
L 304.406279 193.663088 
L 309.07593 194.048182 
L 313.745581 194.211473 
L 318.415232 194.592785 
L 323.084883 194.722615 
L 327.754534 194.710282 
L 332.424185 195.132086 
L 337.093836 194.948428 
L 341.763487 195.349342 
L 346.433138 195.656664 
L 351.102789 195.790238 
L 355.77244 195.913011 
L 360.442091 195.910581 
L 365.111742 196.214496 
L 369.781393 196.387938 
L 374.451045 196.440055 
L 379.120696 196.622565 
L 383.790347 196.778181 
L 388.459998 196.822986 
L 393.129649 197.090874 
L 397.7993 196.994701 
L 402.468951 197.507364 
L 407.138602 197.394991 
L 411.808253 197.730461 
L 416.477904 197.477047 
L 421.147555 197.817294 
L 425.817206 197.78857 
L 430.486857 197.828246 
L 435.156508 197.994706 
L 439.826159 198.184066 
L 444.49581 198.346294 
L 449.165461 198.499571 
L 453.835112 198.382953 
L 458.504764 198.516362 
L 463.174415 198.524517 
L 467.844066 198.811849 
L 472.513717 198.802737 
L 477.183368 198.914588 
L 481.853019 198.845799 
L 486.52267 198.984478 
L 491.192321 199.118004 
L 495.861972 199.360631 
L 500.531623 199.21258 
L 505.201274 199.300108 
L 509.870925 199.50249 
L 514.540576 199.421982 
L 519.210227 199.590215 
" style="fill:none;stroke:#fbc15e;stroke-dasharray:5.55,2.4;stroke-dashoffset:0;stroke-width:1.5;"/>
   </g>
   <g id="line2d_39">
    <path clip-path="url(#p0bbd7ba5de)" d="M 56.914773 165.12983 
L 61.584424 183.449112 
L 66.254075 191.894446 
L 70.923726 198.138505 
L 75.593377 202.908339 
L 80.263028 206.563363 
L 84.932679 209.386011 
L 89.60233 212.104958 
L 94.271981 213.944359 
L 98.941632 215.97295 
L 103.611283 217.330977 
L 108.280934 218.46912 
L 112.950585 219.646862 
L 117.620236 220.535414 
L 122.289888 221.504052 
L 126.959539 222.275155 
L 131.62919 222.984908 
L 136.298841 223.434908 
L 140.968492 224.048099 
L 145.638143 224.674297 
L 150.307794 225.194114 
L 154.977445 225.633844 
L 159.647096 226.038775 
L 164.316747 226.288273 
L 168.986398 226.881984 
L 173.656049 227.144855 
L 178.3257 227.441217 
L 182.995351 227.794365 
L 187.665002 227.874255 
L 192.334653 228.249477 
L 197.004304 228.567171 
L 201.673955 228.690974 
L 206.343607 229.04789 
L 211.013258 228.962456 
L 215.682909 229.238861 
L 220.35256 229.528124 
L 225.022211 229.64956 
L 229.691862 229.656513 
L 234.361513 229.955241 
L 239.031164 230.181028 
L 243.700815 230.437385 
L 248.370466 230.156392 
L 253.040117 230.544877 
L 257.709768 230.712807 
L 262.379419 230.761108 
L 267.04907 230.768106 
L 271.718721 231.089553 
L 276.388372 231.276543 
L 281.058023 231.422659 
L 285.727674 231.433732 
L 290.397326 231.538587 
L 295.066977 231.675703 
L 299.736628 231.721312 
L 304.406279 231.586878 
L 309.07593 231.850132 
L 313.745581 231.961375 
L 318.415232 232.00717 
L 323.084883 232.117192 
L 327.754534 232.245432 
L 332.424185 232.450831 
L 337.093836 232.365962 
L 341.763487 232.373491 
L 346.433138 232.443427 
L 351.102789 232.581177 
L 355.77244 232.522736 
L 360.442091 232.707893 
L 365.111742 232.734792 
L 369.781393 232.708256 
L 374.451045 232.945987 
L 379.120696 232.874041 
L 383.790347 232.978482 
L 388.459998 233.080325 
L 393.129649 233.172213 
L 397.7993 233.19327 
L 402.468951 233.230706 
L 407.138602 233.18086 
L 411.808253 233.340698 
L 416.477904 233.428902 
L 421.147555 233.462897 
L 425.817206 233.500285 
L 430.486857 233.428512 
L 435.156508 233.581878 
L 439.826159 233.62438 
L 444.49581 233.61321 
L 449.165461 233.647042 
L 453.835112 233.845837 
L 458.504764 233.789311 
L 463.174415 233.866552 
L 467.844066 233.933937 
L 472.513717 233.988161 
L 477.183368 233.901157 
L 481.853019 233.916378 
L 486.52267 234.0537 
L 491.192321 234.006036 
L 495.861972 234.068367 
L 500.531623 234.164218 
L 505.201274 234.144946 
L 509.870925 234.270834 
L 514.540576 234.255697 
L 519.210227 234.314583 
" style="fill:none;stroke:#8eba42;stroke-linecap:square;stroke-width:1.5;"/>
   </g>
   <g id="line2d_40">
    <path clip-path="url(#p0bbd7ba5de)" d="M 56.914773 164.946193 
L 61.584424 183.201429 
L 66.254075 191.650832 
L 70.923726 197.79636 
L 75.593377 202.578452 
L 80.263028 206.163283 
L 84.932679 208.983902 
L 89.60233 211.571687 
L 94.271981 213.407183 
L 98.941632 215.313807 
L 103.611283 216.65169 
L 108.280934 217.757106 
L 112.950585 218.82755 
L 117.620236 219.675761 
L 122.289888 220.626804 
L 126.959539 221.283162 
L 131.62919 221.954811 
L 136.298841 222.355072 
L 140.968492 222.978882 
L 145.638143 223.490746 
L 150.307794 224.02338 
L 154.977445 224.305907 
L 159.647096 224.733878 
L 164.316747 224.951405 
L 168.986398 225.520034 
L 173.656049 225.783144 
L 178.3257 226.034843 
L 182.995351 226.352794 
L 187.665002 226.424433 
L 192.334653 226.806589 
L 197.004304 227.03751 
L 201.673955 227.183342 
L 206.343607 227.440113 
L 211.013258 227.434448 
L 215.682909 227.748455 
L 220.35256 227.975666 
L 225.022211 227.995683 
L 229.691862 228.046339 
L 234.361513 228.242121 
L 239.031164 228.463209 
L 243.700815 228.724088 
L 248.370466 228.398807 
L 253.040117 228.778748 
L 257.709768 228.872021 
L 262.379419 228.977499 
L 267.04907 228.935672 
L 271.718721 229.263824 
L 276.388372 229.457122 
L 281.058023 229.575783 
L 285.727674 229.567836 
L 290.397326 229.671702 
L 295.066977 229.718807 
L 299.736628 229.79907 
L 304.406279 229.679924 
L 309.07593 229.914924 
L 313.745581 230.072583 
L 318.415232 230.045667 
L 323.084883 230.171485 
L 327.754534 230.201734 
L 332.424185 230.432882 
L 337.093836 230.218714 
L 341.763487 230.395088 
L 346.433138 230.381049 
L 351.102789 230.532833 
L 355.77244 230.45571 
L 360.442091 230.593388 
L 365.111742 230.594469 
L 369.781393 230.602081 
L 374.451045 230.756459 
L 379.120696 230.733597 
L 383.790347 230.762816 
L 388.459998 230.91447 
L 393.129649 230.970378 
L 397.7993 230.959072 
L 402.468951 230.991043 
L 407.138602 230.911381 
L 411.808253 231.105959 
L 416.477904 231.186536 
L 421.147555 231.21084 
L 425.817206 231.197347 
L 430.486857 231.068892 
L 435.156508 231.257406 
L 439.826159 231.277769 
L 444.49581 231.274884 
L 449.165461 231.339275 
L 453.835112 231.493885 
L 458.504764 231.44471 
L 463.174415 231.536565 
L 467.844066 231.547006 
L 472.513717 231.61562 
L 477.183368 231.508226 
L 481.853019 231.455436 
L 486.52267 231.624964 
L 491.192321 231.576458 
L 495.861972 231.65521 
L 500.531623 231.756975 
L 505.201274 231.702363 
L 509.870925 231.79516 
L 514.540576 231.761963 
L 519.210227 231.792087 
" style="fill:none;stroke:#8eba42;stroke-dasharray:5.55,2.4;stroke-dashoffset:0;stroke-width:1.5;"/>
   </g>
   <g id="patch_3">
    <path d="M 33.8 243.2 
L 33.8 48.8 
" style="fill:none;stroke:#ffffff;stroke-linecap:square;stroke-linejoin:miter;"/>
   </g>
   <g id="patch_4">
    <path d="M 542.325 243.2 
L 542.325 48.8 
" style="fill:none;stroke:#ffffff;stroke-linecap:square;stroke-linejoin:miter;"/>
   </g>
   <g id="patch_5">
    <path d="M 33.8 243.2 
L 542.325 243.2 
" style="fill:none;stroke:#ffffff;stroke-linecap:square;stroke-linejoin:miter;"/>
   </g>
   <g id="patch_6">
    <path d="M 33.8 48.8 
L 542.325 48.8 
" style="fill:none;stroke:#ffffff;stroke-linecap:square;stroke-linejoin:miter;"/>
   </g>
   <g id="legend_1">
    <g id="patch_7">
     <path d="M 435.66875 191.534375 
L 535.325 191.534375 
Q 537.325 191.534375 537.325 189.534375 
L 537.325 102.465625 
Q 537.325 100.465625 535.325 100.465625 
L 435.66875 100.465625 
Q 433.66875 100.465625 433.66875 102.465625 
L 433.66875 189.534375 
Q 433.66875 191.534375 435.66875 191.534375 
z
" style="fill:#e5e5e5;opacity:0.8;stroke:#cccccc;stroke-linejoin:miter;stroke-width:0.5;"/>
    </g>
    <g id="line2d_41">
     <path d="M 437.66875 108.564062 
L 457.66875 108.564062 
" style="fill:none;stroke:#e24a33;stroke-linecap:square;stroke-width:1.5;"/>
    </g>
    <g id="line2d_42"/>
    <g id="text_16">
     <!-- 0.7 &amp; L1 1e-4 -->
     <g transform="translate(465.66875 112.064062)scale(0.1 -0.1)">
      <defs>
       <path d="M 525 4666 
L 3525 4666 
L 3525 4397 
L 1831 0 
L 1172 0 
L 2766 4134 
L 525 4134 
L 525 4666 
z
" id="DejaVuSans-37" transform="scale(0.015625)"/>
       <path d="M 1556 2509 
Q 1272 2256 1139 2004 
Q 1006 1753 1006 1478 
Q 1006 1022 1337 719 
Q 1669 416 2169 416 
Q 2466 416 2725 514 
Q 2984 613 3213 813 
L 1556 2509 
z
M 1997 2859 
L 3584 1234 
Q 3769 1513 3872 1830 
Q 3975 2147 3994 2503 
L 4575 2503 
Q 4538 2091 4375 1687 
Q 4213 1284 3922 891 
L 4794 0 
L 4006 0 
L 3559 459 
Q 3234 181 2878 45 
Q 2522 -91 2113 -91 
Q 1359 -91 881 339 
Q 403 769 403 1441 
Q 403 1841 612 2192 
Q 822 2544 1241 2853 
Q 1091 3050 1012 3245 
Q 934 3441 934 3628 
Q 934 4134 1281 4442 
Q 1628 4750 2203 4750 
Q 2463 4750 2720 4694 
Q 2978 4638 3244 4525 
L 3244 3956 
Q 2972 4103 2725 4179 
Q 2478 4256 2266 4256 
Q 1938 4256 1733 4082 
Q 1528 3909 1528 3634 
Q 1528 3475 1620 3314 
Q 1713 3153 1997 2859 
z
" id="DejaVuSans-26" transform="scale(0.015625)"/>
       <path d="M 628 4666 
L 1259 4666 
L 1259 531 
L 3531 531 
L 3531 0 
L 628 0 
L 628 4666 
z
" id="DejaVuSans-4c" transform="scale(0.015625)"/>
       <path d="M 313 2009 
L 1997 2009 
L 1997 1497 
L 313 1497 
L 313 2009 
z
" id="DejaVuSans-2d" transform="scale(0.015625)"/>
      </defs>
      <use xlink:href="#DejaVuSans-30"/>
      <use x="63.623047" xlink:href="#DejaVuSans-2e"/>
      <use x="95.410156" xlink:href="#DejaVuSans-37"/>
      <use x="159.033203" xlink:href="#DejaVuSans-20"/>
      <use x="190.820312" xlink:href="#DejaVuSans-26"/>
      <use x="268.798828" xlink:href="#DejaVuSans-20"/>
      <use x="300.585938" xlink:href="#DejaVuSans-4c"/>
      <use x="356.298828" xlink:href="#DejaVuSans-31"/>
      <use x="419.921875" xlink:href="#DejaVuSans-20"/>
      <use x="451.708984" xlink:href="#DejaVuSans-31"/>
      <use x="515.332031" xlink:href="#DejaVuSans-65"/>
      <use x="576.855469" xlink:href="#DejaVuSans-2d"/>
      <use x="612.939453" xlink:href="#DejaVuSans-34"/>
     </g>
    </g>
    <g id="line2d_43">
     <path d="M 437.66875 123.242187 
L 457.66875 123.242187 
" style="fill:none;stroke:#348abd;stroke-linecap:square;stroke-width:1.5;"/>
    </g>
    <g id="line2d_44"/>
    <g id="text_17">
     <!-- 0.7 &amp; L1 1e-3 -->
     <g transform="translate(465.66875 126.742187)scale(0.1 -0.1)">
      <use xlink:href="#DejaVuSans-30"/>
      <use x="63.623047" xlink:href="#DejaVuSans-2e"/>
      <use x="95.410156" xlink:href="#DejaVuSans-37"/>
      <use x="159.033203" xlink:href="#DejaVuSans-20"/>
      <use x="190.820312" xlink:href="#DejaVuSans-26"/>
      <use x="268.798828" xlink:href="#DejaVuSans-20"/>
      <use x="300.585938" xlink:href="#DejaVuSans-4c"/>
      <use x="356.298828" xlink:href="#DejaVuSans-31"/>
      <use x="419.921875" xlink:href="#DejaVuSans-20"/>
      <use x="451.708984" xlink:href="#DejaVuSans-31"/>
      <use x="515.332031" xlink:href="#DejaVuSans-65"/>
      <use x="576.855469" xlink:href="#DejaVuSans-2d"/>
      <use x="612.939453" xlink:href="#DejaVuSans-33"/>
     </g>
    </g>
    <g id="line2d_45">
     <path d="M 437.66875 137.920312 
L 457.66875 137.920312 
" style="fill:none;stroke:#988ed5;stroke-linecap:square;stroke-width:1.5;"/>
    </g>
    <g id="line2d_46"/>
    <g id="text_18">
     <!-- 0.7 &amp; L2 1e-3 -->
     <g transform="translate(465.66875 141.420312)scale(0.1 -0.1)">
      <use xlink:href="#DejaVuSans-30"/>
      <use x="63.623047" xlink:href="#DejaVuSans-2e"/>
      <use x="95.410156" xlink:href="#DejaVuSans-37"/>
      <use x="159.033203" xlink:href="#DejaVuSans-20"/>
      <use x="190.820312" xlink:href="#DejaVuSans-26"/>
      <use x="268.798828" xlink:href="#DejaVuSans-20"/>
      <use x="300.585938" xlink:href="#DejaVuSans-4c"/>
      <use x="356.298828" xlink:href="#DejaVuSans-32"/>
      <use x="419.921875" xlink:href="#DejaVuSans-20"/>
      <use x="451.708984" xlink:href="#DejaVuSans-31"/>
      <use x="515.332031" xlink:href="#DejaVuSans-65"/>
      <use x="576.855469" xlink:href="#DejaVuSans-2d"/>
      <use x="612.939453" xlink:href="#DejaVuSans-33"/>
     </g>
    </g>
    <g id="line2d_47">
     <path d="M 437.66875 152.598437 
L 457.66875 152.598437 
" style="fill:none;stroke:#777777;stroke-linecap:square;stroke-width:1.5;"/>
    </g>
    <g id="line2d_48"/>
    <g id="text_19">
     <!-- 0.9 &amp; L1 1e-4 -->
     <g transform="translate(465.66875 156.098437)scale(0.1 -0.1)">
      <defs>
       <path d="M 703 97 
L 703 672 
Q 941 559 1184 500 
Q 1428 441 1663 441 
Q 2288 441 2617 861 
Q 2947 1281 2994 2138 
Q 2813 1869 2534 1725 
Q 2256 1581 1919 1581 
Q 1219 1581 811 2004 
Q 403 2428 403 3163 
Q 403 3881 828 4315 
Q 1253 4750 1959 4750 
Q 2769 4750 3195 4129 
Q 3622 3509 3622 2328 
Q 3622 1225 3098 567 
Q 2575 -91 1691 -91 
Q 1453 -91 1209 -44 
Q 966 3 703 97 
z
M 1959 2075 
Q 2384 2075 2632 2365 
Q 2881 2656 2881 3163 
Q 2881 3666 2632 3958 
Q 2384 4250 1959 4250 
Q 1534 4250 1286 3958 
Q 1038 3666 1038 3163 
Q 1038 2656 1286 2365 
Q 1534 2075 1959 2075 
z
" id="DejaVuSans-39" transform="scale(0.015625)"/>
      </defs>
      <use xlink:href="#DejaVuSans-30"/>
      <use x="63.623047" xlink:href="#DejaVuSans-2e"/>
      <use x="95.410156" xlink:href="#DejaVuSans-39"/>
      <use x="159.033203" xlink:href="#DejaVuSans-20"/>
      <use x="190.820312" xlink:href="#DejaVuSans-26"/>
      <use x="268.798828" xlink:href="#DejaVuSans-20"/>
      <use x="300.585938" xlink:href="#DejaVuSans-4c"/>
      <use x="356.298828" xlink:href="#DejaVuSans-31"/>
      <use x="419.921875" xlink:href="#DejaVuSans-20"/>
      <use x="451.708984" xlink:href="#DejaVuSans-31"/>
      <use x="515.332031" xlink:href="#DejaVuSans-65"/>
      <use x="576.855469" xlink:href="#DejaVuSans-2d"/>
      <use x="612.939453" xlink:href="#DejaVuSans-34"/>
     </g>
    </g>
    <g id="line2d_49">
     <path d="M 437.66875 167.276562 
L 457.66875 167.276562 
" style="fill:none;stroke:#fbc15e;stroke-linecap:square;stroke-width:1.5;"/>
    </g>
    <g id="line2d_50"/>
    <g id="text_20">
     <!-- 0.9 &amp; L1 1e-3 -->
     <g transform="translate(465.66875 170.776562)scale(0.1 -0.1)">
      <use xlink:href="#DejaVuSans-30"/>
      <use x="63.623047" xlink:href="#DejaVuSans-2e"/>
      <use x="95.410156" xlink:href="#DejaVuSans-39"/>
      <use x="159.033203" xlink:href="#DejaVuSans-20"/>
      <use x="190.820312" xlink:href="#DejaVuSans-26"/>
      <use x="268.798828" xlink:href="#DejaVuSans-20"/>
      <use x="300.585938" xlink:href="#DejaVuSans-4c"/>
      <use x="356.298828" xlink:href="#DejaVuSans-31"/>
      <use x="419.921875" xlink:href="#DejaVuSans-20"/>
      <use x="451.708984" xlink:href="#DejaVuSans-31"/>
      <use x="515.332031" xlink:href="#DejaVuSans-65"/>
      <use x="576.855469" xlink:href="#DejaVuSans-2d"/>
      <use x="612.939453" xlink:href="#DejaVuSans-33"/>
     </g>
    </g>
    <g id="line2d_51">
     <path d="M 437.66875 181.954687 
L 457.66875 181.954687 
" style="fill:none;stroke:#8eba42;stroke-linecap:square;stroke-width:1.5;"/>
    </g>
    <g id="line2d_52"/>
    <g id="text_21">
     <!-- 0.9 &amp; L2 1e-3 -->
     <g transform="translate(465.66875 185.454687)scale(0.1 -0.1)">
      <use xlink:href="#DejaVuSans-30"/>
      <use x="63.623047" xlink:href="#DejaVuSans-2e"/>
      <use x="95.410156" xlink:href="#DejaVuSans-39"/>
      <use x="159.033203" xlink:href="#DejaVuSans-20"/>
      <use x="190.820312" xlink:href="#DejaVuSans-26"/>
      <use x="268.798828" xlink:href="#DejaVuSans-20"/>
      <use x="300.585938" xlink:href="#DejaVuSans-4c"/>
      <use x="356.298828" xlink:href="#DejaVuSans-32"/>
      <use x="419.921875" xlink:href="#DejaVuSans-20"/>
      <use x="451.708984" xlink:href="#DejaVuSans-31"/>
      <use x="515.332031" xlink:href="#DejaVuSans-65"/>
      <use x="576.855469" xlink:href="#DejaVuSans-2d"/>
      <use x="612.939453" xlink:href="#DejaVuSans-33"/>
     </g>
    </g>
   </g>
  </g>
  <g id="axes_2">
   <g id="matplotlib.axis_3">
    <g id="ytick_9">
     <g id="line2d_53">
      <path clip-path="url(#p0bbd7ba5de)" d="M 33.8 243.2 
L 542.325 243.2 
" style="fill:none;stroke:#ffffff;stroke-linecap:square;stroke-width:0.8;"/>
     </g>
     <g id="line2d_54">
      <defs>
       <path d="M 0 0 
L 3.5 0 
" id="m749e3a6352" style="stroke:#555555;stroke-width:0.8;"/>
      </defs>
      <g>
       <use style="fill:#555555;stroke:#555555;stroke-width:0.8;" x="542.325" xlink:href="#m749e3a6352" y="243.2"/>
      </g>
     </g>
     <g id="text_22">
      <!-- 0.0 -->
      <g style="fill:#555555;" transform="translate(549.325 246.999219)scale(0.1 -0.1)">
       <use xlink:href="#DejaVuSans-30"/>
       <use x="63.623047" xlink:href="#DejaVuSans-2e"/>
       <use x="95.410156" xlink:href="#DejaVuSans-30"/>
      </g>
     </g>
    </g>
    <g id="ytick_10">
     <g id="line2d_55">
      <path clip-path="url(#p0bbd7ba5de)" d="M 33.8 204.32 
L 542.325 204.32 
" style="fill:none;stroke:#ffffff;stroke-linecap:square;stroke-width:0.8;"/>
     </g>
     <g id="line2d_56">
      <g>
       <use style="fill:#555555;stroke:#555555;stroke-width:0.8;" x="542.325" xlink:href="#m749e3a6352" y="204.32"/>
      </g>
     </g>
     <g id="text_23">
      <!-- 0.2 -->
      <g style="fill:#555555;" transform="translate(549.325 208.119219)scale(0.1 -0.1)">
       <use xlink:href="#DejaVuSans-30"/>
       <use x="63.623047" xlink:href="#DejaVuSans-2e"/>
       <use x="95.410156" xlink:href="#DejaVuSans-32"/>
      </g>
     </g>
    </g>
    <g id="ytick_11">
     <g id="line2d_57">
      <path clip-path="url(#p0bbd7ba5de)" d="M 33.8 165.44 
L 542.325 165.44 
" style="fill:none;stroke:#ffffff;stroke-linecap:square;stroke-width:0.8;"/>
     </g>
     <g id="line2d_58">
      <g>
       <use style="fill:#555555;stroke:#555555;stroke-width:0.8;" x="542.325" xlink:href="#m749e3a6352" y="165.44"/>
      </g>
     </g>
     <g id="text_24">
      <!-- 0.4 -->
      <g style="fill:#555555;" transform="translate(549.325 169.239219)scale(0.1 -0.1)">
       <use xlink:href="#DejaVuSans-30"/>
       <use x="63.623047" xlink:href="#DejaVuSans-2e"/>
       <use x="95.410156" xlink:href="#DejaVuSans-34"/>
      </g>
     </g>
    </g>
    <g id="ytick_12">
     <g id="line2d_59">
      <path clip-path="url(#p0bbd7ba5de)" d="M 33.8 126.56 
L 542.325 126.56 
" style="fill:none;stroke:#ffffff;stroke-linecap:square;stroke-width:0.8;"/>
     </g>
     <g id="line2d_60">
      <g>
       <use style="fill:#555555;stroke:#555555;stroke-width:0.8;" x="542.325" xlink:href="#m749e3a6352" y="126.56"/>
      </g>
     </g>
     <g id="text_25">
      <!-- 0.6 -->
      <g style="fill:#555555;" transform="translate(549.325 130.359219)scale(0.1 -0.1)">
       <use xlink:href="#DejaVuSans-30"/>
       <use x="63.623047" xlink:href="#DejaVuSans-2e"/>
       <use x="95.410156" xlink:href="#DejaVuSans-36"/>
      </g>
     </g>
    </g>
    <g id="ytick_13">
     <g id="line2d_61">
      <path clip-path="url(#p0bbd7ba5de)" d="M 33.8 87.68 
L 542.325 87.68 
" style="fill:none;stroke:#ffffff;stroke-linecap:square;stroke-width:0.8;"/>
     </g>
     <g id="line2d_62">
      <g>
       <use style="fill:#555555;stroke:#555555;stroke-width:0.8;" x="542.325" xlink:href="#m749e3a6352" y="87.68"/>
      </g>
     </g>
     <g id="text_26">
      <!-- 0.8 -->
      <g style="fill:#555555;" transform="translate(549.325 91.479219)scale(0.1 -0.1)">
       <use xlink:href="#DejaVuSans-30"/>
       <use x="63.623047" xlink:href="#DejaVuSans-2e"/>
       <use x="95.410156" xlink:href="#DejaVuSans-38"/>
      </g>
     </g>
    </g>
    <g id="ytick_14">
     <g id="line2d_63">
      <path clip-path="url(#p0bbd7ba5de)" d="M 33.8 48.8 
L 542.325 48.8 
" style="fill:none;stroke:#ffffff;stroke-linecap:square;stroke-width:0.8;"/>
     </g>
     <g id="line2d_64">
      <g>
       <use style="fill:#555555;stroke:#555555;stroke-width:0.8;" x="542.325" xlink:href="#m749e3a6352" y="48.8"/>
      </g>
     </g>
     <g id="text_27">
      <!-- 1.0 -->
      <g style="fill:#555555;" transform="translate(549.325 52.599219)scale(0.1 -0.1)">
       <use xlink:href="#DejaVuSans-31"/>
       <use x="63.623047" xlink:href="#DejaVuSans-2e"/>
       <use x="95.410156" xlink:href="#DejaVuSans-30"/>
      </g>
     </g>
    </g>
   </g>
   <g id="patch_8">
    <path d="M 33.8 243.2 
L 33.8 48.8 
" style="fill:none;stroke:#ffffff;stroke-linecap:square;stroke-linejoin:miter;"/>
   </g>
   <g id="patch_9">
    <path d="M 542.325 243.2 
L 542.325 48.8 
" style="fill:none;stroke:#ffffff;stroke-linecap:square;stroke-linejoin:miter;"/>
   </g>
   <g id="patch_10">
    <path d="M 33.8 243.2 
L 542.325 243.2 
" style="fill:none;stroke:#ffffff;stroke-linecap:square;stroke-linejoin:miter;"/>
   </g>
   <g id="patch_11">
    <path d="M 33.8 48.8 
L 542.325 48.8 
" style="fill:none;stroke:#ffffff;stroke-linecap:square;stroke-linejoin:miter;"/>
   </g>
   <g id="legend_2">
    <g id="patch_12">
     <path d="M 40.8 43.8 
L 299.884375 43.8 
Q 301.884375 43.8 301.884375 41.8 
L 301.884375 13.44375 
Q 301.884375 11.44375 299.884375 11.44375 
L 40.8 11.44375 
Q 38.8 11.44375 38.8 13.44375 
L 38.8 41.8 
Q 38.8 43.8 40.8 43.8 
z
" style="fill:#e5e5e5;opacity:0.8;stroke:#cccccc;stroke-linejoin:miter;stroke-width:0.5;"/>
    </g>
    <g id="line2d_65">
     <path d="M 42.8 19.542187 
L 62.8 19.542187 
" style="fill:none;stroke:#000000;stroke-linecap:square;stroke-width:1.5;"/>
    </g>
    <g id="line2d_66"/>
    <g id="text_28">
     <!-- Solid line style indicate the training data -->
     <g transform="translate(70.8 23.042187)scale(0.1 -0.1)">
      <defs>
       <path d="M 3425 4513 
L 3425 3897 
Q 3066 4069 2747 4153 
Q 2428 4238 2131 4238 
Q 1616 4238 1336 4038 
Q 1056 3838 1056 3469 
Q 1056 3159 1242 3001 
Q 1428 2844 1947 2747 
L 2328 2669 
Q 3034 2534 3370 2195 
Q 3706 1856 3706 1288 
Q 3706 609 3251 259 
Q 2797 -91 1919 -91 
Q 1588 -91 1214 -16 
Q 841 59 441 206 
L 441 856 
Q 825 641 1194 531 
Q 1563 422 1919 422 
Q 2459 422 2753 634 
Q 3047 847 3047 1241 
Q 3047 1584 2836 1778 
Q 2625 1972 2144 2069 
L 1759 2144 
Q 1053 2284 737 2584 
Q 422 2884 422 3419 
Q 422 4038 858 4394 
Q 1294 4750 2059 4750 
Q 2388 4750 2728 4690 
Q 3069 4631 3425 4513 
z
" id="DejaVuSans-53" transform="scale(0.015625)"/>
       <path d="M 603 4863 
L 1178 4863 
L 1178 0 
L 603 0 
L 603 4863 
z
" id="DejaVuSans-6c" transform="scale(0.015625)"/>
       <path d="M 603 3500 
L 1178 3500 
L 1178 0 
L 603 0 
L 603 3500 
z
M 603 4863 
L 1178 4863 
L 1178 4134 
L 603 4134 
L 603 4863 
z
" id="DejaVuSans-69" transform="scale(0.015625)"/>
       <path d="M 2906 2969 
L 2906 4863 
L 3481 4863 
L 3481 0 
L 2906 0 
L 2906 525 
Q 2725 213 2448 61 
Q 2172 -91 1784 -91 
Q 1150 -91 751 415 
Q 353 922 353 1747 
Q 353 2572 751 3078 
Q 1150 3584 1784 3584 
Q 2172 3584 2448 3432 
Q 2725 3281 2906 2969 
z
M 947 1747 
Q 947 1113 1208 752 
Q 1469 391 1925 391 
Q 2381 391 2643 752 
Q 2906 1113 2906 1747 
Q 2906 2381 2643 2742 
Q 2381 3103 1925 3103 
Q 1469 3103 1208 2742 
Q 947 2381 947 1747 
z
" id="DejaVuSans-64" transform="scale(0.015625)"/>
       <path d="M 2834 3397 
L 2834 2853 
Q 2591 2978 2328 3040 
Q 2066 3103 1784 3103 
Q 1356 3103 1142 2972 
Q 928 2841 928 2578 
Q 928 2378 1081 2264 
Q 1234 2150 1697 2047 
L 1894 2003 
Q 2506 1872 2764 1633 
Q 3022 1394 3022 966 
Q 3022 478 2636 193 
Q 2250 -91 1575 -91 
Q 1294 -91 989 -36 
Q 684 19 347 128 
L 347 722 
Q 666 556 975 473 
Q 1284 391 1588 391 
Q 1994 391 2212 530 
Q 2431 669 2431 922 
Q 2431 1156 2273 1281 
Q 2116 1406 1581 1522 
L 1381 1569 
Q 847 1681 609 1914 
Q 372 2147 372 2553 
Q 372 3047 722 3315 
Q 1072 3584 1716 3584 
Q 2034 3584 2315 3537 
Q 2597 3491 2834 3397 
z
" id="DejaVuSans-73" transform="scale(0.015625)"/>
       <path d="M 1172 4494 
L 1172 3500 
L 2356 3500 
L 2356 3053 
L 1172 3053 
L 1172 1153 
Q 1172 725 1289 603 
Q 1406 481 1766 481 
L 2356 481 
L 2356 0 
L 1766 0 
Q 1100 0 847 248 
Q 594 497 594 1153 
L 594 3053 
L 172 3053 
L 172 3500 
L 594 3500 
L 594 4494 
L 1172 4494 
z
" id="DejaVuSans-74" transform="scale(0.015625)"/>
       <path d="M 2059 -325 
Q 1816 -950 1584 -1140 
Q 1353 -1331 966 -1331 
L 506 -1331 
L 506 -850 
L 844 -850 
Q 1081 -850 1212 -737 
Q 1344 -625 1503 -206 
L 1606 56 
L 191 3500 
L 800 3500 
L 1894 763 
L 2988 3500 
L 3597 3500 
L 2059 -325 
z
" id="DejaVuSans-79" transform="scale(0.015625)"/>
       <path d="M 2194 1759 
Q 1497 1759 1228 1600 
Q 959 1441 959 1056 
Q 959 750 1161 570 
Q 1363 391 1709 391 
Q 2188 391 2477 730 
Q 2766 1069 2766 1631 
L 2766 1759 
L 2194 1759 
z
M 3341 1997 
L 3341 0 
L 2766 0 
L 2766 531 
Q 2569 213 2275 61 
Q 1981 -91 1556 -91 
Q 1019 -91 701 211 
Q 384 513 384 1019 
Q 384 1609 779 1909 
Q 1175 2209 1959 2209 
L 2766 2209 
L 2766 2266 
Q 2766 2663 2505 2880 
Q 2244 3097 1772 3097 
Q 1472 3097 1187 3025 
Q 903 2953 641 2809 
L 641 3341 
Q 956 3463 1253 3523 
Q 1550 3584 1831 3584 
Q 2591 3584 2966 3190 
Q 3341 2797 3341 1997 
z
" id="DejaVuSans-61" transform="scale(0.015625)"/>
       <path d="M 2906 1791 
Q 2906 2416 2648 2759 
Q 2391 3103 1925 3103 
Q 1463 3103 1205 2759 
Q 947 2416 947 1791 
Q 947 1169 1205 825 
Q 1463 481 1925 481 
Q 2391 481 2648 825 
Q 2906 1169 2906 1791 
z
M 3481 434 
Q 3481 -459 3084 -895 
Q 2688 -1331 1869 -1331 
Q 1566 -1331 1297 -1286 
Q 1028 -1241 775 -1147 
L 775 -588 
Q 1028 -725 1275 -790 
Q 1522 -856 1778 -856 
Q 2344 -856 2625 -561 
Q 2906 -266 2906 331 
L 2906 616 
Q 2728 306 2450 153 
Q 2172 0 1784 0 
Q 1141 0 747 490 
Q 353 981 353 1791 
Q 353 2603 747 3093 
Q 1141 3584 1784 3584 
Q 2172 3584 2450 3431 
Q 2728 3278 2906 2969 
L 2906 3500 
L 3481 3500 
L 3481 434 
z
" id="DejaVuSans-67" transform="scale(0.015625)"/>
      </defs>
      <use xlink:href="#DejaVuSans-53"/>
      <use x="63.476562" xlink:href="#DejaVuSans-6f"/>
      <use x="124.658203" xlink:href="#DejaVuSans-6c"/>
      <use x="152.441406" xlink:href="#DejaVuSans-69"/>
      <use x="180.224609" xlink:href="#DejaVuSans-64"/>
      <use x="243.701172" xlink:href="#DejaVuSans-20"/>
      <use x="275.488281" xlink:href="#DejaVuSans-6c"/>
      <use x="303.271484" xlink:href="#DejaVuSans-69"/>
      <use x="331.054688" xlink:href="#DejaVuSans-6e"/>
      <use x="394.433594" xlink:href="#DejaVuSans-65"/>
      <use x="455.957031" xlink:href="#DejaVuSans-20"/>
      <use x="487.744141" xlink:href="#DejaVuSans-73"/>
      <use x="539.84375" xlink:href="#DejaVuSans-74"/>
      <use x="579.052734" xlink:href="#DejaVuSans-79"/>
      <use x="638.232422" xlink:href="#DejaVuSans-6c"/>
      <use x="666.015625" xlink:href="#DejaVuSans-65"/>
      <use x="727.539062" xlink:href="#DejaVuSans-20"/>
      <use x="759.326172" xlink:href="#DejaVuSans-69"/>
      <use x="787.109375" xlink:href="#DejaVuSans-6e"/>
      <use x="850.488281" xlink:href="#DejaVuSans-64"/>
      <use x="913.964844" xlink:href="#DejaVuSans-69"/>
      <use x="941.748047" xlink:href="#DejaVuSans-63"/>
      <use x="996.728516" xlink:href="#DejaVuSans-61"/>
      <use x="1058.007812" xlink:href="#DejaVuSans-74"/>
      <use x="1097.216797" xlink:href="#DejaVuSans-65"/>
      <use x="1158.740234" xlink:href="#DejaVuSans-20"/>
      <use x="1190.527344" xlink:href="#DejaVuSans-74"/>
      <use x="1229.736328" xlink:href="#DejaVuSans-68"/>
      <use x="1293.115234" xlink:href="#DejaVuSans-65"/>
      <use x="1354.638672" xlink:href="#DejaVuSans-20"/>
      <use x="1386.425781" xlink:href="#DejaVuSans-74"/>
      <use x="1425.634766" xlink:href="#DejaVuSans-72"/>
      <use x="1466.748047" xlink:href="#DejaVuSans-61"/>
      <use x="1528.027344" xlink:href="#DejaVuSans-69"/>
      <use x="1555.810547" xlink:href="#DejaVuSans-6e"/>
      <use x="1619.189453" xlink:href="#DejaVuSans-69"/>
      <use x="1646.972656" xlink:href="#DejaVuSans-6e"/>
      <use x="1710.351562" xlink:href="#DejaVuSans-67"/>
      <use x="1773.828125" xlink:href="#DejaVuSans-20"/>
      <use x="1805.615234" xlink:href="#DejaVuSans-64"/>
      <use x="1869.091797" xlink:href="#DejaVuSans-61"/>
      <use x="1930.371094" xlink:href="#DejaVuSans-74"/>
      <use x="1969.580078" xlink:href="#DejaVuSans-61"/>
     </g>
    </g>
    <g id="line2d_67">
     <path d="M 42.8 34.220312 
L 62.8 34.220312 
" style="fill:none;stroke:#000000;stroke-dasharray:5.55,2.4;stroke-dashoffset:0;stroke-width:1.5;"/>
    </g>
    <g id="line2d_68"/>
    <g id="text_29">
     <!-- Dashed line style indicate the validation data -->
     <g transform="translate(70.8 37.720312)scale(0.1 -0.1)">
      <defs>
       <path d="M 1259 4147 
L 1259 519 
L 2022 519 
Q 2988 519 3436 956 
Q 3884 1394 3884 2338 
Q 3884 3275 3436 3711 
Q 2988 4147 2022 4147 
L 1259 4147 
z
M 628 4666 
L 1925 4666 
Q 3281 4666 3915 4102 
Q 4550 3538 4550 2338 
Q 4550 1131 3912 565 
Q 3275 0 1925 0 
L 628 0 
L 628 4666 
z
" id="DejaVuSans-44" transform="scale(0.015625)"/>
       <path d="M 191 3500 
L 800 3500 
L 1894 563 
L 2988 3500 
L 3597 3500 
L 2284 0 
L 1503 0 
L 191 3500 
z
" id="DejaVuSans-76" transform="scale(0.015625)"/>
      </defs>
      <use xlink:href="#DejaVuSans-44"/>
      <use x="77.001953" xlink:href="#DejaVuSans-61"/>
      <use x="138.28125" xlink:href="#DejaVuSans-73"/>
      <use x="190.380859" xlink:href="#DejaVuSans-68"/>
      <use x="253.759766" xlink:href="#DejaVuSans-65"/>
      <use x="315.283203" xlink:href="#DejaVuSans-64"/>
      <use x="378.759766" xlink:href="#DejaVuSans-20"/>
      <use x="410.546875" xlink:href="#DejaVuSans-6c"/>
      <use x="438.330078" xlink:href="#DejaVuSans-69"/>
      <use x="466.113281" xlink:href="#DejaVuSans-6e"/>
      <use x="529.492188" xlink:href="#DejaVuSans-65"/>
      <use x="591.015625" xlink:href="#DejaVuSans-20"/>
      <use x="622.802734" xlink:href="#DejaVuSans-73"/>
      <use x="674.902344" xlink:href="#DejaVuSans-74"/>
      <use x="714.111328" xlink:href="#DejaVuSans-79"/>
      <use x="773.291016" xlink:href="#DejaVuSans-6c"/>
      <use x="801.074219" xlink:href="#DejaVuSans-65"/>
      <use x="862.597656" xlink:href="#DejaVuSans-20"/>
      <use x="894.384766" xlink:href="#DejaVuSans-69"/>
      <use x="922.167969" xlink:href="#DejaVuSans-6e"/>
      <use x="985.546875" xlink:href="#DejaVuSans-64"/>
      <use x="1049.023438" xlink:href="#DejaVuSans-69"/>
      <use x="1076.806641" xlink:href="#DejaVuSans-63"/>
      <use x="1131.787109" xlink:href="#DejaVuSans-61"/>
      <use x="1193.066406" xlink:href="#DejaVuSans-74"/>
      <use x="1232.275391" xlink:href="#DejaVuSans-65"/>
      <use x="1293.798828" xlink:href="#DejaVuSans-20"/>
      <use x="1325.585938" xlink:href="#DejaVuSans-74"/>
      <use x="1364.794922" xlink:href="#DejaVuSans-68"/>
      <use x="1428.173828" xlink:href="#DejaVuSans-65"/>
      <use x="1489.697266" xlink:href="#DejaVuSans-20"/>
      <use x="1521.484375" xlink:href="#DejaVuSans-76"/>
      <use x="1580.664062" xlink:href="#DejaVuSans-61"/>
      <use x="1641.943359" xlink:href="#DejaVuSans-6c"/>
      <use x="1669.726562" xlink:href="#DejaVuSans-69"/>
      <use x="1697.509766" xlink:href="#DejaVuSans-64"/>
      <use x="1760.986328" xlink:href="#DejaVuSans-61"/>
      <use x="1822.265625" xlink:href="#DejaVuSans-74"/>
      <use x="1861.474609" xlink:href="#DejaVuSans-69"/>
      <use x="1889.257812" xlink:href="#DejaVuSans-6f"/>
      <use x="1950.439453" xlink:href="#DejaVuSans-6e"/>
      <use x="2013.818359" xlink:href="#DejaVuSans-20"/>
      <use x="2045.605469" xlink:href="#DejaVuSans-64"/>
      <use x="2109.082031" xlink:href="#DejaVuSans-61"/>
      <use x="2170.361328" xlink:href="#DejaVuSans-74"/>
      <use x="2209.570312" xlink:href="#DejaVuSans-61"/>
     </g>
    </g>
   </g>
  </g>
 </g>
 <defs>
  <clipPath id="p0bbd7ba5de">
   <rect height="194.4" width="508.525" x="33.8" y="48.8"/>
  </clipPath>
 </defs>
</svg>
