<?xml version="1.0" encoding="utf-8" standalone="no"?>
<!DOCTYPE svg PUBLIC "-//W3C//DTD SVG 1.1//EN"
  "http://www.w3.org/Graphics/SVG/1.1/DTD/svg11.dtd">
<svg height="288pt" version="1.1" viewBox="0 0 576 288" width="576pt" xmlns="http://www.w3.org/2000/svg" xmlns:xlink="http://www.w3.org/1999/xlink">
 <metadata>
  <rdf:RDF xmlns:cc="http://creativecommons.org/ns#" xmlns:dc="http://purl.org/dc/elements/1.1/" xmlns:rdf="http://www.w3.org/1999/02/22-rdf-syntax-ns#">
   <cc:Work>
    <dc:type rdf:resource="http://purl.org/dc/dcmitype/StillImage"/>
    <dc:date>2021-11-04T21:11:38.689552</dc:date>
    <dc:format>image/svg+xml</dc:format>
    <dc:creator>
     <cc:Agent>
      <dc:title>Matplotlib v3.4.3, https://matplotlib.org/</dc:title>
     </cc:Agent>
    </dc:creator>
   </cc:Work>
  </rdf:RDF>
 </metadata>
 <defs>
  <style type="text/css">*{stroke-linecap:butt;stroke-linejoin:round;}</style>
 </defs>
 <g id="figure_1">
  <g id="patch_1">
   <path d="M 0 288 
L 576 288 
L 576 0 
L 0 0 
z
" style="fill:#ffffff;"/>
  </g>
  <g id="axes_1">
   <g id="patch_2">
    <path d="M 33.675 243.2 
L 542.325 243.2 
L 542.325 48.8 
L 33.675 48.8 
z
" style="fill:#e5e5e5;"/>
   </g>
   <g id="matplotlib.axis_1">
    <g id="xtick_1">
     <g id="line2d_1">
      <path clip-path="url(#pe2bdc8ad5a)" d="M 52.124656 243.2 
L 52.124656 48.8 
" style="fill:none;stroke:#ffffff;stroke-linecap:square;stroke-width:0.8;"/>
     </g>
     <g id="line2d_2">
      <defs>
       <path d="M 0 0 
L 0 3.5 
" id="m4101216550" style="stroke:#555555;stroke-width:0.8;"/>
      </defs>
      <g>
       <use style="fill:#555555;stroke:#555555;stroke-width:0.8;" x="52.124656" xlink:href="#m4101216550" y="243.2"/>
      </g>
     </g>
     <g id="text_1">
      <!-- 0 -->
      <g style="fill:#555555;" transform="translate(48.943406 257.798437)scale(0.1 -0.1)">
       <defs>
        <path d="M 2034 4250 
Q 1547 4250 1301 3770 
Q 1056 3291 1056 2328 
Q 1056 1369 1301 889 
Q 1547 409 2034 409 
Q 2525 409 2770 889 
Q 3016 1369 3016 2328 
Q 3016 3291 2770 3770 
Q 2525 4250 2034 4250 
z
M 2034 4750 
Q 2819 4750 3233 4129 
Q 3647 3509 3647 2328 
Q 3647 1150 3233 529 
Q 2819 -91 2034 -91 
Q 1250 -91 836 529 
Q 422 1150 422 2328 
Q 422 3509 836 4129 
Q 1250 4750 2034 4750 
z
" id="DejaVuSans-30" transform="scale(0.015625)"/>
       </defs>
       <use xlink:href="#DejaVuSans-30"/>
      </g>
     </g>
    </g>
    <g id="xtick_2">
     <g id="line2d_3">
      <path clip-path="url(#pe2bdc8ad5a)" d="M 145.540634 243.2 
L 145.540634 48.8 
" style="fill:none;stroke:#ffffff;stroke-linecap:square;stroke-width:0.8;"/>
     </g>
     <g id="line2d_4">
      <g>
       <use style="fill:#555555;stroke:#555555;stroke-width:0.8;" x="145.540634" xlink:href="#m4101216550" y="243.2"/>
      </g>
     </g>
     <g id="text_2">
      <!-- 20 -->
      <g style="fill:#555555;" transform="translate(139.178134 257.798437)scale(0.1 -0.1)">
       <defs>
        <path d="M 1228 531 
L 3431 531 
L 3431 0 
L 469 0 
L 469 531 
Q 828 903 1448 1529 
Q 2069 2156 2228 2338 
Q 2531 2678 2651 2914 
Q 2772 3150 2772 3378 
Q 2772 3750 2511 3984 
Q 2250 4219 1831 4219 
Q 1534 4219 1204 4116 
Q 875 4013 500 3803 
L 500 4441 
Q 881 4594 1212 4672 
Q 1544 4750 1819 4750 
Q 2544 4750 2975 4387 
Q 3406 4025 3406 3419 
Q 3406 3131 3298 2873 
Q 3191 2616 2906 2266 
Q 2828 2175 2409 1742 
Q 1991 1309 1228 531 
z
" id="DejaVuSans-32" transform="scale(0.015625)"/>
       </defs>
       <use xlink:href="#DejaVuSans-32"/>
       <use x="63.623047" xlink:href="#DejaVuSans-30"/>
      </g>
     </g>
    </g>
    <g id="xtick_3">
     <g id="line2d_5">
      <path clip-path="url(#pe2bdc8ad5a)" d="M 238.956612 243.2 
L 238.956612 48.8 
" style="fill:none;stroke:#ffffff;stroke-linecap:square;stroke-width:0.8;"/>
     </g>
     <g id="line2d_6">
      <g>
       <use style="fill:#555555;stroke:#555555;stroke-width:0.8;" x="238.956612" xlink:href="#m4101216550" y="243.2"/>
      </g>
     </g>
     <g id="text_3">
      <!-- 40 -->
      <g style="fill:#555555;" transform="translate(232.594112 257.798437)scale(0.1 -0.1)">
       <defs>
        <path d="M 2419 4116 
L 825 1625 
L 2419 1625 
L 2419 4116 
z
M 2253 4666 
L 3047 4666 
L 3047 1625 
L 3713 1625 
L 3713 1100 
L 3047 1100 
L 3047 0 
L 2419 0 
L 2419 1100 
L 313 1100 
L 313 1709 
L 2253 4666 
z
" id="DejaVuSans-34" transform="scale(0.015625)"/>
       </defs>
       <use xlink:href="#DejaVuSans-34"/>
       <use x="63.623047" xlink:href="#DejaVuSans-30"/>
      </g>
     </g>
    </g>
    <g id="xtick_4">
     <g id="line2d_7">
      <path clip-path="url(#pe2bdc8ad5a)" d="M 332.37259 243.2 
L 332.37259 48.8 
" style="fill:none;stroke:#ffffff;stroke-linecap:square;stroke-width:0.8;"/>
     </g>
     <g id="line2d_8">
      <g>
       <use style="fill:#555555;stroke:#555555;stroke-width:0.8;" x="332.37259" xlink:href="#m4101216550" y="243.2"/>
      </g>
     </g>
     <g id="text_4">
      <!-- 60 -->
      <g style="fill:#555555;" transform="translate(326.01009 257.798437)scale(0.1 -0.1)">
       <defs>
        <path d="M 2113 2584 
Q 1688 2584 1439 2293 
Q 1191 2003 1191 1497 
Q 1191 994 1439 701 
Q 1688 409 2113 409 
Q 2538 409 2786 701 
Q 3034 994 3034 1497 
Q 3034 2003 2786 2293 
Q 2538 2584 2113 2584 
z
M 3366 4563 
L 3366 3988 
Q 3128 4100 2886 4159 
Q 2644 4219 2406 4219 
Q 1781 4219 1451 3797 
Q 1122 3375 1075 2522 
Q 1259 2794 1537 2939 
Q 1816 3084 2150 3084 
Q 2853 3084 3261 2657 
Q 3669 2231 3669 1497 
Q 3669 778 3244 343 
Q 2819 -91 2113 -91 
Q 1303 -91 875 529 
Q 447 1150 447 2328 
Q 447 3434 972 4092 
Q 1497 4750 2381 4750 
Q 2619 4750 2861 4703 
Q 3103 4656 3366 4563 
z
" id="DejaVuSans-36" transform="scale(0.015625)"/>
       </defs>
       <use xlink:href="#DejaVuSans-36"/>
       <use x="63.623047" xlink:href="#DejaVuSans-30"/>
      </g>
     </g>
    </g>
    <g id="xtick_5">
     <g id="line2d_9">
      <path clip-path="url(#pe2bdc8ad5a)" d="M 425.788567 243.2 
L 425.788567 48.8 
" style="fill:none;stroke:#ffffff;stroke-linecap:square;stroke-width:0.8;"/>
     </g>
     <g id="line2d_10">
      <g>
       <use style="fill:#555555;stroke:#555555;stroke-width:0.8;" x="425.788567" xlink:href="#m4101216550" y="243.2"/>
      </g>
     </g>
     <g id="text_5">
      <!-- 80 -->
      <g style="fill:#555555;" transform="translate(419.426067 257.798437)scale(0.1 -0.1)">
       <defs>
        <path d="M 2034 2216 
Q 1584 2216 1326 1975 
Q 1069 1734 1069 1313 
Q 1069 891 1326 650 
Q 1584 409 2034 409 
Q 2484 409 2743 651 
Q 3003 894 3003 1313 
Q 3003 1734 2745 1975 
Q 2488 2216 2034 2216 
z
M 1403 2484 
Q 997 2584 770 2862 
Q 544 3141 544 3541 
Q 544 4100 942 4425 
Q 1341 4750 2034 4750 
Q 2731 4750 3128 4425 
Q 3525 4100 3525 3541 
Q 3525 3141 3298 2862 
Q 3072 2584 2669 2484 
Q 3125 2378 3379 2068 
Q 3634 1759 3634 1313 
Q 3634 634 3220 271 
Q 2806 -91 2034 -91 
Q 1263 -91 848 271 
Q 434 634 434 1313 
Q 434 1759 690 2068 
Q 947 2378 1403 2484 
z
M 1172 3481 
Q 1172 3119 1398 2916 
Q 1625 2713 2034 2713 
Q 2441 2713 2670 2916 
Q 2900 3119 2900 3481 
Q 2900 3844 2670 4047 
Q 2441 4250 2034 4250 
Q 1625 4250 1398 4047 
Q 1172 3844 1172 3481 
z
" id="DejaVuSans-38" transform="scale(0.015625)"/>
       </defs>
       <use xlink:href="#DejaVuSans-38"/>
       <use x="63.623047" xlink:href="#DejaVuSans-30"/>
      </g>
     </g>
    </g>
    <g id="xtick_6">
     <g id="line2d_11">
      <path clip-path="url(#pe2bdc8ad5a)" d="M 519.204545 243.2 
L 519.204545 48.8 
" style="fill:none;stroke:#ffffff;stroke-linecap:square;stroke-width:0.8;"/>
     </g>
     <g id="line2d_12">
      <g>
       <use style="fill:#555555;stroke:#555555;stroke-width:0.8;" x="519.204545" xlink:href="#m4101216550" y="243.2"/>
      </g>
     </g>
     <g id="text_6">
      <!-- 100 -->
      <g style="fill:#555555;" transform="translate(509.660795 257.798437)scale(0.1 -0.1)">
       <defs>
        <path d="M 794 531 
L 1825 531 
L 1825 4091 
L 703 3866 
L 703 4441 
L 1819 4666 
L 2450 4666 
L 2450 531 
L 3481 531 
L 3481 0 
L 794 0 
L 794 531 
z
" id="DejaVuSans-31" transform="scale(0.015625)"/>
       </defs>
       <use xlink:href="#DejaVuSans-31"/>
       <use x="63.623047" xlink:href="#DejaVuSans-30"/>
       <use x="127.246094" xlink:href="#DejaVuSans-30"/>
      </g>
     </g>
    </g>
    <g id="text_7">
     <!-- Epoch number -->
     <g style="fill:#555555;" transform="translate(244.303125 272.99625)scale(0.12 -0.12)">
      <defs>
       <path d="M 628 4666 
L 3578 4666 
L 3578 4134 
L 1259 4134 
L 1259 2753 
L 3481 2753 
L 3481 2222 
L 1259 2222 
L 1259 531 
L 3634 531 
L 3634 0 
L 628 0 
L 628 4666 
z
" id="DejaVuSans-45" transform="scale(0.015625)"/>
       <path d="M 1159 525 
L 1159 -1331 
L 581 -1331 
L 581 3500 
L 1159 3500 
L 1159 2969 
Q 1341 3281 1617 3432 
Q 1894 3584 2278 3584 
Q 2916 3584 3314 3078 
Q 3713 2572 3713 1747 
Q 3713 922 3314 415 
Q 2916 -91 2278 -91 
Q 1894 -91 1617 61 
Q 1341 213 1159 525 
z
M 3116 1747 
Q 3116 2381 2855 2742 
Q 2594 3103 2138 3103 
Q 1681 3103 1420 2742 
Q 1159 2381 1159 1747 
Q 1159 1113 1420 752 
Q 1681 391 2138 391 
Q 2594 391 2855 752 
Q 3116 1113 3116 1747 
z
" id="DejaVuSans-70" transform="scale(0.015625)"/>
       <path d="M 1959 3097 
Q 1497 3097 1228 2736 
Q 959 2375 959 1747 
Q 959 1119 1226 758 
Q 1494 397 1959 397 
Q 2419 397 2687 759 
Q 2956 1122 2956 1747 
Q 2956 2369 2687 2733 
Q 2419 3097 1959 3097 
z
M 1959 3584 
Q 2709 3584 3137 3096 
Q 3566 2609 3566 1747 
Q 3566 888 3137 398 
Q 2709 -91 1959 -91 
Q 1206 -91 779 398 
Q 353 888 353 1747 
Q 353 2609 779 3096 
Q 1206 3584 1959 3584 
z
" id="DejaVuSans-6f" transform="scale(0.015625)"/>
       <path d="M 3122 3366 
L 3122 2828 
Q 2878 2963 2633 3030 
Q 2388 3097 2138 3097 
Q 1578 3097 1268 2742 
Q 959 2388 959 1747 
Q 959 1106 1268 751 
Q 1578 397 2138 397 
Q 2388 397 2633 464 
Q 2878 531 3122 666 
L 3122 134 
Q 2881 22 2623 -34 
Q 2366 -91 2075 -91 
Q 1284 -91 818 406 
Q 353 903 353 1747 
Q 353 2603 823 3093 
Q 1294 3584 2113 3584 
Q 2378 3584 2631 3529 
Q 2884 3475 3122 3366 
z
" id="DejaVuSans-63" transform="scale(0.015625)"/>
       <path d="M 3513 2113 
L 3513 0 
L 2938 0 
L 2938 2094 
Q 2938 2591 2744 2837 
Q 2550 3084 2163 3084 
Q 1697 3084 1428 2787 
Q 1159 2491 1159 1978 
L 1159 0 
L 581 0 
L 581 4863 
L 1159 4863 
L 1159 2956 
Q 1366 3272 1645 3428 
Q 1925 3584 2291 3584 
Q 2894 3584 3203 3211 
Q 3513 2838 3513 2113 
z
" id="DejaVuSans-68" transform="scale(0.015625)"/>
       <path id="DejaVuSans-20" transform="scale(0.015625)"/>
       <path d="M 3513 2113 
L 3513 0 
L 2938 0 
L 2938 2094 
Q 2938 2591 2744 2837 
Q 2550 3084 2163 3084 
Q 1697 3084 1428 2787 
Q 1159 2491 1159 1978 
L 1159 0 
L 581 0 
L 581 3500 
L 1159 3500 
L 1159 2956 
Q 1366 3272 1645 3428 
Q 1925 3584 2291 3584 
Q 2894 3584 3203 3211 
Q 3513 2838 3513 2113 
z
" id="DejaVuSans-6e" transform="scale(0.015625)"/>
       <path d="M 544 1381 
L 544 3500 
L 1119 3500 
L 1119 1403 
Q 1119 906 1312 657 
Q 1506 409 1894 409 
Q 2359 409 2629 706 
Q 2900 1003 2900 1516 
L 2900 3500 
L 3475 3500 
L 3475 0 
L 2900 0 
L 2900 538 
Q 2691 219 2414 64 
Q 2138 -91 1772 -91 
Q 1169 -91 856 284 
Q 544 659 544 1381 
z
M 1991 3584 
L 1991 3584 
z
" id="DejaVuSans-75" transform="scale(0.015625)"/>
       <path d="M 3328 2828 
Q 3544 3216 3844 3400 
Q 4144 3584 4550 3584 
Q 5097 3584 5394 3201 
Q 5691 2819 5691 2113 
L 5691 0 
L 5113 0 
L 5113 2094 
Q 5113 2597 4934 2840 
Q 4756 3084 4391 3084 
Q 3944 3084 3684 2787 
Q 3425 2491 3425 1978 
L 3425 0 
L 2847 0 
L 2847 2094 
Q 2847 2600 2669 2842 
Q 2491 3084 2119 3084 
Q 1678 3084 1418 2786 
Q 1159 2488 1159 1978 
L 1159 0 
L 581 0 
L 581 3500 
L 1159 3500 
L 1159 2956 
Q 1356 3278 1631 3431 
Q 1906 3584 2284 3584 
Q 2666 3584 2933 3390 
Q 3200 3197 3328 2828 
z
" id="DejaVuSans-6d" transform="scale(0.015625)"/>
       <path d="M 3116 1747 
Q 3116 2381 2855 2742 
Q 2594 3103 2138 3103 
Q 1681 3103 1420 2742 
Q 1159 2381 1159 1747 
Q 1159 1113 1420 752 
Q 1681 391 2138 391 
Q 2594 391 2855 752 
Q 3116 1113 3116 1747 
z
M 1159 2969 
Q 1341 3281 1617 3432 
Q 1894 3584 2278 3584 
Q 2916 3584 3314 3078 
Q 3713 2572 3713 1747 
Q 3713 922 3314 415 
Q 2916 -91 2278 -91 
Q 1894 -91 1617 61 
Q 1341 213 1159 525 
L 1159 0 
L 581 0 
L 581 4863 
L 1159 4863 
L 1159 2969 
z
" id="DejaVuSans-62" transform="scale(0.015625)"/>
       <path d="M 3597 1894 
L 3597 1613 
L 953 1613 
Q 991 1019 1311 708 
Q 1631 397 2203 397 
Q 2534 397 2845 478 
Q 3156 559 3463 722 
L 3463 178 
Q 3153 47 2828 -22 
Q 2503 -91 2169 -91 
Q 1331 -91 842 396 
Q 353 884 353 1716 
Q 353 2575 817 3079 
Q 1281 3584 2069 3584 
Q 2775 3584 3186 3129 
Q 3597 2675 3597 1894 
z
M 3022 2063 
Q 3016 2534 2758 2815 
Q 2500 3097 2075 3097 
Q 1594 3097 1305 2825 
Q 1016 2553 972 2059 
L 3022 2063 
z
" id="DejaVuSans-65" transform="scale(0.015625)"/>
       <path d="M 2631 2963 
Q 2534 3019 2420 3045 
Q 2306 3072 2169 3072 
Q 1681 3072 1420 2755 
Q 1159 2438 1159 1844 
L 1159 0 
L 581 0 
L 581 3500 
L 1159 3500 
L 1159 2956 
Q 1341 3275 1631 3429 
Q 1922 3584 2338 3584 
Q 2397 3584 2469 3576 
Q 2541 3569 2628 3553 
L 2631 2963 
z
" id="DejaVuSans-72" transform="scale(0.015625)"/>
      </defs>
      <use xlink:href="#DejaVuSans-45"/>
      <use x="63.183594" xlink:href="#DejaVuSans-70"/>
      <use x="126.660156" xlink:href="#DejaVuSans-6f"/>
      <use x="187.841797" xlink:href="#DejaVuSans-63"/>
      <use x="242.822266" xlink:href="#DejaVuSans-68"/>
      <use x="306.201172" xlink:href="#DejaVuSans-20"/>
      <use x="337.988281" xlink:href="#DejaVuSans-6e"/>
      <use x="401.367188" xlink:href="#DejaVuSans-75"/>
      <use x="464.746094" xlink:href="#DejaVuSans-6d"/>
      <use x="562.158203" xlink:href="#DejaVuSans-62"/>
      <use x="625.634766" xlink:href="#DejaVuSans-65"/>
      <use x="687.158203" xlink:href="#DejaVuSans-72"/>
     </g>
    </g>
   </g>
   <g id="matplotlib.axis_2">
    <g id="ytick_1">
     <g id="line2d_13">
      <path clip-path="url(#pe2bdc8ad5a)" d="M 33.675 238.477284 
L 542.325 238.477284 
" style="fill:none;stroke:#ffffff;stroke-linecap:square;stroke-width:0.8;"/>
     </g>
     <g id="line2d_14">
      <defs>
       <path d="M 0 0 
L -3.5 0 
" id="m422ac15097" style="stroke:#555555;stroke-width:0.8;"/>
      </defs>
      <g>
       <use style="fill:#555555;stroke:#555555;stroke-width:0.8;" x="33.675" xlink:href="#m422ac15097" y="238.477284"/>
      </g>
     </g>
     <g id="text_8">
      <!-- 0.0 -->
      <g style="fill:#555555;" transform="translate(10.771875 242.276503)scale(0.1 -0.1)">
       <defs>
        <path d="M 684 794 
L 1344 794 
L 1344 0 
L 684 0 
L 684 794 
z
" id="DejaVuSans-2e" transform="scale(0.015625)"/>
       </defs>
       <use xlink:href="#DejaVuSans-30"/>
       <use x="63.623047" xlink:href="#DejaVuSans-2e"/>
       <use x="95.410156" xlink:href="#DejaVuSans-30"/>
      </g>
     </g>
    </g>
    <g id="ytick_2">
     <g id="line2d_15">
      <path clip-path="url(#pe2bdc8ad5a)" d="M 33.675 196.544616 
L 542.325 196.544616 
" style="fill:none;stroke:#ffffff;stroke-linecap:square;stroke-width:0.8;"/>
     </g>
     <g id="line2d_16">
      <g>
       <use style="fill:#555555;stroke:#555555;stroke-width:0.8;" x="33.675" xlink:href="#m422ac15097" y="196.544616"/>
      </g>
     </g>
     <g id="text_9">
      <!-- 0.2 -->
      <g style="fill:#555555;" transform="translate(10.771875 200.343835)scale(0.1 -0.1)">
       <use xlink:href="#DejaVuSans-30"/>
       <use x="63.623047" xlink:href="#DejaVuSans-2e"/>
       <use x="95.410156" xlink:href="#DejaVuSans-32"/>
      </g>
     </g>
    </g>
    <g id="ytick_3">
     <g id="line2d_17">
      <path clip-path="url(#pe2bdc8ad5a)" d="M 33.675 154.611948 
L 542.325 154.611948 
" style="fill:none;stroke:#ffffff;stroke-linecap:square;stroke-width:0.8;"/>
     </g>
     <g id="line2d_18">
      <g>
       <use style="fill:#555555;stroke:#555555;stroke-width:0.8;" x="33.675" xlink:href="#m422ac15097" y="154.611948"/>
      </g>
     </g>
     <g id="text_10">
      <!-- 0.4 -->
      <g style="fill:#555555;" transform="translate(10.771875 158.411167)scale(0.1 -0.1)">
       <use xlink:href="#DejaVuSans-30"/>
       <use x="63.623047" xlink:href="#DejaVuSans-2e"/>
       <use x="95.410156" xlink:href="#DejaVuSans-34"/>
      </g>
     </g>
    </g>
    <g id="ytick_4">
     <g id="line2d_19">
      <path clip-path="url(#pe2bdc8ad5a)" d="M 33.675 112.67928 
L 542.325 112.67928 
" style="fill:none;stroke:#ffffff;stroke-linecap:square;stroke-width:0.8;"/>
     </g>
     <g id="line2d_20">
      <g>
       <use style="fill:#555555;stroke:#555555;stroke-width:0.8;" x="33.675" xlink:href="#m422ac15097" y="112.67928"/>
      </g>
     </g>
     <g id="text_11">
      <!-- 0.6 -->
      <g style="fill:#555555;" transform="translate(10.771875 116.478499)scale(0.1 -0.1)">
       <use xlink:href="#DejaVuSans-30"/>
       <use x="63.623047" xlink:href="#DejaVuSans-2e"/>
       <use x="95.410156" xlink:href="#DejaVuSans-36"/>
      </g>
     </g>
    </g>
    <g id="ytick_5">
     <g id="line2d_21">
      <path clip-path="url(#pe2bdc8ad5a)" d="M 33.675 70.746612 
L 542.325 70.746612 
" style="fill:none;stroke:#ffffff;stroke-linecap:square;stroke-width:0.8;"/>
     </g>
     <g id="line2d_22">
      <g>
       <use style="fill:#555555;stroke:#555555;stroke-width:0.8;" x="33.675" xlink:href="#m422ac15097" y="70.746612"/>
      </g>
     </g>
     <g id="text_12">
      <!-- 0.8 -->
      <g style="fill:#555555;" transform="translate(10.771875 74.545831)scale(0.1 -0.1)">
       <use xlink:href="#DejaVuSans-30"/>
       <use x="63.623047" xlink:href="#DejaVuSans-2e"/>
       <use x="95.410156" xlink:href="#DejaVuSans-38"/>
      </g>
     </g>
    </g>
   </g>
   <g id="line2d_23">
    <path clip-path="url(#pe2bdc8ad5a)" d="M 56.795455 159.996103 
L 61.466253 132.563751 
L 66.137052 122.33218 
L 70.807851 116.820131 
L 75.47865 111.6708 
L 80.149449 107.450277 
L 84.820248 104.577889 
L 89.491047 101.353267 
L 94.161846 99.093096 
L 98.832645 96.663098 
L 103.503444 95.115782 
L 108.174242 93.469925 
L 112.845041 91.941479 
L 117.51584 90.886873 
L 122.186639 89.57438 
L 126.857438 88.219955 
L 131.528237 87.427428 
L 136.199036 86.335082 
L 140.869835 85.481752 
L 145.540634 84.770993 
L 150.211433 83.856861 
L 154.882231 83.458501 
L 159.55303 82.617751 
L 164.223829 81.917475 
L 168.894628 81.120754 
L 173.565427 80.823032 
L 178.236226 80.087114 
L 182.907025 80.005345 
L 187.577824 79.321843 
L 192.248623 78.973802 
L 196.919421 78.686563 
L 201.59022 78.279816 
L 206.261019 77.64244 
L 210.931818 77.21892 
L 215.602617 76.642345 
L 220.273416 76.636055 
L 224.944215 76.449455 
L 229.615014 76.025935 
L 234.285813 75.522743 
L 238.956612 75.445168 
L 243.62741 75.139059 
L 248.298209 75.136963 
L 252.969008 74.493296 
L 257.639807 74.380078 
L 262.310606 74.47233 
L 266.981405 74.122192 
L 271.652204 74.115902 
L 276.323003 73.665126 
L 280.993802 73.528845 
L 285.664601 73.42611 
L 290.335399 72.792926 
L 295.006198 72.727931 
L 299.676997 73.01517 
L 304.347796 72.511978 
L 309.018595 72.145067 
L 313.689394 72.109424 
L 318.360193 72.088458 
L 323.030992 71.690097 
L 327.701791 71.922824 
L 332.37259 71.373506 
L 337.043388 71.233031 
L 341.714187 71.748803 
L 346.384986 71.304317 
L 351.055785 71.157552 
L 355.726584 71.184809 
L 360.397383 71.046431 
L 365.068182 70.595655 
L 369.738981 70.593558 
L 374.40978 70.276966 
L 379.080579 70.061013 
L 383.751377 70.406958 
L 388.422176 70.046337 
L 393.092975 69.933119 
L 397.763774 69.666846 
L 402.434573 69.926829 
L 407.105372 69.771678 
L 411.776171 69.727648 
L 416.44697 69.4467 
L 421.117769 69.423637 
L 425.788567 69.331385 
L 430.459366 69.021083 
L 435.130165 68.876415 
L 439.800964 68.937218 
L 444.471763 69.01689 
L 449.142562 68.538857 
L 453.813361 68.702395 
L 458.48416 68.484345 
L 463.154959 68.488538 
L 467.825758 68.714975 
L 472.496556 68.339677 
L 477.167355 68.406769 
L 481.838154 68.232749 
L 486.508953 68.35645 
L 491.179752 68.35016 
L 495.850551 68.127917 
L 500.52135 68.364837 
L 505.192149 67.74004 
L 509.862948 67.832292 
L 514.533747 67.681334 
L 519.204545 67.570213 
" style="fill:none;stroke:#e24a33;stroke-linecap:square;stroke-width:1.5;"/>
   </g>
   <g id="line2d_24">
    <path clip-path="url(#pe2bdc8ad5a)" d="M 56.795455 160.079119 
L 61.466253 132.849424 
L 66.137052 122.9634 
L 70.807851 116.885817 
L 75.47865 112.267915 
L 80.149449 108.0083 
L 84.820248 105.447222 
L 89.491047 102.010336 
L 94.161846 99.900432 
L 98.832645 97.140307 
L 103.503444 95.892943 
L 108.174242 94.181135 
L 112.845041 91.898724 
L 117.51584 91.739486 
L 122.186639 90.412503 
L 126.857438 88.952821 
L 131.528237 87.917774 
L 136.199036 87.360441 
L 140.869835 86.776569 
L 145.540634 85.529205 
L 150.211433 84.825904 
L 154.882231 84.401269 
L 159.55303 83.56527 
L 164.223829 82.596572 
L 168.894628 81.893271 
L 173.565427 81.375747 
L 178.236226 80.539748 
L 182.907025 80.433589 
L 187.577824 80.062034 
L 192.248623 79.57105 
L 196.919421 79.212765 
L 201.59022 78.735051 
L 206.261019 78.655432 
L 210.931818 77.713274 
L 215.602617 77.2621 
L 220.273416 77.607115 
L 224.944215 77.063052 
L 229.615014 76.572068 
L 234.285813 75.868767 
L 238.956612 76.134164 
L 243.62741 75.802418 
L 248.298209 75.802418 
L 252.969008 75.019498 
L 257.639807 74.701022 
L 262.310606 74.966419 
L 266.981405 74.687752 
L 271.652204 74.687752 
L 276.323003 74.223308 
L 280.993802 74.09061 
L 285.664601 73.997721 
L 290.335399 73.387309 
L 295.006198 73.453658 
L 299.676997 73.772134 
L 304.347796 73.520007 
L 309.018595 72.737087 
L 313.689394 72.737087 
L 318.360193 72.989214 
L 323.030992 72.856516 
L 327.701791 72.803436 
L 332.37259 72.577849 
L 337.043388 72.285913 
L 341.714187 72.232833 
L 346.384986 72.073595 
L 351.055785 72.206294 
L 355.726584 71.980707 
L 360.397383 72.060326 
L 365.068182 71.357025 
L 369.738981 71.357025 
L 374.40978 71.410104 
L 379.080579 71.343755 
L 383.751377 71.595882 
L 388.422176 71.277406 
L 393.092975 70.852771 
L 397.763774 70.348517 
L 402.434573 70.93239 
L 407.105372 70.786422 
L 411.776171 70.89258 
L 416.44697 70.507755 
L 421.117769 70.268898 
L 425.788567 70.215819 
L 430.459366 69.976962 
L 435.130165 69.990232 
L 439.800964 70.030041 
L 444.471763 69.738105 
L 449.142562 69.446169 
L 453.813361 70.030041 
L 458.48416 69.844264 
L 463.154959 69.32674 
L 467.825758 69.724835 
L 472.496556 69.180772 
L 477.167355 69.393089 
L 481.838154 69.37982 
L 486.508953 69.485978 
L 491.179752 69.897343 
L 495.850551 68.968455 
L 500.52135 69.233851 
L 505.192149 69.061344 
L 509.862948 68.795947 
L 514.533747 68.915376 
L 519.204545 68.504011 
" style="fill:none;stroke:#e24a33;stroke-dasharray:5.55,2.4;stroke-dashoffset:0;stroke-width:1.5;"/>
   </g>
   <g id="line2d_25">
    <path clip-path="url(#pe2bdc8ad5a)" d="M 56.795455 231.933691 
L 61.466253 234.003068 
L 66.137052 233.919203 
L 70.807851 233.919203 
L 75.47865 233.919203 
L 80.149449 233.917107 
L 84.820248 233.919203 
L 89.491047 233.917107 
L 94.161846 233.917107 
L 98.832645 233.917107 
L 103.503444 233.917107 
L 108.174242 233.919203 
L 112.845041 233.919203 
L 117.51584 233.919203 
L 122.186639 233.919203 
L 126.857438 233.919203 
L 131.528237 233.917107 
L 136.199036 233.917107 
L 140.869835 233.917107 
L 145.540634 233.917107 
L 150.211433 233.917107 
L 154.882231 233.919203 
L 159.55303 233.919203 
L 164.223829 233.919203 
L 168.894628 233.917107 
L 173.565427 233.917107 
L 178.236226 233.917107 
L 182.907025 233.917107 
L 187.577824 233.917107 
L 192.248623 233.917107 
L 196.919421 233.917107 
L 201.59022 233.917107 
L 206.261019 233.917107 
L 210.931818 233.917107 
L 215.602617 233.9213 
L 220.273416 233.9213 
L 224.944215 233.9213 
L 229.615014 233.917107 
L 234.285813 233.917107 
L 238.956612 233.917107 
L 243.62741 233.917107 
L 248.298209 233.919203 
L 252.969008 233.919203 
L 257.639807 233.919203 
L 262.310606 233.919203 
L 266.981405 233.919203 
L 271.652204 233.919203 
L 276.323003 233.919203 
L 280.993802 233.919203 
L 285.664601 233.919203 
L 290.335399 233.919203 
L 295.006198 233.919203 
L 299.676997 233.919203 
L 304.347796 233.919203 
L 309.018595 233.919203 
L 313.689394 233.919203 
L 318.360193 233.919203 
L 323.030992 233.919203 
L 327.701791 233.919203 
L 332.37259 233.919203 
L 337.043388 233.917107 
L 341.714187 233.917107 
L 346.384986 233.917107 
L 351.055785 233.919203 
L 355.726584 233.919203 
L 360.397383 233.919203 
L 365.068182 233.919203 
L 369.738981 233.9213 
L 374.40978 233.917107 
L 379.080579 233.917107 
L 383.751377 233.917107 
L 388.422176 233.917107 
L 393.092975 233.917107 
L 397.763774 233.917107 
L 402.434573 233.917107 
L 407.105372 233.917107 
L 411.776171 233.917107 
L 416.44697 233.917107 
L 421.117769 233.917107 
L 425.788567 233.917107 
L 430.459366 233.917107 
L 435.130165 233.917107 
L 439.800964 233.917107 
L 444.471763 233.917107 
L 449.142562 233.917107 
L 453.813361 233.917107 
L 458.48416 233.9213 
L 463.154959 233.9213 
L 467.825758 233.917107 
L 472.496556 233.917107 
L 477.167355 233.9213 
L 481.838154 233.9213 
L 486.508953 233.9213 
L 491.179752 233.9213 
L 495.850551 233.9213 
L 500.52135 233.9213 
L 505.192149 233.919203 
L 509.862948 233.9213 
L 514.533747 233.919203 
L 519.204545 233.9213 
" style="fill:none;stroke:#348abd;stroke-linecap:square;stroke-width:1.5;"/>
   </g>
   <g id="line2d_26">
    <path clip-path="url(#pe2bdc8ad5a)" d="M 56.795455 232.227193 
L 61.466253 233.846113 
L 66.137052 234.257478 
L 70.807851 234.257478 
L 75.47865 234.257478 
L 80.149449 234.323827 
L 84.820248 234.257478 
L 89.491047 234.323827 
L 94.161846 234.323827 
L 98.832645 234.323827 
L 103.503444 234.323827 
L 108.174242 234.257478 
L 112.845041 234.257478 
L 117.51584 234.257478 
L 122.186639 234.257478 
L 126.857438 234.257478 
L 131.528237 234.323827 
L 136.199036 234.323827 
L 140.869835 234.323827 
L 145.540634 234.323827 
L 150.211433 234.323827 
L 154.882231 234.257478 
L 159.55303 234.257478 
L 164.223829 234.257478 
L 168.894628 234.323827 
L 173.565427 234.323827 
L 178.236226 234.323827 
L 182.907025 234.323827 
L 187.577824 234.323827 
L 192.248623 234.323827 
L 196.919421 234.323827 
L 201.59022 234.323827 
L 206.261019 234.323827 
L 210.931818 234.323827 
L 215.602617 234.363636 
L 220.273416 234.363636 
L 224.944215 234.363636 
L 229.615014 234.323827 
L 234.285813 234.323827 
L 238.956612 234.323827 
L 243.62741 234.323827 
L 248.298209 234.257478 
L 252.969008 234.257478 
L 257.639807 234.257478 
L 262.310606 234.257478 
L 266.981405 234.257478 
L 271.652204 234.257478 
L 276.323003 234.257478 
L 280.993802 234.257478 
L 285.664601 234.257478 
L 290.335399 234.257478 
L 295.006198 234.257478 
L 299.676997 234.257478 
L 304.347796 234.257478 
L 309.018595 234.257478 
L 313.689394 234.257478 
L 318.360193 234.257478 
L 323.030992 234.257478 
L 327.701791 234.257478 
L 332.37259 234.257478 
L 337.043388 234.323827 
L 341.714187 234.323827 
L 346.384986 234.323827 
L 351.055785 234.257478 
L 355.726584 234.257478 
L 360.397383 234.257478 
L 365.068182 234.257478 
L 369.738981 234.363636 
L 374.40978 234.323827 
L 379.080579 234.323827 
L 383.751377 234.323827 
L 388.422176 234.323827 
L 393.092975 234.323827 
L 397.763774 234.323827 
L 402.434573 234.323827 
L 407.105372 234.323827 
L 411.776171 234.323827 
L 416.44697 234.323827 
L 421.117769 234.323827 
L 425.788567 234.323827 
L 430.459366 234.323827 
L 435.130165 234.323827 
L 439.800964 234.323827 
L 444.471763 234.323827 
L 449.142562 234.323827 
L 453.813361 234.323827 
L 458.48416 234.363636 
L 463.154959 234.363636 
L 467.825758 234.323827 
L 472.496556 234.323827 
L 477.167355 234.363636 
L 481.838154 234.363636 
L 486.508953 234.363636 
L 491.179752 234.363636 
L 495.850551 234.363636 
L 500.52135 234.363636 
L 505.192149 234.257478 
L 509.862948 234.363636 
L 514.533747 234.257478 
L 519.204545 234.363636 
" style="fill:none;stroke:#348abd;stroke-dasharray:5.55,2.4;stroke-dashoffset:0;stroke-width:1.5;"/>
   </g>
   <g id="line2d_27">
    <path clip-path="url(#pe2bdc8ad5a)" d="M 56.795455 150.655601 
L 61.466253 127.726818 
L 66.137052 118.560337 
L 70.807851 111.999971 
L 75.47865 107.186101 
L 80.149449 104.045344 
L 84.820248 101.328107 
L 89.491047 98.776504 
L 94.161846 95.971209 
L 98.832645 94.159717 
L 103.503444 93.243489 
L 108.174242 90.903646 
L 112.845041 89.241015 
L 117.51584 87.850948 
L 122.186639 86.890689 
L 126.857438 85.529974 
L 131.528237 84.827602 
L 136.199036 83.90718 
L 140.869835 83.299156 
L 145.540634 82.330512 
L 150.211433 81.454119 
L 154.882231 81.106078 
L 159.55303 80.307261 
L 164.223829 79.92777 
L 168.894628 79.541989 
L 173.565427 78.885743 
L 178.236226 78.160308 
L 182.907025 77.950645 
L 187.577824 77.300688 
L 192.248623 77.573251 
L 196.919421 76.631862 
L 201.59022 75.994486 
L 206.261019 76.019645 
L 210.931818 75.732407 
L 215.602617 75.260664 
L 220.273416 75.210345 
L 224.944215 74.891657 
L 229.615014 74.545712 
L 234.285813 74.147352 
L 238.956612 74.124289 
L 243.62741 73.667223 
L 248.298209 74.317179 
L 252.969008 73.497395 
L 257.639807 73.090648 
L 262.310606 73.004686 
L 266.981405 72.79083 
L 271.652204 72.690191 
L 276.323003 72.891468 
L 280.993802 72.537137 
L 285.664601 72.392469 
L 290.335399 71.922824 
L 295.006198 71.908147 
L 299.676997 72.138777 
L 304.347796 71.71945 
L 309.018595 71.356733 
L 313.689394 71.499304 
L 318.360193 71.136586 
L 323.030992 71.1282 
L 327.701791 71.052721 
L 332.37259 71.075784 
L 337.043388 71.182712 
L 341.714187 70.853541 
L 346.384986 70.507596 
L 351.055785 70.717259 
L 355.726584 70.45518 
L 360.397383 70.138589 
L 365.068182 70.247614 
L 369.738981 70.03795 
L 374.40978 69.970858 
L 379.080579 69.951988 
L 383.751377 70.004404 
L 388.422176 70.021177 
L 393.092975 69.704585 
L 397.763774 69.861833 
L 402.434573 69.551531 
L 407.105372 69.364931 
L 411.776171 69.557821 
L 416.44697 69.058822 
L 421.117769 69.580884 
L 425.788567 69.394284 
L 430.459366 69.423637 
L 435.130165 69.457183 
L 439.800964 69.048339 
L 444.471763 68.876415 
L 449.142562 69.014793 
L 453.813361 68.855449 
L 458.48416 69.067209 
L 463.154959 68.76739 
L 467.825758 68.706588 
L 472.496556 68.322904 
L 477.167355 68.828193 
L 481.838154 68.54934 
L 486.508953 68.274682 
L 491.179752 68.329194 
L 495.850551 68.442412 
L 500.52135 68.075501 
L 505.192149 68.310324 
L 509.862948 68.006312 
L 514.533747 68.073405 
L 519.204545 67.870031 
" style="fill:none;stroke:#988ed5;stroke-linecap:square;stroke-width:1.5;"/>
   </g>
   <g id="line2d_28">
    <path clip-path="url(#pe2bdc8ad5a)" d="M 56.795455 151.878363 
L 61.466253 128.098825 
L 66.137052 118.942641 
L 70.807851 113.581629 
L 75.47865 108.77795 
L 80.149449 105.978015 
L 84.820248 102.541129 
L 89.491047 100.471035 
L 94.161846 97.326085 
L 98.832645 95.37542 
L 103.503444 94.473071 
L 108.174242 91.739486 
L 112.845041 89.987868 
L 117.51584 88.422028 
L 122.186639 87.426791 
L 126.857438 86.803109 
L 131.528237 85.91403 
L 136.199036 84.958602 
L 140.869835 84.520698 
L 145.540634 83.233524 
L 150.211433 82.888508 
L 154.882231 82.72927 
L 159.55303 81.309398 
L 164.223829 80.619367 
L 168.894628 80.579558 
L 173.565427 79.916066 
L 178.236226 79.292384 
L 182.907025 78.761591 
L 187.577824 78.310416 
L 192.248623 78.482924 
L 196.919421 77.301909 
L 201.59022 77.155941 
L 206.261019 76.864005 
L 210.931818 76.638418 
L 215.602617 76.213783 
L 220.273416 76.081085 
L 224.944215 75.417593 
L 229.615014 75.364514 
L 234.285813 75.019498 
L 238.956612 75.046038 
L 243.62741 74.807181 
L 248.298209 75.377784 
L 252.969008 74.249848 
L 257.639807 73.971181 
L 262.310606 73.891562 
L 266.981405 74.037531 
L 271.652204 73.679245 
L 276.323003 73.918102 
L 280.993802 73.228071 
L 285.664601 73.705785 
L 290.335399 73.082103 
L 295.006198 73.135182 
L 299.676997 73.042293 
L 304.347796 73.387309 
L 309.018595 72.843246 
L 313.689394 72.684008 
L 318.360193 72.232833 
L 323.030992 72.007246 
L 327.701791 72.272643 
L 332.37259 72.007246 
L 337.043388 72.299183 
L 341.714187 72.166484 
L 346.384986 71.71531 
L 351.055785 71.502993 
L 355.726584 71.383564 
L 360.397383 71.357025 
L 365.068182 71.70204 
L 369.738981 71.410104 
L 374.40978 71.184517 
L 379.080579 71.131437 
L 383.751377 71.396834 
L 388.422176 70.93239 
L 393.092975 70.90585 
L 397.763774 70.998739 
L 402.434573 70.866041 
L 407.105372 70.467946 
L 411.776171 70.521025 
L 416.44697 70.215819 
L 421.117769 70.640454 
L 425.788567 70.547565 
L 430.459366 70.428136 
L 435.130165 70.587374 
L 439.800964 70.467946 
L 444.471763 70.335247 
L 449.142562 70.375057 
L 453.813361 70.056581 
L 458.48416 70.056581 
L 463.154959 70.043311 
L 467.825758 70.189279 
L 472.496556 70.003502 
L 477.167355 70.255629 
L 481.838154 69.976962 
L 486.508953 69.552327 
L 491.179752 69.485978 
L 495.850551 69.499248 
L 500.52135 69.154232 
L 505.192149 69.260391 
L 509.862948 68.915376 
L 514.533747 69.37982 
L 519.204545 69.140963 
" style="fill:none;stroke:#988ed5;stroke-dasharray:5.55,2.4;stroke-dashoffset:0;stroke-width:1.5;"/>
   </g>
   <g id="line2d_29">
    <path clip-path="url(#pe2bdc8ad5a)" d="M 56.795455 119.057239 
L 61.466253 105.884091 
L 66.137052 97.709318 
L 70.807851 92.987699 
L 75.47865 88.500904 
L 80.149449 85.142097 
L 84.820248 82.67436 
L 89.491047 80.642722 
L 94.161846 78.481093 
L 98.832645 76.912811 
L 103.503444 75.371786 
L 108.174242 74.579258 
L 112.845041 73.237413 
L 117.51584 72.644066 
L 122.186639 71.604135 
L 126.857438 71.033851 
L 131.528237 69.842963 
L 136.199036 69.979244 
L 140.869835 69.19091 
L 145.540634 68.738037 
L 150.211433 67.947607 
L 154.882231 67.756813 
L 159.55303 67.377322 
L 164.223829 66.626728 
L 168.894628 66.666564 
L 173.565427 66.018704 
L 178.236226 65.781784 
L 182.907025 65.735658 
L 187.577824 65.551155 
L 192.248623 65.110862 
L 196.919421 64.926358 
L 201.59022 64.169473 
L 206.261019 64.066738 
L 210.931818 64.098188 
L 215.602617 63.737567 
L 220.273416 63.714504 
L 224.944215 63.557256 
L 229.615014 63.322433 
L 234.285813 63.035195 
L 238.956612 62.995359 
L 243.62741 62.838111 
L 248.298209 62.613771 
L 252.969008 62.550872 
L 257.639807 62.381045 
L 262.310606 62.142029 
L 266.981405 62.056067 
L 271.652204 62.020424 
L 276.323003 61.733185 
L 280.993802 61.903013 
L 285.664601 61.657706 
L 290.335399 61.305472 
L 295.006198 61.552875 
L 299.676997 61.290796 
L 304.347796 61.091615 
L 309.018595 60.972107 
L 313.689394 61.139838 
L 318.360193 60.82115 
L 323.030992 61.02033 
L 327.701791 60.649226 
L 332.37259 60.481495 
L 337.043388 60.433273 
L 341.714187 60.395533 
L 346.384986 60.177483 
L 351.055785 59.896534 
L 355.726584 60.424886 
L 360.397383 59.925887 
L 365.068182 60.456336 
L 369.738981 60.049589 
L 374.40978 60.083135 
L 379.080579 59.917501 
L 383.751377 59.649132 
L 388.422176 59.603006 
L 393.092975 59.732997 
L 397.763774 59.439468 
L 402.434573 59.477208 
L 407.105372 59.605102 
L 411.776171 59.53801 
L 416.44697 59.296897 
L 421.117769 59.412212 
L 425.788567 59.242385 
L 430.459366 59.242385 
L 435.130165 59.164809 
L 439.800964 58.997079 
L 444.471763 58.829348 
L 449.142562 58.862894 
L 453.813361 58.888054 
L 458.48416 58.665811 
L 463.154959 58.646941 
L 467.825758 58.651134 
L 472.496556 58.665811 
L 477.167355 59.083041 
L 481.838154 58.735 
L 486.508953 58.51695 
L 491.179752 58.242291 
L 495.850551 58.460341 
L 500.52135 58.158425 
L 505.192149 58.263257 
L 509.862948 58.307286 
L 514.533747 58.124879 
L 519.204545 58.29261 
" style="fill:none;stroke:#777777;stroke-linecap:square;stroke-width:1.5;"/>
   </g>
   <g id="line2d_30">
    <path clip-path="url(#pe2bdc8ad5a)" d="M 56.795455 119.473434 
L 61.466253 106.641507 
L 66.137052 98.49383 
L 70.807851 93.185898 
L 75.47865 89.496884 
L 80.149449 85.980379 
L 84.820248 83.326413 
L 89.491047 81.1767 
L 94.161846 78.907559 
L 98.832645 77.819433 
L 103.503444 76.266862 
L 108.174242 74.820451 
L 112.845041 73.586356 
L 117.51584 73.387309 
L 122.186639 72.52477 
L 126.857438 72.033786 
L 131.528237 70.600644 
L 136.199036 70.93239 
L 140.869835 70.069851 
L 145.540634 69.857534 
L 150.211433 68.769407 
L 154.882231 68.782677 
L 159.55303 68.610169 
L 164.223829 68.238614 
L 168.894628 67.362805 
L 173.565427 67.031059 
L 178.236226 66.778933 
L 182.907025 67.203567 
L 187.577824 66.938171 
L 192.248623 66.566615 
L 196.919421 66.593155 
L 201.59022 65.730616 
L 206.261019 65.465219 
L 210.931818 65.42541 
L 215.602617 64.907886 
L 220.273416 65.160013 
L 224.944215 65.266172 
L 229.615014 64.60268 
L 234.285813 64.483252 
L 238.956612 64.735379 
L 243.62741 64.337284 
L 248.298209 64.576141 
L 252.969008 64.284204 
L 257.639807 63.85957 
L 262.310606 63.673792 
L 266.981405 63.886109 
L 271.652204 63.567633 
L 276.323003 63.249157 
L 280.993802 63.687062 
L 285.664601 63.209348 
L 290.335399 62.904142 
L 295.006198 63.434935 
L 299.676997 63.103189 
L 304.347796 62.678555 
L 309.018595 62.837793 
L 313.689394 63.05011 
L 318.360193 62.744904 
L 323.030992 62.877602 
L 327.701791 62.678555 
L 332.37259 62.784713 
L 337.043388 62.320269 
L 341.714187 62.452968 
L 346.384986 62.24065 
L 351.055785 61.948714 
L 355.726584 62.545856 
L 360.397383 62.572396 
L 365.068182 62.625475 
L 369.738981 61.789476 
L 374.40978 62.054873 
L 379.080579 61.829285 
L 383.751377 61.643508 
L 388.422176 61.816016 
L 393.092975 61.988523 
L 397.763774 61.537349 
L 402.434573 61.988523 
L 407.105372 61.789476 
L 411.776171 62.147761 
L 416.44697 61.49754 
L 421.117769 61.48427 
L 425.788567 61.550619 
L 430.459366 61.364841 
L 435.130165 61.245413 
L 439.800964 61.417921 
L 444.471763 61.48427 
L 449.142562 61.43119 
L 453.813361 61.165794 
L 458.48416 61.245413 
L 463.154959 61.112715 
L 467.825758 61.245413 
L 472.496556 61.192333 
L 477.167355 61.417921 
L 481.838154 60.993286 
L 486.508953 60.913667 
L 491.179752 60.70135 
L 495.850551 60.953477 
L 500.52135 60.555382 
L 505.192149 60.555382 
L 509.862948 60.940207 
L 514.533747 60.847318 
L 519.204545 60.953477 
" style="fill:none;stroke:#777777;stroke-dasharray:5.55,2.4;stroke-dashoffset:0;stroke-width:1.5;"/>
   </g>
   <g id="line2d_31">
    <path clip-path="url(#pe2bdc8ad5a)" d="M 56.795455 156.725355 
L 61.466253 135.438236 
L 66.137052 129.932476 
L 70.807851 125.590349 
L 75.47865 122.971654 
L 80.149449 120.866634 
L 84.820248 119.895892 
L 89.491047 117.818129 
L 94.161846 116.545472 
L 98.832645 115.885033 
L 103.503444 114.660599 
L 108.174242 113.838719 
L 112.845041 112.578642 
L 117.51584 112.737986 
L 122.186639 111.972715 
L 126.857438 111.45275 
L 131.528237 109.794313 
L 136.199036 109.561586 
L 140.869835 108.532139 
L 145.540634 108.04572 
L 150.211433 107.167231 
L 154.882231 106.615816 
L 159.55303 106.315998 
L 164.223829 105.370416 
L 168.894628 105.439605 
L 173.565427 104.709977 
L 178.236226 103.705689 
L 182.907025 102.976061 
L 187.577824 103.093472 
L 192.248623 102.938321 
L 196.919421 102.156277 
L 201.59022 101.827106 
L 206.261019 101.674052 
L 210.931818 100.896201 
L 215.602617 101.112154 
L 220.273416 100.294467 
L 224.944215 99.770308 
L 229.615014 99.334209 
L 234.285813 99.418074 
L 238.956612 98.910689 
L 243.62741 98.39282 
L 248.298209 98.568937 
L 252.969008 98.487169 
L 257.639807 97.979783 
L 262.310606 97.388533 
L 266.981405 97.703028 
L 271.652204 97.455625 
L 276.323003 97.13484 
L 280.993802 97.373856 
L 285.664601 96.765833 
L 290.335399 96.679871 
L 295.006198 96.170389 
L 299.676997 96.581329 
L 304.347796 95.822348 
L 309.018595 95.386248 
L 313.689394 95.327542 
L 318.360193 95.398828 
L 323.030992 94.983694 
L 327.701791 94.973211 
L 332.37259 94.763548 
L 337.043388 94.688069 
L 341.714187 94.117785 
L 346.384986 94.22052 
L 351.055785 94.031823 
L 355.726584 93.732004 
L 360.397383 93.539114 
L 365.068182 93.302194 
L 369.738981 93.375577 
L 374.40978 93.99618 
L 379.080579 93.34832 
L 383.751377 93.094628 
L 388.422176 92.771746 
L 393.092975 93.077855 
L 397.763774 92.765456 
L 402.434573 92.828355 
L 407.105372 92.318873 
L 411.776171 92.276941 
L 416.44697 92.610305 
L 421.117769 92.142756 
L 425.788567 92.048408 
L 430.459366 91.899547 
L 435.130165 92.178399 
L 439.800964 91.635371 
L 444.471763 91.408934 
L 449.142562 91.276847 
L 453.813361 91.706656 
L 458.48416 91.245397 
L 463.154959 91.134275 
L 467.825758 91.348132 
L 472.496556 91.067183 
L 477.167355 90.920419 
L 481.838154 90.939289 
L 486.508953 91.144759 
L 491.179752 91.05041 
L 495.850551 90.662533 
L 500.52135 90.670919 
L 505.192149 90.545121 
L 509.862948 90.291429 
L 514.533747 90.968641 
L 519.204545 90.63947 
" style="fill:none;stroke:#fbc15e;stroke-linecap:square;stroke-width:1.5;"/>
   </g>
   <g id="line2d_32">
    <path clip-path="url(#pe2bdc8ad5a)" d="M 56.795455 157.385343 
L 61.466253 135.981105 
L 66.137052 131.177426 
L 70.807851 126.599334 
L 75.47865 124.237304 
L 80.149449 121.609877 
L 84.820248 120.800417 
L 89.491047 118.96918 
L 94.161846 117.39007 
L 98.832645 116.832738 
L 103.503444 115.651723 
L 108.174242 114.935152 
L 112.845041 113.860295 
L 117.51584 113.966454 
L 122.186639 113.170264 
L 126.857438 112.347534 
L 131.528237 111.0869 
L 136.199036 111.073631 
L 140.869835 109.53433 
L 145.540634 109.282203 
L 150.211433 107.756173 
L 154.882231 107.663284 
L 159.55303 107.013062 
L 164.223829 106.614967 
L 168.894628 106.177063 
L 173.565427 105.354333 
L 178.236226 104.757191 
L 182.907025 103.907922 
L 187.577824 103.669065 
L 192.248623 103.961001 
L 196.919421 102.726907 
L 201.59022 102.089955 
L 206.261019 102.43497 
L 210.931818 101.851098 
L 215.602617 101.771479 
L 220.273416 100.749702 
L 224.944215 100.457765 
L 229.615014 100.019861 
L 234.285813 100.019861 
L 238.956612 99.847353 
L 243.62741 99.449258 
L 248.298209 99.608496 
L 252.969008 98.785767 
L 257.639807 98.626529 
L 262.310606 98.308053 
L 266.981405 98.281513 
L 271.652204 98.254973 
L 276.323003 98.308053 
L 280.993802 97.949767 
L 285.664601 97.830339 
L 290.335399 97.525133 
L 295.006198 96.782022 
L 299.676997 97.100498 
L 304.347796 96.662593 
L 309.018595 95.946023 
L 313.689394 96.065451 
L 318.360193 95.640816 
L 323.030992 95.561197 
L 327.701791 95.733705 
L 332.37259 95.640816 
L 337.043388 95.574467 
L 341.714187 94.831357 
L 346.384986 94.818087 
L 351.055785 94.56596 
L 355.726584 94.419992 
L 360.397383 94.340373 
L 365.068182 93.889199 
L 369.738981 94.207675 
L 374.40978 94.459801 
L 379.080579 93.610532 
L 383.751377 93.836119 
L 388.422176 93.331866 
L 393.092975 93.743231 
L 397.763774 93.132818 
L 402.434573 92.867422 
L 407.105372 93.119548 
L 411.776171 93.053199 
L 416.44697 93.557453 
L 421.117769 93.01339 
L 425.788567 92.641834 
L 430.459366 92.628565 
L 435.130165 92.761263 
L 439.800964 92.442787 
L 444.471763 92.429517 
L 449.142562 92.2172 
L 453.813361 92.389708 
L 458.48416 92.057962 
L 463.154959 91.633327 
L 467.825758 91.712946 
L 472.496556 91.805835 
L 477.167355 91.540438 
L 481.838154 91.766026 
L 486.508953 91.606788 
L 491.179752 91.965073 
L 495.850551 91.39447 
L 500.52135 91.221962 
L 505.192149 91.248502 
L 509.862948 91.115804 
L 514.533747 91.500629 
L 519.204545 91.686407 
" style="fill:none;stroke:#fbc15e;stroke-dasharray:5.55,2.4;stroke-dashoffset:0;stroke-width:1.5;"/>
   </g>
   <g id="line2d_33">
    <path clip-path="url(#pe2bdc8ad5a)" d="M 56.795455 120.45779 
L 61.466253 105.808613 
L 66.137052 98.944235 
L 70.807851 92.775939 
L 75.47865 88.861525 
L 80.149449 85.311924 
L 84.820248 82.68065 
L 89.491047 79.931963 
L 94.161846 78.43287 
L 98.832645 76.384459 
L 103.503444 74.927299 
L 108.174242 74.113806 
L 112.845041 72.843246 
L 117.51584 71.767673 
L 122.186639 71.092557 
L 126.857438 70.404861 
L 131.528237 69.622817 
L 136.199036 69.111238 
L 140.869835 68.534664 
L 145.540634 68.15098 
L 150.211433 67.287167 
L 154.882231 67.039764 
L 159.55303 66.50722 
L 164.223829 66.213691 
L 168.894628 65.811137 
L 173.565427 65.362458 
L 178.236226 65.161181 
L 182.907025 64.752337 
L 187.577824 64.706211 
L 192.248623 64.19673 
L 196.919421 63.989163 
L 201.59022 63.907394 
L 206.261019 63.431458 
L 210.931818 63.628542 
L 215.602617 63.221795 
L 220.273416 62.768922 
L 224.944215 62.754246 
L 229.615014 62.880044 
L 234.285813 62.603288 
L 238.956612 62.274117 
L 243.62741 61.963815 
L 248.298209 62.383142 
L 252.969008 61.955428 
L 257.639807 61.775118 
L 262.310606 61.619967 
L 266.981405 61.701736 
L 271.652204 61.177577 
L 276.323003 61.156611 
L 280.993802 61.03291 
L 285.664601 60.934368 
L 290.335399 60.921788 
L 295.006198 60.863082 
L 299.676997 60.647129 
L 304.347796 60.540201 
L 309.018595 60.332634 
L 313.689394 60.39763 
L 318.360193 60.208933 
L 323.030992 60.022332 
L 327.701791 60.007656 
L 332.37259 59.848312 
L 337.043388 59.879761 
L 341.714187 59.728804 
L 346.384986 59.827346 
L 351.055785 59.565266 
L 355.726584 59.510754 
L 360.397383 59.460435 
L 365.068182 59.408019 
L 369.738981 59.368183 
L 374.40978 59.330443 
L 379.080579 59.336733 
L 383.751377 59.183679 
L 388.422176 59.160616 
L 393.092975 58.919503 
L 397.763774 58.957243 
L 402.434573 58.898537 
L 407.105372 58.913213 
L 411.776171 58.94676 
L 416.44697 58.70984 
L 421.117769 58.791609 
L 425.788567 58.4855 
L 430.459366 58.994982 
L 435.130165 58.546303 
L 439.800964 58.330349 
L 444.471763 58.810478 
L 449.142562 58.489693 
L 453.813361 58.122783 
L 458.48416 58.422601 
L 463.154959 58.210841 
L 467.825758 58.361799 
L 472.496556 57.992791 
L 477.167355 58.196165 
L 481.838154 58.116493 
L 486.508953 57.996985 
L 491.179752 57.915216 
L 495.850551 58.120686 
L 500.52135 57.976018 
L 505.192149 57.984405 
L 509.862948 57.921506 
L 514.533747 57.89425 
L 519.204545 57.636364 
" style="fill:none;stroke:#8eba42;stroke-linecap:square;stroke-width:1.5;"/>
   </g>
   <g id="line2d_34">
    <path clip-path="url(#pe2bdc8ad5a)" d="M 56.795455 121.132163 
L 61.466253 106.309761 
L 66.137052 99.741194 
L 70.807851 93.278786 
L 75.47865 89.324377 
L 80.149449 86.497902 
L 84.820248 83.286603 
L 89.491047 80.858224 
L 94.161846 79.172955 
L 98.832645 77.461147 
L 103.503444 75.961656 
L 108.174242 75.483942 
L 112.845041 74.0508 
L 117.51584 72.843246 
L 122.186639 72.179754 
L 126.857438 71.542802 
L 131.528237 70.773152 
L 136.199036 70.10966 
L 140.869835 69.485978 
L 145.540634 69.154232 
L 150.211433 68.424392 
L 154.882231 68.53055 
L 159.55303 68.185535 
L 164.223829 67.933408 
L 168.894628 67.230107 
L 173.565427 67.057599 
L 178.236226 66.540076 
L 182.907025 65.903124 
L 187.577824 66.473726 
L 192.248623 65.823505 
L 196.919421 66.022552 
L 201.59022 65.704076 
L 206.261019 65.345791 
L 210.931818 65.743886 
L 215.602617 64.934426 
L 220.273416 64.469982 
L 224.944215 64.881347 
L 229.615014 64.854807 
L 234.285813 65.093664 
L 238.956612 64.509791 
L 243.62741 64.363823 
L 248.298209 64.456712 
L 252.969008 64.337284 
L 257.639807 64.390363 
L 262.310606 63.978998 
L 266.981405 64.005538 
L 271.652204 63.607443 
L 276.323003 63.342046 
L 280.993802 63.488014 
L 285.664601 63.116459 
L 290.335399 63.156269 
L 295.006198 63.315507 
L 299.676997 62.983761 
L 304.347796 63.129729 
L 309.018595 63.129729 
L 313.689394 63.116459 
L 318.360193 62.957221 
L 323.030992 62.665285 
L 327.701791 62.612205 
L 332.37259 62.771443 
L 337.043388 62.625475 
L 341.714187 62.360079 
L 346.384986 62.705094 
L 351.055785 62.28046 
L 355.726584 62.28046 
L 360.397383 61.895635 
L 365.068182 62.24065 
L 369.738981 62.214111 
L 374.40978 61.961984 
L 379.080579 62.134492 
L 383.751377 62.107952 
L 388.422176 61.895635 
L 393.092975 62.121222 
L 397.763774 61.749666 
L 402.434573 61.776206 
L 407.105372 62.147761 
L 411.776171 61.855825 
L 416.44697 61.563889 
L 421.117769 61.802746 
L 425.788567 61.285222 
L 430.459366 61.855825 
L 435.130165 61.630238 
L 439.800964 61.590428 
L 444.471763 61.736397 
L 449.142562 61.471 
L 453.813361 61.232143 
L 458.48416 61.44446 
L 463.154959 61.033096 
L 467.825758 61.112715 
L 472.496556 61.152524 
L 477.167355 61.179064 
L 481.838154 61.404651 
L 486.508953 60.926937 
L 491.179752 61.311762 
L 495.850551 61.139254 
L 500.52135 61.059635 
L 505.192149 61.43119 
L 509.862948 61.046365 
L 514.533747 61.152524 
L 519.204545 60.780969 
" style="fill:none;stroke:#8eba42;stroke-dasharray:5.55,2.4;stroke-dashoffset:0;stroke-width:1.5;"/>
   </g>
   <g id="patch_3">
    <path d="M 33.675 243.2 
L 33.675 48.8 
" style="fill:none;stroke:#ffffff;stroke-linecap:square;stroke-linejoin:miter;"/>
   </g>
   <g id="patch_4">
    <path d="M 542.325 243.2 
L 542.325 48.8 
" style="fill:none;stroke:#ffffff;stroke-linecap:square;stroke-linejoin:miter;"/>
   </g>
   <g id="patch_5">
    <path d="M 33.675 243.2 
L 542.325 243.2 
" style="fill:none;stroke:#ffffff;stroke-linecap:square;stroke-linejoin:miter;"/>
   </g>
   <g id="patch_6">
    <path d="M 33.675 48.8 
L 542.325 48.8 
" style="fill:none;stroke:#ffffff;stroke-linecap:square;stroke-linejoin:miter;"/>
   </g>
   <g id="legend_1">
    <g id="patch_7">
     <path d="M 435.66875 191.534375 
L 535.325 191.534375 
Q 537.325 191.534375 537.325 189.534375 
L 537.325 102.465625 
Q 537.325 100.465625 535.325 100.465625 
L 435.66875 100.465625 
Q 433.66875 100.465625 433.66875 102.465625 
L 433.66875 189.534375 
Q 433.66875 191.534375 435.66875 191.534375 
z
" style="fill:#e5e5e5;opacity:0.8;stroke:#cccccc;stroke-linejoin:miter;stroke-width:0.5;"/>
    </g>
    <g id="line2d_35">
     <path d="M 437.66875 108.564062 
L 457.66875 108.564062 
" style="fill:none;stroke:#e24a33;stroke-linecap:square;stroke-width:1.5;"/>
    </g>
    <g id="line2d_36"/>
    <g id="text_13">
     <!-- 0.7 &amp; L1 1e-4 -->
     <g transform="translate(465.66875 112.064062)scale(0.1 -0.1)">
      <defs>
       <path d="M 525 4666 
L 3525 4666 
L 3525 4397 
L 1831 0 
L 1172 0 
L 2766 4134 
L 525 4134 
L 525 4666 
z
" id="DejaVuSans-37" transform="scale(0.015625)"/>
       <path d="M 1556 2509 
Q 1272 2256 1139 2004 
Q 1006 1753 1006 1478 
Q 1006 1022 1337 719 
Q 1669 416 2169 416 
Q 2466 416 2725 514 
Q 2984 613 3213 813 
L 1556 2509 
z
M 1997 2859 
L 3584 1234 
Q 3769 1513 3872 1830 
Q 3975 2147 3994 2503 
L 4575 2503 
Q 4538 2091 4375 1687 
Q 4213 1284 3922 891 
L 4794 0 
L 4006 0 
L 3559 459 
Q 3234 181 2878 45 
Q 2522 -91 2113 -91 
Q 1359 -91 881 339 
Q 403 769 403 1441 
Q 403 1841 612 2192 
Q 822 2544 1241 2853 
Q 1091 3050 1012 3245 
Q 934 3441 934 3628 
Q 934 4134 1281 4442 
Q 1628 4750 2203 4750 
Q 2463 4750 2720 4694 
Q 2978 4638 3244 4525 
L 3244 3956 
Q 2972 4103 2725 4179 
Q 2478 4256 2266 4256 
Q 1938 4256 1733 4082 
Q 1528 3909 1528 3634 
Q 1528 3475 1620 3314 
Q 1713 3153 1997 2859 
z
" id="DejaVuSans-26" transform="scale(0.015625)"/>
       <path d="M 628 4666 
L 1259 4666 
L 1259 531 
L 3531 531 
L 3531 0 
L 628 0 
L 628 4666 
z
" id="DejaVuSans-4c" transform="scale(0.015625)"/>
       <path d="M 313 2009 
L 1997 2009 
L 1997 1497 
L 313 1497 
L 313 2009 
z
" id="DejaVuSans-2d" transform="scale(0.015625)"/>
      </defs>
      <use xlink:href="#DejaVuSans-30"/>
      <use x="63.623047" xlink:href="#DejaVuSans-2e"/>
      <use x="95.410156" xlink:href="#DejaVuSans-37"/>
      <use x="159.033203" xlink:href="#DejaVuSans-20"/>
      <use x="190.820312" xlink:href="#DejaVuSans-26"/>
      <use x="268.798828" xlink:href="#DejaVuSans-20"/>
      <use x="300.585938" xlink:href="#DejaVuSans-4c"/>
      <use x="356.298828" xlink:href="#DejaVuSans-31"/>
      <use x="419.921875" xlink:href="#DejaVuSans-20"/>
      <use x="451.708984" xlink:href="#DejaVuSans-31"/>
      <use x="515.332031" xlink:href="#DejaVuSans-65"/>
      <use x="576.855469" xlink:href="#DejaVuSans-2d"/>
      <use x="612.939453" xlink:href="#DejaVuSans-34"/>
     </g>
    </g>
    <g id="line2d_37">
     <path d="M 437.66875 123.242187 
L 457.66875 123.242187 
" style="fill:none;stroke:#348abd;stroke-linecap:square;stroke-width:1.5;"/>
    </g>
    <g id="line2d_38"/>
    <g id="text_14">
     <!-- 0.7 &amp; L1 1e-3 -->
     <g transform="translate(465.66875 126.742187)scale(0.1 -0.1)">
      <defs>
       <path d="M 2597 2516 
Q 3050 2419 3304 2112 
Q 3559 1806 3559 1356 
Q 3559 666 3084 287 
Q 2609 -91 1734 -91 
Q 1441 -91 1130 -33 
Q 819 25 488 141 
L 488 750 
Q 750 597 1062 519 
Q 1375 441 1716 441 
Q 2309 441 2620 675 
Q 2931 909 2931 1356 
Q 2931 1769 2642 2001 
Q 2353 2234 1838 2234 
L 1294 2234 
L 1294 2753 
L 1863 2753 
Q 2328 2753 2575 2939 
Q 2822 3125 2822 3475 
Q 2822 3834 2567 4026 
Q 2313 4219 1838 4219 
Q 1578 4219 1281 4162 
Q 984 4106 628 3988 
L 628 4550 
Q 988 4650 1302 4700 
Q 1616 4750 1894 4750 
Q 2613 4750 3031 4423 
Q 3450 4097 3450 3541 
Q 3450 3153 3228 2886 
Q 3006 2619 2597 2516 
z
" id="DejaVuSans-33" transform="scale(0.015625)"/>
      </defs>
      <use xlink:href="#DejaVuSans-30"/>
      <use x="63.623047" xlink:href="#DejaVuSans-2e"/>
      <use x="95.410156" xlink:href="#DejaVuSans-37"/>
      <use x="159.033203" xlink:href="#DejaVuSans-20"/>
      <use x="190.820312" xlink:href="#DejaVuSans-26"/>
      <use x="268.798828" xlink:href="#DejaVuSans-20"/>
      <use x="300.585938" xlink:href="#DejaVuSans-4c"/>
      <use x="356.298828" xlink:href="#DejaVuSans-31"/>
      <use x="419.921875" xlink:href="#DejaVuSans-20"/>
      <use x="451.708984" xlink:href="#DejaVuSans-31"/>
      <use x="515.332031" xlink:href="#DejaVuSans-65"/>
      <use x="576.855469" xlink:href="#DejaVuSans-2d"/>
      <use x="612.939453" xlink:href="#DejaVuSans-33"/>
     </g>
    </g>
    <g id="line2d_39">
     <path d="M 437.66875 137.920312 
L 457.66875 137.920312 
" style="fill:none;stroke:#988ed5;stroke-linecap:square;stroke-width:1.5;"/>
    </g>
    <g id="line2d_40"/>
    <g id="text_15">
     <!-- 0.7 &amp; L2 1e-3 -->
     <g transform="translate(465.66875 141.420312)scale(0.1 -0.1)">
      <use xlink:href="#DejaVuSans-30"/>
      <use x="63.623047" xlink:href="#DejaVuSans-2e"/>
      <use x="95.410156" xlink:href="#DejaVuSans-37"/>
      <use x="159.033203" xlink:href="#DejaVuSans-20"/>
      <use x="190.820312" xlink:href="#DejaVuSans-26"/>
      <use x="268.798828" xlink:href="#DejaVuSans-20"/>
      <use x="300.585938" xlink:href="#DejaVuSans-4c"/>
      <use x="356.298828" xlink:href="#DejaVuSans-32"/>
      <use x="419.921875" xlink:href="#DejaVuSans-20"/>
      <use x="451.708984" xlink:href="#DejaVuSans-31"/>
      <use x="515.332031" xlink:href="#DejaVuSans-65"/>
      <use x="576.855469" xlink:href="#DejaVuSans-2d"/>
      <use x="612.939453" xlink:href="#DejaVuSans-33"/>
     </g>
    </g>
    <g id="line2d_41">
     <path d="M 437.66875 152.598437 
L 457.66875 152.598437 
" style="fill:none;stroke:#777777;stroke-linecap:square;stroke-width:1.5;"/>
    </g>
    <g id="line2d_42"/>
    <g id="text_16">
     <!-- 0.9 &amp; L1 1e-4 -->
     <g transform="translate(465.66875 156.098437)scale(0.1 -0.1)">
      <defs>
       <path d="M 703 97 
L 703 672 
Q 941 559 1184 500 
Q 1428 441 1663 441 
Q 2288 441 2617 861 
Q 2947 1281 2994 2138 
Q 2813 1869 2534 1725 
Q 2256 1581 1919 1581 
Q 1219 1581 811 2004 
Q 403 2428 403 3163 
Q 403 3881 828 4315 
Q 1253 4750 1959 4750 
Q 2769 4750 3195 4129 
Q 3622 3509 3622 2328 
Q 3622 1225 3098 567 
Q 2575 -91 1691 -91 
Q 1453 -91 1209 -44 
Q 966 3 703 97 
z
M 1959 2075 
Q 2384 2075 2632 2365 
Q 2881 2656 2881 3163 
Q 2881 3666 2632 3958 
Q 2384 4250 1959 4250 
Q 1534 4250 1286 3958 
Q 1038 3666 1038 3163 
Q 1038 2656 1286 2365 
Q 1534 2075 1959 2075 
z
" id="DejaVuSans-39" transform="scale(0.015625)"/>
      </defs>
      <use xlink:href="#DejaVuSans-30"/>
      <use x="63.623047" xlink:href="#DejaVuSans-2e"/>
      <use x="95.410156" xlink:href="#DejaVuSans-39"/>
      <use x="159.033203" xlink:href="#DejaVuSans-20"/>
      <use x="190.820312" xlink:href="#DejaVuSans-26"/>
      <use x="268.798828" xlink:href="#DejaVuSans-20"/>
      <use x="300.585938" xlink:href="#DejaVuSans-4c"/>
      <use x="356.298828" xlink:href="#DejaVuSans-31"/>
      <use x="419.921875" xlink:href="#DejaVuSans-20"/>
      <use x="451.708984" xlink:href="#DejaVuSans-31"/>
      <use x="515.332031" xlink:href="#DejaVuSans-65"/>
      <use x="576.855469" xlink:href="#DejaVuSans-2d"/>
      <use x="612.939453" xlink:href="#DejaVuSans-34"/>
     </g>
    </g>
    <g id="line2d_43">
     <path d="M 437.66875 167.276562 
L 457.66875 167.276562 
" style="fill:none;stroke:#fbc15e;stroke-linecap:square;stroke-width:1.5;"/>
    </g>
    <g id="line2d_44"/>
    <g id="text_17">
     <!-- 0.9 &amp; L1 1e-3 -->
     <g transform="translate(465.66875 170.776562)scale(0.1 -0.1)">
      <use xlink:href="#DejaVuSans-30"/>
      <use x="63.623047" xlink:href="#DejaVuSans-2e"/>
      <use x="95.410156" xlink:href="#DejaVuSans-39"/>
      <use x="159.033203" xlink:href="#DejaVuSans-20"/>
      <use x="190.820312" xlink:href="#DejaVuSans-26"/>
      <use x="268.798828" xlink:href="#DejaVuSans-20"/>
      <use x="300.585938" xlink:href="#DejaVuSans-4c"/>
      <use x="356.298828" xlink:href="#DejaVuSans-31"/>
      <use x="419.921875" xlink:href="#DejaVuSans-20"/>
      <use x="451.708984" xlink:href="#DejaVuSans-31"/>
      <use x="515.332031" xlink:href="#DejaVuSans-65"/>
      <use x="576.855469" xlink:href="#DejaVuSans-2d"/>
      <use x="612.939453" xlink:href="#DejaVuSans-33"/>
     </g>
    </g>
    <g id="line2d_45">
     <path d="M 437.66875 181.954687 
L 457.66875 181.954687 
" style="fill:none;stroke:#8eba42;stroke-linecap:square;stroke-width:1.5;"/>
    </g>
    <g id="line2d_46"/>
    <g id="text_18">
     <!-- 0.9 &amp; L2 1e-3 -->
     <g transform="translate(465.66875 185.454687)scale(0.1 -0.1)">
      <use xlink:href="#DejaVuSans-30"/>
      <use x="63.623047" xlink:href="#DejaVuSans-2e"/>
      <use x="95.410156" xlink:href="#DejaVuSans-39"/>
      <use x="159.033203" xlink:href="#DejaVuSans-20"/>
      <use x="190.820312" xlink:href="#DejaVuSans-26"/>
      <use x="268.798828" xlink:href="#DejaVuSans-20"/>
      <use x="300.585938" xlink:href="#DejaVuSans-4c"/>
      <use x="356.298828" xlink:href="#DejaVuSans-32"/>
      <use x="419.921875" xlink:href="#DejaVuSans-20"/>
      <use x="451.708984" xlink:href="#DejaVuSans-31"/>
      <use x="515.332031" xlink:href="#DejaVuSans-65"/>
      <use x="576.855469" xlink:href="#DejaVuSans-2d"/>
      <use x="612.939453" xlink:href="#DejaVuSans-33"/>
     </g>
    </g>
   </g>
  </g>
  <g id="axes_2">
   <g id="matplotlib.axis_3">
    <g id="ytick_6">
     <g id="line2d_47">
      <path clip-path="url(#pe2bdc8ad5a)" d="M 33.675 243.2 
L 542.325 243.2 
" style="fill:none;stroke:#ffffff;stroke-linecap:square;stroke-width:0.8;"/>
     </g>
     <g id="line2d_48">
      <defs>
       <path d="M 0 0 
L 3.5 0 
" id="mf4aac0022f" style="stroke:#555555;stroke-width:0.8;"/>
      </defs>
      <g>
       <use style="fill:#555555;stroke:#555555;stroke-width:0.8;" x="542.325" xlink:href="#mf4aac0022f" y="243.2"/>
      </g>
     </g>
     <g id="text_19">
      <!-- 0.0 -->
      <g style="fill:#555555;" transform="translate(549.325 246.999219)scale(0.1 -0.1)">
       <use xlink:href="#DejaVuSans-30"/>
       <use x="63.623047" xlink:href="#DejaVuSans-2e"/>
       <use x="95.410156" xlink:href="#DejaVuSans-30"/>
      </g>
     </g>
    </g>
    <g id="ytick_7">
     <g id="line2d_49">
      <path clip-path="url(#pe2bdc8ad5a)" d="M 33.675 204.32 
L 542.325 204.32 
" style="fill:none;stroke:#ffffff;stroke-linecap:square;stroke-width:0.8;"/>
     </g>
     <g id="line2d_50">
      <g>
       <use style="fill:#555555;stroke:#555555;stroke-width:0.8;" x="542.325" xlink:href="#mf4aac0022f" y="204.32"/>
      </g>
     </g>
     <g id="text_20">
      <!-- 0.2 -->
      <g style="fill:#555555;" transform="translate(549.325 208.119219)scale(0.1 -0.1)">
       <use xlink:href="#DejaVuSans-30"/>
       <use x="63.623047" xlink:href="#DejaVuSans-2e"/>
       <use x="95.410156" xlink:href="#DejaVuSans-32"/>
      </g>
     </g>
    </g>
    <g id="ytick_8">
     <g id="line2d_51">
      <path clip-path="url(#pe2bdc8ad5a)" d="M 33.675 165.44 
L 542.325 165.44 
" style="fill:none;stroke:#ffffff;stroke-linecap:square;stroke-width:0.8;"/>
     </g>
     <g id="line2d_52">
      <g>
       <use style="fill:#555555;stroke:#555555;stroke-width:0.8;" x="542.325" xlink:href="#mf4aac0022f" y="165.44"/>
      </g>
     </g>
     <g id="text_21">
      <!-- 0.4 -->
      <g style="fill:#555555;" transform="translate(549.325 169.239219)scale(0.1 -0.1)">
       <use xlink:href="#DejaVuSans-30"/>
       <use x="63.623047" xlink:href="#DejaVuSans-2e"/>
       <use x="95.410156" xlink:href="#DejaVuSans-34"/>
      </g>
     </g>
    </g>
    <g id="ytick_9">
     <g id="line2d_53">
      <path clip-path="url(#pe2bdc8ad5a)" d="M 33.675 126.56 
L 542.325 126.56 
" style="fill:none;stroke:#ffffff;stroke-linecap:square;stroke-width:0.8;"/>
     </g>
     <g id="line2d_54">
      <g>
       <use style="fill:#555555;stroke:#555555;stroke-width:0.8;" x="542.325" xlink:href="#mf4aac0022f" y="126.56"/>
      </g>
     </g>
     <g id="text_22">
      <!-- 0.6 -->
      <g style="fill:#555555;" transform="translate(549.325 130.359219)scale(0.1 -0.1)">
       <use xlink:href="#DejaVuSans-30"/>
       <use x="63.623047" xlink:href="#DejaVuSans-2e"/>
       <use x="95.410156" xlink:href="#DejaVuSans-36"/>
      </g>
     </g>
    </g>
    <g id="ytick_10">
     <g id="line2d_55">
      <path clip-path="url(#pe2bdc8ad5a)" d="M 33.675 87.68 
L 542.325 87.68 
" style="fill:none;stroke:#ffffff;stroke-linecap:square;stroke-width:0.8;"/>
     </g>
     <g id="line2d_56">
      <g>
       <use style="fill:#555555;stroke:#555555;stroke-width:0.8;" x="542.325" xlink:href="#mf4aac0022f" y="87.68"/>
      </g>
     </g>
     <g id="text_23">
      <!-- 0.8 -->
      <g style="fill:#555555;" transform="translate(549.325 91.479219)scale(0.1 -0.1)">
       <use xlink:href="#DejaVuSans-30"/>
       <use x="63.623047" xlink:href="#DejaVuSans-2e"/>
       <use x="95.410156" xlink:href="#DejaVuSans-38"/>
      </g>
     </g>
    </g>
    <g id="ytick_11">
     <g id="line2d_57">
      <path clip-path="url(#pe2bdc8ad5a)" d="M 33.675 48.8 
L 542.325 48.8 
" style="fill:none;stroke:#ffffff;stroke-linecap:square;stroke-width:0.8;"/>
     </g>
     <g id="line2d_58">
      <g>
       <use style="fill:#555555;stroke:#555555;stroke-width:0.8;" x="542.325" xlink:href="#mf4aac0022f" y="48.8"/>
      </g>
     </g>
     <g id="text_24">
      <!-- 1.0 -->
      <g style="fill:#555555;" transform="translate(549.325 52.599219)scale(0.1 -0.1)">
       <use xlink:href="#DejaVuSans-31"/>
       <use x="63.623047" xlink:href="#DejaVuSans-2e"/>
       <use x="95.410156" xlink:href="#DejaVuSans-30"/>
      </g>
     </g>
    </g>
   </g>
   <g id="patch_8">
    <path d="M 33.675 243.2 
L 33.675 48.8 
" style="fill:none;stroke:#ffffff;stroke-linecap:square;stroke-linejoin:miter;"/>
   </g>
   <g id="patch_9">
    <path d="M 542.325 243.2 
L 542.325 48.8 
" style="fill:none;stroke:#ffffff;stroke-linecap:square;stroke-linejoin:miter;"/>
   </g>
   <g id="patch_10">
    <path d="M 33.675 243.2 
L 542.325 243.2 
" style="fill:none;stroke:#ffffff;stroke-linecap:square;stroke-linejoin:miter;"/>
   </g>
   <g id="patch_11">
    <path d="M 33.675 48.8 
L 542.325 48.8 
" style="fill:none;stroke:#ffffff;stroke-linecap:square;stroke-linejoin:miter;"/>
   </g>
   <g id="legend_2">
    <g id="patch_12">
     <path d="M 40.675 43.8 
L 299.759375 43.8 
Q 301.759375 43.8 301.759375 41.8 
L 301.759375 13.44375 
Q 301.759375 11.44375 299.759375 11.44375 
L 40.675 11.44375 
Q 38.675 11.44375 38.675 13.44375 
L 38.675 41.8 
Q 38.675 43.8 40.675 43.8 
z
" style="fill:#e5e5e5;opacity:0.8;stroke:#cccccc;stroke-linejoin:miter;stroke-width:0.5;"/>
    </g>
    <g id="line2d_59">
     <path d="M 42.675 19.542187 
L 62.675 19.542187 
" style="fill:none;stroke:#000000;stroke-linecap:square;stroke-width:1.5;"/>
    </g>
    <g id="line2d_60"/>
    <g id="text_25">
     <!-- Solid line style indicate the training data -->
     <g transform="translate(70.675 23.042187)scale(0.1 -0.1)">
      <defs>
       <path d="M 3425 4513 
L 3425 3897 
Q 3066 4069 2747 4153 
Q 2428 4238 2131 4238 
Q 1616 4238 1336 4038 
Q 1056 3838 1056 3469 
Q 1056 3159 1242 3001 
Q 1428 2844 1947 2747 
L 2328 2669 
Q 3034 2534 3370 2195 
Q 3706 1856 3706 1288 
Q 3706 609 3251 259 
Q 2797 -91 1919 -91 
Q 1588 -91 1214 -16 
Q 841 59 441 206 
L 441 856 
Q 825 641 1194 531 
Q 1563 422 1919 422 
Q 2459 422 2753 634 
Q 3047 847 3047 1241 
Q 3047 1584 2836 1778 
Q 2625 1972 2144 2069 
L 1759 2144 
Q 1053 2284 737 2584 
Q 422 2884 422 3419 
Q 422 4038 858 4394 
Q 1294 4750 2059 4750 
Q 2388 4750 2728 4690 
Q 3069 4631 3425 4513 
z
" id="DejaVuSans-53" transform="scale(0.015625)"/>
       <path d="M 603 4863 
L 1178 4863 
L 1178 0 
L 603 0 
L 603 4863 
z
" id="DejaVuSans-6c" transform="scale(0.015625)"/>
       <path d="M 603 3500 
L 1178 3500 
L 1178 0 
L 603 0 
L 603 3500 
z
M 603 4863 
L 1178 4863 
L 1178 4134 
L 603 4134 
L 603 4863 
z
" id="DejaVuSans-69" transform="scale(0.015625)"/>
       <path d="M 2906 2969 
L 2906 4863 
L 3481 4863 
L 3481 0 
L 2906 0 
L 2906 525 
Q 2725 213 2448 61 
Q 2172 -91 1784 -91 
Q 1150 -91 751 415 
Q 353 922 353 1747 
Q 353 2572 751 3078 
Q 1150 3584 1784 3584 
Q 2172 3584 2448 3432 
Q 2725 3281 2906 2969 
z
M 947 1747 
Q 947 1113 1208 752 
Q 1469 391 1925 391 
Q 2381 391 2643 752 
Q 2906 1113 2906 1747 
Q 2906 2381 2643 2742 
Q 2381 3103 1925 3103 
Q 1469 3103 1208 2742 
Q 947 2381 947 1747 
z
" id="DejaVuSans-64" transform="scale(0.015625)"/>
       <path d="M 2834 3397 
L 2834 2853 
Q 2591 2978 2328 3040 
Q 2066 3103 1784 3103 
Q 1356 3103 1142 2972 
Q 928 2841 928 2578 
Q 928 2378 1081 2264 
Q 1234 2150 1697 2047 
L 1894 2003 
Q 2506 1872 2764 1633 
Q 3022 1394 3022 966 
Q 3022 478 2636 193 
Q 2250 -91 1575 -91 
Q 1294 -91 989 -36 
Q 684 19 347 128 
L 347 722 
Q 666 556 975 473 
Q 1284 391 1588 391 
Q 1994 391 2212 530 
Q 2431 669 2431 922 
Q 2431 1156 2273 1281 
Q 2116 1406 1581 1522 
L 1381 1569 
Q 847 1681 609 1914 
Q 372 2147 372 2553 
Q 372 3047 722 3315 
Q 1072 3584 1716 3584 
Q 2034 3584 2315 3537 
Q 2597 3491 2834 3397 
z
" id="DejaVuSans-73" transform="scale(0.015625)"/>
       <path d="M 1172 4494 
L 1172 3500 
L 2356 3500 
L 2356 3053 
L 1172 3053 
L 1172 1153 
Q 1172 725 1289 603 
Q 1406 481 1766 481 
L 2356 481 
L 2356 0 
L 1766 0 
Q 1100 0 847 248 
Q 594 497 594 1153 
L 594 3053 
L 172 3053 
L 172 3500 
L 594 3500 
L 594 4494 
L 1172 4494 
z
" id="DejaVuSans-74" transform="scale(0.015625)"/>
       <path d="M 2059 -325 
Q 1816 -950 1584 -1140 
Q 1353 -1331 966 -1331 
L 506 -1331 
L 506 -850 
L 844 -850 
Q 1081 -850 1212 -737 
Q 1344 -625 1503 -206 
L 1606 56 
L 191 3500 
L 800 3500 
L 1894 763 
L 2988 3500 
L 3597 3500 
L 2059 -325 
z
" id="DejaVuSans-79" transform="scale(0.015625)"/>
       <path d="M 2194 1759 
Q 1497 1759 1228 1600 
Q 959 1441 959 1056 
Q 959 750 1161 570 
Q 1363 391 1709 391 
Q 2188 391 2477 730 
Q 2766 1069 2766 1631 
L 2766 1759 
L 2194 1759 
z
M 3341 1997 
L 3341 0 
L 2766 0 
L 2766 531 
Q 2569 213 2275 61 
Q 1981 -91 1556 -91 
Q 1019 -91 701 211 
Q 384 513 384 1019 
Q 384 1609 779 1909 
Q 1175 2209 1959 2209 
L 2766 2209 
L 2766 2266 
Q 2766 2663 2505 2880 
Q 2244 3097 1772 3097 
Q 1472 3097 1187 3025 
Q 903 2953 641 2809 
L 641 3341 
Q 956 3463 1253 3523 
Q 1550 3584 1831 3584 
Q 2591 3584 2966 3190 
Q 3341 2797 3341 1997 
z
" id="DejaVuSans-61" transform="scale(0.015625)"/>
       <path d="M 2906 1791 
Q 2906 2416 2648 2759 
Q 2391 3103 1925 3103 
Q 1463 3103 1205 2759 
Q 947 2416 947 1791 
Q 947 1169 1205 825 
Q 1463 481 1925 481 
Q 2391 481 2648 825 
Q 2906 1169 2906 1791 
z
M 3481 434 
Q 3481 -459 3084 -895 
Q 2688 -1331 1869 -1331 
Q 1566 -1331 1297 -1286 
Q 1028 -1241 775 -1147 
L 775 -588 
Q 1028 -725 1275 -790 
Q 1522 -856 1778 -856 
Q 2344 -856 2625 -561 
Q 2906 -266 2906 331 
L 2906 616 
Q 2728 306 2450 153 
Q 2172 0 1784 0 
Q 1141 0 747 490 
Q 353 981 353 1791 
Q 353 2603 747 3093 
Q 1141 3584 1784 3584 
Q 2172 3584 2450 3431 
Q 2728 3278 2906 2969 
L 2906 3500 
L 3481 3500 
L 3481 434 
z
" id="DejaVuSans-67" transform="scale(0.015625)"/>
      </defs>
      <use xlink:href="#DejaVuSans-53"/>
      <use x="63.476562" xlink:href="#DejaVuSans-6f"/>
      <use x="124.658203" xlink:href="#DejaVuSans-6c"/>
      <use x="152.441406" xlink:href="#DejaVuSans-69"/>
      <use x="180.224609" xlink:href="#DejaVuSans-64"/>
      <use x="243.701172" xlink:href="#DejaVuSans-20"/>
      <use x="275.488281" xlink:href="#DejaVuSans-6c"/>
      <use x="303.271484" xlink:href="#DejaVuSans-69"/>
      <use x="331.054688" xlink:href="#DejaVuSans-6e"/>
      <use x="394.433594" xlink:href="#DejaVuSans-65"/>
      <use x="455.957031" xlink:href="#DejaVuSans-20"/>
      <use x="487.744141" xlink:href="#DejaVuSans-73"/>
      <use x="539.84375" xlink:href="#DejaVuSans-74"/>
      <use x="579.052734" xlink:href="#DejaVuSans-79"/>
      <use x="638.232422" xlink:href="#DejaVuSans-6c"/>
      <use x="666.015625" xlink:href="#DejaVuSans-65"/>
      <use x="727.539062" xlink:href="#DejaVuSans-20"/>
      <use x="759.326172" xlink:href="#DejaVuSans-69"/>
      <use x="787.109375" xlink:href="#DejaVuSans-6e"/>
      <use x="850.488281" xlink:href="#DejaVuSans-64"/>
      <use x="913.964844" xlink:href="#DejaVuSans-69"/>
      <use x="941.748047" xlink:href="#DejaVuSans-63"/>
      <use x="996.728516" xlink:href="#DejaVuSans-61"/>
      <use x="1058.007812" xlink:href="#DejaVuSans-74"/>
      <use x="1097.216797" xlink:href="#DejaVuSans-65"/>
      <use x="1158.740234" xlink:href="#DejaVuSans-20"/>
      <use x="1190.527344" xlink:href="#DejaVuSans-74"/>
      <use x="1229.736328" xlink:href="#DejaVuSans-68"/>
      <use x="1293.115234" xlink:href="#DejaVuSans-65"/>
      <use x="1354.638672" xlink:href="#DejaVuSans-20"/>
      <use x="1386.425781" xlink:href="#DejaVuSans-74"/>
      <use x="1425.634766" xlink:href="#DejaVuSans-72"/>
      <use x="1466.748047" xlink:href="#DejaVuSans-61"/>
      <use x="1528.027344" xlink:href="#DejaVuSans-69"/>
      <use x="1555.810547" xlink:href="#DejaVuSans-6e"/>
      <use x="1619.189453" xlink:href="#DejaVuSans-69"/>
      <use x="1646.972656" xlink:href="#DejaVuSans-6e"/>
      <use x="1710.351562" xlink:href="#DejaVuSans-67"/>
      <use x="1773.828125" xlink:href="#DejaVuSans-20"/>
      <use x="1805.615234" xlink:href="#DejaVuSans-64"/>
      <use x="1869.091797" xlink:href="#DejaVuSans-61"/>
      <use x="1930.371094" xlink:href="#DejaVuSans-74"/>
      <use x="1969.580078" xlink:href="#DejaVuSans-61"/>
     </g>
    </g>
    <g id="line2d_61">
     <path d="M 42.675 34.220312 
L 62.675 34.220312 
" style="fill:none;stroke:#000000;stroke-dasharray:5.55,2.4;stroke-dashoffset:0;stroke-width:1.5;"/>
    </g>
    <g id="line2d_62"/>
    <g id="text_26">
     <!-- Dashed line style indicate the validation data -->
     <g transform="translate(70.675 37.720312)scale(0.1 -0.1)">
      <defs>
       <path d="M 1259 4147 
L 1259 519 
L 2022 519 
Q 2988 519 3436 956 
Q 3884 1394 3884 2338 
Q 3884 3275 3436 3711 
Q 2988 4147 2022 4147 
L 1259 4147 
z
M 628 4666 
L 1925 4666 
Q 3281 4666 3915 4102 
Q 4550 3538 4550 2338 
Q 4550 1131 3912 565 
Q 3275 0 1925 0 
L 628 0 
L 628 4666 
z
" id="DejaVuSans-44" transform="scale(0.015625)"/>
       <path d="M 191 3500 
L 800 3500 
L 1894 563 
L 2988 3500 
L 3597 3500 
L 2284 0 
L 1503 0 
L 191 3500 
z
" id="DejaVuSans-76" transform="scale(0.015625)"/>
      </defs>
      <use xlink:href="#DejaVuSans-44"/>
      <use x="77.001953" xlink:href="#DejaVuSans-61"/>
      <use x="138.28125" xlink:href="#DejaVuSans-73"/>
      <use x="190.380859" xlink:href="#DejaVuSans-68"/>
      <use x="253.759766" xlink:href="#DejaVuSans-65"/>
      <use x="315.283203" xlink:href="#DejaVuSans-64"/>
      <use x="378.759766" xlink:href="#DejaVuSans-20"/>
      <use x="410.546875" xlink:href="#DejaVuSans-6c"/>
      <use x="438.330078" xlink:href="#DejaVuSans-69"/>
      <use x="466.113281" xlink:href="#DejaVuSans-6e"/>
      <use x="529.492188" xlink:href="#DejaVuSans-65"/>
      <use x="591.015625" xlink:href="#DejaVuSans-20"/>
      <use x="622.802734" xlink:href="#DejaVuSans-73"/>
      <use x="674.902344" xlink:href="#DejaVuSans-74"/>
      <use x="714.111328" xlink:href="#DejaVuSans-79"/>
      <use x="773.291016" xlink:href="#DejaVuSans-6c"/>
      <use x="801.074219" xlink:href="#DejaVuSans-65"/>
      <use x="862.597656" xlink:href="#DejaVuSans-20"/>
      <use x="894.384766" xlink:href="#DejaVuSans-69"/>
      <use x="922.167969" xlink:href="#DejaVuSans-6e"/>
      <use x="985.546875" xlink:href="#DejaVuSans-64"/>
      <use x="1049.023438" xlink:href="#DejaVuSans-69"/>
      <use x="1076.806641" xlink:href="#DejaVuSans-63"/>
      <use x="1131.787109" xlink:href="#DejaVuSans-61"/>
      <use x="1193.066406" xlink:href="#DejaVuSans-74"/>
      <use x="1232.275391" xlink:href="#DejaVuSans-65"/>
      <use x="1293.798828" xlink:href="#DejaVuSans-20"/>
      <use x="1325.585938" xlink:href="#DejaVuSans-74"/>
      <use x="1364.794922" xlink:href="#DejaVuSans-68"/>
      <use x="1428.173828" xlink:href="#DejaVuSans-65"/>
      <use x="1489.697266" xlink:href="#DejaVuSans-20"/>
      <use x="1521.484375" xlink:href="#DejaVuSans-76"/>
      <use x="1580.664062" xlink:href="#DejaVuSans-61"/>
      <use x="1641.943359" xlink:href="#DejaVuSans-6c"/>
      <use x="1669.726562" xlink:href="#DejaVuSans-69"/>
      <use x="1697.509766" xlink:href="#DejaVuSans-64"/>
      <use x="1760.986328" xlink:href="#DejaVuSans-61"/>
      <use x="1822.265625" xlink:href="#DejaVuSans-74"/>
      <use x="1861.474609" xlink:href="#DejaVuSans-69"/>
      <use x="1889.257812" xlink:href="#DejaVuSans-6f"/>
      <use x="1950.439453" xlink:href="#DejaVuSans-6e"/>
      <use x="2013.818359" xlink:href="#DejaVuSans-20"/>
      <use x="2045.605469" xlink:href="#DejaVuSans-64"/>
      <use x="2109.082031" xlink:href="#DejaVuSans-61"/>
      <use x="2170.361328" xlink:href="#DejaVuSans-74"/>
      <use x="2209.570312" xlink:href="#DejaVuSans-61"/>
     </g>
    </g>
   </g>
  </g>
 </g>
 <defs>
  <clipPath id="pe2bdc8ad5a">
   <rect height="194.4" width="508.65" x="33.675" y="48.8"/>
  </clipPath>
 </defs>
</svg>
