<?xml version="1.0" encoding="utf-8" standalone="no"?>
<!DOCTYPE svg PUBLIC "-//W3C//DTD SVG 1.1//EN"
  "http://www.w3.org/Graphics/SVG/1.1/DTD/svg11.dtd">
<svg height="288pt" version="1.1" viewBox="0 0 576 288" width="576pt" xmlns="http://www.w3.org/2000/svg" xmlns:xlink="http://www.w3.org/1999/xlink">
 <metadata>
  <rdf:RDF xmlns:cc="http://creativecommons.org/ns#" xmlns:dc="http://purl.org/dc/elements/1.1/" xmlns:rdf="http://www.w3.org/1999/02/22-rdf-syntax-ns#">
   <cc:Work>
    <dc:type rdf:resource="http://purl.org/dc/dcmitype/StillImage"/>
    <dc:date>2021-11-04T21:11:29.871815</dc:date>
    <dc:format>image/svg+xml</dc:format>
    <dc:creator>
     <cc:Agent>
      <dc:title>Matplotlib v3.4.3, https://matplotlib.org/</dc:title>
     </cc:Agent>
    </dc:creator>
   </cc:Work>
  </rdf:RDF>
 </metadata>
 <defs>
  <style type="text/css">*{stroke-linecap:butt;stroke-linejoin:round;}</style>
 </defs>
 <g id="figure_1">
  <g id="patch_1">
   <path d="M 0 288 
L 576 288 
L 576 0 
L 0 0 
z
" style="fill:#ffffff;"/>
  </g>
  <g id="axes_1">
   <g id="patch_2">
    <path d="M 33.8 243.2 
L 565.2 243.2 
L 565.2 10.8 
L 33.8 10.8 
z
" style="fill:#e5e5e5;"/>
   </g>
   <g id="matplotlib.axis_1">
    <g id="xtick_1">
     <g id="line2d_1">
      <path clip-path="url(#p1c56d48fdc)" d="M 53.074839 243.2 
L 53.074839 10.8 
" style="fill:none;stroke:#ffffff;stroke-linecap:square;stroke-width:0.8;"/>
     </g>
     <g id="line2d_2">
      <defs>
       <path d="M 0 0 
L 0 3.5 
" id="mcc7df93f7c" style="stroke:#555555;stroke-width:0.8;"/>
      </defs>
      <g>
       <use style="fill:#555555;stroke:#555555;stroke-width:0.8;" x="53.074839" xlink:href="#mcc7df93f7c" y="243.2"/>
      </g>
     </g>
     <g id="text_1">
      <!-- 0 -->
      <g style="fill:#555555;" transform="translate(49.893589 257.798437)scale(0.1 -0.1)">
       <defs>
        <path d="M 2034 4250 
Q 1547 4250 1301 3770 
Q 1056 3291 1056 2328 
Q 1056 1369 1301 889 
Q 1547 409 2034 409 
Q 2525 409 2770 889 
Q 3016 1369 3016 2328 
Q 3016 3291 2770 3770 
Q 2525 4250 2034 4250 
z
M 2034 4750 
Q 2819 4750 3233 4129 
Q 3647 3509 3647 2328 
Q 3647 1150 3233 529 
Q 2819 -91 2034 -91 
Q 1250 -91 836 529 
Q 422 1150 422 2328 
Q 422 3509 836 4129 
Q 1250 4750 2034 4750 
z
" id="DejaVuSans-30" transform="scale(0.015625)"/>
       </defs>
       <use xlink:href="#DejaVuSans-30"/>
      </g>
     </g>
    </g>
    <g id="xtick_2">
     <g id="line2d_3">
      <path clip-path="url(#p1c56d48fdc)" d="M 150.668962 243.2 
L 150.668962 10.8 
" style="fill:none;stroke:#ffffff;stroke-linecap:square;stroke-width:0.8;"/>
     </g>
     <g id="line2d_4">
      <g>
       <use style="fill:#555555;stroke:#555555;stroke-width:0.8;" x="150.668962" xlink:href="#mcc7df93f7c" y="243.2"/>
      </g>
     </g>
     <g id="text_2">
      <!-- 20 -->
      <g style="fill:#555555;" transform="translate(144.306462 257.798437)scale(0.1 -0.1)">
       <defs>
        <path d="M 1228 531 
L 3431 531 
L 3431 0 
L 469 0 
L 469 531 
Q 828 903 1448 1529 
Q 2069 2156 2228 2338 
Q 2531 2678 2651 2914 
Q 2772 3150 2772 3378 
Q 2772 3750 2511 3984 
Q 2250 4219 1831 4219 
Q 1534 4219 1204 4116 
Q 875 4013 500 3803 
L 500 4441 
Q 881 4594 1212 4672 
Q 1544 4750 1819 4750 
Q 2544 4750 2975 4387 
Q 3406 4025 3406 3419 
Q 3406 3131 3298 2873 
Q 3191 2616 2906 2266 
Q 2828 2175 2409 1742 
Q 1991 1309 1228 531 
z
" id="DejaVuSans-32" transform="scale(0.015625)"/>
       </defs>
       <use xlink:href="#DejaVuSans-32"/>
       <use x="63.623047" xlink:href="#DejaVuSans-30"/>
      </g>
     </g>
    </g>
    <g id="xtick_3">
     <g id="line2d_5">
      <path clip-path="url(#p1c56d48fdc)" d="M 248.263085 243.2 
L 248.263085 10.8 
" style="fill:none;stroke:#ffffff;stroke-linecap:square;stroke-width:0.8;"/>
     </g>
     <g id="line2d_6">
      <g>
       <use style="fill:#555555;stroke:#555555;stroke-width:0.8;" x="248.263085" xlink:href="#mcc7df93f7c" y="243.2"/>
      </g>
     </g>
     <g id="text_3">
      <!-- 40 -->
      <g style="fill:#555555;" transform="translate(241.900585 257.798437)scale(0.1 -0.1)">
       <defs>
        <path d="M 2419 4116 
L 825 1625 
L 2419 1625 
L 2419 4116 
z
M 2253 4666 
L 3047 4666 
L 3047 1625 
L 3713 1625 
L 3713 1100 
L 3047 1100 
L 3047 0 
L 2419 0 
L 2419 1100 
L 313 1100 
L 313 1709 
L 2253 4666 
z
" id="DejaVuSans-34" transform="scale(0.015625)"/>
       </defs>
       <use xlink:href="#DejaVuSans-34"/>
       <use x="63.623047" xlink:href="#DejaVuSans-30"/>
      </g>
     </g>
    </g>
    <g id="xtick_4">
     <g id="line2d_7">
      <path clip-path="url(#p1c56d48fdc)" d="M 345.857208 243.2 
L 345.857208 10.8 
" style="fill:none;stroke:#ffffff;stroke-linecap:square;stroke-width:0.8;"/>
     </g>
     <g id="line2d_8">
      <g>
       <use style="fill:#555555;stroke:#555555;stroke-width:0.8;" x="345.857208" xlink:href="#mcc7df93f7c" y="243.2"/>
      </g>
     </g>
     <g id="text_4">
      <!-- 60 -->
      <g style="fill:#555555;" transform="translate(339.494708 257.798437)scale(0.1 -0.1)">
       <defs>
        <path d="M 2113 2584 
Q 1688 2584 1439 2293 
Q 1191 2003 1191 1497 
Q 1191 994 1439 701 
Q 1688 409 2113 409 
Q 2538 409 2786 701 
Q 3034 994 3034 1497 
Q 3034 2003 2786 2293 
Q 2538 2584 2113 2584 
z
M 3366 4563 
L 3366 3988 
Q 3128 4100 2886 4159 
Q 2644 4219 2406 4219 
Q 1781 4219 1451 3797 
Q 1122 3375 1075 2522 
Q 1259 2794 1537 2939 
Q 1816 3084 2150 3084 
Q 2853 3084 3261 2657 
Q 3669 2231 3669 1497 
Q 3669 778 3244 343 
Q 2819 -91 2113 -91 
Q 1303 -91 875 529 
Q 447 1150 447 2328 
Q 447 3434 972 4092 
Q 1497 4750 2381 4750 
Q 2619 4750 2861 4703 
Q 3103 4656 3366 4563 
z
" id="DejaVuSans-36" transform="scale(0.015625)"/>
       </defs>
       <use xlink:href="#DejaVuSans-36"/>
       <use x="63.623047" xlink:href="#DejaVuSans-30"/>
      </g>
     </g>
    </g>
    <g id="xtick_5">
     <g id="line2d_9">
      <path clip-path="url(#p1c56d48fdc)" d="M 443.451331 243.2 
L 443.451331 10.8 
" style="fill:none;stroke:#ffffff;stroke-linecap:square;stroke-width:0.8;"/>
     </g>
     <g id="line2d_10">
      <g>
       <use style="fill:#555555;stroke:#555555;stroke-width:0.8;" x="443.451331" xlink:href="#mcc7df93f7c" y="243.2"/>
      </g>
     </g>
     <g id="text_5">
      <!-- 80 -->
      <g style="fill:#555555;" transform="translate(437.088831 257.798437)scale(0.1 -0.1)">
       <defs>
        <path d="M 2034 2216 
Q 1584 2216 1326 1975 
Q 1069 1734 1069 1313 
Q 1069 891 1326 650 
Q 1584 409 2034 409 
Q 2484 409 2743 651 
Q 3003 894 3003 1313 
Q 3003 1734 2745 1975 
Q 2488 2216 2034 2216 
z
M 1403 2484 
Q 997 2584 770 2862 
Q 544 3141 544 3541 
Q 544 4100 942 4425 
Q 1341 4750 2034 4750 
Q 2731 4750 3128 4425 
Q 3525 4100 3525 3541 
Q 3525 3141 3298 2862 
Q 3072 2584 2669 2484 
Q 3125 2378 3379 2068 
Q 3634 1759 3634 1313 
Q 3634 634 3220 271 
Q 2806 -91 2034 -91 
Q 1263 -91 848 271 
Q 434 634 434 1313 
Q 434 1759 690 2068 
Q 947 2378 1403 2484 
z
M 1172 3481 
Q 1172 3119 1398 2916 
Q 1625 2713 2034 2713 
Q 2441 2713 2670 2916 
Q 2900 3119 2900 3481 
Q 2900 3844 2670 4047 
Q 2441 4250 2034 4250 
Q 1625 4250 1398 4047 
Q 1172 3844 1172 3481 
z
" id="DejaVuSans-38" transform="scale(0.015625)"/>
       </defs>
       <use xlink:href="#DejaVuSans-38"/>
       <use x="63.623047" xlink:href="#DejaVuSans-30"/>
      </g>
     </g>
    </g>
    <g id="xtick_6">
     <g id="line2d_11">
      <path clip-path="url(#p1c56d48fdc)" d="M 541.045455 243.2 
L 541.045455 10.8 
" style="fill:none;stroke:#ffffff;stroke-linecap:square;stroke-width:0.8;"/>
     </g>
     <g id="line2d_12">
      <g>
       <use style="fill:#555555;stroke:#555555;stroke-width:0.8;" x="541.045455" xlink:href="#mcc7df93f7c" y="243.2"/>
      </g>
     </g>
     <g id="text_6">
      <!-- 100 -->
      <g style="fill:#555555;" transform="translate(531.501705 257.798437)scale(0.1 -0.1)">
       <defs>
        <path d="M 794 531 
L 1825 531 
L 1825 4091 
L 703 3866 
L 703 4441 
L 1819 4666 
L 2450 4666 
L 2450 531 
L 3481 531 
L 3481 0 
L 794 0 
L 794 531 
z
" id="DejaVuSans-31" transform="scale(0.015625)"/>
       </defs>
       <use xlink:href="#DejaVuSans-31"/>
       <use x="63.623047" xlink:href="#DejaVuSans-30"/>
       <use x="127.246094" xlink:href="#DejaVuSans-30"/>
      </g>
     </g>
    </g>
    <g id="text_7">
     <!-- Epoch number -->
     <g style="fill:#555555;" transform="translate(255.803125 272.99625)scale(0.12 -0.12)">
      <defs>
       <path d="M 628 4666 
L 3578 4666 
L 3578 4134 
L 1259 4134 
L 1259 2753 
L 3481 2753 
L 3481 2222 
L 1259 2222 
L 1259 531 
L 3634 531 
L 3634 0 
L 628 0 
L 628 4666 
z
" id="DejaVuSans-45" transform="scale(0.015625)"/>
       <path d="M 1159 525 
L 1159 -1331 
L 581 -1331 
L 581 3500 
L 1159 3500 
L 1159 2969 
Q 1341 3281 1617 3432 
Q 1894 3584 2278 3584 
Q 2916 3584 3314 3078 
Q 3713 2572 3713 1747 
Q 3713 922 3314 415 
Q 2916 -91 2278 -91 
Q 1894 -91 1617 61 
Q 1341 213 1159 525 
z
M 3116 1747 
Q 3116 2381 2855 2742 
Q 2594 3103 2138 3103 
Q 1681 3103 1420 2742 
Q 1159 2381 1159 1747 
Q 1159 1113 1420 752 
Q 1681 391 2138 391 
Q 2594 391 2855 752 
Q 3116 1113 3116 1747 
z
" id="DejaVuSans-70" transform="scale(0.015625)"/>
       <path d="M 1959 3097 
Q 1497 3097 1228 2736 
Q 959 2375 959 1747 
Q 959 1119 1226 758 
Q 1494 397 1959 397 
Q 2419 397 2687 759 
Q 2956 1122 2956 1747 
Q 2956 2369 2687 2733 
Q 2419 3097 1959 3097 
z
M 1959 3584 
Q 2709 3584 3137 3096 
Q 3566 2609 3566 1747 
Q 3566 888 3137 398 
Q 2709 -91 1959 -91 
Q 1206 -91 779 398 
Q 353 888 353 1747 
Q 353 2609 779 3096 
Q 1206 3584 1959 3584 
z
" id="DejaVuSans-6f" transform="scale(0.015625)"/>
       <path d="M 3122 3366 
L 3122 2828 
Q 2878 2963 2633 3030 
Q 2388 3097 2138 3097 
Q 1578 3097 1268 2742 
Q 959 2388 959 1747 
Q 959 1106 1268 751 
Q 1578 397 2138 397 
Q 2388 397 2633 464 
Q 2878 531 3122 666 
L 3122 134 
Q 2881 22 2623 -34 
Q 2366 -91 2075 -91 
Q 1284 -91 818 406 
Q 353 903 353 1747 
Q 353 2603 823 3093 
Q 1294 3584 2113 3584 
Q 2378 3584 2631 3529 
Q 2884 3475 3122 3366 
z
" id="DejaVuSans-63" transform="scale(0.015625)"/>
       <path d="M 3513 2113 
L 3513 0 
L 2938 0 
L 2938 2094 
Q 2938 2591 2744 2837 
Q 2550 3084 2163 3084 
Q 1697 3084 1428 2787 
Q 1159 2491 1159 1978 
L 1159 0 
L 581 0 
L 581 4863 
L 1159 4863 
L 1159 2956 
Q 1366 3272 1645 3428 
Q 1925 3584 2291 3584 
Q 2894 3584 3203 3211 
Q 3513 2838 3513 2113 
z
" id="DejaVuSans-68" transform="scale(0.015625)"/>
       <path id="DejaVuSans-20" transform="scale(0.015625)"/>
       <path d="M 3513 2113 
L 3513 0 
L 2938 0 
L 2938 2094 
Q 2938 2591 2744 2837 
Q 2550 3084 2163 3084 
Q 1697 3084 1428 2787 
Q 1159 2491 1159 1978 
L 1159 0 
L 581 0 
L 581 3500 
L 1159 3500 
L 1159 2956 
Q 1366 3272 1645 3428 
Q 1925 3584 2291 3584 
Q 2894 3584 3203 3211 
Q 3513 2838 3513 2113 
z
" id="DejaVuSans-6e" transform="scale(0.015625)"/>
       <path d="M 544 1381 
L 544 3500 
L 1119 3500 
L 1119 1403 
Q 1119 906 1312 657 
Q 1506 409 1894 409 
Q 2359 409 2629 706 
Q 2900 1003 2900 1516 
L 2900 3500 
L 3475 3500 
L 3475 0 
L 2900 0 
L 2900 538 
Q 2691 219 2414 64 
Q 2138 -91 1772 -91 
Q 1169 -91 856 284 
Q 544 659 544 1381 
z
M 1991 3584 
L 1991 3584 
z
" id="DejaVuSans-75" transform="scale(0.015625)"/>
       <path d="M 3328 2828 
Q 3544 3216 3844 3400 
Q 4144 3584 4550 3584 
Q 5097 3584 5394 3201 
Q 5691 2819 5691 2113 
L 5691 0 
L 5113 0 
L 5113 2094 
Q 5113 2597 4934 2840 
Q 4756 3084 4391 3084 
Q 3944 3084 3684 2787 
Q 3425 2491 3425 1978 
L 3425 0 
L 2847 0 
L 2847 2094 
Q 2847 2600 2669 2842 
Q 2491 3084 2119 3084 
Q 1678 3084 1418 2786 
Q 1159 2488 1159 1978 
L 1159 0 
L 581 0 
L 581 3500 
L 1159 3500 
L 1159 2956 
Q 1356 3278 1631 3431 
Q 1906 3584 2284 3584 
Q 2666 3584 2933 3390 
Q 3200 3197 3328 2828 
z
" id="DejaVuSans-6d" transform="scale(0.015625)"/>
       <path d="M 3116 1747 
Q 3116 2381 2855 2742 
Q 2594 3103 2138 3103 
Q 1681 3103 1420 2742 
Q 1159 2381 1159 1747 
Q 1159 1113 1420 752 
Q 1681 391 2138 391 
Q 2594 391 2855 752 
Q 3116 1113 3116 1747 
z
M 1159 2969 
Q 1341 3281 1617 3432 
Q 1894 3584 2278 3584 
Q 2916 3584 3314 3078 
Q 3713 2572 3713 1747 
Q 3713 922 3314 415 
Q 2916 -91 2278 -91 
Q 1894 -91 1617 61 
Q 1341 213 1159 525 
L 1159 0 
L 581 0 
L 581 4863 
L 1159 4863 
L 1159 2969 
z
" id="DejaVuSans-62" transform="scale(0.015625)"/>
       <path d="M 3597 1894 
L 3597 1613 
L 953 1613 
Q 991 1019 1311 708 
Q 1631 397 2203 397 
Q 2534 397 2845 478 
Q 3156 559 3463 722 
L 3463 178 
Q 3153 47 2828 -22 
Q 2503 -91 2169 -91 
Q 1331 -91 842 396 
Q 353 884 353 1716 
Q 353 2575 817 3079 
Q 1281 3584 2069 3584 
Q 2775 3584 3186 3129 
Q 3597 2675 3597 1894 
z
M 3022 2063 
Q 3016 2534 2758 2815 
Q 2500 3097 2075 3097 
Q 1594 3097 1305 2825 
Q 1016 2553 972 2059 
L 3022 2063 
z
" id="DejaVuSans-65" transform="scale(0.015625)"/>
       <path d="M 2631 2963 
Q 2534 3019 2420 3045 
Q 2306 3072 2169 3072 
Q 1681 3072 1420 2755 
Q 1159 2438 1159 1844 
L 1159 0 
L 581 0 
L 581 3500 
L 1159 3500 
L 1159 2956 
Q 1341 3275 1631 3429 
Q 1922 3584 2338 3584 
Q 2397 3584 2469 3576 
Q 2541 3569 2628 3553 
L 2631 2963 
z
" id="DejaVuSans-72" transform="scale(0.015625)"/>
      </defs>
      <use xlink:href="#DejaVuSans-45"/>
      <use x="63.183594" xlink:href="#DejaVuSans-70"/>
      <use x="126.660156" xlink:href="#DejaVuSans-6f"/>
      <use x="187.841797" xlink:href="#DejaVuSans-63"/>
      <use x="242.822266" xlink:href="#DejaVuSans-68"/>
      <use x="306.201172" xlink:href="#DejaVuSans-20"/>
      <use x="337.988281" xlink:href="#DejaVuSans-6e"/>
      <use x="401.367188" xlink:href="#DejaVuSans-75"/>
      <use x="464.746094" xlink:href="#DejaVuSans-6d"/>
      <use x="562.158203" xlink:href="#DejaVuSans-62"/>
      <use x="625.634766" xlink:href="#DejaVuSans-65"/>
      <use x="687.158203" xlink:href="#DejaVuSans-72"/>
     </g>
    </g>
   </g>
   <g id="matplotlib.axis_2">
    <g id="ytick_1">
     <g id="line2d_13">
      <path clip-path="url(#p1c56d48fdc)" d="M 33.8 223.618782 
L 565.2 223.618782 
" style="fill:none;stroke:#ffffff;stroke-linecap:square;stroke-width:0.8;"/>
     </g>
     <g id="line2d_14">
      <defs>
       <path d="M 0 0 
L -3.5 0 
" id="mb031ebe0f4" style="stroke:#555555;stroke-width:0.8;"/>
      </defs>
      <g>
       <use style="fill:#555555;stroke:#555555;stroke-width:0.8;" x="33.8" xlink:href="#mb031ebe0f4" y="223.618782"/>
      </g>
     </g>
     <g id="text_8">
      <!-- 0.2 -->
      <g style="fill:#555555;" transform="translate(10.896875 227.418001)scale(0.1 -0.1)">
       <defs>
        <path d="M 684 794 
L 1344 794 
L 1344 0 
L 684 0 
L 684 794 
z
" id="DejaVuSans-2e" transform="scale(0.015625)"/>
       </defs>
       <use xlink:href="#DejaVuSans-30"/>
       <use x="63.623047" xlink:href="#DejaVuSans-2e"/>
       <use x="95.410156" xlink:href="#DejaVuSans-32"/>
      </g>
     </g>
    </g>
    <g id="ytick_2">
     <g id="line2d_15">
      <path clip-path="url(#p1c56d48fdc)" d="M 33.8 184.51007 
L 565.2 184.51007 
" style="fill:none;stroke:#ffffff;stroke-linecap:square;stroke-width:0.8;"/>
     </g>
     <g id="line2d_16">
      <g>
       <use style="fill:#555555;stroke:#555555;stroke-width:0.8;" x="33.8" xlink:href="#mb031ebe0f4" y="184.51007"/>
      </g>
     </g>
     <g id="text_9">
      <!-- 0.4 -->
      <g style="fill:#555555;" transform="translate(10.896875 188.309289)scale(0.1 -0.1)">
       <use xlink:href="#DejaVuSans-30"/>
       <use x="63.623047" xlink:href="#DejaVuSans-2e"/>
       <use x="95.410156" xlink:href="#DejaVuSans-34"/>
      </g>
     </g>
    </g>
    <g id="ytick_3">
     <g id="line2d_17">
      <path clip-path="url(#p1c56d48fdc)" d="M 33.8 145.401359 
L 565.2 145.401359 
" style="fill:none;stroke:#ffffff;stroke-linecap:square;stroke-width:0.8;"/>
     </g>
     <g id="line2d_18">
      <g>
       <use style="fill:#555555;stroke:#555555;stroke-width:0.8;" x="33.8" xlink:href="#mb031ebe0f4" y="145.401359"/>
      </g>
     </g>
     <g id="text_10">
      <!-- 0.6 -->
      <g style="fill:#555555;" transform="translate(10.896875 149.200577)scale(0.1 -0.1)">
       <use xlink:href="#DejaVuSans-30"/>
       <use x="63.623047" xlink:href="#DejaVuSans-2e"/>
       <use x="95.410156" xlink:href="#DejaVuSans-36"/>
      </g>
     </g>
    </g>
    <g id="ytick_4">
     <g id="line2d_19">
      <path clip-path="url(#p1c56d48fdc)" d="M 33.8 106.292647 
L 565.2 106.292647 
" style="fill:none;stroke:#ffffff;stroke-linecap:square;stroke-width:0.8;"/>
     </g>
     <g id="line2d_20">
      <g>
       <use style="fill:#555555;stroke:#555555;stroke-width:0.8;" x="33.8" xlink:href="#mb031ebe0f4" y="106.292647"/>
      </g>
     </g>
     <g id="text_11">
      <!-- 0.8 -->
      <g style="fill:#555555;" transform="translate(10.896875 110.091866)scale(0.1 -0.1)">
       <use xlink:href="#DejaVuSans-30"/>
       <use x="63.623047" xlink:href="#DejaVuSans-2e"/>
       <use x="95.410156" xlink:href="#DejaVuSans-38"/>
      </g>
     </g>
    </g>
    <g id="ytick_5">
     <g id="line2d_21">
      <path clip-path="url(#p1c56d48fdc)" d="M 33.8 67.183935 
L 565.2 67.183935 
" style="fill:none;stroke:#ffffff;stroke-linecap:square;stroke-width:0.8;"/>
     </g>
     <g id="line2d_22">
      <g>
       <use style="fill:#555555;stroke:#555555;stroke-width:0.8;" x="33.8" xlink:href="#mb031ebe0f4" y="67.183935"/>
      </g>
     </g>
     <g id="text_12">
      <!-- 1.0 -->
      <g style="fill:#555555;" transform="translate(10.896875 70.983154)scale(0.1 -0.1)">
       <use xlink:href="#DejaVuSans-31"/>
       <use x="63.623047" xlink:href="#DejaVuSans-2e"/>
       <use x="95.410156" xlink:href="#DejaVuSans-30"/>
      </g>
     </g>
    </g>
    <g id="ytick_6">
     <g id="line2d_23">
      <path clip-path="url(#p1c56d48fdc)" d="M 33.8 28.075224 
L 565.2 28.075224 
" style="fill:none;stroke:#ffffff;stroke-linecap:square;stroke-width:0.8;"/>
     </g>
     <g id="line2d_24">
      <g>
       <use style="fill:#555555;stroke:#555555;stroke-width:0.8;" x="33.8" xlink:href="#mb031ebe0f4" y="28.075224"/>
      </g>
     </g>
     <g id="text_13">
      <!-- 1.2 -->
      <g style="fill:#555555;" transform="translate(10.896875 31.874442)scale(0.1 -0.1)">
       <use xlink:href="#DejaVuSans-31"/>
       <use x="63.623047" xlink:href="#DejaVuSans-2e"/>
       <use x="95.410156" xlink:href="#DejaVuSans-32"/>
      </g>
     </g>
    </g>
   </g>
   <g id="line2d_25">
    <path clip-path="url(#p1c56d48fdc)" d="M 57.954545 22.262795 
L 62.834252 44.379049 
L 67.713958 59.716989 
L 72.593664 72.23534 
L 77.47337 80.154506 
L 82.353076 86.443047 
L 87.232782 93.911107 
L 92.112489 97.888501 
L 96.992195 101.617941 
L 101.871901 105.763674 
L 106.751607 108.805138 
L 111.631313 112.962909 
L 116.511019 114.900586 
L 121.390725 117.782113 
L 126.270432 117.421552 
L 131.150138 122.349393 
L 136.029844 123.690809 
L 140.90955 123.82333 
L 145.789256 126.081585 
L 150.668962 126.003125 
L 155.548669 129.085303 
L 160.428375 130.011369 
L 165.308081 131.331356 
L 170.187787 132.189447 
L 175.067493 132.60021 
L 179.947199 134.221427 
L 184.826905 133.428556 
L 189.706612 133.827437 
L 194.586318 135.316481 
L 199.466024 136.179747 
L 204.34573 136.362691 
L 209.225436 137.461854 
L 214.105142 138.708312 
L 218.984848 137.877833 
L 223.864555 138.21304 
L 228.744261 139.129252 
L 233.623967 139.795022 
L 238.503673 139.874433 
L 243.383379 140.724924 
L 248.263085 140.281791 
L 253.142792 141.451572 
L 258.022498 141.026277 
L 262.902204 139.879627 
L 267.78191 142.635079 
L 272.661616 142.747601 
L 277.541322 142.333502 
L 282.421028 142.781922 
L 287.300735 143.866713 
L 292.180441 143.846475 
L 297.060147 143.902867 
L 301.939853 145.239881 
L 306.819559 145.110736 
L 311.699265 145.697992 
L 316.578972 145.285501 
L 321.458678 146.964465 
L 326.338384 146.49153 
L 331.21809 146.603762 
L 336.097796 146.558676 
L 340.977502 146.614905 
L 345.857208 147.541072 
L 350.736915 146.254702 
L 355.616621 148.280217 
L 360.496327 146.705012 
L 365.376033 147.667805 
L 370.255739 147.151123 
L 375.135445 148.296389 
L 380.015152 149.234158 
L 384.894858 149.173136 
L 389.774564 148.760659 
L 394.65427 148.077455 
L 399.533976 148.341891 
L 404.413682 149.556965 
L 409.293388 149.751695 
L 414.173095 149.226855 
L 419.052801 148.770586 
L 423.932507 150.186832 
L 428.812213 149.879169 
L 433.691919 150.265901 
L 438.571625 150.294512 
L 443.451331 151.003187 
L 448.331038 150.283867 
L 453.210744 149.137772 
L 458.09045 150.720353 
L 462.970156 151.438276 
L 467.849862 149.851324 
L 472.729568 151.015085 
L 477.609275 151.005486 
L 482.488981 150.983912 
L 487.368687 151.595728 
L 492.248393 149.653351 
L 497.128099 152.095258 
L 502.007805 152.152962 
L 506.887511 152.596521 
L 511.767218 150.466962 
L 516.646924 152.459766 
L 521.52663 151.832811 
L 526.406336 152.534809 
L 531.286042 151.289925 
L 536.165748 152.547325 
L 541.045455 152.340727 
" style="fill:none;stroke:#e24a33;stroke-linecap:square;stroke-width:1.5;"/>
   </g>
   <g id="line2d_26">
    <path clip-path="url(#p1c56d48fdc)" d="M 57.954545 55.625292 
L 62.834252 88.093862 
L 67.713958 108.517806 
L 72.593664 118.616421 
L 77.47337 128.357448 
L 82.353076 136.398227 
L 87.232782 141.025927 
L 92.112489 143.964752 
L 96.992195 147.695977 
L 101.871901 153.193145 
L 106.751607 155.566242 
L 111.631313 156.278249 
L 116.511019 158.780177 
L 121.390725 160.981071 
L 126.270432 162.454202 
L 131.150138 165.014083 
L 136.029844 165.636428 
L 140.90955 168.491033 
L 145.789256 167.197591 
L 150.668962 168.024702 
L 155.548669 170.296814 
L 160.428375 172.675423 
L 165.308081 171.776066 
L 170.187787 172.753582 
L 175.067493 173.673872 
L 179.947199 173.827589 
L 184.826905 175.499619 
L 189.706612 176.319892 
L 194.586318 177.341416 
L 199.466024 176.798376 
L 204.34573 177.773501 
L 209.225436 175.067664 
L 214.105142 180.470908 
L 218.984848 180.307318 
L 223.864555 179.749558 
L 228.744261 180.532378 
L 233.623967 180.688659 
L 238.503673 181.520935 
L 243.383379 182.586863 
L 248.263085 181.942367 
L 253.142792 183.164456 
L 258.022498 182.466239 
L 262.902204 183.968844 
L 267.78191 183.418291 
L 272.661616 183.843478 
L 277.541322 184.111571 
L 282.421028 184.84747 
L 287.300735 186.282629 
L 292.180441 186.653355 
L 297.060147 187.247419 
L 301.939853 187.008503 
L 306.819559 187.47744 
L 311.699265 188.385751 
L 316.578972 188.170147 
L 321.458678 187.678087 
L 326.338384 188.216508 
L 331.21809 188.691794 
L 336.097796 189.132372 
L 340.977502 188.563225 
L 345.857208 190.065864 
L 350.736915 190.694339 
L 355.616621 190.436571 
L 360.496327 190.108294 
L 365.376033 191.182626 
L 370.255739 190.974316 
L 375.135445 189.224157 
L 380.015152 190.401408 
L 384.894858 191.72978 
L 389.774564 192.073111 
L 394.65427 191.990766 
L 399.533976 190.263736 
L 404.413682 191.99741 
L 409.293388 192.722061 
L 414.173095 192.646886 
L 419.052801 192.59431 
L 423.932507 193.212353 
L 428.812213 191.301189 
L 433.691919 192.950003 
L 438.571625 194.117596 
L 443.451331 195.030333 
L 448.331038 193.83289 
L 453.210744 192.19984 
L 458.09045 195.189011 
L 462.970156 194.196888 
L 467.849862 194.637599 
L 472.729568 194.346931 
L 477.609275 196.229528 
L 482.488981 196.848946 
L 487.368687 195.991893 
L 492.248393 195.42557 
L 497.128099 196.445449 
L 502.007805 195.03978 
L 506.887511 194.96241 
L 511.767218 195.279391 
L 516.646924 195.717666 
L 521.52663 197.459867 
L 526.406336 196.923903 
L 531.286042 195.6302 
L 536.165748 195.990729 
L 541.045455 196.804839 
" style="fill:none;stroke:#348abd;stroke-linecap:square;stroke-width:1.5;"/>
   </g>
   <g id="line2d_27">
    <path clip-path="url(#p1c56d48fdc)" d="M 57.954545 85.580412 
L 62.834252 125.926025 
L 67.713958 144.423707 
L 72.593664 154.389508 
L 77.47337 164.184279 
L 82.353076 168.613695 
L 87.232782 172.092012 
L 92.112489 176.516552 
L 96.992195 181.514233 
L 101.871901 183.013778 
L 106.751607 187.055522 
L 111.631313 188.152062 
L 116.511019 188.287536 
L 121.390725 189.888792 
L 126.270432 192.158983 
L 131.150138 194.007048 
L 136.029844 193.072264 
L 140.90955 197.72714 
L 145.789256 199.240028 
L 150.668962 199.956978 
L 155.548669 201.221517 
L 160.428375 202.123544 
L 165.308081 202.516818 
L 170.187787 203.518199 
L 175.067493 203.99084 
L 179.947199 205.073794 
L 184.826905 206.194097 
L 189.706612 207.712243 
L 194.586318 207.851319 
L 199.466024 207.405199 
L 204.34573 209.066415 
L 209.225436 209.550394 
L 214.105142 210.775008 
L 218.984848 211.561087 
L 223.864555 211.045998 
L 228.744261 210.467905 
L 233.623967 211.988333 
L 238.503673 212.284456 
L 243.383379 212.69098 
L 248.263085 214.120329 
L 253.142792 215.672753 
L 258.022498 214.400043 
L 262.902204 215.571428 
L 267.78191 215.379392 
L 272.661616 216.043621 
L 277.541322 216.916513 
L 282.421028 215.054235 
L 287.300735 217.460858 
L 292.180441 219.014806 
L 297.060147 219.553854 
L 301.939853 219.39636 
L 306.819559 219.718472 
L 311.699265 219.006738 
L 316.578972 217.973788 
L 321.458678 220.901536 
L 326.338384 221.821063 
L 331.21809 220.960081 
L 336.097796 221.991732 
L 340.977502 222.826989 
L 345.857208 220.617087 
L 350.736915 222.872756 
L 355.616621 222.998353 
L 360.496327 223.148201 
L 365.376033 221.171886 
L 370.255739 224.596429 
L 375.135445 221.254721 
L 380.015152 224.89888 
L 384.894858 223.979322 
L 389.774564 225.677657 
L 394.65427 224.644957 
L 399.533976 225.017328 
L 404.413682 227.15223 
L 409.293388 224.383337 
L 414.173095 226.630371 
L 419.052801 227.358911 
L 423.932507 226.709469 
L 428.812213 227.058403 
L 433.691919 226.246772 
L 438.571625 227.194752 
L 443.451331 228.587911 
L 448.331038 228.3933 
L 453.210744 228.137496 
L 458.09045 226.377748 
L 462.970156 228.938245 
L 467.849862 229.024219 
L 472.729568 229.419137 
L 477.609275 227.273473 
L 482.488981 229.795434 
L 487.368687 229.229594 
L 492.248393 228.631185 
L 497.128099 229.948465 
L 502.007805 229.252122 
L 506.887511 230.676367 
L 511.767218 230.136138 
L 516.646924 229.864068 
L 521.52663 228.436627 
L 526.406336 232.09865 
L 531.286042 232.636364 
L 536.165748 230.099709 
L 541.045455 231.689111 
" style="fill:none;stroke:#988ed5;stroke-linecap:square;stroke-width:1.5;"/>
   </g>
   <g id="line2d_28">
    <path clip-path="url(#p1c56d48fdc)" d="M 57.954545 21.363636 
L 62.834252 41.801484 
L 67.713958 56.07472 
L 72.593664 67.671608 
L 77.47337 74.496444 
L 82.353076 80.750174 
L 87.232782 86.836197 
L 92.112489 90.66753 
L 96.992195 93.245573 
L 101.871901 97.238261 
L 106.751607 99.198167 
L 111.631313 103.391045 
L 116.511019 105.075517 
L 121.390725 106.383177 
L 126.270432 106.335119 
L 131.150138 110.457103 
L 136.029844 111.776734 
L 140.90955 111.36807 
L 145.789256 112.536438 
L 150.668962 112.886326 
L 155.548669 115.053756 
L 160.428375 115.647058 
L 165.308081 117.306602 
L 170.187787 118.004185 
L 175.067493 117.17064 
L 179.947199 118.605355 
L 184.826905 118.072601 
L 189.706612 118.4099 
L 194.586318 118.521599 
L 199.466024 119.888015 
L 204.34573 119.326357 
L 209.225436 120.66317 
L 214.105142 121.793766 
L 218.984848 120.913017 
L 223.864555 120.812814 
L 228.744261 121.569919 
L 233.623967 121.984311 
L 238.503673 121.197877 
L 243.383379 121.965621 
L 248.263085 121.6274 
L 253.142792 122.42414 
L 258.022498 121.309435 
L 262.902204 120.585249 
L 267.78191 123.32755 
L 272.661616 122.517145 
L 277.541322 121.40442 
L 282.421028 121.403113 
L 287.300735 123.369916 
L 292.180441 122.097652 
L 297.060147 122.092147 
L 301.939853 123.404735 
L 306.819559 123.476281 
L 311.699265 123.644096 
L 316.578972 122.788009 
L 321.458678 124.636318 
L 326.338384 123.252287 
L 331.21809 123.335688 
L 336.097796 123.131509 
L 340.977502 122.923092 
L 345.857208 123.674039 
L 350.736915 122.400079 
L 355.616621 124.278953 
L 360.496327 121.931442 
L 365.376033 123.298207 
L 370.255739 123.104698 
L 375.135445 124.333181 
L 380.015152 124.173656 
L 384.894858 123.754629 
L 389.774564 123.516267 
L 394.65427 122.328235 
L 399.533976 122.427239 
L 404.413682 123.181 
L 409.293388 123.78536 
L 414.173095 123.017069 
L 419.052801 122.235131 
L 423.932507 123.638831 
L 428.812213 122.428288 
L 433.691919 123.319864 
L 438.571625 123.087097 
L 443.451331 124.330358 
L 448.331038 122.452431 
L 453.210744 122.157972 
L 458.09045 122.446861 
L 462.970156 123.440005 
L 467.849862 121.988753 
L 472.729568 122.511505 
L 477.609275 122.378042 
L 482.488981 122.38646 
L 487.368687 122.592242 
L 492.248393 120.169569 
L 497.128099 122.905138 
L 502.007805 123.192534 
L 506.887511 122.844462 
L 511.767218 120.950934 
L 516.646924 122.750584 
L 521.52663 121.804224 
L 526.406336 122.652644 
L 531.286042 121.14071 
L 536.165748 122.211783 
L 541.045455 122.492421 
" style="fill:none;stroke:#777777;stroke-dasharray:5.55,2.4;stroke-dashoffset:0;stroke-width:1.5;"/>
   </g>
   <g id="line2d_29">
    <path clip-path="url(#p1c56d48fdc)" d="M 57.954545 53.220939 
L 62.834252 83.08908 
L 67.713958 102.087163 
L 72.593664 110.890797 
L 77.47337 119.129134 
L 82.353076 125.439959 
L 87.232782 128.858278 
L 92.112489 130.205692 
L 96.992195 133.527496 
L 101.871901 137.384749 
L 106.751607 139.53963 
L 111.631313 139.159901 
L 116.511019 141.632327 
L 121.390725 142.371967 
L 126.270432 141.95282 
L 131.150138 144.58339 
L 136.029844 143.56922 
L 140.90955 146.153712 
L 145.789256 143.796287 
L 150.668962 144.389872 
L 155.548669 145.071806 
L 160.428375 147.555824 
L 165.308081 145.974835 
L 170.187787 146.194257 
L 175.067493 146.547777 
L 179.947199 146.06288 
L 184.826905 146.99057 
L 189.706612 147.061724 
L 194.586318 146.797684 
L 199.466024 145.846966 
L 204.34573 145.806425 
L 209.225436 143.405063 
L 214.105142 147.365341 
L 218.984848 146.523869 
L 223.864555 145.520868 
L 228.744261 145.871687 
L 233.623967 144.878532 
L 238.503673 145.107473 
L 243.383379 145.546593 
L 248.263085 144.705933 
L 253.142792 144.93903 
L 258.022498 144.078306 
L 262.902204 145.470741 
L 267.78191 144.649337 
L 272.661616 143.548975 
L 277.541322 143.71727 
L 282.421028 143.974601 
L 287.300735 144.312043 
L 292.180441 143.502514 
L 297.060147 144.989478 
L 301.939853 144.508736 
L 306.819559 143.828565 
L 311.699265 144.429528 
L 316.578972 143.691958 
L 321.458678 142.534213 
L 326.338384 142.824392 
L 331.21809 143.073886 
L 336.097796 141.726238 
L 340.977502 141.710594 
L 345.857208 142.768807 
L 350.736915 142.13952 
L 355.616621 141.298066 
L 360.496327 141.260276 
L 365.376033 141.952377 
L 370.255739 141.515113 
L 375.135445 139.23298 
L 380.015152 139.540609 
L 384.894858 140.006934 
L 389.774564 139.736201 
L 394.65427 139.750564 
L 399.533976 137.661529 
L 404.413682 139.051396 
L 409.293388 138.379026 
L 414.173095 137.466916 
L 419.052801 137.690968 
L 423.932507 137.478393 
L 428.812213 135.956123 
L 433.691919 136.070509 
L 438.571625 136.890216 
L 443.451331 137.752313 
L 448.331038 136.080552 
L 453.210744 133.56865 
L 458.09045 137.170555 
L 462.970156 134.968114 
L 467.849862 135.229824 
L 472.729568 134.742584 
L 477.609275 135.698914 
L 482.488981 135.419202 
L 487.368687 135.695455 
L 492.248393 133.494559 
L 497.128099 133.959835 
L 502.007805 132.055642 
L 506.887511 131.776951 
L 511.767218 131.97333 
L 516.646924 132.000888 
L 521.52663 133.284222 
L 526.406336 132.237349 
L 531.286042 131.104776 
L 536.165748 129.874677 
L 541.045455 130.010982 
" style="fill:none;stroke:#fbc15e;stroke-dasharray:5.55,2.4;stroke-dashoffset:0;stroke-width:1.5;"/>
   </g>
   <g id="line2d_30">
    <path clip-path="url(#p1c56d48fdc)" d="M 57.954545 82.393892 
L 62.834252 118.558008 
L 67.713958 134.159703 
L 72.593664 141.97621 
L 77.47337 149.174098 
L 82.353076 151.574464 
L 87.232782 153.126295 
L 92.112489 154.971118 
L 96.992195 157.731494 
L 101.871901 156.998652 
L 106.751607 159.06203 
L 111.631313 157.440777 
L 116.511019 156.007534 
L 121.390725 155.59978 
L 126.270432 156.784523 
L 131.150138 156.962536 
L 136.029844 153.847934 
L 140.90955 157.502645 
L 145.789256 156.606136 
L 150.668962 155.721591 
L 155.548669 155.441026 
L 160.428375 155.494345 
L 165.308081 152.681971 
L 170.187787 152.335621 
L 175.067493 152.563381 
L 179.947199 149.530853 
L 184.826905 150.590894 
L 189.706612 149.958701 
L 194.586318 148.784521 
L 199.466024 146.425763 
L 204.34573 146.903284 
L 209.225436 144.237297 
L 214.105142 145.385814 
L 218.984848 144.678092 
L 223.864555 143.42069 
L 228.744261 140.040231 
L 233.623967 141.085565 
L 238.503673 139.103194 
L 243.383379 138.836275 
L 248.263085 138.391209 
L 253.142792 139.149365 
L 258.022498 135.512882 
L 262.902204 134.842366 
L 267.78191 132.826824 
L 272.661616 132.779456 
L 277.541322 131.710255 
L 282.421028 129.20837 
L 287.300735 128.805847 
L 292.180441 128.78937 
L 297.060147 128.68371 
L 301.939853 126.192878 
L 306.819559 125.506441 
L 311.699265 122.317312 
L 316.578972 120.424849 
L 321.458678 124.026498 
L 326.338384 122.427106 
L 331.21809 119.68953 
L 336.097796 119.048108 
L 340.977502 118.423677 
L 345.857208 115.292183 
L 350.736915 116.180141 
L 355.616621 113.979321 
L 360.496327 112.739445 
L 365.376033 109.789281 
L 370.255739 113.911535 
L 375.135445 108.246659 
L 380.015152 109.099851 
L 384.894858 108.405481 
L 389.774564 106.07673 
L 394.65427 104.678655 
L 399.533976 103.254122 
L 404.413682 105.257575 
L 409.293388 99.561924 
L 414.173095 103.313288 
L 419.052801 100.824525 
L 423.932507 99.316839 
L 428.812213 97.889097 
L 433.691919 95.250491 
L 438.571625 95.676148 
L 443.451331 93.573979 
L 448.331038 94.539385 
L 453.210744 93.203249 
L 458.09045 86.86074 
L 462.970156 89.243339 
L 467.849862 87.550674 
L 472.729568 86.845493 
L 477.609275 84.221188 
L 482.488981 84.08681 
L 487.368687 81.907537 
L 492.248393 81.319472 
L 497.128099 77.792972 
L 502.007805 80.407492 
L 506.887511 79.496292 
L 511.767218 76.548057 
L 516.646924 75.033976 
L 521.52663 69.47351 
L 526.406336 74.423522 
L 531.286042 74.172151 
L 536.165748 69.725411 
L 541.045455 67.398177 
" style="fill:none;stroke:#8eba42;stroke-dasharray:5.55,2.4;stroke-dashoffset:0;stroke-width:1.5;"/>
   </g>
   <g id="patch_3">
    <path d="M 33.8 243.2 
L 33.8 10.8 
" style="fill:none;stroke:#ffffff;stroke-linecap:square;stroke-linejoin:miter;"/>
   </g>
   <g id="patch_4">
    <path d="M 565.2 243.2 
L 565.2 10.8 
" style="fill:none;stroke:#ffffff;stroke-linecap:square;stroke-linejoin:miter;"/>
   </g>
   <g id="patch_5">
    <path d="M 33.8 243.2 
L 565.2 243.2 
" style="fill:none;stroke:#ffffff;stroke-linecap:square;stroke-linejoin:miter;"/>
   </g>
   <g id="patch_6">
    <path d="M 33.8 10.8 
L 565.2 10.8 
" style="fill:none;stroke:#ffffff;stroke-linecap:square;stroke-linejoin:miter;"/>
   </g>
   <g id="legend_1">
    <g id="patch_7">
     <path d="M 241.119531 106.86875 
L 357.880469 106.86875 
Q 359.880469 106.86875 359.880469 104.86875 
L 359.880469 17.8 
Q 359.880469 15.8 357.880469 15.8 
L 241.119531 15.8 
Q 239.119531 15.8 239.119531 17.8 
L 239.119531 104.86875 
Q 239.119531 106.86875 241.119531 106.86875 
z
" style="fill:#e5e5e5;opacity:0.8;stroke:#cccccc;stroke-linejoin:miter;stroke-width:0.5;"/>
    </g>
    <g id="line2d_31">
     <path d="M 243.119531 23.898438 
L 263.119531 23.898438 
" style="fill:none;stroke:#e24a33;stroke-linecap:square;stroke-width:1.5;"/>
    </g>
    <g id="line2d_32"/>
    <g id="text_14">
     <!-- width 32 (train) -->
     <g transform="translate(271.119531 27.398438)scale(0.1 -0.1)">
      <defs>
       <path d="M 269 3500 
L 844 3500 
L 1563 769 
L 2278 3500 
L 2956 3500 
L 3675 769 
L 4391 3500 
L 4966 3500 
L 4050 0 
L 3372 0 
L 2619 2869 
L 1863 0 
L 1184 0 
L 269 3500 
z
" id="DejaVuSans-77" transform="scale(0.015625)"/>
       <path d="M 603 3500 
L 1178 3500 
L 1178 0 
L 603 0 
L 603 3500 
z
M 603 4863 
L 1178 4863 
L 1178 4134 
L 603 4134 
L 603 4863 
z
" id="DejaVuSans-69" transform="scale(0.015625)"/>
       <path d="M 2906 2969 
L 2906 4863 
L 3481 4863 
L 3481 0 
L 2906 0 
L 2906 525 
Q 2725 213 2448 61 
Q 2172 -91 1784 -91 
Q 1150 -91 751 415 
Q 353 922 353 1747 
Q 353 2572 751 3078 
Q 1150 3584 1784 3584 
Q 2172 3584 2448 3432 
Q 2725 3281 2906 2969 
z
M 947 1747 
Q 947 1113 1208 752 
Q 1469 391 1925 391 
Q 2381 391 2643 752 
Q 2906 1113 2906 1747 
Q 2906 2381 2643 2742 
Q 2381 3103 1925 3103 
Q 1469 3103 1208 2742 
Q 947 2381 947 1747 
z
" id="DejaVuSans-64" transform="scale(0.015625)"/>
       <path d="M 1172 4494 
L 1172 3500 
L 2356 3500 
L 2356 3053 
L 1172 3053 
L 1172 1153 
Q 1172 725 1289 603 
Q 1406 481 1766 481 
L 2356 481 
L 2356 0 
L 1766 0 
Q 1100 0 847 248 
Q 594 497 594 1153 
L 594 3053 
L 172 3053 
L 172 3500 
L 594 3500 
L 594 4494 
L 1172 4494 
z
" id="DejaVuSans-74" transform="scale(0.015625)"/>
       <path d="M 2597 2516 
Q 3050 2419 3304 2112 
Q 3559 1806 3559 1356 
Q 3559 666 3084 287 
Q 2609 -91 1734 -91 
Q 1441 -91 1130 -33 
Q 819 25 488 141 
L 488 750 
Q 750 597 1062 519 
Q 1375 441 1716 441 
Q 2309 441 2620 675 
Q 2931 909 2931 1356 
Q 2931 1769 2642 2001 
Q 2353 2234 1838 2234 
L 1294 2234 
L 1294 2753 
L 1863 2753 
Q 2328 2753 2575 2939 
Q 2822 3125 2822 3475 
Q 2822 3834 2567 4026 
Q 2313 4219 1838 4219 
Q 1578 4219 1281 4162 
Q 984 4106 628 3988 
L 628 4550 
Q 988 4650 1302 4700 
Q 1616 4750 1894 4750 
Q 2613 4750 3031 4423 
Q 3450 4097 3450 3541 
Q 3450 3153 3228 2886 
Q 3006 2619 2597 2516 
z
" id="DejaVuSans-33" transform="scale(0.015625)"/>
       <path d="M 1984 4856 
Q 1566 4138 1362 3434 
Q 1159 2731 1159 2009 
Q 1159 1288 1364 580 
Q 1569 -128 1984 -844 
L 1484 -844 
Q 1016 -109 783 600 
Q 550 1309 550 2009 
Q 550 2706 781 3412 
Q 1013 4119 1484 4856 
L 1984 4856 
z
" id="DejaVuSans-28" transform="scale(0.015625)"/>
       <path d="M 2194 1759 
Q 1497 1759 1228 1600 
Q 959 1441 959 1056 
Q 959 750 1161 570 
Q 1363 391 1709 391 
Q 2188 391 2477 730 
Q 2766 1069 2766 1631 
L 2766 1759 
L 2194 1759 
z
M 3341 1997 
L 3341 0 
L 2766 0 
L 2766 531 
Q 2569 213 2275 61 
Q 1981 -91 1556 -91 
Q 1019 -91 701 211 
Q 384 513 384 1019 
Q 384 1609 779 1909 
Q 1175 2209 1959 2209 
L 2766 2209 
L 2766 2266 
Q 2766 2663 2505 2880 
Q 2244 3097 1772 3097 
Q 1472 3097 1187 3025 
Q 903 2953 641 2809 
L 641 3341 
Q 956 3463 1253 3523 
Q 1550 3584 1831 3584 
Q 2591 3584 2966 3190 
Q 3341 2797 3341 1997 
z
" id="DejaVuSans-61" transform="scale(0.015625)"/>
       <path d="M 513 4856 
L 1013 4856 
Q 1481 4119 1714 3412 
Q 1947 2706 1947 2009 
Q 1947 1309 1714 600 
Q 1481 -109 1013 -844 
L 513 -844 
Q 928 -128 1133 580 
Q 1338 1288 1338 2009 
Q 1338 2731 1133 3434 
Q 928 4138 513 4856 
z
" id="DejaVuSans-29" transform="scale(0.015625)"/>
      </defs>
      <use xlink:href="#DejaVuSans-77"/>
      <use x="81.787109" xlink:href="#DejaVuSans-69"/>
      <use x="109.570312" xlink:href="#DejaVuSans-64"/>
      <use x="173.046875" xlink:href="#DejaVuSans-74"/>
      <use x="212.255859" xlink:href="#DejaVuSans-68"/>
      <use x="275.634766" xlink:href="#DejaVuSans-20"/>
      <use x="307.421875" xlink:href="#DejaVuSans-33"/>
      <use x="371.044922" xlink:href="#DejaVuSans-32"/>
      <use x="434.667969" xlink:href="#DejaVuSans-20"/>
      <use x="466.455078" xlink:href="#DejaVuSans-28"/>
      <use x="505.46875" xlink:href="#DejaVuSans-74"/>
      <use x="544.677734" xlink:href="#DejaVuSans-72"/>
      <use x="585.791016" xlink:href="#DejaVuSans-61"/>
      <use x="647.070312" xlink:href="#DejaVuSans-69"/>
      <use x="674.853516" xlink:href="#DejaVuSans-6e"/>
      <use x="738.232422" xlink:href="#DejaVuSans-29"/>
     </g>
    </g>
    <g id="line2d_33">
     <path d="M 243.119531 38.576563 
L 263.119531 38.576563 
" style="fill:none;stroke:#348abd;stroke-linecap:square;stroke-width:1.5;"/>
    </g>
    <g id="line2d_34"/>
    <g id="text_15">
     <!-- width 64 (train) -->
     <g transform="translate(271.119531 42.076563)scale(0.1 -0.1)">
      <use xlink:href="#DejaVuSans-77"/>
      <use x="81.787109" xlink:href="#DejaVuSans-69"/>
      <use x="109.570312" xlink:href="#DejaVuSans-64"/>
      <use x="173.046875" xlink:href="#DejaVuSans-74"/>
      <use x="212.255859" xlink:href="#DejaVuSans-68"/>
      <use x="275.634766" xlink:href="#DejaVuSans-20"/>
      <use x="307.421875" xlink:href="#DejaVuSans-36"/>
      <use x="371.044922" xlink:href="#DejaVuSans-34"/>
      <use x="434.667969" xlink:href="#DejaVuSans-20"/>
      <use x="466.455078" xlink:href="#DejaVuSans-28"/>
      <use x="505.46875" xlink:href="#DejaVuSans-74"/>
      <use x="544.677734" xlink:href="#DejaVuSans-72"/>
      <use x="585.791016" xlink:href="#DejaVuSans-61"/>
      <use x="647.070312" xlink:href="#DejaVuSans-69"/>
      <use x="674.853516" xlink:href="#DejaVuSans-6e"/>
      <use x="738.232422" xlink:href="#DejaVuSans-29"/>
     </g>
    </g>
    <g id="line2d_35">
     <path d="M 243.119531 53.254688 
L 263.119531 53.254688 
" style="fill:none;stroke:#988ed5;stroke-linecap:square;stroke-width:1.5;"/>
    </g>
    <g id="line2d_36"/>
    <g id="text_16">
     <!-- width 128 (train) -->
     <g transform="translate(271.119531 56.754688)scale(0.1 -0.1)">
      <use xlink:href="#DejaVuSans-77"/>
      <use x="81.787109" xlink:href="#DejaVuSans-69"/>
      <use x="109.570312" xlink:href="#DejaVuSans-64"/>
      <use x="173.046875" xlink:href="#DejaVuSans-74"/>
      <use x="212.255859" xlink:href="#DejaVuSans-68"/>
      <use x="275.634766" xlink:href="#DejaVuSans-20"/>
      <use x="307.421875" xlink:href="#DejaVuSans-31"/>
      <use x="371.044922" xlink:href="#DejaVuSans-32"/>
      <use x="434.667969" xlink:href="#DejaVuSans-38"/>
      <use x="498.291016" xlink:href="#DejaVuSans-20"/>
      <use x="530.078125" xlink:href="#DejaVuSans-28"/>
      <use x="569.091797" xlink:href="#DejaVuSans-74"/>
      <use x="608.300781" xlink:href="#DejaVuSans-72"/>
      <use x="649.414062" xlink:href="#DejaVuSans-61"/>
      <use x="710.693359" xlink:href="#DejaVuSans-69"/>
      <use x="738.476562" xlink:href="#DejaVuSans-6e"/>
      <use x="801.855469" xlink:href="#DejaVuSans-29"/>
     </g>
    </g>
    <g id="line2d_37">
     <path d="M 243.119531 67.932813 
L 263.119531 67.932813 
" style="fill:none;stroke:#777777;stroke-dasharray:5.55,2.4;stroke-dashoffset:0;stroke-width:1.5;"/>
    </g>
    <g id="line2d_38"/>
    <g id="text_17">
     <!-- width 32 (valid) -->
     <g transform="translate(271.119531 71.432813)scale(0.1 -0.1)">
      <defs>
       <path d="M 191 3500 
L 800 3500 
L 1894 563 
L 2988 3500 
L 3597 3500 
L 2284 0 
L 1503 0 
L 191 3500 
z
" id="DejaVuSans-76" transform="scale(0.015625)"/>
       <path d="M 603 4863 
L 1178 4863 
L 1178 0 
L 603 0 
L 603 4863 
z
" id="DejaVuSans-6c" transform="scale(0.015625)"/>
      </defs>
      <use xlink:href="#DejaVuSans-77"/>
      <use x="81.787109" xlink:href="#DejaVuSans-69"/>
      <use x="109.570312" xlink:href="#DejaVuSans-64"/>
      <use x="173.046875" xlink:href="#DejaVuSans-74"/>
      <use x="212.255859" xlink:href="#DejaVuSans-68"/>
      <use x="275.634766" xlink:href="#DejaVuSans-20"/>
      <use x="307.421875" xlink:href="#DejaVuSans-33"/>
      <use x="371.044922" xlink:href="#DejaVuSans-32"/>
      <use x="434.667969" xlink:href="#DejaVuSans-20"/>
      <use x="466.455078" xlink:href="#DejaVuSans-28"/>
      <use x="505.46875" xlink:href="#DejaVuSans-76"/>
      <use x="564.648438" xlink:href="#DejaVuSans-61"/>
      <use x="625.927734" xlink:href="#DejaVuSans-6c"/>
      <use x="653.710938" xlink:href="#DejaVuSans-69"/>
      <use x="681.494141" xlink:href="#DejaVuSans-64"/>
      <use x="744.970703" xlink:href="#DejaVuSans-29"/>
     </g>
    </g>
    <g id="line2d_39">
     <path d="M 243.119531 82.610938 
L 263.119531 82.610938 
" style="fill:none;stroke:#fbc15e;stroke-dasharray:5.55,2.4;stroke-dashoffset:0;stroke-width:1.5;"/>
    </g>
    <g id="line2d_40"/>
    <g id="text_18">
     <!-- width 64 (valid) -->
     <g transform="translate(271.119531 86.110938)scale(0.1 -0.1)">
      <use xlink:href="#DejaVuSans-77"/>
      <use x="81.787109" xlink:href="#DejaVuSans-69"/>
      <use x="109.570312" xlink:href="#DejaVuSans-64"/>
      <use x="173.046875" xlink:href="#DejaVuSans-74"/>
      <use x="212.255859" xlink:href="#DejaVuSans-68"/>
      <use x="275.634766" xlink:href="#DejaVuSans-20"/>
      <use x="307.421875" xlink:href="#DejaVuSans-36"/>
      <use x="371.044922" xlink:href="#DejaVuSans-34"/>
      <use x="434.667969" xlink:href="#DejaVuSans-20"/>
      <use x="466.455078" xlink:href="#DejaVuSans-28"/>
      <use x="505.46875" xlink:href="#DejaVuSans-76"/>
      <use x="564.648438" xlink:href="#DejaVuSans-61"/>
      <use x="625.927734" xlink:href="#DejaVuSans-6c"/>
      <use x="653.710938" xlink:href="#DejaVuSans-69"/>
      <use x="681.494141" xlink:href="#DejaVuSans-64"/>
      <use x="744.970703" xlink:href="#DejaVuSans-29"/>
     </g>
    </g>
    <g id="line2d_41">
     <path d="M 243.119531 97.289063 
L 263.119531 97.289063 
" style="fill:none;stroke:#8eba42;stroke-dasharray:5.55,2.4;stroke-dashoffset:0;stroke-width:1.5;"/>
    </g>
    <g id="line2d_42"/>
    <g id="text_19">
     <!-- width 128 (valid) -->
     <g transform="translate(271.119531 100.789063)scale(0.1 -0.1)">
      <use xlink:href="#DejaVuSans-77"/>
      <use x="81.787109" xlink:href="#DejaVuSans-69"/>
      <use x="109.570312" xlink:href="#DejaVuSans-64"/>
      <use x="173.046875" xlink:href="#DejaVuSans-74"/>
      <use x="212.255859" xlink:href="#DejaVuSans-68"/>
      <use x="275.634766" xlink:href="#DejaVuSans-20"/>
      <use x="307.421875" xlink:href="#DejaVuSans-31"/>
      <use x="371.044922" xlink:href="#DejaVuSans-32"/>
      <use x="434.667969" xlink:href="#DejaVuSans-38"/>
      <use x="498.291016" xlink:href="#DejaVuSans-20"/>
      <use x="530.078125" xlink:href="#DejaVuSans-28"/>
      <use x="569.091797" xlink:href="#DejaVuSans-76"/>
      <use x="628.271484" xlink:href="#DejaVuSans-61"/>
      <use x="689.550781" xlink:href="#DejaVuSans-6c"/>
      <use x="717.333984" xlink:href="#DejaVuSans-69"/>
      <use x="745.117188" xlink:href="#DejaVuSans-64"/>
      <use x="808.59375" xlink:href="#DejaVuSans-29"/>
     </g>
    </g>
   </g>
  </g>
 </g>
 <defs>
  <clipPath id="p1c56d48fdc">
   <rect height="232.4" width="531.4" x="33.8" y="10.8"/>
  </clipPath>
 </defs>
</svg>
