<?xml version="1.0" encoding="utf-8" standalone="no"?>
<!DOCTYPE svg PUBLIC "-//W3C//DTD SVG 1.1//EN"
  "http://www.w3.org/Graphics/SVG/1.1/DTD/svg11.dtd">
<svg height="288pt" version="1.1" viewBox="0 0 576 288" width="576pt" xmlns="http://www.w3.org/2000/svg" xmlns:xlink="http://www.w3.org/1999/xlink">
 <metadata>
  <rdf:RDF xmlns:cc="http://creativecommons.org/ns#" xmlns:dc="http://purl.org/dc/elements/1.1/" xmlns:rdf="http://www.w3.org/1999/02/22-rdf-syntax-ns#">
   <cc:Work>
    <dc:type rdf:resource="http://purl.org/dc/dcmitype/StillImage"/>
    <dc:date>2021-11-04T21:11:29.916816</dc:date>
    <dc:format>image/svg+xml</dc:format>
    <dc:creator>
     <cc:Agent>
      <dc:title>Matplotlib v3.4.3, https://matplotlib.org/</dc:title>
     </cc:Agent>
    </dc:creator>
   </cc:Work>
  </rdf:RDF>
 </metadata>
 <defs>
  <style type="text/css">*{stroke-linecap:butt;stroke-linejoin:round;}</style>
 </defs>
 <g id="figure_1">
  <g id="patch_1">
   <path d="M 0 288 
L 576 288 
L 576 0 
L 0 0 
z
" style="fill:#ffffff;"/>
  </g>
  <g id="axes_1">
   <g id="patch_2">
    <path d="M 40.05 243.2 
L 565.2 243.2 
L 565.2 10.8 
L 40.05 10.8 
z
" style="fill:#e5e5e5;"/>
   </g>
   <g id="matplotlib.axis_1">
    <g id="xtick_1">
     <g id="line2d_1">
      <path clip-path="url(#p3e8c0030a3)" d="M 59.09814 243.2 
L 59.09814 10.8 
" style="fill:none;stroke:#ffffff;stroke-linecap:square;stroke-width:0.8;"/>
     </g>
     <g id="line2d_2">
      <defs>
       <path d="M 0 0 
L 0 3.5 
" id="md83452cc5d" style="stroke:#555555;stroke-width:0.8;"/>
      </defs>
      <g>
       <use style="fill:#555555;stroke:#555555;stroke-width:0.8;" x="59.09814" xlink:href="#md83452cc5d" y="243.2"/>
      </g>
     </g>
     <g id="text_1">
      <!-- 0 -->
      <g style="fill:#555555;" transform="translate(55.91689 257.798437)scale(0.1 -0.1)">
       <defs>
        <path d="M 2034 4250 
Q 1547 4250 1301 3770 
Q 1056 3291 1056 2328 
Q 1056 1369 1301 889 
Q 1547 409 2034 409 
Q 2525 409 2770 889 
Q 3016 1369 3016 2328 
Q 3016 3291 2770 3770 
Q 2525 4250 2034 4250 
z
M 2034 4750 
Q 2819 4750 3233 4129 
Q 3647 3509 3647 2328 
Q 3647 1150 3233 529 
Q 2819 -91 2034 -91 
Q 1250 -91 836 529 
Q 422 1150 422 2328 
Q 422 3509 836 4129 
Q 1250 4750 2034 4750 
z
" id="DejaVuSans-30" transform="scale(0.015625)"/>
       </defs>
       <use xlink:href="#DejaVuSans-30"/>
      </g>
     </g>
    </g>
    <g id="xtick_2">
     <g id="line2d_3">
      <path clip-path="url(#p3e8c0030a3)" d="M 155.544421 243.2 
L 155.544421 10.8 
" style="fill:none;stroke:#ffffff;stroke-linecap:square;stroke-width:0.8;"/>
     </g>
     <g id="line2d_4">
      <g>
       <use style="fill:#555555;stroke:#555555;stroke-width:0.8;" x="155.544421" xlink:href="#md83452cc5d" y="243.2"/>
      </g>
     </g>
     <g id="text_2">
      <!-- 20 -->
      <g style="fill:#555555;" transform="translate(149.181921 257.798437)scale(0.1 -0.1)">
       <defs>
        <path d="M 1228 531 
L 3431 531 
L 3431 0 
L 469 0 
L 469 531 
Q 828 903 1448 1529 
Q 2069 2156 2228 2338 
Q 2531 2678 2651 2914 
Q 2772 3150 2772 3378 
Q 2772 3750 2511 3984 
Q 2250 4219 1831 4219 
Q 1534 4219 1204 4116 
Q 875 4013 500 3803 
L 500 4441 
Q 881 4594 1212 4672 
Q 1544 4750 1819 4750 
Q 2544 4750 2975 4387 
Q 3406 4025 3406 3419 
Q 3406 3131 3298 2873 
Q 3191 2616 2906 2266 
Q 2828 2175 2409 1742 
Q 1991 1309 1228 531 
z
" id="DejaVuSans-32" transform="scale(0.015625)"/>
       </defs>
       <use xlink:href="#DejaVuSans-32"/>
       <use x="63.623047" xlink:href="#DejaVuSans-30"/>
      </g>
     </g>
    </g>
    <g id="xtick_3">
     <g id="line2d_5">
      <path clip-path="url(#p3e8c0030a3)" d="M 251.990702 243.2 
L 251.990702 10.8 
" style="fill:none;stroke:#ffffff;stroke-linecap:square;stroke-width:0.8;"/>
     </g>
     <g id="line2d_6">
      <g>
       <use style="fill:#555555;stroke:#555555;stroke-width:0.8;" x="251.990702" xlink:href="#md83452cc5d" y="243.2"/>
      </g>
     </g>
     <g id="text_3">
      <!-- 40 -->
      <g style="fill:#555555;" transform="translate(245.628202 257.798437)scale(0.1 -0.1)">
       <defs>
        <path d="M 2419 4116 
L 825 1625 
L 2419 1625 
L 2419 4116 
z
M 2253 4666 
L 3047 4666 
L 3047 1625 
L 3713 1625 
L 3713 1100 
L 3047 1100 
L 3047 0 
L 2419 0 
L 2419 1100 
L 313 1100 
L 313 1709 
L 2253 4666 
z
" id="DejaVuSans-34" transform="scale(0.015625)"/>
       </defs>
       <use xlink:href="#DejaVuSans-34"/>
       <use x="63.623047" xlink:href="#DejaVuSans-30"/>
      </g>
     </g>
    </g>
    <g id="xtick_4">
     <g id="line2d_7">
      <path clip-path="url(#p3e8c0030a3)" d="M 348.436983 243.2 
L 348.436983 10.8 
" style="fill:none;stroke:#ffffff;stroke-linecap:square;stroke-width:0.8;"/>
     </g>
     <g id="line2d_8">
      <g>
       <use style="fill:#555555;stroke:#555555;stroke-width:0.8;" x="348.436983" xlink:href="#md83452cc5d" y="243.2"/>
      </g>
     </g>
     <g id="text_4">
      <!-- 60 -->
      <g style="fill:#555555;" transform="translate(342.074483 257.798437)scale(0.1 -0.1)">
       <defs>
        <path d="M 2113 2584 
Q 1688 2584 1439 2293 
Q 1191 2003 1191 1497 
Q 1191 994 1439 701 
Q 1688 409 2113 409 
Q 2538 409 2786 701 
Q 3034 994 3034 1497 
Q 3034 2003 2786 2293 
Q 2538 2584 2113 2584 
z
M 3366 4563 
L 3366 3988 
Q 3128 4100 2886 4159 
Q 2644 4219 2406 4219 
Q 1781 4219 1451 3797 
Q 1122 3375 1075 2522 
Q 1259 2794 1537 2939 
Q 1816 3084 2150 3084 
Q 2853 3084 3261 2657 
Q 3669 2231 3669 1497 
Q 3669 778 3244 343 
Q 2819 -91 2113 -91 
Q 1303 -91 875 529 
Q 447 1150 447 2328 
Q 447 3434 972 4092 
Q 1497 4750 2381 4750 
Q 2619 4750 2861 4703 
Q 3103 4656 3366 4563 
z
" id="DejaVuSans-36" transform="scale(0.015625)"/>
       </defs>
       <use xlink:href="#DejaVuSans-36"/>
       <use x="63.623047" xlink:href="#DejaVuSans-30"/>
      </g>
     </g>
    </g>
    <g id="xtick_5">
     <g id="line2d_9">
      <path clip-path="url(#p3e8c0030a3)" d="M 444.883264 243.2 
L 444.883264 10.8 
" style="fill:none;stroke:#ffffff;stroke-linecap:square;stroke-width:0.8;"/>
     </g>
     <g id="line2d_10">
      <g>
       <use style="fill:#555555;stroke:#555555;stroke-width:0.8;" x="444.883264" xlink:href="#md83452cc5d" y="243.2"/>
      </g>
     </g>
     <g id="text_5">
      <!-- 80 -->
      <g style="fill:#555555;" transform="translate(438.520764 257.798437)scale(0.1 -0.1)">
       <defs>
        <path d="M 2034 2216 
Q 1584 2216 1326 1975 
Q 1069 1734 1069 1313 
Q 1069 891 1326 650 
Q 1584 409 2034 409 
Q 2484 409 2743 651 
Q 3003 894 3003 1313 
Q 3003 1734 2745 1975 
Q 2488 2216 2034 2216 
z
M 1403 2484 
Q 997 2584 770 2862 
Q 544 3141 544 3541 
Q 544 4100 942 4425 
Q 1341 4750 2034 4750 
Q 2731 4750 3128 4425 
Q 3525 4100 3525 3541 
Q 3525 3141 3298 2862 
Q 3072 2584 2669 2484 
Q 3125 2378 3379 2068 
Q 3634 1759 3634 1313 
Q 3634 634 3220 271 
Q 2806 -91 2034 -91 
Q 1263 -91 848 271 
Q 434 634 434 1313 
Q 434 1759 690 2068 
Q 947 2378 1403 2484 
z
M 1172 3481 
Q 1172 3119 1398 2916 
Q 1625 2713 2034 2713 
Q 2441 2713 2670 2916 
Q 2900 3119 2900 3481 
Q 2900 3844 2670 4047 
Q 2441 4250 2034 4250 
Q 1625 4250 1398 4047 
Q 1172 3844 1172 3481 
z
" id="DejaVuSans-38" transform="scale(0.015625)"/>
       </defs>
       <use xlink:href="#DejaVuSans-38"/>
       <use x="63.623047" xlink:href="#DejaVuSans-30"/>
      </g>
     </g>
    </g>
    <g id="xtick_6">
     <g id="line2d_11">
      <path clip-path="url(#p3e8c0030a3)" d="M 541.329545 243.2 
L 541.329545 10.8 
" style="fill:none;stroke:#ffffff;stroke-linecap:square;stroke-width:0.8;"/>
     </g>
     <g id="line2d_12">
      <g>
       <use style="fill:#555555;stroke:#555555;stroke-width:0.8;" x="541.329545" xlink:href="#md83452cc5d" y="243.2"/>
      </g>
     </g>
     <g id="text_6">
      <!-- 100 -->
      <g style="fill:#555555;" transform="translate(531.785795 257.798437)scale(0.1 -0.1)">
       <defs>
        <path d="M 794 531 
L 1825 531 
L 1825 4091 
L 703 3866 
L 703 4441 
L 1819 4666 
L 2450 4666 
L 2450 531 
L 3481 531 
L 3481 0 
L 794 0 
L 794 531 
z
" id="DejaVuSans-31" transform="scale(0.015625)"/>
       </defs>
       <use xlink:href="#DejaVuSans-31"/>
       <use x="63.623047" xlink:href="#DejaVuSans-30"/>
       <use x="127.246094" xlink:href="#DejaVuSans-30"/>
      </g>
     </g>
    </g>
    <g id="text_7">
     <!-- Epoch number -->
     <g style="fill:#555555;" transform="translate(258.928125 272.99625)scale(0.12 -0.12)">
      <defs>
       <path d="M 628 4666 
L 3578 4666 
L 3578 4134 
L 1259 4134 
L 1259 2753 
L 3481 2753 
L 3481 2222 
L 1259 2222 
L 1259 531 
L 3634 531 
L 3634 0 
L 628 0 
L 628 4666 
z
" id="DejaVuSans-45" transform="scale(0.015625)"/>
       <path d="M 1159 525 
L 1159 -1331 
L 581 -1331 
L 581 3500 
L 1159 3500 
L 1159 2969 
Q 1341 3281 1617 3432 
Q 1894 3584 2278 3584 
Q 2916 3584 3314 3078 
Q 3713 2572 3713 1747 
Q 3713 922 3314 415 
Q 2916 -91 2278 -91 
Q 1894 -91 1617 61 
Q 1341 213 1159 525 
z
M 3116 1747 
Q 3116 2381 2855 2742 
Q 2594 3103 2138 3103 
Q 1681 3103 1420 2742 
Q 1159 2381 1159 1747 
Q 1159 1113 1420 752 
Q 1681 391 2138 391 
Q 2594 391 2855 752 
Q 3116 1113 3116 1747 
z
" id="DejaVuSans-70" transform="scale(0.015625)"/>
       <path d="M 1959 3097 
Q 1497 3097 1228 2736 
Q 959 2375 959 1747 
Q 959 1119 1226 758 
Q 1494 397 1959 397 
Q 2419 397 2687 759 
Q 2956 1122 2956 1747 
Q 2956 2369 2687 2733 
Q 2419 3097 1959 3097 
z
M 1959 3584 
Q 2709 3584 3137 3096 
Q 3566 2609 3566 1747 
Q 3566 888 3137 398 
Q 2709 -91 1959 -91 
Q 1206 -91 779 398 
Q 353 888 353 1747 
Q 353 2609 779 3096 
Q 1206 3584 1959 3584 
z
" id="DejaVuSans-6f" transform="scale(0.015625)"/>
       <path d="M 3122 3366 
L 3122 2828 
Q 2878 2963 2633 3030 
Q 2388 3097 2138 3097 
Q 1578 3097 1268 2742 
Q 959 2388 959 1747 
Q 959 1106 1268 751 
Q 1578 397 2138 397 
Q 2388 397 2633 464 
Q 2878 531 3122 666 
L 3122 134 
Q 2881 22 2623 -34 
Q 2366 -91 2075 -91 
Q 1284 -91 818 406 
Q 353 903 353 1747 
Q 353 2603 823 3093 
Q 1294 3584 2113 3584 
Q 2378 3584 2631 3529 
Q 2884 3475 3122 3366 
z
" id="DejaVuSans-63" transform="scale(0.015625)"/>
       <path d="M 3513 2113 
L 3513 0 
L 2938 0 
L 2938 2094 
Q 2938 2591 2744 2837 
Q 2550 3084 2163 3084 
Q 1697 3084 1428 2787 
Q 1159 2491 1159 1978 
L 1159 0 
L 581 0 
L 581 4863 
L 1159 4863 
L 1159 2956 
Q 1366 3272 1645 3428 
Q 1925 3584 2291 3584 
Q 2894 3584 3203 3211 
Q 3513 2838 3513 2113 
z
" id="DejaVuSans-68" transform="scale(0.015625)"/>
       <path id="DejaVuSans-20" transform="scale(0.015625)"/>
       <path d="M 3513 2113 
L 3513 0 
L 2938 0 
L 2938 2094 
Q 2938 2591 2744 2837 
Q 2550 3084 2163 3084 
Q 1697 3084 1428 2787 
Q 1159 2491 1159 1978 
L 1159 0 
L 581 0 
L 581 3500 
L 1159 3500 
L 1159 2956 
Q 1366 3272 1645 3428 
Q 1925 3584 2291 3584 
Q 2894 3584 3203 3211 
Q 3513 2838 3513 2113 
z
" id="DejaVuSans-6e" transform="scale(0.015625)"/>
       <path d="M 544 1381 
L 544 3500 
L 1119 3500 
L 1119 1403 
Q 1119 906 1312 657 
Q 1506 409 1894 409 
Q 2359 409 2629 706 
Q 2900 1003 2900 1516 
L 2900 3500 
L 3475 3500 
L 3475 0 
L 2900 0 
L 2900 538 
Q 2691 219 2414 64 
Q 2138 -91 1772 -91 
Q 1169 -91 856 284 
Q 544 659 544 1381 
z
M 1991 3584 
L 1991 3584 
z
" id="DejaVuSans-75" transform="scale(0.015625)"/>
       <path d="M 3328 2828 
Q 3544 3216 3844 3400 
Q 4144 3584 4550 3584 
Q 5097 3584 5394 3201 
Q 5691 2819 5691 2113 
L 5691 0 
L 5113 0 
L 5113 2094 
Q 5113 2597 4934 2840 
Q 4756 3084 4391 3084 
Q 3944 3084 3684 2787 
Q 3425 2491 3425 1978 
L 3425 0 
L 2847 0 
L 2847 2094 
Q 2847 2600 2669 2842 
Q 2491 3084 2119 3084 
Q 1678 3084 1418 2786 
Q 1159 2488 1159 1978 
L 1159 0 
L 581 0 
L 581 3500 
L 1159 3500 
L 1159 2956 
Q 1356 3278 1631 3431 
Q 1906 3584 2284 3584 
Q 2666 3584 2933 3390 
Q 3200 3197 3328 2828 
z
" id="DejaVuSans-6d" transform="scale(0.015625)"/>
       <path d="M 3116 1747 
Q 3116 2381 2855 2742 
Q 2594 3103 2138 3103 
Q 1681 3103 1420 2742 
Q 1159 2381 1159 1747 
Q 1159 1113 1420 752 
Q 1681 391 2138 391 
Q 2594 391 2855 752 
Q 3116 1113 3116 1747 
z
M 1159 2969 
Q 1341 3281 1617 3432 
Q 1894 3584 2278 3584 
Q 2916 3584 3314 3078 
Q 3713 2572 3713 1747 
Q 3713 922 3314 415 
Q 2916 -91 2278 -91 
Q 1894 -91 1617 61 
Q 1341 213 1159 525 
L 1159 0 
L 581 0 
L 581 4863 
L 1159 4863 
L 1159 2969 
z
" id="DejaVuSans-62" transform="scale(0.015625)"/>
       <path d="M 3597 1894 
L 3597 1613 
L 953 1613 
Q 991 1019 1311 708 
Q 1631 397 2203 397 
Q 2534 397 2845 478 
Q 3156 559 3463 722 
L 3463 178 
Q 3153 47 2828 -22 
Q 2503 -91 2169 -91 
Q 1331 -91 842 396 
Q 353 884 353 1716 
Q 353 2575 817 3079 
Q 1281 3584 2069 3584 
Q 2775 3584 3186 3129 
Q 3597 2675 3597 1894 
z
M 3022 2063 
Q 3016 2534 2758 2815 
Q 2500 3097 2075 3097 
Q 1594 3097 1305 2825 
Q 1016 2553 972 2059 
L 3022 2063 
z
" id="DejaVuSans-65" transform="scale(0.015625)"/>
       <path d="M 2631 2963 
Q 2534 3019 2420 3045 
Q 2306 3072 2169 3072 
Q 1681 3072 1420 2755 
Q 1159 2438 1159 1844 
L 1159 0 
L 581 0 
L 581 3500 
L 1159 3500 
L 1159 2956 
Q 1341 3275 1631 3429 
Q 1922 3584 2338 3584 
Q 2397 3584 2469 3576 
Q 2541 3569 2628 3553 
L 2631 2963 
z
" id="DejaVuSans-72" transform="scale(0.015625)"/>
      </defs>
      <use xlink:href="#DejaVuSans-45"/>
      <use x="63.183594" xlink:href="#DejaVuSans-70"/>
      <use x="126.660156" xlink:href="#DejaVuSans-6f"/>
      <use x="187.841797" xlink:href="#DejaVuSans-63"/>
      <use x="242.822266" xlink:href="#DejaVuSans-68"/>
      <use x="306.201172" xlink:href="#DejaVuSans-20"/>
      <use x="337.988281" xlink:href="#DejaVuSans-6e"/>
      <use x="401.367188" xlink:href="#DejaVuSans-75"/>
      <use x="464.746094" xlink:href="#DejaVuSans-6d"/>
      <use x="562.158203" xlink:href="#DejaVuSans-62"/>
      <use x="625.634766" xlink:href="#DejaVuSans-65"/>
      <use x="687.158203" xlink:href="#DejaVuSans-72"/>
     </g>
    </g>
   </g>
   <g id="matplotlib.axis_2">
    <g id="ytick_1">
     <g id="line2d_13">
      <path clip-path="url(#p3e8c0030a3)" d="M 40.05 236.129209 
L 565.2 236.129209 
" style="fill:none;stroke:#ffffff;stroke-linecap:square;stroke-width:0.8;"/>
     </g>
     <g id="line2d_14">
      <defs>
       <path d="M 0 0 
L -3.5 0 
" id="m159b4cc68b" style="stroke:#555555;stroke-width:0.8;"/>
      </defs>
      <g>
       <use style="fill:#555555;stroke:#555555;stroke-width:0.8;" x="40.05" xlink:href="#m159b4cc68b" y="236.129209"/>
      </g>
     </g>
     <g id="text_8">
      <!-- 0.65 -->
      <g style="fill:#555555;" transform="translate(10.784375 239.928428)scale(0.1 -0.1)">
       <defs>
        <path d="M 684 794 
L 1344 794 
L 1344 0 
L 684 0 
L 684 794 
z
" id="DejaVuSans-2e" transform="scale(0.015625)"/>
        <path d="M 691 4666 
L 3169 4666 
L 3169 4134 
L 1269 4134 
L 1269 2991 
Q 1406 3038 1543 3061 
Q 1681 3084 1819 3084 
Q 2600 3084 3056 2656 
Q 3513 2228 3513 1497 
Q 3513 744 3044 326 
Q 2575 -91 1722 -91 
Q 1428 -91 1123 -41 
Q 819 9 494 109 
L 494 744 
Q 775 591 1075 516 
Q 1375 441 1709 441 
Q 2250 441 2565 725 
Q 2881 1009 2881 1497 
Q 2881 1984 2565 2268 
Q 2250 2553 1709 2553 
Q 1456 2553 1204 2497 
Q 953 2441 691 2322 
L 691 4666 
z
" id="DejaVuSans-35" transform="scale(0.015625)"/>
       </defs>
       <use xlink:href="#DejaVuSans-30"/>
       <use x="63.623047" xlink:href="#DejaVuSans-2e"/>
       <use x="95.410156" xlink:href="#DejaVuSans-36"/>
       <use x="159.033203" xlink:href="#DejaVuSans-35"/>
      </g>
     </g>
    </g>
    <g id="ytick_2">
     <g id="line2d_15">
      <path clip-path="url(#p3e8c0030a3)" d="M 40.05 199.337903 
L 565.2 199.337903 
" style="fill:none;stroke:#ffffff;stroke-linecap:square;stroke-width:0.8;"/>
     </g>
     <g id="line2d_16">
      <g>
       <use style="fill:#555555;stroke:#555555;stroke-width:0.8;" x="40.05" xlink:href="#m159b4cc68b" y="199.337903"/>
      </g>
     </g>
     <g id="text_9">
      <!-- 0.70 -->
      <g style="fill:#555555;" transform="translate(10.784375 203.137121)scale(0.1 -0.1)">
       <defs>
        <path d="M 525 4666 
L 3525 4666 
L 3525 4397 
L 1831 0 
L 1172 0 
L 2766 4134 
L 525 4134 
L 525 4666 
z
" id="DejaVuSans-37" transform="scale(0.015625)"/>
       </defs>
       <use xlink:href="#DejaVuSans-30"/>
       <use x="63.623047" xlink:href="#DejaVuSans-2e"/>
       <use x="95.410156" xlink:href="#DejaVuSans-37"/>
       <use x="159.033203" xlink:href="#DejaVuSans-30"/>
      </g>
     </g>
    </g>
    <g id="ytick_3">
     <g id="line2d_17">
      <path clip-path="url(#p3e8c0030a3)" d="M 40.05 162.546596 
L 565.2 162.546596 
" style="fill:none;stroke:#ffffff;stroke-linecap:square;stroke-width:0.8;"/>
     </g>
     <g id="line2d_18">
      <g>
       <use style="fill:#555555;stroke:#555555;stroke-width:0.8;" x="40.05" xlink:href="#m159b4cc68b" y="162.546596"/>
      </g>
     </g>
     <g id="text_10">
      <!-- 0.75 -->
      <g style="fill:#555555;" transform="translate(10.784375 166.345815)scale(0.1 -0.1)">
       <use xlink:href="#DejaVuSans-30"/>
       <use x="63.623047" xlink:href="#DejaVuSans-2e"/>
       <use x="95.410156" xlink:href="#DejaVuSans-37"/>
       <use x="159.033203" xlink:href="#DejaVuSans-35"/>
      </g>
     </g>
    </g>
    <g id="ytick_4">
     <g id="line2d_19">
      <path clip-path="url(#p3e8c0030a3)" d="M 40.05 125.75529 
L 565.2 125.75529 
" style="fill:none;stroke:#ffffff;stroke-linecap:square;stroke-width:0.8;"/>
     </g>
     <g id="line2d_20">
      <g>
       <use style="fill:#555555;stroke:#555555;stroke-width:0.8;" x="40.05" xlink:href="#m159b4cc68b" y="125.75529"/>
      </g>
     </g>
     <g id="text_11">
      <!-- 0.80 -->
      <g style="fill:#555555;" transform="translate(10.784375 129.554508)scale(0.1 -0.1)">
       <use xlink:href="#DejaVuSans-30"/>
       <use x="63.623047" xlink:href="#DejaVuSans-2e"/>
       <use x="95.410156" xlink:href="#DejaVuSans-38"/>
       <use x="159.033203" xlink:href="#DejaVuSans-30"/>
      </g>
     </g>
    </g>
    <g id="ytick_5">
     <g id="line2d_21">
      <path clip-path="url(#p3e8c0030a3)" d="M 40.05 88.963983 
L 565.2 88.963983 
" style="fill:none;stroke:#ffffff;stroke-linecap:square;stroke-width:0.8;"/>
     </g>
     <g id="line2d_22">
      <g>
       <use style="fill:#555555;stroke:#555555;stroke-width:0.8;" x="40.05" xlink:href="#m159b4cc68b" y="88.963983"/>
      </g>
     </g>
     <g id="text_12">
      <!-- 0.85 -->
      <g style="fill:#555555;" transform="translate(10.784375 92.763202)scale(0.1 -0.1)">
       <use xlink:href="#DejaVuSans-30"/>
       <use x="63.623047" xlink:href="#DejaVuSans-2e"/>
       <use x="95.410156" xlink:href="#DejaVuSans-38"/>
       <use x="159.033203" xlink:href="#DejaVuSans-35"/>
      </g>
     </g>
    </g>
    <g id="ytick_6">
     <g id="line2d_23">
      <path clip-path="url(#p3e8c0030a3)" d="M 40.05 52.172676 
L 565.2 52.172676 
" style="fill:none;stroke:#ffffff;stroke-linecap:square;stroke-width:0.8;"/>
     </g>
     <g id="line2d_24">
      <g>
       <use style="fill:#555555;stroke:#555555;stroke-width:0.8;" x="40.05" xlink:href="#m159b4cc68b" y="52.172676"/>
      </g>
     </g>
     <g id="text_13">
      <!-- 0.90 -->
      <g style="fill:#555555;" transform="translate(10.784375 55.971895)scale(0.1 -0.1)">
       <defs>
        <path d="M 703 97 
L 703 672 
Q 941 559 1184 500 
Q 1428 441 1663 441 
Q 2288 441 2617 861 
Q 2947 1281 2994 2138 
Q 2813 1869 2534 1725 
Q 2256 1581 1919 1581 
Q 1219 1581 811 2004 
Q 403 2428 403 3163 
Q 403 3881 828 4315 
Q 1253 4750 1959 4750 
Q 2769 4750 3195 4129 
Q 3622 3509 3622 2328 
Q 3622 1225 3098 567 
Q 2575 -91 1691 -91 
Q 1453 -91 1209 -44 
Q 966 3 703 97 
z
M 1959 2075 
Q 2384 2075 2632 2365 
Q 2881 2656 2881 3163 
Q 2881 3666 2632 3958 
Q 2384 4250 1959 4250 
Q 1534 4250 1286 3958 
Q 1038 3666 1038 3163 
Q 1038 2656 1286 2365 
Q 1534 2075 1959 2075 
z
" id="DejaVuSans-39" transform="scale(0.015625)"/>
       </defs>
       <use xlink:href="#DejaVuSans-30"/>
       <use x="63.623047" xlink:href="#DejaVuSans-2e"/>
       <use x="95.410156" xlink:href="#DejaVuSans-39"/>
       <use x="159.033203" xlink:href="#DejaVuSans-30"/>
      </g>
     </g>
    </g>
    <g id="ytick_7">
     <g id="line2d_25">
      <path clip-path="url(#p3e8c0030a3)" d="M 40.05 15.38137 
L 565.2 15.38137 
" style="fill:none;stroke:#ffffff;stroke-linecap:square;stroke-width:0.8;"/>
     </g>
     <g id="line2d_26">
      <g>
       <use style="fill:#555555;stroke:#555555;stroke-width:0.8;" x="40.05" xlink:href="#m159b4cc68b" y="15.38137"/>
      </g>
     </g>
     <g id="text_14">
      <!-- 0.95 -->
      <g style="fill:#555555;" transform="translate(10.784375 19.180589)scale(0.1 -0.1)">
       <use xlink:href="#DejaVuSans-30"/>
       <use x="63.623047" xlink:href="#DejaVuSans-2e"/>
       <use x="95.410156" xlink:href="#DejaVuSans-39"/>
       <use x="159.033203" xlink:href="#DejaVuSans-35"/>
      </g>
     </g>
    </g>
   </g>
   <g id="line2d_27">
    <path clip-path="url(#p3e8c0030a3)" d="M 63.920455 231.42728 
L 68.742769 211.464317 
L 73.565083 194.849363 
L 78.387397 183.56179 
L 83.209711 175.659018 
L 88.032025 170.883506 
L 92.854339 163.002808 
L 97.676653 160.670239 
L 102.498967 157.859384 
L 107.321281 154.32006 
L 112.143595 151.774102 
L 116.965909 146.623319 
L 121.788223 147.565176 
L 126.610537 144.393765 
L 131.432851 144.393765 
L 136.255165 139.485805 
L 141.077479 137.786047 
L 145.899793 139.198833 
L 150.722107 136.96928 
L 155.544421 136.130438 
L 160.366736 133.113551 
L 165.18905 131.840572 
L 170.011364 131.546241 
L 174.833678 130.067231 
L 179.655992 129.272538 
L 184.478306 128.176158 
L 189.30062 130.081947 
L 194.122934 128.75746 
L 198.945248 127.388824 
L 203.767562 126.270368 
L 208.589876 126.51319 
L 213.41219 123.923082 
L 218.234504 123.268197 
L 223.056818 125.048896 
L 227.879132 125.990754 
L 232.701446 123.827425 
L 237.52376 123.29763 
L 242.346074 123.282914 
L 247.168388 122.480863 
L 251.990702 122.878209 
L 256.813017 121.288825 
L 261.635331 123.032733 
L 266.457645 124.497027 
L 271.279959 120.722239 
L 276.102273 120.42055 
L 280.924587 121.590514 
L 285.746901 120.670731 
L 290.569215 118.05119 
L 295.391529 119.316811 
L 300.213843 119.714157 
L 305.036157 117.874592 
L 309.858471 118.470611 
L 314.680785 117.477246 
L 319.503099 117.344797 
L 324.325413 115.46844 
L 329.147727 116.711986 
L 333.970041 115.622964 
L 338.792355 116.851793 
L 343.614669 116.130684 
L 348.436983 115.365425 
L 353.259298 117.565545 
L 358.081612 114.725256 
L 362.903926 116.48388 
L 367.72624 114.784122 
L 372.548554 115.961444 
L 377.370868 114.997512 
L 382.193182 112.834183 
L 387.015496 113.408127 
L 391.83781 113.967355 
L 396.660124 115.740696 
L 401.482438 115.556739 
L 406.304752 113.069647 
L 411.127066 113.238887 
L 415.94938 113.967355 
L 420.771694 116.049743 
L 425.594008 111.95855 
L 430.416322 112.407404 
L 435.238636 112.407404 
L 440.06095 111.965908 
L 444.883264 112.385329 
L 449.705579 111.568562 
L 454.527893 114.320551 
L 459.350207 111.811384 
L 464.172521 110.494256 
L 468.994835 112.620793 
L 473.817149 111.553845 
L 478.639463 110.589913 
L 483.461777 110.921035 
L 488.284091 110.972543 
L 493.106405 113.695099 
L 497.928719 110.641421 
L 502.751033 110.670854 
L 507.573347 110.244075 
L 512.395661 112.584002 
L 517.217975 110.118984 
L 522.040289 111.171216 
L 526.862603 110.39124 
L 531.684917 111.384605 
L 536.507231 110.803303 
L 541.329545 111.001976 
" style="fill:none;stroke:#e24a33;stroke-linecap:square;stroke-width:1.5;"/>
   </g>
   <g id="line2d_28">
    <path clip-path="url(#p3e8c0030a3)" d="M 63.920455 198.094356 
L 68.742769 170.177113 
L 73.565083 149.647564 
L 78.387397 140.35408 
L 83.209711 131.833213 
L 88.032025 122.017293 
L 92.854339 119.625858 
L 97.676653 118.17628 
L 102.498967 115.439007 
L 107.321281 108.19112 
L 112.143595 105.218382 
L 116.965909 106.145523 
L 121.788223 103.040337 
L 126.610537 101.759999 
L 131.432851 99.891001 
L 136.255165 98.228034 
L 141.077479 97.264102 
L 145.899793 93.467239 
L 150.722107 96.307528 
L 155.544421 95.093415 
L 160.366736 93.386298 
L 165.18905 89.236239 
L 170.011364 90.759399 
L 174.833678 90.575442 
L 179.655992 88.42683 
L 184.478306 88.169291 
L 189.30062 87.050835 
L 194.122934 85.667482 
L 198.945248 84.041306 
L 203.767562 87.109701 
L 208.589876 84.129605 
L 213.41219 89.449628 
L 218.234504 82.098725 
L 223.056818 82.562296 
L 227.879132 83.85735 
L 232.701446 81.929485 
L 237.52376 81.186301 
L 242.346074 80.774238 
L 247.168388 79.795589 
L 251.990702 81.56893 
L 256.813017 78.706567 
L 261.635331 80.862537 
L 266.457645 79.670499 
L 271.279959 79.523334 
L 276.102273 79.140704 
L 280.924587 78.088473 
L 285.746901 77.749993 
L 290.569215 76.241549 
L 295.391529 75.726471 
L 300.213843 74.431417 
L 305.036157 74.151803 
L 309.858471 76.020801 
L 314.680785 74.254819 
L 319.503099 73.61465 
L 324.325413 74.814047 
L 329.147727 73.61465 
L 333.970041 72.981839 
L 338.792355 73.90898 
L 343.614669 74.806688 
L 348.436983 71.70886 
L 353.259298 71.149632 
L 358.081612 72.613926 
L 362.903926 72.945048 
L 367.72624 70.457956 
L 372.548554 71.620561 
L 377.370868 73.710307 
L 382.193182 73.121646 
L 387.015496 70.031177 
L 391.83781 69.597039 
L 396.660124 70.487389 
L 401.482438 72.42997 
L 406.304752 70.384373 
L 411.127066 69.869295 
L 415.94938 69.015737 
L 420.771694 69.398366 
L 425.594008 69.729488 
L 430.416322 71.105483 
L 435.238636 69.523457 
L 440.06095 67.279187 
L 444.883264 66.263747 
L 449.705579 68.405001 
L 454.527893 71.208498 
L 459.350207 66.315255 
L 464.172521 67.566159 
L 468.994835 66.75675 
L 473.817149 68.552166 
L 478.639463 64.784736 
L 483.461777 63.990044 
L 488.284091 65.866401 
L 493.106405 66.815616 
L 497.928719 65.44698 
L 502.751033 67.625025 
L 507.573347 67.779549 
L 512.395661 66.329971 
L 517.217975 66.168089 
L 522.040289 64.21815 
L 526.862603 64.946618 
L 531.684917 66.97014 
L 536.507231 67.279187 
L 541.329545 65.763385 
" style="fill:none;stroke:#348abd;stroke-linecap:square;stroke-width:1.5;"/>
   </g>
   <g id="line2d_29">
    <path clip-path="url(#p3e8c0030a3)" d="M 63.920455 172.244785 
L 68.742769 133.069401 
L 73.565083 117.440454 
L 78.387397 107.918864 
L 83.209711 97.698239 
L 88.032025 92.99631 
L 92.854339 91.245044 
L 97.676653 87.07291 
L 102.498967 79.457109 
L 107.321281 79.258436 
L 112.143595 72.974481 
L 116.965909 73.173154 
L 121.788223 73.99728 
L 126.610537 71.664711 
L 131.432851 69.471949 
L 136.255165 67.389561 
L 141.077479 68.905363 
L 145.899793 63.129128 
L 150.722107 60.796559 
L 155.544421 61.208621 
L 160.366736 59.008501 
L 165.18905 58.007778 
L 170.011364 57.507416 
L 174.833678 57.271952 
L 179.655992 56.749515 
L 184.478306 56.043122 
L 189.30062 53.475089 
L 194.122934 52.15796 
L 198.945248 52.746621 
L 203.767562 52.511156 
L 208.589876 51.503075 
L 213.41219 50.443485 
L 218.234504 48.854101 
L 223.056818 47.779794 
L 227.879132 48.854101 
L 232.701446 50.08293 
L 237.52376 47.978468 
L 242.346074 47.919601 
L 247.168388 47.676779 
L 251.990702 44.586309 
L 256.813017 41.849036 
L 261.635331 45.829855 
L 266.457645 43.26918 
L 271.279959 44.122739 
L 276.102273 43.225031 
L 280.924587 40.89982 
L 285.746901 44.291979 
L 290.569215 41.039627 
L 295.391529 38.206697 
L 300.213843 37.618036 
L 305.036157 38.155189 
L 309.858471 38.552535 
L 314.680785 39.700424 
L 319.503099 42.158083 
L 324.325413 37.125032 
L 329.147727 35.204526 
L 333.970041 37.220689 
L 338.792355 35.366408 
L 343.614669 34.203802 
L 348.436983 37.492945 
L 353.259298 33.887397 
L 358.081612 34.520208 
L 362.903926 34.233235 
L 367.72624 38.19198 
L 372.548554 31.415021 
L 377.370868 38.272921 
L 382.193182 31.429738 
L 387.015496 33.696082 
L 391.83781 30.612971 
L 396.660124 33.504768 
L 401.482438 32.025757 
L 406.304752 28.155312 
L 411.127066 32.555552 
L 415.94938 29.428291 
L 420.771694 28.434925 
L 425.594008 29.98016 
L 430.416322 29.281126 
L 435.238636 30.752778 
L 440.06095 28.986795 
L 444.883264 27.235529 
L 449.705579 27.515143 
L 454.527893 27.846265 
L 459.350207 31.194273 
L 464.172521 27.044214 
L 468.994835 26.433478 
L 473.817149 25.866892 
L 478.639463 29.362066 
L 483.461777 25.830101 
L 488.284091 27.669666 
L 493.106405 28.398134 
L 497.928719 25.557845 
L 502.751033 27.353261 
L 507.573347 23.902237 
L 512.395661 26.094998 
L 517.217975 26.683659 
L 522.040289 30.215625 
L 526.862603 22.040596 
L 531.684917 21.363636 
L 536.507231 25.638786 
L 541.329545 23.401875 
" style="fill:none;stroke:#988ed5;stroke-linecap:square;stroke-width:1.5;"/>
   </g>
   <g id="line2d_30">
    <path clip-path="url(#p3e8c0030a3)" d="M 63.920455 232.636364 
L 68.742769 216.382989 
L 73.565083 196.823054 
L 78.387397 187.601942 
L 83.209711 179.451969 
L 88.032025 175.307125 
L 92.854339 168.973432 
L 97.676653 168.647433 
L 102.498967 164.036877 
L 107.321281 161.056315 
L 112.143595 162.360311 
L 116.965909 157.237471 
L 121.788223 156.864901 
L 126.610537 156.445759 
L 131.432851 155.234906 
L 136.255165 150.158637 
L 141.077479 150.810635 
L 145.899793 152.720057 
L 150.722107 149.087498 
L 155.544421 149.460068 
L 160.366736 145.268653 
L 165.18905 143.778373 
L 170.011364 144.476942 
L 174.833678 142.614091 
L 179.655992 144.337228 
L 184.478306 143.359231 
L 189.30062 145.687795 
L 194.122934 144.383799 
L 198.945248 143.266089 
L 203.767562 139.866386 
L 208.589876 142.381234 
L 213.41219 138.655532 
L 218.234504 137.491251 
L 223.056818 140.425241 
L 227.879132 140.844382 
L 232.701446 139.074674 
L 237.52376 140.238956 
L 242.346074 138.515819 
L 247.168388 140.238956 
L 251.990702 139.633529 
L 256.813017 137.025538 
L 261.635331 138.18982 
L 266.457645 141.682665 
L 271.279959 137.537822 
L 276.102273 136.326969 
L 280.924587 137.630964 
L 285.746901 138.18982 
L 290.569215 135.348972 
L 295.391529 137.677536 
L 300.213843 138.003535 
L 305.036157 135.535257 
L 309.858471 136.326969 
L 314.680785 138.282962 
L 319.503099 136.652968 
L 324.325413 134.603832 
L 329.147727 137.81725 
L 333.970041 136.37354 
L 338.792355 138.329534 
L 343.614669 137.165252 
L 348.436983 134.650403 
L 353.259298 138.282962 
L 358.081612 136.187255 
L 362.903926 136.978967 
L 367.72624 137.398108 
L 372.548554 136.932395 
L 377.370868 135.442115 
L 382.193182 134.277833 
L 387.015496 134.650403 
L 391.83781 136.094112 
L 396.660124 138.003535 
L 401.482438 137.770678 
L 406.304752 136.885824 
L 411.127066 135.535257 
L 415.94938 133.718977 
L 420.771694 139.074674 
L 425.594008 135.861256 
L 430.416322 136.978967 
L 435.238636 136.00097 
L 440.06095 135.022973 
L 444.883264 135.488686 
L 449.705579 136.513254 
L 454.527893 137.956963 
L 459.350207 136.932395 
L 464.172521 135.814685 
L 468.994835 136.187255 
L 473.817149 136.652968 
L 478.639463 136.699539 
L 483.461777 135.814685 
L 488.284091 138.56239 
L 493.106405 140.006099 
L 497.928719 138.050106 
L 502.751033 138.841818 
L 507.573347 137.072109 
L 512.395661 140.006099 
L 517.217975 137.677536 
L 522.040289 138.422676 
L 526.862603 137.025538 
L 531.684917 139.540387 
L 536.507231 138.18982 
L 541.329545 136.513254 
" style="fill:none;stroke:#777777;stroke-dasharray:5.55,2.4;stroke-dashoffset:0;stroke-width:1.5;"/>
   </g>
   <g id="line2d_31">
    <path clip-path="url(#p3e8c0030a3)" d="M 63.920455 200.176186 
L 68.742769 179.219112 
L 73.565083 153.604911 
L 78.387397 147.736931 
L 83.209711 142.56752 
L 88.032025 133.672406 
L 92.854339 133.905263 
L 97.676653 130.458988 
L 102.498967 129.946704 
L 107.321281 125.149863 
L 112.143595 123.799296 
L 116.965909 122.681585 
L 121.788223 121.843303 
L 126.610537 119.281882 
L 131.432851 122.262444 
L 136.255165 120.911877 
L 141.077479 118.490171 
L 145.899793 116.394463 
L 150.722107 119.095597 
L 155.544421 118.769598 
L 160.366736 120.213308 
L 165.18905 114.764469 
L 170.011364 115.789037 
L 174.833678 116.347892 
L 179.655992 115.090468 
L 184.478306 116.161607 
L 189.30062 116.347892 
L 194.122934 114.252185 
L 198.945248 113.646758 
L 203.767562 120.120165 
L 208.589876 116.301321 
L 213.41219 119.514739 
L 218.234504 113.833043 
L 223.056818 113.320759 
L 227.879132 115.323324 
L 232.701446 114.578184 
L 237.52376 115.742466 
L 242.346074 114.485041 
L 247.168388 114.578184 
L 251.990702 115.276753 
L 256.813017 114.485041 
L 261.635331 115.602752 
L 266.457645 117.419031 
L 271.279959 116.021893 
L 276.102273 117.651888 
L 280.924587 114.764469 
L 285.746901 115.835608 
L 290.569215 115.556181 
L 295.391529 116.580749 
L 300.213843 114.205614 
L 305.036157 114.81104 
L 309.858471 116.161607 
L 314.680785 115.463038 
L 319.503099 112.901618 
L 324.325413 113.367331 
L 329.147727 114.764469 
L 333.970041 114.298756 
L 338.792355 116.720462 
L 343.614669 115.137039 
L 348.436983 116.208178 
L 353.259298 116.441035 
L 358.081612 117.046461 
L 362.903926 115.556181 
L 367.72624 114.764469 
L 372.548554 116.534177 
L 377.370868 116.068465 
L 382.193182 117.74503 
L 387.015496 115.928751 
L 391.83781 116.720462 
L 396.660124 117.512174 
L 401.482438 119.281882 
L 406.304752 116.673891 
L 411.127066 118.350457 
L 415.94938 115.230182 
L 420.771694 116.580749 
L 425.594008 119.235311 
L 430.416322 119.794166 
L 435.238636 120.679021 
L 440.06095 117.931316 
L 444.883264 116.441035 
L 449.705579 117.931316 
L 454.527893 121.936445 
L 459.350207 116.161607 
L 464.172521 119.607881 
L 468.994835 118.397028 
L 473.817149 119.281882 
L 478.639463 117.465603 
L 483.461777 117.419031 
L 488.284091 117.884744 
L 493.106405 119.794166 
L 497.928719 119.18874 
L 502.751033 120.30645 
L 507.573347 121.051591 
L 512.395661 120.818735 
L 517.217975 121.657017 
L 522.040289 117.931316 
L 526.862603 118.769598 
L 531.684917 120.492736 
L 536.507231 123.007584 
L 541.329545 121.00502 
" style="fill:none;stroke:#fbc15e;stroke-dasharray:5.55,2.4;stroke-dashoffset:0;stroke-width:1.5;"/>
   </g>
   <g id="line2d_32">
    <path clip-path="url(#p3e8c0030a3)" d="M 63.920455 176.843977 
L 68.742769 143.359231 
L 73.565083 128.828994 
L 78.387397 120.213308 
L 83.209711 113.833043 
L 88.032025 111.690765 
L 92.854339 110.619625 
L 97.676653 111.690765 
L 102.498967 103.820219 
L 107.321281 107.49935 
L 112.143595 103.261364 
L 116.965909 106.567925 
L 121.788223 108.151348 
L 126.610537 106.847352 
L 131.432851 104.285932 
L 136.255165 105.357071 
L 141.077479 107.452779 
L 145.899793 103.820219 
L 150.722107 101.817655 
L 155.544421 103.773648 
L 160.366736 104.705074 
L 165.18905 103.12165 
L 170.011364 105.263929 
L 174.833678 104.006505 
L 179.655992 107.49935 
L 184.478306 106.661067 
L 189.30062 106.335068 
L 194.122934 106.614496 
L 198.945248 107.732206 
L 203.767562 107.965063 
L 208.589876 107.918492 
L 213.41219 110.06077 
L 218.234504 108.523918 
L 223.056818 110.200484 
L 227.879132 109.6882 
L 232.701446 113.134474 
L 237.52376 109.408772 
L 242.346074 112.342763 
L 247.168388 111.50448 
L 251.990702 110.107341 
L 256.813017 108.94306 
L 261.635331 112.668762 
L 266.457645 113.460473 
L 271.279959 112.808475 
L 276.102273 113.460473 
L 280.924587 112.808475 
L 285.746901 114.43847 
L 290.569215 116.62732 
L 295.391529 115.090468 
L 300.213843 114.997325 
L 305.036157 115.742466 
L 309.858471 113.553616 
L 314.680785 115.416467 
L 319.503099 118.490171 
L 324.325413 114.904183 
L 329.147727 116.021893 
L 333.970041 116.068465 
L 338.792355 118.257314 
L 343.614669 117.046461 
L 348.436983 116.99989 
L 353.259298 113.69333 
L 358.081612 119.002455 
L 362.903926 117.046461 
L 367.72624 119.328454 
L 372.548554 117.046461 
L 377.370868 120.259879 
L 382.193182 117.465603 
L 387.015496 117.558745 
L 391.83781 118.81617 
L 396.660124 121.796731 
L 401.482438 120.446164 
L 406.304752 115.695894 
L 411.127066 120.30645 
L 415.94938 119.840738 
L 420.771694 118.81617 
L 425.594008 118.81617 
L 430.416322 117.558745 
L 435.238636 121.37759 
L 440.06095 117.139604 
L 444.883264 120.166737 
L 449.705579 119.840738 
L 454.527893 120.120165 
L 459.350207 123.845867 
L 464.172521 120.911877 
L 468.994835 118.210743 
L 473.817149 122.448729 
L 478.639463 123.287012 
L 483.461777 119.654453 
L 488.284091 124.963578 
L 493.106405 121.983016 
L 497.928719 125.429291 
L 502.751033 123.240441 
L 507.573347 120.772163 
L 512.395661 123.892439 
L 517.217975 123.613011 
L 522.040289 128.502995 
L 526.862603 123.752725 
L 531.684917 120.679021 
L 536.507231 124.730722 
L 541.329545 124.358151 
" style="fill:none;stroke:#8eba42;stroke-dasharray:5.55,2.4;stroke-dashoffset:0;stroke-width:1.5;"/>
   </g>
   <g id="patch_3">
    <path d="M 40.05 243.2 
L 40.05 10.8 
" style="fill:none;stroke:#ffffff;stroke-linecap:square;stroke-linejoin:miter;"/>
   </g>
   <g id="patch_4">
    <path d="M 565.2 243.2 
L 565.2 10.8 
" style="fill:none;stroke:#ffffff;stroke-linecap:square;stroke-linejoin:miter;"/>
   </g>
   <g id="patch_5">
    <path d="M 40.05 243.2 
L 565.2 243.2 
" style="fill:none;stroke:#ffffff;stroke-linecap:square;stroke-linejoin:miter;"/>
   </g>
   <g id="patch_6">
    <path d="M 40.05 10.8 
L 565.2 10.8 
" style="fill:none;stroke:#ffffff;stroke-linecap:square;stroke-linejoin:miter;"/>
   </g>
   <g id="legend_1">
    <g id="patch_7">
     <path d="M 441.439062 238.2 
L 558.2 238.2 
Q 560.2 238.2 560.2 236.2 
L 560.2 149.13125 
Q 560.2 147.13125 558.2 147.13125 
L 441.439062 147.13125 
Q 439.439062 147.13125 439.439062 149.13125 
L 439.439062 236.2 
Q 439.439062 238.2 441.439062 238.2 
z
" style="fill:#e5e5e5;opacity:0.8;stroke:#cccccc;stroke-linejoin:miter;stroke-width:0.5;"/>
    </g>
    <g id="line2d_33">
     <path d="M 443.439062 155.229688 
L 463.439062 155.229688 
" style="fill:none;stroke:#e24a33;stroke-linecap:square;stroke-width:1.5;"/>
    </g>
    <g id="line2d_34"/>
    <g id="text_15">
     <!-- width 32 (train) -->
     <g transform="translate(471.439062 158.729688)scale(0.1 -0.1)">
      <defs>
       <path d="M 269 3500 
L 844 3500 
L 1563 769 
L 2278 3500 
L 2956 3500 
L 3675 769 
L 4391 3500 
L 4966 3500 
L 4050 0 
L 3372 0 
L 2619 2869 
L 1863 0 
L 1184 0 
L 269 3500 
z
" id="DejaVuSans-77" transform="scale(0.015625)"/>
       <path d="M 603 3500 
L 1178 3500 
L 1178 0 
L 603 0 
L 603 3500 
z
M 603 4863 
L 1178 4863 
L 1178 4134 
L 603 4134 
L 603 4863 
z
" id="DejaVuSans-69" transform="scale(0.015625)"/>
       <path d="M 2906 2969 
L 2906 4863 
L 3481 4863 
L 3481 0 
L 2906 0 
L 2906 525 
Q 2725 213 2448 61 
Q 2172 -91 1784 -91 
Q 1150 -91 751 415 
Q 353 922 353 1747 
Q 353 2572 751 3078 
Q 1150 3584 1784 3584 
Q 2172 3584 2448 3432 
Q 2725 3281 2906 2969 
z
M 947 1747 
Q 947 1113 1208 752 
Q 1469 391 1925 391 
Q 2381 391 2643 752 
Q 2906 1113 2906 1747 
Q 2906 2381 2643 2742 
Q 2381 3103 1925 3103 
Q 1469 3103 1208 2742 
Q 947 2381 947 1747 
z
" id="DejaVuSans-64" transform="scale(0.015625)"/>
       <path d="M 1172 4494 
L 1172 3500 
L 2356 3500 
L 2356 3053 
L 1172 3053 
L 1172 1153 
Q 1172 725 1289 603 
Q 1406 481 1766 481 
L 2356 481 
L 2356 0 
L 1766 0 
Q 1100 0 847 248 
Q 594 497 594 1153 
L 594 3053 
L 172 3053 
L 172 3500 
L 594 3500 
L 594 4494 
L 1172 4494 
z
" id="DejaVuSans-74" transform="scale(0.015625)"/>
       <path d="M 2597 2516 
Q 3050 2419 3304 2112 
Q 3559 1806 3559 1356 
Q 3559 666 3084 287 
Q 2609 -91 1734 -91 
Q 1441 -91 1130 -33 
Q 819 25 488 141 
L 488 750 
Q 750 597 1062 519 
Q 1375 441 1716 441 
Q 2309 441 2620 675 
Q 2931 909 2931 1356 
Q 2931 1769 2642 2001 
Q 2353 2234 1838 2234 
L 1294 2234 
L 1294 2753 
L 1863 2753 
Q 2328 2753 2575 2939 
Q 2822 3125 2822 3475 
Q 2822 3834 2567 4026 
Q 2313 4219 1838 4219 
Q 1578 4219 1281 4162 
Q 984 4106 628 3988 
L 628 4550 
Q 988 4650 1302 4700 
Q 1616 4750 1894 4750 
Q 2613 4750 3031 4423 
Q 3450 4097 3450 3541 
Q 3450 3153 3228 2886 
Q 3006 2619 2597 2516 
z
" id="DejaVuSans-33" transform="scale(0.015625)"/>
       <path d="M 1984 4856 
Q 1566 4138 1362 3434 
Q 1159 2731 1159 2009 
Q 1159 1288 1364 580 
Q 1569 -128 1984 -844 
L 1484 -844 
Q 1016 -109 783 600 
Q 550 1309 550 2009 
Q 550 2706 781 3412 
Q 1013 4119 1484 4856 
L 1984 4856 
z
" id="DejaVuSans-28" transform="scale(0.015625)"/>
       <path d="M 2194 1759 
Q 1497 1759 1228 1600 
Q 959 1441 959 1056 
Q 959 750 1161 570 
Q 1363 391 1709 391 
Q 2188 391 2477 730 
Q 2766 1069 2766 1631 
L 2766 1759 
L 2194 1759 
z
M 3341 1997 
L 3341 0 
L 2766 0 
L 2766 531 
Q 2569 213 2275 61 
Q 1981 -91 1556 -91 
Q 1019 -91 701 211 
Q 384 513 384 1019 
Q 384 1609 779 1909 
Q 1175 2209 1959 2209 
L 2766 2209 
L 2766 2266 
Q 2766 2663 2505 2880 
Q 2244 3097 1772 3097 
Q 1472 3097 1187 3025 
Q 903 2953 641 2809 
L 641 3341 
Q 956 3463 1253 3523 
Q 1550 3584 1831 3584 
Q 2591 3584 2966 3190 
Q 3341 2797 3341 1997 
z
" id="DejaVuSans-61" transform="scale(0.015625)"/>
       <path d="M 513 4856 
L 1013 4856 
Q 1481 4119 1714 3412 
Q 1947 2706 1947 2009 
Q 1947 1309 1714 600 
Q 1481 -109 1013 -844 
L 513 -844 
Q 928 -128 1133 580 
Q 1338 1288 1338 2009 
Q 1338 2731 1133 3434 
Q 928 4138 513 4856 
z
" id="DejaVuSans-29" transform="scale(0.015625)"/>
      </defs>
      <use xlink:href="#DejaVuSans-77"/>
      <use x="81.787109" xlink:href="#DejaVuSans-69"/>
      <use x="109.570312" xlink:href="#DejaVuSans-64"/>
      <use x="173.046875" xlink:href="#DejaVuSans-74"/>
      <use x="212.255859" xlink:href="#DejaVuSans-68"/>
      <use x="275.634766" xlink:href="#DejaVuSans-20"/>
      <use x="307.421875" xlink:href="#DejaVuSans-33"/>
      <use x="371.044922" xlink:href="#DejaVuSans-32"/>
      <use x="434.667969" xlink:href="#DejaVuSans-20"/>
      <use x="466.455078" xlink:href="#DejaVuSans-28"/>
      <use x="505.46875" xlink:href="#DejaVuSans-74"/>
      <use x="544.677734" xlink:href="#DejaVuSans-72"/>
      <use x="585.791016" xlink:href="#DejaVuSans-61"/>
      <use x="647.070312" xlink:href="#DejaVuSans-69"/>
      <use x="674.853516" xlink:href="#DejaVuSans-6e"/>
      <use x="738.232422" xlink:href="#DejaVuSans-29"/>
     </g>
    </g>
    <g id="line2d_35">
     <path d="M 443.439062 169.907813 
L 463.439062 169.907813 
" style="fill:none;stroke:#348abd;stroke-linecap:square;stroke-width:1.5;"/>
    </g>
    <g id="line2d_36"/>
    <g id="text_16">
     <!-- width 64 (train) -->
     <g transform="translate(471.439062 173.407813)scale(0.1 -0.1)">
      <use xlink:href="#DejaVuSans-77"/>
      <use x="81.787109" xlink:href="#DejaVuSans-69"/>
      <use x="109.570312" xlink:href="#DejaVuSans-64"/>
      <use x="173.046875" xlink:href="#DejaVuSans-74"/>
      <use x="212.255859" xlink:href="#DejaVuSans-68"/>
      <use x="275.634766" xlink:href="#DejaVuSans-20"/>
      <use x="307.421875" xlink:href="#DejaVuSans-36"/>
      <use x="371.044922" xlink:href="#DejaVuSans-34"/>
      <use x="434.667969" xlink:href="#DejaVuSans-20"/>
      <use x="466.455078" xlink:href="#DejaVuSans-28"/>
      <use x="505.46875" xlink:href="#DejaVuSans-74"/>
      <use x="544.677734" xlink:href="#DejaVuSans-72"/>
      <use x="585.791016" xlink:href="#DejaVuSans-61"/>
      <use x="647.070312" xlink:href="#DejaVuSans-69"/>
      <use x="674.853516" xlink:href="#DejaVuSans-6e"/>
      <use x="738.232422" xlink:href="#DejaVuSans-29"/>
     </g>
    </g>
    <g id="line2d_37">
     <path d="M 443.439062 184.585938 
L 463.439062 184.585938 
" style="fill:none;stroke:#988ed5;stroke-linecap:square;stroke-width:1.5;"/>
    </g>
    <g id="line2d_38"/>
    <g id="text_17">
     <!-- width 128 (train) -->
     <g transform="translate(471.439062 188.085938)scale(0.1 -0.1)">
      <use xlink:href="#DejaVuSans-77"/>
      <use x="81.787109" xlink:href="#DejaVuSans-69"/>
      <use x="109.570312" xlink:href="#DejaVuSans-64"/>
      <use x="173.046875" xlink:href="#DejaVuSans-74"/>
      <use x="212.255859" xlink:href="#DejaVuSans-68"/>
      <use x="275.634766" xlink:href="#DejaVuSans-20"/>
      <use x="307.421875" xlink:href="#DejaVuSans-31"/>
      <use x="371.044922" xlink:href="#DejaVuSans-32"/>
      <use x="434.667969" xlink:href="#DejaVuSans-38"/>
      <use x="498.291016" xlink:href="#DejaVuSans-20"/>
      <use x="530.078125" xlink:href="#DejaVuSans-28"/>
      <use x="569.091797" xlink:href="#DejaVuSans-74"/>
      <use x="608.300781" xlink:href="#DejaVuSans-72"/>
      <use x="649.414062" xlink:href="#DejaVuSans-61"/>
      <use x="710.693359" xlink:href="#DejaVuSans-69"/>
      <use x="738.476562" xlink:href="#DejaVuSans-6e"/>
      <use x="801.855469" xlink:href="#DejaVuSans-29"/>
     </g>
    </g>
    <g id="line2d_39">
     <path d="M 443.439062 199.264063 
L 463.439062 199.264063 
" style="fill:none;stroke:#777777;stroke-dasharray:5.55,2.4;stroke-dashoffset:0;stroke-width:1.5;"/>
    </g>
    <g id="line2d_40"/>
    <g id="text_18">
     <!-- width 32 (valid) -->
     <g transform="translate(471.439062 202.764063)scale(0.1 -0.1)">
      <defs>
       <path d="M 191 3500 
L 800 3500 
L 1894 563 
L 2988 3500 
L 3597 3500 
L 2284 0 
L 1503 0 
L 191 3500 
z
" id="DejaVuSans-76" transform="scale(0.015625)"/>
       <path d="M 603 4863 
L 1178 4863 
L 1178 0 
L 603 0 
L 603 4863 
z
" id="DejaVuSans-6c" transform="scale(0.015625)"/>
      </defs>
      <use xlink:href="#DejaVuSans-77"/>
      <use x="81.787109" xlink:href="#DejaVuSans-69"/>
      <use x="109.570312" xlink:href="#DejaVuSans-64"/>
      <use x="173.046875" xlink:href="#DejaVuSans-74"/>
      <use x="212.255859" xlink:href="#DejaVuSans-68"/>
      <use x="275.634766" xlink:href="#DejaVuSans-20"/>
      <use x="307.421875" xlink:href="#DejaVuSans-33"/>
      <use x="371.044922" xlink:href="#DejaVuSans-32"/>
      <use x="434.667969" xlink:href="#DejaVuSans-20"/>
      <use x="466.455078" xlink:href="#DejaVuSans-28"/>
      <use x="505.46875" xlink:href="#DejaVuSans-76"/>
      <use x="564.648438" xlink:href="#DejaVuSans-61"/>
      <use x="625.927734" xlink:href="#DejaVuSans-6c"/>
      <use x="653.710938" xlink:href="#DejaVuSans-69"/>
      <use x="681.494141" xlink:href="#DejaVuSans-64"/>
      <use x="744.970703" xlink:href="#DejaVuSans-29"/>
     </g>
    </g>
    <g id="line2d_41">
     <path d="M 443.439062 213.942188 
L 463.439062 213.942188 
" style="fill:none;stroke:#fbc15e;stroke-dasharray:5.55,2.4;stroke-dashoffset:0;stroke-width:1.5;"/>
    </g>
    <g id="line2d_42"/>
    <g id="text_19">
     <!-- width 64 (valid) -->
     <g transform="translate(471.439062 217.442188)scale(0.1 -0.1)">
      <use xlink:href="#DejaVuSans-77"/>
      <use x="81.787109" xlink:href="#DejaVuSans-69"/>
      <use x="109.570312" xlink:href="#DejaVuSans-64"/>
      <use x="173.046875" xlink:href="#DejaVuSans-74"/>
      <use x="212.255859" xlink:href="#DejaVuSans-68"/>
      <use x="275.634766" xlink:href="#DejaVuSans-20"/>
      <use x="307.421875" xlink:href="#DejaVuSans-36"/>
      <use x="371.044922" xlink:href="#DejaVuSans-34"/>
      <use x="434.667969" xlink:href="#DejaVuSans-20"/>
      <use x="466.455078" xlink:href="#DejaVuSans-28"/>
      <use x="505.46875" xlink:href="#DejaVuSans-76"/>
      <use x="564.648438" xlink:href="#DejaVuSans-61"/>
      <use x="625.927734" xlink:href="#DejaVuSans-6c"/>
      <use x="653.710938" xlink:href="#DejaVuSans-69"/>
      <use x="681.494141" xlink:href="#DejaVuSans-64"/>
      <use x="744.970703" xlink:href="#DejaVuSans-29"/>
     </g>
    </g>
    <g id="line2d_43">
     <path d="M 443.439062 228.620313 
L 463.439062 228.620313 
" style="fill:none;stroke:#8eba42;stroke-dasharray:5.55,2.4;stroke-dashoffset:0;stroke-width:1.5;"/>
    </g>
    <g id="line2d_44"/>
    <g id="text_20">
     <!-- width 128 (valid) -->
     <g transform="translate(471.439062 232.120313)scale(0.1 -0.1)">
      <use xlink:href="#DejaVuSans-77"/>
      <use x="81.787109" xlink:href="#DejaVuSans-69"/>
      <use x="109.570312" xlink:href="#DejaVuSans-64"/>
      <use x="173.046875" xlink:href="#DejaVuSans-74"/>
      <use x="212.255859" xlink:href="#DejaVuSans-68"/>
      <use x="275.634766" xlink:href="#DejaVuSans-20"/>
      <use x="307.421875" xlink:href="#DejaVuSans-31"/>
      <use x="371.044922" xlink:href="#DejaVuSans-32"/>
      <use x="434.667969" xlink:href="#DejaVuSans-38"/>
      <use x="498.291016" xlink:href="#DejaVuSans-20"/>
      <use x="530.078125" xlink:href="#DejaVuSans-28"/>
      <use x="569.091797" xlink:href="#DejaVuSans-76"/>
      <use x="628.271484" xlink:href="#DejaVuSans-61"/>
      <use x="689.550781" xlink:href="#DejaVuSans-6c"/>
      <use x="717.333984" xlink:href="#DejaVuSans-69"/>
      <use x="745.117188" xlink:href="#DejaVuSans-64"/>
      <use x="808.59375" xlink:href="#DejaVuSans-29"/>
     </g>
    </g>
   </g>
  </g>
 </g>
 <defs>
  <clipPath id="p3e8c0030a3">
   <rect height="232.4" width="525.15" x="40.05" y="10.8"/>
  </clipPath>
 </defs>
</svg>
