<?xml version="1.0" encoding="utf-8" standalone="no"?>
<!DOCTYPE svg PUBLIC "-//W3C//DTD SVG 1.1//EN"
  "http://www.w3.org/Graphics/SVG/1.1/DTD/svg11.dtd">
<svg height="288pt" version="1.1" viewBox="0 0 576 288" width="576pt" xmlns="http://www.w3.org/2000/svg" xmlns:xlink="http://www.w3.org/1999/xlink">
 <metadata>
  <rdf:RDF xmlns:cc="http://creativecommons.org/ns#" xmlns:dc="http://purl.org/dc/elements/1.1/" xmlns:rdf="http://www.w3.org/1999/02/22-rdf-syntax-ns#">
   <cc:Work>
    <dc:type rdf:resource="http://purl.org/dc/dcmitype/StillImage"/>
    <dc:date>2021-11-04T21:11:30.454299</dc:date>
    <dc:format>image/svg+xml</dc:format>
    <dc:creator>
     <cc:Agent>
      <dc:title>Matplotlib v3.4.3, https://matplotlib.org/</dc:title>
     </cc:Agent>
    </dc:creator>
   </cc:Work>
  </rdf:RDF>
 </metadata>
 <defs>
  <style type="text/css">*{stroke-linecap:butt;stroke-linejoin:round;}</style>
 </defs>
 <g id="figure_1">
  <g id="patch_1">
   <path d="M 0 288 
L 576 288 
L 576 0 
L 0 0 
z
" style="fill:#ffffff;"/>
  </g>
  <g id="axes_1">
   <g id="patch_2">
    <path d="M 33.8 243.2 
L 565.2 243.2 
L 565.2 13.480992 
L 33.8 13.480992 
z
" style="fill:#e5e5e5;"/>
   </g>
   <g id="matplotlib.axis_1">
    <g id="xtick_1">
     <g id="line2d_1">
      <path clip-path="url(#p4a3a151070)" d="M 53.074839 243.2 
L 53.074839 13.480992 
" style="fill:none;stroke:#ffffff;stroke-linecap:square;stroke-width:0.8;"/>
     </g>
     <g id="line2d_2">
      <defs>
       <path d="M 0 0 
L 0 3.5 
" id="mfe5b3969e9" style="stroke:#555555;stroke-width:0.8;"/>
      </defs>
      <g>
       <use style="fill:#555555;stroke:#555555;stroke-width:0.8;" x="53.074839" xlink:href="#mfe5b3969e9" y="243.2"/>
      </g>
     </g>
     <g id="text_1">
      <!-- 0 -->
      <g style="fill:#555555;" transform="translate(49.893589 257.798437)scale(0.1 -0.1)">
       <defs>
        <path d="M 2034 4250 
Q 1547 4250 1301 3770 
Q 1056 3291 1056 2328 
Q 1056 1369 1301 889 
Q 1547 409 2034 409 
Q 2525 409 2770 889 
Q 3016 1369 3016 2328 
Q 3016 3291 2770 3770 
Q 2525 4250 2034 4250 
z
M 2034 4750 
Q 2819 4750 3233 4129 
Q 3647 3509 3647 2328 
Q 3647 1150 3233 529 
Q 2819 -91 2034 -91 
Q 1250 -91 836 529 
Q 422 1150 422 2328 
Q 422 3509 836 4129 
Q 1250 4750 2034 4750 
z
" id="DejaVuSans-30" transform="scale(0.015625)"/>
       </defs>
       <use xlink:href="#DejaVuSans-30"/>
      </g>
     </g>
    </g>
    <g id="xtick_2">
     <g id="line2d_3">
      <path clip-path="url(#p4a3a151070)" d="M 150.668962 243.2 
L 150.668962 13.480992 
" style="fill:none;stroke:#ffffff;stroke-linecap:square;stroke-width:0.8;"/>
     </g>
     <g id="line2d_4">
      <g>
       <use style="fill:#555555;stroke:#555555;stroke-width:0.8;" x="150.668962" xlink:href="#mfe5b3969e9" y="243.2"/>
      </g>
     </g>
     <g id="text_2">
      <!-- 20 -->
      <g style="fill:#555555;" transform="translate(144.306462 257.798437)scale(0.1 -0.1)">
       <defs>
        <path d="M 1228 531 
L 3431 531 
L 3431 0 
L 469 0 
L 469 531 
Q 828 903 1448 1529 
Q 2069 2156 2228 2338 
Q 2531 2678 2651 2914 
Q 2772 3150 2772 3378 
Q 2772 3750 2511 3984 
Q 2250 4219 1831 4219 
Q 1534 4219 1204 4116 
Q 875 4013 500 3803 
L 500 4441 
Q 881 4594 1212 4672 
Q 1544 4750 1819 4750 
Q 2544 4750 2975 4387 
Q 3406 4025 3406 3419 
Q 3406 3131 3298 2873 
Q 3191 2616 2906 2266 
Q 2828 2175 2409 1742 
Q 1991 1309 1228 531 
z
" id="DejaVuSans-32" transform="scale(0.015625)"/>
       </defs>
       <use xlink:href="#DejaVuSans-32"/>
       <use x="63.623047" xlink:href="#DejaVuSans-30"/>
      </g>
     </g>
    </g>
    <g id="xtick_3">
     <g id="line2d_5">
      <path clip-path="url(#p4a3a151070)" d="M 248.263085 243.2 
L 248.263085 13.480992 
" style="fill:none;stroke:#ffffff;stroke-linecap:square;stroke-width:0.8;"/>
     </g>
     <g id="line2d_6">
      <g>
       <use style="fill:#555555;stroke:#555555;stroke-width:0.8;" x="248.263085" xlink:href="#mfe5b3969e9" y="243.2"/>
      </g>
     </g>
     <g id="text_3">
      <!-- 40 -->
      <g style="fill:#555555;" transform="translate(241.900585 257.798437)scale(0.1 -0.1)">
       <defs>
        <path d="M 2419 4116 
L 825 1625 
L 2419 1625 
L 2419 4116 
z
M 2253 4666 
L 3047 4666 
L 3047 1625 
L 3713 1625 
L 3713 1100 
L 3047 1100 
L 3047 0 
L 2419 0 
L 2419 1100 
L 313 1100 
L 313 1709 
L 2253 4666 
z
" id="DejaVuSans-34" transform="scale(0.015625)"/>
       </defs>
       <use xlink:href="#DejaVuSans-34"/>
       <use x="63.623047" xlink:href="#DejaVuSans-30"/>
      </g>
     </g>
    </g>
    <g id="xtick_4">
     <g id="line2d_7">
      <path clip-path="url(#p4a3a151070)" d="M 345.857208 243.2 
L 345.857208 13.480992 
" style="fill:none;stroke:#ffffff;stroke-linecap:square;stroke-width:0.8;"/>
     </g>
     <g id="line2d_8">
      <g>
       <use style="fill:#555555;stroke:#555555;stroke-width:0.8;" x="345.857208" xlink:href="#mfe5b3969e9" y="243.2"/>
      </g>
     </g>
     <g id="text_4">
      <!-- 60 -->
      <g style="fill:#555555;" transform="translate(339.494708 257.798437)scale(0.1 -0.1)">
       <defs>
        <path d="M 2113 2584 
Q 1688 2584 1439 2293 
Q 1191 2003 1191 1497 
Q 1191 994 1439 701 
Q 1688 409 2113 409 
Q 2538 409 2786 701 
Q 3034 994 3034 1497 
Q 3034 2003 2786 2293 
Q 2538 2584 2113 2584 
z
M 3366 4563 
L 3366 3988 
Q 3128 4100 2886 4159 
Q 2644 4219 2406 4219 
Q 1781 4219 1451 3797 
Q 1122 3375 1075 2522 
Q 1259 2794 1537 2939 
Q 1816 3084 2150 3084 
Q 2853 3084 3261 2657 
Q 3669 2231 3669 1497 
Q 3669 778 3244 343 
Q 2819 -91 2113 -91 
Q 1303 -91 875 529 
Q 447 1150 447 2328 
Q 447 3434 972 4092 
Q 1497 4750 2381 4750 
Q 2619 4750 2861 4703 
Q 3103 4656 3366 4563 
z
" id="DejaVuSans-36" transform="scale(0.015625)"/>
       </defs>
       <use xlink:href="#DejaVuSans-36"/>
       <use x="63.623047" xlink:href="#DejaVuSans-30"/>
      </g>
     </g>
    </g>
    <g id="xtick_5">
     <g id="line2d_9">
      <path clip-path="url(#p4a3a151070)" d="M 443.451331 243.2 
L 443.451331 13.480992 
" style="fill:none;stroke:#ffffff;stroke-linecap:square;stroke-width:0.8;"/>
     </g>
     <g id="line2d_10">
      <g>
       <use style="fill:#555555;stroke:#555555;stroke-width:0.8;" x="443.451331" xlink:href="#mfe5b3969e9" y="243.2"/>
      </g>
     </g>
     <g id="text_5">
      <!-- 80 -->
      <g style="fill:#555555;" transform="translate(437.088831 257.798437)scale(0.1 -0.1)">
       <defs>
        <path d="M 2034 2216 
Q 1584 2216 1326 1975 
Q 1069 1734 1069 1313 
Q 1069 891 1326 650 
Q 1584 409 2034 409 
Q 2484 409 2743 651 
Q 3003 894 3003 1313 
Q 3003 1734 2745 1975 
Q 2488 2216 2034 2216 
z
M 1403 2484 
Q 997 2584 770 2862 
Q 544 3141 544 3541 
Q 544 4100 942 4425 
Q 1341 4750 2034 4750 
Q 2731 4750 3128 4425 
Q 3525 4100 3525 3541 
Q 3525 3141 3298 2862 
Q 3072 2584 2669 2484 
Q 3125 2378 3379 2068 
Q 3634 1759 3634 1313 
Q 3634 634 3220 271 
Q 2806 -91 2034 -91 
Q 1263 -91 848 271 
Q 434 634 434 1313 
Q 434 1759 690 2068 
Q 947 2378 1403 2484 
z
M 1172 3481 
Q 1172 3119 1398 2916 
Q 1625 2713 2034 2713 
Q 2441 2713 2670 2916 
Q 2900 3119 2900 3481 
Q 2900 3844 2670 4047 
Q 2441 4250 2034 4250 
Q 1625 4250 1398 4047 
Q 1172 3844 1172 3481 
z
" id="DejaVuSans-38" transform="scale(0.015625)"/>
       </defs>
       <use xlink:href="#DejaVuSans-38"/>
       <use x="63.623047" xlink:href="#DejaVuSans-30"/>
      </g>
     </g>
    </g>
    <g id="xtick_6">
     <g id="line2d_11">
      <path clip-path="url(#p4a3a151070)" d="M 541.045455 243.2 
L 541.045455 13.480992 
" style="fill:none;stroke:#ffffff;stroke-linecap:square;stroke-width:0.8;"/>
     </g>
     <g id="line2d_12">
      <g>
       <use style="fill:#555555;stroke:#555555;stroke-width:0.8;" x="541.045455" xlink:href="#mfe5b3969e9" y="243.2"/>
      </g>
     </g>
     <g id="text_6">
      <!-- 100 -->
      <g style="fill:#555555;" transform="translate(531.501705 257.798437)scale(0.1 -0.1)">
       <defs>
        <path d="M 794 531 
L 1825 531 
L 1825 4091 
L 703 3866 
L 703 4441 
L 1819 4666 
L 2450 4666 
L 2450 531 
L 3481 531 
L 3481 0 
L 794 0 
L 794 531 
z
" id="DejaVuSans-31" transform="scale(0.015625)"/>
       </defs>
       <use xlink:href="#DejaVuSans-31"/>
       <use x="63.623047" xlink:href="#DejaVuSans-30"/>
       <use x="127.246094" xlink:href="#DejaVuSans-30"/>
      </g>
     </g>
    </g>
    <g id="text_7">
     <!-- Epoch number -->
     <g style="fill:#555555;" transform="translate(255.803125 272.99625)scale(0.12 -0.12)">
      <defs>
       <path d="M 628 4666 
L 3578 4666 
L 3578 4134 
L 1259 4134 
L 1259 2753 
L 3481 2753 
L 3481 2222 
L 1259 2222 
L 1259 531 
L 3634 531 
L 3634 0 
L 628 0 
L 628 4666 
z
" id="DejaVuSans-45" transform="scale(0.015625)"/>
       <path d="M 1159 525 
L 1159 -1331 
L 581 -1331 
L 581 3500 
L 1159 3500 
L 1159 2969 
Q 1341 3281 1617 3432 
Q 1894 3584 2278 3584 
Q 2916 3584 3314 3078 
Q 3713 2572 3713 1747 
Q 3713 922 3314 415 
Q 2916 -91 2278 -91 
Q 1894 -91 1617 61 
Q 1341 213 1159 525 
z
M 3116 1747 
Q 3116 2381 2855 2742 
Q 2594 3103 2138 3103 
Q 1681 3103 1420 2742 
Q 1159 2381 1159 1747 
Q 1159 1113 1420 752 
Q 1681 391 2138 391 
Q 2594 391 2855 752 
Q 3116 1113 3116 1747 
z
" id="DejaVuSans-70" transform="scale(0.015625)"/>
       <path d="M 1959 3097 
Q 1497 3097 1228 2736 
Q 959 2375 959 1747 
Q 959 1119 1226 758 
Q 1494 397 1959 397 
Q 2419 397 2687 759 
Q 2956 1122 2956 1747 
Q 2956 2369 2687 2733 
Q 2419 3097 1959 3097 
z
M 1959 3584 
Q 2709 3584 3137 3096 
Q 3566 2609 3566 1747 
Q 3566 888 3137 398 
Q 2709 -91 1959 -91 
Q 1206 -91 779 398 
Q 353 888 353 1747 
Q 353 2609 779 3096 
Q 1206 3584 1959 3584 
z
" id="DejaVuSans-6f" transform="scale(0.015625)"/>
       <path d="M 3122 3366 
L 3122 2828 
Q 2878 2963 2633 3030 
Q 2388 3097 2138 3097 
Q 1578 3097 1268 2742 
Q 959 2388 959 1747 
Q 959 1106 1268 751 
Q 1578 397 2138 397 
Q 2388 397 2633 464 
Q 2878 531 3122 666 
L 3122 134 
Q 2881 22 2623 -34 
Q 2366 -91 2075 -91 
Q 1284 -91 818 406 
Q 353 903 353 1747 
Q 353 2603 823 3093 
Q 1294 3584 2113 3584 
Q 2378 3584 2631 3529 
Q 2884 3475 3122 3366 
z
" id="DejaVuSans-63" transform="scale(0.015625)"/>
       <path d="M 3513 2113 
L 3513 0 
L 2938 0 
L 2938 2094 
Q 2938 2591 2744 2837 
Q 2550 3084 2163 3084 
Q 1697 3084 1428 2787 
Q 1159 2491 1159 1978 
L 1159 0 
L 581 0 
L 581 4863 
L 1159 4863 
L 1159 2956 
Q 1366 3272 1645 3428 
Q 1925 3584 2291 3584 
Q 2894 3584 3203 3211 
Q 3513 2838 3513 2113 
z
" id="DejaVuSans-68" transform="scale(0.015625)"/>
       <path id="DejaVuSans-20" transform="scale(0.015625)"/>
       <path d="M 3513 2113 
L 3513 0 
L 2938 0 
L 2938 2094 
Q 2938 2591 2744 2837 
Q 2550 3084 2163 3084 
Q 1697 3084 1428 2787 
Q 1159 2491 1159 1978 
L 1159 0 
L 581 0 
L 581 3500 
L 1159 3500 
L 1159 2956 
Q 1366 3272 1645 3428 
Q 1925 3584 2291 3584 
Q 2894 3584 3203 3211 
Q 3513 2838 3513 2113 
z
" id="DejaVuSans-6e" transform="scale(0.015625)"/>
       <path d="M 544 1381 
L 544 3500 
L 1119 3500 
L 1119 1403 
Q 1119 906 1312 657 
Q 1506 409 1894 409 
Q 2359 409 2629 706 
Q 2900 1003 2900 1516 
L 2900 3500 
L 3475 3500 
L 3475 0 
L 2900 0 
L 2900 538 
Q 2691 219 2414 64 
Q 2138 -91 1772 -91 
Q 1169 -91 856 284 
Q 544 659 544 1381 
z
M 1991 3584 
L 1991 3584 
z
" id="DejaVuSans-75" transform="scale(0.015625)"/>
       <path d="M 3328 2828 
Q 3544 3216 3844 3400 
Q 4144 3584 4550 3584 
Q 5097 3584 5394 3201 
Q 5691 2819 5691 2113 
L 5691 0 
L 5113 0 
L 5113 2094 
Q 5113 2597 4934 2840 
Q 4756 3084 4391 3084 
Q 3944 3084 3684 2787 
Q 3425 2491 3425 1978 
L 3425 0 
L 2847 0 
L 2847 2094 
Q 2847 2600 2669 2842 
Q 2491 3084 2119 3084 
Q 1678 3084 1418 2786 
Q 1159 2488 1159 1978 
L 1159 0 
L 581 0 
L 581 3500 
L 1159 3500 
L 1159 2956 
Q 1356 3278 1631 3431 
Q 1906 3584 2284 3584 
Q 2666 3584 2933 3390 
Q 3200 3197 3328 2828 
z
" id="DejaVuSans-6d" transform="scale(0.015625)"/>
       <path d="M 3116 1747 
Q 3116 2381 2855 2742 
Q 2594 3103 2138 3103 
Q 1681 3103 1420 2742 
Q 1159 2381 1159 1747 
Q 1159 1113 1420 752 
Q 1681 391 2138 391 
Q 2594 391 2855 752 
Q 3116 1113 3116 1747 
z
M 1159 2969 
Q 1341 3281 1617 3432 
Q 1894 3584 2278 3584 
Q 2916 3584 3314 3078 
Q 3713 2572 3713 1747 
Q 3713 922 3314 415 
Q 2916 -91 2278 -91 
Q 1894 -91 1617 61 
Q 1341 213 1159 525 
L 1159 0 
L 581 0 
L 581 4863 
L 1159 4863 
L 1159 2969 
z
" id="DejaVuSans-62" transform="scale(0.015625)"/>
       <path d="M 3597 1894 
L 3597 1613 
L 953 1613 
Q 991 1019 1311 708 
Q 1631 397 2203 397 
Q 2534 397 2845 478 
Q 3156 559 3463 722 
L 3463 178 
Q 3153 47 2828 -22 
Q 2503 -91 2169 -91 
Q 1331 -91 842 396 
Q 353 884 353 1716 
Q 353 2575 817 3079 
Q 1281 3584 2069 3584 
Q 2775 3584 3186 3129 
Q 3597 2675 3597 1894 
z
M 3022 2063 
Q 3016 2534 2758 2815 
Q 2500 3097 2075 3097 
Q 1594 3097 1305 2825 
Q 1016 2553 972 2059 
L 3022 2063 
z
" id="DejaVuSans-65" transform="scale(0.015625)"/>
       <path d="M 2631 2963 
Q 2534 3019 2420 3045 
Q 2306 3072 2169 3072 
Q 1681 3072 1420 2755 
Q 1159 2438 1159 1844 
L 1159 0 
L 581 0 
L 581 3500 
L 1159 3500 
L 1159 2956 
Q 1341 3275 1631 3429 
Q 1922 3584 2338 3584 
Q 2397 3584 2469 3576 
Q 2541 3569 2628 3553 
L 2631 2963 
z
" id="DejaVuSans-72" transform="scale(0.015625)"/>
      </defs>
      <use xlink:href="#DejaVuSans-45"/>
      <use x="63.183594" xlink:href="#DejaVuSans-70"/>
      <use x="126.660156" xlink:href="#DejaVuSans-6f"/>
      <use x="187.841797" xlink:href="#DejaVuSans-63"/>
      <use x="242.822266" xlink:href="#DejaVuSans-68"/>
      <use x="306.201172" xlink:href="#DejaVuSans-20"/>
      <use x="337.988281" xlink:href="#DejaVuSans-6e"/>
      <use x="401.367188" xlink:href="#DejaVuSans-75"/>
      <use x="464.746094" xlink:href="#DejaVuSans-6d"/>
      <use x="562.158203" xlink:href="#DejaVuSans-62"/>
      <use x="625.634766" xlink:href="#DejaVuSans-65"/>
      <use x="687.158203" xlink:href="#DejaVuSans-72"/>
     </g>
    </g>
   </g>
   <g id="matplotlib.axis_2">
    <g id="ytick_1">
     <g id="line2d_13">
      <path clip-path="url(#p4a3a151070)" d="M 33.8 219.088103 
L 565.2 219.088103 
" style="fill:none;stroke:#ffffff;stroke-linecap:square;stroke-width:0.8;"/>
     </g>
     <g id="line2d_14">
      <defs>
       <path d="M 0 0 
L -3.5 0 
" id="m89def2e632" style="stroke:#555555;stroke-width:0.8;"/>
      </defs>
      <g>
       <use style="fill:#555555;stroke:#555555;stroke-width:0.8;" x="33.8" xlink:href="#m89def2e632" y="219.088103"/>
      </g>
     </g>
     <g id="text_8">
      <!-- 0.2 -->
      <g style="fill:#555555;" transform="translate(10.896875 222.887321)scale(0.1 -0.1)">
       <defs>
        <path d="M 684 794 
L 1344 794 
L 1344 0 
L 684 0 
L 684 794 
z
" id="DejaVuSans-2e" transform="scale(0.015625)"/>
       </defs>
       <use xlink:href="#DejaVuSans-30"/>
       <use x="63.623047" xlink:href="#DejaVuSans-2e"/>
       <use x="95.410156" xlink:href="#DejaVuSans-32"/>
      </g>
     </g>
    </g>
    <g id="ytick_2">
     <g id="line2d_15">
      <path clip-path="url(#p4a3a151070)" d="M 33.8 193.561401 
L 565.2 193.561401 
" style="fill:none;stroke:#ffffff;stroke-linecap:square;stroke-width:0.8;"/>
     </g>
     <g id="line2d_16">
      <g>
       <use style="fill:#555555;stroke:#555555;stroke-width:0.8;" x="33.8" xlink:href="#m89def2e632" y="193.561401"/>
      </g>
     </g>
     <g id="text_9">
      <!-- 0.4 -->
      <g style="fill:#555555;" transform="translate(10.896875 197.360619)scale(0.1 -0.1)">
       <use xlink:href="#DejaVuSans-30"/>
       <use x="63.623047" xlink:href="#DejaVuSans-2e"/>
       <use x="95.410156" xlink:href="#DejaVuSans-34"/>
      </g>
     </g>
    </g>
    <g id="ytick_3">
     <g id="line2d_17">
      <path clip-path="url(#p4a3a151070)" d="M 33.8 168.034698 
L 565.2 168.034698 
" style="fill:none;stroke:#ffffff;stroke-linecap:square;stroke-width:0.8;"/>
     </g>
     <g id="line2d_18">
      <g>
       <use style="fill:#555555;stroke:#555555;stroke-width:0.8;" x="33.8" xlink:href="#m89def2e632" y="168.034698"/>
      </g>
     </g>
     <g id="text_10">
      <!-- 0.6 -->
      <g style="fill:#555555;" transform="translate(10.896875 171.833917)scale(0.1 -0.1)">
       <use xlink:href="#DejaVuSans-30"/>
       <use x="63.623047" xlink:href="#DejaVuSans-2e"/>
       <use x="95.410156" xlink:href="#DejaVuSans-36"/>
      </g>
     </g>
    </g>
    <g id="ytick_4">
     <g id="line2d_19">
      <path clip-path="url(#p4a3a151070)" d="M 33.8 142.507996 
L 565.2 142.507996 
" style="fill:none;stroke:#ffffff;stroke-linecap:square;stroke-width:0.8;"/>
     </g>
     <g id="line2d_20">
      <g>
       <use style="fill:#555555;stroke:#555555;stroke-width:0.8;" x="33.8" xlink:href="#m89def2e632" y="142.507996"/>
      </g>
     </g>
     <g id="text_11">
      <!-- 0.8 -->
      <g style="fill:#555555;" transform="translate(10.896875 146.307215)scale(0.1 -0.1)">
       <use xlink:href="#DejaVuSans-30"/>
       <use x="63.623047" xlink:href="#DejaVuSans-2e"/>
       <use x="95.410156" xlink:href="#DejaVuSans-38"/>
      </g>
     </g>
    </g>
    <g id="ytick_5">
     <g id="line2d_21">
      <path clip-path="url(#p4a3a151070)" d="M 33.8 116.981294 
L 565.2 116.981294 
" style="fill:none;stroke:#ffffff;stroke-linecap:square;stroke-width:0.8;"/>
     </g>
     <g id="line2d_22">
      <g>
       <use style="fill:#555555;stroke:#555555;stroke-width:0.8;" x="33.8" xlink:href="#m89def2e632" y="116.981294"/>
      </g>
     </g>
     <g id="text_12">
      <!-- 1.0 -->
      <g style="fill:#555555;" transform="translate(10.896875 120.780513)scale(0.1 -0.1)">
       <use xlink:href="#DejaVuSans-31"/>
       <use x="63.623047" xlink:href="#DejaVuSans-2e"/>
       <use x="95.410156" xlink:href="#DejaVuSans-30"/>
      </g>
     </g>
    </g>
    <g id="ytick_6">
     <g id="line2d_23">
      <path clip-path="url(#p4a3a151070)" d="M 33.8 91.454592 
L 565.2 91.454592 
" style="fill:none;stroke:#ffffff;stroke-linecap:square;stroke-width:0.8;"/>
     </g>
     <g id="line2d_24">
      <g>
       <use style="fill:#555555;stroke:#555555;stroke-width:0.8;" x="33.8" xlink:href="#m89def2e632" y="91.454592"/>
      </g>
     </g>
     <g id="text_13">
      <!-- 1.2 -->
      <g style="fill:#555555;" transform="translate(10.896875 95.253811)scale(0.1 -0.1)">
       <use xlink:href="#DejaVuSans-31"/>
       <use x="63.623047" xlink:href="#DejaVuSans-2e"/>
       <use x="95.410156" xlink:href="#DejaVuSans-32"/>
      </g>
     </g>
    </g>
    <g id="ytick_7">
     <g id="line2d_25">
      <path clip-path="url(#p4a3a151070)" d="M 33.8 65.92789 
L 565.2 65.92789 
" style="fill:none;stroke:#ffffff;stroke-linecap:square;stroke-width:0.8;"/>
     </g>
     <g id="line2d_26">
      <g>
       <use style="fill:#555555;stroke:#555555;stroke-width:0.8;" x="33.8" xlink:href="#m89def2e632" y="65.92789"/>
      </g>
     </g>
     <g id="text_14">
      <!-- 1.4 -->
      <g style="fill:#555555;" transform="translate(10.896875 69.727108)scale(0.1 -0.1)">
       <use xlink:href="#DejaVuSans-31"/>
       <use x="63.623047" xlink:href="#DejaVuSans-2e"/>
       <use x="95.410156" xlink:href="#DejaVuSans-34"/>
      </g>
     </g>
    </g>
    <g id="ytick_8">
     <g id="line2d_27">
      <path clip-path="url(#p4a3a151070)" d="M 33.8 40.401188 
L 565.2 40.401188 
" style="fill:none;stroke:#ffffff;stroke-linecap:square;stroke-width:0.8;"/>
     </g>
     <g id="line2d_28">
      <g>
       <use style="fill:#555555;stroke:#555555;stroke-width:0.8;" x="33.8" xlink:href="#m89def2e632" y="40.401188"/>
      </g>
     </g>
     <g id="text_15">
      <!-- 1.6 -->
      <g style="fill:#555555;" transform="translate(10.896875 44.200406)scale(0.1 -0.1)">
       <use xlink:href="#DejaVuSans-31"/>
       <use x="63.623047" xlink:href="#DejaVuSans-2e"/>
       <use x="95.410156" xlink:href="#DejaVuSans-36"/>
      </g>
     </g>
    </g>
    <g id="ytick_9">
     <g id="line2d_29">
      <path clip-path="url(#p4a3a151070)" d="M 33.8 14.874485 
L 565.2 14.874485 
" style="fill:none;stroke:#ffffff;stroke-linecap:square;stroke-width:0.8;"/>
     </g>
     <g id="line2d_30">
      <g>
       <use style="fill:#555555;stroke:#555555;stroke-width:0.8;" x="33.8" xlink:href="#m89def2e632" y="14.874485"/>
      </g>
     </g>
     <g id="text_16">
      <!-- 1.8 -->
      <g style="fill:#555555;" transform="translate(10.896875 18.673704)scale(0.1 -0.1)">
       <use xlink:href="#DejaVuSans-31"/>
       <use x="63.623047" xlink:href="#DejaVuSans-2e"/>
       <use x="95.410156" xlink:href="#DejaVuSans-38"/>
      </g>
     </g>
    </g>
   </g>
   <g id="line2d_31">
    <path clip-path="url(#p4a3a151070)" d="M 57.954545 128.988884 
L 62.834252 155.322926 
L 67.713958 167.396574 
L 72.593664 173.901366 
L 77.47337 180.294525 
L 82.353076 183.185655 
L 87.232782 185.455992 
L 92.112489 188.34394 
L 96.992195 191.605984 
L 101.871901 192.584754 
L 106.751607 195.222846 
L 111.631313 195.93857 
L 116.511019 196.026995 
L 121.390725 197.072153 
L 126.270432 198.553933 
L 131.150138 199.760187 
L 136.029844 199.150042 
L 140.90955 202.188333 
L 145.789256 203.175812 
L 150.668962 203.643773 
L 155.548669 204.469152 
L 160.428375 205.057916 
L 165.308081 205.31461 
L 170.187787 205.968223 
L 175.067493 206.276721 
L 179.947199 206.983578 
L 184.826905 207.714812 
L 189.706612 208.705723 
L 194.586318 208.7965 
L 199.466024 208.505312 
L 204.34573 209.589607 
L 209.225436 209.905505 
L 214.105142 210.704825 
L 218.984848 211.217908 
L 223.864555 210.881703 
L 228.744261 210.504375 
L 233.623967 211.496776 
L 238.503673 211.690059 
L 243.383379 211.955402 
L 248.263085 212.888354 
L 253.142792 213.901639 
L 258.022498 213.070927 
L 262.902204 213.835503 
L 267.78191 213.710159 
L 272.661616 214.143709 
L 277.541322 214.713455 
L 282.421028 213.497925 
L 287.300735 215.068755 
L 292.180441 216.083035 
L 297.060147 216.434878 
L 301.939853 216.33208 
L 306.819559 216.542326 
L 311.699265 216.077769 
L 316.578972 215.403551 
L 321.458678 217.314525 
L 326.338384 217.914711 
L 331.21809 217.352738 
L 336.097796 218.026109 
L 340.977502 218.57129 
L 345.857208 217.128862 
L 350.736915 218.601163 
L 355.616621 218.683142 
L 360.496327 218.780949 
L 365.376033 217.490986 
L 370.255739 219.726224 
L 375.135445 217.545053 
L 380.015152 219.923637 
L 384.894858 219.323431 
L 389.774564 220.431954 
L 394.65427 219.757899 
L 399.533976 220.000949 
L 404.413682 221.394425 
L 409.293388 219.587137 
L 414.173095 221.053801 
L 419.052801 221.529328 
L 423.932507 221.105429 
L 428.812213 221.333182 
L 433.691919 220.803422 
L 438.571625 221.422179 
L 443.451331 222.33151 
L 448.331038 222.204485 
L 453.210744 222.037519 
L 458.09045 220.888911 
L 462.970156 222.560177 
L 467.849862 222.616293 
L 472.729568 222.874061 
L 477.609275 221.473562 
L 482.488981 223.119674 
L 487.368687 222.750344 
L 492.248393 222.359755 
L 497.128099 223.219559 
L 502.007805 222.765048 
L 506.887511 223.694669 
L 511.767218 223.342055 
L 516.646924 223.164472 
L 521.52663 222.232765 
L 526.406336 224.623009 
L 531.286042 224.973981 
L 536.165748 223.318277 
L 541.045455 224.355698 
" style="fill:none;stroke:#e24a33;stroke-linecap:square;stroke-width:1.5;"/>
   </g>
   <g id="line2d_32">
    <path clip-path="url(#p4a3a151070)" d="M 57.954545 147.298748 
L 62.834252 169.608291 
L 67.713958 180.799345 
L 72.593664 184.444616 
L 77.47337 188.888409 
L 82.353076 193.606069 
L 87.232782 196.954153 
L 92.112489 198.125793 
L 96.992195 199.920899 
L 101.871901 202.51411 
L 106.751607 203.480762 
L 111.631313 204.427004 
L 116.511019 207.468959 
L 121.390725 207.378676 
L 126.270432 207.760672 
L 131.150138 210.087706 
L 136.029844 210.658881 
L 140.90955 211.531901 
L 145.789256 211.768324 
L 150.668962 214.040663 
L 155.548669 213.076433 
L 160.428375 214.975418 
L 165.308081 215.837005 
L 170.187787 216.327751 
L 175.067493 216.274948 
L 179.947199 216.818027 
L 184.826905 217.519916 
L 189.706612 218.11215 
L 194.586318 219.856561 
L 199.466024 219.589326 
L 204.34573 220.222468 
L 209.225436 219.619492 
L 214.105142 221.804985 
L 218.984848 222.078829 
L 223.864555 221.588187 
L 228.744261 221.396764 
L 233.623967 222.345348 
L 238.503673 222.146403 
L 243.383379 222.465338 
L 248.263085 224.090765 
L 253.142792 224.606456 
L 258.022498 224.694327 
L 262.902204 224.352916 
L 267.78191 224.94949 
L 272.661616 224.482967 
L 277.541322 224.539187 
L 282.421028 225.332136 
L 287.300735 226.014627 
L 292.180441 225.94059 
L 297.060147 224.883072 
L 301.939853 226.136563 
L 306.819559 227.541986 
L 311.699265 226.159227 
L 316.578972 226.489735 
L 321.458678 227.828181 
L 326.338384 227.567986 
L 331.21809 228.47465 
L 336.097796 228.609471 
L 340.977502 228.491287 
L 345.857208 228.406263 
L 350.736915 227.510051 
L 355.616621 227.656844 
L 360.496327 228.064665 
L 365.376033 228.777268 
L 370.255739 229.411591 
L 375.135445 228.378769 
L 380.015152 229.208424 
L 384.894858 228.491039 
L 389.774564 229.227893 
L 394.65427 229.066256 
L 399.533976 229.341641 
L 404.413682 229.828625 
L 409.293388 229.984849 
L 414.173095 229.871447 
L 419.052801 229.378326 
L 423.932507 228.776324 
L 428.812213 230.578127 
L 433.691919 231.074073 
L 438.571625 229.701976 
L 443.451331 228.708251 
L 448.331038 231.355408 
L 453.210744 230.194238 
L 458.09045 230.401186 
L 462.970156 230.619026 
L 467.849862 230.486557 
L 472.729568 231.557218 
L 477.609275 230.378335 
L 482.488981 229.687913 
L 487.368687 231.470897 
L 492.248393 231.106083 
L 497.128099 231.24234 
L 502.007805 229.472877 
L 506.887511 230.812765 
L 511.767218 227.277333 
L 516.646924 230.713777 
L 521.52663 232.758227 
L 526.406336 230.923739 
L 531.286042 232.60474 
L 536.165748 229.171904 
L 541.045455 230.014053 
" style="fill:none;stroke:#348abd;stroke-linecap:square;stroke-width:1.5;"/>
   </g>
   <g id="line2d_33">
    <path clip-path="url(#p4a3a151070)" d="M 57.954545 154.351645 
L 62.834252 172.442817 
L 67.713958 184.552942 
L 72.593664 190.285744 
L 77.47337 192.603824 
L 82.353076 196.002264 
L 87.232782 199.492371 
L 92.112489 201.684597 
L 96.992195 202.937762 
L 101.871901 205.129222 
L 106.751607 205.889657 
L 111.631313 207.584899 
L 116.511019 209.431029 
L 121.390725 210.49356 
L 126.270432 212.208631 
L 131.150138 214.23838 
L 136.029844 214.495399 
L 140.90955 214.282006 
L 145.789256 215.381352 
L 150.668962 216.518995 
L 155.548669 216.251959 
L 160.428375 218.568951 
L 165.308081 218.206191 
L 170.187787 219.264758 
L 175.067493 220.203884 
L 179.947199 220.089227 
L 184.826905 220.017614 
L 189.706612 220.965554 
L 194.586318 220.627078 
L 199.466024 220.509045 
L 204.34573 223.079056 
L 209.225436 225.009253 
L 214.105142 222.150469 
L 218.984848 223.697976 
L 223.864555 222.80752 
L 228.744261 223.354081 
L 233.623967 223.601469 
L 238.503673 223.738706 
L 243.383379 224.294272 
L 248.263085 224.472729 
L 253.142792 224.918249 
L 258.022498 225.051829 
L 262.902204 225.996664 
L 267.78191 225.077352 
L 272.661616 226.723165 
L 277.541322 227.341952 
L 282.421028 224.243356 
L 287.300735 225.151326 
L 292.180441 228.005114 
L 297.060147 226.443274 
L 301.939853 227.6872 
L 306.819559 226.745822 
L 311.699265 227.970758 
L 316.578972 227.783949 
L 321.458678 226.048269 
L 326.338384 228.123567 
L 331.21809 228.861328 
L 336.097796 227.430978 
L 340.977502 227.181987 
L 345.857208 226.60208 
L 350.736915 227.668944 
L 355.616621 228.436868 
L 360.496327 226.462392 
L 365.376033 230.014895 
L 370.255739 228.138759 
L 375.135445 228.972308 
L 380.015152 227.995143 
L 384.894858 229.407991 
L 389.774564 228.622703 
L 394.65427 225.507609 
L 399.533976 228.278776 
L 404.413682 229.483734 
L 409.293388 230.926592 
L 414.173095 229.513894 
L 419.052801 229.726335 
L 423.932507 230.746681 
L 428.812213 230.429234 
L 433.691919 229.274309 
L 438.571625 229.099762 
L 443.451331 227.605193 
L 448.331038 230.4055 
L 453.210744 230.930184 
L 458.09045 229.785774 
L 462.970156 230.250118 
L 467.849862 230.955501 
L 472.729568 230.148981 
L 477.609275 228.862531 
L 482.488981 230.946043 
L 487.368687 228.408955 
L 492.248393 229.391011 
L 497.128099 228.679101 
L 502.007805 229.690642 
L 506.887511 229.843124 
L 511.767218 230.042286 
L 516.646924 232.255892 
L 521.52663 230.001446 
L 526.406336 231.14508 
L 531.286042 229.814451 
L 536.165748 230.410644 
L 541.045455 231.29346 
" style="fill:none;stroke:#988ed5;stroke-linecap:square;stroke-width:1.5;"/>
   </g>
   <g id="line2d_34">
    <path clip-path="url(#p4a3a151070)" d="M 57.954545 126.909006 
L 62.834252 150.513737 
L 67.713958 160.697142 
L 72.593664 165.799065 
L 77.47337 170.497208 
L 82.353076 172.063955 
L 87.232782 173.076852 
L 92.112489 174.28099 
L 96.992195 176.082718 
L 101.871901 175.604384 
L 106.751607 176.951174 
L 111.631313 175.892964 
L 116.511019 174.95747 
L 121.390725 174.691324 
L 126.270432 175.46462 
L 131.150138 175.580811 
L 136.029844 173.547875 
L 140.90955 175.933346 
L 145.789256 175.348184 
L 150.668962 174.770832 
L 155.548669 174.587704 
L 160.428375 174.622506 
L 165.308081 172.786837 
L 170.187787 172.560771 
L 175.067493 172.709432 
L 179.947199 170.730067 
L 184.826905 171.421967 
L 189.706612 171.009328 
L 194.586318 170.242927 
L 199.466024 168.703339 
L 204.34573 169.015022 
L 209.225436 167.274902 
L 214.105142 168.024552 
L 218.984848 167.562614 
L 223.864555 166.741894 
L 228.744261 164.53543 
L 233.623967 165.21773 
L 238.503673 163.923814 
L 243.383379 163.749593 
L 248.263085 163.459094 
L 253.142792 163.953951 
L 258.022498 161.580377 
L 262.902204 161.142723 
L 267.78191 159.827157 
L 272.661616 159.796238 
L 277.541322 159.098359 
L 282.421028 157.46535 
L 287.300735 157.202619 
L 292.180441 157.191864 
L 297.060147 157.122898 
L 301.939853 155.497104 
L 306.819559 155.049059 
L 311.699265 152.967478 
L 316.578972 151.732245 
L 321.458678 154.083083 
L 326.338384 153.039142 
L 331.21809 151.252294 
L 336.097796 150.833631 
L 340.977502 150.426058 
L 345.857208 148.382096 
L 350.736915 148.961677 
L 355.616621 147.525176 
L 360.496327 146.715895 
L 365.376033 144.790289 
L 370.255739 147.480931 
L 375.135445 143.783402 
L 380.015152 144.34029 
L 384.894858 143.887067 
L 389.774564 142.367065 
L 394.65427 141.454525 
L 399.533976 140.524716 
L 404.413682 141.832393 
L 409.293388 138.114776 
L 414.173095 140.563335 
L 419.052801 138.938891 
L 423.932507 137.954807 
L 428.812213 137.022903 
L 433.691919 135.300655 
L 438.571625 135.578486 
L 443.451331 134.206377 
L 448.331038 134.836508 
L 453.210744 133.964397 
L 458.09045 129.824569 
L 462.970156 131.379718 
L 467.849862 130.274897 
L 472.729568 129.814617 
L 477.609275 128.101703 
L 482.488981 128.013993 
L 487.368687 126.591557 
L 492.248393 126.20772 
L 497.128099 123.905933 
L 502.007805 125.61246 
L 506.887511 125.01771 
L 511.767218 123.093363 
L 516.646924 122.105105 
L 521.52663 118.475725 
L 526.406336 121.706655 
L 531.286042 121.542582 
L 536.165748 118.640144 
L 541.045455 117.121132 
" style="fill:none;stroke:#777777;stroke-dasharray:5.55,2.4;stroke-dashoffset:0;stroke-width:1.5;"/>
   </g>
   <g id="line2d_35">
    <path clip-path="url(#p4a3a151070)" d="M 57.954545 144.644376 
L 62.834252 165.187091 
L 67.713958 174.371248 
L 72.593664 174.747736 
L 77.47337 177.86789 
L 82.353076 180.241619 
L 87.232782 182.341942 
L 92.112489 181.663127 
L 96.992195 180.871142 
L 101.871901 182.129485 
L 106.751607 181.552404 
L 111.631313 180.052117 
L 116.511019 182.915819 
L 121.390725 180.673801 
L 126.270432 179.314539 
L 131.150138 179.708267 
L 136.029844 178.17832 
L 140.90955 176.6651 
L 145.789256 174.27439 
L 150.668962 176.178189 
L 155.548669 171.037692 
L 160.428375 173.329989 
L 165.308081 171.611868 
L 170.187787 169.583549 
L 175.067493 168.576139 
L 179.947199 168.213401 
L 184.826905 166.34375 
L 189.706612 164.204612 
L 194.586318 164.925794 
L 199.466024 162.412979 
L 204.34573 160.217503 
L 209.225436 155.749838 
L 214.105142 157.910947 
L 218.984848 156.79815 
L 223.864555 154.990249 
L 228.744261 152.128029 
L 233.623967 151.60095 
L 238.503673 150.784311 
L 243.383379 147.963311 
L 248.263085 145.674297 
L 253.142792 143.366818 
L 258.022498 143.382953 
L 262.902204 142.023824 
L 267.78191 141.35372 
L 272.661616 136.362069 
L 277.541322 137.11928 
L 282.421028 134.388231 
L 287.300735 132.909918 
L 292.180441 131.641292 
L 297.060147 128.870989 
L 301.939853 125.833342 
L 306.819559 127.552971 
L 311.699265 124.101512 
L 316.578972 124.333588 
L 321.458678 120.780034 
L 326.338384 120.911807 
L 331.21809 117.971343 
L 336.097796 116.951046 
L 340.977502 119.089978 
L 345.857208 113.603425 
L 350.736915 112.805635 
L 355.616621 107.897483 
L 360.496327 103.381272 
L 365.376033 103.364507 
L 370.255739 106.219049 
L 375.135445 103.61322 
L 380.015152 103.661197 
L 384.894858 97.467054 
L 389.774564 96.773258 
L 394.65427 94.375985 
L 399.533976 92.86744 
L 404.413682 91.830215 
L 409.293388 88.500547 
L 414.173095 88.839325 
L 419.052801 87.81072 
L 423.932507 82.756541 
L 428.812213 85.003712 
L 433.691919 85.822029 
L 438.571625 78.86865 
L 443.451331 76.013912 
L 448.331038 81.222025 
L 453.210744 74.375039 
L 458.09045 72.072204 
L 462.970156 70.578534 
L 467.849862 70.056834 
L 472.729568 70.326184 
L 477.609275 66.218699 
L 482.488981 65.522322 
L 487.368687 68.131689 
L 492.248393 65.516427 
L 497.128099 62.979114 
L 502.007805 58.461691 
L 506.887511 53.356016 
L 511.767218 49.866232 
L 516.646924 52.149226 
L 521.52663 53.036331 
L 526.406336 49.400065 
L 531.286042 50.397454 
L 536.165748 41.141038 
L 541.045455 37.748898 
" style="fill:none;stroke:#fbc15e;stroke-dasharray:5.55,2.4;stroke-dashoffset:0;stroke-width:1.5;"/>
   </g>
   <g id="line2d_36">
    <path clip-path="url(#p4a3a151070)" d="M 57.954545 151.340698 
L 62.834252 166.321743 
L 67.713958 175.818025 
L 72.593664 179.427552 
L 77.47337 179.073356 
L 82.353076 180.464279 
L 87.232782 181.766224 
L 92.112489 183.219829 
L 96.992195 182.533296 
L 101.871901 182.134009 
L 106.751607 180.795493 
L 111.631313 180.084846 
L 116.511019 179.602466 
L 121.390725 179.114146 
L 126.270432 178.112367 
L 131.150138 178.930287 
L 136.029844 176.250986 
L 140.90955 174.81273 
L 145.789256 174.291198 
L 150.668962 171.470631 
L 155.548669 169.236249 
L 160.428375 170.050479 
L 165.308081 165.731657 
L 170.187787 166.709311 
L 175.067493 162.557357 
L 179.947199 161.076148 
L 184.826905 157.497687 
L 189.706612 156.675873 
L 194.586318 154.207966 
L 199.466024 151.750102 
L 204.34573 153.097994 
L 209.225436 154.124346 
L 214.105142 147.692314 
L 218.984848 146.473645 
L 223.864555 143.446851 
L 228.744261 144.061306 
L 233.623967 139.979502 
L 238.503673 141.258779 
L 243.383379 138.121291 
L 248.263085 133.697072 
L 253.142792 129.185369 
L 258.022498 130.629435 
L 262.902204 133.114463 
L 267.78191 126.261403 
L 272.661616 128.503258 
L 277.541322 124.757788 
L 282.421028 120.325972 
L 287.300735 119.609085 
L 292.180441 119.517694 
L 297.060147 116.624623 
L 301.939853 111.229322 
L 306.819559 111.139515 
L 311.699265 110.764043 
L 316.578972 112.451895 
L 321.458678 108.547395 
L 326.338384 106.183636 
L 331.21809 104.066392 
L 336.097796 102.905676 
L 340.977502 94.428938 
L 345.857208 94.912043 
L 350.736915 94.438983 
L 355.616621 96.931351 
L 360.496327 87.643642 
L 365.376033 90.743276 
L 370.255739 87.908291 
L 375.135445 86.848262 
L 380.015152 85.405396 
L 384.894858 85.581582 
L 389.774564 84.872147 
L 394.65427 75.223357 
L 399.533976 79.879781 
L 404.413682 79.820501 
L 409.293388 77.731394 
L 414.173095 76.972864 
L 419.052801 72.809918 
L 423.932507 68.471462 
L 428.812213 68.378698 
L 433.691919 62.912844 
L 438.571625 67.417326 
L 443.451331 57.475102 
L 448.331038 65.497328 
L 453.210744 63.360186 
L 458.09045 58.266236 
L 462.970156 55.221549 
L 467.849862 53.197243 
L 472.729568 48.935308 
L 477.609275 48.56039 
L 482.488981 48.83164 
L 487.368687 46.418059 
L 492.248393 39.50273 
L 497.128099 38.890127 
L 502.007805 37.951234 
L 506.887511 33.404383 
L 511.767218 38.718206 
L 516.646924 37.371243 
L 521.52663 35.996016 
L 526.406336 23.922765 
L 531.286042 34.164495 
L 536.165748 26.930544 
L 541.045455 29.572546 
" style="fill:none;stroke:#8eba42;stroke-dasharray:5.55,2.4;stroke-dashoffset:0;stroke-width:1.5;"/>
   </g>
   <g id="patch_3">
    <path d="M 33.8 243.2 
L 33.8 13.480992 
" style="fill:none;stroke:#ffffff;stroke-linecap:square;stroke-linejoin:miter;"/>
   </g>
   <g id="patch_4">
    <path d="M 565.2 243.2 
L 565.2 13.480992 
" style="fill:none;stroke:#ffffff;stroke-linecap:square;stroke-linejoin:miter;"/>
   </g>
   <g id="patch_5">
    <path d="M 33.8 243.2 
L 565.2 243.2 
" style="fill:none;stroke:#ffffff;stroke-linecap:square;stroke-linejoin:miter;"/>
   </g>
   <g id="patch_6">
    <path d="M 33.8 13.480992 
L 565.2 13.480992 
" style="fill:none;stroke:#ffffff;stroke-linecap:square;stroke-linejoin:miter;"/>
   </g>
   <g id="legend_1">
    <g id="patch_7">
     <path d="M 40.8 109.549742 
L 146.38125 109.549742 
Q 148.38125 109.549742 148.38125 107.549742 
L 148.38125 20.480992 
Q 148.38125 18.480992 146.38125 18.480992 
L 40.8 18.480992 
Q 38.8 18.480992 38.8 20.480992 
L 38.8 107.549742 
Q 38.8 109.549742 40.8 109.549742 
z
" style="fill:#e5e5e5;opacity:0.8;stroke:#cccccc;stroke-linejoin:miter;stroke-width:0.5;"/>
    </g>
    <g id="line2d_37">
     <path d="M 42.8 26.57943 
L 62.8 26.57943 
" style="fill:none;stroke:#e24a33;stroke-linecap:square;stroke-width:1.5;"/>
    </g>
    <g id="line2d_38"/>
    <g id="text_17">
     <!-- depth 1 (train) -->
     <g transform="translate(70.8 30.07943)scale(0.1 -0.1)">
      <defs>
       <path d="M 2906 2969 
L 2906 4863 
L 3481 4863 
L 3481 0 
L 2906 0 
L 2906 525 
Q 2725 213 2448 61 
Q 2172 -91 1784 -91 
Q 1150 -91 751 415 
Q 353 922 353 1747 
Q 353 2572 751 3078 
Q 1150 3584 1784 3584 
Q 2172 3584 2448 3432 
Q 2725 3281 2906 2969 
z
M 947 1747 
Q 947 1113 1208 752 
Q 1469 391 1925 391 
Q 2381 391 2643 752 
Q 2906 1113 2906 1747 
Q 2906 2381 2643 2742 
Q 2381 3103 1925 3103 
Q 1469 3103 1208 2742 
Q 947 2381 947 1747 
z
" id="DejaVuSans-64" transform="scale(0.015625)"/>
       <path d="M 1172 4494 
L 1172 3500 
L 2356 3500 
L 2356 3053 
L 1172 3053 
L 1172 1153 
Q 1172 725 1289 603 
Q 1406 481 1766 481 
L 2356 481 
L 2356 0 
L 1766 0 
Q 1100 0 847 248 
Q 594 497 594 1153 
L 594 3053 
L 172 3053 
L 172 3500 
L 594 3500 
L 594 4494 
L 1172 4494 
z
" id="DejaVuSans-74" transform="scale(0.015625)"/>
       <path d="M 1984 4856 
Q 1566 4138 1362 3434 
Q 1159 2731 1159 2009 
Q 1159 1288 1364 580 
Q 1569 -128 1984 -844 
L 1484 -844 
Q 1016 -109 783 600 
Q 550 1309 550 2009 
Q 550 2706 781 3412 
Q 1013 4119 1484 4856 
L 1984 4856 
z
" id="DejaVuSans-28" transform="scale(0.015625)"/>
       <path d="M 2194 1759 
Q 1497 1759 1228 1600 
Q 959 1441 959 1056 
Q 959 750 1161 570 
Q 1363 391 1709 391 
Q 2188 391 2477 730 
Q 2766 1069 2766 1631 
L 2766 1759 
L 2194 1759 
z
M 3341 1997 
L 3341 0 
L 2766 0 
L 2766 531 
Q 2569 213 2275 61 
Q 1981 -91 1556 -91 
Q 1019 -91 701 211 
Q 384 513 384 1019 
Q 384 1609 779 1909 
Q 1175 2209 1959 2209 
L 2766 2209 
L 2766 2266 
Q 2766 2663 2505 2880 
Q 2244 3097 1772 3097 
Q 1472 3097 1187 3025 
Q 903 2953 641 2809 
L 641 3341 
Q 956 3463 1253 3523 
Q 1550 3584 1831 3584 
Q 2591 3584 2966 3190 
Q 3341 2797 3341 1997 
z
" id="DejaVuSans-61" transform="scale(0.015625)"/>
       <path d="M 603 3500 
L 1178 3500 
L 1178 0 
L 603 0 
L 603 3500 
z
M 603 4863 
L 1178 4863 
L 1178 4134 
L 603 4134 
L 603 4863 
z
" id="DejaVuSans-69" transform="scale(0.015625)"/>
       <path d="M 513 4856 
L 1013 4856 
Q 1481 4119 1714 3412 
Q 1947 2706 1947 2009 
Q 1947 1309 1714 600 
Q 1481 -109 1013 -844 
L 513 -844 
Q 928 -128 1133 580 
Q 1338 1288 1338 2009 
Q 1338 2731 1133 3434 
Q 928 4138 513 4856 
z
" id="DejaVuSans-29" transform="scale(0.015625)"/>
      </defs>
      <use xlink:href="#DejaVuSans-64"/>
      <use x="63.476562" xlink:href="#DejaVuSans-65"/>
      <use x="125" xlink:href="#DejaVuSans-70"/>
      <use x="188.476562" xlink:href="#DejaVuSans-74"/>
      <use x="227.685547" xlink:href="#DejaVuSans-68"/>
      <use x="291.064453" xlink:href="#DejaVuSans-20"/>
      <use x="322.851562" xlink:href="#DejaVuSans-31"/>
      <use x="386.474609" xlink:href="#DejaVuSans-20"/>
      <use x="418.261719" xlink:href="#DejaVuSans-28"/>
      <use x="457.275391" xlink:href="#DejaVuSans-74"/>
      <use x="496.484375" xlink:href="#DejaVuSans-72"/>
      <use x="537.597656" xlink:href="#DejaVuSans-61"/>
      <use x="598.876953" xlink:href="#DejaVuSans-69"/>
      <use x="626.660156" xlink:href="#DejaVuSans-6e"/>
      <use x="690.039062" xlink:href="#DejaVuSans-29"/>
     </g>
    </g>
    <g id="line2d_39">
     <path d="M 42.8 41.257555 
L 62.8 41.257555 
" style="fill:none;stroke:#348abd;stroke-linecap:square;stroke-width:1.5;"/>
    </g>
    <g id="line2d_40"/>
    <g id="text_18">
     <!-- depth 2 (train) -->
     <g transform="translate(70.8 44.757555)scale(0.1 -0.1)">
      <use xlink:href="#DejaVuSans-64"/>
      <use x="63.476562" xlink:href="#DejaVuSans-65"/>
      <use x="125" xlink:href="#DejaVuSans-70"/>
      <use x="188.476562" xlink:href="#DejaVuSans-74"/>
      <use x="227.685547" xlink:href="#DejaVuSans-68"/>
      <use x="291.064453" xlink:href="#DejaVuSans-20"/>
      <use x="322.851562" xlink:href="#DejaVuSans-32"/>
      <use x="386.474609" xlink:href="#DejaVuSans-20"/>
      <use x="418.261719" xlink:href="#DejaVuSans-28"/>
      <use x="457.275391" xlink:href="#DejaVuSans-74"/>
      <use x="496.484375" xlink:href="#DejaVuSans-72"/>
      <use x="537.597656" xlink:href="#DejaVuSans-61"/>
      <use x="598.876953" xlink:href="#DejaVuSans-69"/>
      <use x="626.660156" xlink:href="#DejaVuSans-6e"/>
      <use x="690.039062" xlink:href="#DejaVuSans-29"/>
     </g>
    </g>
    <g id="line2d_41">
     <path d="M 42.8 55.93568 
L 62.8 55.93568 
" style="fill:none;stroke:#988ed5;stroke-linecap:square;stroke-width:1.5;"/>
    </g>
    <g id="line2d_42"/>
    <g id="text_19">
     <!-- depth 3 (train) -->
     <g transform="translate(70.8 59.43568)scale(0.1 -0.1)">
      <defs>
       <path d="M 2597 2516 
Q 3050 2419 3304 2112 
Q 3559 1806 3559 1356 
Q 3559 666 3084 287 
Q 2609 -91 1734 -91 
Q 1441 -91 1130 -33 
Q 819 25 488 141 
L 488 750 
Q 750 597 1062 519 
Q 1375 441 1716 441 
Q 2309 441 2620 675 
Q 2931 909 2931 1356 
Q 2931 1769 2642 2001 
Q 2353 2234 1838 2234 
L 1294 2234 
L 1294 2753 
L 1863 2753 
Q 2328 2753 2575 2939 
Q 2822 3125 2822 3475 
Q 2822 3834 2567 4026 
Q 2313 4219 1838 4219 
Q 1578 4219 1281 4162 
Q 984 4106 628 3988 
L 628 4550 
Q 988 4650 1302 4700 
Q 1616 4750 1894 4750 
Q 2613 4750 3031 4423 
Q 3450 4097 3450 3541 
Q 3450 3153 3228 2886 
Q 3006 2619 2597 2516 
z
" id="DejaVuSans-33" transform="scale(0.015625)"/>
      </defs>
      <use xlink:href="#DejaVuSans-64"/>
      <use x="63.476562" xlink:href="#DejaVuSans-65"/>
      <use x="125" xlink:href="#DejaVuSans-70"/>
      <use x="188.476562" xlink:href="#DejaVuSans-74"/>
      <use x="227.685547" xlink:href="#DejaVuSans-68"/>
      <use x="291.064453" xlink:href="#DejaVuSans-20"/>
      <use x="322.851562" xlink:href="#DejaVuSans-33"/>
      <use x="386.474609" xlink:href="#DejaVuSans-20"/>
      <use x="418.261719" xlink:href="#DejaVuSans-28"/>
      <use x="457.275391" xlink:href="#DejaVuSans-74"/>
      <use x="496.484375" xlink:href="#DejaVuSans-72"/>
      <use x="537.597656" xlink:href="#DejaVuSans-61"/>
      <use x="598.876953" xlink:href="#DejaVuSans-69"/>
      <use x="626.660156" xlink:href="#DejaVuSans-6e"/>
      <use x="690.039062" xlink:href="#DejaVuSans-29"/>
     </g>
    </g>
    <g id="line2d_43">
     <path d="M 42.8 70.613805 
L 62.8 70.613805 
" style="fill:none;stroke:#777777;stroke-dasharray:5.55,2.4;stroke-dashoffset:0;stroke-width:1.5;"/>
    </g>
    <g id="line2d_44"/>
    <g id="text_20">
     <!-- depth 1 (valid) -->
     <g transform="translate(70.8 74.113805)scale(0.1 -0.1)">
      <defs>
       <path d="M 191 3500 
L 800 3500 
L 1894 563 
L 2988 3500 
L 3597 3500 
L 2284 0 
L 1503 0 
L 191 3500 
z
" id="DejaVuSans-76" transform="scale(0.015625)"/>
       <path d="M 603 4863 
L 1178 4863 
L 1178 0 
L 603 0 
L 603 4863 
z
" id="DejaVuSans-6c" transform="scale(0.015625)"/>
      </defs>
      <use xlink:href="#DejaVuSans-64"/>
      <use x="63.476562" xlink:href="#DejaVuSans-65"/>
      <use x="125" xlink:href="#DejaVuSans-70"/>
      <use x="188.476562" xlink:href="#DejaVuSans-74"/>
      <use x="227.685547" xlink:href="#DejaVuSans-68"/>
      <use x="291.064453" xlink:href="#DejaVuSans-20"/>
      <use x="322.851562" xlink:href="#DejaVuSans-31"/>
      <use x="386.474609" xlink:href="#DejaVuSans-20"/>
      <use x="418.261719" xlink:href="#DejaVuSans-28"/>
      <use x="457.275391" xlink:href="#DejaVuSans-76"/>
      <use x="516.455078" xlink:href="#DejaVuSans-61"/>
      <use x="577.734375" xlink:href="#DejaVuSans-6c"/>
      <use x="605.517578" xlink:href="#DejaVuSans-69"/>
      <use x="633.300781" xlink:href="#DejaVuSans-64"/>
      <use x="696.777344" xlink:href="#DejaVuSans-29"/>
     </g>
    </g>
    <g id="line2d_45">
     <path d="M 42.8 85.29193 
L 62.8 85.29193 
" style="fill:none;stroke:#fbc15e;stroke-dasharray:5.55,2.4;stroke-dashoffset:0;stroke-width:1.5;"/>
    </g>
    <g id="line2d_46"/>
    <g id="text_21">
     <!-- depth 2 (valid) -->
     <g transform="translate(70.8 88.79193)scale(0.1 -0.1)">
      <use xlink:href="#DejaVuSans-64"/>
      <use x="63.476562" xlink:href="#DejaVuSans-65"/>
      <use x="125" xlink:href="#DejaVuSans-70"/>
      <use x="188.476562" xlink:href="#DejaVuSans-74"/>
      <use x="227.685547" xlink:href="#DejaVuSans-68"/>
      <use x="291.064453" xlink:href="#DejaVuSans-20"/>
      <use x="322.851562" xlink:href="#DejaVuSans-32"/>
      <use x="386.474609" xlink:href="#DejaVuSans-20"/>
      <use x="418.261719" xlink:href="#DejaVuSans-28"/>
      <use x="457.275391" xlink:href="#DejaVuSans-76"/>
      <use x="516.455078" xlink:href="#DejaVuSans-61"/>
      <use x="577.734375" xlink:href="#DejaVuSans-6c"/>
      <use x="605.517578" xlink:href="#DejaVuSans-69"/>
      <use x="633.300781" xlink:href="#DejaVuSans-64"/>
      <use x="696.777344" xlink:href="#DejaVuSans-29"/>
     </g>
    </g>
    <g id="line2d_47">
     <path d="M 42.8 99.970055 
L 62.8 99.970055 
" style="fill:none;stroke:#8eba42;stroke-dasharray:5.55,2.4;stroke-dashoffset:0;stroke-width:1.5;"/>
    </g>
    <g id="line2d_48"/>
    <g id="text_22">
     <!-- depth 3 (valid) -->
     <g transform="translate(70.8 103.470055)scale(0.1 -0.1)">
      <use xlink:href="#DejaVuSans-64"/>
      <use x="63.476562" xlink:href="#DejaVuSans-65"/>
      <use x="125" xlink:href="#DejaVuSans-70"/>
      <use x="188.476562" xlink:href="#DejaVuSans-74"/>
      <use x="227.685547" xlink:href="#DejaVuSans-68"/>
      <use x="291.064453" xlink:href="#DejaVuSans-20"/>
      <use x="322.851562" xlink:href="#DejaVuSans-33"/>
      <use x="386.474609" xlink:href="#DejaVuSans-20"/>
      <use x="418.261719" xlink:href="#DejaVuSans-28"/>
      <use x="457.275391" xlink:href="#DejaVuSans-76"/>
      <use x="516.455078" xlink:href="#DejaVuSans-61"/>
      <use x="577.734375" xlink:href="#DejaVuSans-6c"/>
      <use x="605.517578" xlink:href="#DejaVuSans-69"/>
      <use x="633.300781" xlink:href="#DejaVuSans-64"/>
      <use x="696.777344" xlink:href="#DejaVuSans-29"/>
     </g>
    </g>
   </g>
  </g>
 </g>
 <defs>
  <clipPath id="p4a3a151070">
   <rect height="229.719008" width="531.4" x="33.8" y="13.480992"/>
  </clipPath>
 </defs>
</svg>
