<?xml version="1.0" encoding="utf-8" standalone="no"?>
<!DOCTYPE svg PUBLIC "-//W3C//DTD SVG 1.1//EN"
  "http://www.w3.org/Graphics/SVG/1.1/DTD/svg11.dtd">
<svg height="288pt" version="1.1" viewBox="0 0 576 288" width="576pt" xmlns="http://www.w3.org/2000/svg" xmlns:xlink="http://www.w3.org/1999/xlink">
 <metadata>
  <rdf:RDF xmlns:cc="http://creativecommons.org/ns#" xmlns:dc="http://purl.org/dc/elements/1.1/" xmlns:rdf="http://www.w3.org/1999/02/22-rdf-syntax-ns#">
   <cc:Work>
    <dc:type rdf:resource="http://purl.org/dc/dcmitype/StillImage"/>
    <dc:date>2021-11-04T21:11:30.503298</dc:date>
    <dc:format>image/svg+xml</dc:format>
    <dc:creator>
     <cc:Agent>
      <dc:title>Matplotlib v3.4.3, https://matplotlib.org/</dc:title>
     </cc:Agent>
    </dc:creator>
   </cc:Work>
  </rdf:RDF>
 </metadata>
 <defs>
  <style type="text/css">*{stroke-linecap:butt;stroke-linejoin:round;}</style>
 </defs>
 <g id="figure_1">
  <g id="patch_1">
   <path d="M 0 288 
L 576 288 
L 576 0 
L 0 0 
z
" style="fill:#ffffff;"/>
  </g>
  <g id="axes_1">
   <g id="patch_2">
    <path d="M 40.05 243.2 
L 565.2 243.2 
L 565.2 10.8 
L 40.05 10.8 
z
" style="fill:#e5e5e5;"/>
   </g>
   <g id="matplotlib.axis_1">
    <g id="xtick_1">
     <g id="line2d_1">
      <path clip-path="url(#p7776d18576)" d="M 59.09814 243.2 
L 59.09814 10.8 
" style="fill:none;stroke:#ffffff;stroke-linecap:square;stroke-width:0.8;"/>
     </g>
     <g id="line2d_2">
      <defs>
       <path d="M 0 0 
L 0 3.5 
" id="m06457fcba8" style="stroke:#555555;stroke-width:0.8;"/>
      </defs>
      <g>
       <use style="fill:#555555;stroke:#555555;stroke-width:0.8;" x="59.09814" xlink:href="#m06457fcba8" y="243.2"/>
      </g>
     </g>
     <g id="text_1">
      <!-- 0 -->
      <g style="fill:#555555;" transform="translate(55.91689 257.798437)scale(0.1 -0.1)">
       <defs>
        <path d="M 2034 4250 
Q 1547 4250 1301 3770 
Q 1056 3291 1056 2328 
Q 1056 1369 1301 889 
Q 1547 409 2034 409 
Q 2525 409 2770 889 
Q 3016 1369 3016 2328 
Q 3016 3291 2770 3770 
Q 2525 4250 2034 4250 
z
M 2034 4750 
Q 2819 4750 3233 4129 
Q 3647 3509 3647 2328 
Q 3647 1150 3233 529 
Q 2819 -91 2034 -91 
Q 1250 -91 836 529 
Q 422 1150 422 2328 
Q 422 3509 836 4129 
Q 1250 4750 2034 4750 
z
" id="DejaVuSans-30" transform="scale(0.015625)"/>
       </defs>
       <use xlink:href="#DejaVuSans-30"/>
      </g>
     </g>
    </g>
    <g id="xtick_2">
     <g id="line2d_3">
      <path clip-path="url(#p7776d18576)" d="M 155.544421 243.2 
L 155.544421 10.8 
" style="fill:none;stroke:#ffffff;stroke-linecap:square;stroke-width:0.8;"/>
     </g>
     <g id="line2d_4">
      <g>
       <use style="fill:#555555;stroke:#555555;stroke-width:0.8;" x="155.544421" xlink:href="#m06457fcba8" y="243.2"/>
      </g>
     </g>
     <g id="text_2">
      <!-- 20 -->
      <g style="fill:#555555;" transform="translate(149.181921 257.798437)scale(0.1 -0.1)">
       <defs>
        <path d="M 1228 531 
L 3431 531 
L 3431 0 
L 469 0 
L 469 531 
Q 828 903 1448 1529 
Q 2069 2156 2228 2338 
Q 2531 2678 2651 2914 
Q 2772 3150 2772 3378 
Q 2772 3750 2511 3984 
Q 2250 4219 1831 4219 
Q 1534 4219 1204 4116 
Q 875 4013 500 3803 
L 500 4441 
Q 881 4594 1212 4672 
Q 1544 4750 1819 4750 
Q 2544 4750 2975 4387 
Q 3406 4025 3406 3419 
Q 3406 3131 3298 2873 
Q 3191 2616 2906 2266 
Q 2828 2175 2409 1742 
Q 1991 1309 1228 531 
z
" id="DejaVuSans-32" transform="scale(0.015625)"/>
       </defs>
       <use xlink:href="#DejaVuSans-32"/>
       <use x="63.623047" xlink:href="#DejaVuSans-30"/>
      </g>
     </g>
    </g>
    <g id="xtick_3">
     <g id="line2d_5">
      <path clip-path="url(#p7776d18576)" d="M 251.990702 243.2 
L 251.990702 10.8 
" style="fill:none;stroke:#ffffff;stroke-linecap:square;stroke-width:0.8;"/>
     </g>
     <g id="line2d_6">
      <g>
       <use style="fill:#555555;stroke:#555555;stroke-width:0.8;" x="251.990702" xlink:href="#m06457fcba8" y="243.2"/>
      </g>
     </g>
     <g id="text_3">
      <!-- 40 -->
      <g style="fill:#555555;" transform="translate(245.628202 257.798437)scale(0.1 -0.1)">
       <defs>
        <path d="M 2419 4116 
L 825 1625 
L 2419 1625 
L 2419 4116 
z
M 2253 4666 
L 3047 4666 
L 3047 1625 
L 3713 1625 
L 3713 1100 
L 3047 1100 
L 3047 0 
L 2419 0 
L 2419 1100 
L 313 1100 
L 313 1709 
L 2253 4666 
z
" id="DejaVuSans-34" transform="scale(0.015625)"/>
       </defs>
       <use xlink:href="#DejaVuSans-34"/>
       <use x="63.623047" xlink:href="#DejaVuSans-30"/>
      </g>
     </g>
    </g>
    <g id="xtick_4">
     <g id="line2d_7">
      <path clip-path="url(#p7776d18576)" d="M 348.436983 243.2 
L 348.436983 10.8 
" style="fill:none;stroke:#ffffff;stroke-linecap:square;stroke-width:0.8;"/>
     </g>
     <g id="line2d_8">
      <g>
       <use style="fill:#555555;stroke:#555555;stroke-width:0.8;" x="348.436983" xlink:href="#m06457fcba8" y="243.2"/>
      </g>
     </g>
     <g id="text_4">
      <!-- 60 -->
      <g style="fill:#555555;" transform="translate(342.074483 257.798437)scale(0.1 -0.1)">
       <defs>
        <path d="M 2113 2584 
Q 1688 2584 1439 2293 
Q 1191 2003 1191 1497 
Q 1191 994 1439 701 
Q 1688 409 2113 409 
Q 2538 409 2786 701 
Q 3034 994 3034 1497 
Q 3034 2003 2786 2293 
Q 2538 2584 2113 2584 
z
M 3366 4563 
L 3366 3988 
Q 3128 4100 2886 4159 
Q 2644 4219 2406 4219 
Q 1781 4219 1451 3797 
Q 1122 3375 1075 2522 
Q 1259 2794 1537 2939 
Q 1816 3084 2150 3084 
Q 2853 3084 3261 2657 
Q 3669 2231 3669 1497 
Q 3669 778 3244 343 
Q 2819 -91 2113 -91 
Q 1303 -91 875 529 
Q 447 1150 447 2328 
Q 447 3434 972 4092 
Q 1497 4750 2381 4750 
Q 2619 4750 2861 4703 
Q 3103 4656 3366 4563 
z
" id="DejaVuSans-36" transform="scale(0.015625)"/>
       </defs>
       <use xlink:href="#DejaVuSans-36"/>
       <use x="63.623047" xlink:href="#DejaVuSans-30"/>
      </g>
     </g>
    </g>
    <g id="xtick_5">
     <g id="line2d_9">
      <path clip-path="url(#p7776d18576)" d="M 444.883264 243.2 
L 444.883264 10.8 
" style="fill:none;stroke:#ffffff;stroke-linecap:square;stroke-width:0.8;"/>
     </g>
     <g id="line2d_10">
      <g>
       <use style="fill:#555555;stroke:#555555;stroke-width:0.8;" x="444.883264" xlink:href="#m06457fcba8" y="243.2"/>
      </g>
     </g>
     <g id="text_5">
      <!-- 80 -->
      <g style="fill:#555555;" transform="translate(438.520764 257.798437)scale(0.1 -0.1)">
       <defs>
        <path d="M 2034 2216 
Q 1584 2216 1326 1975 
Q 1069 1734 1069 1313 
Q 1069 891 1326 650 
Q 1584 409 2034 409 
Q 2484 409 2743 651 
Q 3003 894 3003 1313 
Q 3003 1734 2745 1975 
Q 2488 2216 2034 2216 
z
M 1403 2484 
Q 997 2584 770 2862 
Q 544 3141 544 3541 
Q 544 4100 942 4425 
Q 1341 4750 2034 4750 
Q 2731 4750 3128 4425 
Q 3525 4100 3525 3541 
Q 3525 3141 3298 2862 
Q 3072 2584 2669 2484 
Q 3125 2378 3379 2068 
Q 3634 1759 3634 1313 
Q 3634 634 3220 271 
Q 2806 -91 2034 -91 
Q 1263 -91 848 271 
Q 434 634 434 1313 
Q 434 1759 690 2068 
Q 947 2378 1403 2484 
z
M 1172 3481 
Q 1172 3119 1398 2916 
Q 1625 2713 2034 2713 
Q 2441 2713 2670 2916 
Q 2900 3119 2900 3481 
Q 2900 3844 2670 4047 
Q 2441 4250 2034 4250 
Q 1625 4250 1398 4047 
Q 1172 3844 1172 3481 
z
" id="DejaVuSans-38" transform="scale(0.015625)"/>
       </defs>
       <use xlink:href="#DejaVuSans-38"/>
       <use x="63.623047" xlink:href="#DejaVuSans-30"/>
      </g>
     </g>
    </g>
    <g id="xtick_6">
     <g id="line2d_11">
      <path clip-path="url(#p7776d18576)" d="M 541.329545 243.2 
L 541.329545 10.8 
" style="fill:none;stroke:#ffffff;stroke-linecap:square;stroke-width:0.8;"/>
     </g>
     <g id="line2d_12">
      <g>
       <use style="fill:#555555;stroke:#555555;stroke-width:0.8;" x="541.329545" xlink:href="#m06457fcba8" y="243.2"/>
      </g>
     </g>
     <g id="text_6">
      <!-- 100 -->
      <g style="fill:#555555;" transform="translate(531.785795 257.798437)scale(0.1 -0.1)">
       <defs>
        <path d="M 794 531 
L 1825 531 
L 1825 4091 
L 703 3866 
L 703 4441 
L 1819 4666 
L 2450 4666 
L 2450 531 
L 3481 531 
L 3481 0 
L 794 0 
L 794 531 
z
" id="DejaVuSans-31" transform="scale(0.015625)"/>
       </defs>
       <use xlink:href="#DejaVuSans-31"/>
       <use x="63.623047" xlink:href="#DejaVuSans-30"/>
       <use x="127.246094" xlink:href="#DejaVuSans-30"/>
      </g>
     </g>
    </g>
    <g id="text_7">
     <!-- Epoch number -->
     <g style="fill:#555555;" transform="translate(258.928125 272.99625)scale(0.12 -0.12)">
      <defs>
       <path d="M 628 4666 
L 3578 4666 
L 3578 4134 
L 1259 4134 
L 1259 2753 
L 3481 2753 
L 3481 2222 
L 1259 2222 
L 1259 531 
L 3634 531 
L 3634 0 
L 628 0 
L 628 4666 
z
" id="DejaVuSans-45" transform="scale(0.015625)"/>
       <path d="M 1159 525 
L 1159 -1331 
L 581 -1331 
L 581 3500 
L 1159 3500 
L 1159 2969 
Q 1341 3281 1617 3432 
Q 1894 3584 2278 3584 
Q 2916 3584 3314 3078 
Q 3713 2572 3713 1747 
Q 3713 922 3314 415 
Q 2916 -91 2278 -91 
Q 1894 -91 1617 61 
Q 1341 213 1159 525 
z
M 3116 1747 
Q 3116 2381 2855 2742 
Q 2594 3103 2138 3103 
Q 1681 3103 1420 2742 
Q 1159 2381 1159 1747 
Q 1159 1113 1420 752 
Q 1681 391 2138 391 
Q 2594 391 2855 752 
Q 3116 1113 3116 1747 
z
" id="DejaVuSans-70" transform="scale(0.015625)"/>
       <path d="M 1959 3097 
Q 1497 3097 1228 2736 
Q 959 2375 959 1747 
Q 959 1119 1226 758 
Q 1494 397 1959 397 
Q 2419 397 2687 759 
Q 2956 1122 2956 1747 
Q 2956 2369 2687 2733 
Q 2419 3097 1959 3097 
z
M 1959 3584 
Q 2709 3584 3137 3096 
Q 3566 2609 3566 1747 
Q 3566 888 3137 398 
Q 2709 -91 1959 -91 
Q 1206 -91 779 398 
Q 353 888 353 1747 
Q 353 2609 779 3096 
Q 1206 3584 1959 3584 
z
" id="DejaVuSans-6f" transform="scale(0.015625)"/>
       <path d="M 3122 3366 
L 3122 2828 
Q 2878 2963 2633 3030 
Q 2388 3097 2138 3097 
Q 1578 3097 1268 2742 
Q 959 2388 959 1747 
Q 959 1106 1268 751 
Q 1578 397 2138 397 
Q 2388 397 2633 464 
Q 2878 531 3122 666 
L 3122 134 
Q 2881 22 2623 -34 
Q 2366 -91 2075 -91 
Q 1284 -91 818 406 
Q 353 903 353 1747 
Q 353 2603 823 3093 
Q 1294 3584 2113 3584 
Q 2378 3584 2631 3529 
Q 2884 3475 3122 3366 
z
" id="DejaVuSans-63" transform="scale(0.015625)"/>
       <path d="M 3513 2113 
L 3513 0 
L 2938 0 
L 2938 2094 
Q 2938 2591 2744 2837 
Q 2550 3084 2163 3084 
Q 1697 3084 1428 2787 
Q 1159 2491 1159 1978 
L 1159 0 
L 581 0 
L 581 4863 
L 1159 4863 
L 1159 2956 
Q 1366 3272 1645 3428 
Q 1925 3584 2291 3584 
Q 2894 3584 3203 3211 
Q 3513 2838 3513 2113 
z
" id="DejaVuSans-68" transform="scale(0.015625)"/>
       <path id="DejaVuSans-20" transform="scale(0.015625)"/>
       <path d="M 3513 2113 
L 3513 0 
L 2938 0 
L 2938 2094 
Q 2938 2591 2744 2837 
Q 2550 3084 2163 3084 
Q 1697 3084 1428 2787 
Q 1159 2491 1159 1978 
L 1159 0 
L 581 0 
L 581 3500 
L 1159 3500 
L 1159 2956 
Q 1366 3272 1645 3428 
Q 1925 3584 2291 3584 
Q 2894 3584 3203 3211 
Q 3513 2838 3513 2113 
z
" id="DejaVuSans-6e" transform="scale(0.015625)"/>
       <path d="M 544 1381 
L 544 3500 
L 1119 3500 
L 1119 1403 
Q 1119 906 1312 657 
Q 1506 409 1894 409 
Q 2359 409 2629 706 
Q 2900 1003 2900 1516 
L 2900 3500 
L 3475 3500 
L 3475 0 
L 2900 0 
L 2900 538 
Q 2691 219 2414 64 
Q 2138 -91 1772 -91 
Q 1169 -91 856 284 
Q 544 659 544 1381 
z
M 1991 3584 
L 1991 3584 
z
" id="DejaVuSans-75" transform="scale(0.015625)"/>
       <path d="M 3328 2828 
Q 3544 3216 3844 3400 
Q 4144 3584 4550 3584 
Q 5097 3584 5394 3201 
Q 5691 2819 5691 2113 
L 5691 0 
L 5113 0 
L 5113 2094 
Q 5113 2597 4934 2840 
Q 4756 3084 4391 3084 
Q 3944 3084 3684 2787 
Q 3425 2491 3425 1978 
L 3425 0 
L 2847 0 
L 2847 2094 
Q 2847 2600 2669 2842 
Q 2491 3084 2119 3084 
Q 1678 3084 1418 2786 
Q 1159 2488 1159 1978 
L 1159 0 
L 581 0 
L 581 3500 
L 1159 3500 
L 1159 2956 
Q 1356 3278 1631 3431 
Q 1906 3584 2284 3584 
Q 2666 3584 2933 3390 
Q 3200 3197 3328 2828 
z
" id="DejaVuSans-6d" transform="scale(0.015625)"/>
       <path d="M 3116 1747 
Q 3116 2381 2855 2742 
Q 2594 3103 2138 3103 
Q 1681 3103 1420 2742 
Q 1159 2381 1159 1747 
Q 1159 1113 1420 752 
Q 1681 391 2138 391 
Q 2594 391 2855 752 
Q 3116 1113 3116 1747 
z
M 1159 2969 
Q 1341 3281 1617 3432 
Q 1894 3584 2278 3584 
Q 2916 3584 3314 3078 
Q 3713 2572 3713 1747 
Q 3713 922 3314 415 
Q 2916 -91 2278 -91 
Q 1894 -91 1617 61 
Q 1341 213 1159 525 
L 1159 0 
L 581 0 
L 581 4863 
L 1159 4863 
L 1159 2969 
z
" id="DejaVuSans-62" transform="scale(0.015625)"/>
       <path d="M 3597 1894 
L 3597 1613 
L 953 1613 
Q 991 1019 1311 708 
Q 1631 397 2203 397 
Q 2534 397 2845 478 
Q 3156 559 3463 722 
L 3463 178 
Q 3153 47 2828 -22 
Q 2503 -91 2169 -91 
Q 1331 -91 842 396 
Q 353 884 353 1716 
Q 353 2575 817 3079 
Q 1281 3584 2069 3584 
Q 2775 3584 3186 3129 
Q 3597 2675 3597 1894 
z
M 3022 2063 
Q 3016 2534 2758 2815 
Q 2500 3097 2075 3097 
Q 1594 3097 1305 2825 
Q 1016 2553 972 2059 
L 3022 2063 
z
" id="DejaVuSans-65" transform="scale(0.015625)"/>
       <path d="M 2631 2963 
Q 2534 3019 2420 3045 
Q 2306 3072 2169 3072 
Q 1681 3072 1420 2755 
Q 1159 2438 1159 1844 
L 1159 0 
L 581 0 
L 581 3500 
L 1159 3500 
L 1159 2956 
Q 1341 3275 1631 3429 
Q 1922 3584 2338 3584 
Q 2397 3584 2469 3576 
Q 2541 3569 2628 3553 
L 2631 2963 
z
" id="DejaVuSans-72" transform="scale(0.015625)"/>
      </defs>
      <use xlink:href="#DejaVuSans-45"/>
      <use x="63.183594" xlink:href="#DejaVuSans-70"/>
      <use x="126.660156" xlink:href="#DejaVuSans-6f"/>
      <use x="187.841797" xlink:href="#DejaVuSans-63"/>
      <use x="242.822266" xlink:href="#DejaVuSans-68"/>
      <use x="306.201172" xlink:href="#DejaVuSans-20"/>
      <use x="337.988281" xlink:href="#DejaVuSans-6e"/>
      <use x="401.367188" xlink:href="#DejaVuSans-75"/>
      <use x="464.746094" xlink:href="#DejaVuSans-6d"/>
      <use x="562.158203" xlink:href="#DejaVuSans-62"/>
      <use x="625.634766" xlink:href="#DejaVuSans-65"/>
      <use x="687.158203" xlink:href="#DejaVuSans-72"/>
     </g>
    </g>
   </g>
   <g id="matplotlib.axis_2">
    <g id="ytick_1">
     <g id="line2d_13">
      <path clip-path="url(#p7776d18576)" d="M 40.05 214.948055 
L 565.2 214.948055 
" style="fill:none;stroke:#ffffff;stroke-linecap:square;stroke-width:0.8;"/>
     </g>
     <g id="line2d_14">
      <defs>
       <path d="M 0 0 
L -3.5 0 
" id="mca98f6b362" style="stroke:#555555;stroke-width:0.8;"/>
      </defs>
      <g>
       <use style="fill:#555555;stroke:#555555;stroke-width:0.8;" x="40.05" xlink:href="#mca98f6b362" y="214.948055"/>
      </g>
     </g>
     <g id="text_8">
      <!-- 0.75 -->
      <g style="fill:#555555;" transform="translate(10.784375 218.747274)scale(0.1 -0.1)">
       <defs>
        <path d="M 684 794 
L 1344 794 
L 1344 0 
L 684 0 
L 684 794 
z
" id="DejaVuSans-2e" transform="scale(0.015625)"/>
        <path d="M 525 4666 
L 3525 4666 
L 3525 4397 
L 1831 0 
L 1172 0 
L 2766 4134 
L 525 4134 
L 525 4666 
z
" id="DejaVuSans-37" transform="scale(0.015625)"/>
        <path d="M 691 4666 
L 3169 4666 
L 3169 4134 
L 1269 4134 
L 1269 2991 
Q 1406 3038 1543 3061 
Q 1681 3084 1819 3084 
Q 2600 3084 3056 2656 
Q 3513 2228 3513 1497 
Q 3513 744 3044 326 
Q 2575 -91 1722 -91 
Q 1428 -91 1123 -41 
Q 819 9 494 109 
L 494 744 
Q 775 591 1075 516 
Q 1375 441 1709 441 
Q 2250 441 2565 725 
Q 2881 1009 2881 1497 
Q 2881 1984 2565 2268 
Q 2250 2553 1709 2553 
Q 1456 2553 1204 2497 
Q 953 2441 691 2322 
L 691 4666 
z
" id="DejaVuSans-35" transform="scale(0.015625)"/>
       </defs>
       <use xlink:href="#DejaVuSans-30"/>
       <use x="63.623047" xlink:href="#DejaVuSans-2e"/>
       <use x="95.410156" xlink:href="#DejaVuSans-37"/>
       <use x="159.033203" xlink:href="#DejaVuSans-35"/>
      </g>
     </g>
    </g>
    <g id="ytick_2">
     <g id="line2d_15">
      <path clip-path="url(#p7776d18576)" d="M 40.05 169.43091 
L 565.2 169.43091 
" style="fill:none;stroke:#ffffff;stroke-linecap:square;stroke-width:0.8;"/>
     </g>
     <g id="line2d_16">
      <g>
       <use style="fill:#555555;stroke:#555555;stroke-width:0.8;" x="40.05" xlink:href="#mca98f6b362" y="169.43091"/>
      </g>
     </g>
     <g id="text_9">
      <!-- 0.80 -->
      <g style="fill:#555555;" transform="translate(10.784375 173.230129)scale(0.1 -0.1)">
       <use xlink:href="#DejaVuSans-30"/>
       <use x="63.623047" xlink:href="#DejaVuSans-2e"/>
       <use x="95.410156" xlink:href="#DejaVuSans-38"/>
       <use x="159.033203" xlink:href="#DejaVuSans-30"/>
      </g>
     </g>
    </g>
    <g id="ytick_3">
     <g id="line2d_17">
      <path clip-path="url(#p7776d18576)" d="M 40.05 123.913765 
L 565.2 123.913765 
" style="fill:none;stroke:#ffffff;stroke-linecap:square;stroke-width:0.8;"/>
     </g>
     <g id="line2d_18">
      <g>
       <use style="fill:#555555;stroke:#555555;stroke-width:0.8;" x="40.05" xlink:href="#mca98f6b362" y="123.913765"/>
      </g>
     </g>
     <g id="text_10">
      <!-- 0.85 -->
      <g style="fill:#555555;" transform="translate(10.784375 127.712983)scale(0.1 -0.1)">
       <use xlink:href="#DejaVuSans-30"/>
       <use x="63.623047" xlink:href="#DejaVuSans-2e"/>
       <use x="95.410156" xlink:href="#DejaVuSans-38"/>
       <use x="159.033203" xlink:href="#DejaVuSans-35"/>
      </g>
     </g>
    </g>
    <g id="ytick_4">
     <g id="line2d_19">
      <path clip-path="url(#p7776d18576)" d="M 40.05 78.396619 
L 565.2 78.396619 
" style="fill:none;stroke:#ffffff;stroke-linecap:square;stroke-width:0.8;"/>
     </g>
     <g id="line2d_20">
      <g>
       <use style="fill:#555555;stroke:#555555;stroke-width:0.8;" x="40.05" xlink:href="#mca98f6b362" y="78.396619"/>
      </g>
     </g>
     <g id="text_11">
      <!-- 0.90 -->
      <g style="fill:#555555;" transform="translate(10.784375 82.195838)scale(0.1 -0.1)">
       <defs>
        <path d="M 703 97 
L 703 672 
Q 941 559 1184 500 
Q 1428 441 1663 441 
Q 2288 441 2617 861 
Q 2947 1281 2994 2138 
Q 2813 1869 2534 1725 
Q 2256 1581 1919 1581 
Q 1219 1581 811 2004 
Q 403 2428 403 3163 
Q 403 3881 828 4315 
Q 1253 4750 1959 4750 
Q 2769 4750 3195 4129 
Q 3622 3509 3622 2328 
Q 3622 1225 3098 567 
Q 2575 -91 1691 -91 
Q 1453 -91 1209 -44 
Q 966 3 703 97 
z
M 1959 2075 
Q 2384 2075 2632 2365 
Q 2881 2656 2881 3163 
Q 2881 3666 2632 3958 
Q 2384 4250 1959 4250 
Q 1534 4250 1286 3958 
Q 1038 3666 1038 3163 
Q 1038 2656 1286 2365 
Q 1534 2075 1959 2075 
z
" id="DejaVuSans-39" transform="scale(0.015625)"/>
       </defs>
       <use xlink:href="#DejaVuSans-30"/>
       <use x="63.623047" xlink:href="#DejaVuSans-2e"/>
       <use x="95.410156" xlink:href="#DejaVuSans-39"/>
       <use x="159.033203" xlink:href="#DejaVuSans-30"/>
      </g>
     </g>
    </g>
    <g id="ytick_5">
     <g id="line2d_21">
      <path clip-path="url(#p7776d18576)" d="M 40.05 32.879474 
L 565.2 32.879474 
" style="fill:none;stroke:#ffffff;stroke-linecap:square;stroke-width:0.8;"/>
     </g>
     <g id="line2d_22">
      <g>
       <use style="fill:#555555;stroke:#555555;stroke-width:0.8;" x="40.05" xlink:href="#mca98f6b362" y="32.879474"/>
      </g>
     </g>
     <g id="text_12">
      <!-- 0.95 -->
      <g style="fill:#555555;" transform="translate(10.784375 36.678693)scale(0.1 -0.1)">
       <use xlink:href="#DejaVuSans-30"/>
       <use x="63.623047" xlink:href="#DejaVuSans-2e"/>
       <use x="95.410156" xlink:href="#DejaVuSans-39"/>
       <use x="159.033203" xlink:href="#DejaVuSans-35"/>
      </g>
     </g>
    </g>
   </g>
   <g id="line2d_23">
    <path clip-path="url(#p7776d18576)" d="M 63.920455 226.946375 
L 68.742769 178.479718 
L 73.565083 159.144035 
L 78.387397 147.364198 
L 83.209711 134.719535 
L 88.032025 128.902444 
L 92.854339 126.735828 
L 97.676653 121.574183 
L 102.498967 112.152134 
L 107.321281 111.906342 
L 112.143595 104.132013 
L 116.965909 104.377806 
L 121.788223 105.39739 
L 126.610537 102.511603 
L 131.432851 99.798781 
L 136.255165 97.222511 
L 141.077479 99.097817 
L 145.899793 91.951625 
L 150.722107 89.065838 
L 155.544421 89.57563 
L 160.366736 86.853705 
L 165.18905 85.615639 
L 170.011364 84.996605 
L 174.833678 84.705296 
L 179.655992 84.058952 
L 184.478306 83.185023 
L 189.30062 80.007926 
L 194.122934 78.378413 
L 198.945248 79.106687 
L 203.767562 78.815377 
L 208.589876 77.568207 
L 213.41219 76.257314 
L 218.234504 74.290973 
L 223.056818 72.961872 
L 227.879132 74.290973 
L 232.701446 75.811246 
L 237.52376 73.207665 
L 242.346074 73.134837 
L 247.168388 72.834424 
L 251.990702 69.010984 
L 256.813017 65.624508 
L 261.635331 70.549464 
L 266.457645 67.38147 
L 271.279959 68.437468 
L 276.102273 67.32685 
L 280.924587 64.450166 
L 285.746901 68.646847 
L 290.569215 64.623131 
L 295.391529 61.118311 
L 300.213843 60.390037 
L 305.036157 61.054587 
L 309.858471 61.546172 
L 314.680785 62.966307 
L 319.503099 66.006852 
L 324.325413 59.780107 
L 329.147727 57.404112 
L 333.970041 59.898452 
L 338.792355 57.604387 
L 343.614669 56.166046 
L 348.436983 60.235278 
L 353.259298 55.774598 
L 358.081612 56.557493 
L 362.903926 56.202459 
L 367.72624 61.100104 
L 372.548554 52.715846 
L 377.370868 61.200242 
L 382.193182 52.734053 
L 387.015496 55.537909 
L 391.83781 51.723572 
L 396.660124 55.30122 
L 401.482438 53.471431 
L 406.304752 48.683027 
L 411.127066 54.126878 
L 415.94938 50.25792 
L 420.771694 49.028957 
L 425.594008 50.940677 
L 430.416322 50.075852 
L 435.238636 51.896537 
L 440.06095 49.711714 
L 444.883264 47.545098 
L 449.705579 47.891029 
L 454.527893 48.300683 
L 459.350207 52.442743 
L 464.172521 47.308409 
L 468.994835 46.552825 
L 473.817149 45.851861 
L 478.639463 50.175989 
L 483.461777 45.806343 
L 488.284091 48.082201 
L 493.106405 48.98344 
L 497.928719 45.469517 
L 502.751033 47.690753 
L 507.573347 43.421245 
L 512.395661 46.134067 
L 517.217975 46.862341 
L 522.040289 51.231987 
L 526.862603 41.118077 
L 531.684917 40.280562 
L 536.507231 45.569654 
L 541.329545 42.802212 
" style="fill:none;stroke:#e24a33;stroke-linecap:square;stroke-width:1.5;"/>
   </g>
   <g id="line2d_24">
    <path clip-path="url(#p7776d18576)" d="M 63.920455 197.269196 
L 68.742769 157.068453 
L 73.565083 136.858841 
L 78.387397 131.760921 
L 83.209711 123.731696 
L 88.032025 112.880409 
L 92.854339 104.46884 
L 97.676653 103.376429 
L 102.498967 100.445125 
L 107.321281 96.139203 
L 112.143595 94.081828 
L 116.965909 92.934796 
L 121.788223 84.960192 
L 126.610537 84.941985 
L 131.432851 85.397156 
L 136.255165 78.997446 
L 141.077479 78.869998 
L 145.899793 77.768483 
L 150.722107 76.038831 
L 155.544421 70.922704 
L 160.366736 74.509455 
L 165.18905 68.218986 
L 170.011364 66.525748 
L 174.833678 66.025059 
L 179.655992 66.707817 
L 184.478306 65.524371 
L 189.30062 63.712788 
L 194.122934 61.664517 
L 198.945248 57.176526 
L 203.767562 59.133764 
L 208.589876 56.25708 
L 213.41219 58.942592 
L 218.234504 52.561088 
L 223.056818 52.269778 
L 227.879132 52.843294 
L 232.701446 53.926602 
L 237.52376 50.294334 
L 242.346074 52.670329 
L 247.168388 50.667575 
L 251.990702 46.443583 
L 256.813017 45.760826 
L 261.635331 45.533241 
L 266.457645 45.469517 
L 271.279959 45.578758 
L 276.102273 45.76993 
L 280.924587 45.569654 
L 285.746901 43.557796 
L 290.569215 41.700697 
L 295.391529 41.39118 
L 300.213843 45.150896 
L 305.036157 41.108974 
L 309.858471 37.048845 
L 314.680785 42.02842 
L 319.503099 40.43532 
L 324.325413 36.457122 
L 329.147727 37.686085 
L 333.970041 34.417954 
L 338.792355 34.72747 
L 343.614669 35.073401 
L 348.436983 34.390643 
L 353.259298 37.376568 
L 358.081612 37.203603 
L 362.903926 35.537675 
L 367.72624 34.308712 
L 372.548554 31.805269 
L 377.370868 34.663746 
L 382.193182 32.81575 
L 387.015496 34.317816 
L 391.83781 32.797543 
L 396.660124 32.105683 
L 401.482438 31.850787 
L 406.304752 30.5581 
L 411.127066 29.702377 
L 415.94938 30.576307 
L 420.771694 31.850787 
L 425.594008 32.44251 
L 430.416322 28.864862 
L 435.238636 27.162521 
L 440.06095 30.658237 
L 444.883264 34.199471 
L 449.705579 26.079213 
L 454.527893 29.401964 
L 459.350207 28.591759 
L 464.172521 28.737414 
L 468.994835 28.464311 
L 473.817149 25.478386 
L 478.639463 28.118381 
L 483.461777 30.749272 
L 488.284091 25.405559 
L 493.106405 25.715075 
L 497.928719 25.687765 
L 502.751033 30.020997 
L 507.573347 26.698246 
L 512.395661 36.047467 
L 517.217975 27.508451 
L 522.040289 21.363636 
L 526.862603 27.226245 
L 531.684917 22.67453 
L 536.507231 30.940444 
L 541.329545 28.537138 
" style="fill:none;stroke:#348abd;stroke-linecap:square;stroke-width:1.5;"/>
   </g>
   <g id="line2d_25">
    <path clip-path="url(#p7776d18576)" d="M 63.920455 189.494868 
L 68.742769 158.224589 
L 73.565083 130.72313 
L 78.387397 120.2906 
L 83.209711 116.039299 
L 88.032025 110.795723 
L 92.854339 102.329534 
L 97.676653 98.842921 
L 102.498967 96.384995 
L 107.321281 91.032179 
L 112.143595 90.731766 
L 116.965909 87.117704 
L 121.788223 83.294264 
L 126.610537 81.31882 
L 131.432851 76.503106 
L 136.255165 70.713325 
L 141.077479 71.168497 
L 145.899793 72.024219 
L 150.722107 69.147535 
L 155.544421 65.915818 
L 160.366736 67.827538 
L 165.18905 62.074171 
L 170.011364 63.658168 
L 174.833678 60.453761 
L 179.655992 58.578454 
L 184.478306 58.878868 
L 189.30062 57.868387 
L 194.122934 57.668111 
L 198.945248 56.25708 
L 203.767562 57.53156 
L 208.589876 50.421782 
L 213.41219 45.196414 
L 218.234504 53.407707 
L 223.056818 48.69213 
L 227.879132 51.841917 
L 232.701446 49.64799 
L 237.52376 49.047164 
L 242.346074 48.92882 
L 247.168388 47.290202 
L 251.990702 46.188687 
L 256.813017 44.759449 
L 261.635331 44.459036 
L 266.457645 42.92966 
L 271.279959 45.715309 
L 276.102273 41.263732 
L 280.924587 39.169944 
L 285.746901 47.499581 
L 290.569215 44.368002 
L 295.391529 35.965537 
L 300.213843 40.071183 
L 305.036157 37.349258 
L 309.858471 39.761666 
L 314.680785 36.976017 
L 319.503099 37.367465 
L 324.325413 40.808561 
L 329.147727 36.347881 
L 333.970041 34.909539 
L 338.792355 38.268704 
L 343.614669 36.147605 
L 348.436983 40.025666 
L 353.259298 35.956433 
L 358.081612 35.036987 
L 362.903926 38.7876 
L 367.72624 30.721961 
L 372.548554 34.317816 
L 377.370868 31.732442 
L 382.193182 34.681953 
L 387.015496 31.504856 
L 391.83781 33.270922 
L 396.660124 41.254629 
L 401.482438 34.263195 
L 406.304752 31.19534 
L 411.127066 27.153417 
L 415.94938 30.967754 
L 420.771694 29.638653 
L 425.594008 27.244452 
L 430.416322 27.299072 
L 435.238636 30.084721 
L 440.06095 31.231753 
L 444.883264 33.953679 
L 449.705579 27.763347 
L 454.527893 26.934935 
L 459.350207 29.265413 
L 464.172521 27.390106 
L 468.994835 26.543487 
L 473.817149 26.880314 
L 478.639463 29.92086 
L 483.461777 25.605834 
L 488.284091 30.985961 
L 493.106405 29.092448 
L 497.928719 30.157549 
L 502.751033 26.652729 
L 507.573347 27.572175 
L 512.395661 27.144314 
L 517.217975 23.056874 
L 522.040289 28.173001 
L 526.862603 24.231217 
L 531.684917 27.817968 
L 536.507231 26.061006 
L 541.329545 24.431492 
" style="fill:none;stroke:#988ed5;stroke-linecap:square;stroke-width:1.5;"/>
   </g>
   <g id="line2d_26">
    <path clip-path="url(#p7776d18576)" d="M 63.920455 232.636364 
L 68.742769 191.21 
L 73.565083 173.233608 
L 78.387397 162.57453 
L 83.209711 154.68105 
L 88.032025 152.030685 
L 92.854339 150.705502 
L 97.676653 152.030685 
L 102.498967 142.293473 
L 107.321281 146.845187 
L 112.143595 141.602073 
L 116.965909 145.692854 
L 121.788223 147.65182 
L 126.610537 146.038554 
L 131.432851 142.869639 
L 136.255165 144.194822 
L 141.077479 146.787571 
L 145.899793 142.293473 
L 150.722107 139.815957 
L 155.544421 142.235856 
L 160.366736 143.388189 
L 165.18905 141.429223 
L 170.011364 144.079589 
L 174.833678 142.523939 
L 179.655992 146.845187 
L 184.478306 145.808088 
L 189.30062 145.404771 
L 194.122934 145.750471 
L 198.945248 147.13327 
L 203.767562 147.421354 
L 208.589876 147.363737 
L 213.41219 150.014102 
L 218.234504 148.112753 
L 223.056818 150.186952 
L 227.879132 149.553169 
L 232.701446 153.816801 
L 237.52376 149.207469 
L 242.346074 152.837318 
L 247.168388 151.800218 
L 251.990702 150.071719 
L 256.813017 148.631303 
L 261.635331 153.240634 
L 266.457645 154.220117 
L 271.279959 153.413484 
L 276.102273 154.220117 
L 280.924587 153.413484 
L 285.746901 155.430067 
L 290.569215 158.138049 
L 295.391529 156.2367 
L 300.213843 156.121466 
L 305.036157 157.043332 
L 309.858471 154.33535 
L 314.680785 156.640016 
L 319.503099 160.442714 
L 324.325413 156.006233 
L 329.147727 157.389032 
L 333.970041 157.446649 
L 338.792355 160.154631 
L 343.614669 158.656598 
L 348.436983 158.598982 
L 353.259298 154.5082 
L 358.081612 161.076497 
L 362.903926 158.656598 
L 367.72624 161.479814 
L 372.548554 158.656598 
L 377.370868 162.632147 
L 382.193182 159.175148 
L 387.015496 159.290381 
L 391.83781 160.846031 
L 396.660124 164.533496 
L 401.482438 162.862613 
L 406.304752 156.985716 
L 411.127066 162.689763 
L 415.94938 162.113597 
L 420.771694 160.846031 
L 425.594008 160.846031 
L 430.416322 159.290381 
L 435.238636 164.014946 
L 440.06095 158.771832 
L 444.883264 162.516913 
L 449.705579 162.113597 
L 454.527893 162.459297 
L 459.350207 167.068628 
L 464.172521 163.438779 
L 468.994835 160.097014 
L 473.817149 165.340129 
L 478.639463 166.377228 
L 483.461777 161.88313 
L 488.284091 168.451427 
L 493.106405 164.763962 
L 497.928719 169.027594 
L 502.751033 166.319611 
L 507.573347 163.26593 
L 512.395661 167.126244 
L 517.217975 166.780545 
L 522.040289 172.830292 
L 526.862603 166.953394 
L 531.684917 163.150696 
L 536.507231 168.163344 
L 541.329545 167.702411 
" style="fill:none;stroke:#777777;stroke-dasharray:5.55,2.4;stroke-dashoffset:0;stroke-width:1.5;"/>
   </g>
   <g id="line2d_27">
    <path clip-path="url(#p7776d18576)" d="M 63.920455 203.539961 
L 68.742769 163.208313 
L 73.565083 148.631303 
L 78.387397 148.68892 
L 83.209711 144.425288 
L 88.032025 140.737823 
L 92.854339 132.152944 
L 97.676653 132.325794 
L 102.498967 136.992742 
L 107.321281 134.342376 
L 112.143595 136.013259 
L 116.965909 134.572843 
L 121.788223 128.177396 
L 126.610537 131.807244 
L 131.432851 135.494709 
L 136.255165 132.556261 
L 141.077479 132.325794 
L 145.899793 138.433158 
L 150.722107 137.914608 
L 155.544421 133.017194 
L 160.366736 136.819892 
L 165.18905 133.190044 
L 170.011364 136.992742 
L 174.833678 133.42051 
L 179.655992 140.44974 
L 184.478306 139.873574 
L 189.30062 142.581556 
L 194.122934 141.256373 
L 198.945248 140.79544 
L 203.767562 140.564974 
L 208.589876 143.849122 
L 213.41219 145.174305 
L 218.234504 143.215339 
L 223.056818 140.79544 
L 227.879132 141.48684 
L 232.701446 142.063006 
L 237.52376 145.462388 
L 242.346074 145.865704 
L 247.168388 147.363737 
L 251.990702 143.964355 
L 256.813017 145.577621 
L 261.635331 143.733889 
L 266.457645 146.499487 
L 271.279959 149.149853 
L 276.102273 146.787571 
L 280.924587 145.980938 
L 285.746901 151.915452 
L 290.569215 147.99752 
L 295.391529 151.915452 
L 300.213843 150.129336 
L 305.036157 148.746536 
L 309.858471 147.82467 
L 314.680785 149.726019 
L 319.503099 150.590269 
L 324.325413 148.055137 
L 329.147727 149.956486 
L 333.970041 146.557104 
L 338.792355 149.437936 
L 343.614669 150.359802 
L 348.436983 150.935969 
L 353.259298 152.606851 
L 358.081612 154.392967 
L 362.903926 151.973068 
L 367.72624 154.392967 
L 372.548554 150.071719 
L 377.370868 152.664468 
L 382.193182 150.475036 
L 387.015496 157.043332 
L 391.83781 151.857835 
L 396.660124 150.705502 
L 401.482438 151.800218 
L 406.304752 153.125401 
L 411.127066 155.37245 
L 415.94938 153.528717 
L 420.771694 155.660533 
L 425.594008 156.179083 
L 430.416322 156.409549 
L 435.238636 153.528717 
L 440.06095 155.660533 
L 444.883264 156.640016 
L 449.705579 154.565817 
L 454.527893 154.220117 
L 459.350207 155.487683 
L 464.172521 157.561882 
L 468.994835 153.701567 
L 473.817149 154.8539 
L 478.639463 160.327481 
L 483.461777 158.714215 
L 488.284091 155.660533 
L 493.106405 157.216182 
L 497.928719 157.446649 
L 502.751033 158.944682 
L 507.573347 158.483748 
L 512.395661 161.53743 
L 517.217975 154.623434 
L 522.040289 155.37245 
L 526.862603 158.541365 
L 531.684917 160.673181 
L 536.507231 159.175148 
L 541.329545 159.636081 
" style="fill:none;stroke:#fbc15e;stroke-dasharray:5.55,2.4;stroke-dashoffset:0;stroke-width:1.5;"/>
   </g>
   <g id="line2d_28">
    <path clip-path="url(#p7776d18576)" d="M 63.920455 195.761714 
L 68.742769 170.640859 
L 73.565083 148.977003 
L 78.387397 143.042489 
L 83.209711 140.62259 
L 88.032025 137.107975 
L 92.854339 136.013259 
L 97.676653 133.881443 
L 102.498967 133.017194 
L 107.321281 131.692011 
L 112.143595 135.725176 
L 116.965909 136.301342 
L 121.788223 136.416575 
L 126.610537 134.63046 
L 131.432851 133.362894 
L 136.255165 131.346311 
L 141.077479 132.325794 
L 145.899793 131.980094 
L 150.722107 133.59336 
L 155.544421 134.918543 
L 160.366736 134.399993 
L 165.18905 134.342376 
L 170.011364 137.972225 
L 174.833678 134.572843 
L 179.655992 136.243726 
L 184.478306 136.762275 
L 189.30062 138.721241 
L 194.122934 139.470257 
L 198.945248 140.10404 
L 203.767562 143.445806 
L 208.589876 140.680207 
L 213.41219 136.704659 
L 218.234504 141.429223 
L 223.056818 139.239791 
L 227.879132 143.388189 
L 232.701446 141.65969 
L 237.52376 141.65969 
L 242.346074 141.256373 
L 247.168388 142.063006 
L 251.990702 145.462388 
L 256.813017 146.211404 
L 261.635331 140.334507 
L 266.457645 141.83254 
L 271.279959 149.437936 
L 276.102273 142.984872 
L 280.924587 142.754406 
L 285.746901 148.458453 
L 290.569215 142.984872 
L 295.391529 141.947773 
L 300.213843 142.927256 
L 305.036157 142.869639 
L 309.858471 148.458453 
L 314.680785 144.367672 
L 319.503099 144.310055 
L 324.325413 147.363737 
L 329.147727 141.65969 
L 333.970041 147.65182 
L 338.792355 148.919386 
L 343.614669 145.980938 
L 348.436983 151.684985 
L 353.259298 145.289538 
L 358.081612 147.594204 
L 362.903926 153.298251 
L 367.72624 143.906739 
L 372.548554 146.729954 
L 377.370868 144.828605 
L 382.193182 149.322703 
L 387.015496 151.281669 
L 391.83781 144.828605 
L 396.660124 151.281669 
L 401.482438 147.47897 
L 406.304752 146.269021 
L 411.127066 144.713372 
L 415.94938 150.129336 
L 420.771694 148.227987 
L 425.594008 148.746536 
L 430.416322 146.672337 
L 435.238636 149.668403 
L 440.06095 148.285603 
L 444.883264 150.993585 
L 449.705579 146.902804 
L 454.527893 148.631303 
L 459.350207 150.302186 
L 464.172521 147.075654 
L 468.994835 148.400837 
L 473.817149 148.631303 
L 478.639463 150.763119 
L 483.461777 148.227987 
L 488.284091 152.434001 
L 493.106405 147.882287 
L 497.928719 150.993585 
L 502.751033 151.166435 
L 507.573347 152.722085 
L 512.395661 151.339285 
L 517.217975 146.845187 
L 522.040289 150.359802 
L 526.862603 148.055137 
L 531.684917 151.166435 
L 536.507231 150.705502 
L 541.329545 151.627368 
" style="fill:none;stroke:#8eba42;stroke-dasharray:5.55,2.4;stroke-dashoffset:0;stroke-width:1.5;"/>
   </g>
   <g id="patch_3">
    <path d="M 40.05 243.2 
L 40.05 10.8 
" style="fill:none;stroke:#ffffff;stroke-linecap:square;stroke-linejoin:miter;"/>
   </g>
   <g id="patch_4">
    <path d="M 565.2 243.2 
L 565.2 10.8 
" style="fill:none;stroke:#ffffff;stroke-linecap:square;stroke-linejoin:miter;"/>
   </g>
   <g id="patch_5">
    <path d="M 40.05 243.2 
L 565.2 243.2 
" style="fill:none;stroke:#ffffff;stroke-linecap:square;stroke-linejoin:miter;"/>
   </g>
   <g id="patch_6">
    <path d="M 40.05 10.8 
L 565.2 10.8 
" style="fill:none;stroke:#ffffff;stroke-linecap:square;stroke-linejoin:miter;"/>
   </g>
   <g id="legend_1">
    <g id="patch_7">
     <path d="M 47.05 238.2 
L 152.63125 238.2 
Q 154.63125 238.2 154.63125 236.2 
L 154.63125 149.13125 
Q 154.63125 147.13125 152.63125 147.13125 
L 47.05 147.13125 
Q 45.05 147.13125 45.05 149.13125 
L 45.05 236.2 
Q 45.05 238.2 47.05 238.2 
z
" style="fill:#e5e5e5;opacity:0.8;stroke:#cccccc;stroke-linejoin:miter;stroke-width:0.5;"/>
    </g>
    <g id="line2d_29">
     <path d="M 49.05 155.229688 
L 69.05 155.229688 
" style="fill:none;stroke:#e24a33;stroke-linecap:square;stroke-width:1.5;"/>
    </g>
    <g id="line2d_30"/>
    <g id="text_13">
     <!-- depth 1 (train) -->
     <g transform="translate(77.05 158.729688)scale(0.1 -0.1)">
      <defs>
       <path d="M 2906 2969 
L 2906 4863 
L 3481 4863 
L 3481 0 
L 2906 0 
L 2906 525 
Q 2725 213 2448 61 
Q 2172 -91 1784 -91 
Q 1150 -91 751 415 
Q 353 922 353 1747 
Q 353 2572 751 3078 
Q 1150 3584 1784 3584 
Q 2172 3584 2448 3432 
Q 2725 3281 2906 2969 
z
M 947 1747 
Q 947 1113 1208 752 
Q 1469 391 1925 391 
Q 2381 391 2643 752 
Q 2906 1113 2906 1747 
Q 2906 2381 2643 2742 
Q 2381 3103 1925 3103 
Q 1469 3103 1208 2742 
Q 947 2381 947 1747 
z
" id="DejaVuSans-64" transform="scale(0.015625)"/>
       <path d="M 1172 4494 
L 1172 3500 
L 2356 3500 
L 2356 3053 
L 1172 3053 
L 1172 1153 
Q 1172 725 1289 603 
Q 1406 481 1766 481 
L 2356 481 
L 2356 0 
L 1766 0 
Q 1100 0 847 248 
Q 594 497 594 1153 
L 594 3053 
L 172 3053 
L 172 3500 
L 594 3500 
L 594 4494 
L 1172 4494 
z
" id="DejaVuSans-74" transform="scale(0.015625)"/>
       <path d="M 1984 4856 
Q 1566 4138 1362 3434 
Q 1159 2731 1159 2009 
Q 1159 1288 1364 580 
Q 1569 -128 1984 -844 
L 1484 -844 
Q 1016 -109 783 600 
Q 550 1309 550 2009 
Q 550 2706 781 3412 
Q 1013 4119 1484 4856 
L 1984 4856 
z
" id="DejaVuSans-28" transform="scale(0.015625)"/>
       <path d="M 2194 1759 
Q 1497 1759 1228 1600 
Q 959 1441 959 1056 
Q 959 750 1161 570 
Q 1363 391 1709 391 
Q 2188 391 2477 730 
Q 2766 1069 2766 1631 
L 2766 1759 
L 2194 1759 
z
M 3341 1997 
L 3341 0 
L 2766 0 
L 2766 531 
Q 2569 213 2275 61 
Q 1981 -91 1556 -91 
Q 1019 -91 701 211 
Q 384 513 384 1019 
Q 384 1609 779 1909 
Q 1175 2209 1959 2209 
L 2766 2209 
L 2766 2266 
Q 2766 2663 2505 2880 
Q 2244 3097 1772 3097 
Q 1472 3097 1187 3025 
Q 903 2953 641 2809 
L 641 3341 
Q 956 3463 1253 3523 
Q 1550 3584 1831 3584 
Q 2591 3584 2966 3190 
Q 3341 2797 3341 1997 
z
" id="DejaVuSans-61" transform="scale(0.015625)"/>
       <path d="M 603 3500 
L 1178 3500 
L 1178 0 
L 603 0 
L 603 3500 
z
M 603 4863 
L 1178 4863 
L 1178 4134 
L 603 4134 
L 603 4863 
z
" id="DejaVuSans-69" transform="scale(0.015625)"/>
       <path d="M 513 4856 
L 1013 4856 
Q 1481 4119 1714 3412 
Q 1947 2706 1947 2009 
Q 1947 1309 1714 600 
Q 1481 -109 1013 -844 
L 513 -844 
Q 928 -128 1133 580 
Q 1338 1288 1338 2009 
Q 1338 2731 1133 3434 
Q 928 4138 513 4856 
z
" id="DejaVuSans-29" transform="scale(0.015625)"/>
      </defs>
      <use xlink:href="#DejaVuSans-64"/>
      <use x="63.476562" xlink:href="#DejaVuSans-65"/>
      <use x="125" xlink:href="#DejaVuSans-70"/>
      <use x="188.476562" xlink:href="#DejaVuSans-74"/>
      <use x="227.685547" xlink:href="#DejaVuSans-68"/>
      <use x="291.064453" xlink:href="#DejaVuSans-20"/>
      <use x="322.851562" xlink:href="#DejaVuSans-31"/>
      <use x="386.474609" xlink:href="#DejaVuSans-20"/>
      <use x="418.261719" xlink:href="#DejaVuSans-28"/>
      <use x="457.275391" xlink:href="#DejaVuSans-74"/>
      <use x="496.484375" xlink:href="#DejaVuSans-72"/>
      <use x="537.597656" xlink:href="#DejaVuSans-61"/>
      <use x="598.876953" xlink:href="#DejaVuSans-69"/>
      <use x="626.660156" xlink:href="#DejaVuSans-6e"/>
      <use x="690.039062" xlink:href="#DejaVuSans-29"/>
     </g>
    </g>
    <g id="line2d_31">
     <path d="M 49.05 169.907813 
L 69.05 169.907813 
" style="fill:none;stroke:#348abd;stroke-linecap:square;stroke-width:1.5;"/>
    </g>
    <g id="line2d_32"/>
    <g id="text_14">
     <!-- depth 2 (train) -->
     <g transform="translate(77.05 173.407813)scale(0.1 -0.1)">
      <use xlink:href="#DejaVuSans-64"/>
      <use x="63.476562" xlink:href="#DejaVuSans-65"/>
      <use x="125" xlink:href="#DejaVuSans-70"/>
      <use x="188.476562" xlink:href="#DejaVuSans-74"/>
      <use x="227.685547" xlink:href="#DejaVuSans-68"/>
      <use x="291.064453" xlink:href="#DejaVuSans-20"/>
      <use x="322.851562" xlink:href="#DejaVuSans-32"/>
      <use x="386.474609" xlink:href="#DejaVuSans-20"/>
      <use x="418.261719" xlink:href="#DejaVuSans-28"/>
      <use x="457.275391" xlink:href="#DejaVuSans-74"/>
      <use x="496.484375" xlink:href="#DejaVuSans-72"/>
      <use x="537.597656" xlink:href="#DejaVuSans-61"/>
      <use x="598.876953" xlink:href="#DejaVuSans-69"/>
      <use x="626.660156" xlink:href="#DejaVuSans-6e"/>
      <use x="690.039062" xlink:href="#DejaVuSans-29"/>
     </g>
    </g>
    <g id="line2d_33">
     <path d="M 49.05 184.585938 
L 69.05 184.585938 
" style="fill:none;stroke:#988ed5;stroke-linecap:square;stroke-width:1.5;"/>
    </g>
    <g id="line2d_34"/>
    <g id="text_15">
     <!-- depth 3 (train) -->
     <g transform="translate(77.05 188.085938)scale(0.1 -0.1)">
      <defs>
       <path d="M 2597 2516 
Q 3050 2419 3304 2112 
Q 3559 1806 3559 1356 
Q 3559 666 3084 287 
Q 2609 -91 1734 -91 
Q 1441 -91 1130 -33 
Q 819 25 488 141 
L 488 750 
Q 750 597 1062 519 
Q 1375 441 1716 441 
Q 2309 441 2620 675 
Q 2931 909 2931 1356 
Q 2931 1769 2642 2001 
Q 2353 2234 1838 2234 
L 1294 2234 
L 1294 2753 
L 1863 2753 
Q 2328 2753 2575 2939 
Q 2822 3125 2822 3475 
Q 2822 3834 2567 4026 
Q 2313 4219 1838 4219 
Q 1578 4219 1281 4162 
Q 984 4106 628 3988 
L 628 4550 
Q 988 4650 1302 4700 
Q 1616 4750 1894 4750 
Q 2613 4750 3031 4423 
Q 3450 4097 3450 3541 
Q 3450 3153 3228 2886 
Q 3006 2619 2597 2516 
z
" id="DejaVuSans-33" transform="scale(0.015625)"/>
      </defs>
      <use xlink:href="#DejaVuSans-64"/>
      <use x="63.476562" xlink:href="#DejaVuSans-65"/>
      <use x="125" xlink:href="#DejaVuSans-70"/>
      <use x="188.476562" xlink:href="#DejaVuSans-74"/>
      <use x="227.685547" xlink:href="#DejaVuSans-68"/>
      <use x="291.064453" xlink:href="#DejaVuSans-20"/>
      <use x="322.851562" xlink:href="#DejaVuSans-33"/>
      <use x="386.474609" xlink:href="#DejaVuSans-20"/>
      <use x="418.261719" xlink:href="#DejaVuSans-28"/>
      <use x="457.275391" xlink:href="#DejaVuSans-74"/>
      <use x="496.484375" xlink:href="#DejaVuSans-72"/>
      <use x="537.597656" xlink:href="#DejaVuSans-61"/>
      <use x="598.876953" xlink:href="#DejaVuSans-69"/>
      <use x="626.660156" xlink:href="#DejaVuSans-6e"/>
      <use x="690.039062" xlink:href="#DejaVuSans-29"/>
     </g>
    </g>
    <g id="line2d_35">
     <path d="M 49.05 199.264063 
L 69.05 199.264063 
" style="fill:none;stroke:#777777;stroke-dasharray:5.55,2.4;stroke-dashoffset:0;stroke-width:1.5;"/>
    </g>
    <g id="line2d_36"/>
    <g id="text_16">
     <!-- depth 1 (valid) -->
     <g transform="translate(77.05 202.764063)scale(0.1 -0.1)">
      <defs>
       <path d="M 191 3500 
L 800 3500 
L 1894 563 
L 2988 3500 
L 3597 3500 
L 2284 0 
L 1503 0 
L 191 3500 
z
" id="DejaVuSans-76" transform="scale(0.015625)"/>
       <path d="M 603 4863 
L 1178 4863 
L 1178 0 
L 603 0 
L 603 4863 
z
" id="DejaVuSans-6c" transform="scale(0.015625)"/>
      </defs>
      <use xlink:href="#DejaVuSans-64"/>
      <use x="63.476562" xlink:href="#DejaVuSans-65"/>
      <use x="125" xlink:href="#DejaVuSans-70"/>
      <use x="188.476562" xlink:href="#DejaVuSans-74"/>
      <use x="227.685547" xlink:href="#DejaVuSans-68"/>
      <use x="291.064453" xlink:href="#DejaVuSans-20"/>
      <use x="322.851562" xlink:href="#DejaVuSans-31"/>
      <use x="386.474609" xlink:href="#DejaVuSans-20"/>
      <use x="418.261719" xlink:href="#DejaVuSans-28"/>
      <use x="457.275391" xlink:href="#DejaVuSans-76"/>
      <use x="516.455078" xlink:href="#DejaVuSans-61"/>
      <use x="577.734375" xlink:href="#DejaVuSans-6c"/>
      <use x="605.517578" xlink:href="#DejaVuSans-69"/>
      <use x="633.300781" xlink:href="#DejaVuSans-64"/>
      <use x="696.777344" xlink:href="#DejaVuSans-29"/>
     </g>
    </g>
    <g id="line2d_37">
     <path d="M 49.05 213.942188 
L 69.05 213.942188 
" style="fill:none;stroke:#fbc15e;stroke-dasharray:5.55,2.4;stroke-dashoffset:0;stroke-width:1.5;"/>
    </g>
    <g id="line2d_38"/>
    <g id="text_17">
     <!-- depth 2 (valid) -->
     <g transform="translate(77.05 217.442188)scale(0.1 -0.1)">
      <use xlink:href="#DejaVuSans-64"/>
      <use x="63.476562" xlink:href="#DejaVuSans-65"/>
      <use x="125" xlink:href="#DejaVuSans-70"/>
      <use x="188.476562" xlink:href="#DejaVuSans-74"/>
      <use x="227.685547" xlink:href="#DejaVuSans-68"/>
      <use x="291.064453" xlink:href="#DejaVuSans-20"/>
      <use x="322.851562" xlink:href="#DejaVuSans-32"/>
      <use x="386.474609" xlink:href="#DejaVuSans-20"/>
      <use x="418.261719" xlink:href="#DejaVuSans-28"/>
      <use x="457.275391" xlink:href="#DejaVuSans-76"/>
      <use x="516.455078" xlink:href="#DejaVuSans-61"/>
      <use x="577.734375" xlink:href="#DejaVuSans-6c"/>
      <use x="605.517578" xlink:href="#DejaVuSans-69"/>
      <use x="633.300781" xlink:href="#DejaVuSans-64"/>
      <use x="696.777344" xlink:href="#DejaVuSans-29"/>
     </g>
    </g>
    <g id="line2d_39">
     <path d="M 49.05 228.620313 
L 69.05 228.620313 
" style="fill:none;stroke:#8eba42;stroke-dasharray:5.55,2.4;stroke-dashoffset:0;stroke-width:1.5;"/>
    </g>
    <g id="line2d_40"/>
    <g id="text_18">
     <!-- depth 3 (valid) -->
     <g transform="translate(77.05 232.120313)scale(0.1 -0.1)">
      <use xlink:href="#DejaVuSans-64"/>
      <use x="63.476562" xlink:href="#DejaVuSans-65"/>
      <use x="125" xlink:href="#DejaVuSans-70"/>
      <use x="188.476562" xlink:href="#DejaVuSans-74"/>
      <use x="227.685547" xlink:href="#DejaVuSans-68"/>
      <use x="291.064453" xlink:href="#DejaVuSans-20"/>
      <use x="322.851562" xlink:href="#DejaVuSans-33"/>
      <use x="386.474609" xlink:href="#DejaVuSans-20"/>
      <use x="418.261719" xlink:href="#DejaVuSans-28"/>
      <use x="457.275391" xlink:href="#DejaVuSans-76"/>
      <use x="516.455078" xlink:href="#DejaVuSans-61"/>
      <use x="577.734375" xlink:href="#DejaVuSans-6c"/>
      <use x="605.517578" xlink:href="#DejaVuSans-69"/>
      <use x="633.300781" xlink:href="#DejaVuSans-64"/>
      <use x="696.777344" xlink:href="#DejaVuSans-29"/>
     </g>
    </g>
   </g>
  </g>
 </g>
 <defs>
  <clipPath id="p7776d18576">
   <rect height="232.4" width="525.15" x="40.05" y="10.8"/>
  </clipPath>
 </defs>
</svg>
