<?xml version="1.0" encoding="utf-8" standalone="no"?>
<!DOCTYPE svg PUBLIC "-//W3C//DTD SVG 1.1//EN"
  "http://www.w3.org/Graphics/SVG/1.1/DTD/svg11.dtd">
<svg height="288pt" version="1.1" viewBox="0 0 576 288" width="576pt" xmlns="http://www.w3.org/2000/svg" xmlns:xlink="http://www.w3.org/1999/xlink">
 <metadata>
  <rdf:RDF xmlns:cc="http://creativecommons.org/ns#" xmlns:dc="http://purl.org/dc/elements/1.1/" xmlns:rdf="http://www.w3.org/1999/02/22-rdf-syntax-ns#">
   <cc:Work>
    <dc:type rdf:resource="http://purl.org/dc/dcmitype/StillImage"/>
    <dc:date>2021-11-04T21:11:31.163226</dc:date>
    <dc:format>image/svg+xml</dc:format>
    <dc:creator>
     <cc:Agent>
      <dc:title>Matplotlib v3.4.3, https://matplotlib.org/</dc:title>
     </cc:Agent>
    </dc:creator>
   </cc:Work>
  </rdf:RDF>
 </metadata>
 <defs>
  <style type="text/css">*{stroke-linecap:butt;stroke-linejoin:round;}</style>
 </defs>
 <g id="figure_1">
  <g id="patch_1">
   <path d="M 0 288 
L 576 288 
L 576 0 
L 0 0 
z
" style="fill:#ffffff;"/>
  </g>
  <g id="axes_1">
   <g id="patch_2">
    <path d="M 33.8 243.2 
L 565.2 243.2 
L 565.2 13.38984 
L 33.8 13.38984 
z
" style="fill:#e5e5e5;"/>
   </g>
   <g id="matplotlib.axis_1">
    <g id="xtick_1">
     <g id="line2d_1">
      <path clip-path="url(#pf3102b889b)" d="M 53.074839 243.2 
L 53.074839 13.38984 
" style="fill:none;stroke:#ffffff;stroke-linecap:square;stroke-width:0.8;"/>
     </g>
     <g id="line2d_2">
      <defs>
       <path d="M 0 0 
L 0 3.5 
" id="m88fb9e74f0" style="stroke:#555555;stroke-width:0.8;"/>
      </defs>
      <g>
       <use style="fill:#555555;stroke:#555555;stroke-width:0.8;" x="53.074839" xlink:href="#m88fb9e74f0" y="243.2"/>
      </g>
     </g>
     <g id="text_1">
      <!-- 0 -->
      <g style="fill:#555555;" transform="translate(49.893589 257.798437)scale(0.1 -0.1)">
       <defs>
        <path d="M 2034 4250 
Q 1547 4250 1301 3770 
Q 1056 3291 1056 2328 
Q 1056 1369 1301 889 
Q 1547 409 2034 409 
Q 2525 409 2770 889 
Q 3016 1369 3016 2328 
Q 3016 3291 2770 3770 
Q 2525 4250 2034 4250 
z
M 2034 4750 
Q 2819 4750 3233 4129 
Q 3647 3509 3647 2328 
Q 3647 1150 3233 529 
Q 2819 -91 2034 -91 
Q 1250 -91 836 529 
Q 422 1150 422 2328 
Q 422 3509 836 4129 
Q 1250 4750 2034 4750 
z
" id="DejaVuSans-30" transform="scale(0.015625)"/>
       </defs>
       <use xlink:href="#DejaVuSans-30"/>
      </g>
     </g>
    </g>
    <g id="xtick_2">
     <g id="line2d_3">
      <path clip-path="url(#pf3102b889b)" d="M 150.668962 243.2 
L 150.668962 13.38984 
" style="fill:none;stroke:#ffffff;stroke-linecap:square;stroke-width:0.8;"/>
     </g>
     <g id="line2d_4">
      <g>
       <use style="fill:#555555;stroke:#555555;stroke-width:0.8;" x="150.668962" xlink:href="#m88fb9e74f0" y="243.2"/>
      </g>
     </g>
     <g id="text_2">
      <!-- 20 -->
      <g style="fill:#555555;" transform="translate(144.306462 257.798437)scale(0.1 -0.1)">
       <defs>
        <path d="M 1228 531 
L 3431 531 
L 3431 0 
L 469 0 
L 469 531 
Q 828 903 1448 1529 
Q 2069 2156 2228 2338 
Q 2531 2678 2651 2914 
Q 2772 3150 2772 3378 
Q 2772 3750 2511 3984 
Q 2250 4219 1831 4219 
Q 1534 4219 1204 4116 
Q 875 4013 500 3803 
L 500 4441 
Q 881 4594 1212 4672 
Q 1544 4750 1819 4750 
Q 2544 4750 2975 4387 
Q 3406 4025 3406 3419 
Q 3406 3131 3298 2873 
Q 3191 2616 2906 2266 
Q 2828 2175 2409 1742 
Q 1991 1309 1228 531 
z
" id="DejaVuSans-32" transform="scale(0.015625)"/>
       </defs>
       <use xlink:href="#DejaVuSans-32"/>
       <use x="63.623047" xlink:href="#DejaVuSans-30"/>
      </g>
     </g>
    </g>
    <g id="xtick_3">
     <g id="line2d_5">
      <path clip-path="url(#pf3102b889b)" d="M 248.263085 243.2 
L 248.263085 13.38984 
" style="fill:none;stroke:#ffffff;stroke-linecap:square;stroke-width:0.8;"/>
     </g>
     <g id="line2d_6">
      <g>
       <use style="fill:#555555;stroke:#555555;stroke-width:0.8;" x="248.263085" xlink:href="#m88fb9e74f0" y="243.2"/>
      </g>
     </g>
     <g id="text_3">
      <!-- 40 -->
      <g style="fill:#555555;" transform="translate(241.900585 257.798437)scale(0.1 -0.1)">
       <defs>
        <path d="M 2419 4116 
L 825 1625 
L 2419 1625 
L 2419 4116 
z
M 2253 4666 
L 3047 4666 
L 3047 1625 
L 3713 1625 
L 3713 1100 
L 3047 1100 
L 3047 0 
L 2419 0 
L 2419 1100 
L 313 1100 
L 313 1709 
L 2253 4666 
z
" id="DejaVuSans-34" transform="scale(0.015625)"/>
       </defs>
       <use xlink:href="#DejaVuSans-34"/>
       <use x="63.623047" xlink:href="#DejaVuSans-30"/>
      </g>
     </g>
    </g>
    <g id="xtick_4">
     <g id="line2d_7">
      <path clip-path="url(#pf3102b889b)" d="M 345.857208 243.2 
L 345.857208 13.38984 
" style="fill:none;stroke:#ffffff;stroke-linecap:square;stroke-width:0.8;"/>
     </g>
     <g id="line2d_8">
      <g>
       <use style="fill:#555555;stroke:#555555;stroke-width:0.8;" x="345.857208" xlink:href="#m88fb9e74f0" y="243.2"/>
      </g>
     </g>
     <g id="text_4">
      <!-- 60 -->
      <g style="fill:#555555;" transform="translate(339.494708 257.798437)scale(0.1 -0.1)">
       <defs>
        <path d="M 2113 2584 
Q 1688 2584 1439 2293 
Q 1191 2003 1191 1497 
Q 1191 994 1439 701 
Q 1688 409 2113 409 
Q 2538 409 2786 701 
Q 3034 994 3034 1497 
Q 3034 2003 2786 2293 
Q 2538 2584 2113 2584 
z
M 3366 4563 
L 3366 3988 
Q 3128 4100 2886 4159 
Q 2644 4219 2406 4219 
Q 1781 4219 1451 3797 
Q 1122 3375 1075 2522 
Q 1259 2794 1537 2939 
Q 1816 3084 2150 3084 
Q 2853 3084 3261 2657 
Q 3669 2231 3669 1497 
Q 3669 778 3244 343 
Q 2819 -91 2113 -91 
Q 1303 -91 875 529 
Q 447 1150 447 2328 
Q 447 3434 972 4092 
Q 1497 4750 2381 4750 
Q 2619 4750 2861 4703 
Q 3103 4656 3366 4563 
z
" id="DejaVuSans-36" transform="scale(0.015625)"/>
       </defs>
       <use xlink:href="#DejaVuSans-36"/>
       <use x="63.623047" xlink:href="#DejaVuSans-30"/>
      </g>
     </g>
    </g>
    <g id="xtick_5">
     <g id="line2d_9">
      <path clip-path="url(#pf3102b889b)" d="M 443.451331 243.2 
L 443.451331 13.38984 
" style="fill:none;stroke:#ffffff;stroke-linecap:square;stroke-width:0.8;"/>
     </g>
     <g id="line2d_10">
      <g>
       <use style="fill:#555555;stroke:#555555;stroke-width:0.8;" x="443.451331" xlink:href="#m88fb9e74f0" y="243.2"/>
      </g>
     </g>
     <g id="text_5">
      <!-- 80 -->
      <g style="fill:#555555;" transform="translate(437.088831 257.798437)scale(0.1 -0.1)">
       <defs>
        <path d="M 2034 2216 
Q 1584 2216 1326 1975 
Q 1069 1734 1069 1313 
Q 1069 891 1326 650 
Q 1584 409 2034 409 
Q 2484 409 2743 651 
Q 3003 894 3003 1313 
Q 3003 1734 2745 1975 
Q 2488 2216 2034 2216 
z
M 1403 2484 
Q 997 2584 770 2862 
Q 544 3141 544 3541 
Q 544 4100 942 4425 
Q 1341 4750 2034 4750 
Q 2731 4750 3128 4425 
Q 3525 4100 3525 3541 
Q 3525 3141 3298 2862 
Q 3072 2584 2669 2484 
Q 3125 2378 3379 2068 
Q 3634 1759 3634 1313 
Q 3634 634 3220 271 
Q 2806 -91 2034 -91 
Q 1263 -91 848 271 
Q 434 634 434 1313 
Q 434 1759 690 2068 
Q 947 2378 1403 2484 
z
M 1172 3481 
Q 1172 3119 1398 2916 
Q 1625 2713 2034 2713 
Q 2441 2713 2670 2916 
Q 2900 3119 2900 3481 
Q 2900 3844 2670 4047 
Q 2441 4250 2034 4250 
Q 1625 4250 1398 4047 
Q 1172 3844 1172 3481 
z
" id="DejaVuSans-38" transform="scale(0.015625)"/>
       </defs>
       <use xlink:href="#DejaVuSans-38"/>
       <use x="63.623047" xlink:href="#DejaVuSans-30"/>
      </g>
     </g>
    </g>
    <g id="xtick_6">
     <g id="line2d_11">
      <path clip-path="url(#pf3102b889b)" d="M 541.045455 243.2 
L 541.045455 13.38984 
" style="fill:none;stroke:#ffffff;stroke-linecap:square;stroke-width:0.8;"/>
     </g>
     <g id="line2d_12">
      <g>
       <use style="fill:#555555;stroke:#555555;stroke-width:0.8;" x="541.045455" xlink:href="#m88fb9e74f0" y="243.2"/>
      </g>
     </g>
     <g id="text_6">
      <!-- 100 -->
      <g style="fill:#555555;" transform="translate(531.501705 257.798437)scale(0.1 -0.1)">
       <defs>
        <path d="M 794 531 
L 1825 531 
L 1825 4091 
L 703 3866 
L 703 4441 
L 1819 4666 
L 2450 4666 
L 2450 531 
L 3481 531 
L 3481 0 
L 794 0 
L 794 531 
z
" id="DejaVuSans-31" transform="scale(0.015625)"/>
       </defs>
       <use xlink:href="#DejaVuSans-31"/>
       <use x="63.623047" xlink:href="#DejaVuSans-30"/>
       <use x="127.246094" xlink:href="#DejaVuSans-30"/>
      </g>
     </g>
    </g>
    <g id="text_7">
     <!-- Epoch number -->
     <g style="fill:#555555;" transform="translate(255.803125 272.99625)scale(0.12 -0.12)">
      <defs>
       <path d="M 628 4666 
L 3578 4666 
L 3578 4134 
L 1259 4134 
L 1259 2753 
L 3481 2753 
L 3481 2222 
L 1259 2222 
L 1259 531 
L 3634 531 
L 3634 0 
L 628 0 
L 628 4666 
z
" id="DejaVuSans-45" transform="scale(0.015625)"/>
       <path d="M 1159 525 
L 1159 -1331 
L 581 -1331 
L 581 3500 
L 1159 3500 
L 1159 2969 
Q 1341 3281 1617 3432 
Q 1894 3584 2278 3584 
Q 2916 3584 3314 3078 
Q 3713 2572 3713 1747 
Q 3713 922 3314 415 
Q 2916 -91 2278 -91 
Q 1894 -91 1617 61 
Q 1341 213 1159 525 
z
M 3116 1747 
Q 3116 2381 2855 2742 
Q 2594 3103 2138 3103 
Q 1681 3103 1420 2742 
Q 1159 2381 1159 1747 
Q 1159 1113 1420 752 
Q 1681 391 2138 391 
Q 2594 391 2855 752 
Q 3116 1113 3116 1747 
z
" id="DejaVuSans-70" transform="scale(0.015625)"/>
       <path d="M 1959 3097 
Q 1497 3097 1228 2736 
Q 959 2375 959 1747 
Q 959 1119 1226 758 
Q 1494 397 1959 397 
Q 2419 397 2687 759 
Q 2956 1122 2956 1747 
Q 2956 2369 2687 2733 
Q 2419 3097 1959 3097 
z
M 1959 3584 
Q 2709 3584 3137 3096 
Q 3566 2609 3566 1747 
Q 3566 888 3137 398 
Q 2709 -91 1959 -91 
Q 1206 -91 779 398 
Q 353 888 353 1747 
Q 353 2609 779 3096 
Q 1206 3584 1959 3584 
z
" id="DejaVuSans-6f" transform="scale(0.015625)"/>
       <path d="M 3122 3366 
L 3122 2828 
Q 2878 2963 2633 3030 
Q 2388 3097 2138 3097 
Q 1578 3097 1268 2742 
Q 959 2388 959 1747 
Q 959 1106 1268 751 
Q 1578 397 2138 397 
Q 2388 397 2633 464 
Q 2878 531 3122 666 
L 3122 134 
Q 2881 22 2623 -34 
Q 2366 -91 2075 -91 
Q 1284 -91 818 406 
Q 353 903 353 1747 
Q 353 2603 823 3093 
Q 1294 3584 2113 3584 
Q 2378 3584 2631 3529 
Q 2884 3475 3122 3366 
z
" id="DejaVuSans-63" transform="scale(0.015625)"/>
       <path d="M 3513 2113 
L 3513 0 
L 2938 0 
L 2938 2094 
Q 2938 2591 2744 2837 
Q 2550 3084 2163 3084 
Q 1697 3084 1428 2787 
Q 1159 2491 1159 1978 
L 1159 0 
L 581 0 
L 581 4863 
L 1159 4863 
L 1159 2956 
Q 1366 3272 1645 3428 
Q 1925 3584 2291 3584 
Q 2894 3584 3203 3211 
Q 3513 2838 3513 2113 
z
" id="DejaVuSans-68" transform="scale(0.015625)"/>
       <path id="DejaVuSans-20" transform="scale(0.015625)"/>
       <path d="M 3513 2113 
L 3513 0 
L 2938 0 
L 2938 2094 
Q 2938 2591 2744 2837 
Q 2550 3084 2163 3084 
Q 1697 3084 1428 2787 
Q 1159 2491 1159 1978 
L 1159 0 
L 581 0 
L 581 3500 
L 1159 3500 
L 1159 2956 
Q 1366 3272 1645 3428 
Q 1925 3584 2291 3584 
Q 2894 3584 3203 3211 
Q 3513 2838 3513 2113 
z
" id="DejaVuSans-6e" transform="scale(0.015625)"/>
       <path d="M 544 1381 
L 544 3500 
L 1119 3500 
L 1119 1403 
Q 1119 906 1312 657 
Q 1506 409 1894 409 
Q 2359 409 2629 706 
Q 2900 1003 2900 1516 
L 2900 3500 
L 3475 3500 
L 3475 0 
L 2900 0 
L 2900 538 
Q 2691 219 2414 64 
Q 2138 -91 1772 -91 
Q 1169 -91 856 284 
Q 544 659 544 1381 
z
M 1991 3584 
L 1991 3584 
z
" id="DejaVuSans-75" transform="scale(0.015625)"/>
       <path d="M 3328 2828 
Q 3544 3216 3844 3400 
Q 4144 3584 4550 3584 
Q 5097 3584 5394 3201 
Q 5691 2819 5691 2113 
L 5691 0 
L 5113 0 
L 5113 2094 
Q 5113 2597 4934 2840 
Q 4756 3084 4391 3084 
Q 3944 3084 3684 2787 
Q 3425 2491 3425 1978 
L 3425 0 
L 2847 0 
L 2847 2094 
Q 2847 2600 2669 2842 
Q 2491 3084 2119 3084 
Q 1678 3084 1418 2786 
Q 1159 2488 1159 1978 
L 1159 0 
L 581 0 
L 581 3500 
L 1159 3500 
L 1159 2956 
Q 1356 3278 1631 3431 
Q 1906 3584 2284 3584 
Q 2666 3584 2933 3390 
Q 3200 3197 3328 2828 
z
" id="DejaVuSans-6d" transform="scale(0.015625)"/>
       <path d="M 3116 1747 
Q 3116 2381 2855 2742 
Q 2594 3103 2138 3103 
Q 1681 3103 1420 2742 
Q 1159 2381 1159 1747 
Q 1159 1113 1420 752 
Q 1681 391 2138 391 
Q 2594 391 2855 752 
Q 3116 1113 3116 1747 
z
M 1159 2969 
Q 1341 3281 1617 3432 
Q 1894 3584 2278 3584 
Q 2916 3584 3314 3078 
Q 3713 2572 3713 1747 
Q 3713 922 3314 415 
Q 2916 -91 2278 -91 
Q 1894 -91 1617 61 
Q 1341 213 1159 525 
L 1159 0 
L 581 0 
L 581 4863 
L 1159 4863 
L 1159 2969 
z
" id="DejaVuSans-62" transform="scale(0.015625)"/>
       <path d="M 3597 1894 
L 3597 1613 
L 953 1613 
Q 991 1019 1311 708 
Q 1631 397 2203 397 
Q 2534 397 2845 478 
Q 3156 559 3463 722 
L 3463 178 
Q 3153 47 2828 -22 
Q 2503 -91 2169 -91 
Q 1331 -91 842 396 
Q 353 884 353 1716 
Q 353 2575 817 3079 
Q 1281 3584 2069 3584 
Q 2775 3584 3186 3129 
Q 3597 2675 3597 1894 
z
M 3022 2063 
Q 3016 2534 2758 2815 
Q 2500 3097 2075 3097 
Q 1594 3097 1305 2825 
Q 1016 2553 972 2059 
L 3022 2063 
z
" id="DejaVuSans-65" transform="scale(0.015625)"/>
       <path d="M 2631 2963 
Q 2534 3019 2420 3045 
Q 2306 3072 2169 3072 
Q 1681 3072 1420 2755 
Q 1159 2438 1159 1844 
L 1159 0 
L 581 0 
L 581 3500 
L 1159 3500 
L 1159 2956 
Q 1341 3275 1631 3429 
Q 1922 3584 2338 3584 
Q 2397 3584 2469 3576 
Q 2541 3569 2628 3553 
L 2631 2963 
z
" id="DejaVuSans-72" transform="scale(0.015625)"/>
      </defs>
      <use xlink:href="#DejaVuSans-45"/>
      <use x="63.183594" xlink:href="#DejaVuSans-70"/>
      <use x="126.660156" xlink:href="#DejaVuSans-6f"/>
      <use x="187.841797" xlink:href="#DejaVuSans-63"/>
      <use x="242.822266" xlink:href="#DejaVuSans-68"/>
      <use x="306.201172" xlink:href="#DejaVuSans-20"/>
      <use x="337.988281" xlink:href="#DejaVuSans-6e"/>
      <use x="401.367188" xlink:href="#DejaVuSans-75"/>
      <use x="464.746094" xlink:href="#DejaVuSans-6d"/>
      <use x="562.158203" xlink:href="#DejaVuSans-62"/>
      <use x="625.634766" xlink:href="#DejaVuSans-65"/>
      <use x="687.158203" xlink:href="#DejaVuSans-72"/>
     </g>
    </g>
   </g>
   <g id="matplotlib.axis_2">
    <g id="ytick_1">
     <g id="line2d_13">
      <path clip-path="url(#pf3102b889b)" d="M 33.8 228.980345 
L 565.2 228.980345 
" style="fill:none;stroke:#ffffff;stroke-linecap:square;stroke-width:0.8;"/>
     </g>
     <g id="line2d_14">
      <defs>
       <path d="M 0 0 
L -3.5 0 
" id="m9efa06ddf7" style="stroke:#555555;stroke-width:0.8;"/>
      </defs>
      <g>
       <use style="fill:#555555;stroke:#555555;stroke-width:0.8;" x="33.8" xlink:href="#m9efa06ddf7" y="228.980345"/>
      </g>
     </g>
     <g id="text_8">
      <!-- 0.5 -->
      <g style="fill:#555555;" transform="translate(10.896875 232.779564)scale(0.1 -0.1)">
       <defs>
        <path d="M 684 794 
L 1344 794 
L 1344 0 
L 684 0 
L 684 794 
z
" id="DejaVuSans-2e" transform="scale(0.015625)"/>
        <path d="M 691 4666 
L 3169 4666 
L 3169 4134 
L 1269 4134 
L 1269 2991 
Q 1406 3038 1543 3061 
Q 1681 3084 1819 3084 
Q 2600 3084 3056 2656 
Q 3513 2228 3513 1497 
Q 3513 744 3044 326 
Q 2575 -91 1722 -91 
Q 1428 -91 1123 -41 
Q 819 9 494 109 
L 494 744 
Q 775 591 1075 516 
Q 1375 441 1709 441 
Q 2250 441 2565 725 
Q 2881 1009 2881 1497 
Q 2881 1984 2565 2268 
Q 2250 2553 1709 2553 
Q 1456 2553 1204 2497 
Q 953 2441 691 2322 
L 691 4666 
z
" id="DejaVuSans-35" transform="scale(0.015625)"/>
       </defs>
       <use xlink:href="#DejaVuSans-30"/>
       <use x="63.623047" xlink:href="#DejaVuSans-2e"/>
       <use x="95.410156" xlink:href="#DejaVuSans-35"/>
      </g>
     </g>
    </g>
    <g id="ytick_2">
     <g id="line2d_15">
      <path clip-path="url(#pf3102b889b)" d="M 33.8 198.394613 
L 565.2 198.394613 
" style="fill:none;stroke:#ffffff;stroke-linecap:square;stroke-width:0.8;"/>
     </g>
     <g id="line2d_16">
      <g>
       <use style="fill:#555555;stroke:#555555;stroke-width:0.8;" x="33.8" xlink:href="#m9efa06ddf7" y="198.394613"/>
      </g>
     </g>
     <g id="text_9">
      <!-- 1.0 -->
      <g style="fill:#555555;" transform="translate(10.896875 202.193832)scale(0.1 -0.1)">
       <use xlink:href="#DejaVuSans-31"/>
       <use x="63.623047" xlink:href="#DejaVuSans-2e"/>
       <use x="95.410156" xlink:href="#DejaVuSans-30"/>
      </g>
     </g>
    </g>
    <g id="ytick_3">
     <g id="line2d_17">
      <path clip-path="url(#pf3102b889b)" d="M 33.8 167.808882 
L 565.2 167.808882 
" style="fill:none;stroke:#ffffff;stroke-linecap:square;stroke-width:0.8;"/>
     </g>
     <g id="line2d_18">
      <g>
       <use style="fill:#555555;stroke:#555555;stroke-width:0.8;" x="33.8" xlink:href="#m9efa06ddf7" y="167.808882"/>
      </g>
     </g>
     <g id="text_10">
      <!-- 1.5 -->
      <g style="fill:#555555;" transform="translate(10.896875 171.6081)scale(0.1 -0.1)">
       <use xlink:href="#DejaVuSans-31"/>
       <use x="63.623047" xlink:href="#DejaVuSans-2e"/>
       <use x="95.410156" xlink:href="#DejaVuSans-35"/>
      </g>
     </g>
    </g>
    <g id="ytick_4">
     <g id="line2d_19">
      <path clip-path="url(#pf3102b889b)" d="M 33.8 137.22315 
L 565.2 137.22315 
" style="fill:none;stroke:#ffffff;stroke-linecap:square;stroke-width:0.8;"/>
     </g>
     <g id="line2d_20">
      <g>
       <use style="fill:#555555;stroke:#555555;stroke-width:0.8;" x="33.8" xlink:href="#m9efa06ddf7" y="137.22315"/>
      </g>
     </g>
     <g id="text_11">
      <!-- 2.0 -->
      <g style="fill:#555555;" transform="translate(10.896875 141.022369)scale(0.1 -0.1)">
       <use xlink:href="#DejaVuSans-32"/>
       <use x="63.623047" xlink:href="#DejaVuSans-2e"/>
       <use x="95.410156" xlink:href="#DejaVuSans-30"/>
      </g>
     </g>
    </g>
    <g id="ytick_5">
     <g id="line2d_21">
      <path clip-path="url(#pf3102b889b)" d="M 33.8 106.637419 
L 565.2 106.637419 
" style="fill:none;stroke:#ffffff;stroke-linecap:square;stroke-width:0.8;"/>
     </g>
     <g id="line2d_22">
      <g>
       <use style="fill:#555555;stroke:#555555;stroke-width:0.8;" x="33.8" xlink:href="#m9efa06ddf7" y="106.637419"/>
      </g>
     </g>
     <g id="text_12">
      <!-- 2.5 -->
      <g style="fill:#555555;" transform="translate(10.896875 110.436637)scale(0.1 -0.1)">
       <use xlink:href="#DejaVuSans-32"/>
       <use x="63.623047" xlink:href="#DejaVuSans-2e"/>
       <use x="95.410156" xlink:href="#DejaVuSans-35"/>
      </g>
     </g>
    </g>
    <g id="ytick_6">
     <g id="line2d_23">
      <path clip-path="url(#pf3102b889b)" d="M 33.8 76.051687 
L 565.2 76.051687 
" style="fill:none;stroke:#ffffff;stroke-linecap:square;stroke-width:0.8;"/>
     </g>
     <g id="line2d_24">
      <g>
       <use style="fill:#555555;stroke:#555555;stroke-width:0.8;" x="33.8" xlink:href="#m9efa06ddf7" y="76.051687"/>
      </g>
     </g>
     <g id="text_13">
      <!-- 3.0 -->
      <g style="fill:#555555;" transform="translate(10.896875 79.850906)scale(0.1 -0.1)">
       <defs>
        <path d="M 2597 2516 
Q 3050 2419 3304 2112 
Q 3559 1806 3559 1356 
Q 3559 666 3084 287 
Q 2609 -91 1734 -91 
Q 1441 -91 1130 -33 
Q 819 25 488 141 
L 488 750 
Q 750 597 1062 519 
Q 1375 441 1716 441 
Q 2309 441 2620 675 
Q 2931 909 2931 1356 
Q 2931 1769 2642 2001 
Q 2353 2234 1838 2234 
L 1294 2234 
L 1294 2753 
L 1863 2753 
Q 2328 2753 2575 2939 
Q 2822 3125 2822 3475 
Q 2822 3834 2567 4026 
Q 2313 4219 1838 4219 
Q 1578 4219 1281 4162 
Q 984 4106 628 3988 
L 628 4550 
Q 988 4650 1302 4700 
Q 1616 4750 1894 4750 
Q 2613 4750 3031 4423 
Q 3450 4097 3450 3541 
Q 3450 3153 3228 2886 
Q 3006 2619 2597 2516 
z
" id="DejaVuSans-33" transform="scale(0.015625)"/>
       </defs>
       <use xlink:href="#DejaVuSans-33"/>
       <use x="63.623047" xlink:href="#DejaVuSans-2e"/>
       <use x="95.410156" xlink:href="#DejaVuSans-30"/>
      </g>
     </g>
    </g>
    <g id="ytick_7">
     <g id="line2d_25">
      <path clip-path="url(#pf3102b889b)" d="M 33.8 45.465956 
L 565.2 45.465956 
" style="fill:none;stroke:#ffffff;stroke-linecap:square;stroke-width:0.8;"/>
     </g>
     <g id="line2d_26">
      <g>
       <use style="fill:#555555;stroke:#555555;stroke-width:0.8;" x="33.8" xlink:href="#m9efa06ddf7" y="45.465956"/>
      </g>
     </g>
     <g id="text_14">
      <!-- 3.5 -->
      <g style="fill:#555555;" transform="translate(10.896875 49.265174)scale(0.1 -0.1)">
       <use xlink:href="#DejaVuSans-33"/>
       <use x="63.623047" xlink:href="#DejaVuSans-2e"/>
       <use x="95.410156" xlink:href="#DejaVuSans-35"/>
      </g>
     </g>
    </g>
    <g id="ytick_8">
     <g id="line2d_27">
      <path clip-path="url(#pf3102b889b)" d="M 33.8 14.880224 
L 565.2 14.880224 
" style="fill:none;stroke:#ffffff;stroke-linecap:square;stroke-width:0.8;"/>
     </g>
     <g id="line2d_28">
      <g>
       <use style="fill:#555555;stroke:#555555;stroke-width:0.8;" x="33.8" xlink:href="#m9efa06ddf7" y="14.880224"/>
      </g>
     </g>
     <g id="text_15">
      <!-- 4.0 -->
      <g style="fill:#555555;" transform="translate(10.896875 18.679443)scale(0.1 -0.1)">
       <use xlink:href="#DejaVuSans-34"/>
       <use x="63.623047" xlink:href="#DejaVuSans-2e"/>
       <use x="95.410156" xlink:href="#DejaVuSans-30"/>
      </g>
     </g>
    </g>
   </g>
   <g id="line2d_29">
    <path clip-path="url(#pf3102b889b)" d="M 57.954545 24.048924 
L 62.834252 24.062136 
L 67.713958 24.165087 
L 72.593664 24.320736 
L 77.47337 24.428246 
L 82.353076 24.527102 
L 87.232782 24.505094 
L 92.112489 24.549775 
L 96.992195 24.718859 
L 101.871901 24.570913 
L 106.751607 24.608463 
L 111.631313 24.517783 
L 116.511019 24.545474 
L 121.390725 24.485972 
L 126.270432 24.453891 
L 131.150138 24.545868 
L 136.029844 24.305635 
L 140.90955 24.188245 
L 145.789256 24.244391 
L 150.668962 24.148244 
L 155.548669 24.053502 
L 160.428375 24.11136 
L 165.308081 24.055186 
L 170.187787 24.013511 
L 175.067493 24.038479 
L 179.947199 24.003687 
L 184.826905 24.00369 
L 189.706612 23.98667 
L 194.586318 23.969977 
L 199.466024 23.947267 
L 204.34573 23.944467 
L 209.225436 23.939927 
L 214.105142 23.925449 
L 218.984848 23.901231 
L 223.864555 23.891607 
L 228.744261 23.904526 
L 233.623967 23.89272 
L 238.503673 23.879915 
L 243.383379 23.893763 
L 248.263085 23.888149 
L 253.142792 23.884202 
L 258.022498 23.879724 
L 262.902204 23.875398 
L 267.78191 23.881165 
L 272.661616 23.87198 
L 277.541322 23.862458 
L 282.421028 23.867978 
L 287.300735 23.873034 
L 292.180441 23.866007 
L 297.060147 23.868226 
L 301.939853 23.861522 
L 306.819559 23.857228 
L 311.699265 23.86127 
L 316.578972 23.849755 
L 321.458678 23.852843 
L 326.338384 23.861587 
L 331.21809 23.850374 
L 336.097796 23.863867 
L 340.977502 23.859253 
L 345.857208 23.844854 
L 350.736915 23.865622 
L 355.616621 23.876067 
L 360.496327 23.882481 
L 365.376033 23.858363 
L 370.255739 23.853571 
L 375.135445 23.84415 
L 380.015152 23.843847 
L 384.894858 23.864902 
L 389.774564 23.840494 
L 394.65427 23.847868 
L 399.533976 23.847387 
L 404.413682 23.837351 
L 409.293388 23.835757 
L 414.173095 23.847433 
L 419.052801 23.857614 
L 423.932507 23.859796 
L 428.812213 23.863362 
L 433.691919 23.852709 
L 438.571625 23.863622 
L 443.451331 23.864968 
L 448.331038 23.848787 
L 453.210744 23.862864 
L 458.09045 23.86776 
L 462.970156 23.861104 
L 467.849862 23.863503 
L 472.729568 23.862957 
L 477.609275 23.862128 
L 482.488981 23.864796 
L 487.368687 23.850153 
L 492.248393 23.884486 
L 497.128099 23.899261 
L 502.007805 23.890127 
L 506.887511 23.897091 
L 511.767218 23.878602 
L 516.646924 23.898013 
L 521.52663 23.898002 
L 526.406336 23.919435 
L 531.286042 23.910384 
L 536.165748 23.90863 
L 541.045455 23.904801 
" style="fill:none;stroke:#e24a33;stroke-linecap:square;stroke-width:1.5;"/>
   </g>
   <g id="line2d_30">
    <path clip-path="url(#pf3102b889b)" d="M 57.954545 34.782048 
L 62.834252 46.302172 
L 67.713958 53.887358 
L 72.593664 60.987509 
L 77.47337 62.546099 
L 82.353076 69.215428 
L 87.232782 70.236133 
L 92.112489 72.211484 
L 96.992195 73.887361 
L 101.871901 72.635267 
L 106.751607 74.876882 
L 111.631313 75.063763 
L 116.511019 72.677296 
L 121.390725 73.076321 
L 126.270432 74.091581 
L 131.150138 72.547806 
L 136.029844 73.617943 
L 140.90955 73.560551 
L 145.789256 73.242408 
L 150.668962 73.82619 
L 155.548669 73.553154 
L 160.428375 73.580802 
L 165.308081 72.723234 
L 170.187787 72.735265 
L 175.067493 73.000801 
L 179.947199 73.204929 
L 184.826905 71.276922 
L 189.706612 70.488369 
L 194.586318 69.903822 
L 199.466024 72.586915 
L 204.34573 70.09701 
L 209.225436 67.471021 
L 214.105142 70.386919 
L 218.984848 69.748749 
L 223.864555 70.839707 
L 228.744261 68.730379 
L 233.623967 69.34698 
L 238.503673 68.321647 
L 243.383379 68.647545 
L 248.263085 69.163651 
L 253.142792 70.142641 
L 258.022498 71.022422 
L 262.902204 68.896564 
L 267.78191 70.197103 
L 272.661616 66.810855 
L 277.541322 69.156799 
L 282.421028 68.616152 
L 287.300735 68.428895 
L 292.180441 69.095223 
L 297.060147 68.492311 
L 301.939853 67.709255 
L 306.819559 69.737077 
L 311.699265 69.218253 
L 316.578972 69.874924 
L 321.458678 69.721223 
L 326.338384 70.810563 
L 331.21809 67.836073 
L 336.097796 68.531338 
L 340.977502 69.618894 
L 345.857208 70.368968 
L 350.736915 68.550007 
L 355.616621 67.784849 
L 360.496327 69.656712 
L 365.376033 70.14569 
L 370.255739 68.580744 
L 375.135445 68.012175 
L 380.015152 68.477701 
L 384.894858 69.784327 
L 389.774564 69.651533 
L 394.65427 68.910504 
L 399.533976 70.639301 
L 404.413682 70.565087 
L 409.293388 68.949626 
L 414.173095 67.980386 
L 419.052801 68.356392 
L 423.932507 69.810687 
L 428.812213 69.432944 
L 433.691919 69.951488 
L 438.571625 69.390581 
L 443.451331 69.849003 
L 448.331038 68.300806 
L 453.210744 70.262115 
L 458.09045 67.958667 
L 462.970156 68.335608 
L 467.849862 69.738974 
L 472.729568 67.047099 
L 477.609275 70.540808 
L 482.488981 69.641683 
L 487.368687 67.866823 
L 492.248393 67.924518 
L 497.128099 68.50084 
L 502.007805 69.376889 
L 506.887511 67.37916 
L 511.767218 68.951851 
L 516.646924 69.554445 
L 521.52663 69.627648 
L 526.406336 70.193925 
L 531.286042 68.670889 
L 536.165748 70.01713 
L 541.045455 69.986717 
" style="fill:none;stroke:#348abd;stroke-linecap:square;stroke-width:1.5;"/>
   </g>
   <g id="line2d_31">
    <path clip-path="url(#pf3102b889b)" d="M 57.954545 109.082628 
L 62.834252 134.767511 
L 67.713958 148.905493 
L 72.593664 161.668673 
L 77.47337 163.807819 
L 82.353076 171.270234 
L 87.232782 176.379255 
L 92.112489 176.74337 
L 96.992195 182.564716 
L 101.871901 183.811935 
L 106.751607 186.879082 
L 111.631313 188.729759 
L 116.511019 187.170831 
L 121.390725 189.102974 
L 126.270432 191.460894 
L 131.150138 190.444411 
L 136.029844 193.488523 
L 140.90955 193.422846 
L 145.789256 193.755894 
L 150.668962 193.486503 
L 155.548669 193.404715 
L 160.428375 195.234052 
L 165.308081 194.575558 
L 170.187787 195.302077 
L 175.067493 197.530586 
L 179.947199 198.162738 
L 184.826905 196.754897 
L 189.706612 196.010626 
L 194.586318 196.484876 
L 199.466024 200.068167 
L 204.34573 199.93047 
L 209.225436 197.155352 
L 214.105142 197.196475 
L 218.984848 199.433838 
L 223.864555 198.189793 
L 228.744261 197.753164 
L 233.623967 200.825851 
L 238.503673 198.652246 
L 243.383379 199.32387 
L 248.263085 200.359368 
L 253.142792 200.308273 
L 258.022498 198.757865 
L 262.902204 199.536005 
L 267.78191 200.053419 
L 272.661616 200.396456 
L 277.541322 199.500281 
L 282.421028 201.340837 
L 287.300735 201.260685 
L 292.180441 201.355316 
L 297.060147 202.596525 
L 301.939853 202.171628 
L 306.819559 200.04279 
L 311.699265 201.939442 
L 316.578972 201.611711 
L 321.458678 200.242219 
L 326.338384 201.627091 
L 331.21809 201.936457 
L 336.097796 201.544233 
L 340.977502 202.482489 
L 345.857208 202.325191 
L 350.736915 203.348366 
L 355.616621 201.43851 
L 360.496327 201.521817 
L 365.376033 201.914103 
L 370.255739 199.24333 
L 375.135445 203.135367 
L 380.015152 201.986503 
L 384.894858 203.099084 
L 389.774564 202.853529 
L 394.65427 202.176693 
L 399.533976 201.899414 
L 404.413682 201.761191 
L 409.293388 203.339528 
L 414.173095 202.909961 
L 419.052801 202.400615 
L 423.932507 201.748433 
L 428.812213 203.12954 
L 433.691919 202.464744 
L 438.571625 201.837074 
L 443.451331 202.425001 
L 448.331038 203.687088 
L 453.210744 202.846106 
L 458.09045 204.242774 
L 462.970156 203.089323 
L 467.849862 203.532811 
L 472.729568 202.089713 
L 477.609275 204.035604 
L 482.488981 204.282712 
L 487.368687 203.479573 
L 492.248393 203.028794 
L 497.128099 204.425553 
L 502.007805 203.168002 
L 506.887511 203.608725 
L 511.767218 204.032416 
L 516.646924 203.008632 
L 521.52663 204.008418 
L 526.406336 203.027547 
L 531.286042 202.626119 
L 536.165748 203.344565 
L 541.045455 203.704226 
" style="fill:none;stroke:#988ed5;stroke-linecap:square;stroke-width:1.5;"/>
   </g>
   <g id="line2d_32">
    <path clip-path="url(#pf3102b889b)" d="M 57.954545 178.154242 
L 62.834252 196.830646 
L 67.713958 205.882147 
L 72.593664 210.279362 
L 77.47337 211.504933 
L 82.353076 214.996289 
L 87.232782 217.726184 
L 92.112489 218.298568 
L 96.992195 220.340355 
L 101.871901 221.648332 
L 106.751607 221.903623 
L 111.631313 222.56908 
L 116.511019 222.930269 
L 121.390725 223.590974 
L 126.270432 224.260963 
L 131.150138 224.115257 
L 136.029844 224.538989 
L 140.90955 225.655575 
L 145.789256 225.225495 
L 150.668962 226.255211 
L 155.548669 225.747476 
L 160.428375 225.976989 
L 165.308081 226.319089 
L 170.187787 226.612417 
L 175.067493 226.836515 
L 179.947199 226.964584 
L 184.826905 227.054846 
L 189.706612 227.333484 
L 194.586318 227.463684 
L 199.466024 227.601678 
L 204.34573 227.475528 
L 209.225436 227.604327 
L 214.105142 227.610742 
L 218.984848 228.301693 
L 223.864555 227.950581 
L 228.744261 227.998522 
L 233.623967 228.104815 
L 238.503673 228.804987 
L 243.383379 228.590343 
L 248.263085 228.499191 
L 253.142792 228.521141 
L 258.022498 228.826587 
L 262.902204 228.369906 
L 267.78191 228.959722 
L 272.661616 228.849722 
L 277.541322 229.008216 
L 282.421028 228.912844 
L 287.300735 228.709803 
L 292.180441 229.107601 
L 297.060147 228.883047 
L 301.939853 229.075116 
L 306.819559 229.201471 
L 311.699265 229.612337 
L 316.578972 228.781355 
L 321.458678 228.85125 
L 326.338384 229.593508 
L 331.21809 229.10792 
L 336.097796 229.582843 
L 340.977502 229.199178 
L 345.857208 229.894873 
L 350.736915 229.594264 
L 355.616621 229.729675 
L 360.496327 229.544169 
L 365.376033 229.597715 
L 370.255739 229.646221 
L 375.135445 229.791783 
L 380.015152 229.859587 
L 384.894858 229.397964 
L 389.774564 229.537955 
L 394.65427 229.312097 
L 399.533976 229.530728 
L 404.413682 229.792638 
L 409.293388 229.795069 
L 414.173095 229.599353 
L 419.052801 229.586509 
L 423.932507 229.567492 
L 428.812213 229.694389 
L 433.691919 229.571428 
L 438.571625 229.876185 
L 443.451331 229.903983 
L 448.331038 229.872185 
L 453.210744 229.269085 
L 458.09045 229.744185 
L 462.970156 229.638031 
L 467.849862 229.900505 
L 472.729568 229.632398 
L 477.609275 229.826437 
L 482.488981 230.085804 
L 487.368687 230.273349 
L 492.248393 230.053573 
L 497.128099 229.981504 
L 502.007805 229.923312 
L 506.887511 230.054231 
L 511.767218 229.921831 
L 516.646924 229.948001 
L 521.52663 230.358132 
L 526.406336 230.101928 
L 531.286042 229.995727 
L 536.165748 229.894442 
L 541.045455 230.230218 
" style="fill:none;stroke:#777777;stroke-linecap:square;stroke-width:1.5;"/>
   </g>
   <g id="line2d_33">
    <path clip-path="url(#pf3102b889b)" d="M 57.954545 209.489812 
L 62.834252 219.413077 
L 67.713958 222.979151 
L 72.593664 225.381726 
L 77.47337 227.102403 
L 82.353076 229.092337 
L 87.232782 229.405944 
L 92.112489 230.471255 
L 96.992195 230.579826 
L 101.871901 230.346221 
L 106.751607 230.788881 
L 111.631313 231.89863 
L 116.511019 231.80049 
L 121.390725 231.372752 
L 126.270432 231.963745 
L 131.150138 231.271055 
L 136.029844 232.159124 
L 140.90955 232.264788 
L 145.789256 232.436048 
L 150.668962 231.666039 
L 155.548669 232.629853 
L 160.428375 232.546896 
L 165.308081 232.754084 
L 170.187787 231.90924 
L 175.067493 231.796433 
L 179.947199 232.506213 
L 184.826905 232.518078 
L 189.706612 232.403169 
L 194.586318 232.74495 
L 199.466024 232.65934 
L 204.34573 232.219377 
L 209.225436 232.444906 
L 214.105142 232.195152 
L 218.984848 232.480539 
L 223.864555 232.23404 
L 228.744261 231.675059 
L 233.623967 231.729698 
L 238.503673 232.099982 
L 243.383379 232.060098 
L 248.263085 231.609082 
L 253.142792 231.781522 
L 258.022498 231.649746 
L 262.902204 231.720618 
L 267.78191 231.575392 
L 272.661616 231.718874 
L 277.541322 231.789475 
L 282.421028 231.66596 
L 287.300735 231.687476 
L 292.180441 231.794216 
L 297.060147 231.694569 
L 301.939853 231.568992 
L 306.819559 231.687125 
L 311.699265 231.31942 
L 316.578972 231.550502 
L 321.458678 231.617692 
L 326.338384 231.200205 
L 331.21809 230.457259 
L 336.097796 230.157467 
L 340.977502 231.655202 
L 345.857208 231.450677 
L 350.736915 231.294904 
L 355.616621 230.806219 
L 360.496327 231.042773 
L 365.376033 230.819571 
L 370.255739 231.048311 
L 375.135445 231.032017 
L 380.015152 230.843329 
L 384.894858 230.505527 
L 389.774564 230.683297 
L 394.65427 230.677741 
L 399.533976 230.638284 
L 404.413682 230.244928 
L 409.293388 231.18569 
L 414.173095 230.865214 
L 419.052801 230.470086 
L 423.932507 231.122429 
L 428.812213 230.219791 
L 433.691919 230.548911 
L 438.571625 230.34943 
L 443.451331 229.9229 
L 448.331038 230.503764 
L 453.210744 230.548432 
L 458.09045 230.095376 
L 462.970156 230.125976 
L 467.849862 230.156148 
L 472.729568 229.888863 
L 477.609275 230.224048 
L 482.488981 230.46736 
L 487.368687 230.770489 
L 492.248393 229.443762 
L 497.128099 229.750206 
L 502.007805 229.500976 
L 506.887511 230.352657 
L 511.767218 230.251324 
L 516.646924 229.629111 
L 521.52663 230.175357 
L 526.406336 229.634271 
L 531.286042 229.311197 
L 536.165748 229.362483 
L 541.045455 228.950097 
" style="fill:none;stroke:#fbc15e;stroke-linecap:square;stroke-width:1.5;"/>
   </g>
   <g id="patch_3">
    <path d="M 33.8 243.2 
L 33.8 13.38984 
" style="fill:none;stroke:#ffffff;stroke-linecap:square;stroke-linejoin:miter;"/>
   </g>
   <g id="patch_4">
    <path d="M 565.2 243.2 
L 565.2 13.38984 
" style="fill:none;stroke:#ffffff;stroke-linecap:square;stroke-linejoin:miter;"/>
   </g>
   <g id="patch_5">
    <path d="M 33.8 243.2 
L 565.2 243.2 
" style="fill:none;stroke:#ffffff;stroke-linecap:square;stroke-linejoin:miter;"/>
   </g>
   <g id="patch_6">
    <path d="M 33.8 13.38984 
L 565.2 13.38984 
" style="fill:none;stroke:#ffffff;stroke-linecap:square;stroke-linejoin:miter;"/>
   </g>
   <g id="legend_1">
    <g id="patch_7">
     <path d="M 436.285937 166.490233 
L 558.2 166.490233 
Q 560.2 166.490233 560.2 164.490233 
L 560.2 92.099608 
Q 560.2 90.099608 558.2 90.099608 
L 436.285937 90.099608 
Q 434.285937 90.099608 434.285937 92.099608 
L 434.285937 164.490233 
Q 434.285937 166.490233 436.285937 166.490233 
z
" style="fill:#e5e5e5;opacity:0.8;stroke:#cccccc;stroke-linejoin:miter;stroke-width:0.5;"/>
    </g>
    <g id="line2d_34">
     <path d="M 438.285937 98.198045 
L 458.285937 98.198045 
" style="fill:none;stroke:#e24a33;stroke-linecap:square;stroke-width:1.5;"/>
    </g>
    <g id="line2d_35"/>
    <g id="text_16">
     <!-- dropout 0.1(valid) -->
     <g transform="translate(466.285937 101.698045)scale(0.1 -0.1)">
      <defs>
       <path d="M 2906 2969 
L 2906 4863 
L 3481 4863 
L 3481 0 
L 2906 0 
L 2906 525 
Q 2725 213 2448 61 
Q 2172 -91 1784 -91 
Q 1150 -91 751 415 
Q 353 922 353 1747 
Q 353 2572 751 3078 
Q 1150 3584 1784 3584 
Q 2172 3584 2448 3432 
Q 2725 3281 2906 2969 
z
M 947 1747 
Q 947 1113 1208 752 
Q 1469 391 1925 391 
Q 2381 391 2643 752 
Q 2906 1113 2906 1747 
Q 2906 2381 2643 2742 
Q 2381 3103 1925 3103 
Q 1469 3103 1208 2742 
Q 947 2381 947 1747 
z
" id="DejaVuSans-64" transform="scale(0.015625)"/>
       <path d="M 1172 4494 
L 1172 3500 
L 2356 3500 
L 2356 3053 
L 1172 3053 
L 1172 1153 
Q 1172 725 1289 603 
Q 1406 481 1766 481 
L 2356 481 
L 2356 0 
L 1766 0 
Q 1100 0 847 248 
Q 594 497 594 1153 
L 594 3053 
L 172 3053 
L 172 3500 
L 594 3500 
L 594 4494 
L 1172 4494 
z
" id="DejaVuSans-74" transform="scale(0.015625)"/>
       <path d="M 1984 4856 
Q 1566 4138 1362 3434 
Q 1159 2731 1159 2009 
Q 1159 1288 1364 580 
Q 1569 -128 1984 -844 
L 1484 -844 
Q 1016 -109 783 600 
Q 550 1309 550 2009 
Q 550 2706 781 3412 
Q 1013 4119 1484 4856 
L 1984 4856 
z
" id="DejaVuSans-28" transform="scale(0.015625)"/>
       <path d="M 191 3500 
L 800 3500 
L 1894 563 
L 2988 3500 
L 3597 3500 
L 2284 0 
L 1503 0 
L 191 3500 
z
" id="DejaVuSans-76" transform="scale(0.015625)"/>
       <path d="M 2194 1759 
Q 1497 1759 1228 1600 
Q 959 1441 959 1056 
Q 959 750 1161 570 
Q 1363 391 1709 391 
Q 2188 391 2477 730 
Q 2766 1069 2766 1631 
L 2766 1759 
L 2194 1759 
z
M 3341 1997 
L 3341 0 
L 2766 0 
L 2766 531 
Q 2569 213 2275 61 
Q 1981 -91 1556 -91 
Q 1019 -91 701 211 
Q 384 513 384 1019 
Q 384 1609 779 1909 
Q 1175 2209 1959 2209 
L 2766 2209 
L 2766 2266 
Q 2766 2663 2505 2880 
Q 2244 3097 1772 3097 
Q 1472 3097 1187 3025 
Q 903 2953 641 2809 
L 641 3341 
Q 956 3463 1253 3523 
Q 1550 3584 1831 3584 
Q 2591 3584 2966 3190 
Q 3341 2797 3341 1997 
z
" id="DejaVuSans-61" transform="scale(0.015625)"/>
       <path d="M 603 4863 
L 1178 4863 
L 1178 0 
L 603 0 
L 603 4863 
z
" id="DejaVuSans-6c" transform="scale(0.015625)"/>
       <path d="M 603 3500 
L 1178 3500 
L 1178 0 
L 603 0 
L 603 3500 
z
M 603 4863 
L 1178 4863 
L 1178 4134 
L 603 4134 
L 603 4863 
z
" id="DejaVuSans-69" transform="scale(0.015625)"/>
       <path d="M 513 4856 
L 1013 4856 
Q 1481 4119 1714 3412 
Q 1947 2706 1947 2009 
Q 1947 1309 1714 600 
Q 1481 -109 1013 -844 
L 513 -844 
Q 928 -128 1133 580 
Q 1338 1288 1338 2009 
Q 1338 2731 1133 3434 
Q 928 4138 513 4856 
z
" id="DejaVuSans-29" transform="scale(0.015625)"/>
      </defs>
      <use xlink:href="#DejaVuSans-64"/>
      <use x="63.476562" xlink:href="#DejaVuSans-72"/>
      <use x="102.339844" xlink:href="#DejaVuSans-6f"/>
      <use x="163.521484" xlink:href="#DejaVuSans-70"/>
      <use x="226.998047" xlink:href="#DejaVuSans-6f"/>
      <use x="288.179688" xlink:href="#DejaVuSans-75"/>
      <use x="351.558594" xlink:href="#DejaVuSans-74"/>
      <use x="390.767578" xlink:href="#DejaVuSans-20"/>
      <use x="422.554688" xlink:href="#DejaVuSans-30"/>
      <use x="486.177734" xlink:href="#DejaVuSans-2e"/>
      <use x="517.964844" xlink:href="#DejaVuSans-31"/>
      <use x="581.587891" xlink:href="#DejaVuSans-28"/>
      <use x="620.601562" xlink:href="#DejaVuSans-76"/>
      <use x="679.78125" xlink:href="#DejaVuSans-61"/>
      <use x="741.060547" xlink:href="#DejaVuSans-6c"/>
      <use x="768.84375" xlink:href="#DejaVuSans-69"/>
      <use x="796.626953" xlink:href="#DejaVuSans-64"/>
      <use x="860.103516" xlink:href="#DejaVuSans-29"/>
     </g>
    </g>
    <g id="line2d_36">
     <path d="M 438.285937 112.87617 
L 458.285937 112.87617 
" style="fill:none;stroke:#348abd;stroke-linecap:square;stroke-width:1.5;"/>
    </g>
    <g id="line2d_37"/>
    <g id="text_17">
     <!-- dropout 0.3(valid) -->
     <g transform="translate(466.285937 116.37617)scale(0.1 -0.1)">
      <use xlink:href="#DejaVuSans-64"/>
      <use x="63.476562" xlink:href="#DejaVuSans-72"/>
      <use x="102.339844" xlink:href="#DejaVuSans-6f"/>
      <use x="163.521484" xlink:href="#DejaVuSans-70"/>
      <use x="226.998047" xlink:href="#DejaVuSans-6f"/>
      <use x="288.179688" xlink:href="#DejaVuSans-75"/>
      <use x="351.558594" xlink:href="#DejaVuSans-74"/>
      <use x="390.767578" xlink:href="#DejaVuSans-20"/>
      <use x="422.554688" xlink:href="#DejaVuSans-30"/>
      <use x="486.177734" xlink:href="#DejaVuSans-2e"/>
      <use x="517.964844" xlink:href="#DejaVuSans-33"/>
      <use x="581.587891" xlink:href="#DejaVuSans-28"/>
      <use x="620.601562" xlink:href="#DejaVuSans-76"/>
      <use x="679.78125" xlink:href="#DejaVuSans-61"/>
      <use x="741.060547" xlink:href="#DejaVuSans-6c"/>
      <use x="768.84375" xlink:href="#DejaVuSans-69"/>
      <use x="796.626953" xlink:href="#DejaVuSans-64"/>
      <use x="860.103516" xlink:href="#DejaVuSans-29"/>
     </g>
    </g>
    <g id="line2d_38">
     <path d="M 438.285937 127.554295 
L 458.285937 127.554295 
" style="fill:none;stroke:#988ed5;stroke-linecap:square;stroke-width:1.5;"/>
    </g>
    <g id="line2d_39"/>
    <g id="text_18">
     <!-- dropout 0.5(valid) -->
     <g transform="translate(466.285937 131.054295)scale(0.1 -0.1)">
      <use xlink:href="#DejaVuSans-64"/>
      <use x="63.476562" xlink:href="#DejaVuSans-72"/>
      <use x="102.339844" xlink:href="#DejaVuSans-6f"/>
      <use x="163.521484" xlink:href="#DejaVuSans-70"/>
      <use x="226.998047" xlink:href="#DejaVuSans-6f"/>
      <use x="288.179688" xlink:href="#DejaVuSans-75"/>
      <use x="351.558594" xlink:href="#DejaVuSans-74"/>
      <use x="390.767578" xlink:href="#DejaVuSans-20"/>
      <use x="422.554688" xlink:href="#DejaVuSans-30"/>
      <use x="486.177734" xlink:href="#DejaVuSans-2e"/>
      <use x="517.964844" xlink:href="#DejaVuSans-35"/>
      <use x="581.587891" xlink:href="#DejaVuSans-28"/>
      <use x="620.601562" xlink:href="#DejaVuSans-76"/>
      <use x="679.78125" xlink:href="#DejaVuSans-61"/>
      <use x="741.060547" xlink:href="#DejaVuSans-6c"/>
      <use x="768.84375" xlink:href="#DejaVuSans-69"/>
      <use x="796.626953" xlink:href="#DejaVuSans-64"/>
      <use x="860.103516" xlink:href="#DejaVuSans-29"/>
     </g>
    </g>
    <g id="line2d_40">
     <path d="M 438.285937 142.23242 
L 458.285937 142.23242 
" style="fill:none;stroke:#777777;stroke-linecap:square;stroke-width:1.5;"/>
    </g>
    <g id="line2d_41"/>
    <g id="text_19">
     <!-- dropout 0.7(valid) -->
     <g transform="translate(466.285937 145.73242)scale(0.1 -0.1)">
      <defs>
       <path d="M 525 4666 
L 3525 4666 
L 3525 4397 
L 1831 0 
L 1172 0 
L 2766 4134 
L 525 4134 
L 525 4666 
z
" id="DejaVuSans-37" transform="scale(0.015625)"/>
      </defs>
      <use xlink:href="#DejaVuSans-64"/>
      <use x="63.476562" xlink:href="#DejaVuSans-72"/>
      <use x="102.339844" xlink:href="#DejaVuSans-6f"/>
      <use x="163.521484" xlink:href="#DejaVuSans-70"/>
      <use x="226.998047" xlink:href="#DejaVuSans-6f"/>
      <use x="288.179688" xlink:href="#DejaVuSans-75"/>
      <use x="351.558594" xlink:href="#DejaVuSans-74"/>
      <use x="390.767578" xlink:href="#DejaVuSans-20"/>
      <use x="422.554688" xlink:href="#DejaVuSans-30"/>
      <use x="486.177734" xlink:href="#DejaVuSans-2e"/>
      <use x="517.964844" xlink:href="#DejaVuSans-37"/>
      <use x="581.587891" xlink:href="#DejaVuSans-28"/>
      <use x="620.601562" xlink:href="#DejaVuSans-76"/>
      <use x="679.78125" xlink:href="#DejaVuSans-61"/>
      <use x="741.060547" xlink:href="#DejaVuSans-6c"/>
      <use x="768.84375" xlink:href="#DejaVuSans-69"/>
      <use x="796.626953" xlink:href="#DejaVuSans-64"/>
      <use x="860.103516" xlink:href="#DejaVuSans-29"/>
     </g>
    </g>
    <g id="line2d_42">
     <path d="M 438.285937 156.910545 
L 458.285937 156.910545 
" style="fill:none;stroke:#fbc15e;stroke-linecap:square;stroke-width:1.5;"/>
    </g>
    <g id="line2d_43"/>
    <g id="text_20">
     <!-- dropout 0.9(valid) -->
     <g transform="translate(466.285937 160.410545)scale(0.1 -0.1)">
      <defs>
       <path d="M 703 97 
L 703 672 
Q 941 559 1184 500 
Q 1428 441 1663 441 
Q 2288 441 2617 861 
Q 2947 1281 2994 2138 
Q 2813 1869 2534 1725 
Q 2256 1581 1919 1581 
Q 1219 1581 811 2004 
Q 403 2428 403 3163 
Q 403 3881 828 4315 
Q 1253 4750 1959 4750 
Q 2769 4750 3195 4129 
Q 3622 3509 3622 2328 
Q 3622 1225 3098 567 
Q 2575 -91 1691 -91 
Q 1453 -91 1209 -44 
Q 966 3 703 97 
z
M 1959 2075 
Q 2384 2075 2632 2365 
Q 2881 2656 2881 3163 
Q 2881 3666 2632 3958 
Q 2384 4250 1959 4250 
Q 1534 4250 1286 3958 
Q 1038 3666 1038 3163 
Q 1038 2656 1286 2365 
Q 1534 2075 1959 2075 
z
" id="DejaVuSans-39" transform="scale(0.015625)"/>
      </defs>
      <use xlink:href="#DejaVuSans-64"/>
      <use x="63.476562" xlink:href="#DejaVuSans-72"/>
      <use x="102.339844" xlink:href="#DejaVuSans-6f"/>
      <use x="163.521484" xlink:href="#DejaVuSans-70"/>
      <use x="226.998047" xlink:href="#DejaVuSans-6f"/>
      <use x="288.179688" xlink:href="#DejaVuSans-75"/>
      <use x="351.558594" xlink:href="#DejaVuSans-74"/>
      <use x="390.767578" xlink:href="#DejaVuSans-20"/>
      <use x="422.554688" xlink:href="#DejaVuSans-30"/>
      <use x="486.177734" xlink:href="#DejaVuSans-2e"/>
      <use x="517.964844" xlink:href="#DejaVuSans-39"/>
      <use x="581.587891" xlink:href="#DejaVuSans-28"/>
      <use x="620.601562" xlink:href="#DejaVuSans-76"/>
      <use x="679.78125" xlink:href="#DejaVuSans-61"/>
      <use x="741.060547" xlink:href="#DejaVuSans-6c"/>
      <use x="768.84375" xlink:href="#DejaVuSans-69"/>
      <use x="796.626953" xlink:href="#DejaVuSans-64"/>
      <use x="860.103516" xlink:href="#DejaVuSans-29"/>
     </g>
    </g>
   </g>
  </g>
 </g>
 <defs>
  <clipPath id="pf3102b889b">
   <rect height="229.81016" width="531.4" x="33.8" y="13.38984"/>
  </clipPath>
 </defs>
</svg>
