<?xml version="1.0" encoding="utf-8" standalone="no"?>
<!DOCTYPE svg PUBLIC "-//W3C//DTD SVG 1.1//EN"
  "http://www.w3.org/Graphics/SVG/1.1/DTD/svg11.dtd">
<svg height="288pt" version="1.1" viewBox="0 0 576 288" width="576pt" xmlns="http://www.w3.org/2000/svg" xmlns:xlink="http://www.w3.org/1999/xlink">
 <metadata>
  <rdf:RDF xmlns:cc="http://creativecommons.org/ns#" xmlns:dc="http://purl.org/dc/elements/1.1/" xmlns:rdf="http://www.w3.org/1999/02/22-rdf-syntax-ns#">
   <cc:Work>
    <dc:type rdf:resource="http://purl.org/dc/dcmitype/StillImage"/>
    <dc:date>2021-11-04T21:11:31.209227</dc:date>
    <dc:format>image/svg+xml</dc:format>
    <dc:creator>
     <cc:Agent>
      <dc:title>Matplotlib v3.4.3, https://matplotlib.org/</dc:title>
     </cc:Agent>
    </dc:creator>
   </cc:Work>
  </rdf:RDF>
 </metadata>
 <defs>
  <style type="text/css">*{stroke-linecap:butt;stroke-linejoin:round;}</style>
 </defs>
 <g id="figure_1">
  <g id="patch_1">
   <path d="M 0 288 
L 576 288 
L 576 0 
L 0 0 
z
" style="fill:#ffffff;"/>
  </g>
  <g id="axes_1">
   <g id="patch_2">
    <path d="M 33.675 243.2 
L 565.2 243.2 
L 565.2 10.8 
L 33.675 10.8 
z
" style="fill:#e5e5e5;"/>
   </g>
   <g id="matplotlib.axis_1">
    <g id="xtick_1">
     <g id="line2d_1">
      <path clip-path="url(#pd9ee463dfb)" d="M 52.954373 243.2 
L 52.954373 10.8 
" style="fill:none;stroke:#ffffff;stroke-linecap:square;stroke-width:0.8;"/>
     </g>
     <g id="line2d_2">
      <defs>
       <path d="M 0 0 
L 0 3.5 
" id="m21def4ae79" style="stroke:#555555;stroke-width:0.8;"/>
      </defs>
      <g>
       <use style="fill:#555555;stroke:#555555;stroke-width:0.8;" x="52.954373" xlink:href="#m21def4ae79" y="243.2"/>
      </g>
     </g>
     <g id="text_1">
      <!-- 0 -->
      <g style="fill:#555555;" transform="translate(49.773123 257.798437)scale(0.1 -0.1)">
       <defs>
        <path d="M 2034 4250 
Q 1547 4250 1301 3770 
Q 1056 3291 1056 2328 
Q 1056 1369 1301 889 
Q 1547 409 2034 409 
Q 2525 409 2770 889 
Q 3016 1369 3016 2328 
Q 3016 3291 2770 3770 
Q 2525 4250 2034 4250 
z
M 2034 4750 
Q 2819 4750 3233 4129 
Q 3647 3509 3647 2328 
Q 3647 1150 3233 529 
Q 2819 -91 2034 -91 
Q 1250 -91 836 529 
Q 422 1150 422 2328 
Q 422 3509 836 4129 
Q 1250 4750 2034 4750 
z
" id="DejaVuSans-30" transform="scale(0.015625)"/>
       </defs>
       <use xlink:href="#DejaVuSans-30"/>
      </g>
     </g>
    </g>
    <g id="xtick_2">
     <g id="line2d_3">
      <path clip-path="url(#pd9ee463dfb)" d="M 150.571453 243.2 
L 150.571453 10.8 
" style="fill:none;stroke:#ffffff;stroke-linecap:square;stroke-width:0.8;"/>
     </g>
     <g id="line2d_4">
      <g>
       <use style="fill:#555555;stroke:#555555;stroke-width:0.8;" x="150.571453" xlink:href="#m21def4ae79" y="243.2"/>
      </g>
     </g>
     <g id="text_2">
      <!-- 20 -->
      <g style="fill:#555555;" transform="translate(144.208953 257.798437)scale(0.1 -0.1)">
       <defs>
        <path d="M 1228 531 
L 3431 531 
L 3431 0 
L 469 0 
L 469 531 
Q 828 903 1448 1529 
Q 2069 2156 2228 2338 
Q 2531 2678 2651 2914 
Q 2772 3150 2772 3378 
Q 2772 3750 2511 3984 
Q 2250 4219 1831 4219 
Q 1534 4219 1204 4116 
Q 875 4013 500 3803 
L 500 4441 
Q 881 4594 1212 4672 
Q 1544 4750 1819 4750 
Q 2544 4750 2975 4387 
Q 3406 4025 3406 3419 
Q 3406 3131 3298 2873 
Q 3191 2616 2906 2266 
Q 2828 2175 2409 1742 
Q 1991 1309 1228 531 
z
" id="DejaVuSans-32" transform="scale(0.015625)"/>
       </defs>
       <use xlink:href="#DejaVuSans-32"/>
       <use x="63.623047" xlink:href="#DejaVuSans-30"/>
      </g>
     </g>
    </g>
    <g id="xtick_3">
     <g id="line2d_5">
      <path clip-path="url(#pd9ee463dfb)" d="M 248.188533 243.2 
L 248.188533 10.8 
" style="fill:none;stroke:#ffffff;stroke-linecap:square;stroke-width:0.8;"/>
     </g>
     <g id="line2d_6">
      <g>
       <use style="fill:#555555;stroke:#555555;stroke-width:0.8;" x="248.188533" xlink:href="#m21def4ae79" y="243.2"/>
      </g>
     </g>
     <g id="text_3">
      <!-- 40 -->
      <g style="fill:#555555;" transform="translate(241.826033 257.798437)scale(0.1 -0.1)">
       <defs>
        <path d="M 2419 4116 
L 825 1625 
L 2419 1625 
L 2419 4116 
z
M 2253 4666 
L 3047 4666 
L 3047 1625 
L 3713 1625 
L 3713 1100 
L 3047 1100 
L 3047 0 
L 2419 0 
L 2419 1100 
L 313 1100 
L 313 1709 
L 2253 4666 
z
" id="DejaVuSans-34" transform="scale(0.015625)"/>
       </defs>
       <use xlink:href="#DejaVuSans-34"/>
       <use x="63.623047" xlink:href="#DejaVuSans-30"/>
      </g>
     </g>
    </g>
    <g id="xtick_4">
     <g id="line2d_7">
      <path clip-path="url(#pd9ee463dfb)" d="M 345.805613 243.2 
L 345.805613 10.8 
" style="fill:none;stroke:#ffffff;stroke-linecap:square;stroke-width:0.8;"/>
     </g>
     <g id="line2d_8">
      <g>
       <use style="fill:#555555;stroke:#555555;stroke-width:0.8;" x="345.805613" xlink:href="#m21def4ae79" y="243.2"/>
      </g>
     </g>
     <g id="text_4">
      <!-- 60 -->
      <g style="fill:#555555;" transform="translate(339.443113 257.798437)scale(0.1 -0.1)">
       <defs>
        <path d="M 2113 2584 
Q 1688 2584 1439 2293 
Q 1191 2003 1191 1497 
Q 1191 994 1439 701 
Q 1688 409 2113 409 
Q 2538 409 2786 701 
Q 3034 994 3034 1497 
Q 3034 2003 2786 2293 
Q 2538 2584 2113 2584 
z
M 3366 4563 
L 3366 3988 
Q 3128 4100 2886 4159 
Q 2644 4219 2406 4219 
Q 1781 4219 1451 3797 
Q 1122 3375 1075 2522 
Q 1259 2794 1537 2939 
Q 1816 3084 2150 3084 
Q 2853 3084 3261 2657 
Q 3669 2231 3669 1497 
Q 3669 778 3244 343 
Q 2819 -91 2113 -91 
Q 1303 -91 875 529 
Q 447 1150 447 2328 
Q 447 3434 972 4092 
Q 1497 4750 2381 4750 
Q 2619 4750 2861 4703 
Q 3103 4656 3366 4563 
z
" id="DejaVuSans-36" transform="scale(0.015625)"/>
       </defs>
       <use xlink:href="#DejaVuSans-36"/>
       <use x="63.623047" xlink:href="#DejaVuSans-30"/>
      </g>
     </g>
    </g>
    <g id="xtick_5">
     <g id="line2d_9">
      <path clip-path="url(#pd9ee463dfb)" d="M 443.422693 243.2 
L 443.422693 10.8 
" style="fill:none;stroke:#ffffff;stroke-linecap:square;stroke-width:0.8;"/>
     </g>
     <g id="line2d_10">
      <g>
       <use style="fill:#555555;stroke:#555555;stroke-width:0.8;" x="443.422693" xlink:href="#m21def4ae79" y="243.2"/>
      </g>
     </g>
     <g id="text_5">
      <!-- 80 -->
      <g style="fill:#555555;" transform="translate(437.060193 257.798437)scale(0.1 -0.1)">
       <defs>
        <path d="M 2034 2216 
Q 1584 2216 1326 1975 
Q 1069 1734 1069 1313 
Q 1069 891 1326 650 
Q 1584 409 2034 409 
Q 2484 409 2743 651 
Q 3003 894 3003 1313 
Q 3003 1734 2745 1975 
Q 2488 2216 2034 2216 
z
M 1403 2484 
Q 997 2584 770 2862 
Q 544 3141 544 3541 
Q 544 4100 942 4425 
Q 1341 4750 2034 4750 
Q 2731 4750 3128 4425 
Q 3525 4100 3525 3541 
Q 3525 3141 3298 2862 
Q 3072 2584 2669 2484 
Q 3125 2378 3379 2068 
Q 3634 1759 3634 1313 
Q 3634 634 3220 271 
Q 2806 -91 2034 -91 
Q 1263 -91 848 271 
Q 434 634 434 1313 
Q 434 1759 690 2068 
Q 947 2378 1403 2484 
z
M 1172 3481 
Q 1172 3119 1398 2916 
Q 1625 2713 2034 2713 
Q 2441 2713 2670 2916 
Q 2900 3119 2900 3481 
Q 2900 3844 2670 4047 
Q 2441 4250 2034 4250 
Q 1625 4250 1398 4047 
Q 1172 3844 1172 3481 
z
" id="DejaVuSans-38" transform="scale(0.015625)"/>
       </defs>
       <use xlink:href="#DejaVuSans-38"/>
       <use x="63.623047" xlink:href="#DejaVuSans-30"/>
      </g>
     </g>
    </g>
    <g id="xtick_6">
     <g id="line2d_11">
      <path clip-path="url(#pd9ee463dfb)" d="M 541.039773 243.2 
L 541.039773 10.8 
" style="fill:none;stroke:#ffffff;stroke-linecap:square;stroke-width:0.8;"/>
     </g>
     <g id="line2d_12">
      <g>
       <use style="fill:#555555;stroke:#555555;stroke-width:0.8;" x="541.039773" xlink:href="#m21def4ae79" y="243.2"/>
      </g>
     </g>
     <g id="text_6">
      <!-- 100 -->
      <g style="fill:#555555;" transform="translate(531.496023 257.798437)scale(0.1 -0.1)">
       <defs>
        <path d="M 794 531 
L 1825 531 
L 1825 4091 
L 703 3866 
L 703 4441 
L 1819 4666 
L 2450 4666 
L 2450 531 
L 3481 531 
L 3481 0 
L 794 0 
L 794 531 
z
" id="DejaVuSans-31" transform="scale(0.015625)"/>
       </defs>
       <use xlink:href="#DejaVuSans-31"/>
       <use x="63.623047" xlink:href="#DejaVuSans-30"/>
       <use x="127.246094" xlink:href="#DejaVuSans-30"/>
      </g>
     </g>
    </g>
    <g id="text_7">
     <!-- Epoch number -->
     <g style="fill:#555555;" transform="translate(255.740625 272.99625)scale(0.12 -0.12)">
      <defs>
       <path d="M 628 4666 
L 3578 4666 
L 3578 4134 
L 1259 4134 
L 1259 2753 
L 3481 2753 
L 3481 2222 
L 1259 2222 
L 1259 531 
L 3634 531 
L 3634 0 
L 628 0 
L 628 4666 
z
" id="DejaVuSans-45" transform="scale(0.015625)"/>
       <path d="M 1159 525 
L 1159 -1331 
L 581 -1331 
L 581 3500 
L 1159 3500 
L 1159 2969 
Q 1341 3281 1617 3432 
Q 1894 3584 2278 3584 
Q 2916 3584 3314 3078 
Q 3713 2572 3713 1747 
Q 3713 922 3314 415 
Q 2916 -91 2278 -91 
Q 1894 -91 1617 61 
Q 1341 213 1159 525 
z
M 3116 1747 
Q 3116 2381 2855 2742 
Q 2594 3103 2138 3103 
Q 1681 3103 1420 2742 
Q 1159 2381 1159 1747 
Q 1159 1113 1420 752 
Q 1681 391 2138 391 
Q 2594 391 2855 752 
Q 3116 1113 3116 1747 
z
" id="DejaVuSans-70" transform="scale(0.015625)"/>
       <path d="M 1959 3097 
Q 1497 3097 1228 2736 
Q 959 2375 959 1747 
Q 959 1119 1226 758 
Q 1494 397 1959 397 
Q 2419 397 2687 759 
Q 2956 1122 2956 1747 
Q 2956 2369 2687 2733 
Q 2419 3097 1959 3097 
z
M 1959 3584 
Q 2709 3584 3137 3096 
Q 3566 2609 3566 1747 
Q 3566 888 3137 398 
Q 2709 -91 1959 -91 
Q 1206 -91 779 398 
Q 353 888 353 1747 
Q 353 2609 779 3096 
Q 1206 3584 1959 3584 
z
" id="DejaVuSans-6f" transform="scale(0.015625)"/>
       <path d="M 3122 3366 
L 3122 2828 
Q 2878 2963 2633 3030 
Q 2388 3097 2138 3097 
Q 1578 3097 1268 2742 
Q 959 2388 959 1747 
Q 959 1106 1268 751 
Q 1578 397 2138 397 
Q 2388 397 2633 464 
Q 2878 531 3122 666 
L 3122 134 
Q 2881 22 2623 -34 
Q 2366 -91 2075 -91 
Q 1284 -91 818 406 
Q 353 903 353 1747 
Q 353 2603 823 3093 
Q 1294 3584 2113 3584 
Q 2378 3584 2631 3529 
Q 2884 3475 3122 3366 
z
" id="DejaVuSans-63" transform="scale(0.015625)"/>
       <path d="M 3513 2113 
L 3513 0 
L 2938 0 
L 2938 2094 
Q 2938 2591 2744 2837 
Q 2550 3084 2163 3084 
Q 1697 3084 1428 2787 
Q 1159 2491 1159 1978 
L 1159 0 
L 581 0 
L 581 4863 
L 1159 4863 
L 1159 2956 
Q 1366 3272 1645 3428 
Q 1925 3584 2291 3584 
Q 2894 3584 3203 3211 
Q 3513 2838 3513 2113 
z
" id="DejaVuSans-68" transform="scale(0.015625)"/>
       <path id="DejaVuSans-20" transform="scale(0.015625)"/>
       <path d="M 3513 2113 
L 3513 0 
L 2938 0 
L 2938 2094 
Q 2938 2591 2744 2837 
Q 2550 3084 2163 3084 
Q 1697 3084 1428 2787 
Q 1159 2491 1159 1978 
L 1159 0 
L 581 0 
L 581 3500 
L 1159 3500 
L 1159 2956 
Q 1366 3272 1645 3428 
Q 1925 3584 2291 3584 
Q 2894 3584 3203 3211 
Q 3513 2838 3513 2113 
z
" id="DejaVuSans-6e" transform="scale(0.015625)"/>
       <path d="M 544 1381 
L 544 3500 
L 1119 3500 
L 1119 1403 
Q 1119 906 1312 657 
Q 1506 409 1894 409 
Q 2359 409 2629 706 
Q 2900 1003 2900 1516 
L 2900 3500 
L 3475 3500 
L 3475 0 
L 2900 0 
L 2900 538 
Q 2691 219 2414 64 
Q 2138 -91 1772 -91 
Q 1169 -91 856 284 
Q 544 659 544 1381 
z
M 1991 3584 
L 1991 3584 
z
" id="DejaVuSans-75" transform="scale(0.015625)"/>
       <path d="M 3328 2828 
Q 3544 3216 3844 3400 
Q 4144 3584 4550 3584 
Q 5097 3584 5394 3201 
Q 5691 2819 5691 2113 
L 5691 0 
L 5113 0 
L 5113 2094 
Q 5113 2597 4934 2840 
Q 4756 3084 4391 3084 
Q 3944 3084 3684 2787 
Q 3425 2491 3425 1978 
L 3425 0 
L 2847 0 
L 2847 2094 
Q 2847 2600 2669 2842 
Q 2491 3084 2119 3084 
Q 1678 3084 1418 2786 
Q 1159 2488 1159 1978 
L 1159 0 
L 581 0 
L 581 3500 
L 1159 3500 
L 1159 2956 
Q 1356 3278 1631 3431 
Q 1906 3584 2284 3584 
Q 2666 3584 2933 3390 
Q 3200 3197 3328 2828 
z
" id="DejaVuSans-6d" transform="scale(0.015625)"/>
       <path d="M 3116 1747 
Q 3116 2381 2855 2742 
Q 2594 3103 2138 3103 
Q 1681 3103 1420 2742 
Q 1159 2381 1159 1747 
Q 1159 1113 1420 752 
Q 1681 391 2138 391 
Q 2594 391 2855 752 
Q 3116 1113 3116 1747 
z
M 1159 2969 
Q 1341 3281 1617 3432 
Q 1894 3584 2278 3584 
Q 2916 3584 3314 3078 
Q 3713 2572 3713 1747 
Q 3713 922 3314 415 
Q 2916 -91 2278 -91 
Q 1894 -91 1617 61 
Q 1341 213 1159 525 
L 1159 0 
L 581 0 
L 581 4863 
L 1159 4863 
L 1159 2969 
z
" id="DejaVuSans-62" transform="scale(0.015625)"/>
       <path d="M 3597 1894 
L 3597 1613 
L 953 1613 
Q 991 1019 1311 708 
Q 1631 397 2203 397 
Q 2534 397 2845 478 
Q 3156 559 3463 722 
L 3463 178 
Q 3153 47 2828 -22 
Q 2503 -91 2169 -91 
Q 1331 -91 842 396 
Q 353 884 353 1716 
Q 353 2575 817 3079 
Q 1281 3584 2069 3584 
Q 2775 3584 3186 3129 
Q 3597 2675 3597 1894 
z
M 3022 2063 
Q 3016 2534 2758 2815 
Q 2500 3097 2075 3097 
Q 1594 3097 1305 2825 
Q 1016 2553 972 2059 
L 3022 2063 
z
" id="DejaVuSans-65" transform="scale(0.015625)"/>
       <path d="M 2631 2963 
Q 2534 3019 2420 3045 
Q 2306 3072 2169 3072 
Q 1681 3072 1420 2755 
Q 1159 2438 1159 1844 
L 1159 0 
L 581 0 
L 581 3500 
L 1159 3500 
L 1159 2956 
Q 1341 3275 1631 3429 
Q 1922 3584 2338 3584 
Q 2397 3584 2469 3576 
Q 2541 3569 2628 3553 
L 2631 2963 
z
" id="DejaVuSans-72" transform="scale(0.015625)"/>
      </defs>
      <use xlink:href="#DejaVuSans-45"/>
      <use x="63.183594" xlink:href="#DejaVuSans-70"/>
      <use x="126.660156" xlink:href="#DejaVuSans-6f"/>
      <use x="187.841797" xlink:href="#DejaVuSans-63"/>
      <use x="242.822266" xlink:href="#DejaVuSans-68"/>
      <use x="306.201172" xlink:href="#DejaVuSans-20"/>
      <use x="337.988281" xlink:href="#DejaVuSans-6e"/>
      <use x="401.367188" xlink:href="#DejaVuSans-75"/>
      <use x="464.746094" xlink:href="#DejaVuSans-6d"/>
      <use x="562.158203" xlink:href="#DejaVuSans-62"/>
      <use x="625.634766" xlink:href="#DejaVuSans-65"/>
      <use x="687.158203" xlink:href="#DejaVuSans-72"/>
     </g>
    </g>
   </g>
   <g id="matplotlib.axis_2">
    <g id="ytick_1">
     <g id="line2d_13">
      <path clip-path="url(#pd9ee463dfb)" d="M 33.675 237.255565 
L 565.2 237.255565 
" style="fill:none;stroke:#ffffff;stroke-linecap:square;stroke-width:0.8;"/>
     </g>
     <g id="line2d_14">
      <defs>
       <path d="M 0 0 
L -3.5 0 
" id="m1381f53bdb" style="stroke:#555555;stroke-width:0.8;"/>
      </defs>
      <g>
       <use style="fill:#555555;stroke:#555555;stroke-width:0.8;" x="33.675" xlink:href="#m1381f53bdb" y="237.255565"/>
      </g>
     </g>
     <g id="text_8">
      <!-- 0.0 -->
      <g style="fill:#555555;" transform="translate(10.771875 241.054784)scale(0.1 -0.1)">
       <defs>
        <path d="M 684 794 
L 1344 794 
L 1344 0 
L 684 0 
L 684 794 
z
" id="DejaVuSans-2e" transform="scale(0.015625)"/>
       </defs>
       <use xlink:href="#DejaVuSans-30"/>
       <use x="63.623047" xlink:href="#DejaVuSans-2e"/>
       <use x="95.410156" xlink:href="#DejaVuSans-30"/>
      </g>
     </g>
    </g>
    <g id="ytick_2">
     <g id="line2d_15">
      <path clip-path="url(#pd9ee463dfb)" d="M 33.675 186.922195 
L 565.2 186.922195 
" style="fill:none;stroke:#ffffff;stroke-linecap:square;stroke-width:0.8;"/>
     </g>
     <g id="line2d_16">
      <g>
       <use style="fill:#555555;stroke:#555555;stroke-width:0.8;" x="33.675" xlink:href="#m1381f53bdb" y="186.922195"/>
      </g>
     </g>
     <g id="text_9">
      <!-- 0.2 -->
      <g style="fill:#555555;" transform="translate(10.771875 190.721414)scale(0.1 -0.1)">
       <use xlink:href="#DejaVuSans-30"/>
       <use x="63.623047" xlink:href="#DejaVuSans-2e"/>
       <use x="95.410156" xlink:href="#DejaVuSans-32"/>
      </g>
     </g>
    </g>
    <g id="ytick_3">
     <g id="line2d_17">
      <path clip-path="url(#pd9ee463dfb)" d="M 33.675 136.588826 
L 565.2 136.588826 
" style="fill:none;stroke:#ffffff;stroke-linecap:square;stroke-width:0.8;"/>
     </g>
     <g id="line2d_18">
      <g>
       <use style="fill:#555555;stroke:#555555;stroke-width:0.8;" x="33.675" xlink:href="#m1381f53bdb" y="136.588826"/>
      </g>
     </g>
     <g id="text_10">
      <!-- 0.4 -->
      <g style="fill:#555555;" transform="translate(10.771875 140.388044)scale(0.1 -0.1)">
       <use xlink:href="#DejaVuSans-30"/>
       <use x="63.623047" xlink:href="#DejaVuSans-2e"/>
       <use x="95.410156" xlink:href="#DejaVuSans-34"/>
      </g>
     </g>
    </g>
    <g id="ytick_4">
     <g id="line2d_19">
      <path clip-path="url(#pd9ee463dfb)" d="M 33.675 86.255456 
L 565.2 86.255456 
" style="fill:none;stroke:#ffffff;stroke-linecap:square;stroke-width:0.8;"/>
     </g>
     <g id="line2d_20">
      <g>
       <use style="fill:#555555;stroke:#555555;stroke-width:0.8;" x="33.675" xlink:href="#m1381f53bdb" y="86.255456"/>
      </g>
     </g>
     <g id="text_11">
      <!-- 0.6 -->
      <g style="fill:#555555;" transform="translate(10.771875 90.054674)scale(0.1 -0.1)">
       <use xlink:href="#DejaVuSans-30"/>
       <use x="63.623047" xlink:href="#DejaVuSans-2e"/>
       <use x="95.410156" xlink:href="#DejaVuSans-36"/>
      </g>
     </g>
    </g>
    <g id="ytick_5">
     <g id="line2d_21">
      <path clip-path="url(#pd9ee463dfb)" d="M 33.675 35.922086 
L 565.2 35.922086 
" style="fill:none;stroke:#ffffff;stroke-linecap:square;stroke-width:0.8;"/>
     </g>
     <g id="line2d_22">
      <g>
       <use style="fill:#555555;stroke:#555555;stroke-width:0.8;" x="33.675" xlink:href="#m1381f53bdb" y="35.922086"/>
      </g>
     </g>
     <g id="text_12">
      <!-- 0.8 -->
      <g style="fill:#555555;" transform="translate(10.771875 39.721305)scale(0.1 -0.1)">
       <use xlink:href="#DejaVuSans-30"/>
       <use x="63.623047" xlink:href="#DejaVuSans-2e"/>
       <use x="95.410156" xlink:href="#DejaVuSans-38"/>
      </g>
     </g>
    </g>
   </g>
   <g id="line2d_23">
    <path clip-path="url(#pd9ee463dfb)" d="M 57.835227 231.74438 
L 62.716081 229.307353 
L 67.596935 227.857879 
L 72.477789 226.344692 
L 77.358643 225.420852 
L 82.239497 227.857879 
L 87.120351 228.49501 
L 92.001205 227.714525 
L 96.882059 227.921592 
L 101.762913 230.597544 
L 106.643767 230.788683 
L 111.524621 231.043535 
L 116.405475 231.505456 
L 121.286329 231.792165 
L 126.167183 231.521384 
L 131.048037 231.28246 
L 135.928891 232.445224 
L 140.809745 232.174443 
L 145.690599 232.126659 
L 150.571453 232.158515 
L 155.452307 232.174443 
L 160.333161 232.174443 
L 165.214015 232.174443 
L 170.094869 232.174443 
L 174.975723 232.174443 
L 179.856577 232.190372 
L 184.737431 232.190372 
L 189.618285 232.190372 
L 194.499139 232.190372 
L 199.379993 232.190372 
L 204.260847 232.190372 
L 209.141701 232.190372 
L 214.022555 232.190372 
L 218.903409 232.190372 
L 223.784263 232.190372 
L 228.665117 232.190372 
L 233.545971 232.190372 
L 238.426825 232.190372 
L 243.307679 232.190372 
L 248.188533 232.636364 
L 253.069387 232.190372 
L 257.950241 232.190372 
L 262.831095 232.190372 
L 267.711949 231.696595 
L 272.592803 231.696595 
L 277.473657 231.55324 
L 282.354511 232.190372 
L 287.235365 231.696595 
L 292.116219 231.696595 
L 296.997073 231.696595 
L 301.877927 231.696595 
L 306.758781 231.696595 
L 311.639635 231.696595 
L 316.520489 232.158515 
L 321.401343 231.983304 
L 326.282197 231.696595 
L 331.163051 231.696595 
L 336.043905 231.696595 
L 340.924759 231.696595 
L 345.805613 231.696595 
L 350.686467 231.696595 
L 355.567321 231.696595 
L 360.448175 231.696595 
L 365.329029 231.696595 
L 370.209883 231.696595 
L 375.090737 231.696595 
L 379.971591 231.696595 
L 384.852445 231.664738 
L 389.733299 232.062945 
L 394.614153 231.680667 
L 399.495007 231.632882 
L 404.375861 231.696595 
L 409.256715 231.696595 
L 414.137569 231.696595 
L 419.018423 231.696595 
L 423.899277 231.696595 
L 428.780131 231.696595 
L 433.660985 231.696595 
L 438.541839 231.696595 
L 443.422693 231.696595 
L 448.303547 231.696595 
L 453.184401 231.712523 
L 458.065255 231.74438 
L 462.946109 231.935519 
L 467.826963 231.983304 
L 472.707817 232.524866 
L 477.588671 231.569169 
L 482.469525 230.916109 
L 487.350379 231.664738 
L 492.231233 231.680667 
L 497.112087 231.696595 
L 501.992941 231.696595 
L 506.873795 229.625918 
L 511.754649 231.792165 
L 516.635503 231.951448 
L 521.516357 231.951448 
L 526.397211 231.951448 
L 531.278065 231.967376 
L 536.158919 232.508937 
L 541.039773 231.951448 
" style="fill:none;stroke:#e24a33;stroke-linecap:square;stroke-width:1.5;"/>
   </g>
   <g id="line2d_24">
    <path clip-path="url(#pd9ee463dfb)" d="M 57.835227 199.632964 
L 62.716081 161.580299 
L 67.596935 149.092527 
L 72.477789 136.716252 
L 77.358643 131.443991 
L 82.239497 122.157802 
L 87.120351 118.74915 
L 92.001205 113.795455 
L 96.882059 114.607797 
L 101.762913 117.060752 
L 106.643767 110.737224 
L 111.524621 110.848722 
L 116.405475 113.6521 
L 121.286329 113.349463 
L 126.167183 115.021932 
L 131.048037 119.21107 
L 135.928891 115.006004 
L 140.809745 117.761597 
L 145.690599 119.067716 
L 150.571453 117.315605 
L 155.452307 122.731221 
L 160.333161 121.855165 
L 165.214015 119.179214 
L 170.094869 124.244407 
L 174.975723 125.184176 
L 179.856577 121.80738 
L 184.737431 129.644095 
L 189.618285 128.831752 
L 194.499139 129.006963 
L 199.379993 120.899468 
L 204.260847 128.752111 
L 209.141701 139.631127 
L 214.022555 130.408652 
L 218.903409 134.486292 
L 223.784263 124.371834 
L 228.665117 131.125425 
L 233.545971 130.902429 
L 238.426825 137.926801 
L 243.307679 139.79041 
L 248.188533 139.089566 
L 253.069387 131.428062 
L 257.950241 132.574899 
L 262.831095 141.399167 
L 267.711949 132.415616 
L 272.592803 140.475326 
L 277.473657 133.21203 
L 282.354511 139.105494 
L 287.235365 136.349901 
L 292.116219 131.013927 
L 296.997073 132.431544 
L 301.877927 137.257813 
L 306.758781 136.461399 
L 311.639635 132.590827 
L 316.520489 136.206547 
L 321.401343 134.486292 
L 326.282197 130.61572 
L 331.163051 132.320046 
L 336.043905 128.640613 
L 340.924759 126.665506 
L 345.805613 127.716773 
L 350.686467 127.047785 
L 355.567321 135.426061 
L 360.448175 132.033337 
L 365.329029 129.644095 
L 370.209883 132.017409 
L 375.090737 134.757073 
L 379.971591 128.783968 
L 384.852445 124.610758 
L 389.733299 122.556009 
L 394.614153 131.603273 
L 399.495007 124.164766 
L 404.375861 128.178693 
L 409.256715 125.741666 
L 414.137569 135.999479 
L 419.018423 124.355905 
L 423.899277 125.152319 
L 428.780131 129.054748 
L 433.660985 126.155801 
L 438.541839 125.566455 
L 443.422693 127.907912 
L 448.303547 131.810341 
L 453.184401 125.05675 
L 458.065255 129.421099 
L 462.946109 131.7307 
L 467.826963 123.113499 
L 472.707817 126.777004 
L 477.588671 124.531116 
L 482.469525 126.378797 
L 487.350379 128.847681 
L 492.231233 133.57838 
L 497.112087 128.210549 
L 501.992941 126.123945 
L 506.873795 135.362348 
L 511.754649 128.927322 
L 516.635503 127.860127 
L 521.516357 124.977108 
L 526.397211 126.920359 
L 531.278065 125.470885 
L 536.158919 128.274263 
L 541.039773 127.955697 
" style="fill:none;stroke:#348abd;stroke-linecap:square;stroke-width:1.5;"/>
   </g>
   <g id="line2d_25">
    <path clip-path="url(#pd9ee463dfb)" d="M 57.835227 109.717814 
L 62.716081 84.503345 
L 67.596935 75.663148 
L 72.477789 66.297319 
L 77.358643 60.658707 
L 82.239497 59.814508 
L 87.120351 56.310286 
L 92.001205 55.657227 
L 96.882059 50.193826 
L 101.762913 50.703531 
L 106.643767 50.52832 
L 111.524621 49.381484 
L 116.405475 47.326735 
L 121.286329 46.928528 
L 126.167183 46.657748 
L 131.048037 45.956903 
L 135.928891 45.542768 
L 140.809745 43.726944 
L 145.690599 44.141079 
L 150.571453 43.551733 
L 155.452307 43.29688 
L 160.333161 43.153526 
L 165.214015 44.013653 
L 170.094869 44.109223 
L 174.975723 41.91112 
L 179.856577 42.006689 
L 184.737431 41.273988 
L 189.618285 41.751837 
L 194.499139 42.388968 
L 199.379993 41.066921 
L 204.260847 42.83496 
L 209.141701 41.91112 
L 214.022555 40.302363 
L 218.903409 40.812068 
L 223.784263 40.254578 
L 228.665117 39.951941 
L 233.545971 38.868818 
L 238.426825 41.783693 
L 243.307679 39.8723 
L 248.188533 39.760802 
L 253.069387 39.282953 
L 257.950241 39.697088 
L 262.831095 39.426308 
L 267.711949 39.044029 
L 272.592803 39.426308 
L 277.473657 39.107742 
L 282.354511 38.821033 
L 287.235365 38.215758 
L 292.116219 37.753838 
L 296.997073 38.040547 
L 301.877927 39.091814 
L 306.758781 39.251097 
L 311.639635 37.992762 
L 316.520489 37.164492 
L 321.401343 38.725463 
L 326.282197 38.566181 
L 331.163051 37.690125 
L 336.043905 38.311328 
L 340.924759 39.028101 
L 345.805613 37.244133 
L 350.686467 37.865336 
L 355.567321 37.371559 
L 360.448175 37.817551 
L 365.329029 38.311328 
L 370.209883 38.19983 
L 375.090737 36.845926 
L 379.971591 37.339703 
L 384.852445 37.451201 
L 389.733299 37.068922 
L 394.614153 37.196348 
L 399.495007 37.801623 
L 404.375861 36.017655 
L 409.256715 37.196348 
L 414.137569 36.479576 
L 419.018423 36.909639 
L 423.899277 37.403416 
L 428.780131 37.371559 
L 433.660985 37.291918 
L 438.541839 37.530842 
L 443.422693 37.769766 
L 448.303547 36.511432 
L 453.184401 36.62293 
L 458.065255 37.164492 
L 462.946109 37.116707 
L 467.826963 36.463647 
L 472.707817 36.62293 
L 477.588671 36.479576 
L 482.469525 36.877783 
L 487.350379 36.654787 
L 492.231233 36.495504 
L 497.112087 37.068922 
L 501.992941 36.113225 
L 506.873795 36.62293 
L 511.754649 36.766285 
L 516.635503 37.18042 
L 521.516357 37.419344 
L 526.397211 35.651305 
L 531.278065 36.25658 
L 536.158919 35.985799 
L 541.039773 36.52736 
" style="fill:none;stroke:#988ed5;stroke-linecap:square;stroke-width:1.5;"/>
   </g>
   <g id="line2d_26">
    <path clip-path="url(#pd9ee463dfb)" d="M 57.835227 70.295317 
L 62.716081 53.905116 
L 67.596935 47.756799 
L 72.477789 42.596036 
L 77.358643 41.481056 
L 82.239497 39.426308 
L 87.120351 36.607002 
L 92.001205 37.307846 
L 96.882059 34.695608 
L 101.762913 33.182421 
L 106.643767 32.959425 
L 111.524621 33.309848 
L 116.405475 31.653306 
L 121.286329 31.175458 
L 126.167183 31.271028 
L 131.048037 30.394972 
L 135.928891 31.207314 
L 140.809745 29.917124 
L 145.690599 30.092335 
L 150.571453 29.534845 
L 155.452307 30.315331 
L 160.333161 29.39149 
L 165.214015 29.056996 
L 170.094869 28.834 
L 174.975723 29.279992 
L 179.856577 27.989802 
L 184.737431 28.340224 
L 189.618285 27.942017 
L 194.499139 28.690646 
L 199.379993 27.703092 
L 204.260847 28.611004 
L 209.141701 27.734949 
L 214.022555 28.228726 
L 218.903409 27.304885 
L 223.784263 27.177459 
L 228.665117 27.575666 
L 233.545971 26.747396 
L 238.426825 26.667754 
L 243.307679 27.511953 
L 248.188533 26.126193 
L 253.069387 27.416383 
L 257.950241 26.699611 
L 262.831095 27.145603 
L 267.711949 26.42883 
L 272.592803 26.556256 
L 277.473657 26.301404 
L 282.354511 26.014695 
L 287.235365 26.89075 
L 292.116219 26.747396 
L 296.997073 26.604041 
L 301.877927 26.33326 
L 306.758781 26.269547 
L 311.639635 25.855412 
L 316.520489 26.460686 
L 321.401343 26.874822 
L 326.282197 25.743914 
L 331.163051 26.301404 
L 336.043905 25.935053 
L 340.924759 26.126193 
L 345.805613 25.266065 
L 350.686467 26.396973 
L 355.567321 25.31385 
L 360.448175 25.425348 
L 365.329029 26.619969 
L 370.209883 25.31385 
L 375.090737 25.250137 
L 379.971591 25.457205 
L 384.852445 25.696129 
L 389.733299 26.078408 
L 394.614153 26.253619 
L 399.495007 25.823555 
L 404.375861 25.568703 
L 409.256715 25.839483 
L 414.137569 25.664272 
L 419.018423 25.982838 
L 423.899277 25.234209 
L 428.780131 26.444758 
L 433.660985 26.237691 
L 438.541839 25.234209 
L 443.422693 25.154567 
L 448.303547 25.441276 
L 453.184401 25.50499 
L 458.065255 25.616488 
L 462.946109 25.743914 
L 467.826963 25.441276 
L 472.707817 26.205834 
L 477.588671 25.712057 
L 482.469525 25.266065 
L 487.350379 25.202352 
L 492.231233 25.425348 
L 497.112087 24.9475 
L 501.992941 25.600559 
L 506.873795 25.202352 
L 511.754649 24.613006 
L 516.635503 25.266065 
L 521.516357 24.628934 
L 526.397211 24.899715 
L 531.278065 25.40942 
L 536.158919 25.473133 
L 541.039773 25.043069 
" style="fill:none;stroke:#777777;stroke-linecap:square;stroke-width:1.5;"/>
   </g>
   <g id="line2d_27">
    <path clip-path="url(#pd9ee463dfb)" d="M 57.835227 47.486018 
L 62.716081 38.518396 
L 67.596935 34.392971 
L 72.477789 31.62145 
L 77.358643 28.770287 
L 82.239497 27.655308 
L 87.120351 26.874822 
L 92.001205 25.77577 
L 96.882059 25.250137 
L 101.762913 25.377563 
L 106.643767 25.552774 
L 111.524621 23.752879 
L 116.405475 24.087373 
L 121.286329 25.058998 
L 126.167183 23.768807 
L 131.048037 24.772289 
L 135.928891 23.498026 
L 140.809745 22.860895 
L 145.690599 23.482098 
L 150.571453 23.27503 
L 155.452307 22.71754 
L 160.333161 22.940536 
L 165.214015 22.701612 
L 170.094869 23.609524 
L 174.975723 23.752879 
L 179.856577 22.876823 
L 184.737431 23.163532 
L 189.618285 23.513954 
L 194.499139 22.606042 
L 199.379993 22.829038 
L 204.260847 22.749397 
L 209.141701 22.844967 
L 214.022555 22.239692 
L 218.903409 21.363636 
L 223.784263 22.574186 
L 228.665117 23.163532 
L 233.545971 22.876823 
L 238.426825 21.745915 
L 243.307679 22.478616 
L 248.188533 22.844967 
L 253.069387 22.733469 
L 257.950241 22.829038 
L 262.831095 22.319333 
L 267.711949 22.319333 
L 272.592803 22.383046 
L 277.473657 22.319333 
L 282.354511 22.367118 
L 287.235365 21.69813 
L 292.116219 22.128194 
L 296.997073 22.319333 
L 301.877927 22.303405 
L 306.758781 21.809628 
L 311.639635 22.287477 
L 316.520489 22.144122 
L 321.401343 22.765325 
L 326.282197 22.653827 
L 331.163051 23.211317 
L 336.043905 23.227245 
L 340.924759 22.207835 
L 345.805613 21.666274 
L 350.686467 22.048552 
L 355.567321 22.319333 
L 360.448175 22.175979 
L 365.329029 22.175979 
L 370.209883 22.892751 
L 375.090737 22.765325 
L 379.971591 22.414903 
L 384.852445 21.984839 
L 389.733299 21.952983 
L 394.614153 21.88927 
L 399.495007 22.606042 
L 404.375861 22.90868 
L 409.256715 21.809628 
L 414.137569 21.937055 
L 419.018423 21.873341 
L 423.899277 21.745915 
L 428.780131 22.239692 
L 433.660985 22.223764 
L 438.541839 22.606042 
L 443.422693 22.478616 
L 448.303547 22.669755 
L 453.184401 22.590114 
L 458.065255 22.080409 
L 462.946109 22.096337 
L 467.826963 22.128194 
L 472.707817 22.494544 
L 477.588671 22.685684 
L 482.469525 22.239692 
L 487.350379 21.506991 
L 492.231233 23.020178 
L 497.112087 23.227245 
L 501.992941 22.653827 
L 506.873795 22.128194 
L 511.754649 22.144122 
L 516.635503 22.287477 
L 521.516357 22.844967 
L 526.397211 22.844967 
L 531.278065 22.940536 
L 536.158919 22.606042 
L 541.039773 22.797182 
" style="fill:none;stroke:#fbc15e;stroke-linecap:square;stroke-width:1.5;"/>
   </g>
   <g id="patch_3">
    <path d="M 33.675 243.2 
L 33.675 10.8 
" style="fill:none;stroke:#ffffff;stroke-linecap:square;stroke-linejoin:miter;"/>
   </g>
   <g id="patch_4">
    <path d="M 565.2 243.2 
L 565.2 10.8 
" style="fill:none;stroke:#ffffff;stroke-linecap:square;stroke-linejoin:miter;"/>
   </g>
   <g id="patch_5">
    <path d="M 33.675 243.2 
L 565.2 243.2 
" style="fill:none;stroke:#ffffff;stroke-linecap:square;stroke-linejoin:miter;"/>
   </g>
   <g id="patch_6">
    <path d="M 33.675 10.8 
L 565.2 10.8 
" style="fill:none;stroke:#ffffff;stroke-linecap:square;stroke-linejoin:miter;"/>
   </g>
   <g id="legend_1">
    <g id="patch_7">
     <path d="M 436.285937 238.2 
L 558.2 238.2 
Q 560.2 238.2 560.2 236.2 
L 560.2 163.809375 
Q 560.2 161.809375 558.2 161.809375 
L 436.285937 161.809375 
Q 434.285937 161.809375 434.285937 163.809375 
L 434.285937 236.2 
Q 434.285937 238.2 436.285937 238.2 
z
" style="fill:#e5e5e5;opacity:0.8;stroke:#cccccc;stroke-linejoin:miter;stroke-width:0.5;"/>
    </g>
    <g id="line2d_28">
     <path d="M 438.285937 169.907813 
L 458.285937 169.907813 
" style="fill:none;stroke:#e24a33;stroke-linecap:square;stroke-width:1.5;"/>
    </g>
    <g id="line2d_29"/>
    <g id="text_13">
     <!-- dropout 0.1(valid) -->
     <g transform="translate(466.285937 173.407813)scale(0.1 -0.1)">
      <defs>
       <path d="M 2906 2969 
L 2906 4863 
L 3481 4863 
L 3481 0 
L 2906 0 
L 2906 525 
Q 2725 213 2448 61 
Q 2172 -91 1784 -91 
Q 1150 -91 751 415 
Q 353 922 353 1747 
Q 353 2572 751 3078 
Q 1150 3584 1784 3584 
Q 2172 3584 2448 3432 
Q 2725 3281 2906 2969 
z
M 947 1747 
Q 947 1113 1208 752 
Q 1469 391 1925 391 
Q 2381 391 2643 752 
Q 2906 1113 2906 1747 
Q 2906 2381 2643 2742 
Q 2381 3103 1925 3103 
Q 1469 3103 1208 2742 
Q 947 2381 947 1747 
z
" id="DejaVuSans-64" transform="scale(0.015625)"/>
       <path d="M 1172 4494 
L 1172 3500 
L 2356 3500 
L 2356 3053 
L 1172 3053 
L 1172 1153 
Q 1172 725 1289 603 
Q 1406 481 1766 481 
L 2356 481 
L 2356 0 
L 1766 0 
Q 1100 0 847 248 
Q 594 497 594 1153 
L 594 3053 
L 172 3053 
L 172 3500 
L 594 3500 
L 594 4494 
L 1172 4494 
z
" id="DejaVuSans-74" transform="scale(0.015625)"/>
       <path d="M 1984 4856 
Q 1566 4138 1362 3434 
Q 1159 2731 1159 2009 
Q 1159 1288 1364 580 
Q 1569 -128 1984 -844 
L 1484 -844 
Q 1016 -109 783 600 
Q 550 1309 550 2009 
Q 550 2706 781 3412 
Q 1013 4119 1484 4856 
L 1984 4856 
z
" id="DejaVuSans-28" transform="scale(0.015625)"/>
       <path d="M 191 3500 
L 800 3500 
L 1894 563 
L 2988 3500 
L 3597 3500 
L 2284 0 
L 1503 0 
L 191 3500 
z
" id="DejaVuSans-76" transform="scale(0.015625)"/>
       <path d="M 2194 1759 
Q 1497 1759 1228 1600 
Q 959 1441 959 1056 
Q 959 750 1161 570 
Q 1363 391 1709 391 
Q 2188 391 2477 730 
Q 2766 1069 2766 1631 
L 2766 1759 
L 2194 1759 
z
M 3341 1997 
L 3341 0 
L 2766 0 
L 2766 531 
Q 2569 213 2275 61 
Q 1981 -91 1556 -91 
Q 1019 -91 701 211 
Q 384 513 384 1019 
Q 384 1609 779 1909 
Q 1175 2209 1959 2209 
L 2766 2209 
L 2766 2266 
Q 2766 2663 2505 2880 
Q 2244 3097 1772 3097 
Q 1472 3097 1187 3025 
Q 903 2953 641 2809 
L 641 3341 
Q 956 3463 1253 3523 
Q 1550 3584 1831 3584 
Q 2591 3584 2966 3190 
Q 3341 2797 3341 1997 
z
" id="DejaVuSans-61" transform="scale(0.015625)"/>
       <path d="M 603 4863 
L 1178 4863 
L 1178 0 
L 603 0 
L 603 4863 
z
" id="DejaVuSans-6c" transform="scale(0.015625)"/>
       <path d="M 603 3500 
L 1178 3500 
L 1178 0 
L 603 0 
L 603 3500 
z
M 603 4863 
L 1178 4863 
L 1178 4134 
L 603 4134 
L 603 4863 
z
" id="DejaVuSans-69" transform="scale(0.015625)"/>
       <path d="M 513 4856 
L 1013 4856 
Q 1481 4119 1714 3412 
Q 1947 2706 1947 2009 
Q 1947 1309 1714 600 
Q 1481 -109 1013 -844 
L 513 -844 
Q 928 -128 1133 580 
Q 1338 1288 1338 2009 
Q 1338 2731 1133 3434 
Q 928 4138 513 4856 
z
" id="DejaVuSans-29" transform="scale(0.015625)"/>
      </defs>
      <use xlink:href="#DejaVuSans-64"/>
      <use x="63.476562" xlink:href="#DejaVuSans-72"/>
      <use x="102.339844" xlink:href="#DejaVuSans-6f"/>
      <use x="163.521484" xlink:href="#DejaVuSans-70"/>
      <use x="226.998047" xlink:href="#DejaVuSans-6f"/>
      <use x="288.179688" xlink:href="#DejaVuSans-75"/>
      <use x="351.558594" xlink:href="#DejaVuSans-74"/>
      <use x="390.767578" xlink:href="#DejaVuSans-20"/>
      <use x="422.554688" xlink:href="#DejaVuSans-30"/>
      <use x="486.177734" xlink:href="#DejaVuSans-2e"/>
      <use x="517.964844" xlink:href="#DejaVuSans-31"/>
      <use x="581.587891" xlink:href="#DejaVuSans-28"/>
      <use x="620.601562" xlink:href="#DejaVuSans-76"/>
      <use x="679.78125" xlink:href="#DejaVuSans-61"/>
      <use x="741.060547" xlink:href="#DejaVuSans-6c"/>
      <use x="768.84375" xlink:href="#DejaVuSans-69"/>
      <use x="796.626953" xlink:href="#DejaVuSans-64"/>
      <use x="860.103516" xlink:href="#DejaVuSans-29"/>
     </g>
    </g>
    <g id="line2d_30">
     <path d="M 438.285937 184.585938 
L 458.285937 184.585938 
" style="fill:none;stroke:#348abd;stroke-linecap:square;stroke-width:1.5;"/>
    </g>
    <g id="line2d_31"/>
    <g id="text_14">
     <!-- dropout 0.3(valid) -->
     <g transform="translate(466.285937 188.085938)scale(0.1 -0.1)">
      <defs>
       <path d="M 2597 2516 
Q 3050 2419 3304 2112 
Q 3559 1806 3559 1356 
Q 3559 666 3084 287 
Q 2609 -91 1734 -91 
Q 1441 -91 1130 -33 
Q 819 25 488 141 
L 488 750 
Q 750 597 1062 519 
Q 1375 441 1716 441 
Q 2309 441 2620 675 
Q 2931 909 2931 1356 
Q 2931 1769 2642 2001 
Q 2353 2234 1838 2234 
L 1294 2234 
L 1294 2753 
L 1863 2753 
Q 2328 2753 2575 2939 
Q 2822 3125 2822 3475 
Q 2822 3834 2567 4026 
Q 2313 4219 1838 4219 
Q 1578 4219 1281 4162 
Q 984 4106 628 3988 
L 628 4550 
Q 988 4650 1302 4700 
Q 1616 4750 1894 4750 
Q 2613 4750 3031 4423 
Q 3450 4097 3450 3541 
Q 3450 3153 3228 2886 
Q 3006 2619 2597 2516 
z
" id="DejaVuSans-33" transform="scale(0.015625)"/>
      </defs>
      <use xlink:href="#DejaVuSans-64"/>
      <use x="63.476562" xlink:href="#DejaVuSans-72"/>
      <use x="102.339844" xlink:href="#DejaVuSans-6f"/>
      <use x="163.521484" xlink:href="#DejaVuSans-70"/>
      <use x="226.998047" xlink:href="#DejaVuSans-6f"/>
      <use x="288.179688" xlink:href="#DejaVuSans-75"/>
      <use x="351.558594" xlink:href="#DejaVuSans-74"/>
      <use x="390.767578" xlink:href="#DejaVuSans-20"/>
      <use x="422.554688" xlink:href="#DejaVuSans-30"/>
      <use x="486.177734" xlink:href="#DejaVuSans-2e"/>
      <use x="517.964844" xlink:href="#DejaVuSans-33"/>
      <use x="581.587891" xlink:href="#DejaVuSans-28"/>
      <use x="620.601562" xlink:href="#DejaVuSans-76"/>
      <use x="679.78125" xlink:href="#DejaVuSans-61"/>
      <use x="741.060547" xlink:href="#DejaVuSans-6c"/>
      <use x="768.84375" xlink:href="#DejaVuSans-69"/>
      <use x="796.626953" xlink:href="#DejaVuSans-64"/>
      <use x="860.103516" xlink:href="#DejaVuSans-29"/>
     </g>
    </g>
    <g id="line2d_32">
     <path d="M 438.285937 199.264063 
L 458.285937 199.264063 
" style="fill:none;stroke:#988ed5;stroke-linecap:square;stroke-width:1.5;"/>
    </g>
    <g id="line2d_33"/>
    <g id="text_15">
     <!-- dropout 0.5(valid) -->
     <g transform="translate(466.285937 202.764063)scale(0.1 -0.1)">
      <defs>
       <path d="M 691 4666 
L 3169 4666 
L 3169 4134 
L 1269 4134 
L 1269 2991 
Q 1406 3038 1543 3061 
Q 1681 3084 1819 3084 
Q 2600 3084 3056 2656 
Q 3513 2228 3513 1497 
Q 3513 744 3044 326 
Q 2575 -91 1722 -91 
Q 1428 -91 1123 -41 
Q 819 9 494 109 
L 494 744 
Q 775 591 1075 516 
Q 1375 441 1709 441 
Q 2250 441 2565 725 
Q 2881 1009 2881 1497 
Q 2881 1984 2565 2268 
Q 2250 2553 1709 2553 
Q 1456 2553 1204 2497 
Q 953 2441 691 2322 
L 691 4666 
z
" id="DejaVuSans-35" transform="scale(0.015625)"/>
      </defs>
      <use xlink:href="#DejaVuSans-64"/>
      <use x="63.476562" xlink:href="#DejaVuSans-72"/>
      <use x="102.339844" xlink:href="#DejaVuSans-6f"/>
      <use x="163.521484" xlink:href="#DejaVuSans-70"/>
      <use x="226.998047" xlink:href="#DejaVuSans-6f"/>
      <use x="288.179688" xlink:href="#DejaVuSans-75"/>
      <use x="351.558594" xlink:href="#DejaVuSans-74"/>
      <use x="390.767578" xlink:href="#DejaVuSans-20"/>
      <use x="422.554688" xlink:href="#DejaVuSans-30"/>
      <use x="486.177734" xlink:href="#DejaVuSans-2e"/>
      <use x="517.964844" xlink:href="#DejaVuSans-35"/>
      <use x="581.587891" xlink:href="#DejaVuSans-28"/>
      <use x="620.601562" xlink:href="#DejaVuSans-76"/>
      <use x="679.78125" xlink:href="#DejaVuSans-61"/>
      <use x="741.060547" xlink:href="#DejaVuSans-6c"/>
      <use x="768.84375" xlink:href="#DejaVuSans-69"/>
      <use x="796.626953" xlink:href="#DejaVuSans-64"/>
      <use x="860.103516" xlink:href="#DejaVuSans-29"/>
     </g>
    </g>
    <g id="line2d_34">
     <path d="M 438.285937 213.942188 
L 458.285937 213.942188 
" style="fill:none;stroke:#777777;stroke-linecap:square;stroke-width:1.5;"/>
    </g>
    <g id="line2d_35"/>
    <g id="text_16">
     <!-- dropout 0.7(valid) -->
     <g transform="translate(466.285937 217.442188)scale(0.1 -0.1)">
      <defs>
       <path d="M 525 4666 
L 3525 4666 
L 3525 4397 
L 1831 0 
L 1172 0 
L 2766 4134 
L 525 4134 
L 525 4666 
z
" id="DejaVuSans-37" transform="scale(0.015625)"/>
      </defs>
      <use xlink:href="#DejaVuSans-64"/>
      <use x="63.476562" xlink:href="#DejaVuSans-72"/>
      <use x="102.339844" xlink:href="#DejaVuSans-6f"/>
      <use x="163.521484" xlink:href="#DejaVuSans-70"/>
      <use x="226.998047" xlink:href="#DejaVuSans-6f"/>
      <use x="288.179688" xlink:href="#DejaVuSans-75"/>
      <use x="351.558594" xlink:href="#DejaVuSans-74"/>
      <use x="390.767578" xlink:href="#DejaVuSans-20"/>
      <use x="422.554688" xlink:href="#DejaVuSans-30"/>
      <use x="486.177734" xlink:href="#DejaVuSans-2e"/>
      <use x="517.964844" xlink:href="#DejaVuSans-37"/>
      <use x="581.587891" xlink:href="#DejaVuSans-28"/>
      <use x="620.601562" xlink:href="#DejaVuSans-76"/>
      <use x="679.78125" xlink:href="#DejaVuSans-61"/>
      <use x="741.060547" xlink:href="#DejaVuSans-6c"/>
      <use x="768.84375" xlink:href="#DejaVuSans-69"/>
      <use x="796.626953" xlink:href="#DejaVuSans-64"/>
      <use x="860.103516" xlink:href="#DejaVuSans-29"/>
     </g>
    </g>
    <g id="line2d_36">
     <path d="M 438.285937 228.620313 
L 458.285937 228.620313 
" style="fill:none;stroke:#fbc15e;stroke-linecap:square;stroke-width:1.5;"/>
    </g>
    <g id="line2d_37"/>
    <g id="text_17">
     <!-- dropout 0.9(valid) -->
     <g transform="translate(466.285937 232.120313)scale(0.1 -0.1)">
      <defs>
       <path d="M 703 97 
L 703 672 
Q 941 559 1184 500 
Q 1428 441 1663 441 
Q 2288 441 2617 861 
Q 2947 1281 2994 2138 
Q 2813 1869 2534 1725 
Q 2256 1581 1919 1581 
Q 1219 1581 811 2004 
Q 403 2428 403 3163 
Q 403 3881 828 4315 
Q 1253 4750 1959 4750 
Q 2769 4750 3195 4129 
Q 3622 3509 3622 2328 
Q 3622 1225 3098 567 
Q 2575 -91 1691 -91 
Q 1453 -91 1209 -44 
Q 966 3 703 97 
z
M 1959 2075 
Q 2384 2075 2632 2365 
Q 2881 2656 2881 3163 
Q 2881 3666 2632 3958 
Q 2384 4250 1959 4250 
Q 1534 4250 1286 3958 
Q 1038 3666 1038 3163 
Q 1038 2656 1286 2365 
Q 1534 2075 1959 2075 
z
" id="DejaVuSans-39" transform="scale(0.015625)"/>
      </defs>
      <use xlink:href="#DejaVuSans-64"/>
      <use x="63.476562" xlink:href="#DejaVuSans-72"/>
      <use x="102.339844" xlink:href="#DejaVuSans-6f"/>
      <use x="163.521484" xlink:href="#DejaVuSans-70"/>
      <use x="226.998047" xlink:href="#DejaVuSans-6f"/>
      <use x="288.179688" xlink:href="#DejaVuSans-75"/>
      <use x="351.558594" xlink:href="#DejaVuSans-74"/>
      <use x="390.767578" xlink:href="#DejaVuSans-20"/>
      <use x="422.554688" xlink:href="#DejaVuSans-30"/>
      <use x="486.177734" xlink:href="#DejaVuSans-2e"/>
      <use x="517.964844" xlink:href="#DejaVuSans-39"/>
      <use x="581.587891" xlink:href="#DejaVuSans-28"/>
      <use x="620.601562" xlink:href="#DejaVuSans-76"/>
      <use x="679.78125" xlink:href="#DejaVuSans-61"/>
      <use x="741.060547" xlink:href="#DejaVuSans-6c"/>
      <use x="768.84375" xlink:href="#DejaVuSans-69"/>
      <use x="796.626953" xlink:href="#DejaVuSans-64"/>
      <use x="860.103516" xlink:href="#DejaVuSans-29"/>
     </g>
    </g>
   </g>
  </g>
 </g>
 <defs>
  <clipPath id="pd9ee463dfb">
   <rect height="232.4" width="531.525" x="33.675" y="10.8"/>
  </clipPath>
 </defs>
</svg>
