<?xml version="1.0" encoding="utf-8" standalone="no"?>
<!DOCTYPE svg PUBLIC "-//W3C//DTD SVG 1.1//EN"
  "http://www.w3.org/Graphics/SVG/1.1/DTD/svg11.dtd">
<svg height="288pt" version="1.1" viewBox="0 0 576 288" width="576pt" xmlns="http://www.w3.org/2000/svg" xmlns:xlink="http://www.w3.org/1999/xlink">
 <metadata>
  <rdf:RDF xmlns:cc="http://creativecommons.org/ns#" xmlns:dc="http://purl.org/dc/elements/1.1/" xmlns:rdf="http://www.w3.org/1999/02/22-rdf-syntax-ns#">
   <cc:Work>
    <dc:type rdf:resource="http://purl.org/dc/dcmitype/StillImage"/>
    <dc:date>2021-11-04T21:11:32.601227</dc:date>
    <dc:format>image/svg+xml</dc:format>
    <dc:creator>
     <cc:Agent>
      <dc:title>Matplotlib v3.4.3, https://matplotlib.org/</dc:title>
     </cc:Agent>
    </dc:creator>
   </cc:Work>
  </rdf:RDF>
 </metadata>
 <defs>
  <style type="text/css">*{stroke-linecap:butt;stroke-linejoin:round;}</style>
 </defs>
 <g id="figure_1">
  <g id="patch_1">
   <path d="M 0 288 
L 576 288 
L 576 0 
L 0 0 
z
" style="fill:#ffffff;"/>
  </g>
  <g id="axes_1">
   <g id="patch_2">
    <path d="M 33.8 243.2 
L 565.2 243.2 
L 565.2 13.512552 
L 33.8 13.512552 
z
" style="fill:#e5e5e5;"/>
   </g>
   <g id="matplotlib.axis_1">
    <g id="xtick_1">
     <g id="line2d_1">
      <path clip-path="url(#p423feb5069)" d="M 53.074839 243.2 
L 53.074839 13.512552 
" style="fill:none;stroke:#ffffff;stroke-linecap:square;stroke-width:0.8;"/>
     </g>
     <g id="line2d_2">
      <defs>
       <path d="M 0 0 
L 0 3.5 
" id="m3b6a59b18a" style="stroke:#555555;stroke-width:0.8;"/>
      </defs>
      <g>
       <use style="fill:#555555;stroke:#555555;stroke-width:0.8;" x="53.074839" xlink:href="#m3b6a59b18a" y="243.2"/>
      </g>
     </g>
     <g id="text_1">
      <!-- 0 -->
      <g style="fill:#555555;" transform="translate(49.893589 257.798437)scale(0.1 -0.1)">
       <defs>
        <path d="M 2034 4250 
Q 1547 4250 1301 3770 
Q 1056 3291 1056 2328 
Q 1056 1369 1301 889 
Q 1547 409 2034 409 
Q 2525 409 2770 889 
Q 3016 1369 3016 2328 
Q 3016 3291 2770 3770 
Q 2525 4250 2034 4250 
z
M 2034 4750 
Q 2819 4750 3233 4129 
Q 3647 3509 3647 2328 
Q 3647 1150 3233 529 
Q 2819 -91 2034 -91 
Q 1250 -91 836 529 
Q 422 1150 422 2328 
Q 422 3509 836 4129 
Q 1250 4750 2034 4750 
z
" id="DejaVuSans-30" transform="scale(0.015625)"/>
       </defs>
       <use xlink:href="#DejaVuSans-30"/>
      </g>
     </g>
    </g>
    <g id="xtick_2">
     <g id="line2d_3">
      <path clip-path="url(#p423feb5069)" d="M 150.668962 243.2 
L 150.668962 13.512552 
" style="fill:none;stroke:#ffffff;stroke-linecap:square;stroke-width:0.8;"/>
     </g>
     <g id="line2d_4">
      <g>
       <use style="fill:#555555;stroke:#555555;stroke-width:0.8;" x="150.668962" xlink:href="#m3b6a59b18a" y="243.2"/>
      </g>
     </g>
     <g id="text_2">
      <!-- 20 -->
      <g style="fill:#555555;" transform="translate(144.306462 257.798437)scale(0.1 -0.1)">
       <defs>
        <path d="M 1228 531 
L 3431 531 
L 3431 0 
L 469 0 
L 469 531 
Q 828 903 1448 1529 
Q 2069 2156 2228 2338 
Q 2531 2678 2651 2914 
Q 2772 3150 2772 3378 
Q 2772 3750 2511 3984 
Q 2250 4219 1831 4219 
Q 1534 4219 1204 4116 
Q 875 4013 500 3803 
L 500 4441 
Q 881 4594 1212 4672 
Q 1544 4750 1819 4750 
Q 2544 4750 2975 4387 
Q 3406 4025 3406 3419 
Q 3406 3131 3298 2873 
Q 3191 2616 2906 2266 
Q 2828 2175 2409 1742 
Q 1991 1309 1228 531 
z
" id="DejaVuSans-32" transform="scale(0.015625)"/>
       </defs>
       <use xlink:href="#DejaVuSans-32"/>
       <use x="63.623047" xlink:href="#DejaVuSans-30"/>
      </g>
     </g>
    </g>
    <g id="xtick_3">
     <g id="line2d_5">
      <path clip-path="url(#p423feb5069)" d="M 248.263085 243.2 
L 248.263085 13.512552 
" style="fill:none;stroke:#ffffff;stroke-linecap:square;stroke-width:0.8;"/>
     </g>
     <g id="line2d_6">
      <g>
       <use style="fill:#555555;stroke:#555555;stroke-width:0.8;" x="248.263085" xlink:href="#m3b6a59b18a" y="243.2"/>
      </g>
     </g>
     <g id="text_3">
      <!-- 40 -->
      <g style="fill:#555555;" transform="translate(241.900585 257.798437)scale(0.1 -0.1)">
       <defs>
        <path d="M 2419 4116 
L 825 1625 
L 2419 1625 
L 2419 4116 
z
M 2253 4666 
L 3047 4666 
L 3047 1625 
L 3713 1625 
L 3713 1100 
L 3047 1100 
L 3047 0 
L 2419 0 
L 2419 1100 
L 313 1100 
L 313 1709 
L 2253 4666 
z
" id="DejaVuSans-34" transform="scale(0.015625)"/>
       </defs>
       <use xlink:href="#DejaVuSans-34"/>
       <use x="63.623047" xlink:href="#DejaVuSans-30"/>
      </g>
     </g>
    </g>
    <g id="xtick_4">
     <g id="line2d_7">
      <path clip-path="url(#p423feb5069)" d="M 345.857208 243.2 
L 345.857208 13.512552 
" style="fill:none;stroke:#ffffff;stroke-linecap:square;stroke-width:0.8;"/>
     </g>
     <g id="line2d_8">
      <g>
       <use style="fill:#555555;stroke:#555555;stroke-width:0.8;" x="345.857208" xlink:href="#m3b6a59b18a" y="243.2"/>
      </g>
     </g>
     <g id="text_4">
      <!-- 60 -->
      <g style="fill:#555555;" transform="translate(339.494708 257.798437)scale(0.1 -0.1)">
       <defs>
        <path d="M 2113 2584 
Q 1688 2584 1439 2293 
Q 1191 2003 1191 1497 
Q 1191 994 1439 701 
Q 1688 409 2113 409 
Q 2538 409 2786 701 
Q 3034 994 3034 1497 
Q 3034 2003 2786 2293 
Q 2538 2584 2113 2584 
z
M 3366 4563 
L 3366 3988 
Q 3128 4100 2886 4159 
Q 2644 4219 2406 4219 
Q 1781 4219 1451 3797 
Q 1122 3375 1075 2522 
Q 1259 2794 1537 2939 
Q 1816 3084 2150 3084 
Q 2853 3084 3261 2657 
Q 3669 2231 3669 1497 
Q 3669 778 3244 343 
Q 2819 -91 2113 -91 
Q 1303 -91 875 529 
Q 447 1150 447 2328 
Q 447 3434 972 4092 
Q 1497 4750 2381 4750 
Q 2619 4750 2861 4703 
Q 3103 4656 3366 4563 
z
" id="DejaVuSans-36" transform="scale(0.015625)"/>
       </defs>
       <use xlink:href="#DejaVuSans-36"/>
       <use x="63.623047" xlink:href="#DejaVuSans-30"/>
      </g>
     </g>
    </g>
    <g id="xtick_5">
     <g id="line2d_9">
      <path clip-path="url(#p423feb5069)" d="M 443.451331 243.2 
L 443.451331 13.512552 
" style="fill:none;stroke:#ffffff;stroke-linecap:square;stroke-width:0.8;"/>
     </g>
     <g id="line2d_10">
      <g>
       <use style="fill:#555555;stroke:#555555;stroke-width:0.8;" x="443.451331" xlink:href="#m3b6a59b18a" y="243.2"/>
      </g>
     </g>
     <g id="text_5">
      <!-- 80 -->
      <g style="fill:#555555;" transform="translate(437.088831 257.798437)scale(0.1 -0.1)">
       <defs>
        <path d="M 2034 2216 
Q 1584 2216 1326 1975 
Q 1069 1734 1069 1313 
Q 1069 891 1326 650 
Q 1584 409 2034 409 
Q 2484 409 2743 651 
Q 3003 894 3003 1313 
Q 3003 1734 2745 1975 
Q 2488 2216 2034 2216 
z
M 1403 2484 
Q 997 2584 770 2862 
Q 544 3141 544 3541 
Q 544 4100 942 4425 
Q 1341 4750 2034 4750 
Q 2731 4750 3128 4425 
Q 3525 4100 3525 3541 
Q 3525 3141 3298 2862 
Q 3072 2584 2669 2484 
Q 3125 2378 3379 2068 
Q 3634 1759 3634 1313 
Q 3634 634 3220 271 
Q 2806 -91 2034 -91 
Q 1263 -91 848 271 
Q 434 634 434 1313 
Q 434 1759 690 2068 
Q 947 2378 1403 2484 
z
M 1172 3481 
Q 1172 3119 1398 2916 
Q 1625 2713 2034 2713 
Q 2441 2713 2670 2916 
Q 2900 3119 2900 3481 
Q 2900 3844 2670 4047 
Q 2441 4250 2034 4250 
Q 1625 4250 1398 4047 
Q 1172 3844 1172 3481 
z
" id="DejaVuSans-38" transform="scale(0.015625)"/>
       </defs>
       <use xlink:href="#DejaVuSans-38"/>
       <use x="63.623047" xlink:href="#DejaVuSans-30"/>
      </g>
     </g>
    </g>
    <g id="xtick_6">
     <g id="line2d_11">
      <path clip-path="url(#p423feb5069)" d="M 541.045455 243.2 
L 541.045455 13.512552 
" style="fill:none;stroke:#ffffff;stroke-linecap:square;stroke-width:0.8;"/>
     </g>
     <g id="line2d_12">
      <g>
       <use style="fill:#555555;stroke:#555555;stroke-width:0.8;" x="541.045455" xlink:href="#m3b6a59b18a" y="243.2"/>
      </g>
     </g>
     <g id="text_6">
      <!-- 100 -->
      <g style="fill:#555555;" transform="translate(531.501705 257.798437)scale(0.1 -0.1)">
       <defs>
        <path d="M 794 531 
L 1825 531 
L 1825 4091 
L 703 3866 
L 703 4441 
L 1819 4666 
L 2450 4666 
L 2450 531 
L 3481 531 
L 3481 0 
L 794 0 
L 794 531 
z
" id="DejaVuSans-31" transform="scale(0.015625)"/>
       </defs>
       <use xlink:href="#DejaVuSans-31"/>
       <use x="63.623047" xlink:href="#DejaVuSans-30"/>
       <use x="127.246094" xlink:href="#DejaVuSans-30"/>
      </g>
     </g>
    </g>
    <g id="text_7">
     <!-- Epoch number -->
     <g style="fill:#555555;" transform="translate(255.803125 272.99625)scale(0.12 -0.12)">
      <defs>
       <path d="M 628 4666 
L 3578 4666 
L 3578 4134 
L 1259 4134 
L 1259 2753 
L 3481 2753 
L 3481 2222 
L 1259 2222 
L 1259 531 
L 3634 531 
L 3634 0 
L 628 0 
L 628 4666 
z
" id="DejaVuSans-45" transform="scale(0.015625)"/>
       <path d="M 1159 525 
L 1159 -1331 
L 581 -1331 
L 581 3500 
L 1159 3500 
L 1159 2969 
Q 1341 3281 1617 3432 
Q 1894 3584 2278 3584 
Q 2916 3584 3314 3078 
Q 3713 2572 3713 1747 
Q 3713 922 3314 415 
Q 2916 -91 2278 -91 
Q 1894 -91 1617 61 
Q 1341 213 1159 525 
z
M 3116 1747 
Q 3116 2381 2855 2742 
Q 2594 3103 2138 3103 
Q 1681 3103 1420 2742 
Q 1159 2381 1159 1747 
Q 1159 1113 1420 752 
Q 1681 391 2138 391 
Q 2594 391 2855 752 
Q 3116 1113 3116 1747 
z
" id="DejaVuSans-70" transform="scale(0.015625)"/>
       <path d="M 1959 3097 
Q 1497 3097 1228 2736 
Q 959 2375 959 1747 
Q 959 1119 1226 758 
Q 1494 397 1959 397 
Q 2419 397 2687 759 
Q 2956 1122 2956 1747 
Q 2956 2369 2687 2733 
Q 2419 3097 1959 3097 
z
M 1959 3584 
Q 2709 3584 3137 3096 
Q 3566 2609 3566 1747 
Q 3566 888 3137 398 
Q 2709 -91 1959 -91 
Q 1206 -91 779 398 
Q 353 888 353 1747 
Q 353 2609 779 3096 
Q 1206 3584 1959 3584 
z
" id="DejaVuSans-6f" transform="scale(0.015625)"/>
       <path d="M 3122 3366 
L 3122 2828 
Q 2878 2963 2633 3030 
Q 2388 3097 2138 3097 
Q 1578 3097 1268 2742 
Q 959 2388 959 1747 
Q 959 1106 1268 751 
Q 1578 397 2138 397 
Q 2388 397 2633 464 
Q 2878 531 3122 666 
L 3122 134 
Q 2881 22 2623 -34 
Q 2366 -91 2075 -91 
Q 1284 -91 818 406 
Q 353 903 353 1747 
Q 353 2603 823 3093 
Q 1294 3584 2113 3584 
Q 2378 3584 2631 3529 
Q 2884 3475 3122 3366 
z
" id="DejaVuSans-63" transform="scale(0.015625)"/>
       <path d="M 3513 2113 
L 3513 0 
L 2938 0 
L 2938 2094 
Q 2938 2591 2744 2837 
Q 2550 3084 2163 3084 
Q 1697 3084 1428 2787 
Q 1159 2491 1159 1978 
L 1159 0 
L 581 0 
L 581 4863 
L 1159 4863 
L 1159 2956 
Q 1366 3272 1645 3428 
Q 1925 3584 2291 3584 
Q 2894 3584 3203 3211 
Q 3513 2838 3513 2113 
z
" id="DejaVuSans-68" transform="scale(0.015625)"/>
       <path id="DejaVuSans-20" transform="scale(0.015625)"/>
       <path d="M 3513 2113 
L 3513 0 
L 2938 0 
L 2938 2094 
Q 2938 2591 2744 2837 
Q 2550 3084 2163 3084 
Q 1697 3084 1428 2787 
Q 1159 2491 1159 1978 
L 1159 0 
L 581 0 
L 581 3500 
L 1159 3500 
L 1159 2956 
Q 1366 3272 1645 3428 
Q 1925 3584 2291 3584 
Q 2894 3584 3203 3211 
Q 3513 2838 3513 2113 
z
" id="DejaVuSans-6e" transform="scale(0.015625)"/>
       <path d="M 544 1381 
L 544 3500 
L 1119 3500 
L 1119 1403 
Q 1119 906 1312 657 
Q 1506 409 1894 409 
Q 2359 409 2629 706 
Q 2900 1003 2900 1516 
L 2900 3500 
L 3475 3500 
L 3475 0 
L 2900 0 
L 2900 538 
Q 2691 219 2414 64 
Q 2138 -91 1772 -91 
Q 1169 -91 856 284 
Q 544 659 544 1381 
z
M 1991 3584 
L 1991 3584 
z
" id="DejaVuSans-75" transform="scale(0.015625)"/>
       <path d="M 3328 2828 
Q 3544 3216 3844 3400 
Q 4144 3584 4550 3584 
Q 5097 3584 5394 3201 
Q 5691 2819 5691 2113 
L 5691 0 
L 5113 0 
L 5113 2094 
Q 5113 2597 4934 2840 
Q 4756 3084 4391 3084 
Q 3944 3084 3684 2787 
Q 3425 2491 3425 1978 
L 3425 0 
L 2847 0 
L 2847 2094 
Q 2847 2600 2669 2842 
Q 2491 3084 2119 3084 
Q 1678 3084 1418 2786 
Q 1159 2488 1159 1978 
L 1159 0 
L 581 0 
L 581 3500 
L 1159 3500 
L 1159 2956 
Q 1356 3278 1631 3431 
Q 1906 3584 2284 3584 
Q 2666 3584 2933 3390 
Q 3200 3197 3328 2828 
z
" id="DejaVuSans-6d" transform="scale(0.015625)"/>
       <path d="M 3116 1747 
Q 3116 2381 2855 2742 
Q 2594 3103 2138 3103 
Q 1681 3103 1420 2742 
Q 1159 2381 1159 1747 
Q 1159 1113 1420 752 
Q 1681 391 2138 391 
Q 2594 391 2855 752 
Q 3116 1113 3116 1747 
z
M 1159 2969 
Q 1341 3281 1617 3432 
Q 1894 3584 2278 3584 
Q 2916 3584 3314 3078 
Q 3713 2572 3713 1747 
Q 3713 922 3314 415 
Q 2916 -91 2278 -91 
Q 1894 -91 1617 61 
Q 1341 213 1159 525 
L 1159 0 
L 581 0 
L 581 4863 
L 1159 4863 
L 1159 2969 
z
" id="DejaVuSans-62" transform="scale(0.015625)"/>
       <path d="M 3597 1894 
L 3597 1613 
L 953 1613 
Q 991 1019 1311 708 
Q 1631 397 2203 397 
Q 2534 397 2845 478 
Q 3156 559 3463 722 
L 3463 178 
Q 3153 47 2828 -22 
Q 2503 -91 2169 -91 
Q 1331 -91 842 396 
Q 353 884 353 1716 
Q 353 2575 817 3079 
Q 1281 3584 2069 3584 
Q 2775 3584 3186 3129 
Q 3597 2675 3597 1894 
z
M 3022 2063 
Q 3016 2534 2758 2815 
Q 2500 3097 2075 3097 
Q 1594 3097 1305 2825 
Q 1016 2553 972 2059 
L 3022 2063 
z
" id="DejaVuSans-65" transform="scale(0.015625)"/>
       <path d="M 2631 2963 
Q 2534 3019 2420 3045 
Q 2306 3072 2169 3072 
Q 1681 3072 1420 2755 
Q 1159 2438 1159 1844 
L 1159 0 
L 581 0 
L 581 3500 
L 1159 3500 
L 1159 2956 
Q 1341 3275 1631 3429 
Q 1922 3584 2338 3584 
Q 2397 3584 2469 3576 
Q 2541 3569 2628 3553 
L 2631 2963 
z
" id="DejaVuSans-72" transform="scale(0.015625)"/>
      </defs>
      <use xlink:href="#DejaVuSans-45"/>
      <use x="63.183594" xlink:href="#DejaVuSans-70"/>
      <use x="126.660156" xlink:href="#DejaVuSans-6f"/>
      <use x="187.841797" xlink:href="#DejaVuSans-63"/>
      <use x="242.822266" xlink:href="#DejaVuSans-68"/>
      <use x="306.201172" xlink:href="#DejaVuSans-20"/>
      <use x="337.988281" xlink:href="#DejaVuSans-6e"/>
      <use x="401.367188" xlink:href="#DejaVuSans-75"/>
      <use x="464.746094" xlink:href="#DejaVuSans-6d"/>
      <use x="562.158203" xlink:href="#DejaVuSans-62"/>
      <use x="625.634766" xlink:href="#DejaVuSans-65"/>
      <use x="687.158203" xlink:href="#DejaVuSans-72"/>
     </g>
    </g>
   </g>
   <g id="matplotlib.axis_2">
    <g id="ytick_1">
     <g id="line2d_13">
      <path clip-path="url(#p423feb5069)" d="M 33.8 227.756221 
L 565.2 227.756221 
" style="fill:none;stroke:#ffffff;stroke-linecap:square;stroke-width:0.8;"/>
     </g>
     <g id="line2d_14">
      <defs>
       <path d="M 0 0 
L -3.5 0 
" id="m4114313aed" style="stroke:#555555;stroke-width:0.8;"/>
      </defs>
      <g>
       <use style="fill:#555555;stroke:#555555;stroke-width:0.8;" x="33.8" xlink:href="#m4114313aed" y="227.756221"/>
      </g>
     </g>
     <g id="text_8">
      <!-- 0.5 -->
      <g style="fill:#555555;" transform="translate(10.896875 231.55544)scale(0.1 -0.1)">
       <defs>
        <path d="M 684 794 
L 1344 794 
L 1344 0 
L 684 0 
L 684 794 
z
" id="DejaVuSans-2e" transform="scale(0.015625)"/>
        <path d="M 691 4666 
L 3169 4666 
L 3169 4134 
L 1269 4134 
L 1269 2991 
Q 1406 3038 1543 3061 
Q 1681 3084 1819 3084 
Q 2600 3084 3056 2656 
Q 3513 2228 3513 1497 
Q 3513 744 3044 326 
Q 2575 -91 1722 -91 
Q 1428 -91 1123 -41 
Q 819 9 494 109 
L 494 744 
Q 775 591 1075 516 
Q 1375 441 1709 441 
Q 2250 441 2565 725 
Q 2881 1009 2881 1497 
Q 2881 1984 2565 2268 
Q 2250 2553 1709 2553 
Q 1456 2553 1204 2497 
Q 953 2441 691 2322 
L 691 4666 
z
" id="DejaVuSans-35" transform="scale(0.015625)"/>
       </defs>
       <use xlink:href="#DejaVuSans-30"/>
       <use x="63.623047" xlink:href="#DejaVuSans-2e"/>
       <use x="95.410156" xlink:href="#DejaVuSans-35"/>
      </g>
     </g>
    </g>
    <g id="ytick_2">
     <g id="line2d_15">
      <path clip-path="url(#p423feb5069)" d="M 33.8 197.344263 
L 565.2 197.344263 
" style="fill:none;stroke:#ffffff;stroke-linecap:square;stroke-width:0.8;"/>
     </g>
     <g id="line2d_16">
      <g>
       <use style="fill:#555555;stroke:#555555;stroke-width:0.8;" x="33.8" xlink:href="#m4114313aed" y="197.344263"/>
      </g>
     </g>
     <g id="text_9">
      <!-- 1.0 -->
      <g style="fill:#555555;" transform="translate(10.896875 201.143482)scale(0.1 -0.1)">
       <use xlink:href="#DejaVuSans-31"/>
       <use x="63.623047" xlink:href="#DejaVuSans-2e"/>
       <use x="95.410156" xlink:href="#DejaVuSans-30"/>
      </g>
     </g>
    </g>
    <g id="ytick_3">
     <g id="line2d_17">
      <path clip-path="url(#p423feb5069)" d="M 33.8 166.932305 
L 565.2 166.932305 
" style="fill:none;stroke:#ffffff;stroke-linecap:square;stroke-width:0.8;"/>
     </g>
     <g id="line2d_18">
      <g>
       <use style="fill:#555555;stroke:#555555;stroke-width:0.8;" x="33.8" xlink:href="#m4114313aed" y="166.932305"/>
      </g>
     </g>
     <g id="text_10">
      <!-- 1.5 -->
      <g style="fill:#555555;" transform="translate(10.896875 170.731524)scale(0.1 -0.1)">
       <use xlink:href="#DejaVuSans-31"/>
       <use x="63.623047" xlink:href="#DejaVuSans-2e"/>
       <use x="95.410156" xlink:href="#DejaVuSans-35"/>
      </g>
     </g>
    </g>
    <g id="ytick_4">
     <g id="line2d_19">
      <path clip-path="url(#p423feb5069)" d="M 33.8 136.520348 
L 565.2 136.520348 
" style="fill:none;stroke:#ffffff;stroke-linecap:square;stroke-width:0.8;"/>
     </g>
     <g id="line2d_20">
      <g>
       <use style="fill:#555555;stroke:#555555;stroke-width:0.8;" x="33.8" xlink:href="#m4114313aed" y="136.520348"/>
      </g>
     </g>
     <g id="text_11">
      <!-- 2.0 -->
      <g style="fill:#555555;" transform="translate(10.896875 140.319566)scale(0.1 -0.1)">
       <use xlink:href="#DejaVuSans-32"/>
       <use x="63.623047" xlink:href="#DejaVuSans-2e"/>
       <use x="95.410156" xlink:href="#DejaVuSans-30"/>
      </g>
     </g>
    </g>
    <g id="ytick_5">
     <g id="line2d_21">
      <path clip-path="url(#p423feb5069)" d="M 33.8 106.10839 
L 565.2 106.10839 
" style="fill:none;stroke:#ffffff;stroke-linecap:square;stroke-width:0.8;"/>
     </g>
     <g id="line2d_22">
      <g>
       <use style="fill:#555555;stroke:#555555;stroke-width:0.8;" x="33.8" xlink:href="#m4114313aed" y="106.10839"/>
      </g>
     </g>
     <g id="text_12">
      <!-- 2.5 -->
      <g style="fill:#555555;" transform="translate(10.896875 109.907609)scale(0.1 -0.1)">
       <use xlink:href="#DejaVuSans-32"/>
       <use x="63.623047" xlink:href="#DejaVuSans-2e"/>
       <use x="95.410156" xlink:href="#DejaVuSans-35"/>
      </g>
     </g>
    </g>
    <g id="ytick_6">
     <g id="line2d_23">
      <path clip-path="url(#p423feb5069)" d="M 33.8 75.696432 
L 565.2 75.696432 
" style="fill:none;stroke:#ffffff;stroke-linecap:square;stroke-width:0.8;"/>
     </g>
     <g id="line2d_24">
      <g>
       <use style="fill:#555555;stroke:#555555;stroke-width:0.8;" x="33.8" xlink:href="#m4114313aed" y="75.696432"/>
      </g>
     </g>
     <g id="text_13">
      <!-- 3.0 -->
      <g style="fill:#555555;" transform="translate(10.896875 79.495651)scale(0.1 -0.1)">
       <defs>
        <path d="M 2597 2516 
Q 3050 2419 3304 2112 
Q 3559 1806 3559 1356 
Q 3559 666 3084 287 
Q 2609 -91 1734 -91 
Q 1441 -91 1130 -33 
Q 819 25 488 141 
L 488 750 
Q 750 597 1062 519 
Q 1375 441 1716 441 
Q 2309 441 2620 675 
Q 2931 909 2931 1356 
Q 2931 1769 2642 2001 
Q 2353 2234 1838 2234 
L 1294 2234 
L 1294 2753 
L 1863 2753 
Q 2328 2753 2575 2939 
Q 2822 3125 2822 3475 
Q 2822 3834 2567 4026 
Q 2313 4219 1838 4219 
Q 1578 4219 1281 4162 
Q 984 4106 628 3988 
L 628 4550 
Q 988 4650 1302 4700 
Q 1616 4750 1894 4750 
Q 2613 4750 3031 4423 
Q 3450 4097 3450 3541 
Q 3450 3153 3228 2886 
Q 3006 2619 2597 2516 
z
" id="DejaVuSans-33" transform="scale(0.015625)"/>
       </defs>
       <use xlink:href="#DejaVuSans-33"/>
       <use x="63.623047" xlink:href="#DejaVuSans-2e"/>
       <use x="95.410156" xlink:href="#DejaVuSans-30"/>
      </g>
     </g>
    </g>
    <g id="ytick_7">
     <g id="line2d_25">
      <path clip-path="url(#p423feb5069)" d="M 33.8 45.284474 
L 565.2 45.284474 
" style="fill:none;stroke:#ffffff;stroke-linecap:square;stroke-width:0.8;"/>
     </g>
     <g id="line2d_26">
      <g>
       <use style="fill:#555555;stroke:#555555;stroke-width:0.8;" x="33.8" xlink:href="#m4114313aed" y="45.284474"/>
      </g>
     </g>
     <g id="text_14">
      <!-- 3.5 -->
      <g style="fill:#555555;" transform="translate(10.896875 49.083693)scale(0.1 -0.1)">
       <use xlink:href="#DejaVuSans-33"/>
       <use x="63.623047" xlink:href="#DejaVuSans-2e"/>
       <use x="95.410156" xlink:href="#DejaVuSans-35"/>
      </g>
     </g>
    </g>
    <g id="ytick_8">
     <g id="line2d_27">
      <path clip-path="url(#p423feb5069)" d="M 33.8 14.872516 
L 565.2 14.872516 
" style="fill:none;stroke:#ffffff;stroke-linecap:square;stroke-width:0.8;"/>
     </g>
     <g id="line2d_28">
      <g>
       <use style="fill:#555555;stroke:#555555;stroke-width:0.8;" x="33.8" xlink:href="#m4114313aed" y="14.872516"/>
      </g>
     </g>
     <g id="text_15">
      <!-- 4.0 -->
      <g style="fill:#555555;" transform="translate(10.896875 18.671735)scale(0.1 -0.1)">
       <use xlink:href="#DejaVuSans-34"/>
       <use x="63.623047" xlink:href="#DejaVuSans-2e"/>
       <use x="95.410156" xlink:href="#DejaVuSans-30"/>
      </g>
     </g>
    </g>
   </g>
   <g id="line2d_29">
    <path clip-path="url(#p423feb5069)" d="M 57.954545 214.594597 
L 62.834252 221.942361 
L 67.713958 225.503881 
L 72.593664 226.855959 
L 77.47337 227.804745 
L 82.353076 226.609174 
L 87.232782 227.303966 
L 92.112489 228.489328 
L 96.992195 228.80339 
L 101.871901 228.908878 
L 106.751607 229.131893 
L 111.631313 229.86322 
L 116.511019 228.890885 
L 121.390725 228.568844 
L 126.270432 229.122425 
L 131.150138 228.921911 
L 136.029844 229.393842 
L 140.90955 228.168965 
L 145.789256 227.480099 
L 150.668962 227.46589 
L 155.548669 227.421311 
L 160.428375 227.237766 
L 165.308081 226.502588 
L 170.187787 225.645726 
L 175.067493 226.066454 
L 179.947199 223.973695 
L 184.826905 225.582365 
L 189.706612 225.540276 
L 194.586318 224.619457 
L 199.466024 224.233647 
L 204.34573 222.679586 
L 209.225436 222.670043 
L 214.105142 223.707373 
L 218.984848 222.620893 
L 223.864555 222.227113 
L 228.744261 221.79848 
L 233.623967 221.374461 
L 238.503673 220.015973 
L 243.383379 220.439897 
L 248.263085 220.152624 
L 253.142792 219.655028 
L 258.022498 219.118911 
L 262.902204 218.143327 
L 267.78191 217.543205 
L 272.661616 217.432952 
L 277.541322 217.650826 
L 282.421028 217.313812 
L 287.300735 216.90528 
L 292.180441 216.22156 
L 297.060147 215.017409 
L 301.939853 216.815857 
L 306.819559 215.537738 
L 311.699265 216.266657 
L 316.578972 215.981557 
L 321.458678 214.737895 
L 326.338384 214.821952 
L 331.21809 214.675361 
L 336.097796 215.204885 
L 340.977502 214.207589 
L 345.857208 212.340727 
L 350.736915 213.860385 
L 355.616621 211.67854 
L 360.496327 212.219666 
L 365.376033 211.691401 
L 370.255739 212.523842 
L 375.135445 212.833744 
L 380.015152 211.312805 
L 384.894858 210.981064 
L 389.774564 209.46472 
L 394.65427 209.513964 
L 399.533976 210.426679 
L 404.413682 209.71845 
L 409.293388 210.133758 
L 414.173095 208.752713 
L 419.052801 209.178594 
L 423.932507 208.611042 
L 428.812213 207.914162 
L 433.691919 206.657889 
L 438.571625 207.111119 
L 443.451331 204.926259 
L 448.331038 208.79339 
L 453.210744 207.8508 
L 458.09045 207.190051 
L 462.970156 204.682726 
L 467.849862 206.038719 
L 472.729568 206.379678 
L 477.609275 204.72112 
L 482.488981 205.128933 
L 487.368687 204.853846 
L 492.248393 204.323263 
L 497.128099 204.367664 
L 502.007805 201.918322 
L 506.887511 204.340709 
L 511.767218 202.872816 
L 516.646924 203.825006 
L 521.52663 202.465471 
L 526.406336 200.381147 
L 531.286042 202.907936 
L 536.165748 202.303303 
L 541.045455 201.776268 
" style="fill:none;stroke:#e24a33;stroke-linecap:square;stroke-width:1.5;"/>
   </g>
   <g id="line2d_30">
    <path clip-path="url(#p423feb5069)" d="M 57.954545 211.300788 
L 62.834252 219.409479 
L 67.713958 223.468169 
L 72.593664 225.153532 
L 77.47337 224.629176 
L 82.353076 225.577236 
L 87.232782 227.607586 
L 92.112489 228.555209 
L 96.992195 228.63579 
L 101.871901 228.80663 
L 106.751607 227.875162 
L 111.631313 229.890815 
L 116.511019 230.13337 
L 121.390725 230.688946 
L 126.270432 229.65083 
L 131.150138 230.646476 
L 136.029844 230.691655 
L 140.90955 230.06148 
L 145.789256 230.453552 
L 150.668962 231.462198 
L 155.548669 230.100767 
L 160.428375 231.302007 
L 165.308081 230.830602 
L 170.187787 230.87156 
L 175.067493 230.643505 
L 179.947199 231.22794 
L 184.826905 230.752648 
L 189.706612 231.53383 
L 194.586318 230.908022 
L 199.466024 230.924699 
L 204.34573 231.798036 
L 209.225436 231.926342 
L 214.105142 231.00244 
L 218.984848 229.859028 
L 223.864555 231.141488 
L 228.744261 232.250374 
L 233.623967 230.716235 
L 238.503673 231.919799 
L 243.383379 230.901528 
L 248.263085 231.794753 
L 253.142792 231.462451 
L 258.022498 231.062446 
L 262.902204 231.713953 
L 267.78191 231.445288 
L 272.661616 230.828646 
L 277.541322 231.700089 
L 282.421028 231.474311 
L 287.300735 232.267301 
L 292.180441 232.170981 
L 297.060147 231.8788 
L 301.939853 232.136497 
L 306.819559 231.81072 
L 311.699265 232.074131 
L 316.578972 232.29832 
L 321.458678 231.949205 
L 326.338384 231.563563 
L 331.21809 232.303863 
L 336.097796 231.372959 
L 340.977502 231.894641 
L 345.857208 232.129536 
L 350.736915 232.331584 
L 355.616621 231.658925 
L 360.496327 231.771882 
L 365.376033 232.238548 
L 370.255739 232.521109 
L 375.135445 231.588227 
L 380.015152 231.084929 
L 384.894858 232.525516 
L 389.774564 231.366354 
L 394.65427 231.614986 
L 399.533976 232.229537 
L 404.413682 232.053373 
L 409.293388 232.020651 
L 414.173095 232.288359 
L 419.052801 230.871619 
L 423.932507 232.124006 
L 428.812213 231.44969 
L 433.691919 231.251615 
L 438.571625 232.084392 
L 443.451331 231.579427 
L 448.331038 231.981878 
L 453.210744 231.95859 
L 458.09045 231.196117 
L 462.970156 231.161918 
L 467.849862 232.125526 
L 472.729568 232.642692 
L 477.609275 231.971107 
L 482.488981 232.128171 
L 487.368687 232.759661 
L 492.248393 232.244016 
L 497.128099 232.339057 
L 502.007805 232.224796 
L 506.887511 231.686787 
L 511.767218 232.331042 
L 516.646924 232.360294 
L 521.52663 231.906398 
L 526.406336 232.315807 
L 531.286042 232.21548 
L 536.165748 231.455535 
L 541.045455 232.146266 
" style="fill:none;stroke:#348abd;stroke-linecap:square;stroke-width:1.5;"/>
   </g>
   <g id="line2d_31">
    <path clip-path="url(#p423feb5069)" d="M 57.954545 177.477618 
L 62.834252 187.800568 
L 67.713958 191.608113 
L 72.593664 196.931012 
L 77.47337 197.541434 
L 82.353076 200.576931 
L 87.232782 202.01239 
L 92.112489 202.23253 
L 96.992195 202.797019 
L 101.871901 203.417997 
L 106.751607 204.945128 
L 111.631313 204.110037 
L 116.511019 205.282853 
L 121.390725 205.678676 
L 126.270432 205.426853 
L 131.150138 206.357621 
L 136.029844 206.828488 
L 140.90955 207.668328 
L 145.789256 207.721209 
L 150.668962 206.569296 
L 155.548669 208.142376 
L 160.428375 207.238557 
L 165.308081 207.193989 
L 170.187787 206.873196 
L 175.067493 208.033844 
L 179.947199 207.055689 
L 184.826905 208.449925 
L 189.706612 208.086515 
L 194.586318 208.802738 
L 199.466024 208.598401 
L 204.34573 209.664629 
L 209.225436 208.858122 
L 214.105142 208.558282 
L 218.984848 208.914411 
L 223.864555 209.151129 
L 228.744261 209.152695 
L 233.623967 209.484531 
L 238.503673 209.407337 
L 243.383379 210.090279 
L 248.263085 209.870061 
L 253.142792 210.516973 
L 258.022498 209.103154 
L 262.902204 210.405087 
L 267.78191 209.698066 
L 272.661616 210.480566 
L 277.541322 210.530317 
L 282.421028 209.939298 
L 287.300735 209.960823 
L 292.180441 209.142793 
L 297.060147 211.081387 
L 301.939853 210.858126 
L 306.819559 210.363895 
L 311.699265 210.052776 
L 316.578972 210.779419 
L 321.458678 211.241914 
L 326.338384 210.738835 
L 331.21809 210.438355 
L 336.097796 211.426217 
L 340.977502 210.900222 
L 345.857208 211.452259 
L 350.736915 210.646301 
L 355.616621 211.142632 
L 360.496327 210.750537 
L 365.376033 212.097358 
L 370.255739 211.950807 
L 375.135445 211.018525 
L 380.015152 212.245074 
L 384.894858 210.168157 
L 389.774564 211.946128 
L 394.65427 211.905295 
L 399.533976 210.711923 
L 404.413682 211.459402 
L 409.293388 210.732187 
L 414.173095 212.501683 
L 419.052801 211.962378 
L 423.932507 212.017339 
L 428.812213 211.269532 
L 433.691919 212.244841 
L 438.571625 211.540149 
L 443.451331 212.891147 
L 448.331038 212.579555 
L 453.210744 212.522128 
L 458.09045 210.678331 
L 462.970156 212.025717 
L 467.849862 211.620483 
L 472.729568 211.987823 
L 477.609275 211.379778 
L 482.488981 212.061506 
L 487.368687 212.745459 
L 492.248393 211.807033 
L 497.128099 211.856758 
L 502.007805 212.065203 
L 506.887511 210.995563 
L 511.767218 211.803256 
L 516.646924 210.351747 
L 521.52663 211.73485 
L 526.406336 211.528448 
L 531.286042 212.516482 
L 536.165748 212.323433 
L 541.045455 211.157269 
" style="fill:none;stroke:#988ed5;stroke-linecap:square;stroke-width:1.5;"/>
   </g>
   <g id="line2d_32">
    <path clip-path="url(#p423feb5069)" d="M 57.954545 23.966361 
L 62.834252 23.964266 
L 67.713958 23.959374 
L 72.593664 23.960997 
L 77.47337 23.965604 
L 82.353076 23.958566 
L 87.232782 23.962841 
L 92.112489 23.958006 
L 96.992195 23.963562 
L 101.871901 23.959752 
L 106.751607 23.959977 
L 111.631313 23.962879 
L 116.511019 23.957134 
L 121.390725 23.966407 
L 126.270432 23.967762 
L 131.150138 23.965113 
L 136.029844 23.962265 
L 140.90955 23.95874 
L 145.789256 23.962177 
L 150.668962 23.961461 
L 155.548669 23.961718 
L 160.428375 23.964758 
L 165.308081 23.959028 
L 170.187787 23.962661 
L 175.067493 23.96189 
L 179.947199 23.962069 
L 184.826905 23.959618 
L 189.706612 23.962923 
L 194.586318 23.957757 
L 199.466024 23.954892 
L 204.34573 23.962295 
L 209.225436 23.962012 
L 214.105142 23.96285 
L 218.984848 23.962567 
L 223.864555 23.967262 
L 228.744261 23.961113 
L 233.623967 23.967976 
L 238.503673 23.963946 
L 243.383379 23.961263 
L 248.263085 23.957481 
L 253.142792 23.960717 
L 258.022498 23.955305 
L 262.902204 23.959803 
L 267.78191 23.962 
L 272.661616 23.960543 
L 277.541322 23.961567 
L 282.421028 23.959272 
L 287.300735 23.963621 
L 292.180441 23.961684 
L 297.060147 23.957033 
L 301.939853 23.960035 
L 306.819559 23.954484 
L 311.699265 23.960488 
L 316.578972 23.964291 
L 321.458678 23.963259 
L 326.338384 23.960693 
L 331.21809 23.95916 
L 336.097796 23.961765 
L 340.977502 23.966209 
L 345.857208 23.961235 
L 350.736915 23.965155 
L 355.616621 23.96982 
L 360.496327 23.971959 
L 365.376033 23.96437 
L 370.255739 23.961455 
L 375.135445 23.967917 
L 380.015152 23.964476 
L 384.894858 23.966947 
L 389.774564 23.964823 
L 394.65427 23.963167 
L 399.533976 23.964827 
L 404.413682 23.95505 
L 409.293388 23.9634 
L 414.173095 23.963486 
L 419.052801 23.959979 
L 423.932507 23.96298 
L 428.812213 23.96195 
L 433.691919 23.958746 
L 438.571625 23.95505 
L 443.451331 23.958399 
L 448.331038 23.96172 
L 453.210744 23.962507 
L 458.09045 23.965091 
L 462.970156 23.968346 
L 467.849862 23.958398 
L 472.729568 23.961435 
L 477.609275 23.963141 
L 482.488981 23.96097 
L 487.368687 23.959522 
L 492.248393 23.959059 
L 497.128099 23.965425 
L 502.007805 23.96282 
L 506.887511 23.960123 
L 511.767218 23.95289 
L 516.646924 23.959302 
L 521.52663 23.964114 
L 526.406336 23.962104 
L 531.286042 23.960373 
L 536.165748 23.964132 
L 541.045455 23.966295 
" style="fill:none;stroke:#777777;stroke-linecap:square;stroke-width:1.5;"/>
   </g>
   <g id="line2d_33">
    <path clip-path="url(#p423feb5069)" d="M 57.954545 23.967744 
L 62.834252 23.964764 
L 67.713958 23.962588 
L 72.593664 23.958715 
L 77.47337 23.96214 
L 82.353076 23.962184 
L 87.232782 23.959278 
L 92.112489 23.958907 
L 96.992195 23.956652 
L 101.871901 23.9614 
L 106.751607 23.965412 
L 111.631313 23.96624 
L 116.511019 23.960879 
L 121.390725 23.959382 
L 126.270432 23.963288 
L 131.150138 23.959777 
L 136.029844 23.965999 
L 140.90955 23.965084 
L 145.789256 23.959236 
L 150.668962 23.962869 
L 155.548669 23.961374 
L 160.428375 23.966283 
L 165.308081 23.965152 
L 170.187787 23.962425 
L 175.067493 23.955758 
L 179.947199 23.968302 
L 184.826905 23.961321 
L 189.706612 23.965991 
L 194.586318 23.961841 
L 199.466024 23.959445 
L 204.34573 23.965719 
L 209.225436 23.968866 
L 214.105142 23.967406 
L 218.984848 23.969087 
L 223.864555 23.964106 
L 228.744261 23.960968 
L 233.623967 23.960368 
L 238.503673 23.968086 
L 243.383379 23.967478 
L 248.263085 23.958301 
L 253.142792 23.966852 
L 258.022498 23.96093 
L 262.902204 23.956522 
L 267.78191 23.960926 
L 272.661616 23.960001 
L 277.541322 23.96423 
L 282.421028 23.960935 
L 287.300735 23.963449 
L 292.180441 23.961053 
L 297.060147 23.957347 
L 301.939853 23.962297 
L 306.819559 23.964819 
L 311.699265 23.965497 
L 316.578972 23.964231 
L 321.458678 23.964426 
L 326.338384 23.959613 
L 331.21809 23.963428 
L 336.097796 23.964404 
L 340.977502 23.968403 
L 345.857208 23.957892 
L 350.736915 23.960837 
L 355.616621 23.966599 
L 360.496327 23.962481 
L 365.376033 23.962863 
L 370.255739 23.961948 
L 375.135445 23.964586 
L 380.015152 23.963394 
L 384.894858 23.960821 
L 389.774564 23.962586 
L 394.65427 23.953605 
L 399.533976 23.961786 
L 404.413682 23.957943 
L 409.293388 23.962836 
L 414.173095 23.960903 
L 419.052801 23.958692 
L 423.932507 23.957797 
L 428.812213 23.961057 
L 433.691919 23.964042 
L 438.571625 23.968524 
L 443.451331 23.95755 
L 448.331038 23.960926 
L 453.210744 23.960997 
L 458.09045 23.963965 
L 462.970156 23.962314 
L 467.849862 23.968145 
L 472.729568 23.968424 
L 477.609275 23.958037 
L 482.488981 23.970308 
L 487.368687 23.967874 
L 492.248393 23.964393 
L 497.128099 23.961616 
L 502.007805 23.960288 
L 506.887511 23.963066 
L 511.767218 23.961224 
L 516.646924 23.964963 
L 521.52663 23.968586 
L 526.406336 23.969699 
L 531.286042 23.965851 
L 536.165748 23.964557 
L 541.045455 23.961716 
" style="fill:none;stroke:#fbc15e;stroke-linecap:square;stroke-width:1.5;"/>
   </g>
   <g id="patch_3">
    <path d="M 33.8 243.2 
L 33.8 13.512552 
" style="fill:none;stroke:#ffffff;stroke-linecap:square;stroke-linejoin:miter;"/>
   </g>
   <g id="patch_4">
    <path d="M 565.2 243.2 
L 565.2 13.512552 
" style="fill:none;stroke:#ffffff;stroke-linecap:square;stroke-linejoin:miter;"/>
   </g>
   <g id="patch_5">
    <path d="M 33.8 243.2 
L 565.2 243.2 
" style="fill:none;stroke:#ffffff;stroke-linecap:square;stroke-linejoin:miter;"/>
   </g>
   <g id="patch_6">
    <path d="M 33.8 13.512552 
L 565.2 13.512552 
" style="fill:none;stroke:#ffffff;stroke-linecap:square;stroke-linejoin:miter;"/>
   </g>
   <g id="legend_1">
    <g id="patch_7">
     <path d="M 447.135937 166.551588 
L 558.2 166.551588 
Q 560.2 166.551588 560.2 164.551588 
L 560.2 92.160963 
Q 560.2 90.160963 558.2 90.160963 
L 447.135937 90.160963 
Q 445.135937 90.160963 445.135937 92.160963 
L 445.135937 164.551588 
Q 445.135937 166.551588 447.135937 166.551588 
z
" style="fill:#e5e5e5;opacity:0.8;stroke:#cccccc;stroke-linejoin:miter;stroke-width:0.5;"/>
    </g>
    <g id="line2d_34">
     <path d="M 449.135937 98.259401 
L 469.135937 98.259401 
" style="fill:none;stroke:#e24a33;stroke-linecap:square;stroke-width:1.5;"/>
    </g>
    <g id="line2d_35"/>
    <g id="text_16">
     <!-- l1 1e-05(valid) -->
     <g transform="translate(477.135937 101.759401)scale(0.1 -0.1)">
      <defs>
       <path d="M 603 4863 
L 1178 4863 
L 1178 0 
L 603 0 
L 603 4863 
z
" id="DejaVuSans-6c" transform="scale(0.015625)"/>
       <path d="M 313 2009 
L 1997 2009 
L 1997 1497 
L 313 1497 
L 313 2009 
z
" id="DejaVuSans-2d" transform="scale(0.015625)"/>
       <path d="M 1984 4856 
Q 1566 4138 1362 3434 
Q 1159 2731 1159 2009 
Q 1159 1288 1364 580 
Q 1569 -128 1984 -844 
L 1484 -844 
Q 1016 -109 783 600 
Q 550 1309 550 2009 
Q 550 2706 781 3412 
Q 1013 4119 1484 4856 
L 1984 4856 
z
" id="DejaVuSans-28" transform="scale(0.015625)"/>
       <path d="M 191 3500 
L 800 3500 
L 1894 563 
L 2988 3500 
L 3597 3500 
L 2284 0 
L 1503 0 
L 191 3500 
z
" id="DejaVuSans-76" transform="scale(0.015625)"/>
       <path d="M 2194 1759 
Q 1497 1759 1228 1600 
Q 959 1441 959 1056 
Q 959 750 1161 570 
Q 1363 391 1709 391 
Q 2188 391 2477 730 
Q 2766 1069 2766 1631 
L 2766 1759 
L 2194 1759 
z
M 3341 1997 
L 3341 0 
L 2766 0 
L 2766 531 
Q 2569 213 2275 61 
Q 1981 -91 1556 -91 
Q 1019 -91 701 211 
Q 384 513 384 1019 
Q 384 1609 779 1909 
Q 1175 2209 1959 2209 
L 2766 2209 
L 2766 2266 
Q 2766 2663 2505 2880 
Q 2244 3097 1772 3097 
Q 1472 3097 1187 3025 
Q 903 2953 641 2809 
L 641 3341 
Q 956 3463 1253 3523 
Q 1550 3584 1831 3584 
Q 2591 3584 2966 3190 
Q 3341 2797 3341 1997 
z
" id="DejaVuSans-61" transform="scale(0.015625)"/>
       <path d="M 603 3500 
L 1178 3500 
L 1178 0 
L 603 0 
L 603 3500 
z
M 603 4863 
L 1178 4863 
L 1178 4134 
L 603 4134 
L 603 4863 
z
" id="DejaVuSans-69" transform="scale(0.015625)"/>
       <path d="M 2906 2969 
L 2906 4863 
L 3481 4863 
L 3481 0 
L 2906 0 
L 2906 525 
Q 2725 213 2448 61 
Q 2172 -91 1784 -91 
Q 1150 -91 751 415 
Q 353 922 353 1747 
Q 353 2572 751 3078 
Q 1150 3584 1784 3584 
Q 2172 3584 2448 3432 
Q 2725 3281 2906 2969 
z
M 947 1747 
Q 947 1113 1208 752 
Q 1469 391 1925 391 
Q 2381 391 2643 752 
Q 2906 1113 2906 1747 
Q 2906 2381 2643 2742 
Q 2381 3103 1925 3103 
Q 1469 3103 1208 2742 
Q 947 2381 947 1747 
z
" id="DejaVuSans-64" transform="scale(0.015625)"/>
       <path d="M 513 4856 
L 1013 4856 
Q 1481 4119 1714 3412 
Q 1947 2706 1947 2009 
Q 1947 1309 1714 600 
Q 1481 -109 1013 -844 
L 513 -844 
Q 928 -128 1133 580 
Q 1338 1288 1338 2009 
Q 1338 2731 1133 3434 
Q 928 4138 513 4856 
z
" id="DejaVuSans-29" transform="scale(0.015625)"/>
      </defs>
      <use xlink:href="#DejaVuSans-6c"/>
      <use x="27.783203" xlink:href="#DejaVuSans-31"/>
      <use x="91.40625" xlink:href="#DejaVuSans-20"/>
      <use x="123.193359" xlink:href="#DejaVuSans-31"/>
      <use x="186.816406" xlink:href="#DejaVuSans-65"/>
      <use x="248.339844" xlink:href="#DejaVuSans-2d"/>
      <use x="284.423828" xlink:href="#DejaVuSans-30"/>
      <use x="348.046875" xlink:href="#DejaVuSans-35"/>
      <use x="411.669922" xlink:href="#DejaVuSans-28"/>
      <use x="450.683594" xlink:href="#DejaVuSans-76"/>
      <use x="509.863281" xlink:href="#DejaVuSans-61"/>
      <use x="571.142578" xlink:href="#DejaVuSans-6c"/>
      <use x="598.925781" xlink:href="#DejaVuSans-69"/>
      <use x="626.708984" xlink:href="#DejaVuSans-64"/>
      <use x="690.185547" xlink:href="#DejaVuSans-29"/>
     </g>
    </g>
    <g id="line2d_36">
     <path d="M 449.135937 112.937526 
L 469.135937 112.937526 
" style="fill:none;stroke:#348abd;stroke-linecap:square;stroke-width:1.5;"/>
    </g>
    <g id="line2d_37"/>
    <g id="text_17">
     <!-- l1 0.0001(valid) -->
     <g transform="translate(477.135937 116.437526)scale(0.1 -0.1)">
      <use xlink:href="#DejaVuSans-6c"/>
      <use x="27.783203" xlink:href="#DejaVuSans-31"/>
      <use x="91.40625" xlink:href="#DejaVuSans-20"/>
      <use x="123.193359" xlink:href="#DejaVuSans-30"/>
      <use x="186.816406" xlink:href="#DejaVuSans-2e"/>
      <use x="218.603516" xlink:href="#DejaVuSans-30"/>
      <use x="282.226562" xlink:href="#DejaVuSans-30"/>
      <use x="345.849609" xlink:href="#DejaVuSans-30"/>
      <use x="409.472656" xlink:href="#DejaVuSans-31"/>
      <use x="473.095703" xlink:href="#DejaVuSans-28"/>
      <use x="512.109375" xlink:href="#DejaVuSans-76"/>
      <use x="571.289062" xlink:href="#DejaVuSans-61"/>
      <use x="632.568359" xlink:href="#DejaVuSans-6c"/>
      <use x="660.351562" xlink:href="#DejaVuSans-69"/>
      <use x="688.134766" xlink:href="#DejaVuSans-64"/>
      <use x="751.611328" xlink:href="#DejaVuSans-29"/>
     </g>
    </g>
    <g id="line2d_38">
     <path d="M 449.135937 127.615651 
L 469.135937 127.615651 
" style="fill:none;stroke:#988ed5;stroke-linecap:square;stroke-width:1.5;"/>
    </g>
    <g id="line2d_39"/>
    <g id="text_18">
     <!-- l1 0.001(valid) -->
     <g transform="translate(477.135937 131.115651)scale(0.1 -0.1)">
      <use xlink:href="#DejaVuSans-6c"/>
      <use x="27.783203" xlink:href="#DejaVuSans-31"/>
      <use x="91.40625" xlink:href="#DejaVuSans-20"/>
      <use x="123.193359" xlink:href="#DejaVuSans-30"/>
      <use x="186.816406" xlink:href="#DejaVuSans-2e"/>
      <use x="218.603516" xlink:href="#DejaVuSans-30"/>
      <use x="282.226562" xlink:href="#DejaVuSans-30"/>
      <use x="345.849609" xlink:href="#DejaVuSans-31"/>
      <use x="409.472656" xlink:href="#DejaVuSans-28"/>
      <use x="448.486328" xlink:href="#DejaVuSans-76"/>
      <use x="507.666016" xlink:href="#DejaVuSans-61"/>
      <use x="568.945312" xlink:href="#DejaVuSans-6c"/>
      <use x="596.728516" xlink:href="#DejaVuSans-69"/>
      <use x="624.511719" xlink:href="#DejaVuSans-64"/>
      <use x="687.988281" xlink:href="#DejaVuSans-29"/>
     </g>
    </g>
    <g id="line2d_40">
     <path d="M 449.135937 142.293776 
L 469.135937 142.293776 
" style="fill:none;stroke:#777777;stroke-linecap:square;stroke-width:1.5;"/>
    </g>
    <g id="line2d_41"/>
    <g id="text_19">
     <!-- l1 0.01(valid) -->
     <g transform="translate(477.135937 145.793776)scale(0.1 -0.1)">
      <use xlink:href="#DejaVuSans-6c"/>
      <use x="27.783203" xlink:href="#DejaVuSans-31"/>
      <use x="91.40625" xlink:href="#DejaVuSans-20"/>
      <use x="123.193359" xlink:href="#DejaVuSans-30"/>
      <use x="186.816406" xlink:href="#DejaVuSans-2e"/>
      <use x="218.603516" xlink:href="#DejaVuSans-30"/>
      <use x="282.226562" xlink:href="#DejaVuSans-31"/>
      <use x="345.849609" xlink:href="#DejaVuSans-28"/>
      <use x="384.863281" xlink:href="#DejaVuSans-76"/>
      <use x="444.042969" xlink:href="#DejaVuSans-61"/>
      <use x="505.322266" xlink:href="#DejaVuSans-6c"/>
      <use x="533.105469" xlink:href="#DejaVuSans-69"/>
      <use x="560.888672" xlink:href="#DejaVuSans-64"/>
      <use x="624.365234" xlink:href="#DejaVuSans-29"/>
     </g>
    </g>
    <g id="line2d_42">
     <path d="M 449.135937 156.971901 
L 469.135937 156.971901 
" style="fill:none;stroke:#fbc15e;stroke-linecap:square;stroke-width:1.5;"/>
    </g>
    <g id="line2d_43"/>
    <g id="text_20">
     <!-- l1 0.1(valid) -->
     <g transform="translate(477.135937 160.471901)scale(0.1 -0.1)">
      <use xlink:href="#DejaVuSans-6c"/>
      <use x="27.783203" xlink:href="#DejaVuSans-31"/>
      <use x="91.40625" xlink:href="#DejaVuSans-20"/>
      <use x="123.193359" xlink:href="#DejaVuSans-30"/>
      <use x="186.816406" xlink:href="#DejaVuSans-2e"/>
      <use x="218.603516" xlink:href="#DejaVuSans-31"/>
      <use x="282.226562" xlink:href="#DejaVuSans-28"/>
      <use x="321.240234" xlink:href="#DejaVuSans-76"/>
      <use x="380.419922" xlink:href="#DejaVuSans-61"/>
      <use x="441.699219" xlink:href="#DejaVuSans-6c"/>
      <use x="469.482422" xlink:href="#DejaVuSans-69"/>
      <use x="497.265625" xlink:href="#DejaVuSans-64"/>
      <use x="560.742188" xlink:href="#DejaVuSans-29"/>
     </g>
    </g>
   </g>
  </g>
 </g>
 <defs>
  <clipPath id="p423feb5069">
   <rect height="229.687448" width="531.4" x="33.8" y="13.512552"/>
  </clipPath>
 </defs>
</svg>
