<?xml version="1.0" encoding="utf-8" standalone="no"?>
<!DOCTYPE svg PUBLIC "-//W3C//DTD SVG 1.1//EN"
  "http://www.w3.org/Graphics/SVG/1.1/DTD/svg11.dtd">
<svg height="288pt" version="1.1" viewBox="0 0 576 288" width="576pt" xmlns="http://www.w3.org/2000/svg" xmlns:xlink="http://www.w3.org/1999/xlink">
 <metadata>
  <rdf:RDF xmlns:cc="http://creativecommons.org/ns#" xmlns:dc="http://purl.org/dc/elements/1.1/" xmlns:rdf="http://www.w3.org/1999/02/22-rdf-syntax-ns#">
   <cc:Work>
    <dc:type rdf:resource="http://purl.org/dc/dcmitype/StillImage"/>
    <dc:date>2021-11-04T21:11:32.646229</dc:date>
    <dc:format>image/svg+xml</dc:format>
    <dc:creator>
     <cc:Agent>
      <dc:title>Matplotlib v3.4.3, https://matplotlib.org/</dc:title>
     </cc:Agent>
    </dc:creator>
   </cc:Work>
  </rdf:RDF>
 </metadata>
 <defs>
  <style type="text/css">*{stroke-linecap:butt;stroke-linejoin:round;}</style>
 </defs>
 <g id="figure_1">
  <g id="patch_1">
   <path d="M 0 288 
L 576 288 
L 576 0 
L 0 0 
z
" style="fill:#ffffff;"/>
  </g>
  <g id="axes_1">
   <g id="patch_2">
    <path d="M 33.675 243.2 
L 565.2 243.2 
L 565.2 10.8 
L 33.675 10.8 
z
" style="fill:#e5e5e5;"/>
   </g>
   <g id="matplotlib.axis_1">
    <g id="xtick_1">
     <g id="line2d_1">
      <path clip-path="url(#p21fe9c19f8)" d="M 52.954373 243.2 
L 52.954373 10.8 
" style="fill:none;stroke:#ffffff;stroke-linecap:square;stroke-width:0.8;"/>
     </g>
     <g id="line2d_2">
      <defs>
       <path d="M 0 0 
L 0 3.5 
" id="ma50dd9f14d" style="stroke:#555555;stroke-width:0.8;"/>
      </defs>
      <g>
       <use style="fill:#555555;stroke:#555555;stroke-width:0.8;" x="52.954373" xlink:href="#ma50dd9f14d" y="243.2"/>
      </g>
     </g>
     <g id="text_1">
      <!-- 0 -->
      <g style="fill:#555555;" transform="translate(49.773123 257.798437)scale(0.1 -0.1)">
       <defs>
        <path d="M 2034 4250 
Q 1547 4250 1301 3770 
Q 1056 3291 1056 2328 
Q 1056 1369 1301 889 
Q 1547 409 2034 409 
Q 2525 409 2770 889 
Q 3016 1369 3016 2328 
Q 3016 3291 2770 3770 
Q 2525 4250 2034 4250 
z
M 2034 4750 
Q 2819 4750 3233 4129 
Q 3647 3509 3647 2328 
Q 3647 1150 3233 529 
Q 2819 -91 2034 -91 
Q 1250 -91 836 529 
Q 422 1150 422 2328 
Q 422 3509 836 4129 
Q 1250 4750 2034 4750 
z
" id="DejaVuSans-30" transform="scale(0.015625)"/>
       </defs>
       <use xlink:href="#DejaVuSans-30"/>
      </g>
     </g>
    </g>
    <g id="xtick_2">
     <g id="line2d_3">
      <path clip-path="url(#p21fe9c19f8)" d="M 150.571453 243.2 
L 150.571453 10.8 
" style="fill:none;stroke:#ffffff;stroke-linecap:square;stroke-width:0.8;"/>
     </g>
     <g id="line2d_4">
      <g>
       <use style="fill:#555555;stroke:#555555;stroke-width:0.8;" x="150.571453" xlink:href="#ma50dd9f14d" y="243.2"/>
      </g>
     </g>
     <g id="text_2">
      <!-- 20 -->
      <g style="fill:#555555;" transform="translate(144.208953 257.798437)scale(0.1 -0.1)">
       <defs>
        <path d="M 1228 531 
L 3431 531 
L 3431 0 
L 469 0 
L 469 531 
Q 828 903 1448 1529 
Q 2069 2156 2228 2338 
Q 2531 2678 2651 2914 
Q 2772 3150 2772 3378 
Q 2772 3750 2511 3984 
Q 2250 4219 1831 4219 
Q 1534 4219 1204 4116 
Q 875 4013 500 3803 
L 500 4441 
Q 881 4594 1212 4672 
Q 1544 4750 1819 4750 
Q 2544 4750 2975 4387 
Q 3406 4025 3406 3419 
Q 3406 3131 3298 2873 
Q 3191 2616 2906 2266 
Q 2828 2175 2409 1742 
Q 1991 1309 1228 531 
z
" id="DejaVuSans-32" transform="scale(0.015625)"/>
       </defs>
       <use xlink:href="#DejaVuSans-32"/>
       <use x="63.623047" xlink:href="#DejaVuSans-30"/>
      </g>
     </g>
    </g>
    <g id="xtick_3">
     <g id="line2d_5">
      <path clip-path="url(#p21fe9c19f8)" d="M 248.188533 243.2 
L 248.188533 10.8 
" style="fill:none;stroke:#ffffff;stroke-linecap:square;stroke-width:0.8;"/>
     </g>
     <g id="line2d_6">
      <g>
       <use style="fill:#555555;stroke:#555555;stroke-width:0.8;" x="248.188533" xlink:href="#ma50dd9f14d" y="243.2"/>
      </g>
     </g>
     <g id="text_3">
      <!-- 40 -->
      <g style="fill:#555555;" transform="translate(241.826033 257.798437)scale(0.1 -0.1)">
       <defs>
        <path d="M 2419 4116 
L 825 1625 
L 2419 1625 
L 2419 4116 
z
M 2253 4666 
L 3047 4666 
L 3047 1625 
L 3713 1625 
L 3713 1100 
L 3047 1100 
L 3047 0 
L 2419 0 
L 2419 1100 
L 313 1100 
L 313 1709 
L 2253 4666 
z
" id="DejaVuSans-34" transform="scale(0.015625)"/>
       </defs>
       <use xlink:href="#DejaVuSans-34"/>
       <use x="63.623047" xlink:href="#DejaVuSans-30"/>
      </g>
     </g>
    </g>
    <g id="xtick_4">
     <g id="line2d_7">
      <path clip-path="url(#p21fe9c19f8)" d="M 345.805613 243.2 
L 345.805613 10.8 
" style="fill:none;stroke:#ffffff;stroke-linecap:square;stroke-width:0.8;"/>
     </g>
     <g id="line2d_8">
      <g>
       <use style="fill:#555555;stroke:#555555;stroke-width:0.8;" x="345.805613" xlink:href="#ma50dd9f14d" y="243.2"/>
      </g>
     </g>
     <g id="text_4">
      <!-- 60 -->
      <g style="fill:#555555;" transform="translate(339.443113 257.798437)scale(0.1 -0.1)">
       <defs>
        <path d="M 2113 2584 
Q 1688 2584 1439 2293 
Q 1191 2003 1191 1497 
Q 1191 994 1439 701 
Q 1688 409 2113 409 
Q 2538 409 2786 701 
Q 3034 994 3034 1497 
Q 3034 2003 2786 2293 
Q 2538 2584 2113 2584 
z
M 3366 4563 
L 3366 3988 
Q 3128 4100 2886 4159 
Q 2644 4219 2406 4219 
Q 1781 4219 1451 3797 
Q 1122 3375 1075 2522 
Q 1259 2794 1537 2939 
Q 1816 3084 2150 3084 
Q 2853 3084 3261 2657 
Q 3669 2231 3669 1497 
Q 3669 778 3244 343 
Q 2819 -91 2113 -91 
Q 1303 -91 875 529 
Q 447 1150 447 2328 
Q 447 3434 972 4092 
Q 1497 4750 2381 4750 
Q 2619 4750 2861 4703 
Q 3103 4656 3366 4563 
z
" id="DejaVuSans-36" transform="scale(0.015625)"/>
       </defs>
       <use xlink:href="#DejaVuSans-36"/>
       <use x="63.623047" xlink:href="#DejaVuSans-30"/>
      </g>
     </g>
    </g>
    <g id="xtick_5">
     <g id="line2d_9">
      <path clip-path="url(#p21fe9c19f8)" d="M 443.422693 243.2 
L 443.422693 10.8 
" style="fill:none;stroke:#ffffff;stroke-linecap:square;stroke-width:0.8;"/>
     </g>
     <g id="line2d_10">
      <g>
       <use style="fill:#555555;stroke:#555555;stroke-width:0.8;" x="443.422693" xlink:href="#ma50dd9f14d" y="243.2"/>
      </g>
     </g>
     <g id="text_5">
      <!-- 80 -->
      <g style="fill:#555555;" transform="translate(437.060193 257.798437)scale(0.1 -0.1)">
       <defs>
        <path d="M 2034 2216 
Q 1584 2216 1326 1975 
Q 1069 1734 1069 1313 
Q 1069 891 1326 650 
Q 1584 409 2034 409 
Q 2484 409 2743 651 
Q 3003 894 3003 1313 
Q 3003 1734 2745 1975 
Q 2488 2216 2034 2216 
z
M 1403 2484 
Q 997 2584 770 2862 
Q 544 3141 544 3541 
Q 544 4100 942 4425 
Q 1341 4750 2034 4750 
Q 2731 4750 3128 4425 
Q 3525 4100 3525 3541 
Q 3525 3141 3298 2862 
Q 3072 2584 2669 2484 
Q 3125 2378 3379 2068 
Q 3634 1759 3634 1313 
Q 3634 634 3220 271 
Q 2806 -91 2034 -91 
Q 1263 -91 848 271 
Q 434 634 434 1313 
Q 434 1759 690 2068 
Q 947 2378 1403 2484 
z
M 1172 3481 
Q 1172 3119 1398 2916 
Q 1625 2713 2034 2713 
Q 2441 2713 2670 2916 
Q 2900 3119 2900 3481 
Q 2900 3844 2670 4047 
Q 2441 4250 2034 4250 
Q 1625 4250 1398 4047 
Q 1172 3844 1172 3481 
z
" id="DejaVuSans-38" transform="scale(0.015625)"/>
       </defs>
       <use xlink:href="#DejaVuSans-38"/>
       <use x="63.623047" xlink:href="#DejaVuSans-30"/>
      </g>
     </g>
    </g>
    <g id="xtick_6">
     <g id="line2d_11">
      <path clip-path="url(#p21fe9c19f8)" d="M 541.039773 243.2 
L 541.039773 10.8 
" style="fill:none;stroke:#ffffff;stroke-linecap:square;stroke-width:0.8;"/>
     </g>
     <g id="line2d_12">
      <g>
       <use style="fill:#555555;stroke:#555555;stroke-width:0.8;" x="541.039773" xlink:href="#ma50dd9f14d" y="243.2"/>
      </g>
     </g>
     <g id="text_6">
      <!-- 100 -->
      <g style="fill:#555555;" transform="translate(531.496023 257.798437)scale(0.1 -0.1)">
       <defs>
        <path d="M 794 531 
L 1825 531 
L 1825 4091 
L 703 3866 
L 703 4441 
L 1819 4666 
L 2450 4666 
L 2450 531 
L 3481 531 
L 3481 0 
L 794 0 
L 794 531 
z
" id="DejaVuSans-31" transform="scale(0.015625)"/>
       </defs>
       <use xlink:href="#DejaVuSans-31"/>
       <use x="63.623047" xlink:href="#DejaVuSans-30"/>
       <use x="127.246094" xlink:href="#DejaVuSans-30"/>
      </g>
     </g>
    </g>
    <g id="text_7">
     <!-- Epoch number -->
     <g style="fill:#555555;" transform="translate(255.740625 272.99625)scale(0.12 -0.12)">
      <defs>
       <path d="M 628 4666 
L 3578 4666 
L 3578 4134 
L 1259 4134 
L 1259 2753 
L 3481 2753 
L 3481 2222 
L 1259 2222 
L 1259 531 
L 3634 531 
L 3634 0 
L 628 0 
L 628 4666 
z
" id="DejaVuSans-45" transform="scale(0.015625)"/>
       <path d="M 1159 525 
L 1159 -1331 
L 581 -1331 
L 581 3500 
L 1159 3500 
L 1159 2969 
Q 1341 3281 1617 3432 
Q 1894 3584 2278 3584 
Q 2916 3584 3314 3078 
Q 3713 2572 3713 1747 
Q 3713 922 3314 415 
Q 2916 -91 2278 -91 
Q 1894 -91 1617 61 
Q 1341 213 1159 525 
z
M 3116 1747 
Q 3116 2381 2855 2742 
Q 2594 3103 2138 3103 
Q 1681 3103 1420 2742 
Q 1159 2381 1159 1747 
Q 1159 1113 1420 752 
Q 1681 391 2138 391 
Q 2594 391 2855 752 
Q 3116 1113 3116 1747 
z
" id="DejaVuSans-70" transform="scale(0.015625)"/>
       <path d="M 1959 3097 
Q 1497 3097 1228 2736 
Q 959 2375 959 1747 
Q 959 1119 1226 758 
Q 1494 397 1959 397 
Q 2419 397 2687 759 
Q 2956 1122 2956 1747 
Q 2956 2369 2687 2733 
Q 2419 3097 1959 3097 
z
M 1959 3584 
Q 2709 3584 3137 3096 
Q 3566 2609 3566 1747 
Q 3566 888 3137 398 
Q 2709 -91 1959 -91 
Q 1206 -91 779 398 
Q 353 888 353 1747 
Q 353 2609 779 3096 
Q 1206 3584 1959 3584 
z
" id="DejaVuSans-6f" transform="scale(0.015625)"/>
       <path d="M 3122 3366 
L 3122 2828 
Q 2878 2963 2633 3030 
Q 2388 3097 2138 3097 
Q 1578 3097 1268 2742 
Q 959 2388 959 1747 
Q 959 1106 1268 751 
Q 1578 397 2138 397 
Q 2388 397 2633 464 
Q 2878 531 3122 666 
L 3122 134 
Q 2881 22 2623 -34 
Q 2366 -91 2075 -91 
Q 1284 -91 818 406 
Q 353 903 353 1747 
Q 353 2603 823 3093 
Q 1294 3584 2113 3584 
Q 2378 3584 2631 3529 
Q 2884 3475 3122 3366 
z
" id="DejaVuSans-63" transform="scale(0.015625)"/>
       <path d="M 3513 2113 
L 3513 0 
L 2938 0 
L 2938 2094 
Q 2938 2591 2744 2837 
Q 2550 3084 2163 3084 
Q 1697 3084 1428 2787 
Q 1159 2491 1159 1978 
L 1159 0 
L 581 0 
L 581 4863 
L 1159 4863 
L 1159 2956 
Q 1366 3272 1645 3428 
Q 1925 3584 2291 3584 
Q 2894 3584 3203 3211 
Q 3513 2838 3513 2113 
z
" id="DejaVuSans-68" transform="scale(0.015625)"/>
       <path id="DejaVuSans-20" transform="scale(0.015625)"/>
       <path d="M 3513 2113 
L 3513 0 
L 2938 0 
L 2938 2094 
Q 2938 2591 2744 2837 
Q 2550 3084 2163 3084 
Q 1697 3084 1428 2787 
Q 1159 2491 1159 1978 
L 1159 0 
L 581 0 
L 581 3500 
L 1159 3500 
L 1159 2956 
Q 1366 3272 1645 3428 
Q 1925 3584 2291 3584 
Q 2894 3584 3203 3211 
Q 3513 2838 3513 2113 
z
" id="DejaVuSans-6e" transform="scale(0.015625)"/>
       <path d="M 544 1381 
L 544 3500 
L 1119 3500 
L 1119 1403 
Q 1119 906 1312 657 
Q 1506 409 1894 409 
Q 2359 409 2629 706 
Q 2900 1003 2900 1516 
L 2900 3500 
L 3475 3500 
L 3475 0 
L 2900 0 
L 2900 538 
Q 2691 219 2414 64 
Q 2138 -91 1772 -91 
Q 1169 -91 856 284 
Q 544 659 544 1381 
z
M 1991 3584 
L 1991 3584 
z
" id="DejaVuSans-75" transform="scale(0.015625)"/>
       <path d="M 3328 2828 
Q 3544 3216 3844 3400 
Q 4144 3584 4550 3584 
Q 5097 3584 5394 3201 
Q 5691 2819 5691 2113 
L 5691 0 
L 5113 0 
L 5113 2094 
Q 5113 2597 4934 2840 
Q 4756 3084 4391 3084 
Q 3944 3084 3684 2787 
Q 3425 2491 3425 1978 
L 3425 0 
L 2847 0 
L 2847 2094 
Q 2847 2600 2669 2842 
Q 2491 3084 2119 3084 
Q 1678 3084 1418 2786 
Q 1159 2488 1159 1978 
L 1159 0 
L 581 0 
L 581 3500 
L 1159 3500 
L 1159 2956 
Q 1356 3278 1631 3431 
Q 1906 3584 2284 3584 
Q 2666 3584 2933 3390 
Q 3200 3197 3328 2828 
z
" id="DejaVuSans-6d" transform="scale(0.015625)"/>
       <path d="M 3116 1747 
Q 3116 2381 2855 2742 
Q 2594 3103 2138 3103 
Q 1681 3103 1420 2742 
Q 1159 2381 1159 1747 
Q 1159 1113 1420 752 
Q 1681 391 2138 391 
Q 2594 391 2855 752 
Q 3116 1113 3116 1747 
z
M 1159 2969 
Q 1341 3281 1617 3432 
Q 1894 3584 2278 3584 
Q 2916 3584 3314 3078 
Q 3713 2572 3713 1747 
Q 3713 922 3314 415 
Q 2916 -91 2278 -91 
Q 1894 -91 1617 61 
Q 1341 213 1159 525 
L 1159 0 
L 581 0 
L 581 4863 
L 1159 4863 
L 1159 2969 
z
" id="DejaVuSans-62" transform="scale(0.015625)"/>
       <path d="M 3597 1894 
L 3597 1613 
L 953 1613 
Q 991 1019 1311 708 
Q 1631 397 2203 397 
Q 2534 397 2845 478 
Q 3156 559 3463 722 
L 3463 178 
Q 3153 47 2828 -22 
Q 2503 -91 2169 -91 
Q 1331 -91 842 396 
Q 353 884 353 1716 
Q 353 2575 817 3079 
Q 1281 3584 2069 3584 
Q 2775 3584 3186 3129 
Q 3597 2675 3597 1894 
z
M 3022 2063 
Q 3016 2534 2758 2815 
Q 2500 3097 2075 3097 
Q 1594 3097 1305 2825 
Q 1016 2553 972 2059 
L 3022 2063 
z
" id="DejaVuSans-65" transform="scale(0.015625)"/>
       <path d="M 2631 2963 
Q 2534 3019 2420 3045 
Q 2306 3072 2169 3072 
Q 1681 3072 1420 2755 
Q 1159 2438 1159 1844 
L 1159 0 
L 581 0 
L 581 3500 
L 1159 3500 
L 1159 2956 
Q 1341 3275 1631 3429 
Q 1922 3584 2338 3584 
Q 2397 3584 2469 3576 
Q 2541 3569 2628 3553 
L 2631 2963 
z
" id="DejaVuSans-72" transform="scale(0.015625)"/>
      </defs>
      <use xlink:href="#DejaVuSans-45"/>
      <use x="63.183594" xlink:href="#DejaVuSans-70"/>
      <use x="126.660156" xlink:href="#DejaVuSans-6f"/>
      <use x="187.841797" xlink:href="#DejaVuSans-63"/>
      <use x="242.822266" xlink:href="#DejaVuSans-68"/>
      <use x="306.201172" xlink:href="#DejaVuSans-20"/>
      <use x="337.988281" xlink:href="#DejaVuSans-6e"/>
      <use x="401.367188" xlink:href="#DejaVuSans-75"/>
      <use x="464.746094" xlink:href="#DejaVuSans-6d"/>
      <use x="562.158203" xlink:href="#DejaVuSans-62"/>
      <use x="625.634766" xlink:href="#DejaVuSans-65"/>
      <use x="687.158203" xlink:href="#DejaVuSans-72"/>
     </g>
    </g>
   </g>
   <g id="matplotlib.axis_2">
    <g id="ytick_1">
     <g id="line2d_13">
      <path clip-path="url(#p21fe9c19f8)" d="M 33.675 237.372419 
L 565.2 237.372419 
" style="fill:none;stroke:#ffffff;stroke-linecap:square;stroke-width:0.8;"/>
     </g>
     <g id="line2d_14">
      <defs>
       <path d="M 0 0 
L -3.5 0 
" id="ma0fc0d06a7" style="stroke:#555555;stroke-width:0.8;"/>
      </defs>
      <g>
       <use style="fill:#555555;stroke:#555555;stroke-width:0.8;" x="33.675" xlink:href="#ma0fc0d06a7" y="237.372419"/>
      </g>
     </g>
     <g id="text_8">
      <!-- 0.0 -->
      <g style="fill:#555555;" transform="translate(10.771875 241.171638)scale(0.1 -0.1)">
       <defs>
        <path d="M 684 794 
L 1344 794 
L 1344 0 
L 684 0 
L 684 794 
z
" id="DejaVuSans-2e" transform="scale(0.015625)"/>
       </defs>
       <use xlink:href="#DejaVuSans-30"/>
       <use x="63.623047" xlink:href="#DejaVuSans-2e"/>
       <use x="95.410156" xlink:href="#DejaVuSans-30"/>
      </g>
     </g>
    </g>
    <g id="ytick_2">
     <g id="line2d_15">
      <path clip-path="url(#p21fe9c19f8)" d="M 33.675 186.982064 
L 565.2 186.982064 
" style="fill:none;stroke:#ffffff;stroke-linecap:square;stroke-width:0.8;"/>
     </g>
     <g id="line2d_16">
      <g>
       <use style="fill:#555555;stroke:#555555;stroke-width:0.8;" x="33.675" xlink:href="#ma0fc0d06a7" y="186.982064"/>
      </g>
     </g>
     <g id="text_9">
      <!-- 0.2 -->
      <g style="fill:#555555;" transform="translate(10.771875 190.781283)scale(0.1 -0.1)">
       <use xlink:href="#DejaVuSans-30"/>
       <use x="63.623047" xlink:href="#DejaVuSans-2e"/>
       <use x="95.410156" xlink:href="#DejaVuSans-32"/>
      </g>
     </g>
    </g>
    <g id="ytick_3">
     <g id="line2d_17">
      <path clip-path="url(#p21fe9c19f8)" d="M 33.675 136.591708 
L 565.2 136.591708 
" style="fill:none;stroke:#ffffff;stroke-linecap:square;stroke-width:0.8;"/>
     </g>
     <g id="line2d_18">
      <g>
       <use style="fill:#555555;stroke:#555555;stroke-width:0.8;" x="33.675" xlink:href="#ma0fc0d06a7" y="136.591708"/>
      </g>
     </g>
     <g id="text_10">
      <!-- 0.4 -->
      <g style="fill:#555555;" transform="translate(10.771875 140.390927)scale(0.1 -0.1)">
       <use xlink:href="#DejaVuSans-30"/>
       <use x="63.623047" xlink:href="#DejaVuSans-2e"/>
       <use x="95.410156" xlink:href="#DejaVuSans-34"/>
      </g>
     </g>
    </g>
    <g id="ytick_4">
     <g id="line2d_19">
      <path clip-path="url(#p21fe9c19f8)" d="M 33.675 86.201353 
L 565.2 86.201353 
" style="fill:none;stroke:#ffffff;stroke-linecap:square;stroke-width:0.8;"/>
     </g>
     <g id="line2d_20">
      <g>
       <use style="fill:#555555;stroke:#555555;stroke-width:0.8;" x="33.675" xlink:href="#ma0fc0d06a7" y="86.201353"/>
      </g>
     </g>
     <g id="text_11">
      <!-- 0.6 -->
      <g style="fill:#555555;" transform="translate(10.771875 90.000572)scale(0.1 -0.1)">
       <use xlink:href="#DejaVuSans-30"/>
       <use x="63.623047" xlink:href="#DejaVuSans-2e"/>
       <use x="95.410156" xlink:href="#DejaVuSans-36"/>
      </g>
     </g>
    </g>
    <g id="ytick_5">
     <g id="line2d_21">
      <path clip-path="url(#p21fe9c19f8)" d="M 33.675 35.810998 
L 565.2 35.810998 
" style="fill:none;stroke:#ffffff;stroke-linecap:square;stroke-width:0.8;"/>
     </g>
     <g id="line2d_22">
      <g>
       <use style="fill:#555555;stroke:#555555;stroke-width:0.8;" x="33.675" xlink:href="#ma0fc0d06a7" y="35.810998"/>
      </g>
     </g>
     <g id="text_12">
      <!-- 0.8 -->
      <g style="fill:#555555;" transform="translate(10.771875 39.610216)scale(0.1 -0.1)">
       <use xlink:href="#DejaVuSans-30"/>
       <use x="63.623047" xlink:href="#DejaVuSans-2e"/>
       <use x="95.410156" xlink:href="#DejaVuSans-38"/>
      </g>
     </g>
    </g>
   </g>
   <g id="line2d_23">
    <path clip-path="url(#p21fe9c19f8)" d="M 57.835227 42.763591 
L 62.716081 35.141253 
L 67.596935 30.102217 
L 72.477789 28.236498 
L 77.358643 26.992686 
L 82.239497 28.858404 
L 87.120351 28.74678 
L 92.001205 26.689706 
L 96.882059 25.605356 
L 101.762913 25.621302 
L 106.643767 25.031289 
L 111.524621 24.441275 
L 116.405475 25.653195 
L 121.286329 24.967504 
L 126.167183 24.313705 
L 131.048037 24.744255 
L 135.928891 23.77153 
L 140.809745 25.079128 
L 145.690599 24.792094 
L 150.571453 25.764819 
L 155.452307 25.015342 
L 160.333161 25.541571 
L 165.214015 24.37749 
L 170.094869 25.764819 
L 174.975723 26.338887 
L 179.856577 26.434565 
L 184.737431 25.58941 
L 189.618285 24.887772 
L 194.499139 25.206698 
L 199.379993 25.382108 
L 204.260847 25.621302 
L 209.141701 26.466457 
L 214.022555 26.004014 
L 218.903409 25.812658 
L 223.784263 26.897008 
L 228.665117 24.951557 
L 233.545971 26.163477 
L 238.426825 26.482403 
L 243.307679 26.131585 
L 248.188533 26.62592 
L 253.069387 26.051853 
L 257.950241 25.764819 
L 262.831095 26.211316 
L 267.711949 27.471075 
L 272.592803 26.721598 
L 277.473657 26.49835 
L 282.354511 27.168095 
L 287.235365 26.62592 
L 292.116219 25.812658 
L 296.997073 27.23188 
L 301.877927 25.780766 
L 306.758781 27.742162 
L 311.639635 27.263773 
L 316.520489 26.641867 
L 321.401343 25.988068 
L 326.282197 26.243209 
L 331.163051 25.541571 
L 336.043905 26.546189 
L 340.924759 26.32294 
L 345.805613 26.354833 
L 350.686467 26.9289 
L 355.567321 27.168095 
L 360.448175 27.359451 
L 365.329029 27.598646 
L 370.209883 25.828605 
L 375.090737 27.088363 
L 379.971591 26.976739 
L 384.852445 27.23188 
L 389.733299 27.168095 
L 394.614153 27.997303 
L 399.495007 26.865115 
L 404.375861 27.949464 
L 409.256715 28.061089 
L 414.137569 27.774055 
L 419.018423 27.215934 
L 423.899277 27.152149 
L 428.780131 27.598646 
L 433.660985 27.885679 
L 438.541839 27.885679 
L 443.422693 27.614592 
L 448.303547 26.865115 
L 453.184401 27.487021 
L 458.065255 27.263773 
L 462.946109 28.332176 
L 467.826963 28.220552 
L 472.707817 27.726216 
L 477.588671 28.204605 
L 482.469525 27.471075 
L 487.350379 27.471075 
L 492.231233 27.008632 
L 497.112087 27.550807 
L 501.992941 30.022485 
L 506.873795 27.997303 
L 511.754649 27.646484 
L 516.635503 27.901626 
L 521.516357 28.204605 
L 526.397211 28.539478 
L 531.278065 28.523532 
L 536.158919 26.833222 
L 541.039773 27.646484 
" style="fill:none;stroke:#e24a33;stroke-linecap:square;stroke-width:1.5;"/>
   </g>
   <g id="line2d_24">
    <path clip-path="url(#p21fe9c19f8)" d="M 57.835227 46.160156 
L 62.716081 37.549146 
L 67.596935 32.9885 
L 72.477789 31.664956 
L 77.358643 30.931425 
L 82.239497 30.086271 
L 87.120351 27.455129 
L 92.001205 26.785383 
L 96.882059 26.163477 
L 101.762913 25.924282 
L 106.643767 27.901626 
L 111.524621 24.409383 
L 116.405475 25.58941 
L 121.286329 24.313705 
L 126.167183 25.509678 
L 131.048037 24.026671 
L 135.928891 23.8991 
L 140.809745 25.382108 
L 145.690599 25.031289 
L 150.571453 23.245302 
L 155.452307 25.334269 
L 160.333161 23.16557 
L 165.214015 24.026671 
L 170.094869 23.069892 
L 174.975723 24.744255 
L 179.856577 24.313705 
L 184.737431 24.600738 
L 189.618285 23.245302 
L 194.499139 23.580174 
L 199.379993 24.457221 
L 204.260847 22.99016 
L 209.141701 22.495825 
L 214.022555 23.548282 
L 218.903409 25.28643 
L 223.784263 24.20208 
L 228.665117 22.240684 
L 233.545971 24.760201 
L 238.426825 23.277194 
L 243.307679 24.712363 
L 248.188533 22.942322 
L 253.069387 23.197463 
L 257.950241 23.8991 
L 262.831095 22.814751 
L 267.711949 23.213409 
L 272.592803 25.11102 
L 277.473657 23.29314 
L 282.354511 23.16557 
L 287.235365 22.001489 
L 292.116219 23.404765 
L 296.997073 22.607449 
L 301.877927 23.037999 
L 306.758781 23.16557 
L 311.639635 21.937704 
L 316.520489 23.117731 
L 321.401343 22.145006 
L 326.282197 23.819369 
L 331.163051 22.017435 
L 336.043905 23.548282 
L 340.924759 23.819369 
L 345.805613 22.495825 
L 350.686467 21.618777 
L 355.567321 23.181516 
L 360.448175 23.309087 
L 365.329029 22.25663 
L 370.209883 21.554992 
L 375.090737 23.101785 
L 379.971591 23.436657 
L 384.852445 22.447986 
L 389.733299 23.117731 
L 394.614153 23.16557 
L 399.495007 22.129059 
L 404.375861 22.86259 
L 409.256715 23.117731 
L 414.137569 22.368254 
L 419.018423 23.851262 
L 423.899277 22.432039 
L 428.780131 23.309087 
L 433.660985 23.452604 
L 438.541839 23.117731 
L 443.422693 22.55961 
L 448.303547 22.99016 
L 453.184401 23.037999 
L 458.065255 24.170188 
L 462.946109 23.8991 
L 467.826963 22.814751 
L 472.707817 21.491207 
L 477.588671 22.224737 
L 482.469525 22.416093 
L 487.350379 21.363636 
L 492.231233 22.798805 
L 497.112087 21.873918 
L 501.992941 22.081221 
L 506.873795 23.930993 
L 511.754649 22.416093 
L 516.635503 22.320415 
L 521.516357 22.719073 
L 526.397211 22.081221 
L 531.278065 22.86259 
L 536.158919 23.484496 
L 541.039773 21.842026 
" style="fill:none;stroke:#348abd;stroke-linecap:square;stroke-width:1.5;"/>
   </g>
   <g id="line2d_25">
    <path clip-path="url(#p21fe9c19f8)" d="M 57.835227 79.998237 
L 62.716081 69.696917 
L 67.596935 65.694392 
L 72.477789 60.798873 
L 77.358643 59.156403 
L 82.239497 56.429583 
L 87.120351 54.117367 
L 92.001205 54.659542 
L 96.882059 53.335998 
L 101.762913 53.272213 
L 106.643767 52.698145 
L 111.524621 53.447622 
L 116.405475 51.980561 
L 121.286329 51.374601 
L 126.167183 51.071621 
L 131.048037 49.811862 
L 135.928891 48.934815 
L 140.809745 50.067003 
L 145.690599 48.615889 
L 150.571453 50.322144 
L 155.452307 47.802627 
L 160.333161 49.094278 
L 165.214015 49.540775 
L 170.094869 49.891594 
L 174.975723 48.344801 
L 179.856577 49.811862 
L 184.737431 46.989365 
L 189.618285 47.818573 
L 194.499139 47.754788 
L 199.379993 47.499647 
L 204.260847 46.000693 
L 209.141701 47.005311 
L 214.022555 48.743459 
L 218.903409 48.376694 
L 223.784263 48.631835 
L 228.665117 46.925579 
L 233.545971 46.335566 
L 238.426825 47.531539 
L 243.307679 45.53825 
L 248.188533 47.005311 
L 253.069387 44.772827 
L 257.950241 47.244506 
L 262.831095 45.984747 
L 267.711949 47.085042 
L 272.592803 45.283109 
L 277.473657 45.873122 
L 282.354511 45.299055 
L 287.235365 45.905015 
L 292.116219 47.627217 
L 296.997073 44.565525 
L 301.877927 46.479082 
L 306.758781 45.777445 
L 311.639635 47.085042 
L 316.520489 45.426626 
L 321.401343 44.996075 
L 326.282197 45.920961 
L 331.163051 45.522304 
L 336.043905 45.299055 
L 340.924759 45.043914 
L 345.805613 43.895779 
L 350.686467 46.909633 
L 355.567321 45.187431 
L 360.448175 46.176102 
L 365.329029 42.620074 
L 370.209883 44.597417 
L 375.090737 45.506357 
L 379.971591 43.752263 
L 384.852445 46.686385 
L 389.733299 43.560907 
L 394.614153 44.214706 
L 399.495007 45.315001 
L 404.375861 45.267163 
L 409.256715 45.984747 
L 414.137569 43.560907 
L 419.018423 44.246598 
L 423.899277 44.15092 
L 428.780131 45.283109 
L 433.660985 44.517686 
L 438.541839 44.134974 
L 443.422693 42.492504 
L 448.303547 42.348987 
L 453.184401 43.337658 
L 458.065255 45.155538 
L 462.946109 44.342276 
L 467.826963 44.597417 
L 472.707817 43.672531 
L 477.588671 45.633928 
L 482.469525 44.358223 
L 487.350379 42.0779 
L 492.231233 45.36284 
L 497.112087 43.752263 
L 501.992941 44.437954 
L 506.873795 45.378787 
L 511.754649 43.513068 
L 516.635503 46.510975 
L 521.516357 43.608746 
L 526.397211 43.752263 
L 531.278065 44.055243 
L 536.158919 43.640638 
L 541.039773 44.214706 
" style="fill:none;stroke:#988ed5;stroke-linecap:square;stroke-width:1.5;"/>
   </g>
   <g id="line2d_26">
    <path clip-path="url(#p21fe9c19f8)" d="M 57.835227 232.429062 
L 62.716081 232.301491 
L 67.596935 232.429062 
L 72.477789 232.429062 
L 77.358643 232.301491 
L 82.239497 232.301491 
L 87.120351 232.429062 
L 92.001205 232.429062 
L 96.882059 232.301491 
L 101.762913 232.429062 
L 106.643767 232.429062 
L 111.524621 232.221759 
L 116.405475 232.301491 
L 121.286329 232.301491 
L 126.167183 232.429062 
L 131.048037 232.301491 
L 135.928891 232.34933 
L 140.809745 232.301491 
L 145.690599 232.381223 
L 150.571453 232.381223 
L 155.452307 232.381223 
L 160.333161 232.381223 
L 165.214015 232.381223 
L 170.094869 232.429062 
L 174.975723 232.301491 
L 179.856577 232.301491 
L 184.737431 232.381223 
L 189.618285 232.429062 
L 194.499139 232.381223 
L 199.379993 232.429062 
L 204.260847 232.301491 
L 209.141701 232.301491 
L 214.022555 232.301491 
L 218.903409 232.429062 
L 223.784263 232.429062 
L 228.665117 232.301491 
L 233.545971 232.301491 
L 238.426825 232.301491 
L 243.307679 232.381223 
L 248.188533 232.301491 
L 253.069387 232.301491 
L 257.950241 232.301491 
L 262.831095 232.429062 
L 267.711949 232.429062 
L 272.592803 232.381223 
L 277.473657 232.381223 
L 282.354511 232.301491 
L 287.235365 232.429062 
L 292.116219 232.381223 
L 296.997073 232.381223 
L 301.877927 232.381223 
L 306.758781 232.429062 
L 311.639635 232.429062 
L 316.520489 232.381223 
L 321.401343 232.429062 
L 326.282197 232.157974 
L 331.163051 232.301491 
L 336.043905 232.429062 
L 340.924759 232.429062 
L 345.805613 232.429062 
L 350.686467 232.301491 
L 355.567321 232.429062 
L 360.448175 232.381223 
L 365.329029 232.301491 
L 370.209883 232.381223 
L 375.090737 232.381223 
L 379.971591 232.429062 
L 384.852445 232.301491 
L 389.733299 232.381223 
L 394.614153 232.381223 
L 399.495007 232.381223 
L 404.375861 232.301491 
L 409.256715 232.301491 
L 414.137569 232.429062 
L 419.018423 232.381223 
L 423.899277 232.301491 
L 428.780131 232.301491 
L 433.660985 232.381223 
L 438.541839 232.381223 
L 443.422693 232.620417 
L 448.303547 232.381223 
L 453.184401 232.381223 
L 458.065255 232.301491 
L 462.946109 232.429062 
L 467.826963 232.381223 
L 472.707817 232.301491 
L 477.588671 232.301491 
L 482.469525 232.301491 
L 487.350379 232.301491 
L 492.231233 232.429062 
L 497.112087 232.636364 
L 501.992941 232.381223 
L 506.873795 232.301491 
L 511.754649 232.429062 
L 516.635503 232.381223 
L 521.516357 232.429062 
L 526.397211 232.429062 
L 531.278065 232.429062 
L 536.158919 232.381223 
L 541.039773 232.381223 
" style="fill:none;stroke:#777777;stroke-linecap:square;stroke-width:1.5;"/>
   </g>
   <g id="line2d_27">
    <path clip-path="url(#p21fe9c19f8)" d="M 57.835227 232.429062 
L 62.716081 232.381223 
L 67.596935 232.301491 
L 72.477789 232.381223 
L 77.358643 232.381223 
L 82.239497 232.301491 
L 87.120351 232.429062 
L 92.001205 232.301491 
L 96.882059 232.381223 
L 101.762913 232.429062 
L 106.643767 232.110135 
L 111.524621 232.381223 
L 116.405475 232.301491 
L 121.286329 232.381223 
L 126.167183 232.381223 
L 131.048037 232.381223 
L 135.928891 232.429062 
L 140.809745 232.301491 
L 145.690599 232.301491 
L 150.571453 232.301491 
L 155.452307 232.429062 
L 160.333161 231.759316 
L 165.214015 232.381223 
L 170.094869 232.429062 
L 174.975723 232.301491 
L 179.856577 232.301491 
L 184.737431 232.636364 
L 189.618285 232.381223 
L 194.499139 232.301491 
L 199.379993 232.429062 
L 204.260847 232.301491 
L 209.141701 232.301491 
L 214.022555 232.381223 
L 218.903409 232.381223 
L 223.784263 232.429062 
L 228.665117 232.429062 
L 233.545971 232.301491 
L 238.426825 232.301491 
L 243.307679 232.381223 
L 248.188533 232.157974 
L 253.069387 232.301491 
L 257.950241 232.301491 
L 262.831095 232.381223 
L 267.711949 232.221759 
L 272.592803 232.157974 
L 277.473657 232.381223 
L 282.354511 232.301491 
L 287.235365 232.381223 
L 292.116219 232.381223 
L 296.997073 232.381223 
L 301.877927 232.381223 
L 306.758781 232.381223 
L 311.639635 232.381223 
L 316.520489 232.301491 
L 321.401343 232.429062 
L 326.282197 232.429062 
L 331.163051 232.301491 
L 336.043905 232.381223 
L 340.924759 232.429062 
L 345.805613 232.429062 
L 350.686467 232.381223 
L 355.567321 232.381223 
L 360.448175 232.381223 
L 365.329029 232.301491 
L 370.209883 232.429062 
L 375.090737 232.381223 
L 379.971591 232.429062 
L 384.852445 232.381223 
L 389.733299 232.221759 
L 394.614153 232.301491 
L 399.495007 232.381223 
L 404.375861 232.429062 
L 409.256715 232.381223 
L 414.137569 232.429062 
L 419.018423 232.301491 
L 423.899277 232.301491 
L 428.780131 232.301491 
L 433.660985 232.301491 
L 438.541839 232.301491 
L 443.422693 232.221759 
L 448.303547 232.221759 
L 453.184401 232.381223 
L 458.065255 232.429062 
L 462.946109 232.429062 
L 467.826963 232.301491 
L 472.707817 231.759316 
L 477.588671 232.301491 
L 482.469525 232.301491 
L 487.350379 232.381223 
L 492.231233 232.301491 
L 497.112087 232.301491 
L 501.992941 232.381223 
L 506.873795 232.301491 
L 511.754649 232.301491 
L 516.635503 232.381223 
L 521.516357 232.429062 
L 526.397211 232.429062 
L 531.278065 232.301491 
L 536.158919 232.301491 
L 541.039773 232.301491 
" style="fill:none;stroke:#fbc15e;stroke-linecap:square;stroke-width:1.5;"/>
   </g>
   <g id="patch_3">
    <path d="M 33.675 243.2 
L 33.675 10.8 
" style="fill:none;stroke:#ffffff;stroke-linecap:square;stroke-linejoin:miter;"/>
   </g>
   <g id="patch_4">
    <path d="M 565.2 243.2 
L 565.2 10.8 
" style="fill:none;stroke:#ffffff;stroke-linecap:square;stroke-linejoin:miter;"/>
   </g>
   <g id="patch_5">
    <path d="M 33.675 243.2 
L 565.2 243.2 
" style="fill:none;stroke:#ffffff;stroke-linecap:square;stroke-linejoin:miter;"/>
   </g>
   <g id="patch_6">
    <path d="M 33.675 10.8 
L 565.2 10.8 
" style="fill:none;stroke:#ffffff;stroke-linecap:square;stroke-linejoin:miter;"/>
   </g>
   <g id="legend_1">
    <g id="patch_7">
     <path d="M 447.135938 165.195312 
L 558.2 165.195312 
Q 560.2 165.195312 560.2 163.195312 
L 560.2 90.804688 
Q 560.2 88.804688 558.2 88.804688 
L 447.135938 88.804688 
Q 445.135938 88.804688 445.135938 90.804688 
L 445.135938 163.195312 
Q 445.135938 165.195312 447.135938 165.195312 
z
" style="fill:#e5e5e5;opacity:0.8;stroke:#cccccc;stroke-linejoin:miter;stroke-width:0.5;"/>
    </g>
    <g id="line2d_28">
     <path d="M 449.135938 96.903125 
L 469.135938 96.903125 
" style="fill:none;stroke:#e24a33;stroke-linecap:square;stroke-width:1.5;"/>
    </g>
    <g id="line2d_29"/>
    <g id="text_13">
     <!-- l1 1e-05(valid) -->
     <g transform="translate(477.135938 100.403125)scale(0.1 -0.1)">
      <defs>
       <path d="M 603 4863 
L 1178 4863 
L 1178 0 
L 603 0 
L 603 4863 
z
" id="DejaVuSans-6c" transform="scale(0.015625)"/>
       <path d="M 313 2009 
L 1997 2009 
L 1997 1497 
L 313 1497 
L 313 2009 
z
" id="DejaVuSans-2d" transform="scale(0.015625)"/>
       <path d="M 691 4666 
L 3169 4666 
L 3169 4134 
L 1269 4134 
L 1269 2991 
Q 1406 3038 1543 3061 
Q 1681 3084 1819 3084 
Q 2600 3084 3056 2656 
Q 3513 2228 3513 1497 
Q 3513 744 3044 326 
Q 2575 -91 1722 -91 
Q 1428 -91 1123 -41 
Q 819 9 494 109 
L 494 744 
Q 775 591 1075 516 
Q 1375 441 1709 441 
Q 2250 441 2565 725 
Q 2881 1009 2881 1497 
Q 2881 1984 2565 2268 
Q 2250 2553 1709 2553 
Q 1456 2553 1204 2497 
Q 953 2441 691 2322 
L 691 4666 
z
" id="DejaVuSans-35" transform="scale(0.015625)"/>
       <path d="M 1984 4856 
Q 1566 4138 1362 3434 
Q 1159 2731 1159 2009 
Q 1159 1288 1364 580 
Q 1569 -128 1984 -844 
L 1484 -844 
Q 1016 -109 783 600 
Q 550 1309 550 2009 
Q 550 2706 781 3412 
Q 1013 4119 1484 4856 
L 1984 4856 
z
" id="DejaVuSans-28" transform="scale(0.015625)"/>
       <path d="M 191 3500 
L 800 3500 
L 1894 563 
L 2988 3500 
L 3597 3500 
L 2284 0 
L 1503 0 
L 191 3500 
z
" id="DejaVuSans-76" transform="scale(0.015625)"/>
       <path d="M 2194 1759 
Q 1497 1759 1228 1600 
Q 959 1441 959 1056 
Q 959 750 1161 570 
Q 1363 391 1709 391 
Q 2188 391 2477 730 
Q 2766 1069 2766 1631 
L 2766 1759 
L 2194 1759 
z
M 3341 1997 
L 3341 0 
L 2766 0 
L 2766 531 
Q 2569 213 2275 61 
Q 1981 -91 1556 -91 
Q 1019 -91 701 211 
Q 384 513 384 1019 
Q 384 1609 779 1909 
Q 1175 2209 1959 2209 
L 2766 2209 
L 2766 2266 
Q 2766 2663 2505 2880 
Q 2244 3097 1772 3097 
Q 1472 3097 1187 3025 
Q 903 2953 641 2809 
L 641 3341 
Q 956 3463 1253 3523 
Q 1550 3584 1831 3584 
Q 2591 3584 2966 3190 
Q 3341 2797 3341 1997 
z
" id="DejaVuSans-61" transform="scale(0.015625)"/>
       <path d="M 603 3500 
L 1178 3500 
L 1178 0 
L 603 0 
L 603 3500 
z
M 603 4863 
L 1178 4863 
L 1178 4134 
L 603 4134 
L 603 4863 
z
" id="DejaVuSans-69" transform="scale(0.015625)"/>
       <path d="M 2906 2969 
L 2906 4863 
L 3481 4863 
L 3481 0 
L 2906 0 
L 2906 525 
Q 2725 213 2448 61 
Q 2172 -91 1784 -91 
Q 1150 -91 751 415 
Q 353 922 353 1747 
Q 353 2572 751 3078 
Q 1150 3584 1784 3584 
Q 2172 3584 2448 3432 
Q 2725 3281 2906 2969 
z
M 947 1747 
Q 947 1113 1208 752 
Q 1469 391 1925 391 
Q 2381 391 2643 752 
Q 2906 1113 2906 1747 
Q 2906 2381 2643 2742 
Q 2381 3103 1925 3103 
Q 1469 3103 1208 2742 
Q 947 2381 947 1747 
z
" id="DejaVuSans-64" transform="scale(0.015625)"/>
       <path d="M 513 4856 
L 1013 4856 
Q 1481 4119 1714 3412 
Q 1947 2706 1947 2009 
Q 1947 1309 1714 600 
Q 1481 -109 1013 -844 
L 513 -844 
Q 928 -128 1133 580 
Q 1338 1288 1338 2009 
Q 1338 2731 1133 3434 
Q 928 4138 513 4856 
z
" id="DejaVuSans-29" transform="scale(0.015625)"/>
      </defs>
      <use xlink:href="#DejaVuSans-6c"/>
      <use x="27.783203" xlink:href="#DejaVuSans-31"/>
      <use x="91.40625" xlink:href="#DejaVuSans-20"/>
      <use x="123.193359" xlink:href="#DejaVuSans-31"/>
      <use x="186.816406" xlink:href="#DejaVuSans-65"/>
      <use x="248.339844" xlink:href="#DejaVuSans-2d"/>
      <use x="284.423828" xlink:href="#DejaVuSans-30"/>
      <use x="348.046875" xlink:href="#DejaVuSans-35"/>
      <use x="411.669922" xlink:href="#DejaVuSans-28"/>
      <use x="450.683594" xlink:href="#DejaVuSans-76"/>
      <use x="509.863281" xlink:href="#DejaVuSans-61"/>
      <use x="571.142578" xlink:href="#DejaVuSans-6c"/>
      <use x="598.925781" xlink:href="#DejaVuSans-69"/>
      <use x="626.708984" xlink:href="#DejaVuSans-64"/>
      <use x="690.185547" xlink:href="#DejaVuSans-29"/>
     </g>
    </g>
    <g id="line2d_30">
     <path d="M 449.135938 111.58125 
L 469.135938 111.58125 
" style="fill:none;stroke:#348abd;stroke-linecap:square;stroke-width:1.5;"/>
    </g>
    <g id="line2d_31"/>
    <g id="text_14">
     <!-- l1 0.0001(valid) -->
     <g transform="translate(477.135938 115.08125)scale(0.1 -0.1)">
      <use xlink:href="#DejaVuSans-6c"/>
      <use x="27.783203" xlink:href="#DejaVuSans-31"/>
      <use x="91.40625" xlink:href="#DejaVuSans-20"/>
      <use x="123.193359" xlink:href="#DejaVuSans-30"/>
      <use x="186.816406" xlink:href="#DejaVuSans-2e"/>
      <use x="218.603516" xlink:href="#DejaVuSans-30"/>
      <use x="282.226562" xlink:href="#DejaVuSans-30"/>
      <use x="345.849609" xlink:href="#DejaVuSans-30"/>
      <use x="409.472656" xlink:href="#DejaVuSans-31"/>
      <use x="473.095703" xlink:href="#DejaVuSans-28"/>
      <use x="512.109375" xlink:href="#DejaVuSans-76"/>
      <use x="571.289062" xlink:href="#DejaVuSans-61"/>
      <use x="632.568359" xlink:href="#DejaVuSans-6c"/>
      <use x="660.351562" xlink:href="#DejaVuSans-69"/>
      <use x="688.134766" xlink:href="#DejaVuSans-64"/>
      <use x="751.611328" xlink:href="#DejaVuSans-29"/>
     </g>
    </g>
    <g id="line2d_32">
     <path d="M 449.135938 126.259375 
L 469.135938 126.259375 
" style="fill:none;stroke:#988ed5;stroke-linecap:square;stroke-width:1.5;"/>
    </g>
    <g id="line2d_33"/>
    <g id="text_15">
     <!-- l1 0.001(valid) -->
     <g transform="translate(477.135938 129.759375)scale(0.1 -0.1)">
      <use xlink:href="#DejaVuSans-6c"/>
      <use x="27.783203" xlink:href="#DejaVuSans-31"/>
      <use x="91.40625" xlink:href="#DejaVuSans-20"/>
      <use x="123.193359" xlink:href="#DejaVuSans-30"/>
      <use x="186.816406" xlink:href="#DejaVuSans-2e"/>
      <use x="218.603516" xlink:href="#DejaVuSans-30"/>
      <use x="282.226562" xlink:href="#DejaVuSans-30"/>
      <use x="345.849609" xlink:href="#DejaVuSans-31"/>
      <use x="409.472656" xlink:href="#DejaVuSans-28"/>
      <use x="448.486328" xlink:href="#DejaVuSans-76"/>
      <use x="507.666016" xlink:href="#DejaVuSans-61"/>
      <use x="568.945312" xlink:href="#DejaVuSans-6c"/>
      <use x="596.728516" xlink:href="#DejaVuSans-69"/>
      <use x="624.511719" xlink:href="#DejaVuSans-64"/>
      <use x="687.988281" xlink:href="#DejaVuSans-29"/>
     </g>
    </g>
    <g id="line2d_34">
     <path d="M 449.135938 140.9375 
L 469.135938 140.9375 
" style="fill:none;stroke:#777777;stroke-linecap:square;stroke-width:1.5;"/>
    </g>
    <g id="line2d_35"/>
    <g id="text_16">
     <!-- l1 0.01(valid) -->
     <g transform="translate(477.135938 144.4375)scale(0.1 -0.1)">
      <use xlink:href="#DejaVuSans-6c"/>
      <use x="27.783203" xlink:href="#DejaVuSans-31"/>
      <use x="91.40625" xlink:href="#DejaVuSans-20"/>
      <use x="123.193359" xlink:href="#DejaVuSans-30"/>
      <use x="186.816406" xlink:href="#DejaVuSans-2e"/>
      <use x="218.603516" xlink:href="#DejaVuSans-30"/>
      <use x="282.226562" xlink:href="#DejaVuSans-31"/>
      <use x="345.849609" xlink:href="#DejaVuSans-28"/>
      <use x="384.863281" xlink:href="#DejaVuSans-76"/>
      <use x="444.042969" xlink:href="#DejaVuSans-61"/>
      <use x="505.322266" xlink:href="#DejaVuSans-6c"/>
      <use x="533.105469" xlink:href="#DejaVuSans-69"/>
      <use x="560.888672" xlink:href="#DejaVuSans-64"/>
      <use x="624.365234" xlink:href="#DejaVuSans-29"/>
     </g>
    </g>
    <g id="line2d_36">
     <path d="M 449.135938 155.615625 
L 469.135938 155.615625 
" style="fill:none;stroke:#fbc15e;stroke-linecap:square;stroke-width:1.5;"/>
    </g>
    <g id="line2d_37"/>
    <g id="text_17">
     <!-- l1 0.1(valid) -->
     <g transform="translate(477.135938 159.115625)scale(0.1 -0.1)">
      <use xlink:href="#DejaVuSans-6c"/>
      <use x="27.783203" xlink:href="#DejaVuSans-31"/>
      <use x="91.40625" xlink:href="#DejaVuSans-20"/>
      <use x="123.193359" xlink:href="#DejaVuSans-30"/>
      <use x="186.816406" xlink:href="#DejaVuSans-2e"/>
      <use x="218.603516" xlink:href="#DejaVuSans-31"/>
      <use x="282.226562" xlink:href="#DejaVuSans-28"/>
      <use x="321.240234" xlink:href="#DejaVuSans-76"/>
      <use x="380.419922" xlink:href="#DejaVuSans-61"/>
      <use x="441.699219" xlink:href="#DejaVuSans-6c"/>
      <use x="469.482422" xlink:href="#DejaVuSans-69"/>
      <use x="497.265625" xlink:href="#DejaVuSans-64"/>
      <use x="560.742188" xlink:href="#DejaVuSans-29"/>
     </g>
    </g>
   </g>
  </g>
 </g>
 <defs>
  <clipPath id="p21fe9c19f8">
   <rect height="232.4" width="531.525" x="33.675" y="10.8"/>
  </clipPath>
 </defs>
</svg>
