<?xml version="1.0" encoding="utf-8" standalone="no"?>
<!DOCTYPE svg PUBLIC "-//W3C//DTD SVG 1.1//EN"
  "http://www.w3.org/Graphics/SVG/1.1/DTD/svg11.dtd">
<svg height="288pt" version="1.1" viewBox="0 0 576 288" width="576pt" xmlns="http://www.w3.org/2000/svg" xmlns:xlink="http://www.w3.org/1999/xlink">
 <metadata>
  <rdf:RDF xmlns:cc="http://creativecommons.org/ns#" xmlns:dc="http://purl.org/dc/elements/1.1/" xmlns:rdf="http://www.w3.org/1999/02/22-rdf-syntax-ns#">
   <cc:Work>
    <dc:type rdf:resource="http://purl.org/dc/dcmitype/StillImage"/>
    <dc:date>2021-11-04T21:11:32.685225</dc:date>
    <dc:format>image/svg+xml</dc:format>
    <dc:creator>
     <cc:Agent>
      <dc:title>Matplotlib v3.4.3, https://matplotlib.org/</dc:title>
     </cc:Agent>
    </dc:creator>
   </cc:Work>
  </rdf:RDF>
 </metadata>
 <defs>
  <style type="text/css">*{stroke-linecap:butt;stroke-linejoin:round;}</style>
 </defs>
 <g id="figure_1">
  <g id="patch_1">
   <path d="M 0 288 
L 576 288 
L 576 0 
L 0 0 
z
" style="fill:#ffffff;"/>
  </g>
  <g id="axes_1">
   <g id="patch_2">
    <path d="M 33.8 243.2 
L 565.2 243.2 
L 565.2 13.528679 
L 33.8 13.528679 
z
" style="fill:#e5e5e5;"/>
   </g>
   <g id="matplotlib.axis_1">
    <g id="xtick_1">
     <g id="line2d_1">
      <path clip-path="url(#pd8a919c4de)" d="M 53.074839 243.2 
L 53.074839 13.528679 
" style="fill:none;stroke:#ffffff;stroke-linecap:square;stroke-width:0.8;"/>
     </g>
     <g id="line2d_2">
      <defs>
       <path d="M 0 0 
L 0 3.5 
" id="m1eca9a6b63" style="stroke:#555555;stroke-width:0.8;"/>
      </defs>
      <g>
       <use style="fill:#555555;stroke:#555555;stroke-width:0.8;" x="53.074839" xlink:href="#m1eca9a6b63" y="243.2"/>
      </g>
     </g>
     <g id="text_1">
      <!-- 0 -->
      <g style="fill:#555555;" transform="translate(49.893589 257.798437)scale(0.1 -0.1)">
       <defs>
        <path d="M 2034 4250 
Q 1547 4250 1301 3770 
Q 1056 3291 1056 2328 
Q 1056 1369 1301 889 
Q 1547 409 2034 409 
Q 2525 409 2770 889 
Q 3016 1369 3016 2328 
Q 3016 3291 2770 3770 
Q 2525 4250 2034 4250 
z
M 2034 4750 
Q 2819 4750 3233 4129 
Q 3647 3509 3647 2328 
Q 3647 1150 3233 529 
Q 2819 -91 2034 -91 
Q 1250 -91 836 529 
Q 422 1150 422 2328 
Q 422 3509 836 4129 
Q 1250 4750 2034 4750 
z
" id="DejaVuSans-30" transform="scale(0.015625)"/>
       </defs>
       <use xlink:href="#DejaVuSans-30"/>
      </g>
     </g>
    </g>
    <g id="xtick_2">
     <g id="line2d_3">
      <path clip-path="url(#pd8a919c4de)" d="M 150.668962 243.2 
L 150.668962 13.528679 
" style="fill:none;stroke:#ffffff;stroke-linecap:square;stroke-width:0.8;"/>
     </g>
     <g id="line2d_4">
      <g>
       <use style="fill:#555555;stroke:#555555;stroke-width:0.8;" x="150.668962" xlink:href="#m1eca9a6b63" y="243.2"/>
      </g>
     </g>
     <g id="text_2">
      <!-- 20 -->
      <g style="fill:#555555;" transform="translate(144.306462 257.798437)scale(0.1 -0.1)">
       <defs>
        <path d="M 1228 531 
L 3431 531 
L 3431 0 
L 469 0 
L 469 531 
Q 828 903 1448 1529 
Q 2069 2156 2228 2338 
Q 2531 2678 2651 2914 
Q 2772 3150 2772 3378 
Q 2772 3750 2511 3984 
Q 2250 4219 1831 4219 
Q 1534 4219 1204 4116 
Q 875 4013 500 3803 
L 500 4441 
Q 881 4594 1212 4672 
Q 1544 4750 1819 4750 
Q 2544 4750 2975 4387 
Q 3406 4025 3406 3419 
Q 3406 3131 3298 2873 
Q 3191 2616 2906 2266 
Q 2828 2175 2409 1742 
Q 1991 1309 1228 531 
z
" id="DejaVuSans-32" transform="scale(0.015625)"/>
       </defs>
       <use xlink:href="#DejaVuSans-32"/>
       <use x="63.623047" xlink:href="#DejaVuSans-30"/>
      </g>
     </g>
    </g>
    <g id="xtick_3">
     <g id="line2d_5">
      <path clip-path="url(#pd8a919c4de)" d="M 248.263085 243.2 
L 248.263085 13.528679 
" style="fill:none;stroke:#ffffff;stroke-linecap:square;stroke-width:0.8;"/>
     </g>
     <g id="line2d_6">
      <g>
       <use style="fill:#555555;stroke:#555555;stroke-width:0.8;" x="248.263085" xlink:href="#m1eca9a6b63" y="243.2"/>
      </g>
     </g>
     <g id="text_3">
      <!-- 40 -->
      <g style="fill:#555555;" transform="translate(241.900585 257.798437)scale(0.1 -0.1)">
       <defs>
        <path d="M 2419 4116 
L 825 1625 
L 2419 1625 
L 2419 4116 
z
M 2253 4666 
L 3047 4666 
L 3047 1625 
L 3713 1625 
L 3713 1100 
L 3047 1100 
L 3047 0 
L 2419 0 
L 2419 1100 
L 313 1100 
L 313 1709 
L 2253 4666 
z
" id="DejaVuSans-34" transform="scale(0.015625)"/>
       </defs>
       <use xlink:href="#DejaVuSans-34"/>
       <use x="63.623047" xlink:href="#DejaVuSans-30"/>
      </g>
     </g>
    </g>
    <g id="xtick_4">
     <g id="line2d_7">
      <path clip-path="url(#pd8a919c4de)" d="M 345.857208 243.2 
L 345.857208 13.528679 
" style="fill:none;stroke:#ffffff;stroke-linecap:square;stroke-width:0.8;"/>
     </g>
     <g id="line2d_8">
      <g>
       <use style="fill:#555555;stroke:#555555;stroke-width:0.8;" x="345.857208" xlink:href="#m1eca9a6b63" y="243.2"/>
      </g>
     </g>
     <g id="text_4">
      <!-- 60 -->
      <g style="fill:#555555;" transform="translate(339.494708 257.798437)scale(0.1 -0.1)">
       <defs>
        <path d="M 2113 2584 
Q 1688 2584 1439 2293 
Q 1191 2003 1191 1497 
Q 1191 994 1439 701 
Q 1688 409 2113 409 
Q 2538 409 2786 701 
Q 3034 994 3034 1497 
Q 3034 2003 2786 2293 
Q 2538 2584 2113 2584 
z
M 3366 4563 
L 3366 3988 
Q 3128 4100 2886 4159 
Q 2644 4219 2406 4219 
Q 1781 4219 1451 3797 
Q 1122 3375 1075 2522 
Q 1259 2794 1537 2939 
Q 1816 3084 2150 3084 
Q 2853 3084 3261 2657 
Q 3669 2231 3669 1497 
Q 3669 778 3244 343 
Q 2819 -91 2113 -91 
Q 1303 -91 875 529 
Q 447 1150 447 2328 
Q 447 3434 972 4092 
Q 1497 4750 2381 4750 
Q 2619 4750 2861 4703 
Q 3103 4656 3366 4563 
z
" id="DejaVuSans-36" transform="scale(0.015625)"/>
       </defs>
       <use xlink:href="#DejaVuSans-36"/>
       <use x="63.623047" xlink:href="#DejaVuSans-30"/>
      </g>
     </g>
    </g>
    <g id="xtick_5">
     <g id="line2d_9">
      <path clip-path="url(#pd8a919c4de)" d="M 443.451331 243.2 
L 443.451331 13.528679 
" style="fill:none;stroke:#ffffff;stroke-linecap:square;stroke-width:0.8;"/>
     </g>
     <g id="line2d_10">
      <g>
       <use style="fill:#555555;stroke:#555555;stroke-width:0.8;" x="443.451331" xlink:href="#m1eca9a6b63" y="243.2"/>
      </g>
     </g>
     <g id="text_5">
      <!-- 80 -->
      <g style="fill:#555555;" transform="translate(437.088831 257.798437)scale(0.1 -0.1)">
       <defs>
        <path d="M 2034 2216 
Q 1584 2216 1326 1975 
Q 1069 1734 1069 1313 
Q 1069 891 1326 650 
Q 1584 409 2034 409 
Q 2484 409 2743 651 
Q 3003 894 3003 1313 
Q 3003 1734 2745 1975 
Q 2488 2216 2034 2216 
z
M 1403 2484 
Q 997 2584 770 2862 
Q 544 3141 544 3541 
Q 544 4100 942 4425 
Q 1341 4750 2034 4750 
Q 2731 4750 3128 4425 
Q 3525 4100 3525 3541 
Q 3525 3141 3298 2862 
Q 3072 2584 2669 2484 
Q 3125 2378 3379 2068 
Q 3634 1759 3634 1313 
Q 3634 634 3220 271 
Q 2806 -91 2034 -91 
Q 1263 -91 848 271 
Q 434 634 434 1313 
Q 434 1759 690 2068 
Q 947 2378 1403 2484 
z
M 1172 3481 
Q 1172 3119 1398 2916 
Q 1625 2713 2034 2713 
Q 2441 2713 2670 2916 
Q 2900 3119 2900 3481 
Q 2900 3844 2670 4047 
Q 2441 4250 2034 4250 
Q 1625 4250 1398 4047 
Q 1172 3844 1172 3481 
z
" id="DejaVuSans-38" transform="scale(0.015625)"/>
       </defs>
       <use xlink:href="#DejaVuSans-38"/>
       <use x="63.623047" xlink:href="#DejaVuSans-30"/>
      </g>
     </g>
    </g>
    <g id="xtick_6">
     <g id="line2d_11">
      <path clip-path="url(#pd8a919c4de)" d="M 541.045455 243.2 
L 541.045455 13.528679 
" style="fill:none;stroke:#ffffff;stroke-linecap:square;stroke-width:0.8;"/>
     </g>
     <g id="line2d_12">
      <g>
       <use style="fill:#555555;stroke:#555555;stroke-width:0.8;" x="541.045455" xlink:href="#m1eca9a6b63" y="243.2"/>
      </g>
     </g>
     <g id="text_6">
      <!-- 100 -->
      <g style="fill:#555555;" transform="translate(531.501705 257.798437)scale(0.1 -0.1)">
       <defs>
        <path d="M 794 531 
L 1825 531 
L 1825 4091 
L 703 3866 
L 703 4441 
L 1819 4666 
L 2450 4666 
L 2450 531 
L 3481 531 
L 3481 0 
L 794 0 
L 794 531 
z
" id="DejaVuSans-31" transform="scale(0.015625)"/>
       </defs>
       <use xlink:href="#DejaVuSans-31"/>
       <use x="63.623047" xlink:href="#DejaVuSans-30"/>
       <use x="127.246094" xlink:href="#DejaVuSans-30"/>
      </g>
     </g>
    </g>
    <g id="text_7">
     <!-- Epoch number -->
     <g style="fill:#555555;" transform="translate(255.803125 272.99625)scale(0.12 -0.12)">
      <defs>
       <path d="M 628 4666 
L 3578 4666 
L 3578 4134 
L 1259 4134 
L 1259 2753 
L 3481 2753 
L 3481 2222 
L 1259 2222 
L 1259 531 
L 3634 531 
L 3634 0 
L 628 0 
L 628 4666 
z
" id="DejaVuSans-45" transform="scale(0.015625)"/>
       <path d="M 1159 525 
L 1159 -1331 
L 581 -1331 
L 581 3500 
L 1159 3500 
L 1159 2969 
Q 1341 3281 1617 3432 
Q 1894 3584 2278 3584 
Q 2916 3584 3314 3078 
Q 3713 2572 3713 1747 
Q 3713 922 3314 415 
Q 2916 -91 2278 -91 
Q 1894 -91 1617 61 
Q 1341 213 1159 525 
z
M 3116 1747 
Q 3116 2381 2855 2742 
Q 2594 3103 2138 3103 
Q 1681 3103 1420 2742 
Q 1159 2381 1159 1747 
Q 1159 1113 1420 752 
Q 1681 391 2138 391 
Q 2594 391 2855 752 
Q 3116 1113 3116 1747 
z
" id="DejaVuSans-70" transform="scale(0.015625)"/>
       <path d="M 1959 3097 
Q 1497 3097 1228 2736 
Q 959 2375 959 1747 
Q 959 1119 1226 758 
Q 1494 397 1959 397 
Q 2419 397 2687 759 
Q 2956 1122 2956 1747 
Q 2956 2369 2687 2733 
Q 2419 3097 1959 3097 
z
M 1959 3584 
Q 2709 3584 3137 3096 
Q 3566 2609 3566 1747 
Q 3566 888 3137 398 
Q 2709 -91 1959 -91 
Q 1206 -91 779 398 
Q 353 888 353 1747 
Q 353 2609 779 3096 
Q 1206 3584 1959 3584 
z
" id="DejaVuSans-6f" transform="scale(0.015625)"/>
       <path d="M 3122 3366 
L 3122 2828 
Q 2878 2963 2633 3030 
Q 2388 3097 2138 3097 
Q 1578 3097 1268 2742 
Q 959 2388 959 1747 
Q 959 1106 1268 751 
Q 1578 397 2138 397 
Q 2388 397 2633 464 
Q 2878 531 3122 666 
L 3122 134 
Q 2881 22 2623 -34 
Q 2366 -91 2075 -91 
Q 1284 -91 818 406 
Q 353 903 353 1747 
Q 353 2603 823 3093 
Q 1294 3584 2113 3584 
Q 2378 3584 2631 3529 
Q 2884 3475 3122 3366 
z
" id="DejaVuSans-63" transform="scale(0.015625)"/>
       <path d="M 3513 2113 
L 3513 0 
L 2938 0 
L 2938 2094 
Q 2938 2591 2744 2837 
Q 2550 3084 2163 3084 
Q 1697 3084 1428 2787 
Q 1159 2491 1159 1978 
L 1159 0 
L 581 0 
L 581 4863 
L 1159 4863 
L 1159 2956 
Q 1366 3272 1645 3428 
Q 1925 3584 2291 3584 
Q 2894 3584 3203 3211 
Q 3513 2838 3513 2113 
z
" id="DejaVuSans-68" transform="scale(0.015625)"/>
       <path id="DejaVuSans-20" transform="scale(0.015625)"/>
       <path d="M 3513 2113 
L 3513 0 
L 2938 0 
L 2938 2094 
Q 2938 2591 2744 2837 
Q 2550 3084 2163 3084 
Q 1697 3084 1428 2787 
Q 1159 2491 1159 1978 
L 1159 0 
L 581 0 
L 581 3500 
L 1159 3500 
L 1159 2956 
Q 1366 3272 1645 3428 
Q 1925 3584 2291 3584 
Q 2894 3584 3203 3211 
Q 3513 2838 3513 2113 
z
" id="DejaVuSans-6e" transform="scale(0.015625)"/>
       <path d="M 544 1381 
L 544 3500 
L 1119 3500 
L 1119 1403 
Q 1119 906 1312 657 
Q 1506 409 1894 409 
Q 2359 409 2629 706 
Q 2900 1003 2900 1516 
L 2900 3500 
L 3475 3500 
L 3475 0 
L 2900 0 
L 2900 538 
Q 2691 219 2414 64 
Q 2138 -91 1772 -91 
Q 1169 -91 856 284 
Q 544 659 544 1381 
z
M 1991 3584 
L 1991 3584 
z
" id="DejaVuSans-75" transform="scale(0.015625)"/>
       <path d="M 3328 2828 
Q 3544 3216 3844 3400 
Q 4144 3584 4550 3584 
Q 5097 3584 5394 3201 
Q 5691 2819 5691 2113 
L 5691 0 
L 5113 0 
L 5113 2094 
Q 5113 2597 4934 2840 
Q 4756 3084 4391 3084 
Q 3944 3084 3684 2787 
Q 3425 2491 3425 1978 
L 3425 0 
L 2847 0 
L 2847 2094 
Q 2847 2600 2669 2842 
Q 2491 3084 2119 3084 
Q 1678 3084 1418 2786 
Q 1159 2488 1159 1978 
L 1159 0 
L 581 0 
L 581 3500 
L 1159 3500 
L 1159 2956 
Q 1356 3278 1631 3431 
Q 1906 3584 2284 3584 
Q 2666 3584 2933 3390 
Q 3200 3197 3328 2828 
z
" id="DejaVuSans-6d" transform="scale(0.015625)"/>
       <path d="M 3116 1747 
Q 3116 2381 2855 2742 
Q 2594 3103 2138 3103 
Q 1681 3103 1420 2742 
Q 1159 2381 1159 1747 
Q 1159 1113 1420 752 
Q 1681 391 2138 391 
Q 2594 391 2855 752 
Q 3116 1113 3116 1747 
z
M 1159 2969 
Q 1341 3281 1617 3432 
Q 1894 3584 2278 3584 
Q 2916 3584 3314 3078 
Q 3713 2572 3713 1747 
Q 3713 922 3314 415 
Q 2916 -91 2278 -91 
Q 1894 -91 1617 61 
Q 1341 213 1159 525 
L 1159 0 
L 581 0 
L 581 4863 
L 1159 4863 
L 1159 2969 
z
" id="DejaVuSans-62" transform="scale(0.015625)"/>
       <path d="M 3597 1894 
L 3597 1613 
L 953 1613 
Q 991 1019 1311 708 
Q 1631 397 2203 397 
Q 2534 397 2845 478 
Q 3156 559 3463 722 
L 3463 178 
Q 3153 47 2828 -22 
Q 2503 -91 2169 -91 
Q 1331 -91 842 396 
Q 353 884 353 1716 
Q 353 2575 817 3079 
Q 1281 3584 2069 3584 
Q 2775 3584 3186 3129 
Q 3597 2675 3597 1894 
z
M 3022 2063 
Q 3016 2534 2758 2815 
Q 2500 3097 2075 3097 
Q 1594 3097 1305 2825 
Q 1016 2553 972 2059 
L 3022 2063 
z
" id="DejaVuSans-65" transform="scale(0.015625)"/>
       <path d="M 2631 2963 
Q 2534 3019 2420 3045 
Q 2306 3072 2169 3072 
Q 1681 3072 1420 2755 
Q 1159 2438 1159 1844 
L 1159 0 
L 581 0 
L 581 3500 
L 1159 3500 
L 1159 2956 
Q 1341 3275 1631 3429 
Q 1922 3584 2338 3584 
Q 2397 3584 2469 3576 
Q 2541 3569 2628 3553 
L 2631 2963 
z
" id="DejaVuSans-72" transform="scale(0.015625)"/>
      </defs>
      <use xlink:href="#DejaVuSans-45"/>
      <use x="63.183594" xlink:href="#DejaVuSans-70"/>
      <use x="126.660156" xlink:href="#DejaVuSans-6f"/>
      <use x="187.841797" xlink:href="#DejaVuSans-63"/>
      <use x="242.822266" xlink:href="#DejaVuSans-68"/>
      <use x="306.201172" xlink:href="#DejaVuSans-20"/>
      <use x="337.988281" xlink:href="#DejaVuSans-6e"/>
      <use x="401.367188" xlink:href="#DejaVuSans-75"/>
      <use x="464.746094" xlink:href="#DejaVuSans-6d"/>
      <use x="562.158203" xlink:href="#DejaVuSans-62"/>
      <use x="625.634766" xlink:href="#DejaVuSans-65"/>
      <use x="687.158203" xlink:href="#DejaVuSans-72"/>
     </g>
    </g>
   </g>
   <g id="matplotlib.axis_2">
    <g id="ytick_1">
     <g id="line2d_13">
      <path clip-path="url(#pd8a919c4de)" d="M 33.8 228.174519 
L 565.2 228.174519 
" style="fill:none;stroke:#ffffff;stroke-linecap:square;stroke-width:0.8;"/>
     </g>
     <g id="line2d_14">
      <defs>
       <path d="M 0 0 
L -3.5 0 
" id="m7d864c4e11" style="stroke:#555555;stroke-width:0.8;"/>
      </defs>
      <g>
       <use style="fill:#555555;stroke:#555555;stroke-width:0.8;" x="33.8" xlink:href="#m7d864c4e11" y="228.174519"/>
      </g>
     </g>
     <g id="text_8">
      <!-- 0.5 -->
      <g style="fill:#555555;" transform="translate(10.896875 231.973738)scale(0.1 -0.1)">
       <defs>
        <path d="M 684 794 
L 1344 794 
L 1344 0 
L 684 0 
L 684 794 
z
" id="DejaVuSans-2e" transform="scale(0.015625)"/>
        <path d="M 691 4666 
L 3169 4666 
L 3169 4134 
L 1269 4134 
L 1269 2991 
Q 1406 3038 1543 3061 
Q 1681 3084 1819 3084 
Q 2600 3084 3056 2656 
Q 3513 2228 3513 1497 
Q 3513 744 3044 326 
Q 2575 -91 1722 -91 
Q 1428 -91 1123 -41 
Q 819 9 494 109 
L 494 744 
Q 775 591 1075 516 
Q 1375 441 1709 441 
Q 2250 441 2565 725 
Q 2881 1009 2881 1497 
Q 2881 1984 2565 2268 
Q 2250 2553 1709 2553 
Q 1456 2553 1204 2497 
Q 953 2441 691 2322 
L 691 4666 
z
" id="DejaVuSans-35" transform="scale(0.015625)"/>
       </defs>
       <use xlink:href="#DejaVuSans-30"/>
       <use x="63.623047" xlink:href="#DejaVuSans-2e"/>
       <use x="95.410156" xlink:href="#DejaVuSans-35"/>
      </g>
     </g>
    </g>
    <g id="ytick_2">
     <g id="line2d_15">
      <path clip-path="url(#pd8a919c4de)" d="M 33.8 197.702661 
L 565.2 197.702661 
" style="fill:none;stroke:#ffffff;stroke-linecap:square;stroke-width:0.8;"/>
     </g>
     <g id="line2d_16">
      <g>
       <use style="fill:#555555;stroke:#555555;stroke-width:0.8;" x="33.8" xlink:href="#m7d864c4e11" y="197.702661"/>
      </g>
     </g>
     <g id="text_9">
      <!-- 1.0 -->
      <g style="fill:#555555;" transform="translate(10.896875 201.50188)scale(0.1 -0.1)">
       <use xlink:href="#DejaVuSans-31"/>
       <use x="63.623047" xlink:href="#DejaVuSans-2e"/>
       <use x="95.410156" xlink:href="#DejaVuSans-30"/>
      </g>
     </g>
    </g>
    <g id="ytick_3">
     <g id="line2d_17">
      <path clip-path="url(#pd8a919c4de)" d="M 33.8 167.230803 
L 565.2 167.230803 
" style="fill:none;stroke:#ffffff;stroke-linecap:square;stroke-width:0.8;"/>
     </g>
     <g id="line2d_18">
      <g>
       <use style="fill:#555555;stroke:#555555;stroke-width:0.8;" x="33.8" xlink:href="#m7d864c4e11" y="167.230803"/>
      </g>
     </g>
     <g id="text_10">
      <!-- 1.5 -->
      <g style="fill:#555555;" transform="translate(10.896875 171.030022)scale(0.1 -0.1)">
       <use xlink:href="#DejaVuSans-31"/>
       <use x="63.623047" xlink:href="#DejaVuSans-2e"/>
       <use x="95.410156" xlink:href="#DejaVuSans-35"/>
      </g>
     </g>
    </g>
    <g id="ytick_4">
     <g id="line2d_19">
      <path clip-path="url(#pd8a919c4de)" d="M 33.8 136.758945 
L 565.2 136.758945 
" style="fill:none;stroke:#ffffff;stroke-linecap:square;stroke-width:0.8;"/>
     </g>
     <g id="line2d_20">
      <g>
       <use style="fill:#555555;stroke:#555555;stroke-width:0.8;" x="33.8" xlink:href="#m7d864c4e11" y="136.758945"/>
      </g>
     </g>
     <g id="text_11">
      <!-- 2.0 -->
      <g style="fill:#555555;" transform="translate(10.896875 140.558164)scale(0.1 -0.1)">
       <use xlink:href="#DejaVuSans-32"/>
       <use x="63.623047" xlink:href="#DejaVuSans-2e"/>
       <use x="95.410156" xlink:href="#DejaVuSans-30"/>
      </g>
     </g>
    </g>
    <g id="ytick_5">
     <g id="line2d_21">
      <path clip-path="url(#pd8a919c4de)" d="M 33.8 106.287087 
L 565.2 106.287087 
" style="fill:none;stroke:#ffffff;stroke-linecap:square;stroke-width:0.8;"/>
     </g>
     <g id="line2d_22">
      <g>
       <use style="fill:#555555;stroke:#555555;stroke-width:0.8;" x="33.8" xlink:href="#m7d864c4e11" y="106.287087"/>
      </g>
     </g>
     <g id="text_12">
      <!-- 2.5 -->
      <g style="fill:#555555;" transform="translate(10.896875 110.086306)scale(0.1 -0.1)">
       <use xlink:href="#DejaVuSans-32"/>
       <use x="63.623047" xlink:href="#DejaVuSans-2e"/>
       <use x="95.410156" xlink:href="#DejaVuSans-35"/>
      </g>
     </g>
    </g>
    <g id="ytick_6">
     <g id="line2d_23">
      <path clip-path="url(#pd8a919c4de)" d="M 33.8 75.81523 
L 565.2 75.81523 
" style="fill:none;stroke:#ffffff;stroke-linecap:square;stroke-width:0.8;"/>
     </g>
     <g id="line2d_24">
      <g>
       <use style="fill:#555555;stroke:#555555;stroke-width:0.8;" x="33.8" xlink:href="#m7d864c4e11" y="75.81523"/>
      </g>
     </g>
     <g id="text_13">
      <!-- 3.0 -->
      <g style="fill:#555555;" transform="translate(10.896875 79.614448)scale(0.1 -0.1)">
       <defs>
        <path d="M 2597 2516 
Q 3050 2419 3304 2112 
Q 3559 1806 3559 1356 
Q 3559 666 3084 287 
Q 2609 -91 1734 -91 
Q 1441 -91 1130 -33 
Q 819 25 488 141 
L 488 750 
Q 750 597 1062 519 
Q 1375 441 1716 441 
Q 2309 441 2620 675 
Q 2931 909 2931 1356 
Q 2931 1769 2642 2001 
Q 2353 2234 1838 2234 
L 1294 2234 
L 1294 2753 
L 1863 2753 
Q 2328 2753 2575 2939 
Q 2822 3125 2822 3475 
Q 2822 3834 2567 4026 
Q 2313 4219 1838 4219 
Q 1578 4219 1281 4162 
Q 984 4106 628 3988 
L 628 4550 
Q 988 4650 1302 4700 
Q 1616 4750 1894 4750 
Q 2613 4750 3031 4423 
Q 3450 4097 3450 3541 
Q 3450 3153 3228 2886 
Q 3006 2619 2597 2516 
z
" id="DejaVuSans-33" transform="scale(0.015625)"/>
       </defs>
       <use xlink:href="#DejaVuSans-33"/>
       <use x="63.623047" xlink:href="#DejaVuSans-2e"/>
       <use x="95.410156" xlink:href="#DejaVuSans-30"/>
      </g>
     </g>
    </g>
    <g id="ytick_7">
     <g id="line2d_25">
      <path clip-path="url(#pd8a919c4de)" d="M 33.8 45.343372 
L 565.2 45.343372 
" style="fill:none;stroke:#ffffff;stroke-linecap:square;stroke-width:0.8;"/>
     </g>
     <g id="line2d_26">
      <g>
       <use style="fill:#555555;stroke:#555555;stroke-width:0.8;" x="33.8" xlink:href="#m7d864c4e11" y="45.343372"/>
      </g>
     </g>
     <g id="text_14">
      <!-- 3.5 -->
      <g style="fill:#555555;" transform="translate(10.896875 49.14259)scale(0.1 -0.1)">
       <use xlink:href="#DejaVuSans-33"/>
       <use x="63.623047" xlink:href="#DejaVuSans-2e"/>
       <use x="95.410156" xlink:href="#DejaVuSans-35"/>
      </g>
     </g>
    </g>
    <g id="ytick_8">
     <g id="line2d_27">
      <path clip-path="url(#pd8a919c4de)" d="M 33.8 14.871514 
L 565.2 14.871514 
" style="fill:none;stroke:#ffffff;stroke-linecap:square;stroke-width:0.8;"/>
     </g>
     <g id="line2d_28">
      <g>
       <use style="fill:#555555;stroke:#555555;stroke-width:0.8;" x="33.8" xlink:href="#m7d864c4e11" y="14.871514"/>
      </g>
     </g>
     <g id="text_15">
      <!-- 4.0 -->
      <g style="fill:#555555;" transform="translate(10.896875 18.670732)scale(0.1 -0.1)">
       <use xlink:href="#DejaVuSans-34"/>
       <use x="63.623047" xlink:href="#DejaVuSans-2e"/>
       <use x="95.410156" xlink:href="#DejaVuSans-30"/>
      </g>
     </g>
    </g>
   </g>
   <g id="line2d_29">
    <path clip-path="url(#pd8a919c4de)" d="M 57.954545 212.43657 
L 62.834252 221.676208 
L 67.713958 226.032744 
L 72.593664 226.172866 
L 77.47337 227.72466 
L 82.353076 228.167853 
L 87.232782 228.317608 
L 92.112489 228.479756 
L 96.992195 228.462055 
L 101.871901 228.915341 
L 106.751607 228.381699 
L 111.631313 228.237617 
L 116.511019 226.755321 
L 121.390725 226.444573 
L 126.270432 227.210359 
L 131.150138 226.491008 
L 136.029844 225.976712 
L 140.90955 225.278198 
L 145.789256 222.922943 
L 150.668962 224.45703 
L 155.548669 222.69707 
L 160.428375 223.288417 
L 165.308081 222.076032 
L 170.187787 222.620062 
L 175.067493 221.425047 
L 179.947199 220.063068 
L 184.826905 217.761839 
L 189.706612 216.922174 
L 194.586318 217.195838 
L 199.466024 216.321833 
L 204.34573 216.285584 
L 209.225436 216.06905 
L 214.105142 215.039181 
L 218.984848 214.36393 
L 223.864555 214.101255 
L 228.744261 212.588638 
L 233.623967 209.944316 
L 238.503673 212.229862 
L 243.383379 210.803303 
L 248.263085 210.096808 
L 253.142792 210.400261 
L 258.022498 209.262615 
L 262.902204 208.793201 
L 267.78191 207.601901 
L 272.661616 206.152087 
L 277.541322 205.4122 
L 282.421028 203.818054 
L 287.300735 202.930456 
L 292.180441 203.29611 
L 297.060147 204.129357 
L 301.939853 202.854 
L 306.819559 203.56158 
L 311.699265 200.215863 
L 316.578972 199.60661 
L 321.458678 200.147819 
L 326.338384 200.772131 
L 331.21809 198.543627 
L 336.097796 196.015434 
L 340.977502 197.896139 
L 345.857208 196.269648 
L 350.736915 194.523676 
L 355.616621 195.285237 
L 360.496327 194.431948 
L 365.376033 193.955838 
L 370.255739 192.828409 
L 375.135445 192.638312 
L 380.015152 193.053147 
L 384.894858 190.383783 
L 389.774564 187.898148 
L 394.65427 188.18782 
L 399.533976 188.87239 
L 404.413682 188.93737 
L 409.293388 190.256729 
L 414.173095 188.823729 
L 419.052801 187.256059 
L 423.932507 185.558062 
L 428.812213 188.151149 
L 433.691919 186.39529 
L 438.571625 185.204511 
L 443.451331 184.95262 
L 448.331038 186.389505 
L 453.210744 183.524946 
L 458.09045 184.845619 
L 462.970156 179.321422 
L 467.849862 181.859729 
L 472.729568 180.001704 
L 477.609275 181.621246 
L 482.488981 181.773858 
L 487.368687 178.884116 
L 492.248393 180.860286 
L 497.128099 180.058579 
L 502.007805 181.95074 
L 506.887511 178.767149 
L 511.767218 178.484276 
L 516.646924 177.883845 
L 521.52663 178.071518 
L 526.406336 175.908989 
L 531.286042 178.323304 
L 536.165748 175.381762 
L 541.045455 173.334301 
" style="fill:none;stroke:#e24a33;stroke-linecap:square;stroke-width:1.5;"/>
   </g>
   <g id="line2d_30">
    <path clip-path="url(#pd8a919c4de)" d="M 57.954545 214.718696 
L 62.834252 221.128142 
L 67.713958 224.443673 
L 72.593664 226.345015 
L 77.47337 227.694838 
L 82.353076 228.404088 
L 87.232782 228.212427 
L 92.112489 228.886518 
L 96.992195 229.152705 
L 101.871901 229.342325 
L 106.751607 229.658957 
L 111.631313 228.544012 
L 116.511019 229.019116 
L 121.390725 229.685015 
L 126.270432 228.489971 
L 131.150138 229.325085 
L 136.029844 229.020216 
L 140.90955 227.812395 
L 145.789256 228.045273 
L 150.668962 229.05153 
L 155.548669 229.133392 
L 160.428375 227.550342 
L 165.308081 228.498748 
L 170.187787 228.662826 
L 175.067493 227.809315 
L 179.947199 226.986619 
L 184.826905 227.947687 
L 189.706612 226.281301 
L 194.586318 226.869377 
L 199.466024 227.10155 
L 204.34573 226.426152 
L 209.225436 226.193932 
L 214.105142 225.895306 
L 218.984848 224.390976 
L 223.864555 225.584772 
L 228.744261 225.828038 
L 233.623967 225.392182 
L 238.503673 225.37236 
L 243.383379 225.024706 
L 248.263085 224.001104 
L 253.142792 224.019212 
L 258.022498 223.857528 
L 262.902204 224.219226 
L 267.78191 224.316114 
L 272.661616 224.8302 
L 277.541322 223.781325 
L 282.421028 223.747387 
L 287.300735 222.709851 
L 292.180441 223.563863 
L 297.060147 223.61569 
L 301.939853 223.298463 
L 306.819559 222.365841 
L 311.699265 223.111367 
L 316.578972 222.520045 
L 321.458678 221.506686 
L 326.338384 222.555207 
L 331.21809 220.920584 
L 336.097796 221.005506 
L 340.977502 221.887133 
L 345.857208 219.962693 
L 350.736915 220.733496 
L 355.616621 221.131559 
L 360.496327 221.208727 
L 365.376033 220.071695 
L 370.255739 220.328902 
L 375.135445 222.00505 
L 380.015152 220.480757 
L 384.894858 221.29272 
L 389.774564 220.274499 
L 394.65427 219.824097 
L 399.533976 219.998194 
L 404.413682 219.816834 
L 409.293388 220.866415 
L 414.173095 220.048264 
L 419.052801 218.650659 
L 423.932507 219.640921 
L 428.812213 220.262823 
L 433.691919 220.805885 
L 438.571625 219.932564 
L 443.451331 219.350582 
L 448.331038 219.092103 
L 453.210744 219.701132 
L 458.09045 218.372761 
L 462.970156 217.934222 
L 467.849862 220.168928 
L 472.729568 218.946698 
L 477.609275 219.112107 
L 482.488981 219.022231 
L 487.368687 219.226598 
L 492.248393 218.902005 
L 497.128099 219.92695 
L 502.007805 219.075413 
L 506.887511 218.280484 
L 511.767218 218.678758 
L 516.646924 217.986252 
L 521.52663 217.683391 
L 526.406336 219.045778 
L 531.286042 218.566341 
L 536.165748 218.92982 
L 541.045455 219.919749 
" style="fill:none;stroke:#348abd;stroke-linecap:square;stroke-width:1.5;"/>
   </g>
   <g id="line2d_31">
    <path clip-path="url(#pd8a919c4de)" d="M 57.954545 213.520357 
L 62.834252 220.882618 
L 67.713958 222.915199 
L 72.593664 223.496861 
L 77.47337 226.121265 
L 82.353076 226.311114 
L 87.232782 226.725512 
L 92.112489 227.226891 
L 96.992195 227.019759 
L 101.871901 228.466178 
L 106.751607 229.390662 
L 111.631313 229.601331 
L 116.511019 230.500321 
L 121.390725 230.32588 
L 126.270432 230.474675 
L 131.150138 229.737048 
L 136.029844 228.916915 
L 140.90955 230.114549 
L 145.789256 230.992473 
L 150.668962 230.2225 
L 155.548669 231.390671 
L 160.428375 231.712839 
L 165.308081 230.668147 
L 170.187787 231.111347 
L 175.067493 230.266793 
L 179.947199 230.134038 
L 184.826905 231.15204 
L 189.706612 232.159533 
L 194.586318 230.462863 
L 199.466024 232.185923 
L 204.34573 229.70566 
L 209.225436 231.305811 
L 214.105142 230.333124 
L 218.984848 231.76794 
L 223.864555 231.713217 
L 228.744261 230.97145 
L 233.623967 231.014989 
L 238.503673 231.654341 
L 243.383379 231.343655 
L 248.263085 231.655716 
L 253.142792 232.433936 
L 258.022498 232.320937 
L 262.902204 231.420211 
L 267.78191 232.423237 
L 272.661616 232.076911 
L 277.541322 231.88265 
L 282.421028 231.788719 
L 287.300735 231.333237 
L 292.180441 232.44224 
L 297.060147 232.276035 
L 301.939853 232.179873 
L 306.819559 230.976446 
L 311.699265 231.157758 
L 316.578972 231.505047 
L 321.458678 231.385118 
L 326.338384 231.822207 
L 331.21809 232.195354 
L 336.097796 231.070569 
L 340.977502 232.725506 
L 345.857208 231.397818 
L 350.736915 231.971306 
L 355.616621 231.415926 
L 360.496327 232.187905 
L 365.376033 232.262107 
L 370.255739 232.281304 
L 375.135445 232.449595 
L 380.015152 232.132894 
L 384.894858 232.109407 
L 389.774564 232.336828 
L 394.65427 232.591367 
L 399.533976 231.642621 
L 404.413682 231.93453 
L 409.293388 231.528365 
L 414.173095 232.582677 
L 419.052801 231.809616 
L 423.932507 231.608051 
L 428.812213 232.435667 
L 433.691919 231.139789 
L 438.571625 232.348209 
L 443.451331 232.08937 
L 448.331038 232.082036 
L 453.210744 232.549085 
L 458.09045 231.936234 
L 462.970156 232.241194 
L 467.849862 232.108549 
L 472.729568 232.20976 
L 477.609275 231.957428 
L 482.488981 231.965726 
L 487.368687 231.88878 
L 492.248393 231.882148 
L 497.128099 232.223939 
L 502.007805 231.995509 
L 506.887511 232.760394 
L 511.767218 232.424769 
L 516.646924 232.009716 
L 521.52663 232.428212 
L 526.406336 232.031922 
L 531.286042 232.152357 
L 536.165748 231.82177 
L 541.045455 232.000743 
" style="fill:none;stroke:#988ed5;stroke-linecap:square;stroke-width:1.5;"/>
   </g>
   <g id="line2d_32">
    <path clip-path="url(#pd8a919c4de)" d="M 57.954545 193.754067 
L 62.834252 199.731805 
L 67.713958 203.383892 
L 72.593664 204.200367 
L 77.47337 205.140297 
L 82.353076 205.098917 
L 87.232782 205.934462 
L 92.112489 204.717296 
L 96.992195 205.364326 
L 101.871901 205.639377 
L 106.751607 205.888274 
L 111.631313 208.112222 
L 116.511019 206.386632 
L 121.390725 207.688007 
L 126.270432 207.46391 
L 131.150138 207.277691 
L 136.029844 207.50566 
L 140.90955 207.052996 
L 145.789256 205.812414 
L 150.668962 207.65634 
L 155.548669 208.042797 
L 160.428375 208.026242 
L 165.308081 207.964256 
L 170.187787 206.734375 
L 175.067493 206.110437 
L 179.947199 208.16793 
L 184.826905 206.718012 
L 189.706612 208.333405 
L 194.586318 209.024626 
L 199.466024 207.179934 
L 204.34573 208.252309 
L 209.225436 207.366211 
L 214.105142 208.416459 
L 218.984848 208.334222 
L 223.864555 208.233778 
L 228.744261 208.516358 
L 233.623967 207.922161 
L 238.503673 207.645295 
L 243.383379 208.02281 
L 248.263085 208.36932 
L 253.142792 209.034527 
L 258.022498 208.059512 
L 262.902204 208.613349 
L 267.78191 208.490896 
L 272.661616 208.876531 
L 277.541322 208.74303 
L 282.421028 207.180534 
L 287.300735 208.712142 
L 292.180441 208.932115 
L 297.060147 209.172182 
L 301.939853 207.306608 
L 306.819559 208.07254 
L 311.699265 208.681516 
L 316.578972 208.104556 
L 321.458678 208.924134 
L 326.338384 209.025002 
L 331.21809 208.487749 
L 336.097796 208.253281 
L 340.977502 208.069321 
L 345.857208 208.307778 
L 350.736915 209.593305 
L 355.616621 207.160652 
L 360.496327 207.617499 
L 365.376033 208.623139 
L 370.255739 208.853726 
L 375.135445 209.590494 
L 380.015152 207.454973 
L 384.894858 208.789072 
L 389.774564 208.504891 
L 394.65427 208.85901 
L 399.533976 208.255615 
L 404.413682 208.793977 
L 409.293388 207.191984 
L 414.173095 208.60326 
L 419.052801 209.128312 
L 423.932507 209.100219 
L 428.812213 209.086398 
L 433.691919 209.437363 
L 438.571625 208.672443 
L 443.451331 208.990871 
L 448.331038 207.89889 
L 453.210744 208.84042 
L 458.09045 208.944267 
L 462.970156 208.6706 
L 467.849862 208.264211 
L 472.729568 208.927403 
L 477.609275 208.571718 
L 482.488981 208.45417 
L 487.368687 208.62168 
L 492.248393 207.900065 
L 497.128099 208.204858 
L 502.007805 208.225547 
L 506.887511 208.837517 
L 511.767218 209.032744 
L 516.646924 208.559024 
L 521.52663 208.831013 
L 526.406336 208.873533 
L 531.286042 208.854614 
L 536.165748 208.053185 
L 541.045455 208.415578 
" style="fill:none;stroke:#777777;stroke-linecap:square;stroke-width:1.5;"/>
   </g>
   <g id="line2d_33">
    <path clip-path="url(#pd8a919c4de)" d="M 57.954545 23.991014 
L 62.834252 23.983314 
L 67.713958 23.985055 
L 72.593664 23.98298 
L 77.47337 23.979576 
L 82.353076 23.977575 
L 87.232782 23.979726 
L 92.112489 23.980949 
L 96.992195 23.976075 
L 101.871901 23.978749 
L 106.751607 23.978089 
L 111.631313 23.978581 
L 116.511019 23.980069 
L 121.390725 23.982102 
L 126.270432 23.981277 
L 131.150138 23.983261 
L 136.029844 23.980309 
L 140.90955 23.970364 
L 145.789256 23.977652 
L 150.668962 23.978677 
L 155.548669 23.978884 
L 160.428375 23.981726 
L 165.308081 23.983211 
L 170.187787 23.979004 
L 175.067493 23.980994 
L 179.947199 23.979091 
L 184.826905 23.9857 
L 189.706612 23.98121 
L 194.586318 23.977021 
L 199.466024 23.97652 
L 204.34573 23.979624 
L 209.225436 23.980942 
L 214.105142 23.978451 
L 218.984848 23.976598 
L 223.864555 23.974825 
L 228.744261 23.977958 
L 233.623967 23.975224 
L 238.503673 23.980577 
L 243.383379 23.984911 
L 248.263085 23.977374 
L 253.142792 23.984655 
L 258.022498 23.985156 
L 262.902204 23.977695 
L 267.78191 23.981672 
L 272.661616 23.978753 
L 277.541322 23.978214 
L 282.421028 23.981577 
L 287.300735 23.983761 
L 292.180441 23.971073 
L 297.060147 23.968284 
L 301.939853 23.982277 
L 306.819559 23.985597 
L 311.699265 23.979667 
L 316.578972 23.9858 
L 321.458678 23.9764 
L 326.338384 23.977537 
L 331.21809 23.970626 
L 336.097796 23.976234 
L 340.977502 23.982617 
L 345.857208 23.986387 
L 350.736915 23.978766 
L 355.616621 23.975318 
L 360.496327 23.989548 
L 365.376033 23.980841 
L 370.255739 23.979095 
L 375.135445 23.979829 
L 380.015152 23.97955 
L 384.894858 23.980676 
L 389.774564 23.986663 
L 394.65427 23.98284 
L 399.533976 23.978478 
L 404.413682 23.978331 
L 409.293388 23.979319 
L 414.173095 23.977119 
L 419.052801 23.978597 
L 423.932507 23.979069 
L 428.812213 23.975748 
L 433.691919 23.981589 
L 438.571625 23.976075 
L 443.451331 23.973662 
L 448.331038 23.98059 
L 453.210744 23.983404 
L 458.09045 23.984763 
L 462.970156 23.979757 
L 467.849862 23.978109 
L 472.729568 23.986243 
L 477.609275 23.980029 
L 482.488981 23.974864 
L 487.368687 23.978284 
L 492.248393 23.980575 
L 497.128099 23.97628 
L 502.007805 23.983722 
L 506.887511 23.975736 
L 511.767218 23.97858 
L 516.646924 23.981353 
L 521.52663 23.986542 
L 526.406336 23.982853 
L 531.286042 23.986958 
L 536.165748 23.988087 
L 541.045455 23.985859 
" style="fill:none;stroke:#fbc15e;stroke-linecap:square;stroke-width:1.5;"/>
   </g>
   <g id="patch_3">
    <path d="M 33.8 243.2 
L 33.8 13.528679 
" style="fill:none;stroke:#ffffff;stroke-linecap:square;stroke-linejoin:miter;"/>
   </g>
   <g id="patch_4">
    <path d="M 565.2 243.2 
L 565.2 13.528679 
" style="fill:none;stroke:#ffffff;stroke-linecap:square;stroke-linejoin:miter;"/>
   </g>
   <g id="patch_5">
    <path d="M 33.8 243.2 
L 565.2 243.2 
" style="fill:none;stroke:#ffffff;stroke-linecap:square;stroke-linejoin:miter;"/>
   </g>
   <g id="patch_6">
    <path d="M 33.8 13.528679 
L 565.2 13.528679 
" style="fill:none;stroke:#ffffff;stroke-linecap:square;stroke-linejoin:miter;"/>
   </g>
   <g id="legend_1">
    <g id="patch_7">
     <path d="M 447.135937 166.559652 
L 558.2 166.559652 
Q 560.2 166.559652 560.2 164.559652 
L 560.2 92.169027 
Q 560.2 90.169027 558.2 90.169027 
L 447.135937 90.169027 
Q 445.135937 90.169027 445.135937 92.169027 
L 445.135937 164.559652 
Q 445.135937 166.559652 447.135937 166.559652 
z
" style="fill:#e5e5e5;opacity:0.8;stroke:#cccccc;stroke-linejoin:miter;stroke-width:0.5;"/>
    </g>
    <g id="line2d_34">
     <path d="M 449.135937 98.267464 
L 469.135937 98.267464 
" style="fill:none;stroke:#e24a33;stroke-linecap:square;stroke-width:1.5;"/>
    </g>
    <g id="line2d_35"/>
    <g id="text_16">
     <!-- l2 1e-05(valid) -->
     <g transform="translate(477.135937 101.767464)scale(0.1 -0.1)">
      <defs>
       <path d="M 603 4863 
L 1178 4863 
L 1178 0 
L 603 0 
L 603 4863 
z
" id="DejaVuSans-6c" transform="scale(0.015625)"/>
       <path d="M 313 2009 
L 1997 2009 
L 1997 1497 
L 313 1497 
L 313 2009 
z
" id="DejaVuSans-2d" transform="scale(0.015625)"/>
       <path d="M 1984 4856 
Q 1566 4138 1362 3434 
Q 1159 2731 1159 2009 
Q 1159 1288 1364 580 
Q 1569 -128 1984 -844 
L 1484 -844 
Q 1016 -109 783 600 
Q 550 1309 550 2009 
Q 550 2706 781 3412 
Q 1013 4119 1484 4856 
L 1984 4856 
z
" id="DejaVuSans-28" transform="scale(0.015625)"/>
       <path d="M 191 3500 
L 800 3500 
L 1894 563 
L 2988 3500 
L 3597 3500 
L 2284 0 
L 1503 0 
L 191 3500 
z
" id="DejaVuSans-76" transform="scale(0.015625)"/>
       <path d="M 2194 1759 
Q 1497 1759 1228 1600 
Q 959 1441 959 1056 
Q 959 750 1161 570 
Q 1363 391 1709 391 
Q 2188 391 2477 730 
Q 2766 1069 2766 1631 
L 2766 1759 
L 2194 1759 
z
M 3341 1997 
L 3341 0 
L 2766 0 
L 2766 531 
Q 2569 213 2275 61 
Q 1981 -91 1556 -91 
Q 1019 -91 701 211 
Q 384 513 384 1019 
Q 384 1609 779 1909 
Q 1175 2209 1959 2209 
L 2766 2209 
L 2766 2266 
Q 2766 2663 2505 2880 
Q 2244 3097 1772 3097 
Q 1472 3097 1187 3025 
Q 903 2953 641 2809 
L 641 3341 
Q 956 3463 1253 3523 
Q 1550 3584 1831 3584 
Q 2591 3584 2966 3190 
Q 3341 2797 3341 1997 
z
" id="DejaVuSans-61" transform="scale(0.015625)"/>
       <path d="M 603 3500 
L 1178 3500 
L 1178 0 
L 603 0 
L 603 3500 
z
M 603 4863 
L 1178 4863 
L 1178 4134 
L 603 4134 
L 603 4863 
z
" id="DejaVuSans-69" transform="scale(0.015625)"/>
       <path d="M 2906 2969 
L 2906 4863 
L 3481 4863 
L 3481 0 
L 2906 0 
L 2906 525 
Q 2725 213 2448 61 
Q 2172 -91 1784 -91 
Q 1150 -91 751 415 
Q 353 922 353 1747 
Q 353 2572 751 3078 
Q 1150 3584 1784 3584 
Q 2172 3584 2448 3432 
Q 2725 3281 2906 2969 
z
M 947 1747 
Q 947 1113 1208 752 
Q 1469 391 1925 391 
Q 2381 391 2643 752 
Q 2906 1113 2906 1747 
Q 2906 2381 2643 2742 
Q 2381 3103 1925 3103 
Q 1469 3103 1208 2742 
Q 947 2381 947 1747 
z
" id="DejaVuSans-64" transform="scale(0.015625)"/>
       <path d="M 513 4856 
L 1013 4856 
Q 1481 4119 1714 3412 
Q 1947 2706 1947 2009 
Q 1947 1309 1714 600 
Q 1481 -109 1013 -844 
L 513 -844 
Q 928 -128 1133 580 
Q 1338 1288 1338 2009 
Q 1338 2731 1133 3434 
Q 928 4138 513 4856 
z
" id="DejaVuSans-29" transform="scale(0.015625)"/>
      </defs>
      <use xlink:href="#DejaVuSans-6c"/>
      <use x="27.783203" xlink:href="#DejaVuSans-32"/>
      <use x="91.40625" xlink:href="#DejaVuSans-20"/>
      <use x="123.193359" xlink:href="#DejaVuSans-31"/>
      <use x="186.816406" xlink:href="#DejaVuSans-65"/>
      <use x="248.339844" xlink:href="#DejaVuSans-2d"/>
      <use x="284.423828" xlink:href="#DejaVuSans-30"/>
      <use x="348.046875" xlink:href="#DejaVuSans-35"/>
      <use x="411.669922" xlink:href="#DejaVuSans-28"/>
      <use x="450.683594" xlink:href="#DejaVuSans-76"/>
      <use x="509.863281" xlink:href="#DejaVuSans-61"/>
      <use x="571.142578" xlink:href="#DejaVuSans-6c"/>
      <use x="598.925781" xlink:href="#DejaVuSans-69"/>
      <use x="626.708984" xlink:href="#DejaVuSans-64"/>
      <use x="690.185547" xlink:href="#DejaVuSans-29"/>
     </g>
    </g>
    <g id="line2d_36">
     <path d="M 449.135937 112.945589 
L 469.135937 112.945589 
" style="fill:none;stroke:#348abd;stroke-linecap:square;stroke-width:1.5;"/>
    </g>
    <g id="line2d_37"/>
    <g id="text_17">
     <!-- l2 0.0001(valid) -->
     <g transform="translate(477.135937 116.445589)scale(0.1 -0.1)">
      <use xlink:href="#DejaVuSans-6c"/>
      <use x="27.783203" xlink:href="#DejaVuSans-32"/>
      <use x="91.40625" xlink:href="#DejaVuSans-20"/>
      <use x="123.193359" xlink:href="#DejaVuSans-30"/>
      <use x="186.816406" xlink:href="#DejaVuSans-2e"/>
      <use x="218.603516" xlink:href="#DejaVuSans-30"/>
      <use x="282.226562" xlink:href="#DejaVuSans-30"/>
      <use x="345.849609" xlink:href="#DejaVuSans-30"/>
      <use x="409.472656" xlink:href="#DejaVuSans-31"/>
      <use x="473.095703" xlink:href="#DejaVuSans-28"/>
      <use x="512.109375" xlink:href="#DejaVuSans-76"/>
      <use x="571.289062" xlink:href="#DejaVuSans-61"/>
      <use x="632.568359" xlink:href="#DejaVuSans-6c"/>
      <use x="660.351562" xlink:href="#DejaVuSans-69"/>
      <use x="688.134766" xlink:href="#DejaVuSans-64"/>
      <use x="751.611328" xlink:href="#DejaVuSans-29"/>
     </g>
    </g>
    <g id="line2d_38">
     <path d="M 449.135937 127.623714 
L 469.135937 127.623714 
" style="fill:none;stroke:#988ed5;stroke-linecap:square;stroke-width:1.5;"/>
    </g>
    <g id="line2d_39"/>
    <g id="text_18">
     <!-- l2 0.001(valid) -->
     <g transform="translate(477.135937 131.123714)scale(0.1 -0.1)">
      <use xlink:href="#DejaVuSans-6c"/>
      <use x="27.783203" xlink:href="#DejaVuSans-32"/>
      <use x="91.40625" xlink:href="#DejaVuSans-20"/>
      <use x="123.193359" xlink:href="#DejaVuSans-30"/>
      <use x="186.816406" xlink:href="#DejaVuSans-2e"/>
      <use x="218.603516" xlink:href="#DejaVuSans-30"/>
      <use x="282.226562" xlink:href="#DejaVuSans-30"/>
      <use x="345.849609" xlink:href="#DejaVuSans-31"/>
      <use x="409.472656" xlink:href="#DejaVuSans-28"/>
      <use x="448.486328" xlink:href="#DejaVuSans-76"/>
      <use x="507.666016" xlink:href="#DejaVuSans-61"/>
      <use x="568.945312" xlink:href="#DejaVuSans-6c"/>
      <use x="596.728516" xlink:href="#DejaVuSans-69"/>
      <use x="624.511719" xlink:href="#DejaVuSans-64"/>
      <use x="687.988281" xlink:href="#DejaVuSans-29"/>
     </g>
    </g>
    <g id="line2d_40">
     <path d="M 449.135937 142.301839 
L 469.135937 142.301839 
" style="fill:none;stroke:#777777;stroke-linecap:square;stroke-width:1.5;"/>
    </g>
    <g id="line2d_41"/>
    <g id="text_19">
     <!-- l2 0.01(valid) -->
     <g transform="translate(477.135937 145.801839)scale(0.1 -0.1)">
      <use xlink:href="#DejaVuSans-6c"/>
      <use x="27.783203" xlink:href="#DejaVuSans-32"/>
      <use x="91.40625" xlink:href="#DejaVuSans-20"/>
      <use x="123.193359" xlink:href="#DejaVuSans-30"/>
      <use x="186.816406" xlink:href="#DejaVuSans-2e"/>
      <use x="218.603516" xlink:href="#DejaVuSans-30"/>
      <use x="282.226562" xlink:href="#DejaVuSans-31"/>
      <use x="345.849609" xlink:href="#DejaVuSans-28"/>
      <use x="384.863281" xlink:href="#DejaVuSans-76"/>
      <use x="444.042969" xlink:href="#DejaVuSans-61"/>
      <use x="505.322266" xlink:href="#DejaVuSans-6c"/>
      <use x="533.105469" xlink:href="#DejaVuSans-69"/>
      <use x="560.888672" xlink:href="#DejaVuSans-64"/>
      <use x="624.365234" xlink:href="#DejaVuSans-29"/>
     </g>
    </g>
    <g id="line2d_42">
     <path d="M 449.135937 156.979964 
L 469.135937 156.979964 
" style="fill:none;stroke:#fbc15e;stroke-linecap:square;stroke-width:1.5;"/>
    </g>
    <g id="line2d_43"/>
    <g id="text_20">
     <!-- l2 0.1(valid) -->
     <g transform="translate(477.135937 160.479964)scale(0.1 -0.1)">
      <use xlink:href="#DejaVuSans-6c"/>
      <use x="27.783203" xlink:href="#DejaVuSans-32"/>
      <use x="91.40625" xlink:href="#DejaVuSans-20"/>
      <use x="123.193359" xlink:href="#DejaVuSans-30"/>
      <use x="186.816406" xlink:href="#DejaVuSans-2e"/>
      <use x="218.603516" xlink:href="#DejaVuSans-31"/>
      <use x="282.226562" xlink:href="#DejaVuSans-28"/>
      <use x="321.240234" xlink:href="#DejaVuSans-76"/>
      <use x="380.419922" xlink:href="#DejaVuSans-61"/>
      <use x="441.699219" xlink:href="#DejaVuSans-6c"/>
      <use x="469.482422" xlink:href="#DejaVuSans-69"/>
      <use x="497.265625" xlink:href="#DejaVuSans-64"/>
      <use x="560.742188" xlink:href="#DejaVuSans-29"/>
     </g>
    </g>
   </g>
  </g>
 </g>
 <defs>
  <clipPath id="pd8a919c4de">
   <rect height="229.671321" width="531.4" x="33.8" y="13.528679"/>
  </clipPath>
 </defs>
</svg>
