<?xml version="1.0" encoding="utf-8" standalone="no"?>
<!DOCTYPE svg PUBLIC "-//W3C//DTD SVG 1.1//EN"
  "http://www.w3.org/Graphics/SVG/1.1/DTD/svg11.dtd">
<svg height="288pt" version="1.1" viewBox="0 0 576 288" width="576pt" xmlns="http://www.w3.org/2000/svg" xmlns:xlink="http://www.w3.org/1999/xlink">
 <metadata>
  <rdf:RDF xmlns:cc="http://creativecommons.org/ns#" xmlns:dc="http://purl.org/dc/elements/1.1/" xmlns:rdf="http://www.w3.org/1999/02/22-rdf-syntax-ns#">
   <cc:Work>
    <dc:type rdf:resource="http://purl.org/dc/dcmitype/StillImage"/>
    <dc:date>2021-11-04T21:11:34.620478</dc:date>
    <dc:format>image/svg+xml</dc:format>
    <dc:creator>
     <cc:Agent>
      <dc:title>Matplotlib v3.4.3, https://matplotlib.org/</dc:title>
     </cc:Agent>
    </dc:creator>
   </cc:Work>
  </rdf:RDF>
 </metadata>
 <defs>
  <style type="text/css">*{stroke-linecap:butt;stroke-linejoin:round;}</style>
 </defs>
 <g id="figure_1">
  <g id="patch_1">
   <path d="M 0 288 
L 576 288 
L 576 0 
L 0 0 
z
" style="fill:#ffffff;"/>
  </g>
  <g id="axes_1">
   <g id="patch_2">
    <path d="M 33.8 243.2 
L 542.325 243.2 
L 542.325 48.8 
L 33.8 48.8 
z
" style="fill:#e5e5e5;"/>
   </g>
   <g id="matplotlib.axis_1">
    <g id="xtick_1">
     <g id="line2d_1">
      <path clip-path="url(#p6c1d577032)" d="M 52.245122 243.2 
L 52.245122 48.8 
" style="fill:none;stroke:#ffffff;stroke-linecap:square;stroke-width:0.8;"/>
     </g>
     <g id="line2d_2">
      <defs>
       <path d="M 0 0 
L 0 3.5 
" id="mfa657d0071" style="stroke:#555555;stroke-width:0.8;"/>
      </defs>
      <g>
       <use style="fill:#555555;stroke:#555555;stroke-width:0.8;" x="52.245122" xlink:href="#mfa657d0071" y="243.2"/>
      </g>
     </g>
     <g id="text_1">
      <!-- 0 -->
      <g style="fill:#555555;" transform="translate(49.063872 257.798437)scale(0.1 -0.1)">
       <defs>
        <path d="M 2034 4250 
Q 1547 4250 1301 3770 
Q 1056 3291 1056 2328 
Q 1056 1369 1301 889 
Q 1547 409 2034 409 
Q 2525 409 2770 889 
Q 3016 1369 3016 2328 
Q 3016 3291 2770 3770 
Q 2525 4250 2034 4250 
z
M 2034 4750 
Q 2819 4750 3233 4129 
Q 3647 3509 3647 2328 
Q 3647 1150 3233 529 
Q 2819 -91 2034 -91 
Q 1250 -91 836 529 
Q 422 1150 422 2328 
Q 422 3509 836 4129 
Q 1250 4750 2034 4750 
z
" id="DejaVuSans-30" transform="scale(0.015625)"/>
       </defs>
       <use xlink:href="#DejaVuSans-30"/>
      </g>
     </g>
    </g>
    <g id="xtick_2">
     <g id="line2d_3">
      <path clip-path="url(#p6c1d577032)" d="M 145.638143 243.2 
L 145.638143 48.8 
" style="fill:none;stroke:#ffffff;stroke-linecap:square;stroke-width:0.8;"/>
     </g>
     <g id="line2d_4">
      <g>
       <use style="fill:#555555;stroke:#555555;stroke-width:0.8;" x="145.638143" xlink:href="#mfa657d0071" y="243.2"/>
      </g>
     </g>
     <g id="text_2">
      <!-- 20 -->
      <g style="fill:#555555;" transform="translate(139.275643 257.798437)scale(0.1 -0.1)">
       <defs>
        <path d="M 1228 531 
L 3431 531 
L 3431 0 
L 469 0 
L 469 531 
Q 828 903 1448 1529 
Q 2069 2156 2228 2338 
Q 2531 2678 2651 2914 
Q 2772 3150 2772 3378 
Q 2772 3750 2511 3984 
Q 2250 4219 1831 4219 
Q 1534 4219 1204 4116 
Q 875 4013 500 3803 
L 500 4441 
Q 881 4594 1212 4672 
Q 1544 4750 1819 4750 
Q 2544 4750 2975 4387 
Q 3406 4025 3406 3419 
Q 3406 3131 3298 2873 
Q 3191 2616 2906 2266 
Q 2828 2175 2409 1742 
Q 1991 1309 1228 531 
z
" id="DejaVuSans-32" transform="scale(0.015625)"/>
       </defs>
       <use xlink:href="#DejaVuSans-32"/>
       <use x="63.623047" xlink:href="#DejaVuSans-30"/>
      </g>
     </g>
    </g>
    <g id="xtick_3">
     <g id="line2d_5">
      <path clip-path="url(#p6c1d577032)" d="M 239.031164 243.2 
L 239.031164 48.8 
" style="fill:none;stroke:#ffffff;stroke-linecap:square;stroke-width:0.8;"/>
     </g>
     <g id="line2d_6">
      <g>
       <use style="fill:#555555;stroke:#555555;stroke-width:0.8;" x="239.031164" xlink:href="#mfa657d0071" y="243.2"/>
      </g>
     </g>
     <g id="text_3">
      <!-- 40 -->
      <g style="fill:#555555;" transform="translate(232.668664 257.798437)scale(0.1 -0.1)">
       <defs>
        <path d="M 2419 4116 
L 825 1625 
L 2419 1625 
L 2419 4116 
z
M 2253 4666 
L 3047 4666 
L 3047 1625 
L 3713 1625 
L 3713 1100 
L 3047 1100 
L 3047 0 
L 2419 0 
L 2419 1100 
L 313 1100 
L 313 1709 
L 2253 4666 
z
" id="DejaVuSans-34" transform="scale(0.015625)"/>
       </defs>
       <use xlink:href="#DejaVuSans-34"/>
       <use x="63.623047" xlink:href="#DejaVuSans-30"/>
      </g>
     </g>
    </g>
    <g id="xtick_4">
     <g id="line2d_7">
      <path clip-path="url(#p6c1d577032)" d="M 332.424185 243.2 
L 332.424185 48.8 
" style="fill:none;stroke:#ffffff;stroke-linecap:square;stroke-width:0.8;"/>
     </g>
     <g id="line2d_8">
      <g>
       <use style="fill:#555555;stroke:#555555;stroke-width:0.8;" x="332.424185" xlink:href="#mfa657d0071" y="243.2"/>
      </g>
     </g>
     <g id="text_4">
      <!-- 60 -->
      <g style="fill:#555555;" transform="translate(326.061685 257.798437)scale(0.1 -0.1)">
       <defs>
        <path d="M 2113 2584 
Q 1688 2584 1439 2293 
Q 1191 2003 1191 1497 
Q 1191 994 1439 701 
Q 1688 409 2113 409 
Q 2538 409 2786 701 
Q 3034 994 3034 1497 
Q 3034 2003 2786 2293 
Q 2538 2584 2113 2584 
z
M 3366 4563 
L 3366 3988 
Q 3128 4100 2886 4159 
Q 2644 4219 2406 4219 
Q 1781 4219 1451 3797 
Q 1122 3375 1075 2522 
Q 1259 2794 1537 2939 
Q 1816 3084 2150 3084 
Q 2853 3084 3261 2657 
Q 3669 2231 3669 1497 
Q 3669 778 3244 343 
Q 2819 -91 2113 -91 
Q 1303 -91 875 529 
Q 447 1150 447 2328 
Q 447 3434 972 4092 
Q 1497 4750 2381 4750 
Q 2619 4750 2861 4703 
Q 3103 4656 3366 4563 
z
" id="DejaVuSans-36" transform="scale(0.015625)"/>
       </defs>
       <use xlink:href="#DejaVuSans-36"/>
       <use x="63.623047" xlink:href="#DejaVuSans-30"/>
      </g>
     </g>
    </g>
    <g id="xtick_5">
     <g id="line2d_9">
      <path clip-path="url(#p6c1d577032)" d="M 425.817206 243.2 
L 425.817206 48.8 
" style="fill:none;stroke:#ffffff;stroke-linecap:square;stroke-width:0.8;"/>
     </g>
     <g id="line2d_10">
      <g>
       <use style="fill:#555555;stroke:#555555;stroke-width:0.8;" x="425.817206" xlink:href="#mfa657d0071" y="243.2"/>
      </g>
     </g>
     <g id="text_5">
      <!-- 80 -->
      <g style="fill:#555555;" transform="translate(419.454706 257.798437)scale(0.1 -0.1)">
       <defs>
        <path d="M 2034 2216 
Q 1584 2216 1326 1975 
Q 1069 1734 1069 1313 
Q 1069 891 1326 650 
Q 1584 409 2034 409 
Q 2484 409 2743 651 
Q 3003 894 3003 1313 
Q 3003 1734 2745 1975 
Q 2488 2216 2034 2216 
z
M 1403 2484 
Q 997 2584 770 2862 
Q 544 3141 544 3541 
Q 544 4100 942 4425 
Q 1341 4750 2034 4750 
Q 2731 4750 3128 4425 
Q 3525 4100 3525 3541 
Q 3525 3141 3298 2862 
Q 3072 2584 2669 2484 
Q 3125 2378 3379 2068 
Q 3634 1759 3634 1313 
Q 3634 634 3220 271 
Q 2806 -91 2034 -91 
Q 1263 -91 848 271 
Q 434 634 434 1313 
Q 434 1759 690 2068 
Q 947 2378 1403 2484 
z
M 1172 3481 
Q 1172 3119 1398 2916 
Q 1625 2713 2034 2713 
Q 2441 2713 2670 2916 
Q 2900 3119 2900 3481 
Q 2900 3844 2670 4047 
Q 2441 4250 2034 4250 
Q 1625 4250 1398 4047 
Q 1172 3844 1172 3481 
z
" id="DejaVuSans-38" transform="scale(0.015625)"/>
       </defs>
       <use xlink:href="#DejaVuSans-38"/>
       <use x="63.623047" xlink:href="#DejaVuSans-30"/>
      </g>
     </g>
    </g>
    <g id="xtick_6">
     <g id="line2d_11">
      <path clip-path="url(#p6c1d577032)" d="M 519.210227 243.2 
L 519.210227 48.8 
" style="fill:none;stroke:#ffffff;stroke-linecap:square;stroke-width:0.8;"/>
     </g>
     <g id="line2d_12">
      <g>
       <use style="fill:#555555;stroke:#555555;stroke-width:0.8;" x="519.210227" xlink:href="#mfa657d0071" y="243.2"/>
      </g>
     </g>
     <g id="text_6">
      <!-- 100 -->
      <g style="fill:#555555;" transform="translate(509.666477 257.798437)scale(0.1 -0.1)">
       <defs>
        <path d="M 794 531 
L 1825 531 
L 1825 4091 
L 703 3866 
L 703 4441 
L 1819 4666 
L 2450 4666 
L 2450 531 
L 3481 531 
L 3481 0 
L 794 0 
L 794 531 
z
" id="DejaVuSans-31" transform="scale(0.015625)"/>
       </defs>
       <use xlink:href="#DejaVuSans-31"/>
       <use x="63.623047" xlink:href="#DejaVuSans-30"/>
       <use x="127.246094" xlink:href="#DejaVuSans-30"/>
      </g>
     </g>
    </g>
    <g id="text_7">
     <!-- Epoch number -->
     <g style="fill:#555555;" transform="translate(244.365625 272.99625)scale(0.12 -0.12)">
      <defs>
       <path d="M 628 4666 
L 3578 4666 
L 3578 4134 
L 1259 4134 
L 1259 2753 
L 3481 2753 
L 3481 2222 
L 1259 2222 
L 1259 531 
L 3634 531 
L 3634 0 
L 628 0 
L 628 4666 
z
" id="DejaVuSans-45" transform="scale(0.015625)"/>
       <path d="M 1159 525 
L 1159 -1331 
L 581 -1331 
L 581 3500 
L 1159 3500 
L 1159 2969 
Q 1341 3281 1617 3432 
Q 1894 3584 2278 3584 
Q 2916 3584 3314 3078 
Q 3713 2572 3713 1747 
Q 3713 922 3314 415 
Q 2916 -91 2278 -91 
Q 1894 -91 1617 61 
Q 1341 213 1159 525 
z
M 3116 1747 
Q 3116 2381 2855 2742 
Q 2594 3103 2138 3103 
Q 1681 3103 1420 2742 
Q 1159 2381 1159 1747 
Q 1159 1113 1420 752 
Q 1681 391 2138 391 
Q 2594 391 2855 752 
Q 3116 1113 3116 1747 
z
" id="DejaVuSans-70" transform="scale(0.015625)"/>
       <path d="M 1959 3097 
Q 1497 3097 1228 2736 
Q 959 2375 959 1747 
Q 959 1119 1226 758 
Q 1494 397 1959 397 
Q 2419 397 2687 759 
Q 2956 1122 2956 1747 
Q 2956 2369 2687 2733 
Q 2419 3097 1959 3097 
z
M 1959 3584 
Q 2709 3584 3137 3096 
Q 3566 2609 3566 1747 
Q 3566 888 3137 398 
Q 2709 -91 1959 -91 
Q 1206 -91 779 398 
Q 353 888 353 1747 
Q 353 2609 779 3096 
Q 1206 3584 1959 3584 
z
" id="DejaVuSans-6f" transform="scale(0.015625)"/>
       <path d="M 3122 3366 
L 3122 2828 
Q 2878 2963 2633 3030 
Q 2388 3097 2138 3097 
Q 1578 3097 1268 2742 
Q 959 2388 959 1747 
Q 959 1106 1268 751 
Q 1578 397 2138 397 
Q 2388 397 2633 464 
Q 2878 531 3122 666 
L 3122 134 
Q 2881 22 2623 -34 
Q 2366 -91 2075 -91 
Q 1284 -91 818 406 
Q 353 903 353 1747 
Q 353 2603 823 3093 
Q 1294 3584 2113 3584 
Q 2378 3584 2631 3529 
Q 2884 3475 3122 3366 
z
" id="DejaVuSans-63" transform="scale(0.015625)"/>
       <path d="M 3513 2113 
L 3513 0 
L 2938 0 
L 2938 2094 
Q 2938 2591 2744 2837 
Q 2550 3084 2163 3084 
Q 1697 3084 1428 2787 
Q 1159 2491 1159 1978 
L 1159 0 
L 581 0 
L 581 4863 
L 1159 4863 
L 1159 2956 
Q 1366 3272 1645 3428 
Q 1925 3584 2291 3584 
Q 2894 3584 3203 3211 
Q 3513 2838 3513 2113 
z
" id="DejaVuSans-68" transform="scale(0.015625)"/>
       <path id="DejaVuSans-20" transform="scale(0.015625)"/>
       <path d="M 3513 2113 
L 3513 0 
L 2938 0 
L 2938 2094 
Q 2938 2591 2744 2837 
Q 2550 3084 2163 3084 
Q 1697 3084 1428 2787 
Q 1159 2491 1159 1978 
L 1159 0 
L 581 0 
L 581 3500 
L 1159 3500 
L 1159 2956 
Q 1366 3272 1645 3428 
Q 1925 3584 2291 3584 
Q 2894 3584 3203 3211 
Q 3513 2838 3513 2113 
z
" id="DejaVuSans-6e" transform="scale(0.015625)"/>
       <path d="M 544 1381 
L 544 3500 
L 1119 3500 
L 1119 1403 
Q 1119 906 1312 657 
Q 1506 409 1894 409 
Q 2359 409 2629 706 
Q 2900 1003 2900 1516 
L 2900 3500 
L 3475 3500 
L 3475 0 
L 2900 0 
L 2900 538 
Q 2691 219 2414 64 
Q 2138 -91 1772 -91 
Q 1169 -91 856 284 
Q 544 659 544 1381 
z
M 1991 3584 
L 1991 3584 
z
" id="DejaVuSans-75" transform="scale(0.015625)"/>
       <path d="M 3328 2828 
Q 3544 3216 3844 3400 
Q 4144 3584 4550 3584 
Q 5097 3584 5394 3201 
Q 5691 2819 5691 2113 
L 5691 0 
L 5113 0 
L 5113 2094 
Q 5113 2597 4934 2840 
Q 4756 3084 4391 3084 
Q 3944 3084 3684 2787 
Q 3425 2491 3425 1978 
L 3425 0 
L 2847 0 
L 2847 2094 
Q 2847 2600 2669 2842 
Q 2491 3084 2119 3084 
Q 1678 3084 1418 2786 
Q 1159 2488 1159 1978 
L 1159 0 
L 581 0 
L 581 3500 
L 1159 3500 
L 1159 2956 
Q 1356 3278 1631 3431 
Q 1906 3584 2284 3584 
Q 2666 3584 2933 3390 
Q 3200 3197 3328 2828 
z
" id="DejaVuSans-6d" transform="scale(0.015625)"/>
       <path d="M 3116 1747 
Q 3116 2381 2855 2742 
Q 2594 3103 2138 3103 
Q 1681 3103 1420 2742 
Q 1159 2381 1159 1747 
Q 1159 1113 1420 752 
Q 1681 391 2138 391 
Q 2594 391 2855 752 
Q 3116 1113 3116 1747 
z
M 1159 2969 
Q 1341 3281 1617 3432 
Q 1894 3584 2278 3584 
Q 2916 3584 3314 3078 
Q 3713 2572 3713 1747 
Q 3713 922 3314 415 
Q 2916 -91 2278 -91 
Q 1894 -91 1617 61 
Q 1341 213 1159 525 
L 1159 0 
L 581 0 
L 581 4863 
L 1159 4863 
L 1159 2969 
z
" id="DejaVuSans-62" transform="scale(0.015625)"/>
       <path d="M 3597 1894 
L 3597 1613 
L 953 1613 
Q 991 1019 1311 708 
Q 1631 397 2203 397 
Q 2534 397 2845 478 
Q 3156 559 3463 722 
L 3463 178 
Q 3153 47 2828 -22 
Q 2503 -91 2169 -91 
Q 1331 -91 842 396 
Q 353 884 353 1716 
Q 353 2575 817 3079 
Q 1281 3584 2069 3584 
Q 2775 3584 3186 3129 
Q 3597 2675 3597 1894 
z
M 3022 2063 
Q 3016 2534 2758 2815 
Q 2500 3097 2075 3097 
Q 1594 3097 1305 2825 
Q 1016 2553 972 2059 
L 3022 2063 
z
" id="DejaVuSans-65" transform="scale(0.015625)"/>
       <path d="M 2631 2963 
Q 2534 3019 2420 3045 
Q 2306 3072 2169 3072 
Q 1681 3072 1420 2755 
Q 1159 2438 1159 1844 
L 1159 0 
L 581 0 
L 581 3500 
L 1159 3500 
L 1159 2956 
Q 1341 3275 1631 3429 
Q 1922 3584 2338 3584 
Q 2397 3584 2469 3576 
Q 2541 3569 2628 3553 
L 2631 2963 
z
" id="DejaVuSans-72" transform="scale(0.015625)"/>
      </defs>
      <use xlink:href="#DejaVuSans-45"/>
      <use x="63.183594" xlink:href="#DejaVuSans-70"/>
      <use x="126.660156" xlink:href="#DejaVuSans-6f"/>
      <use x="187.841797" xlink:href="#DejaVuSans-63"/>
      <use x="242.822266" xlink:href="#DejaVuSans-68"/>
      <use x="306.201172" xlink:href="#DejaVuSans-20"/>
      <use x="337.988281" xlink:href="#DejaVuSans-6e"/>
      <use x="401.367188" xlink:href="#DejaVuSans-75"/>
      <use x="464.746094" xlink:href="#DejaVuSans-6d"/>
      <use x="562.158203" xlink:href="#DejaVuSans-62"/>
      <use x="625.634766" xlink:href="#DejaVuSans-65"/>
      <use x="687.158203" xlink:href="#DejaVuSans-72"/>
     </g>
    </g>
   </g>
   <g id="matplotlib.axis_2">
    <g id="ytick_1">
     <g id="line2d_13">
      <path clip-path="url(#p6c1d577032)" d="M 33.8 227.381228 
L 542.325 227.381228 
" style="fill:none;stroke:#ffffff;stroke-linecap:square;stroke-width:0.8;"/>
     </g>
     <g id="line2d_14">
      <defs>
       <path d="M 0 0 
L -3.5 0 
" id="m68c4ee6bea" style="stroke:#555555;stroke-width:0.8;"/>
      </defs>
      <g>
       <use style="fill:#555555;stroke:#555555;stroke-width:0.8;" x="33.8" xlink:href="#m68c4ee6bea" y="227.381228"/>
      </g>
     </g>
     <g id="text_8">
      <!-- 0.5 -->
      <g style="fill:#555555;" transform="translate(10.896875 231.180446)scale(0.1 -0.1)">
       <defs>
        <path d="M 684 794 
L 1344 794 
L 1344 0 
L 684 0 
L 684 794 
z
" id="DejaVuSans-2e" transform="scale(0.015625)"/>
        <path d="M 691 4666 
L 3169 4666 
L 3169 4134 
L 1269 4134 
L 1269 2991 
Q 1406 3038 1543 3061 
Q 1681 3084 1819 3084 
Q 2600 3084 3056 2656 
Q 3513 2228 3513 1497 
Q 3513 744 3044 326 
Q 2575 -91 1722 -91 
Q 1428 -91 1123 -41 
Q 819 9 494 109 
L 494 744 
Q 775 591 1075 516 
Q 1375 441 1709 441 
Q 2250 441 2565 725 
Q 2881 1009 2881 1497 
Q 2881 1984 2565 2268 
Q 2250 2553 1709 2553 
Q 1456 2553 1204 2497 
Q 953 2441 691 2322 
L 691 4666 
z
" id="DejaVuSans-35" transform="scale(0.015625)"/>
       </defs>
       <use xlink:href="#DejaVuSans-30"/>
       <use x="63.623047" xlink:href="#DejaVuSans-2e"/>
       <use x="95.410156" xlink:href="#DejaVuSans-35"/>
      </g>
     </g>
    </g>
    <g id="ytick_2">
     <g id="line2d_15">
      <path clip-path="url(#p6c1d577032)" d="M 33.8 193.059474 
L 542.325 193.059474 
" style="fill:none;stroke:#ffffff;stroke-linecap:square;stroke-width:0.8;"/>
     </g>
     <g id="line2d_16">
      <g>
       <use style="fill:#555555;stroke:#555555;stroke-width:0.8;" x="33.8" xlink:href="#m68c4ee6bea" y="193.059474"/>
      </g>
     </g>
     <g id="text_9">
      <!-- 1.0 -->
      <g style="fill:#555555;" transform="translate(10.896875 196.858693)scale(0.1 -0.1)">
       <use xlink:href="#DejaVuSans-31"/>
       <use x="63.623047" xlink:href="#DejaVuSans-2e"/>
       <use x="95.410156" xlink:href="#DejaVuSans-30"/>
      </g>
     </g>
    </g>
    <g id="ytick_3">
     <g id="line2d_17">
      <path clip-path="url(#p6c1d577032)" d="M 33.8 158.737721 
L 542.325 158.737721 
" style="fill:none;stroke:#ffffff;stroke-linecap:square;stroke-width:0.8;"/>
     </g>
     <g id="line2d_18">
      <g>
       <use style="fill:#555555;stroke:#555555;stroke-width:0.8;" x="33.8" xlink:href="#m68c4ee6bea" y="158.737721"/>
      </g>
     </g>
     <g id="text_10">
      <!-- 1.5 -->
      <g style="fill:#555555;" transform="translate(10.896875 162.53694)scale(0.1 -0.1)">
       <use xlink:href="#DejaVuSans-31"/>
       <use x="63.623047" xlink:href="#DejaVuSans-2e"/>
       <use x="95.410156" xlink:href="#DejaVuSans-35"/>
      </g>
     </g>
    </g>
    <g id="ytick_4">
     <g id="line2d_19">
      <path clip-path="url(#p6c1d577032)" d="M 33.8 124.415968 
L 542.325 124.415968 
" style="fill:none;stroke:#ffffff;stroke-linecap:square;stroke-width:0.8;"/>
     </g>
     <g id="line2d_20">
      <g>
       <use style="fill:#555555;stroke:#555555;stroke-width:0.8;" x="33.8" xlink:href="#m68c4ee6bea" y="124.415968"/>
      </g>
     </g>
     <g id="text_11">
      <!-- 2.0 -->
      <g style="fill:#555555;" transform="translate(10.896875 128.215187)scale(0.1 -0.1)">
       <use xlink:href="#DejaVuSans-32"/>
       <use x="63.623047" xlink:href="#DejaVuSans-2e"/>
       <use x="95.410156" xlink:href="#DejaVuSans-30"/>
      </g>
     </g>
    </g>
    <g id="ytick_5">
     <g id="line2d_21">
      <path clip-path="url(#p6c1d577032)" d="M 33.8 90.094215 
L 542.325 90.094215 
" style="fill:none;stroke:#ffffff;stroke-linecap:square;stroke-width:0.8;"/>
     </g>
     <g id="line2d_22">
      <g>
       <use style="fill:#555555;stroke:#555555;stroke-width:0.8;" x="33.8" xlink:href="#m68c4ee6bea" y="90.094215"/>
      </g>
     </g>
     <g id="text_12">
      <!-- 2.5 -->
      <g style="fill:#555555;" transform="translate(10.896875 93.893434)scale(0.1 -0.1)">
       <use xlink:href="#DejaVuSans-32"/>
       <use x="63.623047" xlink:href="#DejaVuSans-2e"/>
       <use x="95.410156" xlink:href="#DejaVuSans-35"/>
      </g>
     </g>
    </g>
    <g id="ytick_6">
     <g id="line2d_23">
      <path clip-path="url(#p6c1d577032)" d="M 33.8 55.772462 
L 542.325 55.772462 
" style="fill:none;stroke:#ffffff;stroke-linecap:square;stroke-width:0.8;"/>
     </g>
     <g id="line2d_24">
      <g>
       <use style="fill:#555555;stroke:#555555;stroke-width:0.8;" x="33.8" xlink:href="#m68c4ee6bea" y="55.772462"/>
      </g>
     </g>
     <g id="text_13">
      <!-- 3.0 -->
      <g style="fill:#555555;" transform="translate(10.896875 59.571681)scale(0.1 -0.1)">
       <defs>
        <path d="M 2597 2516 
Q 3050 2419 3304 2112 
Q 3559 1806 3559 1356 
Q 3559 666 3084 287 
Q 2609 -91 1734 -91 
Q 1441 -91 1130 -33 
Q 819 25 488 141 
L 488 750 
Q 750 597 1062 519 
Q 1375 441 1716 441 
Q 2309 441 2620 675 
Q 2931 909 2931 1356 
Q 2931 1769 2642 2001 
Q 2353 2234 1838 2234 
L 1294 2234 
L 1294 2753 
L 1863 2753 
Q 2328 2753 2575 2939 
Q 2822 3125 2822 3475 
Q 2822 3834 2567 4026 
Q 2313 4219 1838 4219 
Q 1578 4219 1281 4162 
Q 984 4106 628 3988 
L 628 4550 
Q 988 4650 1302 4700 
Q 1616 4750 1894 4750 
Q 2613 4750 3031 4423 
Q 3450 4097 3450 3541 
Q 3450 3153 3228 2886 
Q 3006 2619 2597 2516 
z
" id="DejaVuSans-33" transform="scale(0.015625)"/>
       </defs>
       <use xlink:href="#DejaVuSans-33"/>
       <use x="63.623047" xlink:href="#DejaVuSans-2e"/>
       <use x="95.410156" xlink:href="#DejaVuSans-30"/>
      </g>
     </g>
    </g>
   </g>
   <g id="line2d_25">
    <path clip-path="url(#p6c1d577032)" d="M 56.914773 57.86571 
L 61.584424 72.084023 
L 66.254075 86.756014 
L 70.923726 103.439978 
L 75.593377 101.026787 
L 80.263028 107.292056 
L 84.932679 112.977731 
L 89.60233 111.31457 
L 94.271981 111.70711 
L 98.941632 114.183593 
L 103.611283 115.443077 
L 108.280934 120.55648 
L 112.950585 119.563872 
L 117.620236 116.892543 
L 122.289888 120.953594 
L 126.959539 119.335281 
L 131.62919 120.818294 
L 136.298841 125.088779 
L 140.968492 127.785409 
L 145.638143 124.149395 
L 150.307794 124.965711 
L 154.977445 126.485042 
L 159.647096 122.483448 
L 164.316747 124.260431 
L 168.986398 125.588981 
L 173.656049 127.535331 
L 178.3257 129.775151 
L 182.995351 127.060096 
L 187.665002 129.559716 
L 192.334653 132.352465 
L 197.004304 129.978845 
L 201.673955 128.241866 
L 206.343607 127.176353 
L 211.013258 127.858606 
L 215.682909 128.906771 
L 220.35256 129.70856 
L 225.022211 129.261346 
L 229.691862 130.84264 
L 234.361513 130.855257 
L 239.031164 129.966125 
L 243.700815 131.0385 
L 248.370466 129.217025 
L 253.040117 128.900945 
L 257.709768 129.971052 
L 262.379419 129.574687 
L 267.04907 125.649538 
L 271.718721 129.73472 
L 276.388372 130.960856 
L 281.058023 127.61615 
L 285.727674 129.377312 
L 290.397326 132.115434 
L 295.066977 131.313717 
L 299.736628 131.05482 
L 304.406279 131.375779 
L 309.07593 131.762091 
L 313.745581 129.597872 
L 318.415232 130.559795 
L 323.084883 128.216938 
L 327.754534 131.811513 
L 332.424185 128.819947 
L 337.093836 130.10034 
L 341.763487 126.449015 
L 346.433138 131.372539 
L 351.102789 127.827673 
L 355.77244 126.466998 
L 360.442091 126.777915 
L 365.111742 131.998499 
L 369.781393 131.123029 
L 374.451045 130.8212 
L 379.120696 130.36035 
L 383.790347 129.424453 
L 388.459998 132.450939 
L 393.129649 131.533532 
L 397.7993 130.568282 
L 402.468951 130.477711 
L 407.138602 129.268709 
L 411.808253 128.176529 
L 416.477904 129.588879 
L 421.147555 128.364524 
L 425.817206 130.921803 
L 430.486857 127.720151 
L 435.156508 129.389609 
L 439.826159 130.261951 
L 444.49581 129.486671 
L 449.165461 131.039052 
L 453.835112 128.128417 
L 458.504764 130.124568 
L 463.174415 129.220048 
L 467.844066 128.110461 
L 472.513717 126.19144 
L 477.183368 131.173035 
L 481.853019 125.778029 
L 486.52267 128.435277 
L 491.192321 124.72005 
L 495.861972 131.060928 
L 500.531623 126.307657 
L 505.201274 126.248739 
L 509.870925 128.743481 
L 514.540576 129.445991 
L 519.210227 127.012544 
" style="fill:none;stroke:#e24a33;stroke-linecap:square;stroke-width:1.5;"/>
   </g>
   <g id="line2d_26">
    <path clip-path="url(#p6c1d577032)" d="M 56.914773 57.636364 
L 61.584424 71.893463 
L 66.254075 86.424202 
L 70.923726 103.066174 
L 75.593377 100.494149 
L 80.263028 106.65089 
L 84.932679 112.382676 
L 89.60233 110.643616 
L 94.271981 110.827879 
L 98.941632 113.534097 
L 103.611283 114.695973 
L 108.280934 119.793987 
L 112.950585 118.861711 
L 117.620236 116.14452 
L 122.289888 120.414537 
L 126.959539 118.633233 
L 131.62919 120.091802 
L 136.298841 124.412903 
L 140.968492 126.989175 
L 145.638143 123.429491 
L 150.307794 124.227915 
L 154.977445 125.821519 
L 159.647096 121.70483 
L 164.316747 123.610335 
L 168.986398 124.918407 
L 173.656049 126.793086 
L 178.3257 128.962581 
L 182.995351 126.14566 
L 187.665002 128.734368 
L 192.334653 131.663196 
L 197.004304 129.064681 
L 201.673955 127.378415 
L 206.343607 126.204791 
L 211.013258 126.992808 
L 215.682909 128.129449 
L 220.35256 128.816356 
L 225.022211 128.378098 
L 229.691862 130.095083 
L 234.361513 130.110303 
L 239.031164 129.169093 
L 243.700815 130.128156 
L 248.370466 128.285688 
L 253.040117 128.163879 
L 257.709768 129.250282 
L 262.379419 128.687274 
L 267.04907 124.835076 
L 271.718721 128.779983 
L 276.388372 130.256392 
L 281.058023 126.920307 
L 285.727674 128.456158 
L 290.397326 131.315714 
L 295.066977 130.612088 
L 299.736628 130.280147 
L 304.406279 130.65919 
L 309.07593 130.934345 
L 313.745581 128.846591 
L 318.415232 129.716525 
L 323.084883 127.465076 
L 327.754534 131.098127 
L 332.424185 127.938688 
L 337.093836 129.271287 
L 341.763487 125.697003 
L 346.433138 130.610107 
L 351.102789 127.01282 
L 355.77244 125.618661 
L 360.442091 125.858515 
L 365.111742 131.131567 
L 369.781393 130.352953 
L 374.451045 130.10747 
L 379.120696 129.507467 
L 383.790347 128.645292 
L 388.459998 131.92641 
L 393.129649 130.891295 
L 397.7993 129.87591 
L 402.468951 129.718068 
L 407.138602 128.662415 
L 411.808253 127.723151 
L 416.477904 128.928003 
L 421.147555 127.661202 
L 425.817206 130.181888 
L 430.486857 127.043419 
L 435.156508 128.810307 
L 439.826159 129.641715 
L 444.49581 128.66235 
L 449.165461 130.266083 
L 453.835112 127.384023 
L 458.504764 129.33135 
L 463.174415 128.473829 
L 467.844066 127.546403 
L 472.513717 125.432716 
L 477.183368 130.555832 
L 481.853019 125.102978 
L 486.52267 127.893428 
L 491.192321 124.221635 
L 495.861972 130.582197 
L 500.531623 125.759773 
L 505.201274 125.603377 
L 509.870925 128.136969 
L 514.540576 128.92863 
L 519.210227 126.380776 
" style="fill:none;stroke:#e24a33;stroke-dasharray:5.55,2.4;stroke-dashoffset:0;stroke-width:1.5;"/>
   </g>
   <g id="line2d_27">
    <path clip-path="url(#p6c1d577032)" d="M 56.914773 79.737109 
L 61.584424 97.728934 
L 66.254075 109.933376 
L 70.923726 122.635687 
L 75.593377 121.399098 
L 80.263028 134.979385 
L 84.932679 135.635679 
L 89.60233 136.348028 
L 94.271981 139.8303 
L 98.941632 141.456982 
L 103.611283 143.960274 
L 108.280934 148.180673 
L 112.950585 145.583699 
L 117.620236 148.321991 
L 122.289888 145.475922 
L 126.959539 146.822496 
L 131.62919 149.864526 
L 136.298841 146.694522 
L 140.968492 149.432311 
L 145.638143 149.28402 
L 150.307794 145.75207 
L 154.977445 149.065025 
L 159.647096 148.158934 
L 164.316747 148.699224 
L 168.986398 146.456827 
L 173.656049 148.960313 
L 178.3257 150.724693 
L 182.995351 146.2255 
L 187.665002 146.917147 
L 192.334653 149.179647 
L 197.004304 148.686031 
L 201.673955 147.546253 
L 206.343607 148.966477 
L 211.013258 149.690509 
L 215.682909 146.065274 
L 220.35256 149.028529 
L 225.022211 149.730258 
L 229.691862 148.541986 
L 234.361513 144.333188 
L 239.031164 145.825057 
L 243.700815 144.869291 
L 248.370466 144.752193 
L 253.040117 149.203567 
L 257.709768 150.319595 
L 262.379419 146.31931 
L 267.04907 145.017679 
L 271.718721 147.513509 
L 276.388372 150.068 
L 281.058023 144.225668 
L 285.727674 148.79193 
L 290.397326 145.655538 
L 295.066977 146.803549 
L 299.736628 146.024269 
L 304.406279 148.253753 
L 309.07593 147.807201 
L 313.745581 146.082899 
L 318.415232 147.549664 
L 323.084883 144.37643 
L 327.754534 147.901909 
L 332.424185 148.561255 
L 337.093836 148.546542 
L 341.763487 145.752239 
L 346.433138 147.431058 
L 351.102789 146.041447 
L 355.77244 145.528066 
L 360.442091 146.50338 
L 365.111742 148.445469 
L 369.781393 147.19308 
L 374.451045 146.916121 
L 379.120696 147.327146 
L 383.790347 146.494644 
L 388.459998 146.110013 
L 393.129649 147.703631 
L 397.7993 145.186329 
L 402.468951 140.688845 
L 407.138602 144.056898 
L 411.808253 146.145969 
L 416.477904 144.946203 
L 421.147555 146.004893 
L 425.817206 147.238349 
L 430.486857 146.676022 
L 435.156508 144.325512 
L 439.826159 143.992784 
L 444.49581 144.614896 
L 449.165461 147.181415 
L 453.835112 141.130376 
L 458.504764 145.116718 
L 463.174415 145.756355 
L 467.844066 144.699173 
L 472.513717 141.728283 
L 477.183368 146.553796 
L 481.853019 143.876903 
L 486.52267 143.293307 
L 491.192321 142.003193 
L 495.861972 143.083186 
L 500.531623 139.980213 
L 505.201274 143.381505 
L 509.870925 145.635351 
L 514.540576 143.454429 
L 519.210227 141.577912 
" style="fill:none;stroke:#348abd;stroke-linecap:square;stroke-width:1.5;"/>
   </g>
   <g id="line2d_28">
    <path clip-path="url(#p6c1d577032)" d="M 56.914773 79.381404 
L 61.584424 97.180846 
L 66.254075 109.648523 
L 70.923726 122.358397 
L 75.593377 121.101256 
L 80.263028 134.836413 
L 84.932679 135.091101 
L 89.60233 135.820775 
L 94.271981 139.373283 
L 98.941632 140.90635 
L 103.611283 143.406721 
L 108.280934 147.532196 
L 112.950585 144.995992 
L 117.620236 147.812673 
L 122.289888 144.687233 
L 126.959539 146.21635 
L 131.62919 149.268781 
L 136.298841 146.193174 
L 140.968492 148.988795 
L 145.638143 148.635435 
L 150.307794 145.204717 
L 154.977445 148.618636 
L 159.647096 147.716426 
L 164.316747 148.035804 
L 168.986398 145.93497 
L 173.656049 148.498082 
L 178.3257 150.173542 
L 182.995351 145.600975 
L 187.665002 146.359362 
L 192.334653 148.600436 
L 197.004304 148.112027 
L 201.673955 146.965498 
L 206.343607 148.251897 
L 211.013258 148.936343 
L 215.682909 145.474858 
L 220.35256 148.249759 
L 225.022211 149.08353 
L 229.691862 147.972756 
L 234.361513 143.842281 
L 239.031164 145.202939 
L 243.700815 144.250479 
L 248.370466 144.025037 
L 253.040117 148.729783 
L 257.709768 149.563426 
L 262.379419 145.589197 
L 267.04907 144.236766 
L 271.718721 146.913783 
L 276.388372 149.437034 
L 281.058023 143.692223 
L 285.727674 148.217001 
L 290.397326 144.900384 
L 295.066977 146.18361 
L 299.736628 145.488213 
L 304.406279 147.56822 
L 309.07593 147.181028 
L 313.745581 145.597219 
L 318.415232 146.980069 
L 323.084883 143.70463 
L 327.754534 147.392341 
L 332.424185 148.06577 
L 337.093836 148.020471 
L 341.763487 145.037062 
L 346.433138 146.875951 
L 351.102789 145.443142 
L 355.77244 145.081307 
L 360.442091 146.087941 
L 365.111742 147.95099 
L 369.781393 146.790748 
L 374.451045 146.529351 
L 379.120696 146.770647 
L 383.790347 145.988808 
L 388.459998 145.606684 
L 393.129649 147.091229 
L 397.7993 144.657771 
L 402.468951 140.191393 
L 407.138602 143.666643 
L 411.808253 145.754329 
L 416.477904 144.339299 
L 421.147555 145.31361 
L 425.817206 146.906101 
L 430.486857 146.147066 
L 435.156508 143.621942 
L 439.826159 143.408761 
L 444.49581 144.123124 
L 449.165461 146.699898 
L 453.835112 140.797907 
L 458.504764 144.693895 
L 463.174415 145.186222 
L 467.844066 144.404757 
L 472.513717 141.392153 
L 477.183368 146.154668 
L 481.853019 143.425016 
L 486.52267 142.817539 
L 491.192321 141.624844 
L 495.861972 142.662206 
L 500.531623 139.585932 
L 505.201274 142.948906 
L 509.870925 145.061425 
L 514.540576 143.065885 
L 519.210227 141.10714 
" style="fill:none;stroke:#348abd;stroke-dasharray:5.55,2.4;stroke-dashoffset:0;stroke-width:1.5;"/>
   </g>
   <g id="line2d_29">
    <path clip-path="url(#p6c1d577032)" d="M 56.914773 158.5633 
L 61.584424 178.067465 
L 66.254075 189.408094 
L 70.923726 195.137013 
L 75.593377 197.198128 
L 80.263028 201.30656 
L 84.932679 203.748657 
L 89.60233 206.211287 
L 94.271981 207.487838 
L 98.941632 209.500533 
L 103.611283 210.366492 
L 108.280934 210.761922 
L 112.950585 212.893672 
L 117.620236 212.468065 
L 122.289888 213.513889 
L 126.959539 213.875143 
L 131.62919 215.203839 
L 136.298841 216.152932 
L 140.968492 215.586073 
L 145.638143 216.798256 
L 150.307794 216.162012 
L 154.977445 216.253083 
L 159.647096 216.375089 
L 164.316747 216.928667 
L 168.986398 215.834127 
L 173.656049 215.764353 
L 178.3257 217.902286 
L 182.995351 217.585603 
L 187.665002 217.377534 
L 192.334653 217.714838 
L 197.004304 218.451544 
L 201.673955 217.152766 
L 206.343607 218.058632 
L 211.013258 217.861343 
L 215.682909 217.22575 
L 220.35256 219.165441 
L 225.022211 218.950187 
L 229.691862 218.736193 
L 234.361513 219.098616 
L 239.031164 218.14389 
L 243.700815 218.326244 
L 248.370466 219.317852 
L 253.040117 218.794668 
L 257.709768 218.065827 
L 262.379419 217.738641 
L 267.04907 219.290637 
L 271.718721 218.626799 
L 276.388372 220.3917 
L 281.058023 219.344329 
L 285.727674 220.230282 
L 290.397326 218.316518 
L 295.066977 219.362062 
L 299.736628 218.255772 
L 304.406279 217.955931 
L 309.07593 219.581739 
L 313.745581 219.866142 
L 318.415232 219.869523 
L 323.084883 219.181705 
L 327.754534 218.669934 
L 332.424185 219.720185 
L 337.093836 220.634929 
L 341.763487 219.775095 
L 346.433138 220.007637 
L 351.102789 219.682689 
L 355.77244 219.693864 
L 360.442091 219.255532 
L 365.111742 220.508541 
L 369.781393 220.133737 
L 374.451045 219.816036 
L 379.120696 220.4887 
L 383.790347 218.558206 
L 388.459998 219.539481 
L 393.129649 220.809271 
L 397.7993 220.377337 
L 402.468951 220.753853 
L 407.138602 218.970591 
L 411.808253 219.130272 
L 416.477904 220.415886 
L 421.147555 220.235391 
L 425.817206 219.671202 
L 430.486857 220.111056 
L 435.156508 219.741372 
L 439.826159 219.509585 
L 444.49581 219.316158 
L 449.165461 219.832917 
L 453.835112 219.586979 
L 458.504764 220.480056 
L 463.174415 220.548223 
L 467.844066 219.365066 
L 472.513717 218.985643 
L 477.183368 221.21389 
L 481.853019 219.521401 
L 486.52267 219.558078 
L 491.192321 219.662064 
L 495.861972 219.85635 
L 500.531623 220.804303 
L 505.201274 219.267314 
L 509.870925 220.936102 
L 514.540576 220.497956 
L 519.210227 220.669185 
" style="fill:none;stroke:#988ed5;stroke-linecap:square;stroke-width:1.5;"/>
   </g>
   <g id="line2d_30">
    <path clip-path="url(#p6c1d577032)" d="M 56.914773 157.932197 
L 61.584424 177.232428 
L 66.254075 188.51905 
L 70.923726 194.253276 
L 75.593377 196.386361 
L 80.263028 200.585464 
L 84.932679 202.913278 
L 89.60233 205.503609 
L 94.271981 206.641489 
L 98.941632 208.646824 
L 103.611283 209.335863 
L 108.280934 209.901969 
L 112.950585 212.007845 
L 117.620236 211.433399 
L 122.289888 212.63403 
L 126.959539 213.129961 
L 131.62919 214.209996 
L 136.298841 215.199206 
L 140.968492 214.652631 
L 145.638143 215.721821 
L 150.307794 215.135332 
L 154.977445 215.240417 
L 159.647096 215.210671 
L 164.316747 216.052606 
L 168.986398 214.711141 
L 173.656049 214.628372 
L 178.3257 216.774295 
L 182.995351 216.580889 
L 187.665002 216.442376 
L 192.334653 217.008758 
L 197.004304 217.392529 
L 201.673955 216.088731 
L 206.343607 217.143978 
L 211.013258 216.990371 
L 215.682909 216.304252 
L 220.35256 218.220231 
L 225.022211 218.039546 
L 229.691862 217.787884 
L 234.361513 218.305116 
L 239.031164 217.232398 
L 243.700815 217.15163 
L 248.370466 218.360866 
L 253.040117 217.884521 
L 257.709768 217.199851 
L 262.379419 216.826686 
L 267.04907 218.431626 
L 271.718721 217.691696 
L 276.388372 219.403515 
L 281.058023 218.448538 
L 285.727674 219.277245 
L 290.397326 217.317989 
L 295.066977 218.19038 
L 299.736628 217.435185 
L 304.406279 217.04024 
L 309.07593 218.692117 
L 313.745581 219.134074 
L 318.415232 218.750956 
L 323.084883 218.182872 
L 327.754534 217.794434 
L 332.424185 219.041198 
L 337.093836 219.651507 
L 341.763487 218.681698 
L 346.433138 219.142497 
L 351.102789 218.618213 
L 355.77244 218.565814 
L 360.442091 218.152829 
L 365.111742 219.599214 
L 369.781393 219.24939 
L 374.451045 218.594299 
L 379.120696 219.638593 
L 383.790347 217.728602 
L 388.459998 218.473958 
L 393.129649 219.716947 
L 397.7993 219.342204 
L 402.468951 219.88802 
L 407.138602 217.817779 
L 411.808253 218.151944 
L 416.477904 219.426859 
L 421.147555 219.151421 
L 425.817206 218.632133 
L 430.486857 218.90289 
L 435.156508 218.785044 
L 439.826159 218.192456 
L 444.49581 218.162882 
L 449.165461 218.739358 
L 453.835112 218.595186 
L 458.504764 219.366375 
L 463.174415 219.496637 
L 467.844066 218.264735 
L 472.513717 218.014455 
L 477.183368 219.935028 
L 481.853019 218.671529 
L 486.52267 218.448311 
L 491.192321 218.655442 
L 495.861972 218.898636 
L 500.531623 219.816375 
L 505.201274 218.103876 
L 509.870925 220.160113 
L 514.540576 219.339706 
L 519.210227 219.696264 
" style="fill:none;stroke:#988ed5;stroke-dasharray:5.55,2.4;stroke-dashoffset:0;stroke-width:1.5;"/>
   </g>
   <g id="line2d_31">
    <path clip-path="url(#p6c1d577032)" d="M 56.914773 163.345488 
L 61.584424 183.000584 
L 66.254075 191.098419 
L 70.923726 197.270287 
L 75.593377 197.499329 
L 80.263028 201.930584 
L 84.932679 204.175396 
L 89.60233 204.383367 
L 94.271981 206.708294 
L 98.941632 207.569798 
L 103.611283 208.949631 
L 108.280934 209.532092 
L 112.950585 210.086627 
L 117.620236 209.917095 
L 122.289888 210.9415 
L 126.959539 210.397328 
L 131.62919 211.528546 
L 136.298841 211.856526 
L 140.968492 213.601803 
L 145.638143 213.254036 
L 150.307794 213.239931 
L 154.977445 214.268354 
L 159.647096 213.656246 
L 164.316747 213.863807 
L 168.986398 212.680904 
L 173.656049 212.609496 
L 178.3257 214.796933 
L 182.995351 213.996882 
L 187.665002 214.215266 
L 192.334653 214.007504 
L 197.004304 214.851644 
L 201.673955 214.702851 
L 206.343607 214.437934 
L 211.013258 213.661968 
L 215.682909 213.534526 
L 220.35256 214.704047 
L 225.022211 214.933702 
L 229.691862 214.983176 
L 234.361513 214.816349 
L 239.031164 214.757736 
L 243.700815 215.57046 
L 248.370466 215.401367 
L 253.040117 213.847167 
L 257.709768 215.134708 
L 262.379419 213.683512 
L 267.04907 215.762187 
L 271.718721 212.772372 
L 276.388372 214.814736 
L 281.058023 215.400877 
L 285.727674 214.527059 
L 290.397326 215.288788 
L 295.066977 216.096456 
L 299.736628 215.997889 
L 304.406279 215.60565 
L 309.07593 215.789758 
L 313.745581 215.007868 
L 318.415232 214.6145 
L 323.084883 215.332821 
L 327.754534 215.750994 
L 332.424185 214.163633 
L 337.093836 215.409402 
L 341.763487 214.216221 
L 346.433138 216.689213 
L 351.102789 216.70204 
L 355.77244 217.321961 
L 360.442091 215.81525 
L 365.111742 216.437464 
L 369.781393 215.901616 
L 374.451045 215.647084 
L 379.120696 215.458963 
L 383.790347 216.202486 
L 388.459998 216.71803 
L 393.129649 216.100263 
L 397.7993 214.802469 
L 402.468951 217.297052 
L 407.138602 216.05262 
L 411.808253 216.312464 
L 416.477904 216.499823 
L 421.147555 215.357513 
L 425.817206 215.322885 
L 430.486857 215.930294 
L 435.156508 215.599923 
L 439.826159 215.828423 
L 444.49581 215.307043 
L 449.165461 215.769242 
L 453.835112 215.75734 
L 458.504764 216.839162 
L 463.174415 216.218847 
L 467.844066 216.824943 
L 472.513717 215.975258 
L 477.183368 215.479814 
L 481.853019 216.9953 
L 486.52267 216.278528 
L 491.192321 215.66622 
L 495.861972 215.380725 
L 500.531623 217.081771 
L 505.201274 215.723506 
L 509.870925 216.647006 
L 514.540576 215.52789 
L 519.210227 215.945662 
" style="fill:none;stroke:#777777;stroke-linecap:square;stroke-width:1.5;"/>
   </g>
   <g id="line2d_32">
    <path clip-path="url(#p6c1d577032)" d="M 56.914773 162.967173 
L 61.584424 182.372526 
L 66.254075 190.327568 
L 70.923726 196.469056 
L 75.593377 196.651856 
L 80.263028 201.012661 
L 84.932679 203.198405 
L 89.60233 203.438799 
L 94.271981 205.75883 
L 98.941632 206.60248 
L 103.611283 207.95533 
L 108.280934 208.506484 
L 112.950585 208.847369 
L 117.620236 208.881687 
L 122.289888 210.039211 
L 126.959539 209.055603 
L 131.62919 210.56107 
L 136.298841 210.824183 
L 140.968492 212.518051 
L 145.638143 212.171112 
L 150.307794 212.465139 
L 154.977445 213.266647 
L 159.647096 212.510501 
L 164.316747 212.83592 
L 168.986398 211.55226 
L 173.656049 211.692419 
L 178.3257 213.814119 
L 182.995351 212.879645 
L 187.665002 213.120842 
L 192.334653 212.846842 
L 197.004304 213.728129 
L 201.673955 213.487746 
L 206.343607 213.501151 
L 211.013258 212.585899 
L 215.682909 212.433988 
L 220.35256 213.729008 
L 225.022211 214.032909 
L 229.691862 213.813044 
L 234.361513 213.758905 
L 239.031164 213.553006 
L 243.700815 214.50635 
L 248.370466 214.447398 
L 253.040117 212.61801 
L 257.709768 214.007489 
L 262.379419 212.589685 
L 267.04907 214.705289 
L 271.718721 211.51528 
L 276.388372 213.545096 
L 281.058023 214.278947 
L 285.727674 213.260259 
L 290.397326 214.185489 
L 295.066977 214.894099 
L 299.736628 214.674773 
L 304.406279 214.585668 
L 309.07593 214.585832 
L 313.745581 213.785667 
L 318.415232 213.661428 
L 323.084883 214.337006 
L 327.754534 214.707181 
L 332.424185 213.047473 
L 337.093836 214.208775 
L 341.763487 212.715591 
L 346.433138 215.640131 
L 351.102789 215.694964 
L 355.77244 216.209985 
L 360.442091 214.600248 
L 365.111742 215.372002 
L 369.781393 214.764463 
L 374.451045 214.391217 
L 379.120696 214.117652 
L 383.790347 215.294159 
L 388.459998 215.64098 
L 393.129649 215.01654 
L 397.7993 213.923852 
L 402.468951 216.416607 
L 407.138602 215.058738 
L 411.808253 215.071382 
L 416.477904 215.362975 
L 421.147555 214.087645 
L 425.817206 214.054831 
L 430.486857 214.532333 
L 435.156508 214.315571 
L 439.826159 214.766927 
L 444.49581 214.190844 
L 449.165461 214.701302 
L 453.835112 214.542593 
L 458.504764 215.720339 
L 463.174415 215.077842 
L 467.844066 215.666136 
L 472.513717 214.743099 
L 477.183368 214.324248 
L 481.853019 215.80993 
L 486.52267 214.861044 
L 491.192321 214.578313 
L 495.861972 214.269503 
L 500.531623 215.74532 
L 505.201274 214.428393 
L 509.870925 215.444733 
L 514.540576 214.584695 
L 519.210227 214.777018 
" style="fill:none;stroke:#777777;stroke-dasharray:5.55,2.4;stroke-dashoffset:0;stroke-width:1.5;"/>
   </g>
   <g id="line2d_33">
    <path clip-path="url(#p6c1d577032)" d="M 56.914773 90.699761 
L 61.584424 115.529634 
L 66.254075 131.131266 
L 70.923726 148.581803 
L 75.593377 148.923012 
L 80.263028 157.866337 
L 84.932679 165.183559 
L 89.60233 164.718954 
L 94.271981 167.762287 
L 98.941632 172.175584 
L 103.611283 174.261016 
L 108.280934 177.116812 
L 112.950585 176.907338 
L 117.620236 178.55423 
L 122.289888 179.795763 
L 126.959539 180.094814 
L 131.62919 183.57209 
L 136.298841 180.698977 
L 140.968492 182.659409 
L 145.638143 182.392097 
L 150.307794 179.998217 
L 154.977445 182.943945 
L 159.647096 184.430299 
L 164.316747 183.126665 
L 168.986398 184.913401 
L 173.656049 184.795103 
L 178.3257 183.906015 
L 182.995351 187.561011 
L 187.665002 186.4689 
L 192.334653 186.81345 
L 197.004304 189.818353 
L 201.673955 185.41137 
L 206.343607 184.514141 
L 211.013258 185.536921 
L 215.682909 187.091166 
L 220.35256 187.897131 
L 225.022211 189.020253 
L 229.691862 186.136607 
L 234.361513 186.634685 
L 239.031164 186.331956 
L 243.700815 185.692789 
L 248.370466 187.603765 
L 253.040117 186.72291 
L 257.709768 189.559431 
L 262.379419 185.434299 
L 267.04907 187.766988 
L 271.718721 186.435745 
L 276.388372 190.233898 
L 281.058023 188.10385 
L 285.727674 189.946938 
L 290.397326 188.511566 
L 295.066977 188.240618 
L 299.736628 189.283435 
L 304.406279 189.713338 
L 309.07593 189.601156 
L 313.745581 186.843248 
L 318.415232 186.895034 
L 323.084883 187.956783 
L 327.754534 188.473348 
L 332.424185 185.192153 
L 337.093836 187.499368 
L 341.763487 187.207667 
L 346.433138 187.958929 
L 351.102789 187.435295 
L 355.77244 187.433642 
L 360.442091 190.750083 
L 365.111742 188.712636 
L 369.781393 188.064066 
L 374.451045 188.912067 
L 379.120696 190.12404 
L 383.790347 186.369577 
L 388.459998 188.221797 
L 393.129649 188.536713 
L 397.7993 188.883555 
L 402.468951 188.719635 
L 407.138602 186.394585 
L 411.808253 186.697787 
L 416.477904 189.652894 
L 421.147555 187.232558 
L 425.817206 188.729803 
L 430.486857 187.051873 
L 435.156508 187.987967 
L 439.826159 187.424333 
L 444.49581 188.518981 
L 449.165461 187.152628 
L 453.835112 187.594641 
L 458.504764 186.148032 
L 463.174415 188.345001 
L 467.844066 186.053837 
L 472.513717 185.509283 
L 477.183368 190.765439 
L 481.853019 187.51565 
L 486.52267 186.992794 
L 491.192321 187.795379 
L 495.861972 187.508073 
L 500.531623 187.286689 
L 505.201274 188.624762 
L 509.870925 188.581119 
L 514.540576 187.261634 
L 519.210227 187.655938 
" style="fill:none;stroke:#fbc15e;stroke-linecap:square;stroke-width:1.5;"/>
   </g>
   <g id="line2d_34">
    <path clip-path="url(#p6c1d577032)" d="M 56.914773 90.291406 
L 61.584424 115.009704 
L 66.254075 130.553281 
L 70.923726 147.786456 
L 75.593377 148.092973 
L 80.263028 157.001895 
L 84.932679 164.206224 
L 89.60233 163.748192 
L 94.271981 166.73951 
L 98.941632 171.034132 
L 103.611283 173.067659 
L 108.280934 175.815787 
L 112.950585 175.669432 
L 117.620236 177.208448 
L 122.289888 178.350946 
L 126.959539 178.705533 
L 131.62919 182.27107 
L 136.298841 179.323621 
L 140.968492 181.112187 
L 145.638143 180.934767 
L 150.307794 178.567657 
L 154.977445 181.550888 
L 159.647096 183.024752 
L 164.316747 181.615214 
L 168.986398 183.423245 
L 173.656049 183.36156 
L 178.3257 182.368 
L 182.995351 185.857076 
L 187.665002 184.890623 
L 192.334653 185.236048 
L 197.004304 188.196505 
L 201.673955 183.720005 
L 206.343607 182.738368 
L 211.013258 183.840928 
L 215.682909 185.434993 
L 220.35256 186.175476 
L 225.022211 187.254688 
L 229.691862 184.553754 
L 234.361513 184.704809 
L 239.031164 184.616962 
L 243.700815 183.98224 
L 248.370466 185.977913 
L 253.040117 185.045658 
L 257.709768 187.812179 
L 262.379419 183.75992 
L 267.04907 186.120327 
L 271.718721 184.791649 
L 276.388372 188.45808 
L 281.058023 186.359091 
L 285.727674 188.063397 
L 290.397326 186.643234 
L 295.066977 186.344034 
L 299.736628 187.455966 
L 304.406279 187.965694 
L 309.07593 187.908352 
L 313.745581 184.969053 
L 318.415232 184.960594 
L 323.084883 186.170474 
L 327.754534 186.628383 
L 332.424185 183.47694 
L 337.093836 185.630171 
L 341.763487 185.206496 
L 346.433138 186.106708 
L 351.102789 185.701792 
L 355.77244 185.722622 
L 360.442091 188.901386 
L 365.111742 186.817056 
L 369.781393 186.238916 
L 374.451045 187.022955 
L 379.120696 188.274286 
L 383.790347 184.658219 
L 388.459998 186.413975 
L 393.129649 186.68015 
L 397.7993 187.115212 
L 402.468951 186.819585 
L 407.138602 184.412684 
L 411.808253 184.825764 
L 416.477904 187.717301 
L 421.147555 185.483062 
L 425.817206 186.877938 
L 430.486857 185.221778 
L 435.156508 186.117694 
L 439.826159 185.541533 
L 444.49581 186.512662 
L 449.165461 185.254392 
L 453.835112 185.637596 
L 458.504764 184.23389 
L 463.174415 186.373415 
L 467.844066 184.006558 
L 472.513717 183.487802 
L 477.183368 188.767475 
L 481.853019 185.586816 
L 486.52267 184.930419 
L 491.192321 185.76435 
L 495.861972 185.380302 
L 500.531623 185.244364 
L 505.201274 186.654965 
L 509.870925 186.608536 
L 514.540576 185.334561 
L 519.210227 185.715858 
" style="fill:none;stroke:#fbc15e;stroke-dasharray:5.55,2.4;stroke-dashoffset:0;stroke-width:1.5;"/>
   </g>
   <g id="line2d_35">
    <path clip-path="url(#p6c1d577032)" d="M 56.914773 94.46881 
L 61.584424 119.313331 
L 66.254075 132.961264 
L 70.923726 152.997207 
L 75.593377 146.99874 
L 80.263028 160.984668 
L 84.932679 165.005981 
L 89.60233 164.302297 
L 94.271981 170.781461 
L 98.941632 171.978368 
L 103.611283 175.903653 
L 108.280934 180.577126 
L 112.950585 177.553142 
L 117.620236 179.509869 
L 122.289888 182.021663 
L 126.959539 180.213104 
L 131.62919 183.255939 
L 136.298841 182.388775 
L 140.968492 184.727545 
L 145.638143 184.175584 
L 150.307794 185.113779 
L 154.977445 188.037449 
L 159.647096 184.327902 
L 164.316747 184.763989 
L 168.986398 184.429213 
L 173.656049 187.615191 
L 178.3257 186.575549 
L 182.995351 186.345705 
L 187.665002 188.389609 
L 192.334653 190.042613 
L 197.004304 190.478156 
L 201.673955 187.275255 
L 206.343607 186.981239 
L 211.013258 189.11526 
L 215.682909 187.443461 
L 220.35256 188.31779 
L 225.022211 187.90761 
L 229.691862 187.247913 
L 234.361513 188.66655 
L 239.031164 187.287124 
L 243.700815 187.021772 
L 248.370466 189.88867 
L 253.040117 187.582528 
L 257.709768 189.534914 
L 262.379419 189.387808 
L 267.04907 187.304875 
L 271.718721 187.22203 
L 276.388372 191.167935 
L 281.058023 187.560655 
L 285.727674 190.845188 
L 290.397326 189.672026 
L 295.066977 188.759271 
L 299.736628 188.644437 
L 304.406279 186.588787 
L 309.07593 189.951623 
L 313.745581 188.397253 
L 318.415232 189.208782 
L 323.084883 188.335355 
L 327.754534 190.478436 
L 332.424185 189.942218 
L 337.093836 188.627527 
L 341.763487 188.277021 
L 346.433138 191.240291 
L 351.102789 188.615806 
L 355.77244 188.741845 
L 360.442091 189.033475 
L 365.111742 188.728531 
L 369.781393 189.488747 
L 374.451045 190.478772 
L 379.120696 187.163606 
L 383.790347 186.174444 
L 388.459998 188.15636 
L 393.129649 190.548933 
L 397.7993 188.938499 
L 402.468951 188.422751 
L 407.138602 187.871075 
L 411.808253 189.255227 
L 416.477904 187.657533 
L 421.147555 187.932172 
L 425.817206 187.801686 
L 430.486857 188.77592 
L 435.156508 186.55306 
L 439.826159 190.511552 
L 444.49581 187.803338 
L 449.165461 189.460418 
L 453.835112 187.854745 
L 458.504764 186.415953 
L 463.174415 189.777927 
L 467.844066 188.982505 
L 472.513717 186.736588 
L 477.183368 188.157576 
L 481.853019 187.198694 
L 486.52267 189.41349 
L 491.192321 185.756253 
L 495.861972 186.885563 
L 500.531623 187.166561 
L 505.201274 187.735936 
L 509.870925 189.906506 
L 514.540576 185.320729 
L 519.210227 187.716101 
" style="fill:none;stroke:#8eba42;stroke-linecap:square;stroke-width:1.5;"/>
   </g>
   <g id="line2d_36">
    <path clip-path="url(#p6c1d577032)" d="M 56.914773 94.131385 
L 61.584424 118.902159 
L 66.254075 132.303791 
L 70.923726 152.356339 
L 75.593377 146.249029 
L 80.263028 160.061804 
L 84.932679 163.990797 
L 89.60233 163.103894 
L 94.271981 169.670769 
L 98.941632 170.858759 
L 103.611283 174.747343 
L 108.280934 179.383898 
L 112.950585 176.277731 
L 117.620236 178.033974 
L 122.289888 180.648143 
L 126.959539 178.66303 
L 131.62919 181.750068 
L 136.298841 181.020943 
L 140.968492 183.241182 
L 145.638143 182.578535 
L 150.307794 183.63614 
L 154.977445 186.437563 
L 159.647096 182.730929 
L 164.316747 183.219333 
L 168.986398 182.899261 
L 173.656049 186.080025 
L 178.3257 184.925235 
L 182.995351 184.788943 
L 187.665002 186.745065 
L 192.334653 188.344583 
L 197.004304 188.797987 
L 201.673955 185.702509 
L 206.343607 185.317307 
L 211.013258 187.493844 
L 215.682909 185.794413 
L 220.35256 186.750336 
L 225.022211 186.185077 
L 229.691862 185.674272 
L 234.361513 187.025757 
L 239.031164 185.487332 
L 243.700815 185.389901 
L 248.370466 188.232085 
L 253.040117 185.906203 
L 257.709768 187.935059 
L 262.379419 187.62453 
L 267.04907 185.684373 
L 271.718721 185.59823 
L 276.388372 189.410557 
L 281.058023 185.893463 
L 285.727674 189.146153 
L 290.397326 187.989614 
L 295.066977 187.027796 
L 299.736628 186.910145 
L 304.406279 184.703399 
L 309.07593 188.278587 
L 313.745581 186.757951 
L 318.415232 187.52633 
L 323.084883 186.62773 
L 327.754534 188.81368 
L 332.424185 188.356852 
L 337.093836 187.04949 
L 341.763487 186.573002 
L 346.433138 189.536447 
L 351.102789 187.028314 
L 355.77244 186.983409 
L 360.442091 187.210746 
L 365.111742 187.116983 
L 369.781393 187.824945 
L 374.451045 188.777081 
L 379.120696 185.38529 
L 383.790347 184.525788 
L 388.459998 186.487161 
L 393.129649 188.840672 
L 397.7993 187.285939 
L 402.468951 186.652274 
L 407.138602 186.072375 
L 411.808253 187.354739 
L 416.477904 185.780767 
L 421.147555 186.311517 
L 425.817206 186.010669 
L 430.486857 186.93992 
L 435.156508 184.655566 
L 439.826159 188.675027 
L 444.49581 186.065086 
L 449.165461 187.660898 
L 453.835112 186.124773 
L 458.504764 184.577032 
L 463.174415 188.150896 
L 467.844066 187.194083 
L 472.513717 185.01862 
L 477.183368 186.432089 
L 481.853019 185.450592 
L 486.52267 187.61446 
L 491.192321 183.967908 
L 495.861972 184.992701 
L 500.531623 185.489676 
L 505.201274 186.011096 
L 509.870925 188.157745 
L 514.540576 183.713399 
L 519.210227 186.025607 
" style="fill:none;stroke:#8eba42;stroke-dasharray:5.55,2.4;stroke-dashoffset:0;stroke-width:1.5;"/>
   </g>
   <g id="line2d_37">
    <path clip-path="url(#p6c1d577032)" d="M 56.914773 172.672838 
L 61.584424 192.17494 
L 66.254075 202.457351 
L 70.923726 207.872434 
L 75.593377 210.987438 
L 80.263028 214.036954 
L 84.932679 215.067459 
L 89.60233 217.294769 
L 94.271981 219.163914 
L 98.941632 220.808248 
L 103.611283 221.651505 
L 108.280934 222.956485 
L 112.950585 223.419145 
L 117.620236 223.856666 
L 122.289888 224.59181 
L 126.959539 224.850216 
L 131.62919 225.546597 
L 136.298841 226.513761 
L 140.968492 226.737346 
L 145.638143 226.71247 
L 150.307794 227.308926 
L 154.977445 227.451475 
L 159.647096 227.902291 
L 164.316747 227.487633 
L 168.986398 227.980298 
L 173.656049 229.217226 
L 178.3257 228.57349 
L 182.995351 229.12806 
L 187.665002 229.359234 
L 192.334653 229.56851 
L 197.004304 229.568891 
L 201.673955 230.190399 
L 206.343607 230.191741 
L 211.013258 229.998778 
L 215.682909 229.865203 
L 220.35256 230.267303 
L 225.022211 231.004668 
L 229.691862 230.73351 
L 234.361513 230.924532 
L 239.031164 230.798623 
L 243.700815 230.894542 
L 248.370466 231.002512 
L 253.040117 230.03034 
L 257.709768 231.044768 
L 262.379419 231.368661 
L 267.04907 231.646542 
L 271.718721 231.404867 
L 276.388372 232.111628 
L 281.058023 231.984567 
L 285.727674 231.811089 
L 290.397326 232.018846 
L 295.066977 231.868871 
L 299.736628 231.948916 
L 304.406279 231.899223 
L 309.07593 231.793105 
L 313.745581 231.886109 
L 318.415232 232.011985 
L 323.084883 232.3895 
L 327.754534 232.310708 
L 332.424185 232.985403 
L 337.093836 232.22896 
L 341.763487 232.755747 
L 346.433138 233.077439 
L 351.102789 232.675213 
L 355.77244 232.642064 
L 360.442091 232.686273 
L 365.111742 233.088078 
L 369.781393 232.716787 
L 374.451045 232.814253 
L 379.120696 233.396187 
L 383.790347 233.136967 
L 388.459998 232.986845 
L 393.129649 233.502594 
L 397.7993 233.327889 
L 402.468951 233.855988 
L 407.138602 233.634466 
L 411.808253 233.29354 
L 416.477904 232.837922 
L 421.147555 233.610823 
L 425.817206 233.517416 
L 430.486857 233.272748 
L 435.156508 233.638955 
L 439.826159 234.082286 
L 444.49581 233.626101 
L 449.165461 233.80695 
L 453.835112 233.639361 
L 458.504764 233.768296 
L 463.174415 233.816947 
L 467.844066 233.81237 
L 472.513717 234.019493 
L 477.183368 233.83663 
L 481.853019 233.876531 
L 486.52267 234.335766 
L 491.192321 233.978801 
L 495.861972 234.346166 
L 500.531623 233.973361 
L 505.201274 234.363636 
L 509.870925 234.202388 
L 514.540576 233.953885 
L 519.210227 234.111041 
" style="fill:none;stroke:#ffb5b8;stroke-linecap:square;stroke-width:1.5;"/>
   </g>
   <g id="line2d_38">
    <path clip-path="url(#p6c1d577032)" d="M 56.914773 172.086145 
L 61.584424 191.386124 
L 66.254075 201.467526 
L 70.923726 206.465886 
L 75.593377 209.459419 
L 80.263028 212.455419 
L 84.932679 213.133191 
L 89.60233 215.386064 
L 94.271981 217.169692 
L 98.941632 218.899687 
L 103.611283 219.549865 
L 108.280934 220.475799 
L 112.950585 220.989828 
L 117.620236 221.274261 
L 122.289888 222.411795 
L 126.959539 222.261915 
L 131.62919 222.778706 
L 136.298841 223.748026 
L 140.968492 223.943122 
L 145.638143 224.153014 
L 150.307794 224.534641 
L 154.977445 224.650531 
L 159.647096 225.077724 
L 164.316747 224.797257 
L 168.986398 224.691467 
L 173.656049 226.253099 
L 178.3257 225.503597 
L 182.995351 226.034552 
L 187.665002 225.982547 
L 192.334653 226.148246 
L 197.004304 226.366462 
L 201.673955 226.729037 
L 206.343607 226.834029 
L 211.013258 226.578724 
L 215.682909 226.458009 
L 220.35256 226.974719 
L 225.022211 227.570093 
L 229.691862 227.129731 
L 234.361513 227.527063 
L 239.031164 227.176413 
L 243.700815 227.492559 
L 248.370466 227.153117 
L 253.040117 226.402147 
L 257.709768 227.54287 
L 262.379419 227.804373 
L 267.04907 228.269473 
L 271.718721 227.801158 
L 276.388372 228.20465 
L 281.058023 228.286614 
L 285.727674 228.091969 
L 290.397326 228.41624 
L 295.066977 228.185662 
L 299.736628 228.347457 
L 304.406279 227.833992 
L 309.07593 227.72108 
L 313.745581 227.98209 
L 318.415232 228.147051 
L 323.084883 228.459023 
L 327.754534 228.121496 
L 332.424185 228.904881 
L 337.093836 228.254446 
L 341.763487 229.117772 
L 346.433138 229.142802 
L 351.102789 228.901759 
L 355.77244 228.327047 
L 360.442091 228.744799 
L 365.111742 229.257496 
L 369.781393 228.630774 
L 374.451045 228.740232 
L 379.120696 229.257835 
L 383.790347 228.983832 
L 388.459998 228.912547 
L 393.129649 229.212522 
L 397.7993 229.236811 
L 402.468951 229.728769 
L 407.138602 229.332689 
L 411.808253 229.070779 
L 416.477904 228.893981 
L 421.147555 229.311881 
L 425.817206 229.125477 
L 430.486857 228.915563 
L 435.156508 229.464637 
L 439.826159 229.988579 
L 444.49581 229.255377 
L 449.165461 229.540096 
L 453.835112 229.193412 
L 458.504764 229.370002 
L 463.174415 229.737158 
L 467.844066 229.696421 
L 472.513717 229.797992 
L 477.183368 229.722101 
L 481.853019 229.413615 
L 486.52267 230.115741 
L 491.192321 229.599046 
L 495.861972 230.26474 
L 500.531623 229.756421 
L 505.201274 230.116696 
L 509.870925 229.720444 
L 514.540576 229.519084 
L 519.210227 229.728292 
" style="fill:none;stroke:#ffb5b8;stroke-dasharray:5.55,2.4;stroke-dashoffset:0;stroke-width:1.5;"/>
   </g>
   <g id="line2d_39">
    <path clip-path="url(#p6c1d577032)" d="M 56.914773 169.978489 
L 61.584424 191.129617 
L 66.254075 202.862627 
L 70.923726 207.640074 
L 75.593377 208.456754 
L 80.263028 211.743467 
L 84.932679 215.428251 
L 89.60233 215.835886 
L 94.271981 218.867974 
L 98.941632 220.343724 
L 103.611283 221.37843 
L 108.280934 222.496131 
L 112.950585 222.449133 
L 117.620236 222.855509 
L 122.289888 224.603278 
L 126.959539 222.209333 
L 131.62919 224.367269 
L 136.298841 225.508926 
L 140.968492 224.486696 
L 145.638143 225.852992 
L 150.307794 226.476452 
L 154.977445 226.135629 
L 159.647096 226.19956 
L 164.316747 226.883245 
L 168.986398 226.927432 
L 173.656049 226.904468 
L 178.3257 226.710066 
L 182.995351 226.80042 
L 187.665002 227.78045 
L 192.334653 227.509358 
L 197.004304 227.79197 
L 201.673955 228.849611 
L 206.343607 227.940413 
L 211.013258 227.908179 
L 215.682909 228.047873 
L 220.35256 228.878717 
L 225.022211 229.461134 
L 229.691862 228.692764 
L 234.361513 229.195951 
L 239.031164 228.696715 
L 243.700815 229.216279 
L 248.370466 228.790434 
L 253.040117 229.461219 
L 257.709768 229.493502 
L 262.379419 229.222522 
L 267.04907 229.68979 
L 271.718721 229.418418 
L 276.388372 229.895722 
L 281.058023 230.041378 
L 285.727674 230.49988 
L 290.397326 229.697106 
L 295.066977 230.108563 
L 299.736628 230.194577 
L 304.406279 229.27188 
L 309.07593 230.141743 
L 313.745581 229.73525 
L 318.415232 230.250189 
L 323.084883 229.771486 
L 327.754534 230.224132 
L 332.424185 230.161225 
L 337.093836 230.591609 
L 341.763487 230.846237 
L 346.433138 230.249081 
L 351.102789 231.323196 
L 355.77244 230.501478 
L 360.442091 230.644689 
L 365.111742 230.551398 
L 369.781393 230.568266 
L 374.451045 231.023343 
L 379.120696 231.481734 
L 383.790347 230.978589 
L 388.459998 230.692564 
L 393.129649 231.347449 
L 397.7993 230.945246 
L 402.468951 231.278842 
L 407.138602 230.743066 
L 411.808253 230.925162 
L 416.477904 231.252168 
L 421.147555 230.857492 
L 425.817206 231.233733 
L 430.486857 230.708861 
L 435.156508 230.92626 
L 439.826159 231.533458 
L 444.49581 231.443637 
L 449.165461 230.893061 
L 453.835112 231.60182 
L 458.504764 231.125984 
L 463.174415 231.334056 
L 467.844066 231.867142 
L 472.513717 231.738324 
L 477.183368 231.39047 
L 481.853019 231.475841 
L 486.52267 231.153612 
L 491.192321 231.009741 
L 495.861972 231.376731 
L 500.531623 231.728513 
L 505.201274 231.585281 
L 509.870925 231.67101 
L 514.540576 231.423875 
L 519.210227 232.164963 
" style="fill:none;stroke:#e24a33;stroke-linecap:square;stroke-width:1.5;"/>
   </g>
   <g id="line2d_40">
    <path clip-path="url(#p6c1d577032)" d="M 56.914773 169.511164 
L 61.584424 190.333755 
L 66.254075 201.822788 
L 70.923726 206.529484 
L 75.593377 207.237711 
L 80.263028 210.093118 
L 84.932679 213.572288 
L 89.60233 213.98375 
L 94.271981 217.144863 
L 98.941632 218.513752 
L 103.611283 219.26629 
L 108.280934 220.390235 
L 112.950585 220.193445 
L 117.620236 220.590515 
L 122.289888 222.16003 
L 126.959539 219.932367 
L 131.62919 222.206816 
L 136.298841 223.273511 
L 140.968492 222.399784 
L 145.638143 223.217477 
L 150.307794 223.842893 
L 154.977445 223.433494 
L 159.647096 223.579513 
L 164.316747 224.145027 
L 168.986398 224.337619 
L 173.656049 224.468598 
L 178.3257 223.680761 
L 182.995351 223.767506 
L 187.665002 224.732605 
L 192.334653 224.327195 
L 197.004304 224.740412 
L 201.673955 225.76814 
L 206.343607 224.981256 
L 211.013258 224.785829 
L 215.682909 224.897324 
L 220.35256 225.785375 
L 225.022211 226.144048 
L 229.691862 225.421588 
L 234.361513 226.018187 
L 239.031164 225.534506 
L 243.700815 225.808072 
L 248.370466 225.524349 
L 253.040117 226.382461 
L 257.709768 226.230427 
L 262.379419 225.976784 
L 267.04907 226.506162 
L 271.718721 226.151979 
L 276.388372 226.549909 
L 281.058023 226.684595 
L 285.727674 227.195761 
L 290.397326 226.339316 
L 295.066977 226.836528 
L 299.736628 226.814222 
L 304.406279 225.77149 
L 309.07593 226.782458 
L 313.745581 226.348121 
L 318.415232 226.801611 
L 323.084883 226.372908 
L 327.754534 226.758216 
L 332.424185 226.747208 
L 337.093836 227.019829 
L 341.763487 227.497312 
L 346.433138 226.725073 
L 351.102789 227.898801 
L 355.77244 227.01821 
L 360.442091 227.034235 
L 365.111742 226.971462 
L 369.781393 227.117552 
L 374.451045 227.404786 
L 379.120696 228.039392 
L 383.790347 227.42629 
L 388.459998 227.108594 
L 393.129649 227.669932 
L 397.7993 227.485461 
L 402.468951 227.660533 
L 407.138602 227.135008 
L 411.808253 227.085852 
L 416.477904 227.605139 
L 421.147555 227.026861 
L 425.817206 227.63076 
L 430.486857 226.976236 
L 435.156508 227.498888 
L 439.826159 227.998236 
L 444.49581 227.569856 
L 449.165461 227.017628 
L 453.835112 227.854417 
L 458.504764 227.271376 
L 463.174415 227.424115 
L 467.844066 228.207889 
L 472.513717 228.124011 
L 477.183368 227.609037 
L 481.853019 227.974682 
L 486.52267 227.56167 
L 491.192321 227.432655 
L 495.861972 227.630705 
L 500.531623 228.100284 
L 505.201274 227.853175 
L 509.870925 227.92205 
L 514.540576 227.765789 
L 519.210227 228.599243 
" style="fill:none;stroke:#e24a33;stroke-dasharray:5.55,2.4;stroke-dashoffset:0;stroke-width:1.5;"/>
   </g>
   <g id="patch_3">
    <path d="M 33.8 243.2 
L 33.8 48.8 
" style="fill:none;stroke:#ffffff;stroke-linecap:square;stroke-linejoin:miter;"/>
   </g>
   <g id="patch_4">
    <path d="M 542.325 243.2 
L 542.325 48.8 
" style="fill:none;stroke:#ffffff;stroke-linecap:square;stroke-linejoin:miter;"/>
   </g>
   <g id="patch_5">
    <path d="M 33.8 243.2 
L 542.325 243.2 
" style="fill:none;stroke:#ffffff;stroke-linecap:square;stroke-linejoin:miter;"/>
   </g>
   <g id="patch_6">
    <path d="M 33.8 48.8 
L 542.325 48.8 
" style="fill:none;stroke:#ffffff;stroke-linecap:square;stroke-linejoin:miter;"/>
   </g>
   <g id="legend_1">
    <g id="patch_7">
     <path d="M 435.66875 174.225 
L 535.325 174.225 
Q 537.325 174.225 537.325 172.225 
L 537.325 55.8 
Q 537.325 53.8 535.325 53.8 
L 435.66875 53.8 
Q 433.66875 53.8 433.66875 55.8 
L 433.66875 172.225 
Q 433.66875 174.225 435.66875 174.225 
z
" style="fill:#e5e5e5;opacity:0.8;stroke:#cccccc;stroke-linejoin:miter;stroke-width:0.5;"/>
    </g>
    <g id="line2d_41">
     <path d="M 437.66875 61.898437 
L 457.66875 61.898437 
" style="fill:none;stroke:#e24a33;stroke-linecap:square;stroke-width:1.5;"/>
    </g>
    <g id="line2d_42"/>
    <g id="text_14">
     <!-- 0.5 &amp; L1 1e-4 -->
     <g transform="translate(465.66875 65.398437)scale(0.1 -0.1)">
      <defs>
       <path d="M 1556 2509 
Q 1272 2256 1139 2004 
Q 1006 1753 1006 1478 
Q 1006 1022 1337 719 
Q 1669 416 2169 416 
Q 2466 416 2725 514 
Q 2984 613 3213 813 
L 1556 2509 
z
M 1997 2859 
L 3584 1234 
Q 3769 1513 3872 1830 
Q 3975 2147 3994 2503 
L 4575 2503 
Q 4538 2091 4375 1687 
Q 4213 1284 3922 891 
L 4794 0 
L 4006 0 
L 3559 459 
Q 3234 181 2878 45 
Q 2522 -91 2113 -91 
Q 1359 -91 881 339 
Q 403 769 403 1441 
Q 403 1841 612 2192 
Q 822 2544 1241 2853 
Q 1091 3050 1012 3245 
Q 934 3441 934 3628 
Q 934 4134 1281 4442 
Q 1628 4750 2203 4750 
Q 2463 4750 2720 4694 
Q 2978 4638 3244 4525 
L 3244 3956 
Q 2972 4103 2725 4179 
Q 2478 4256 2266 4256 
Q 1938 4256 1733 4082 
Q 1528 3909 1528 3634 
Q 1528 3475 1620 3314 
Q 1713 3153 1997 2859 
z
" id="DejaVuSans-26" transform="scale(0.015625)"/>
       <path d="M 628 4666 
L 1259 4666 
L 1259 531 
L 3531 531 
L 3531 0 
L 628 0 
L 628 4666 
z
" id="DejaVuSans-4c" transform="scale(0.015625)"/>
       <path d="M 313 2009 
L 1997 2009 
L 1997 1497 
L 313 1497 
L 313 2009 
z
" id="DejaVuSans-2d" transform="scale(0.015625)"/>
      </defs>
      <use xlink:href="#DejaVuSans-30"/>
      <use x="63.623047" xlink:href="#DejaVuSans-2e"/>
      <use x="95.410156" xlink:href="#DejaVuSans-35"/>
      <use x="159.033203" xlink:href="#DejaVuSans-20"/>
      <use x="190.820312" xlink:href="#DejaVuSans-26"/>
      <use x="268.798828" xlink:href="#DejaVuSans-20"/>
      <use x="300.585938" xlink:href="#DejaVuSans-4c"/>
      <use x="356.298828" xlink:href="#DejaVuSans-31"/>
      <use x="419.921875" xlink:href="#DejaVuSans-20"/>
      <use x="451.708984" xlink:href="#DejaVuSans-31"/>
      <use x="515.332031" xlink:href="#DejaVuSans-65"/>
      <use x="576.855469" xlink:href="#DejaVuSans-2d"/>
      <use x="612.939453" xlink:href="#DejaVuSans-34"/>
     </g>
    </g>
    <g id="line2d_43">
     <path d="M 437.66875 76.576562 
L 457.66875 76.576562 
" style="fill:none;stroke:#348abd;stroke-linecap:square;stroke-width:1.5;"/>
    </g>
    <g id="line2d_44"/>
    <g id="text_15">
     <!-- 0.5 &amp; L2 1e-3 -->
     <g transform="translate(465.66875 80.076562)scale(0.1 -0.1)">
      <use xlink:href="#DejaVuSans-30"/>
      <use x="63.623047" xlink:href="#DejaVuSans-2e"/>
      <use x="95.410156" xlink:href="#DejaVuSans-35"/>
      <use x="159.033203" xlink:href="#DejaVuSans-20"/>
      <use x="190.820312" xlink:href="#DejaVuSans-26"/>
      <use x="268.798828" xlink:href="#DejaVuSans-20"/>
      <use x="300.585938" xlink:href="#DejaVuSans-4c"/>
      <use x="356.298828" xlink:href="#DejaVuSans-32"/>
      <use x="419.921875" xlink:href="#DejaVuSans-20"/>
      <use x="451.708984" xlink:href="#DejaVuSans-31"/>
      <use x="515.332031" xlink:href="#DejaVuSans-65"/>
      <use x="576.855469" xlink:href="#DejaVuSans-2d"/>
      <use x="612.939453" xlink:href="#DejaVuSans-33"/>
     </g>
    </g>
    <g id="line2d_45">
     <path d="M 437.66875 91.254687 
L 457.66875 91.254687 
" style="fill:none;stroke:#988ed5;stroke-linecap:square;stroke-width:1.5;"/>
    </g>
    <g id="line2d_46"/>
    <g id="text_16">
     <!-- 0.7 &amp; L1 1e-4 -->
     <g transform="translate(465.66875 94.754687)scale(0.1 -0.1)">
      <defs>
       <path d="M 525 4666 
L 3525 4666 
L 3525 4397 
L 1831 0 
L 1172 0 
L 2766 4134 
L 525 4134 
L 525 4666 
z
" id="DejaVuSans-37" transform="scale(0.015625)"/>
      </defs>
      <use xlink:href="#DejaVuSans-30"/>
      <use x="63.623047" xlink:href="#DejaVuSans-2e"/>
      <use x="95.410156" xlink:href="#DejaVuSans-37"/>
      <use x="159.033203" xlink:href="#DejaVuSans-20"/>
      <use x="190.820312" xlink:href="#DejaVuSans-26"/>
      <use x="268.798828" xlink:href="#DejaVuSans-20"/>
      <use x="300.585938" xlink:href="#DejaVuSans-4c"/>
      <use x="356.298828" xlink:href="#DejaVuSans-31"/>
      <use x="419.921875" xlink:href="#DejaVuSans-20"/>
      <use x="451.708984" xlink:href="#DejaVuSans-31"/>
      <use x="515.332031" xlink:href="#DejaVuSans-65"/>
      <use x="576.855469" xlink:href="#DejaVuSans-2d"/>
      <use x="612.939453" xlink:href="#DejaVuSans-34"/>
     </g>
    </g>
    <g id="line2d_47">
     <path d="M 437.66875 105.932812 
L 457.66875 105.932812 
" style="fill:none;stroke:#777777;stroke-linecap:square;stroke-width:1.5;"/>
    </g>
    <g id="line2d_48"/>
    <g id="text_17">
     <!-- 0.7 &amp; L2 1e-3 -->
     <g transform="translate(465.66875 109.432812)scale(0.1 -0.1)">
      <use xlink:href="#DejaVuSans-30"/>
      <use x="63.623047" xlink:href="#DejaVuSans-2e"/>
      <use x="95.410156" xlink:href="#DejaVuSans-37"/>
      <use x="159.033203" xlink:href="#DejaVuSans-20"/>
      <use x="190.820312" xlink:href="#DejaVuSans-26"/>
      <use x="268.798828" xlink:href="#DejaVuSans-20"/>
      <use x="300.585938" xlink:href="#DejaVuSans-4c"/>
      <use x="356.298828" xlink:href="#DejaVuSans-32"/>
      <use x="419.921875" xlink:href="#DejaVuSans-20"/>
      <use x="451.708984" xlink:href="#DejaVuSans-31"/>
      <use x="515.332031" xlink:href="#DejaVuSans-65"/>
      <use x="576.855469" xlink:href="#DejaVuSans-2d"/>
      <use x="612.939453" xlink:href="#DejaVuSans-33"/>
     </g>
    </g>
    <g id="line2d_49">
     <path d="M 437.66875 120.610937 
L 457.66875 120.610937 
" style="fill:none;stroke:#fbc15e;stroke-linecap:square;stroke-width:1.5;"/>
    </g>
    <g id="line2d_50"/>
    <g id="text_18">
     <!-- 0.5 &amp; L1 1e-5 -->
     <g transform="translate(465.66875 124.110937)scale(0.1 -0.1)">
      <use xlink:href="#DejaVuSans-30"/>
      <use x="63.623047" xlink:href="#DejaVuSans-2e"/>
      <use x="95.410156" xlink:href="#DejaVuSans-35"/>
      <use x="159.033203" xlink:href="#DejaVuSans-20"/>
      <use x="190.820312" xlink:href="#DejaVuSans-26"/>
      <use x="268.798828" xlink:href="#DejaVuSans-20"/>
      <use x="300.585938" xlink:href="#DejaVuSans-4c"/>
      <use x="356.298828" xlink:href="#DejaVuSans-31"/>
      <use x="419.921875" xlink:href="#DejaVuSans-20"/>
      <use x="451.708984" xlink:href="#DejaVuSans-31"/>
      <use x="515.332031" xlink:href="#DejaVuSans-65"/>
      <use x="576.855469" xlink:href="#DejaVuSans-2d"/>
      <use x="612.939453" xlink:href="#DejaVuSans-35"/>
     </g>
    </g>
    <g id="line2d_51">
     <path d="M 437.66875 135.289062 
L 457.66875 135.289062 
" style="fill:none;stroke:#8eba42;stroke-linecap:square;stroke-width:1.5;"/>
    </g>
    <g id="line2d_52"/>
    <g id="text_19">
     <!-- 0.5 &amp; L2 1e-4 -->
     <g transform="translate(465.66875 138.789062)scale(0.1 -0.1)">
      <use xlink:href="#DejaVuSans-30"/>
      <use x="63.623047" xlink:href="#DejaVuSans-2e"/>
      <use x="95.410156" xlink:href="#DejaVuSans-35"/>
      <use x="159.033203" xlink:href="#DejaVuSans-20"/>
      <use x="190.820312" xlink:href="#DejaVuSans-26"/>
      <use x="268.798828" xlink:href="#DejaVuSans-20"/>
      <use x="300.585938" xlink:href="#DejaVuSans-4c"/>
      <use x="356.298828" xlink:href="#DejaVuSans-32"/>
      <use x="419.921875" xlink:href="#DejaVuSans-20"/>
      <use x="451.708984" xlink:href="#DejaVuSans-31"/>
      <use x="515.332031" xlink:href="#DejaVuSans-65"/>
      <use x="576.855469" xlink:href="#DejaVuSans-2d"/>
      <use x="612.939453" xlink:href="#DejaVuSans-34"/>
     </g>
    </g>
    <g id="line2d_53">
     <path d="M 437.66875 149.967187 
L 457.66875 149.967187 
" style="fill:none;stroke:#ffb5b8;stroke-linecap:square;stroke-width:1.5;"/>
    </g>
    <g id="line2d_54"/>
    <g id="text_20">
     <!-- 0.7 &amp; L1 1e-5 -->
     <g transform="translate(465.66875 153.467187)scale(0.1 -0.1)">
      <use xlink:href="#DejaVuSans-30"/>
      <use x="63.623047" xlink:href="#DejaVuSans-2e"/>
      <use x="95.410156" xlink:href="#DejaVuSans-37"/>
      <use x="159.033203" xlink:href="#DejaVuSans-20"/>
      <use x="190.820312" xlink:href="#DejaVuSans-26"/>
      <use x="268.798828" xlink:href="#DejaVuSans-20"/>
      <use x="300.585938" xlink:href="#DejaVuSans-4c"/>
      <use x="356.298828" xlink:href="#DejaVuSans-31"/>
      <use x="419.921875" xlink:href="#DejaVuSans-20"/>
      <use x="451.708984" xlink:href="#DejaVuSans-31"/>
      <use x="515.332031" xlink:href="#DejaVuSans-65"/>
      <use x="576.855469" xlink:href="#DejaVuSans-2d"/>
      <use x="612.939453" xlink:href="#DejaVuSans-35"/>
     </g>
    </g>
    <g id="line2d_55">
     <path d="M 437.66875 164.645312 
L 457.66875 164.645312 
" style="fill:none;stroke:#e24a33;stroke-linecap:square;stroke-width:1.5;"/>
    </g>
    <g id="line2d_56"/>
    <g id="text_21">
     <!-- 0.7 &amp; L2 1e-4 -->
     <g transform="translate(465.66875 168.145312)scale(0.1 -0.1)">
      <use xlink:href="#DejaVuSans-30"/>
      <use x="63.623047" xlink:href="#DejaVuSans-2e"/>
      <use x="95.410156" xlink:href="#DejaVuSans-37"/>
      <use x="159.033203" xlink:href="#DejaVuSans-20"/>
      <use x="190.820312" xlink:href="#DejaVuSans-26"/>
      <use x="268.798828" xlink:href="#DejaVuSans-20"/>
      <use x="300.585938" xlink:href="#DejaVuSans-4c"/>
      <use x="356.298828" xlink:href="#DejaVuSans-32"/>
      <use x="419.921875" xlink:href="#DejaVuSans-20"/>
      <use x="451.708984" xlink:href="#DejaVuSans-31"/>
      <use x="515.332031" xlink:href="#DejaVuSans-65"/>
      <use x="576.855469" xlink:href="#DejaVuSans-2d"/>
      <use x="612.939453" xlink:href="#DejaVuSans-34"/>
     </g>
    </g>
   </g>
  </g>
  <g id="axes_2">
   <g id="matplotlib.axis_3">
    <g id="ytick_7">
     <g id="line2d_57">
      <path clip-path="url(#p6c1d577032)" d="M 33.8 243.2 
L 542.325 243.2 
" style="fill:none;stroke:#ffffff;stroke-linecap:square;stroke-width:0.8;"/>
     </g>
     <g id="line2d_58">
      <defs>
       <path d="M 0 0 
L 3.5 0 
" id="mfee70553ab" style="stroke:#555555;stroke-width:0.8;"/>
      </defs>
      <g>
       <use style="fill:#555555;stroke:#555555;stroke-width:0.8;" x="542.325" xlink:href="#mfee70553ab" y="243.2"/>
      </g>
     </g>
     <g id="text_22">
      <!-- 0.0 -->
      <g style="fill:#555555;" transform="translate(549.325 246.999219)scale(0.1 -0.1)">
       <use xlink:href="#DejaVuSans-30"/>
       <use x="63.623047" xlink:href="#DejaVuSans-2e"/>
       <use x="95.410156" xlink:href="#DejaVuSans-30"/>
      </g>
     </g>
    </g>
    <g id="ytick_8">
     <g id="line2d_59">
      <path clip-path="url(#p6c1d577032)" d="M 33.8 204.32 
L 542.325 204.32 
" style="fill:none;stroke:#ffffff;stroke-linecap:square;stroke-width:0.8;"/>
     </g>
     <g id="line2d_60">
      <g>
       <use style="fill:#555555;stroke:#555555;stroke-width:0.8;" x="542.325" xlink:href="#mfee70553ab" y="204.32"/>
      </g>
     </g>
     <g id="text_23">
      <!-- 0.2 -->
      <g style="fill:#555555;" transform="translate(549.325 208.119219)scale(0.1 -0.1)">
       <use xlink:href="#DejaVuSans-30"/>
       <use x="63.623047" xlink:href="#DejaVuSans-2e"/>
       <use x="95.410156" xlink:href="#DejaVuSans-32"/>
      </g>
     </g>
    </g>
    <g id="ytick_9">
     <g id="line2d_61">
      <path clip-path="url(#p6c1d577032)" d="M 33.8 165.44 
L 542.325 165.44 
" style="fill:none;stroke:#ffffff;stroke-linecap:square;stroke-width:0.8;"/>
     </g>
     <g id="line2d_62">
      <g>
       <use style="fill:#555555;stroke:#555555;stroke-width:0.8;" x="542.325" xlink:href="#mfee70553ab" y="165.44"/>
      </g>
     </g>
     <g id="text_24">
      <!-- 0.4 -->
      <g style="fill:#555555;" transform="translate(549.325 169.239219)scale(0.1 -0.1)">
       <use xlink:href="#DejaVuSans-30"/>
       <use x="63.623047" xlink:href="#DejaVuSans-2e"/>
       <use x="95.410156" xlink:href="#DejaVuSans-34"/>
      </g>
     </g>
    </g>
    <g id="ytick_10">
     <g id="line2d_63">
      <path clip-path="url(#p6c1d577032)" d="M 33.8 126.56 
L 542.325 126.56 
" style="fill:none;stroke:#ffffff;stroke-linecap:square;stroke-width:0.8;"/>
     </g>
     <g id="line2d_64">
      <g>
       <use style="fill:#555555;stroke:#555555;stroke-width:0.8;" x="542.325" xlink:href="#mfee70553ab" y="126.56"/>
      </g>
     </g>
     <g id="text_25">
      <!-- 0.6 -->
      <g style="fill:#555555;" transform="translate(549.325 130.359219)scale(0.1 -0.1)">
       <use xlink:href="#DejaVuSans-30"/>
       <use x="63.623047" xlink:href="#DejaVuSans-2e"/>
       <use x="95.410156" xlink:href="#DejaVuSans-36"/>
      </g>
     </g>
    </g>
    <g id="ytick_11">
     <g id="line2d_65">
      <path clip-path="url(#p6c1d577032)" d="M 33.8 87.68 
L 542.325 87.68 
" style="fill:none;stroke:#ffffff;stroke-linecap:square;stroke-width:0.8;"/>
     </g>
     <g id="line2d_66">
      <g>
       <use style="fill:#555555;stroke:#555555;stroke-width:0.8;" x="542.325" xlink:href="#mfee70553ab" y="87.68"/>
      </g>
     </g>
     <g id="text_26">
      <!-- 0.8 -->
      <g style="fill:#555555;" transform="translate(549.325 91.479219)scale(0.1 -0.1)">
       <use xlink:href="#DejaVuSans-30"/>
       <use x="63.623047" xlink:href="#DejaVuSans-2e"/>
       <use x="95.410156" xlink:href="#DejaVuSans-38"/>
      </g>
     </g>
    </g>
    <g id="ytick_12">
     <g id="line2d_67">
      <path clip-path="url(#p6c1d577032)" d="M 33.8 48.8 
L 542.325 48.8 
" style="fill:none;stroke:#ffffff;stroke-linecap:square;stroke-width:0.8;"/>
     </g>
     <g id="line2d_68">
      <g>
       <use style="fill:#555555;stroke:#555555;stroke-width:0.8;" x="542.325" xlink:href="#mfee70553ab" y="48.8"/>
      </g>
     </g>
     <g id="text_27">
      <!-- 1.0 -->
      <g style="fill:#555555;" transform="translate(549.325 52.599219)scale(0.1 -0.1)">
       <use xlink:href="#DejaVuSans-31"/>
       <use x="63.623047" xlink:href="#DejaVuSans-2e"/>
       <use x="95.410156" xlink:href="#DejaVuSans-30"/>
      </g>
     </g>
    </g>
   </g>
   <g id="patch_8">
    <path d="M 33.8 243.2 
L 33.8 48.8 
" style="fill:none;stroke:#ffffff;stroke-linecap:square;stroke-linejoin:miter;"/>
   </g>
   <g id="patch_9">
    <path d="M 542.325 243.2 
L 542.325 48.8 
" style="fill:none;stroke:#ffffff;stroke-linecap:square;stroke-linejoin:miter;"/>
   </g>
   <g id="patch_10">
    <path d="M 33.8 243.2 
L 542.325 243.2 
" style="fill:none;stroke:#ffffff;stroke-linecap:square;stroke-linejoin:miter;"/>
   </g>
   <g id="patch_11">
    <path d="M 33.8 48.8 
L 542.325 48.8 
" style="fill:none;stroke:#ffffff;stroke-linecap:square;stroke-linejoin:miter;"/>
   </g>
   <g id="legend_2">
    <g id="patch_12">
     <path d="M 40.8 43.8 
L 299.884375 43.8 
Q 301.884375 43.8 301.884375 41.8 
L 301.884375 13.44375 
Q 301.884375 11.44375 299.884375 11.44375 
L 40.8 11.44375 
Q 38.8 11.44375 38.8 13.44375 
L 38.8 41.8 
Q 38.8 43.8 40.8 43.8 
z
" style="fill:#e5e5e5;opacity:0.8;stroke:#cccccc;stroke-linejoin:miter;stroke-width:0.5;"/>
    </g>
    <g id="line2d_69">
     <path d="M 42.8 19.542187 
L 62.8 19.542187 
" style="fill:none;stroke:#000000;stroke-linecap:square;stroke-width:1.5;"/>
    </g>
    <g id="line2d_70"/>
    <g id="text_28">
     <!-- Solid line style indicate the training data -->
     <g transform="translate(70.8 23.042187)scale(0.1 -0.1)">
      <defs>
       <path d="M 3425 4513 
L 3425 3897 
Q 3066 4069 2747 4153 
Q 2428 4238 2131 4238 
Q 1616 4238 1336 4038 
Q 1056 3838 1056 3469 
Q 1056 3159 1242 3001 
Q 1428 2844 1947 2747 
L 2328 2669 
Q 3034 2534 3370 2195 
Q 3706 1856 3706 1288 
Q 3706 609 3251 259 
Q 2797 -91 1919 -91 
Q 1588 -91 1214 -16 
Q 841 59 441 206 
L 441 856 
Q 825 641 1194 531 
Q 1563 422 1919 422 
Q 2459 422 2753 634 
Q 3047 847 3047 1241 
Q 3047 1584 2836 1778 
Q 2625 1972 2144 2069 
L 1759 2144 
Q 1053 2284 737 2584 
Q 422 2884 422 3419 
Q 422 4038 858 4394 
Q 1294 4750 2059 4750 
Q 2388 4750 2728 4690 
Q 3069 4631 3425 4513 
z
" id="DejaVuSans-53" transform="scale(0.015625)"/>
       <path d="M 603 4863 
L 1178 4863 
L 1178 0 
L 603 0 
L 603 4863 
z
" id="DejaVuSans-6c" transform="scale(0.015625)"/>
       <path d="M 603 3500 
L 1178 3500 
L 1178 0 
L 603 0 
L 603 3500 
z
M 603 4863 
L 1178 4863 
L 1178 4134 
L 603 4134 
L 603 4863 
z
" id="DejaVuSans-69" transform="scale(0.015625)"/>
       <path d="M 2906 2969 
L 2906 4863 
L 3481 4863 
L 3481 0 
L 2906 0 
L 2906 525 
Q 2725 213 2448 61 
Q 2172 -91 1784 -91 
Q 1150 -91 751 415 
Q 353 922 353 1747 
Q 353 2572 751 3078 
Q 1150 3584 1784 3584 
Q 2172 3584 2448 3432 
Q 2725 3281 2906 2969 
z
M 947 1747 
Q 947 1113 1208 752 
Q 1469 391 1925 391 
Q 2381 391 2643 752 
Q 2906 1113 2906 1747 
Q 2906 2381 2643 2742 
Q 2381 3103 1925 3103 
Q 1469 3103 1208 2742 
Q 947 2381 947 1747 
z
" id="DejaVuSans-64" transform="scale(0.015625)"/>
       <path d="M 2834 3397 
L 2834 2853 
Q 2591 2978 2328 3040 
Q 2066 3103 1784 3103 
Q 1356 3103 1142 2972 
Q 928 2841 928 2578 
Q 928 2378 1081 2264 
Q 1234 2150 1697 2047 
L 1894 2003 
Q 2506 1872 2764 1633 
Q 3022 1394 3022 966 
Q 3022 478 2636 193 
Q 2250 -91 1575 -91 
Q 1294 -91 989 -36 
Q 684 19 347 128 
L 347 722 
Q 666 556 975 473 
Q 1284 391 1588 391 
Q 1994 391 2212 530 
Q 2431 669 2431 922 
Q 2431 1156 2273 1281 
Q 2116 1406 1581 1522 
L 1381 1569 
Q 847 1681 609 1914 
Q 372 2147 372 2553 
Q 372 3047 722 3315 
Q 1072 3584 1716 3584 
Q 2034 3584 2315 3537 
Q 2597 3491 2834 3397 
z
" id="DejaVuSans-73" transform="scale(0.015625)"/>
       <path d="M 1172 4494 
L 1172 3500 
L 2356 3500 
L 2356 3053 
L 1172 3053 
L 1172 1153 
Q 1172 725 1289 603 
Q 1406 481 1766 481 
L 2356 481 
L 2356 0 
L 1766 0 
Q 1100 0 847 248 
Q 594 497 594 1153 
L 594 3053 
L 172 3053 
L 172 3500 
L 594 3500 
L 594 4494 
L 1172 4494 
z
" id="DejaVuSans-74" transform="scale(0.015625)"/>
       <path d="M 2059 -325 
Q 1816 -950 1584 -1140 
Q 1353 -1331 966 -1331 
L 506 -1331 
L 506 -850 
L 844 -850 
Q 1081 -850 1212 -737 
Q 1344 -625 1503 -206 
L 1606 56 
L 191 3500 
L 800 3500 
L 1894 763 
L 2988 3500 
L 3597 3500 
L 2059 -325 
z
" id="DejaVuSans-79" transform="scale(0.015625)"/>
       <path d="M 2194 1759 
Q 1497 1759 1228 1600 
Q 959 1441 959 1056 
Q 959 750 1161 570 
Q 1363 391 1709 391 
Q 2188 391 2477 730 
Q 2766 1069 2766 1631 
L 2766 1759 
L 2194 1759 
z
M 3341 1997 
L 3341 0 
L 2766 0 
L 2766 531 
Q 2569 213 2275 61 
Q 1981 -91 1556 -91 
Q 1019 -91 701 211 
Q 384 513 384 1019 
Q 384 1609 779 1909 
Q 1175 2209 1959 2209 
L 2766 2209 
L 2766 2266 
Q 2766 2663 2505 2880 
Q 2244 3097 1772 3097 
Q 1472 3097 1187 3025 
Q 903 2953 641 2809 
L 641 3341 
Q 956 3463 1253 3523 
Q 1550 3584 1831 3584 
Q 2591 3584 2966 3190 
Q 3341 2797 3341 1997 
z
" id="DejaVuSans-61" transform="scale(0.015625)"/>
       <path d="M 2906 1791 
Q 2906 2416 2648 2759 
Q 2391 3103 1925 3103 
Q 1463 3103 1205 2759 
Q 947 2416 947 1791 
Q 947 1169 1205 825 
Q 1463 481 1925 481 
Q 2391 481 2648 825 
Q 2906 1169 2906 1791 
z
M 3481 434 
Q 3481 -459 3084 -895 
Q 2688 -1331 1869 -1331 
Q 1566 -1331 1297 -1286 
Q 1028 -1241 775 -1147 
L 775 -588 
Q 1028 -725 1275 -790 
Q 1522 -856 1778 -856 
Q 2344 -856 2625 -561 
Q 2906 -266 2906 331 
L 2906 616 
Q 2728 306 2450 153 
Q 2172 0 1784 0 
Q 1141 0 747 490 
Q 353 981 353 1791 
Q 353 2603 747 3093 
Q 1141 3584 1784 3584 
Q 2172 3584 2450 3431 
Q 2728 3278 2906 2969 
L 2906 3500 
L 3481 3500 
L 3481 434 
z
" id="DejaVuSans-67" transform="scale(0.015625)"/>
      </defs>
      <use xlink:href="#DejaVuSans-53"/>
      <use x="63.476562" xlink:href="#DejaVuSans-6f"/>
      <use x="124.658203" xlink:href="#DejaVuSans-6c"/>
      <use x="152.441406" xlink:href="#DejaVuSans-69"/>
      <use x="180.224609" xlink:href="#DejaVuSans-64"/>
      <use x="243.701172" xlink:href="#DejaVuSans-20"/>
      <use x="275.488281" xlink:href="#DejaVuSans-6c"/>
      <use x="303.271484" xlink:href="#DejaVuSans-69"/>
      <use x="331.054688" xlink:href="#DejaVuSans-6e"/>
      <use x="394.433594" xlink:href="#DejaVuSans-65"/>
      <use x="455.957031" xlink:href="#DejaVuSans-20"/>
      <use x="487.744141" xlink:href="#DejaVuSans-73"/>
      <use x="539.84375" xlink:href="#DejaVuSans-74"/>
      <use x="579.052734" xlink:href="#DejaVuSans-79"/>
      <use x="638.232422" xlink:href="#DejaVuSans-6c"/>
      <use x="666.015625" xlink:href="#DejaVuSans-65"/>
      <use x="727.539062" xlink:href="#DejaVuSans-20"/>
      <use x="759.326172" xlink:href="#DejaVuSans-69"/>
      <use x="787.109375" xlink:href="#DejaVuSans-6e"/>
      <use x="850.488281" xlink:href="#DejaVuSans-64"/>
      <use x="913.964844" xlink:href="#DejaVuSans-69"/>
      <use x="941.748047" xlink:href="#DejaVuSans-63"/>
      <use x="996.728516" xlink:href="#DejaVuSans-61"/>
      <use x="1058.007812" xlink:href="#DejaVuSans-74"/>
      <use x="1097.216797" xlink:href="#DejaVuSans-65"/>
      <use x="1158.740234" xlink:href="#DejaVuSans-20"/>
      <use x="1190.527344" xlink:href="#DejaVuSans-74"/>
      <use x="1229.736328" xlink:href="#DejaVuSans-68"/>
      <use x="1293.115234" xlink:href="#DejaVuSans-65"/>
      <use x="1354.638672" xlink:href="#DejaVuSans-20"/>
      <use x="1386.425781" xlink:href="#DejaVuSans-74"/>
      <use x="1425.634766" xlink:href="#DejaVuSans-72"/>
      <use x="1466.748047" xlink:href="#DejaVuSans-61"/>
      <use x="1528.027344" xlink:href="#DejaVuSans-69"/>
      <use x="1555.810547" xlink:href="#DejaVuSans-6e"/>
      <use x="1619.189453" xlink:href="#DejaVuSans-69"/>
      <use x="1646.972656" xlink:href="#DejaVuSans-6e"/>
      <use x="1710.351562" xlink:href="#DejaVuSans-67"/>
      <use x="1773.828125" xlink:href="#DejaVuSans-20"/>
      <use x="1805.615234" xlink:href="#DejaVuSans-64"/>
      <use x="1869.091797" xlink:href="#DejaVuSans-61"/>
      <use x="1930.371094" xlink:href="#DejaVuSans-74"/>
      <use x="1969.580078" xlink:href="#DejaVuSans-61"/>
     </g>
    </g>
    <g id="line2d_71">
     <path d="M 42.8 34.220312 
L 62.8 34.220312 
" style="fill:none;stroke:#000000;stroke-dasharray:5.55,2.4;stroke-dashoffset:0;stroke-width:1.5;"/>
    </g>
    <g id="line2d_72"/>
    <g id="text_29">
     <!-- Dashed line style indicate the validation data -->
     <g transform="translate(70.8 37.720312)scale(0.1 -0.1)">
      <defs>
       <path d="M 1259 4147 
L 1259 519 
L 2022 519 
Q 2988 519 3436 956 
Q 3884 1394 3884 2338 
Q 3884 3275 3436 3711 
Q 2988 4147 2022 4147 
L 1259 4147 
z
M 628 4666 
L 1925 4666 
Q 3281 4666 3915 4102 
Q 4550 3538 4550 2338 
Q 4550 1131 3912 565 
Q 3275 0 1925 0 
L 628 0 
L 628 4666 
z
" id="DejaVuSans-44" transform="scale(0.015625)"/>
       <path d="M 191 3500 
L 800 3500 
L 1894 563 
L 2988 3500 
L 3597 3500 
L 2284 0 
L 1503 0 
L 191 3500 
z
" id="DejaVuSans-76" transform="scale(0.015625)"/>
      </defs>
      <use xlink:href="#DejaVuSans-44"/>
      <use x="77.001953" xlink:href="#DejaVuSans-61"/>
      <use x="138.28125" xlink:href="#DejaVuSans-73"/>
      <use x="190.380859" xlink:href="#DejaVuSans-68"/>
      <use x="253.759766" xlink:href="#DejaVuSans-65"/>
      <use x="315.283203" xlink:href="#DejaVuSans-64"/>
      <use x="378.759766" xlink:href="#DejaVuSans-20"/>
      <use x="410.546875" xlink:href="#DejaVuSans-6c"/>
      <use x="438.330078" xlink:href="#DejaVuSans-69"/>
      <use x="466.113281" xlink:href="#DejaVuSans-6e"/>
      <use x="529.492188" xlink:href="#DejaVuSans-65"/>
      <use x="591.015625" xlink:href="#DejaVuSans-20"/>
      <use x="622.802734" xlink:href="#DejaVuSans-73"/>
      <use x="674.902344" xlink:href="#DejaVuSans-74"/>
      <use x="714.111328" xlink:href="#DejaVuSans-79"/>
      <use x="773.291016" xlink:href="#DejaVuSans-6c"/>
      <use x="801.074219" xlink:href="#DejaVuSans-65"/>
      <use x="862.597656" xlink:href="#DejaVuSans-20"/>
      <use x="894.384766" xlink:href="#DejaVuSans-69"/>
      <use x="922.167969" xlink:href="#DejaVuSans-6e"/>
      <use x="985.546875" xlink:href="#DejaVuSans-64"/>
      <use x="1049.023438" xlink:href="#DejaVuSans-69"/>
      <use x="1076.806641" xlink:href="#DejaVuSans-63"/>
      <use x="1131.787109" xlink:href="#DejaVuSans-61"/>
      <use x="1193.066406" xlink:href="#DejaVuSans-74"/>
      <use x="1232.275391" xlink:href="#DejaVuSans-65"/>
      <use x="1293.798828" xlink:href="#DejaVuSans-20"/>
      <use x="1325.585938" xlink:href="#DejaVuSans-74"/>
      <use x="1364.794922" xlink:href="#DejaVuSans-68"/>
      <use x="1428.173828" xlink:href="#DejaVuSans-65"/>
      <use x="1489.697266" xlink:href="#DejaVuSans-20"/>
      <use x="1521.484375" xlink:href="#DejaVuSans-76"/>
      <use x="1580.664062" xlink:href="#DejaVuSans-61"/>
      <use x="1641.943359" xlink:href="#DejaVuSans-6c"/>
      <use x="1669.726562" xlink:href="#DejaVuSans-69"/>
      <use x="1697.509766" xlink:href="#DejaVuSans-64"/>
      <use x="1760.986328" xlink:href="#DejaVuSans-61"/>
      <use x="1822.265625" xlink:href="#DejaVuSans-74"/>
      <use x="1861.474609" xlink:href="#DejaVuSans-69"/>
      <use x="1889.257812" xlink:href="#DejaVuSans-6f"/>
      <use x="1950.439453" xlink:href="#DejaVuSans-6e"/>
      <use x="2013.818359" xlink:href="#DejaVuSans-20"/>
      <use x="2045.605469" xlink:href="#DejaVuSans-64"/>
      <use x="2109.082031" xlink:href="#DejaVuSans-61"/>
      <use x="2170.361328" xlink:href="#DejaVuSans-74"/>
      <use x="2209.570312" xlink:href="#DejaVuSans-61"/>
     </g>
    </g>
   </g>
  </g>
 </g>
 <defs>
  <clipPath id="p6c1d577032">
   <rect height="194.4" width="508.525" x="33.8" y="48.8"/>
  </clipPath>
 </defs>
</svg>
