<?xml version="1.0" encoding="utf-8" standalone="no"?>
<!DOCTYPE svg PUBLIC "-//W3C//DTD SVG 1.1//EN"
  "http://www.w3.org/Graphics/SVG/1.1/DTD/svg11.dtd">
<svg height="288pt" version="1.1" viewBox="0 0 576 288" width="576pt" xmlns="http://www.w3.org/2000/svg" xmlns:xlink="http://www.w3.org/1999/xlink">
 <metadata>
  <rdf:RDF xmlns:cc="http://creativecommons.org/ns#" xmlns:dc="http://purl.org/dc/elements/1.1/" xmlns:rdf="http://www.w3.org/1999/02/22-rdf-syntax-ns#">
   <cc:Work>
    <dc:type rdf:resource="http://purl.org/dc/dcmitype/StillImage"/>
    <dc:date>2021-11-04T21:11:34.698477</dc:date>
    <dc:format>image/svg+xml</dc:format>
    <dc:creator>
     <cc:Agent>
      <dc:title>Matplotlib v3.4.3, https://matplotlib.org/</dc:title>
     </cc:Agent>
    </dc:creator>
   </cc:Work>
  </rdf:RDF>
 </metadata>
 <defs>
  <style type="text/css">*{stroke-linecap:butt;stroke-linejoin:round;}</style>
 </defs>
 <g id="figure_1">
  <g id="patch_1">
   <path d="M 0 288 
L 576 288 
L 576 0 
L 0 0 
z
" style="fill:#ffffff;"/>
  </g>
  <g id="axes_1">
   <g id="patch_2">
    <path d="M 33.675 243.2 
L 542.325 243.2 
L 542.325 48.8 
L 33.675 48.8 
z
" style="fill:#e5e5e5;"/>
   </g>
   <g id="matplotlib.axis_1">
    <g id="xtick_1">
     <g id="line2d_1">
      <path clip-path="url(#p352be58a17)" d="M 52.124656 243.2 
L 52.124656 48.8 
" style="fill:none;stroke:#ffffff;stroke-linecap:square;stroke-width:0.8;"/>
     </g>
     <g id="line2d_2">
      <defs>
       <path d="M 0 0 
L 0 3.5 
" id="mc849066463" style="stroke:#555555;stroke-width:0.8;"/>
      </defs>
      <g>
       <use style="fill:#555555;stroke:#555555;stroke-width:0.8;" x="52.124656" xlink:href="#mc849066463" y="243.2"/>
      </g>
     </g>
     <g id="text_1">
      <!-- 0 -->
      <g style="fill:#555555;" transform="translate(48.943406 257.798437)scale(0.1 -0.1)">
       <defs>
        <path d="M 2034 4250 
Q 1547 4250 1301 3770 
Q 1056 3291 1056 2328 
Q 1056 1369 1301 889 
Q 1547 409 2034 409 
Q 2525 409 2770 889 
Q 3016 1369 3016 2328 
Q 3016 3291 2770 3770 
Q 2525 4250 2034 4250 
z
M 2034 4750 
Q 2819 4750 3233 4129 
Q 3647 3509 3647 2328 
Q 3647 1150 3233 529 
Q 2819 -91 2034 -91 
Q 1250 -91 836 529 
Q 422 1150 422 2328 
Q 422 3509 836 4129 
Q 1250 4750 2034 4750 
z
" id="DejaVuSans-30" transform="scale(0.015625)"/>
       </defs>
       <use xlink:href="#DejaVuSans-30"/>
      </g>
     </g>
    </g>
    <g id="xtick_2">
     <g id="line2d_3">
      <path clip-path="url(#p352be58a17)" d="M 145.540634 243.2 
L 145.540634 48.8 
" style="fill:none;stroke:#ffffff;stroke-linecap:square;stroke-width:0.8;"/>
     </g>
     <g id="line2d_4">
      <g>
       <use style="fill:#555555;stroke:#555555;stroke-width:0.8;" x="145.540634" xlink:href="#mc849066463" y="243.2"/>
      </g>
     </g>
     <g id="text_2">
      <!-- 20 -->
      <g style="fill:#555555;" transform="translate(139.178134 257.798437)scale(0.1 -0.1)">
       <defs>
        <path d="M 1228 531 
L 3431 531 
L 3431 0 
L 469 0 
L 469 531 
Q 828 903 1448 1529 
Q 2069 2156 2228 2338 
Q 2531 2678 2651 2914 
Q 2772 3150 2772 3378 
Q 2772 3750 2511 3984 
Q 2250 4219 1831 4219 
Q 1534 4219 1204 4116 
Q 875 4013 500 3803 
L 500 4441 
Q 881 4594 1212 4672 
Q 1544 4750 1819 4750 
Q 2544 4750 2975 4387 
Q 3406 4025 3406 3419 
Q 3406 3131 3298 2873 
Q 3191 2616 2906 2266 
Q 2828 2175 2409 1742 
Q 1991 1309 1228 531 
z
" id="DejaVuSans-32" transform="scale(0.015625)"/>
       </defs>
       <use xlink:href="#DejaVuSans-32"/>
       <use x="63.623047" xlink:href="#DejaVuSans-30"/>
      </g>
     </g>
    </g>
    <g id="xtick_3">
     <g id="line2d_5">
      <path clip-path="url(#p352be58a17)" d="M 238.956612 243.2 
L 238.956612 48.8 
" style="fill:none;stroke:#ffffff;stroke-linecap:square;stroke-width:0.8;"/>
     </g>
     <g id="line2d_6">
      <g>
       <use style="fill:#555555;stroke:#555555;stroke-width:0.8;" x="238.956612" xlink:href="#mc849066463" y="243.2"/>
      </g>
     </g>
     <g id="text_3">
      <!-- 40 -->
      <g style="fill:#555555;" transform="translate(232.594112 257.798437)scale(0.1 -0.1)">
       <defs>
        <path d="M 2419 4116 
L 825 1625 
L 2419 1625 
L 2419 4116 
z
M 2253 4666 
L 3047 4666 
L 3047 1625 
L 3713 1625 
L 3713 1100 
L 3047 1100 
L 3047 0 
L 2419 0 
L 2419 1100 
L 313 1100 
L 313 1709 
L 2253 4666 
z
" id="DejaVuSans-34" transform="scale(0.015625)"/>
       </defs>
       <use xlink:href="#DejaVuSans-34"/>
       <use x="63.623047" xlink:href="#DejaVuSans-30"/>
      </g>
     </g>
    </g>
    <g id="xtick_4">
     <g id="line2d_7">
      <path clip-path="url(#p352be58a17)" d="M 332.37259 243.2 
L 332.37259 48.8 
" style="fill:none;stroke:#ffffff;stroke-linecap:square;stroke-width:0.8;"/>
     </g>
     <g id="line2d_8">
      <g>
       <use style="fill:#555555;stroke:#555555;stroke-width:0.8;" x="332.37259" xlink:href="#mc849066463" y="243.2"/>
      </g>
     </g>
     <g id="text_4">
      <!-- 60 -->
      <g style="fill:#555555;" transform="translate(326.01009 257.798437)scale(0.1 -0.1)">
       <defs>
        <path d="M 2113 2584 
Q 1688 2584 1439 2293 
Q 1191 2003 1191 1497 
Q 1191 994 1439 701 
Q 1688 409 2113 409 
Q 2538 409 2786 701 
Q 3034 994 3034 1497 
Q 3034 2003 2786 2293 
Q 2538 2584 2113 2584 
z
M 3366 4563 
L 3366 3988 
Q 3128 4100 2886 4159 
Q 2644 4219 2406 4219 
Q 1781 4219 1451 3797 
Q 1122 3375 1075 2522 
Q 1259 2794 1537 2939 
Q 1816 3084 2150 3084 
Q 2853 3084 3261 2657 
Q 3669 2231 3669 1497 
Q 3669 778 3244 343 
Q 2819 -91 2113 -91 
Q 1303 -91 875 529 
Q 447 1150 447 2328 
Q 447 3434 972 4092 
Q 1497 4750 2381 4750 
Q 2619 4750 2861 4703 
Q 3103 4656 3366 4563 
z
" id="DejaVuSans-36" transform="scale(0.015625)"/>
       </defs>
       <use xlink:href="#DejaVuSans-36"/>
       <use x="63.623047" xlink:href="#DejaVuSans-30"/>
      </g>
     </g>
    </g>
    <g id="xtick_5">
     <g id="line2d_9">
      <path clip-path="url(#p352be58a17)" d="M 425.788567 243.2 
L 425.788567 48.8 
" style="fill:none;stroke:#ffffff;stroke-linecap:square;stroke-width:0.8;"/>
     </g>
     <g id="line2d_10">
      <g>
       <use style="fill:#555555;stroke:#555555;stroke-width:0.8;" x="425.788567" xlink:href="#mc849066463" y="243.2"/>
      </g>
     </g>
     <g id="text_5">
      <!-- 80 -->
      <g style="fill:#555555;" transform="translate(419.426067 257.798437)scale(0.1 -0.1)">
       <defs>
        <path d="M 2034 2216 
Q 1584 2216 1326 1975 
Q 1069 1734 1069 1313 
Q 1069 891 1326 650 
Q 1584 409 2034 409 
Q 2484 409 2743 651 
Q 3003 894 3003 1313 
Q 3003 1734 2745 1975 
Q 2488 2216 2034 2216 
z
M 1403 2484 
Q 997 2584 770 2862 
Q 544 3141 544 3541 
Q 544 4100 942 4425 
Q 1341 4750 2034 4750 
Q 2731 4750 3128 4425 
Q 3525 4100 3525 3541 
Q 3525 3141 3298 2862 
Q 3072 2584 2669 2484 
Q 3125 2378 3379 2068 
Q 3634 1759 3634 1313 
Q 3634 634 3220 271 
Q 2806 -91 2034 -91 
Q 1263 -91 848 271 
Q 434 634 434 1313 
Q 434 1759 690 2068 
Q 947 2378 1403 2484 
z
M 1172 3481 
Q 1172 3119 1398 2916 
Q 1625 2713 2034 2713 
Q 2441 2713 2670 2916 
Q 2900 3119 2900 3481 
Q 2900 3844 2670 4047 
Q 2441 4250 2034 4250 
Q 1625 4250 1398 4047 
Q 1172 3844 1172 3481 
z
" id="DejaVuSans-38" transform="scale(0.015625)"/>
       </defs>
       <use xlink:href="#DejaVuSans-38"/>
       <use x="63.623047" xlink:href="#DejaVuSans-30"/>
      </g>
     </g>
    </g>
    <g id="xtick_6">
     <g id="line2d_11">
      <path clip-path="url(#p352be58a17)" d="M 519.204545 243.2 
L 519.204545 48.8 
" style="fill:none;stroke:#ffffff;stroke-linecap:square;stroke-width:0.8;"/>
     </g>
     <g id="line2d_12">
      <g>
       <use style="fill:#555555;stroke:#555555;stroke-width:0.8;" x="519.204545" xlink:href="#mc849066463" y="243.2"/>
      </g>
     </g>
     <g id="text_6">
      <!-- 100 -->
      <g style="fill:#555555;" transform="translate(509.660795 257.798437)scale(0.1 -0.1)">
       <defs>
        <path d="M 794 531 
L 1825 531 
L 1825 4091 
L 703 3866 
L 703 4441 
L 1819 4666 
L 2450 4666 
L 2450 531 
L 3481 531 
L 3481 0 
L 794 0 
L 794 531 
z
" id="DejaVuSans-31" transform="scale(0.015625)"/>
       </defs>
       <use xlink:href="#DejaVuSans-31"/>
       <use x="63.623047" xlink:href="#DejaVuSans-30"/>
       <use x="127.246094" xlink:href="#DejaVuSans-30"/>
      </g>
     </g>
    </g>
    <g id="text_7">
     <!-- Epoch number -->
     <g style="fill:#555555;" transform="translate(244.303125 272.99625)scale(0.12 -0.12)">
      <defs>
       <path d="M 628 4666 
L 3578 4666 
L 3578 4134 
L 1259 4134 
L 1259 2753 
L 3481 2753 
L 3481 2222 
L 1259 2222 
L 1259 531 
L 3634 531 
L 3634 0 
L 628 0 
L 628 4666 
z
" id="DejaVuSans-45" transform="scale(0.015625)"/>
       <path d="M 1159 525 
L 1159 -1331 
L 581 -1331 
L 581 3500 
L 1159 3500 
L 1159 2969 
Q 1341 3281 1617 3432 
Q 1894 3584 2278 3584 
Q 2916 3584 3314 3078 
Q 3713 2572 3713 1747 
Q 3713 922 3314 415 
Q 2916 -91 2278 -91 
Q 1894 -91 1617 61 
Q 1341 213 1159 525 
z
M 3116 1747 
Q 3116 2381 2855 2742 
Q 2594 3103 2138 3103 
Q 1681 3103 1420 2742 
Q 1159 2381 1159 1747 
Q 1159 1113 1420 752 
Q 1681 391 2138 391 
Q 2594 391 2855 752 
Q 3116 1113 3116 1747 
z
" id="DejaVuSans-70" transform="scale(0.015625)"/>
       <path d="M 1959 3097 
Q 1497 3097 1228 2736 
Q 959 2375 959 1747 
Q 959 1119 1226 758 
Q 1494 397 1959 397 
Q 2419 397 2687 759 
Q 2956 1122 2956 1747 
Q 2956 2369 2687 2733 
Q 2419 3097 1959 3097 
z
M 1959 3584 
Q 2709 3584 3137 3096 
Q 3566 2609 3566 1747 
Q 3566 888 3137 398 
Q 2709 -91 1959 -91 
Q 1206 -91 779 398 
Q 353 888 353 1747 
Q 353 2609 779 3096 
Q 1206 3584 1959 3584 
z
" id="DejaVuSans-6f" transform="scale(0.015625)"/>
       <path d="M 3122 3366 
L 3122 2828 
Q 2878 2963 2633 3030 
Q 2388 3097 2138 3097 
Q 1578 3097 1268 2742 
Q 959 2388 959 1747 
Q 959 1106 1268 751 
Q 1578 397 2138 397 
Q 2388 397 2633 464 
Q 2878 531 3122 666 
L 3122 134 
Q 2881 22 2623 -34 
Q 2366 -91 2075 -91 
Q 1284 -91 818 406 
Q 353 903 353 1747 
Q 353 2603 823 3093 
Q 1294 3584 2113 3584 
Q 2378 3584 2631 3529 
Q 2884 3475 3122 3366 
z
" id="DejaVuSans-63" transform="scale(0.015625)"/>
       <path d="M 3513 2113 
L 3513 0 
L 2938 0 
L 2938 2094 
Q 2938 2591 2744 2837 
Q 2550 3084 2163 3084 
Q 1697 3084 1428 2787 
Q 1159 2491 1159 1978 
L 1159 0 
L 581 0 
L 581 4863 
L 1159 4863 
L 1159 2956 
Q 1366 3272 1645 3428 
Q 1925 3584 2291 3584 
Q 2894 3584 3203 3211 
Q 3513 2838 3513 2113 
z
" id="DejaVuSans-68" transform="scale(0.015625)"/>
       <path id="DejaVuSans-20" transform="scale(0.015625)"/>
       <path d="M 3513 2113 
L 3513 0 
L 2938 0 
L 2938 2094 
Q 2938 2591 2744 2837 
Q 2550 3084 2163 3084 
Q 1697 3084 1428 2787 
Q 1159 2491 1159 1978 
L 1159 0 
L 581 0 
L 581 3500 
L 1159 3500 
L 1159 2956 
Q 1366 3272 1645 3428 
Q 1925 3584 2291 3584 
Q 2894 3584 3203 3211 
Q 3513 2838 3513 2113 
z
" id="DejaVuSans-6e" transform="scale(0.015625)"/>
       <path d="M 544 1381 
L 544 3500 
L 1119 3500 
L 1119 1403 
Q 1119 906 1312 657 
Q 1506 409 1894 409 
Q 2359 409 2629 706 
Q 2900 1003 2900 1516 
L 2900 3500 
L 3475 3500 
L 3475 0 
L 2900 0 
L 2900 538 
Q 2691 219 2414 64 
Q 2138 -91 1772 -91 
Q 1169 -91 856 284 
Q 544 659 544 1381 
z
M 1991 3584 
L 1991 3584 
z
" id="DejaVuSans-75" transform="scale(0.015625)"/>
       <path d="M 3328 2828 
Q 3544 3216 3844 3400 
Q 4144 3584 4550 3584 
Q 5097 3584 5394 3201 
Q 5691 2819 5691 2113 
L 5691 0 
L 5113 0 
L 5113 2094 
Q 5113 2597 4934 2840 
Q 4756 3084 4391 3084 
Q 3944 3084 3684 2787 
Q 3425 2491 3425 1978 
L 3425 0 
L 2847 0 
L 2847 2094 
Q 2847 2600 2669 2842 
Q 2491 3084 2119 3084 
Q 1678 3084 1418 2786 
Q 1159 2488 1159 1978 
L 1159 0 
L 581 0 
L 581 3500 
L 1159 3500 
L 1159 2956 
Q 1356 3278 1631 3431 
Q 1906 3584 2284 3584 
Q 2666 3584 2933 3390 
Q 3200 3197 3328 2828 
z
" id="DejaVuSans-6d" transform="scale(0.015625)"/>
       <path d="M 3116 1747 
Q 3116 2381 2855 2742 
Q 2594 3103 2138 3103 
Q 1681 3103 1420 2742 
Q 1159 2381 1159 1747 
Q 1159 1113 1420 752 
Q 1681 391 2138 391 
Q 2594 391 2855 752 
Q 3116 1113 3116 1747 
z
M 1159 2969 
Q 1341 3281 1617 3432 
Q 1894 3584 2278 3584 
Q 2916 3584 3314 3078 
Q 3713 2572 3713 1747 
Q 3713 922 3314 415 
Q 2916 -91 2278 -91 
Q 1894 -91 1617 61 
Q 1341 213 1159 525 
L 1159 0 
L 581 0 
L 581 4863 
L 1159 4863 
L 1159 2969 
z
" id="DejaVuSans-62" transform="scale(0.015625)"/>
       <path d="M 3597 1894 
L 3597 1613 
L 953 1613 
Q 991 1019 1311 708 
Q 1631 397 2203 397 
Q 2534 397 2845 478 
Q 3156 559 3463 722 
L 3463 178 
Q 3153 47 2828 -22 
Q 2503 -91 2169 -91 
Q 1331 -91 842 396 
Q 353 884 353 1716 
Q 353 2575 817 3079 
Q 1281 3584 2069 3584 
Q 2775 3584 3186 3129 
Q 3597 2675 3597 1894 
z
M 3022 2063 
Q 3016 2534 2758 2815 
Q 2500 3097 2075 3097 
Q 1594 3097 1305 2825 
Q 1016 2553 972 2059 
L 3022 2063 
z
" id="DejaVuSans-65" transform="scale(0.015625)"/>
       <path d="M 2631 2963 
Q 2534 3019 2420 3045 
Q 2306 3072 2169 3072 
Q 1681 3072 1420 2755 
Q 1159 2438 1159 1844 
L 1159 0 
L 581 0 
L 581 3500 
L 1159 3500 
L 1159 2956 
Q 1341 3275 1631 3429 
Q 1922 3584 2338 3584 
Q 2397 3584 2469 3576 
Q 2541 3569 2628 3553 
L 2631 2963 
z
" id="DejaVuSans-72" transform="scale(0.015625)"/>
      </defs>
      <use xlink:href="#DejaVuSans-45"/>
      <use x="63.183594" xlink:href="#DejaVuSans-70"/>
      <use x="126.660156" xlink:href="#DejaVuSans-6f"/>
      <use x="187.841797" xlink:href="#DejaVuSans-63"/>
      <use x="242.822266" xlink:href="#DejaVuSans-68"/>
      <use x="306.201172" xlink:href="#DejaVuSans-20"/>
      <use x="337.988281" xlink:href="#DejaVuSans-6e"/>
      <use x="401.367188" xlink:href="#DejaVuSans-75"/>
      <use x="464.746094" xlink:href="#DejaVuSans-6d"/>
      <use x="562.158203" xlink:href="#DejaVuSans-62"/>
      <use x="625.634766" xlink:href="#DejaVuSans-65"/>
      <use x="687.158203" xlink:href="#DejaVuSans-72"/>
     </g>
    </g>
   </g>
   <g id="matplotlib.axis_2">
    <g id="ytick_1">
     <g id="line2d_13">
      <path clip-path="url(#p352be58a17)" d="M 33.675 227.293575 
L 542.325 227.293575 
" style="fill:none;stroke:#ffffff;stroke-linecap:square;stroke-width:0.8;"/>
     </g>
     <g id="line2d_14">
      <defs>
       <path d="M 0 0 
L -3.5 0 
" id="mf6382c3044" style="stroke:#555555;stroke-width:0.8;"/>
      </defs>
      <g>
       <use style="fill:#555555;stroke:#555555;stroke-width:0.8;" x="33.675" xlink:href="#mf6382c3044" y="227.293575"/>
      </g>
     </g>
     <g id="text_8">
      <!-- 0.3 -->
      <g style="fill:#555555;" transform="translate(10.771875 231.092793)scale(0.1 -0.1)">
       <defs>
        <path d="M 684 794 
L 1344 794 
L 1344 0 
L 684 0 
L 684 794 
z
" id="DejaVuSans-2e" transform="scale(0.015625)"/>
        <path d="M 2597 2516 
Q 3050 2419 3304 2112 
Q 3559 1806 3559 1356 
Q 3559 666 3084 287 
Q 2609 -91 1734 -91 
Q 1441 -91 1130 -33 
Q 819 25 488 141 
L 488 750 
Q 750 597 1062 519 
Q 1375 441 1716 441 
Q 2309 441 2620 675 
Q 2931 909 2931 1356 
Q 2931 1769 2642 2001 
Q 2353 2234 1838 2234 
L 1294 2234 
L 1294 2753 
L 1863 2753 
Q 2328 2753 2575 2939 
Q 2822 3125 2822 3475 
Q 2822 3834 2567 4026 
Q 2313 4219 1838 4219 
Q 1578 4219 1281 4162 
Q 984 4106 628 3988 
L 628 4550 
Q 988 4650 1302 4700 
Q 1616 4750 1894 4750 
Q 2613 4750 3031 4423 
Q 3450 4097 3450 3541 
Q 3450 3153 3228 2886 
Q 3006 2619 2597 2516 
z
" id="DejaVuSans-33" transform="scale(0.015625)"/>
       </defs>
       <use xlink:href="#DejaVuSans-30"/>
       <use x="63.623047" xlink:href="#DejaVuSans-2e"/>
       <use x="95.410156" xlink:href="#DejaVuSans-33"/>
      </g>
     </g>
    </g>
    <g id="ytick_2">
     <g id="line2d_15">
      <path clip-path="url(#p352be58a17)" d="M 33.675 197.425399 
L 542.325 197.425399 
" style="fill:none;stroke:#ffffff;stroke-linecap:square;stroke-width:0.8;"/>
     </g>
     <g id="line2d_16">
      <g>
       <use style="fill:#555555;stroke:#555555;stroke-width:0.8;" x="33.675" xlink:href="#mf6382c3044" y="197.425399"/>
      </g>
     </g>
     <g id="text_9">
      <!-- 0.4 -->
      <g style="fill:#555555;" transform="translate(10.771875 201.224618)scale(0.1 -0.1)">
       <use xlink:href="#DejaVuSans-30"/>
       <use x="63.623047" xlink:href="#DejaVuSans-2e"/>
       <use x="95.410156" xlink:href="#DejaVuSans-34"/>
      </g>
     </g>
    </g>
    <g id="ytick_3">
     <g id="line2d_17">
      <path clip-path="url(#p352be58a17)" d="M 33.675 167.557223 
L 542.325 167.557223 
" style="fill:none;stroke:#ffffff;stroke-linecap:square;stroke-width:0.8;"/>
     </g>
     <g id="line2d_18">
      <g>
       <use style="fill:#555555;stroke:#555555;stroke-width:0.8;" x="33.675" xlink:href="#mf6382c3044" y="167.557223"/>
      </g>
     </g>
     <g id="text_10">
      <!-- 0.5 -->
      <g style="fill:#555555;" transform="translate(10.771875 171.356442)scale(0.1 -0.1)">
       <defs>
        <path d="M 691 4666 
L 3169 4666 
L 3169 4134 
L 1269 4134 
L 1269 2991 
Q 1406 3038 1543 3061 
Q 1681 3084 1819 3084 
Q 2600 3084 3056 2656 
Q 3513 2228 3513 1497 
Q 3513 744 3044 326 
Q 2575 -91 1722 -91 
Q 1428 -91 1123 -41 
Q 819 9 494 109 
L 494 744 
Q 775 591 1075 516 
Q 1375 441 1709 441 
Q 2250 441 2565 725 
Q 2881 1009 2881 1497 
Q 2881 1984 2565 2268 
Q 2250 2553 1709 2553 
Q 1456 2553 1204 2497 
Q 953 2441 691 2322 
L 691 4666 
z
" id="DejaVuSans-35" transform="scale(0.015625)"/>
       </defs>
       <use xlink:href="#DejaVuSans-30"/>
       <use x="63.623047" xlink:href="#DejaVuSans-2e"/>
       <use x="95.410156" xlink:href="#DejaVuSans-35"/>
      </g>
     </g>
    </g>
    <g id="ytick_4">
     <g id="line2d_19">
      <path clip-path="url(#p352be58a17)" d="M 33.675 137.689048 
L 542.325 137.689048 
" style="fill:none;stroke:#ffffff;stroke-linecap:square;stroke-width:0.8;"/>
     </g>
     <g id="line2d_20">
      <g>
       <use style="fill:#555555;stroke:#555555;stroke-width:0.8;" x="33.675" xlink:href="#mf6382c3044" y="137.689048"/>
      </g>
     </g>
     <g id="text_11">
      <!-- 0.6 -->
      <g style="fill:#555555;" transform="translate(10.771875 141.488267)scale(0.1 -0.1)">
       <use xlink:href="#DejaVuSans-30"/>
       <use x="63.623047" xlink:href="#DejaVuSans-2e"/>
       <use x="95.410156" xlink:href="#DejaVuSans-36"/>
      </g>
     </g>
    </g>
    <g id="ytick_5">
     <g id="line2d_21">
      <path clip-path="url(#p352be58a17)" d="M 33.675 107.820872 
L 542.325 107.820872 
" style="fill:none;stroke:#ffffff;stroke-linecap:square;stroke-width:0.8;"/>
     </g>
     <g id="line2d_22">
      <g>
       <use style="fill:#555555;stroke:#555555;stroke-width:0.8;" x="33.675" xlink:href="#mf6382c3044" y="107.820872"/>
      </g>
     </g>
     <g id="text_12">
      <!-- 0.7 -->
      <g style="fill:#555555;" transform="translate(10.771875 111.620091)scale(0.1 -0.1)">
       <defs>
        <path d="M 525 4666 
L 3525 4666 
L 3525 4397 
L 1831 0 
L 1172 0 
L 2766 4134 
L 525 4134 
L 525 4666 
z
" id="DejaVuSans-37" transform="scale(0.015625)"/>
       </defs>
       <use xlink:href="#DejaVuSans-30"/>
       <use x="63.623047" xlink:href="#DejaVuSans-2e"/>
       <use x="95.410156" xlink:href="#DejaVuSans-37"/>
      </g>
     </g>
    </g>
    <g id="ytick_6">
     <g id="line2d_23">
      <path clip-path="url(#p352be58a17)" d="M 33.675 77.952697 
L 542.325 77.952697 
" style="fill:none;stroke:#ffffff;stroke-linecap:square;stroke-width:0.8;"/>
     </g>
     <g id="line2d_24">
      <g>
       <use style="fill:#555555;stroke:#555555;stroke-width:0.8;" x="33.675" xlink:href="#mf6382c3044" y="77.952697"/>
      </g>
     </g>
     <g id="text_13">
      <!-- 0.8 -->
      <g style="fill:#555555;" transform="translate(10.771875 81.751915)scale(0.1 -0.1)">
       <use xlink:href="#DejaVuSans-30"/>
       <use x="63.623047" xlink:href="#DejaVuSans-2e"/>
       <use x="95.410156" xlink:href="#DejaVuSans-38"/>
      </g>
     </g>
    </g>
   </g>
   <g id="line2d_25">
    <path clip-path="url(#p352be58a17)" d="M 56.795455 233.613681 
L 61.466253 203.990424 
L 66.137052 173.692147 
L 70.807851 162.13615 
L 75.47865 150.914676 
L 80.149449 146.637553 
L 84.820248 139.400494 
L 89.491047 141.353873 
L 94.161846 156.679234 
L 98.832645 139.000261 
L 103.503444 142.031881 
L 108.174242 132.724957 
L 112.845041 137.097658 
L 117.51584 132.193304 
L 122.186639 131.377902 
L 126.857438 138.453673 
L 131.528237 130.431081 
L 136.199036 128.821186 
L 140.869835 121.512444 
L 145.540634 126.073314 
L 150.211433 120.219152 
L 154.882231 120.228112 
L 159.55303 127.405435 
L 164.223829 126.422772 
L 168.894628 121.225709 
L 173.565427 122.883393 
L 178.236226 116.234737 
L 182.907025 122.710158 
L 187.577824 121.222723 
L 192.248623 113.940861 
L 196.919421 119.747235 
L 201.59022 117.796843 
L 206.261019 121.593088 
L 210.931818 123.295574 
L 215.602617 117.190519 
L 220.273416 119.096109 
L 224.944215 128.403032 
L 229.615014 114.353042 
L 234.285813 113.597377 
L 238.956612 115.604519 
L 243.62741 116.324342 
L 248.298209 126.153958 
L 252.969008 114.523291 
L 257.639807 122.620553 
L 262.310606 112.716266 
L 266.981405 122.772881 
L 271.652204 121.17792 
L 276.323003 119.759182 
L 280.993802 119.597894 
L 285.664601 119.651657 
L 290.335399 114.099163 
L 295.006198 108.355513 
L 299.676997 114.069295 
L 304.347796 113.636206 
L 309.018595 115.010142 
L 313.689394 117.223374 
L 318.360193 119.720353 
L 323.030992 120.735871 
L 327.701791 118.301615 
L 332.37259 117.528029 
L 337.043388 119.938391 
L 341.714187 116.996376 
L 346.384986 118.008907 
L 351.055785 119.806971 
L 355.726584 122.306937 
L 360.397383 120.98079 
L 365.068182 113.185197 
L 369.738981 117.363754 
L 374.40978 115.123641 
L 379.080579 114.744315 
L 383.751377 118.074617 
L 388.422176 112.799897 
L 393.092975 113.955796 
L 397.763774 117.062086 
L 402.434573 122.441344 
L 407.105372 122.647435 
L 411.776171 117.27415 
L 416.44697 118.176169 
L 421.117769 118.546534 
L 425.788567 115.873332 
L 430.459366 120.243046 
L 435.130165 116.88885 
L 439.800964 115.045984 
L 444.471763 114.986248 
L 449.142562 114.980274 
L 453.813361 116.151106 
L 458.48416 111.766458 
L 463.154959 118.226945 
L 467.825758 118.032801 
L 472.496556 117.321939 
L 477.167355 113.934888 
L 481.838154 117.226361 
L 486.508953 111.817234 
L 491.179752 117.33986 
L 495.850551 108.698997 
L 500.52135 115.49102 
L 505.192149 118.086564 
L 509.862948 115.771781 
L 514.533747 109.932552 
L 519.204545 115.022089 
" style="fill:none;stroke:#e24a33;stroke-linecap:square;stroke-width:1.5;"/>
   </g>
   <g id="line2d_26">
    <path clip-path="url(#p352be58a17)" d="M 56.795455 234.363636 
L 61.466253 204.192998 
L 66.137052 174.097976 
L 70.807851 164.740541 
L 75.47865 152.11273 
L 80.149449 147.95387 
L 84.820248 140.789289 
L 89.491047 142.982142 
L 94.161846 157.670479 
L 98.832645 139.579439 
L 103.503444 142.67968 
L 108.174242 133.738131 
L 112.845041 137.405489 
L 117.51584 132.944167 
L 122.186639 130.240908 
L 126.857438 139.106841 
L 131.528237 131.110488 
L 136.199036 128.615172 
L 140.869835 122.906191 
L 145.540634 127.178475 
L 150.211433 120.297452 
L 154.882231 121.242647 
L 159.55303 127.840111 
L 164.223829 127.140667 
L 168.894628 122.679344 
L 173.565427 124.569735 
L 178.236226 117.858848 
L 182.907025 124.418504 
L 187.577824 122.717152 
L 192.248623 113.454237 
L 196.919421 121.393879 
L 201.59022 118.539388 
L 206.261019 123.586732 
L 210.931818 124.342888 
L 215.602617 117.669809 
L 220.273416 120.505395 
L 224.944215 129.087769 
L 229.615014 114.815318 
L 234.285813 113.454237 
L 238.956612 116.289823 
L 243.62741 116.705709 
L 248.298209 127.518745 
L 252.969008 115.665994 
L 257.639807 123.359885 
L 262.310606 113.529853 
L 266.981405 124.323984 
L 271.652204 122.622633 
L 276.323003 120.959089 
L 280.993802 120.807857 
L 285.664601 121.431686 
L 290.335399 116.233112 
L 295.006198 108.63374 
L 299.676997 114.96655 
L 304.347796 115.817226 
L 309.018595 116.214208 
L 313.689394 118.066791 
L 318.360193 120.67553 
L 323.030992 121.88538 
L 327.701791 119.654719 
L 332.37259 120.146221 
L 337.043388 120.845665 
L 341.714187 118.407061 
L 346.384986 118.993082 
L 351.055785 120.845665 
L 355.726584 123.700155 
L 360.397383 122.84948 
L 365.068182 115.514763 
L 369.738981 118.463773 
L 374.40978 115.174493 
L 379.080579 116.119688 
L 383.751377 119.80595 
L 388.422176 114.626279 
L 393.092975 114.928742 
L 397.763774 118.142406 
L 402.434573 122.679344 
L 407.105372 124.172753 
L 411.776171 118.463773 
L 416.44697 118.974178 
L 421.117769 119.484584 
L 425.788567 116.762421 
L 430.459366 122.376882 
L 435.130165 117.669809 
L 439.800964 116.932556 
L 444.471763 116.630094 
L 449.142562 116.252015 
L 453.813361 118.293638 
L 458.48416 111.904116 
L 463.154959 120.316356 
L 467.825758 119.163217 
L 472.496556 118.804043 
L 477.167355 116.214208 
L 481.838154 119.427872 
L 486.508953 113.473141 
L 491.179752 118.407061 
L 495.850551 109.805783 
L 500.52135 116.932556 
L 505.192149 118.709524 
L 509.862948 116.762421 
L 514.533747 111.091248 
L 519.204545 118.5961 
" style="fill:none;stroke:#e24a33;stroke-dasharray:5.55,2.4;stroke-dashoffset:0;stroke-width:1.5;"/>
   </g>
   <g id="line2d_27">
    <path clip-path="url(#p352be58a17)" d="M 56.795455 192.897384 
L 61.466253 163.581769 
L 66.137052 146.36874 
L 70.807851 138.232649 
L 75.47865 127.453224 
L 80.149449 122.507054 
L 84.820248 122.381608 
L 89.491047 117.560884 
L 94.161846 116.342263 
L 98.832645 113.845283 
L 103.503444 113.884112 
L 108.174242 111.476737 
L 112.845041 108.131501 
L 117.51584 110.01021 
L 122.186639 112.211494 
L 126.857438 109.311294 
L 131.528237 110.473166 
L 136.199036 111.425961 
L 140.869835 106.608224 
L 145.540634 105.4583 
L 150.211433 108.50784 
L 154.882231 106.121373 
L 159.55303 104.645885 
L 164.223829 106.004887 
L 168.894628 108.451091 
L 173.565427 104.320322 
L 178.236226 106.877038 
L 182.907025 106.228898 
L 187.577824 105.302985 
L 192.248623 102.800032 
L 196.919421 107.835806 
L 201.59022 105.434405 
L 206.261019 104.392006 
L 210.931818 106.503686 
L 215.602617 108.239027 
L 220.273416 104.636925 
L 224.944215 103.519855 
L 229.615014 103.55271 
L 234.285813 105.625561 
L 238.956612 107.396744 
L 243.62741 106.981577 
L 248.298209 105.437392 
L 252.969008 102.36097 
L 257.639807 102.026446 
L 262.310606 104.863923 
L 266.981405 105.031185 
L 271.652204 106.65004 
L 276.323003 105.837625 
L 280.993802 114.129031 
L 285.664601 104.792239 
L 290.335399 105.756981 
L 295.006198 103.22416 
L 299.676997 104.442782 
L 304.347796 104.598096 
L 309.018595 104.263573 
L 313.689394 105.810744 
L 318.360193 102.746269 
L 323.030992 107.411678 
L 327.701791 107.593874 
L 332.37259 106.420055 
L 337.043388 107.492322 
L 341.714187 109.293373 
L 346.384986 105.034171 
L 351.055785 105.001316 
L 355.726584 109.828014 
L 360.397383 110.936123 
L 365.068182 105.380642 
L 369.738981 107.107023 
L 374.40978 104.359151 
L 379.080579 102.438627 
L 383.751377 106.004887 
L 388.422176 111.294541 
L 393.092975 109.161953 
L 397.763774 107.802951 
L 402.434573 113.621272 
L 407.105372 107.495309 
L 411.776171 114.406805 
L 416.44697 114.887683 
L 421.117769 106.742631 
L 425.788567 109.209742 
L 430.459366 103.481026 
L 435.130165 107.050273 
L 439.800964 109.36207 
L 444.471763 103.770748 
L 449.142562 101.17819 
L 453.813361 107.396744 
L 458.48416 110.494074 
L 463.154959 107.934371 
L 467.825758 109.248571 
L 472.496556 108.122541 
L 477.167355 108.997678 
L 481.838154 106.906906 
L 486.508953 111.563355 
L 491.179752 110.162537 
L 495.850551 108.851324 
L 500.52135 114.675619 
L 505.192149 107.24143 
L 509.862948 106.405121 
L 514.533747 106.874051 
L 519.204545 112.345901 
" style="fill:none;stroke:#348abd;stroke-linecap:square;stroke-width:1.5;"/>
   </g>
   <g id="line2d_28">
    <path clip-path="url(#p352be58a17)" d="M 56.795455 193.51229 
L 61.466253 164.49479 
L 66.137052 148.218525 
L 70.807851 139.768478 
L 75.47865 128.029151 
L 80.149449 123.416597 
L 84.820248 123.719059 
L 89.491047 118.879659 
L 94.161846 117.594193 
L 98.832645 115.590379 
L 103.503444 114.87203 
L 108.174242 112.716985 
L 112.845041 109.238665 
L 117.51584 111.601654 
L 122.186639 112.773696 
L 126.857438 110.826594 
L 131.528237 112.490138 
L 136.199036 112.754792 
L 140.869835 107.272659 
L 145.540634 107.064716 
L 150.211433 108.690452 
L 154.882231 106.478695 
L 159.55303 105.817058 
L 164.223829 106.11952 
L 168.894628 109.181954 
L 173.565427 105.401172 
L 178.236226 107.820872 
L 182.907025 107.348275 
L 187.577824 106.9891 
L 192.248623 103.302838 
L 196.919421 109.16305 
L 201.59022 107.348275 
L 206.261019 105.949385 
L 210.931818 108.123335 
L 215.602617 108.558125 
L 220.273416 107.08362 
L 224.944215 105.949385 
L 229.615014 104.058994 
L 234.285813 106.535406 
L 238.956612 109.238665 
L 243.62741 108.595932 
L 248.298209 106.875677 
L 252.969008 102.679009 
L 257.639807 103.548589 
L 262.310606 106.686638 
L 266.981405 106.270752 
L 271.652204 107.348275 
L 276.323003 106.837869 
L 280.993802 114.701895 
L 285.664601 106.440887 
L 290.335399 107.348275 
L 295.006198 105.060902 
L 299.676997 105.835962 
L 304.347796 106.21404 
L 309.018595 106.421983 
L 313.689394 107.499506 
L 318.360193 103.643108 
L 323.030992 108.860587 
L 327.701791 109.106338 
L 332.37259 106.781157 
L 337.043388 107.85868 
L 341.714187 111.809597 
L 346.384986 106.138424 
L 351.055785 106.535406 
L 355.726584 111.67727 
L 360.397383 110.996729 
L 365.068182 107.499506 
L 369.738981 109.125242 
L 374.40978 105.552403 
L 379.080579 103.529685 
L 383.751377 107.253755 
L 388.422176 112.187675 
L 393.092975 110.996729 
L 397.763774 109.144146 
L 402.434573 114.947646 
L 407.105372 108.539221 
L 411.776171 115.420243 
L 416.44697 116.554478 
L 421.117769 108.29347 
L 425.788567 109.578936 
L 430.459366 105.590211 
L 435.130165 109.144146 
L 439.800964 110.297284 
L 444.471763 105.155421 
L 449.142562 102.716817 
L 453.813361 109.257569 
L 458.48416 112.414522 
L 463.154959 109.673455 
L 467.825758 109.673455 
L 472.496556 110.202765 
L 477.167355 109.881398 
L 481.838154 109.295377 
L 486.508953 112.754792 
L 491.179752 111.733981 
L 495.850551 111.204672 
L 500.52135 115.174493 
L 505.192149 108.690452 
L 509.862948 108.577029 
L 514.533747 107.991007 
L 519.204545 113.132871 
" style="fill:none;stroke:#348abd;stroke-dasharray:5.55,2.4;stroke-dashoffset:0;stroke-width:1.5;"/>
   </g>
   <g id="line2d_29">
    <path clip-path="url(#p352be58a17)" d="M 56.795455 128.053574 
L 61.466253 107.047286 
L 66.137052 100.91535 
L 70.807851 94.311496 
L 75.47865 90.476423 
L 80.149449 89.717771 
L 84.820248 87.836076 
L 89.491047 83.394678 
L 94.161846 84.001002 
L 98.832645 82.907827 
L 103.503444 80.664727 
L 108.174242 81.886335 
L 112.845041 81.020158 
L 117.51584 79.538697 
L 122.186639 79.607394 
L 126.857438 77.02977 
L 131.528237 76.507077 
L 136.199036 76.934192 
L 140.869835 75.428836 
L 145.540634 75.50948 
L 150.211433 75.434809 
L 154.882231 76.256184 
L 159.55303 76.10983 
L 164.223829 75.145088 
L 168.894628 75.219759 
L 173.565427 76.23229 
L 178.236226 74.962892 
L 182.907025 75.037563 
L 187.577824 73.385853 
L 192.248623 75.587137 
L 196.919421 74.26099 
L 201.59022 76.112817 
L 206.261019 74.12957 
L 210.931818 73.645706 
L 215.602617 73.890625 
L 220.273416 72.424097 
L 224.944215 72.87212 
L 229.615014 73.624798 
L 234.285813 72.737713 
L 238.956612 72.791476 
L 243.62741 72.507728 
L 248.298209 71.674406 
L 252.969008 72.537596 
L 257.639807 74.452146 
L 262.310606 72.020877 
L 266.981405 72.209047 
L 271.652204 72.328519 
L 276.323003 71.363777 
L 280.993802 71.75505 
L 285.664601 71.61467 
L 290.335399 72.340466 
L 295.006198 72.00893 
L 299.676997 73.854783 
L 304.347796 71.695314 
L 309.018595 71.253265 
L 313.689394 72.086587 
L 318.360193 70.867965 
L 323.030992 72.035811 
L 327.701791 72.409163 
L 332.37259 72.277743 
L 337.043388 71.265212 
L 341.714187 71.695314 
L 346.384986 70.841084 
L 351.055785 71.432474 
L 355.726584 72.81537 
L 360.397383 70.95757 
L 365.068182 69.505977 
L 369.738981 71.976075 
L 374.40978 71.178594 
L 379.080579 70.617073 
L 383.751377 71.49221 
L 388.422176 72.564478 
L 393.092975 70.832124 
L 397.763774 70.841084 
L 402.434573 69.861408 
L 407.105372 71.928286 
L 411.776171 72.373321 
L 416.44697 70.48864 
L 421.117769 71.145739 
L 425.788567 70.960557 
L 430.459366 71.053148 
L 435.130165 71.399619 
L 439.800964 72.071653 
L 444.471763 70.667849 
L 449.142562 70.354233 
L 453.813361 70.446824 
L 458.48416 71.357803 
L 463.154959 70.464745 
L 467.825758 72.089574 
L 472.496556 71.835694 
L 477.167355 71.071069 
L 481.838154 71.062109 
L 486.508953 70.617073 
L 491.179752 70.4976 
L 495.850551 71.044188 
L 500.52135 69.550779 
L 505.192149 71.590775 
L 509.862948 70.960557 
L 514.533747 69.939065 
L 519.204545 69.989841 
" style="fill:none;stroke:#988ed5;stroke-linecap:square;stroke-width:1.5;"/>
   </g>
   <g id="line2d_30">
    <path clip-path="url(#p352be58a17)" d="M 56.795455 129.012154 
L 61.466253 108.350182 
L 66.137052 102.58449 
L 70.807851 95.760179 
L 75.47865 91.75255 
L 80.149449 90.315853 
L 84.820248 88.727925 
L 89.491047 84.134275 
L 94.161846 85.363029 
L 98.832645 83.775101 
L 103.503444 82.792097 
L 108.174242 83.189079 
L 112.845041 82.338403 
L 117.51584 81.676767 
L 122.186639 80.863899 
L 126.857438 78.784469 
L 131.528237 78.009408 
L 136.199036 78.179544 
L 140.869835 76.818462 
L 145.540634 77.083117 
L 150.211433 76.119018 
L 154.882231 78.122832 
L 159.55303 78.255159 
L 164.223829 76.629423 
L 168.894628 76.799558 
L 173.565427 78.103928 
L 178.236226 77.007501 
L 182.907025 76.705039 
L 187.577824 75.11711 
L 192.248623 76.005594 
L 196.919421 76.345864 
L 201.59022 78.16064 
L 206.261019 75.419573 
L 210.931818 74.87136 
L 215.602617 74.701224 
L 220.273416 73.529182 
L 224.944215 74.360954 
L 229.615014 75.098206 
L 234.285813 74.587801 
L 238.956612 74.757936 
L 243.62741 74.493281 
L 248.298209 73.056584 
L 252.969008 74.285338 
L 257.639807 76.251345 
L 262.310606 73.90726 
L 266.981405 73.453566 
L 271.652204 73.926164 
L 276.323003 73.604798 
L 280.993802 72.905353 
L 285.664601 72.962065 
L 290.335399 74.68232 
L 295.006198 74.247531 
L 299.676997 75.929978 
L 304.347796 72.829737 
L 309.018595 72.924257 
L 313.689394 73.302335 
L 318.360193 72.678506 
L 323.030992 74.285338 
L 327.701791 73.491374 
L 332.37259 73.718221 
L 337.043388 73.340143 
L 341.714187 73.850548 
L 346.384986 72.678506 
L 351.055785 73.113296 
L 355.726584 74.625609 
L 360.397383 73.377951 
L 365.068182 71.090578 
L 369.738981 73.90726 
L 374.40978 72.829737 
L 379.080579 71.714407 
L 383.751377 73.113296 
L 388.422176 74.531089 
L 393.092975 73.415759 
L 397.763774 72.338236 
L 402.434573 71.960158 
L 407.105372 74.00178 
L 411.776171 73.831645 
L 416.44697 71.960158 
L 421.117769 73.434663 
L 425.788567 72.489467 
L 430.459366 73.075488 
L 435.130165 72.848641 
L 439.800964 73.926164 
L 444.471763 72.716314 
L 449.142562 72.546179 
L 453.813361 72.999873 
L 458.48416 73.151104 
L 463.154959 72.905353 
L 467.825758 73.47247 
L 472.496556 72.962065 
L 477.167355 73.283431 
L 481.838154 72.735218 
L 486.508953 72.394948 
L 491.179752 72.848641 
L 495.850551 72.810834 
L 500.52135 71.279617 
L 505.192149 73.529182 
L 509.862948 71.941254 
L 514.533747 71.808926 
L 519.204545 71.808926 
" style="fill:none;stroke:#988ed5;stroke-dasharray:5.55,2.4;stroke-dashoffset:0;stroke-width:1.5;"/>
   </g>
   <g id="line2d_31">
    <path clip-path="url(#p352be58a17)" d="M 56.795455 123.845148 
L 61.466253 103.373501 
L 66.137052 98.191372 
L 70.807851 91.53973 
L 75.47865 89.218972 
L 80.149449 85.984249 
L 84.820248 86.951978 
L 89.491047 85.46753 
L 94.161846 84.192159 
L 98.832645 84.446038 
L 103.503444 82.119307 
L 108.174242 81.668298 
L 112.845041 80.222678 
L 117.51584 81.363642 
L 122.186639 78.983149 
L 126.857438 79.696998 
L 131.528237 79.547657 
L 136.199036 78.21255 
L 140.869835 78.41864 
L 145.540634 78.529152 
L 150.211433 78.257352 
L 154.882231 78.998083 
L 159.55303 77.205992 
L 164.223829 76.402538 
L 168.894628 76.614602 
L 173.565427 77.76154 
L 178.236226 76.387604 
L 182.907025 76.483182 
L 187.577824 76.16658 
L 192.248623 78.502271 
L 196.919421 76.829653 
L 201.59022 76.611616 
L 206.261019 75.100286 
L 210.931818 76.605642 
L 215.602617 76.178527 
L 220.273416 76.10983 
L 224.944215 75.363126 
L 229.615014 76.160606 
L 234.285813 75.046523 
L 238.956612 75.58415 
L 243.62741 75.297416 
L 248.298209 74.989774 
L 252.969008 77.071585 
L 257.639807 75.906727 
L 262.310606 73.753231 
L 266.981405 74.114636 
L 271.652204 77.023796 
L 276.323003 75.258587 
L 280.993802 74.613435 
L 285.664601 78.335009 
L 290.335399 74.759789 
L 295.006198 73.848809 
L 299.676997 74.574606 
L 304.347796 73.99815 
L 309.018595 73.863743 
L 313.689394 74.52383 
L 318.360193 75.085352 
L 323.030992 75.464678 
L 327.701791 74.045939 
L 332.37259 77.331439 
L 337.043388 75.18093 
L 341.714187 78.349943 
L 346.384986 73.553114 
L 351.055785 73.950361 
L 355.726584 73.741284 
L 360.397383 73.120026 
L 365.068182 75.515454 
L 369.738981 74.45812 
L 374.40978 73.224564 
L 379.080579 77.376241 
L 383.751377 74.706026 
L 388.422176 74.272937 
L 393.092975 74.51487 
L 397.763774 75.2556 
L 402.434573 73.523246 
L 407.105372 75.679729 
L 411.776171 75.473638 
L 416.44697 73.517273 
L 421.117769 75.11522 
L 425.788567 75.718557 
L 430.459366 73.899585 
L 435.130165 74.12957 
L 439.800964 74.048926 
L 444.471763 72.764595 
L 449.142562 73.376892 
L 453.813361 74.022045 
L 458.48416 74.550711 
L 463.154959 74.036979 
L 467.825758 75.936595 
L 472.496556 73.902572 
L 477.167355 76.292026 
L 481.838154 73.905559 
L 486.508953 75.679729 
L 491.179752 72.99458 
L 495.850551 76.062041 
L 500.52135 73.347024 
L 505.192149 73.394813 
L 509.862948 75.216772 
L 514.533747 75.064444 
L 519.204545 74.661224 
" style="fill:none;stroke:#777777;stroke-linecap:square;stroke-width:1.5;"/>
   </g>
   <g id="line2d_32">
    <path clip-path="url(#p352be58a17)" d="M 56.795455 124.248369 
L 61.466253 105.231037 
L 66.137052 99.937942 
L 70.807851 92.262955 
L 75.47865 91.128721 
L 80.149449 86.610687 
L 84.820248 88.255327 
L 89.491047 87.272324 
L 94.161846 85.892338 
L 98.832645 85.665491 
L 103.503444 83.52935 
L 108.174242 84.058659 
L 112.845041 81.582247 
L 117.51584 83.283599 
L 122.186639 80.088838 
L 126.857438 82.338403 
L 131.528237 81.809094 
L 136.199036 79.975415 
L 140.869835 79.824184 
L 145.540634 79.351586 
L 150.211433 79.332682 
L 154.882231 80.693763 
L 159.55303 79.011316 
L 164.223829 77.990504 
L 168.894628 77.480099 
L 173.565427 79.616241 
L 178.236226 77.480099 
L 182.907025 77.72585 
L 187.577824 76.837366 
L 192.248623 80.126646 
L 196.919421 78.689949 
L 201.59022 78.50091 
L 206.261019 76.837366 
L 210.931818 78.368583 
L 215.602617 77.933793 
L 220.273416 77.593522 
L 224.944215 76.383672 
L 229.615014 77.480099 
L 234.285813 76.629423 
L 238.956612 78.557622 
L 243.62741 76.76175 
L 248.298209 76.894078 
L 252.969008 77.971601 
L 257.639807 77.385579 
L 262.310606 75.532996 
L 266.981405 75.967786 
L 271.652204 79.332682 
L 276.323003 77.177636 
L 280.993802 76.043402 
L 285.664601 79.559529 
L 290.335399 77.29106 
L 295.006198 75.665324 
L 299.676997 76.875174 
L 304.347796 75.722035 
L 309.018595 75.665324 
L 313.689394 76.42148 
L 318.360193 76.875174 
L 323.030992 75.854363 
L 327.701791 75.797651 
L 332.37259 78.671045 
L 337.043388 76.85627 
L 341.714187 80.618148 
L 346.384986 74.852456 
L 351.055785 74.909167 
L 355.726584 75.532996 
L 360.397383 73.623702 
L 365.068182 77.139829 
L 369.738981 76.308057 
L 374.40978 75.608612 
L 379.080579 79.200355 
L 383.751377 76.42148 
L 388.422176 76.100114 
L 393.092975 76.42148 
L 397.763774 76.875174 
L 402.434573 75.21163 
L 407.105372 77.253252 
L 411.776171 77.328868 
L 416.44697 75.722035 
L 421.117769 76.988597 
L 425.788567 78.330775 
L 430.459366 76.213537 
L 435.130165 75.948882 
L 439.800964 76.156825 
L 444.471763 74.852456 
L 449.142562 75.570804 
L 453.813361 76.062306 
L 458.48416 76.629423 
L 463.154959 75.5519 
L 467.825758 78.028312 
L 472.496556 76.043402 
L 477.167355 78.784469 
L 481.838154 76.251345 
L 486.508953 77.763658 
L 491.179752 74.398762 
L 495.850551 78.425294 
L 500.52135 74.360954 
L 505.192149 75.136014 
L 509.862948 77.007501 
L 514.533747 76.686135 
L 519.204545 75.495189 
" style="fill:none;stroke:#777777;stroke-dasharray:5.55,2.4;stroke-dashoffset:0;stroke-width:1.5;"/>
   </g>
   <g id="line2d_33">
    <path clip-path="url(#p352be58a17)" d="M 56.795455 176.177179 
L 61.466253 139.278035 
L 66.137052 125.141427 
L 70.807851 115.380507 
L 75.47865 110.595626 
L 80.149449 107.57894 
L 84.820248 102.671599 
L 89.491047 99.556348 
L 94.161846 99.19793 
L 98.832645 98.355647 
L 103.503444 97.15196 
L 108.174242 94.000867 
L 112.845041 94.454864 
L 117.51584 93.2004 
L 122.186639 89.810362 
L 126.857438 92.047489 
L 131.528237 90.046321 
L 136.199036 90.410713 
L 140.869835 87.346238 
L 145.540634 89.684916 
L 150.211433 88.31994 
L 154.882231 87.298449 
L 159.55303 88.042166 
L 164.223829 86.411364 
L 168.894628 86.653296 
L 173.565427 86.444219 
L 178.236226 86.357601 
L 182.907025 85.303255 
L 187.577824 84.658102 
L 192.248623 84.35942 
L 196.919421 84.329552 
L 201.59022 83.812833 
L 206.261019 82.235793 
L 210.931818 82.659921 
L 215.602617 83.648558 
L 220.273416 81.868414 
L 224.944215 82.265661 
L 229.615014 83.594795 
L 234.285813 83.463375 
L 238.956612 82.546422 
L 243.62741 83.063142 
L 248.298209 82.053597 
L 252.969008 82.910814 
L 257.639807 83.263258 
L 262.310606 80.38994 
L 266.981405 82.540448 
L 271.652204 81.109763 
L 276.323003 82.525514 
L 280.993802 81.324814 
L 285.664601 81.115736 
L 290.335399 79.204173 
L 295.006198 79.747774 
L 299.676997 80.99029 
L 304.347796 80.625898 
L 309.018595 79.234041 
L 313.689394 80.566162 
L 318.360193 79.705959 
L 323.030992 82.417989 
L 327.701791 81.823612 
L 332.37259 81.321827 
L 337.043388 79.891141 
L 341.714187 80.431755 
L 346.384986 79.443119 
L 351.055785 80.348124 
L 355.726584 81.58168 
L 360.397383 82.086452 
L 365.068182 79.045872 
L 369.738981 82.140215 
L 374.40978 79.13249 
L 379.080579 77.821277 
L 383.751377 80.306309 
L 388.422176 80.431755 
L 393.092975 79.371435 
L 397.763774 79.266896 
L 402.434573 78.424614 
L 407.105372 79.738814 
L 411.776171 79.810497 
L 416.44697 78.636678 
L 421.117769 79.440132 
L 425.788567 80.091258 
L 430.459366 80.180863 
L 435.130165 79.843352 
L 439.800964 78.953281 
L 444.471763 79.664143 
L 449.142562 80.121126 
L 453.813361 79.180279 
L 458.48416 82.352279 
L 463.154959 80.124113 
L 467.825758 79.688038 
L 472.496556 79.374422 
L 477.167355 77.68687 
L 481.838154 78.131906 
L 486.508953 81.142618 
L 491.179752 79.07574 
L 495.850551 77.782448 
L 500.52135 79.302738 
L 505.192149 78.018407 
L 509.862948 77.82725 
L 514.533747 80.133073 
L 519.204545 78.463442 
" style="fill:none;stroke:#fbc15e;stroke-linecap:square;stroke-width:1.5;"/>
   </g>
   <g id="line2d_34">
    <path clip-path="url(#p352be58a17)" d="M 56.795455 175.345634 
L 61.466253 140.16546 
L 66.137052 126.006432 
L 70.807851 116.724613 
L 75.47865 112.88712 
L 80.149449 109.125242 
L 84.820248 105.041998 
L 89.491047 101.374639 
L 94.161846 102.017372 
L 98.832645 100.656291 
L 103.503444 98.444534 
L 108.174242 96.988933 
L 112.845041 97.140164 
L 117.51584 94.94731 
L 122.186639 92.565418 
L 126.857438 94.096635 
L 131.528237 91.960493 
L 136.199036 93.075824 
L 140.869835 90.145718 
L 145.540634 92.659938 
L 150.211433 90.769547 
L 154.882231 89.446273 
L 159.55303 90.164622 
L 164.223829 88.746828 
L 168.894628 89.257234 
L 173.565427 88.538885 
L 178.236226 88.066288 
L 182.907025 87.102188 
L 187.577824 87.026573 
L 192.248623 86.667399 
L 196.919421 86.346032 
L 201.59022 85.873434 
L 206.261019 83.96414 
L 210.931818 84.606872 
L 215.602617 86.799726 
L 220.273416 84.966047 
L 224.944215 84.417833 
L 229.615014 85.911242 
L 234.285813 86.28932 
L 238.956612 84.361122 
L 243.62741 85.155086 
L 248.298209 85.155086 
L 252.969008 85.003855 
L 257.639807 85.363029 
L 262.310606 82.603058 
L 266.981405 84.531257 
L 271.652204 83.491542 
L 276.323003 84.984951 
L 280.993802 83.264695 
L 285.664601 83.00004 
L 290.335399 81.979229 
L 295.006198 82.168268 
L 299.676997 83.623869 
L 304.347796 83.718389 
L 309.018595 81.620055 
L 313.689394 83.359215 
L 318.360193 82.716482 
L 323.030992 84.493449 
L 327.701791 84.795912 
L 332.37259 83.850716 
L 337.043388 83.151272 
L 341.714187 83.321407 
L 346.384986 82.754289 
L 351.055785 82.414019 
L 355.726584 83.623869 
L 360.397383 84.058659 
L 365.068182 81.752382 
L 369.738981 84.871527 
L 374.40978 82.243884 
L 379.080579 80.655956 
L 383.751377 83.378118 
L 388.422176 82.584154 
L 393.092975 82.470731 
L 397.763774 81.865806 
L 402.434573 81.771286 
L 407.105372 83.548254 
L 411.776171 82.508539 
L 416.44697 81.431016 
L 421.117769 82.187172 
L 425.788567 82.546346 
L 430.459366 82.187172 
L 435.130165 82.924425 
L 439.800964 81.412112 
L 444.471763 82.754289 
L 449.142562 83.283599 
L 453.813361 81.827998 
L 458.48416 84.758104 
L 463.154959 82.546346 
L 467.825758 83.170175 
L 472.496556 81.714574 
L 477.167355 79.654048 
L 481.838154 80.807187 
L 486.508953 84.077563 
L 491.179752 81.601151 
L 495.850551 81.071842 
L 500.52135 82.432923 
L 505.192149 80.24007 
L 509.862948 80.032127 
L 514.533747 82.867713 
L 519.204545 81.487728 
" style="fill:none;stroke:#fbc15e;stroke-dasharray:5.55,2.4;stroke-dashoffset:0;stroke-width:1.5;"/>
   </g>
   <g id="line2d_35">
    <path clip-path="url(#p352be58a17)" d="M 56.795455 161.661246 
L 61.466253 138.665737 
L 66.137052 120.1176 
L 70.807851 113.427129 
L 75.47865 108.955863 
L 80.149449 105.147671 
L 84.820248 99.517519 
L 89.491047 98.516936 
L 94.161846 96.674069 
L 98.832645 94.998464 
L 103.503444 95.494276 
L 108.174242 91.608427 
L 112.845041 91.560637 
L 117.51584 91.644268 
L 122.186639 89.810362 
L 126.857438 89.795428 
L 131.528237 88.866528 
L 136.199036 91.046905 
L 140.869835 86.960938 
L 145.540634 86.72498 
L 150.211433 86.285918 
L 154.882231 85.769198 
L 159.55303 87.083398 
L 164.223829 84.947823 
L 168.894628 85.446622 
L 173.565427 86.748874 
L 178.236226 84.275789 
L 182.907025 84.347473 
L 187.577824 84.708878 
L 192.248623 85.691541 
L 196.919421 83.932305 
L 201.59022 84.834324 
L 206.261019 83.747123 
L 210.931818 81.972953 
L 215.602617 82.991458 
L 220.273416 82.415002 
L 224.944215 82.30449 
L 229.615014 82.456818 
L 234.285813 82.223846 
L 238.956612 81.629469 
L 243.62741 82.367213 
L 248.298209 80.999251 
L 252.969008 83.039247 
L 257.639807 80.610964 
L 262.310606 83.212482 
L 266.981405 81.757902 
L 271.652204 82.812249 
L 276.323003 83.56194 
L 280.993802 81.808678 
L 285.664601 82.477725 
L 290.335399 83.284166 
L 295.006198 83.107944 
L 299.676997 83.651545 
L 304.347796 85.088204 
L 309.018595 82.30449 
L 313.689394 84.989639 
L 318.360193 81.285985 
L 323.030992 82.298516 
L 327.701791 83.125865 
L 332.37259 82.409028 
L 337.043388 82.910814 
L 341.714187 84.230987 
L 346.384986 80.984316 
L 351.055785 83.194561 
L 355.726584 81.587654 
L 360.397383 82.24774 
L 365.068182 85.324162 
L 369.738981 85.996196 
L 374.40978 82.292543 
L 379.080579 85.144953 
L 383.751377 83.203522 
L 388.422176 85.975289 
L 393.092975 82.355266 
L 397.763774 84.852245 
L 402.434573 81.303906 
L 407.105372 83.558953 
L 411.776171 82.758486 
L 416.44697 82.253714 
L 421.117769 84.001002 
L 425.788567 80.413834 
L 430.459366 82.376173 
L 435.130165 83.066128 
L 439.800964 82.43591 
L 444.471763 79.906075 
L 449.142562 78.257352 
L 453.813361 80.327217 
L 458.48416 83.188588 
L 463.154959 81.874388 
L 467.825758 83.579861 
L 472.496556 82.406042 
L 477.167355 79.287804 
L 481.838154 80.646806 
L 486.508953 80.091258 
L 491.179752 81.327801 
L 495.850551 81.220275 
L 500.52135 80.392927 
L 505.192149 80.960422 
L 509.862948 83.830754 
L 514.533747 82.880946 
L 519.204545 83.917371 
" style="fill:none;stroke:#8eba42;stroke-linecap:square;stroke-width:1.5;"/>
   </g>
   <g id="line2d_36">
    <path clip-path="url(#p352be58a17)" d="M 56.795455 160.921951 
L 61.466253 138.350685 
L 66.137052 121.809765 
L 70.807851 114.09697 
L 75.47865 109.673455 
L 80.149449 107.291563 
L 84.820248 101.809429 
L 89.491047 100.807522 
L 94.161846 98.501245 
L 98.832645 97.02674 
L 103.503444 97.291395 
L 108.174242 93.73746 
L 112.845041 93.73746 
L 117.51584 94.285674 
L 122.186639 92.168436 
L 126.857438 92.489802 
L 131.528237 92.111724 
L 136.199036 93.416094 
L 140.869835 89.881063 
L 145.540634 89.502985 
L 150.211433 88.633405 
L 154.882231 88.576693 
L 159.55303 89.351754 
L 164.223829 86.402744 
L 168.894628 87.877249 
L 173.565427 89.502985 
L 178.236226 86.648495 
L 182.907025 86.743014 
L 187.577824 88.085192 
L 192.248623 89.276138 
L 196.919421 87.347939 
L 201.59022 87.121092 
L 206.261019 86.648495 
L 210.931818 84.380026 
L 215.602617 85.363029 
L 220.273416 85.703299 
L 224.944215 84.266602 
L 229.615014 84.833719 
L 234.285813 84.285506 
L 238.956612 84.285506 
L 243.62741 84.398929 
L 248.298209 82.414019 
L 252.969008 84.852623 
L 257.639807 82.905521 
L 262.310606 85.797819 
L 266.981405 83.983044 
L 271.652204 85.136182 
L 276.323003 85.722203 
L 280.993802 84.153179 
L 285.664601 85.17399 
L 290.335399 85.778915 
L 295.006198 85.722203 
L 299.676997 86.440552 
L 304.347796 88.444366 
L 309.018595 84.606872 
L 313.689394 86.780822 
L 318.360193 84.417833 
L 323.030992 84.455641 
L 327.701791 85.51426 
L 332.37259 84.720296 
L 337.043388 86.005762 
L 341.714187 87.25342 
L 346.384986 83.09456 
L 351.055785 85.192894 
L 355.726584 84.852623 
L 360.397383 84.625776 
L 365.068182 88.36875 
L 369.738981 88.217519 
L 374.40978 86.119185 
L 379.080579 87.93396 
L 383.751377 85.665491 
L 388.422176 87.574786 
L 393.092975 85.646587 
L 397.763774 87.59369 
L 402.434573 83.888524 
L 407.105372 86.72411 
L 411.776171 85.022758 
L 416.44697 85.211798 
L 421.117769 86.081377 
L 425.788567 82.962232 
L 430.459366 84.172083 
L 435.130165 85.94905 
L 439.800964 85.703299 
L 444.471763 82.829905 
L 449.142562 80.655956 
L 453.813361 82.924425 
L 458.48416 85.419741 
L 463.154959 85.136182 
L 467.825758 85.060566 
L 472.496556 84.342218 
L 477.167355 83.132368 
L 481.838154 83.264695 
L 486.508953 82.338403 
L 491.179752 83.86962 
L 495.850551 84.172083 
L 500.52135 83.207983 
L 505.192149 82.886617 
L 509.862948 85.967954 
L 514.533747 84.909335 
L 519.204545 87.102188 
" style="fill:none;stroke:#8eba42;stroke-dasharray:5.55,2.4;stroke-dashoffset:0;stroke-width:1.5;"/>
   </g>
   <g id="line2d_37">
    <path clip-path="url(#p352be58a17)" d="M 56.795455 117.895408 
L 61.466253 99.902819 
L 66.137052 89.562457 
L 70.807851 85.751277 
L 75.47865 80.993277 
L 80.149449 77.427017 
L 84.820248 76.799785 
L 89.491047 75.336244 
L 94.161846 73.720376 
L 98.832645 72.471886 
L 103.503444 71.280146 
L 108.174242 70.999385 
L 112.845041 69.741935 
L 117.51584 69.30586 
L 122.186639 68.146975 
L 126.857438 68.314236 
L 131.528237 67.833359 
L 136.199036 66.87459 
L 140.869835 67.056786 
L 145.540634 66.937314 
L 150.211433 65.417023 
L 154.882231 66.193596 
L 159.55303 65.264696 
L 164.223829 65.605193 
L 168.894628 64.980948 
L 173.565427 63.338198 
L 178.236226 65.255735 
L 182.907025 64.461242 
L 187.577824 63.556236 
L 192.248623 64.49111 
L 196.919421 63.583117 
L 201.59022 62.591494 
L 206.261019 62.704993 
L 210.931818 63.469618 
L 215.602617 62.274891 
L 220.273416 62.170353 
L 224.944215 62.25697 
L 229.615014 63.17691 
L 234.285813 62.373456 
L 238.956612 61.776093 
L 243.62741 62.038933 
L 248.298209 62.926018 
L 252.969008 63.179897 
L 257.639807 61.817908 
L 262.310606 60.966665 
L 266.981405 61.348978 
L 271.652204 61.725317 
L 276.323003 61.596884 
L 280.993802 61.584936 
L 285.664601 61.053283 
L 290.335399 60.587339 
L 295.006198 60.608247 
L 299.676997 61.089125 
L 304.347796 61.005494 
L 309.018595 61.142887 
L 313.689394 61.856737 
L 318.360193 61.304176 
L 323.030992 60.423064 
L 327.701791 60.629155 
L 332.37259 59.553901 
L 337.043388 60.378262 
L 341.714187 60.40813 
L 346.384986 59.294047 
L 351.055785 60.432025 
L 355.726584 59.888424 
L 360.397383 59.927253 
L 365.068182 60.115422 
L 369.738981 60.07958 
L 374.40978 59.74207 
L 379.080579 59.574808 
L 383.751377 59.81674 
L 388.422176 60.007897 
L 393.092975 59.341836 
L 397.763774 59.129772 
L 402.434573 58.666816 
L 407.105372 59.616624 
L 411.776171 60.037765 
L 416.44697 59.79882 
L 421.117769 59.383652 
L 425.788567 59.649479 
L 430.459366 59.541953 
L 435.130165 58.684737 
L 439.800964 58.508514 
L 444.471763 59.025234 
L 449.142562 58.687723 
L 453.813361 59.305995 
L 458.48416 58.729539 
L 463.154959 58.762394 
L 467.825758 59.037181 
L 472.496556 58.723565 
L 477.167355 58.344239 
L 481.838154 58.801222 
L 486.508953 58.117241 
L 491.179752 58.768367 
L 495.850551 57.636364 
L 500.52135 58.980432 
L 505.192149 57.651298 
L 509.862948 57.905177 
L 514.533747 58.153083 
L 519.204545 57.755836 
" style="fill:none;stroke:#ffb5b8;stroke-linecap:square;stroke-width:1.5;"/>
   </g>
   <g id="line2d_38">
    <path clip-path="url(#p352be58a17)" d="M 56.795455 118.104599 
L 61.466253 101.393543 
L 66.137052 91.903781 
L 70.807851 88.047384 
L 75.47865 82.584154 
L 80.149449 79.257066 
L 84.820248 79.351586 
L 89.491047 77.782561 
L 94.161846 76.440384 
L 98.832645 74.644513 
L 103.503444 73.850548 
L 108.174242 74.285338 
L 112.845041 72.716314 
L 117.51584 72.924257 
L 122.186639 71.411944 
L 126.857438 71.695503 
L 131.528237 71.790022 
L 136.199036 71.014962 
L 140.869835 70.599076 
L 145.540634 70.069767 
L 150.211433 69.332514 
L 154.882231 70.18319 
L 159.55303 69.389226 
L 164.223829 69.84292 
L 168.894628 69.691689 
L 173.565427 67.42322 
L 178.236226 68.878821 
L 182.907025 69.578265 
L 187.577824 67.347604 
L 192.248623 68.97334 
L 196.919421 67.933625 
L 201.59022 67.612259 
L 206.261019 67.309796 
L 210.931818 68.349511 
L 215.602617 67.064045 
L 220.273416 66.723775 
L 224.944215 66.969526 
L 229.615014 68.254992 
L 234.285813 66.610352 
L 238.956612 67.045141 
L 243.62741 66.856102 
L 248.298209 68.670878 
L 252.969008 67.895817 
L 257.639807 66.383505 
L 262.310606 65.873099 
L 266.981405 66.496928 
L 271.652204 66.837198 
L 276.323003 67.290892 
L 280.993802 66.515832 
L 285.664601 66.799391 
L 290.335399 65.400501 
L 295.006198 65.892003 
L 299.676997 65.854195 
L 304.347796 67.045141 
L 309.018595 66.875006 
L 313.689394 66.912814 
L 318.360193 66.364601 
L 323.030992 65.457213 
L 327.701791 66.288985 
L 332.37259 64.833384 
L 337.043388 65.646252 
L 341.714187 65.060231 
L 346.384986 64.625441 
L 351.055785 65.457213 
L 355.726584 65.34379 
L 360.397383 66.005426 
L 365.068182 65.154751 
L 369.738981 66.062138 
L 374.40978 65.438309 
L 379.080579 65.381597 
L 383.751377 65.816387 
L 388.422176 65.816387 
L 393.092975 65.211462 
L 397.763774 64.833384 
L 402.434573 64.890096 
L 407.105372 65.513925 
L 411.776171 65.948715 
L 416.44697 65.68406 
L 421.117769 65.060231 
L 425.788567 65.476117 
L 430.459366 65.532829 
L 435.130165 64.247363 
L 439.800964 63.623534 
L 444.471763 66.11885 
L 449.142562 64.738865 
L 453.813361 64.776672 
L 458.48416 64.530922 
L 463.154959 64.47421 
L 467.825758 65.362694 
L 472.496556 64.81448 
L 477.167355 64.058324 
L 481.838154 65.68406 
L 486.508953 63.850381 
L 491.179752 65.230366 
L 495.850551 64.719961 
L 500.52135 64.701057 
L 505.192149 63.736957 
L 509.862948 64.190651 
L 514.533747 64.266267 
L 519.204545 64.890096 
" style="fill:none;stroke:#ffb5b8;stroke-dasharray:5.55,2.4;stroke-dashoffset:0;stroke-width:1.5;"/>
   </g>
   <g id="line2d_39">
    <path clip-path="url(#p352be58a17)" d="M 56.795455 117.02027 
L 61.466253 97.644785 
L 66.137052 89.891006 
L 70.807851 84.616287 
L 75.47865 80.619925 
L 80.149449 79.284817 
L 84.820248 76.740049 
L 89.491047 75.491559 
L 94.161846 74.228135 
L 98.832645 73.272354 
L 103.503444 71.560907 
L 108.174242 70.643954 
L 112.845041 70.709664 
L 117.51584 69.936078 
L 122.186639 68.439683 
L 126.857438 69.70908 
L 131.528237 68.636813 
L 136.199036 68.2545 
L 140.869835 69.156519 
L 145.540634 67.863227 
L 150.211433 66.333976 
L 154.882231 67.937897 
L 159.55303 66.710315 
L 164.223829 65.252748 
L 168.894628 65.381182 
L 173.565427 65.975558 
L 178.236226 66.41462 
L 182.907025 65.829204 
L 187.577824 64.141652 
L 192.248623 65.506628 
L 196.919421 65.443905 
L 201.59022 63.29937 
L 206.261019 64.840568 
L 210.931818 64.739016 
L 215.602617 64.4254 
L 220.273416 64.072955 
L 224.944215 64.341769 
L 229.615014 64.156586 
L 234.285813 63.138082 
L 238.956612 63.36508 
L 243.62741 64.013219 
L 248.298209 64.679279 
L 252.969008 62.746808 
L 257.639807 62.857321 
L 262.310606 63.314304 
L 266.981405 63.828036 
L 271.652204 62.800571 
L 276.323003 62.415272 
L 280.993802 62.636296 
L 285.664601 63.105227 
L 290.335399 62.657204 
L 295.006198 62.227102 
L 299.676997 62.618375 
L 304.347796 63.831023 
L 309.018595 62.026985 
L 313.689394 62.58552 
L 318.360193 62.884202 
L 323.030992 62.579547 
L 327.701791 61.719343 
L 332.37259 63.063411 
L 337.043388 61.895565 
L 341.714187 61.937381 
L 346.384986 62.851347 
L 351.055785 61.181716 
L 355.726584 61.97621 
L 360.397383 61.507279 
L 365.068182 62.430206 
L 369.738981 62.176326 
L 374.40978 61.265347 
L 379.080579 61.151848 
L 383.751377 61.889592 
L 388.422176 61.572989 
L 393.092975 61.316123 
L 397.763774 60.960692 
L 402.434573 61.504292 
L 407.105372 62.373456 
L 411.776171 61.465464 
L 416.44697 61.704409 
L 421.117769 61.537147 
L 425.788567 61.599871 
L 430.459366 61.432609 
L 435.130165 61.232492 
L 439.800964 60.667983 
L 444.471763 60.847193 
L 449.142562 61.629739 
L 453.813361 60.823298 
L 458.48416 61.764146 
L 463.154959 60.303592 
L 467.825758 60.874074 
L 472.496556 60.435012 
L 477.167355 60.760575 
L 481.838154 60.512669 
L 486.508953 61.540134 
L 491.179752 60.939784 
L 495.850551 60.617208 
L 500.52135 60.751614 
L 505.192149 60.00491 
L 509.862948 60.055686 
L 514.533747 61.375859 
L 519.204545 60.157238 
" style="fill:none;stroke:#e24a33;stroke-linecap:square;stroke-width:1.5;"/>
   </g>
   <g id="line2d_40">
    <path clip-path="url(#p352be58a17)" d="M 56.795455 117.669809 
L 61.466253 99.333017 
L 66.137052 91.544607 
L 70.807851 86.648495 
L 75.47865 82.886617 
L 80.149449 81.431016 
L 84.820248 78.860084 
L 89.491047 78.141736 
L 94.161846 76.364768 
L 98.832645 75.476285 
L 103.503444 74.417666 
L 108.174242 73.188912 
L 112.845041 73.47247 
L 117.51584 72.886449 
L 122.186639 70.825923 
L 126.857438 72.016869 
L 131.528237 70.996058 
L 136.199036 71.090578 
L 140.869835 71.260713 
L 145.540634 71.241809 
L 150.211433 70.466749 
L 154.882231 70.95825 
L 159.55303 70.391133 
L 164.223829 68.878821 
L 168.894628 68.179376 
L 173.565427 69.559361 
L 178.236226 70.523461 
L 182.907025 70.050863 
L 187.577824 67.820202 
L 192.248623 70.069767 
L 196.919421 69.634977 
L 201.59022 67.404316 
L 206.261019 69.237995 
L 210.931818 68.935532 
L 215.602617 68.519646 
L 220.273416 67.801298 
L 224.944215 68.444031 
L 229.615014 69.50265 
L 234.285813 68.179376 
L 238.956612 67.3287 
L 243.62741 69.294707 
L 248.298209 68.878821 
L 252.969008 66.515832 
L 257.639807 66.856102 
L 262.310606 67.650066 
L 266.981405 68.160472 
L 271.652204 67.593355 
L 276.323003 66.591448 
L 280.993802 67.290892 
L 285.664601 67.23418 
L 290.335399 66.931718 
L 295.006198 66.648159 
L 299.676997 67.42322 
L 304.347796 68.822109 
L 309.018595 66.251177 
L 313.689394 66.856102 
L 318.360193 67.933625 
L 323.030992 67.461027 
L 327.701791 66.912814 
L 332.37259 68.349511 
L 337.043388 66.818295 
L 341.714187 66.89391 
L 346.384986 67.76349 
L 351.055785 66.232273 
L 355.726584 66.648159 
L 360.397383 66.629255 
L 365.068182 66.704871 
L 369.738981 66.402409 
L 374.40978 66.496928 
L 379.080579 65.173654 
L 383.751377 66.440216 
L 388.422176 66.345697 
L 393.092975 66.572544 
L 397.763774 66.137754 
L 402.434573 66.307889 
L 407.105372 66.931718 
L 411.776171 66.799391 
L 416.44697 66.856102 
L 421.117769 66.931718 
L 425.788567 66.440216 
L 430.459366 66.969526 
L 435.130165 65.797483 
L 439.800964 65.192558 
L 444.471763 65.967619 
L 449.142562 66.875006 
L 453.813361 65.77858 
L 458.48416 66.875006 
L 463.154959 65.608444 
L 467.825758 65.476117 
L 472.496556 65.192558 
L 477.167355 65.892003 
L 481.838154 65.948715 
L 486.508953 66.440216 
L 491.179752 65.116943 
L 495.850551 66.345697 
L 500.52135 65.608444 
L 505.192149 65.495021 
L 509.862948 65.797483 
L 514.533747 66.345697 
L 519.204545 64.833384 
" style="fill:none;stroke:#e24a33;stroke-dasharray:5.55,2.4;stroke-dashoffset:0;stroke-width:1.5;"/>
   </g>
   <g id="patch_3">
    <path d="M 33.675 243.2 
L 33.675 48.8 
" style="fill:none;stroke:#ffffff;stroke-linecap:square;stroke-linejoin:miter;"/>
   </g>
   <g id="patch_4">
    <path d="M 542.325 243.2 
L 542.325 48.8 
" style="fill:none;stroke:#ffffff;stroke-linecap:square;stroke-linejoin:miter;"/>
   </g>
   <g id="patch_5">
    <path d="M 33.675 243.2 
L 542.325 243.2 
" style="fill:none;stroke:#ffffff;stroke-linecap:square;stroke-linejoin:miter;"/>
   </g>
   <g id="patch_6">
    <path d="M 33.675 48.8 
L 542.325 48.8 
" style="fill:none;stroke:#ffffff;stroke-linecap:square;stroke-linejoin:miter;"/>
   </g>
   <g id="legend_1">
    <g id="patch_7">
     <path d="M 435.66875 238.2 
L 535.325 238.2 
Q 537.325 238.2 537.325 236.2 
L 537.325 119.775 
Q 537.325 117.775 535.325 117.775 
L 435.66875 117.775 
Q 433.66875 117.775 433.66875 119.775 
L 433.66875 236.2 
Q 433.66875 238.2 435.66875 238.2 
z
" style="fill:#e5e5e5;opacity:0.8;stroke:#cccccc;stroke-linejoin:miter;stroke-width:0.5;"/>
    </g>
    <g id="line2d_41">
     <path d="M 437.66875 125.873438 
L 457.66875 125.873438 
" style="fill:none;stroke:#e24a33;stroke-linecap:square;stroke-width:1.5;"/>
    </g>
    <g id="line2d_42"/>
    <g id="text_14">
     <!-- 0.5 &amp; L1 1e-4 -->
     <g transform="translate(465.66875 129.373438)scale(0.1 -0.1)">
      <defs>
       <path d="M 1556 2509 
Q 1272 2256 1139 2004 
Q 1006 1753 1006 1478 
Q 1006 1022 1337 719 
Q 1669 416 2169 416 
Q 2466 416 2725 514 
Q 2984 613 3213 813 
L 1556 2509 
z
M 1997 2859 
L 3584 1234 
Q 3769 1513 3872 1830 
Q 3975 2147 3994 2503 
L 4575 2503 
Q 4538 2091 4375 1687 
Q 4213 1284 3922 891 
L 4794 0 
L 4006 0 
L 3559 459 
Q 3234 181 2878 45 
Q 2522 -91 2113 -91 
Q 1359 -91 881 339 
Q 403 769 403 1441 
Q 403 1841 612 2192 
Q 822 2544 1241 2853 
Q 1091 3050 1012 3245 
Q 934 3441 934 3628 
Q 934 4134 1281 4442 
Q 1628 4750 2203 4750 
Q 2463 4750 2720 4694 
Q 2978 4638 3244 4525 
L 3244 3956 
Q 2972 4103 2725 4179 
Q 2478 4256 2266 4256 
Q 1938 4256 1733 4082 
Q 1528 3909 1528 3634 
Q 1528 3475 1620 3314 
Q 1713 3153 1997 2859 
z
" id="DejaVuSans-26" transform="scale(0.015625)"/>
       <path d="M 628 4666 
L 1259 4666 
L 1259 531 
L 3531 531 
L 3531 0 
L 628 0 
L 628 4666 
z
" id="DejaVuSans-4c" transform="scale(0.015625)"/>
       <path d="M 313 2009 
L 1997 2009 
L 1997 1497 
L 313 1497 
L 313 2009 
z
" id="DejaVuSans-2d" transform="scale(0.015625)"/>
      </defs>
      <use xlink:href="#DejaVuSans-30"/>
      <use x="63.623047" xlink:href="#DejaVuSans-2e"/>
      <use x="95.410156" xlink:href="#DejaVuSans-35"/>
      <use x="159.033203" xlink:href="#DejaVuSans-20"/>
      <use x="190.820312" xlink:href="#DejaVuSans-26"/>
      <use x="268.798828" xlink:href="#DejaVuSans-20"/>
      <use x="300.585938" xlink:href="#DejaVuSans-4c"/>
      <use x="356.298828" xlink:href="#DejaVuSans-31"/>
      <use x="419.921875" xlink:href="#DejaVuSans-20"/>
      <use x="451.708984" xlink:href="#DejaVuSans-31"/>
      <use x="515.332031" xlink:href="#DejaVuSans-65"/>
      <use x="576.855469" xlink:href="#DejaVuSans-2d"/>
      <use x="612.939453" xlink:href="#DejaVuSans-34"/>
     </g>
    </g>
    <g id="line2d_43">
     <path d="M 437.66875 140.551563 
L 457.66875 140.551563 
" style="fill:none;stroke:#348abd;stroke-linecap:square;stroke-width:1.5;"/>
    </g>
    <g id="line2d_44"/>
    <g id="text_15">
     <!-- 0.5 &amp; L2 1e-3 -->
     <g transform="translate(465.66875 144.051563)scale(0.1 -0.1)">
      <use xlink:href="#DejaVuSans-30"/>
      <use x="63.623047" xlink:href="#DejaVuSans-2e"/>
      <use x="95.410156" xlink:href="#DejaVuSans-35"/>
      <use x="159.033203" xlink:href="#DejaVuSans-20"/>
      <use x="190.820312" xlink:href="#DejaVuSans-26"/>
      <use x="268.798828" xlink:href="#DejaVuSans-20"/>
      <use x="300.585938" xlink:href="#DejaVuSans-4c"/>
      <use x="356.298828" xlink:href="#DejaVuSans-32"/>
      <use x="419.921875" xlink:href="#DejaVuSans-20"/>
      <use x="451.708984" xlink:href="#DejaVuSans-31"/>
      <use x="515.332031" xlink:href="#DejaVuSans-65"/>
      <use x="576.855469" xlink:href="#DejaVuSans-2d"/>
      <use x="612.939453" xlink:href="#DejaVuSans-33"/>
     </g>
    </g>
    <g id="line2d_45">
     <path d="M 437.66875 155.229688 
L 457.66875 155.229688 
" style="fill:none;stroke:#988ed5;stroke-linecap:square;stroke-width:1.5;"/>
    </g>
    <g id="line2d_46"/>
    <g id="text_16">
     <!-- 0.7 &amp; L1 1e-4 -->
     <g transform="translate(465.66875 158.729688)scale(0.1 -0.1)">
      <use xlink:href="#DejaVuSans-30"/>
      <use x="63.623047" xlink:href="#DejaVuSans-2e"/>
      <use x="95.410156" xlink:href="#DejaVuSans-37"/>
      <use x="159.033203" xlink:href="#DejaVuSans-20"/>
      <use x="190.820312" xlink:href="#DejaVuSans-26"/>
      <use x="268.798828" xlink:href="#DejaVuSans-20"/>
      <use x="300.585938" xlink:href="#DejaVuSans-4c"/>
      <use x="356.298828" xlink:href="#DejaVuSans-31"/>
      <use x="419.921875" xlink:href="#DejaVuSans-20"/>
      <use x="451.708984" xlink:href="#DejaVuSans-31"/>
      <use x="515.332031" xlink:href="#DejaVuSans-65"/>
      <use x="576.855469" xlink:href="#DejaVuSans-2d"/>
      <use x="612.939453" xlink:href="#DejaVuSans-34"/>
     </g>
    </g>
    <g id="line2d_47">
     <path d="M 437.66875 169.907813 
L 457.66875 169.907813 
" style="fill:none;stroke:#777777;stroke-linecap:square;stroke-width:1.5;"/>
    </g>
    <g id="line2d_48"/>
    <g id="text_17">
     <!-- 0.7 &amp; L2 1e-3 -->
     <g transform="translate(465.66875 173.407813)scale(0.1 -0.1)">
      <use xlink:href="#DejaVuSans-30"/>
      <use x="63.623047" xlink:href="#DejaVuSans-2e"/>
      <use x="95.410156" xlink:href="#DejaVuSans-37"/>
      <use x="159.033203" xlink:href="#DejaVuSans-20"/>
      <use x="190.820312" xlink:href="#DejaVuSans-26"/>
      <use x="268.798828" xlink:href="#DejaVuSans-20"/>
      <use x="300.585938" xlink:href="#DejaVuSans-4c"/>
      <use x="356.298828" xlink:href="#DejaVuSans-32"/>
      <use x="419.921875" xlink:href="#DejaVuSans-20"/>
      <use x="451.708984" xlink:href="#DejaVuSans-31"/>
      <use x="515.332031" xlink:href="#DejaVuSans-65"/>
      <use x="576.855469" xlink:href="#DejaVuSans-2d"/>
      <use x="612.939453" xlink:href="#DejaVuSans-33"/>
     </g>
    </g>
    <g id="line2d_49">
     <path d="M 437.66875 184.585938 
L 457.66875 184.585938 
" style="fill:none;stroke:#fbc15e;stroke-linecap:square;stroke-width:1.5;"/>
    </g>
    <g id="line2d_50"/>
    <g id="text_18">
     <!-- 0.5 &amp; L1 1e-5 -->
     <g transform="translate(465.66875 188.085938)scale(0.1 -0.1)">
      <use xlink:href="#DejaVuSans-30"/>
      <use x="63.623047" xlink:href="#DejaVuSans-2e"/>
      <use x="95.410156" xlink:href="#DejaVuSans-35"/>
      <use x="159.033203" xlink:href="#DejaVuSans-20"/>
      <use x="190.820312" xlink:href="#DejaVuSans-26"/>
      <use x="268.798828" xlink:href="#DejaVuSans-20"/>
      <use x="300.585938" xlink:href="#DejaVuSans-4c"/>
      <use x="356.298828" xlink:href="#DejaVuSans-31"/>
      <use x="419.921875" xlink:href="#DejaVuSans-20"/>
      <use x="451.708984" xlink:href="#DejaVuSans-31"/>
      <use x="515.332031" xlink:href="#DejaVuSans-65"/>
      <use x="576.855469" xlink:href="#DejaVuSans-2d"/>
      <use x="612.939453" xlink:href="#DejaVuSans-35"/>
     </g>
    </g>
    <g id="line2d_51">
     <path d="M 437.66875 199.264063 
L 457.66875 199.264063 
" style="fill:none;stroke:#8eba42;stroke-linecap:square;stroke-width:1.5;"/>
    </g>
    <g id="line2d_52"/>
    <g id="text_19">
     <!-- 0.5 &amp; L2 1e-4 -->
     <g transform="translate(465.66875 202.764063)scale(0.1 -0.1)">
      <use xlink:href="#DejaVuSans-30"/>
      <use x="63.623047" xlink:href="#DejaVuSans-2e"/>
      <use x="95.410156" xlink:href="#DejaVuSans-35"/>
      <use x="159.033203" xlink:href="#DejaVuSans-20"/>
      <use x="190.820312" xlink:href="#DejaVuSans-26"/>
      <use x="268.798828" xlink:href="#DejaVuSans-20"/>
      <use x="300.585938" xlink:href="#DejaVuSans-4c"/>
      <use x="356.298828" xlink:href="#DejaVuSans-32"/>
      <use x="419.921875" xlink:href="#DejaVuSans-20"/>
      <use x="451.708984" xlink:href="#DejaVuSans-31"/>
      <use x="515.332031" xlink:href="#DejaVuSans-65"/>
      <use x="576.855469" xlink:href="#DejaVuSans-2d"/>
      <use x="612.939453" xlink:href="#DejaVuSans-34"/>
     </g>
    </g>
    <g id="line2d_53">
     <path d="M 437.66875 213.942188 
L 457.66875 213.942188 
" style="fill:none;stroke:#ffb5b8;stroke-linecap:square;stroke-width:1.5;"/>
    </g>
    <g id="line2d_54"/>
    <g id="text_20">
     <!-- 0.7 &amp; L1 1e-5 -->
     <g transform="translate(465.66875 217.442188)scale(0.1 -0.1)">
      <use xlink:href="#DejaVuSans-30"/>
      <use x="63.623047" xlink:href="#DejaVuSans-2e"/>
      <use x="95.410156" xlink:href="#DejaVuSans-37"/>
      <use x="159.033203" xlink:href="#DejaVuSans-20"/>
      <use x="190.820312" xlink:href="#DejaVuSans-26"/>
      <use x="268.798828" xlink:href="#DejaVuSans-20"/>
      <use x="300.585938" xlink:href="#DejaVuSans-4c"/>
      <use x="356.298828" xlink:href="#DejaVuSans-31"/>
      <use x="419.921875" xlink:href="#DejaVuSans-20"/>
      <use x="451.708984" xlink:href="#DejaVuSans-31"/>
      <use x="515.332031" xlink:href="#DejaVuSans-65"/>
      <use x="576.855469" xlink:href="#DejaVuSans-2d"/>
      <use x="612.939453" xlink:href="#DejaVuSans-35"/>
     </g>
    </g>
    <g id="line2d_55">
     <path d="M 437.66875 228.620313 
L 457.66875 228.620313 
" style="fill:none;stroke:#e24a33;stroke-linecap:square;stroke-width:1.5;"/>
    </g>
    <g id="line2d_56"/>
    <g id="text_21">
     <!-- 0.7 &amp; L2 1e-4 -->
     <g transform="translate(465.66875 232.120313)scale(0.1 -0.1)">
      <use xlink:href="#DejaVuSans-30"/>
      <use x="63.623047" xlink:href="#DejaVuSans-2e"/>
      <use x="95.410156" xlink:href="#DejaVuSans-37"/>
      <use x="159.033203" xlink:href="#DejaVuSans-20"/>
      <use x="190.820312" xlink:href="#DejaVuSans-26"/>
      <use x="268.798828" xlink:href="#DejaVuSans-20"/>
      <use x="300.585938" xlink:href="#DejaVuSans-4c"/>
      <use x="356.298828" xlink:href="#DejaVuSans-32"/>
      <use x="419.921875" xlink:href="#DejaVuSans-20"/>
      <use x="451.708984" xlink:href="#DejaVuSans-31"/>
      <use x="515.332031" xlink:href="#DejaVuSans-65"/>
      <use x="576.855469" xlink:href="#DejaVuSans-2d"/>
      <use x="612.939453" xlink:href="#DejaVuSans-34"/>
     </g>
    </g>
   </g>
  </g>
  <g id="axes_2">
   <g id="matplotlib.axis_3">
    <g id="ytick_7">
     <g id="line2d_57">
      <path clip-path="url(#p352be58a17)" d="M 33.675 243.2 
L 542.325 243.2 
" style="fill:none;stroke:#ffffff;stroke-linecap:square;stroke-width:0.8;"/>
     </g>
     <g id="line2d_58">
      <defs>
       <path d="M 0 0 
L 3.5 0 
" id="mcd5007dd2d" style="stroke:#555555;stroke-width:0.8;"/>
      </defs>
      <g>
       <use style="fill:#555555;stroke:#555555;stroke-width:0.8;" x="542.325" xlink:href="#mcd5007dd2d" y="243.2"/>
      </g>
     </g>
     <g id="text_22">
      <!-- 0.0 -->
      <g style="fill:#555555;" transform="translate(549.325 246.999219)scale(0.1 -0.1)">
       <use xlink:href="#DejaVuSans-30"/>
       <use x="63.623047" xlink:href="#DejaVuSans-2e"/>
       <use x="95.410156" xlink:href="#DejaVuSans-30"/>
      </g>
     </g>
    </g>
    <g id="ytick_8">
     <g id="line2d_59">
      <path clip-path="url(#p352be58a17)" d="M 33.675 204.32 
L 542.325 204.32 
" style="fill:none;stroke:#ffffff;stroke-linecap:square;stroke-width:0.8;"/>
     </g>
     <g id="line2d_60">
      <g>
       <use style="fill:#555555;stroke:#555555;stroke-width:0.8;" x="542.325" xlink:href="#mcd5007dd2d" y="204.32"/>
      </g>
     </g>
     <g id="text_23">
      <!-- 0.2 -->
      <g style="fill:#555555;" transform="translate(549.325 208.119219)scale(0.1 -0.1)">
       <use xlink:href="#DejaVuSans-30"/>
       <use x="63.623047" xlink:href="#DejaVuSans-2e"/>
       <use x="95.410156" xlink:href="#DejaVuSans-32"/>
      </g>
     </g>
    </g>
    <g id="ytick_9">
     <g id="line2d_61">
      <path clip-path="url(#p352be58a17)" d="M 33.675 165.44 
L 542.325 165.44 
" style="fill:none;stroke:#ffffff;stroke-linecap:square;stroke-width:0.8;"/>
     </g>
     <g id="line2d_62">
      <g>
       <use style="fill:#555555;stroke:#555555;stroke-width:0.8;" x="542.325" xlink:href="#mcd5007dd2d" y="165.44"/>
      </g>
     </g>
     <g id="text_24">
      <!-- 0.4 -->
      <g style="fill:#555555;" transform="translate(549.325 169.239219)scale(0.1 -0.1)">
       <use xlink:href="#DejaVuSans-30"/>
       <use x="63.623047" xlink:href="#DejaVuSans-2e"/>
       <use x="95.410156" xlink:href="#DejaVuSans-34"/>
      </g>
     </g>
    </g>
    <g id="ytick_10">
     <g id="line2d_63">
      <path clip-path="url(#p352be58a17)" d="M 33.675 126.56 
L 542.325 126.56 
" style="fill:none;stroke:#ffffff;stroke-linecap:square;stroke-width:0.8;"/>
     </g>
     <g id="line2d_64">
      <g>
       <use style="fill:#555555;stroke:#555555;stroke-width:0.8;" x="542.325" xlink:href="#mcd5007dd2d" y="126.56"/>
      </g>
     </g>
     <g id="text_25">
      <!-- 0.6 -->
      <g style="fill:#555555;" transform="translate(549.325 130.359219)scale(0.1 -0.1)">
       <use xlink:href="#DejaVuSans-30"/>
       <use x="63.623047" xlink:href="#DejaVuSans-2e"/>
       <use x="95.410156" xlink:href="#DejaVuSans-36"/>
      </g>
     </g>
    </g>
    <g id="ytick_11">
     <g id="line2d_65">
      <path clip-path="url(#p352be58a17)" d="M 33.675 87.68 
L 542.325 87.68 
" style="fill:none;stroke:#ffffff;stroke-linecap:square;stroke-width:0.8;"/>
     </g>
     <g id="line2d_66">
      <g>
       <use style="fill:#555555;stroke:#555555;stroke-width:0.8;" x="542.325" xlink:href="#mcd5007dd2d" y="87.68"/>
      </g>
     </g>
     <g id="text_26">
      <!-- 0.8 -->
      <g style="fill:#555555;" transform="translate(549.325 91.479219)scale(0.1 -0.1)">
       <use xlink:href="#DejaVuSans-30"/>
       <use x="63.623047" xlink:href="#DejaVuSans-2e"/>
       <use x="95.410156" xlink:href="#DejaVuSans-38"/>
      </g>
     </g>
    </g>
    <g id="ytick_12">
     <g id="line2d_67">
      <path clip-path="url(#p352be58a17)" d="M 33.675 48.8 
L 542.325 48.8 
" style="fill:none;stroke:#ffffff;stroke-linecap:square;stroke-width:0.8;"/>
     </g>
     <g id="line2d_68">
      <g>
       <use style="fill:#555555;stroke:#555555;stroke-width:0.8;" x="542.325" xlink:href="#mcd5007dd2d" y="48.8"/>
      </g>
     </g>
     <g id="text_27">
      <!-- 1.0 -->
      <g style="fill:#555555;" transform="translate(549.325 52.599219)scale(0.1 -0.1)">
       <use xlink:href="#DejaVuSans-31"/>
       <use x="63.623047" xlink:href="#DejaVuSans-2e"/>
       <use x="95.410156" xlink:href="#DejaVuSans-30"/>
      </g>
     </g>
    </g>
   </g>
   <g id="patch_8">
    <path d="M 33.675 243.2 
L 33.675 48.8 
" style="fill:none;stroke:#ffffff;stroke-linecap:square;stroke-linejoin:miter;"/>
   </g>
   <g id="patch_9">
    <path d="M 542.325 243.2 
L 542.325 48.8 
" style="fill:none;stroke:#ffffff;stroke-linecap:square;stroke-linejoin:miter;"/>
   </g>
   <g id="patch_10">
    <path d="M 33.675 243.2 
L 542.325 243.2 
" style="fill:none;stroke:#ffffff;stroke-linecap:square;stroke-linejoin:miter;"/>
   </g>
   <g id="patch_11">
    <path d="M 33.675 48.8 
L 542.325 48.8 
" style="fill:none;stroke:#ffffff;stroke-linecap:square;stroke-linejoin:miter;"/>
   </g>
   <g id="legend_2">
    <g id="patch_12">
     <path d="M 40.675 43.8 
L 299.759375 43.8 
Q 301.759375 43.8 301.759375 41.8 
L 301.759375 13.44375 
Q 301.759375 11.44375 299.759375 11.44375 
L 40.675 11.44375 
Q 38.675 11.44375 38.675 13.44375 
L 38.675 41.8 
Q 38.675 43.8 40.675 43.8 
z
" style="fill:#e5e5e5;opacity:0.8;stroke:#cccccc;stroke-linejoin:miter;stroke-width:0.5;"/>
    </g>
    <g id="line2d_69">
     <path d="M 42.675 19.542187 
L 62.675 19.542187 
" style="fill:none;stroke:#000000;stroke-linecap:square;stroke-width:1.5;"/>
    </g>
    <g id="line2d_70"/>
    <g id="text_28">
     <!-- Solid line style indicate the training data -->
     <g transform="translate(70.675 23.042187)scale(0.1 -0.1)">
      <defs>
       <path d="M 3425 4513 
L 3425 3897 
Q 3066 4069 2747 4153 
Q 2428 4238 2131 4238 
Q 1616 4238 1336 4038 
Q 1056 3838 1056 3469 
Q 1056 3159 1242 3001 
Q 1428 2844 1947 2747 
L 2328 2669 
Q 3034 2534 3370 2195 
Q 3706 1856 3706 1288 
Q 3706 609 3251 259 
Q 2797 -91 1919 -91 
Q 1588 -91 1214 -16 
Q 841 59 441 206 
L 441 856 
Q 825 641 1194 531 
Q 1563 422 1919 422 
Q 2459 422 2753 634 
Q 3047 847 3047 1241 
Q 3047 1584 2836 1778 
Q 2625 1972 2144 2069 
L 1759 2144 
Q 1053 2284 737 2584 
Q 422 2884 422 3419 
Q 422 4038 858 4394 
Q 1294 4750 2059 4750 
Q 2388 4750 2728 4690 
Q 3069 4631 3425 4513 
z
" id="DejaVuSans-53" transform="scale(0.015625)"/>
       <path d="M 603 4863 
L 1178 4863 
L 1178 0 
L 603 0 
L 603 4863 
z
" id="DejaVuSans-6c" transform="scale(0.015625)"/>
       <path d="M 603 3500 
L 1178 3500 
L 1178 0 
L 603 0 
L 603 3500 
z
M 603 4863 
L 1178 4863 
L 1178 4134 
L 603 4134 
L 603 4863 
z
" id="DejaVuSans-69" transform="scale(0.015625)"/>
       <path d="M 2906 2969 
L 2906 4863 
L 3481 4863 
L 3481 0 
L 2906 0 
L 2906 525 
Q 2725 213 2448 61 
Q 2172 -91 1784 -91 
Q 1150 -91 751 415 
Q 353 922 353 1747 
Q 353 2572 751 3078 
Q 1150 3584 1784 3584 
Q 2172 3584 2448 3432 
Q 2725 3281 2906 2969 
z
M 947 1747 
Q 947 1113 1208 752 
Q 1469 391 1925 391 
Q 2381 391 2643 752 
Q 2906 1113 2906 1747 
Q 2906 2381 2643 2742 
Q 2381 3103 1925 3103 
Q 1469 3103 1208 2742 
Q 947 2381 947 1747 
z
" id="DejaVuSans-64" transform="scale(0.015625)"/>
       <path d="M 2834 3397 
L 2834 2853 
Q 2591 2978 2328 3040 
Q 2066 3103 1784 3103 
Q 1356 3103 1142 2972 
Q 928 2841 928 2578 
Q 928 2378 1081 2264 
Q 1234 2150 1697 2047 
L 1894 2003 
Q 2506 1872 2764 1633 
Q 3022 1394 3022 966 
Q 3022 478 2636 193 
Q 2250 -91 1575 -91 
Q 1294 -91 989 -36 
Q 684 19 347 128 
L 347 722 
Q 666 556 975 473 
Q 1284 391 1588 391 
Q 1994 391 2212 530 
Q 2431 669 2431 922 
Q 2431 1156 2273 1281 
Q 2116 1406 1581 1522 
L 1381 1569 
Q 847 1681 609 1914 
Q 372 2147 372 2553 
Q 372 3047 722 3315 
Q 1072 3584 1716 3584 
Q 2034 3584 2315 3537 
Q 2597 3491 2834 3397 
z
" id="DejaVuSans-73" transform="scale(0.015625)"/>
       <path d="M 1172 4494 
L 1172 3500 
L 2356 3500 
L 2356 3053 
L 1172 3053 
L 1172 1153 
Q 1172 725 1289 603 
Q 1406 481 1766 481 
L 2356 481 
L 2356 0 
L 1766 0 
Q 1100 0 847 248 
Q 594 497 594 1153 
L 594 3053 
L 172 3053 
L 172 3500 
L 594 3500 
L 594 4494 
L 1172 4494 
z
" id="DejaVuSans-74" transform="scale(0.015625)"/>
       <path d="M 2059 -325 
Q 1816 -950 1584 -1140 
Q 1353 -1331 966 -1331 
L 506 -1331 
L 506 -850 
L 844 -850 
Q 1081 -850 1212 -737 
Q 1344 -625 1503 -206 
L 1606 56 
L 191 3500 
L 800 3500 
L 1894 763 
L 2988 3500 
L 3597 3500 
L 2059 -325 
z
" id="DejaVuSans-79" transform="scale(0.015625)"/>
       <path d="M 2194 1759 
Q 1497 1759 1228 1600 
Q 959 1441 959 1056 
Q 959 750 1161 570 
Q 1363 391 1709 391 
Q 2188 391 2477 730 
Q 2766 1069 2766 1631 
L 2766 1759 
L 2194 1759 
z
M 3341 1997 
L 3341 0 
L 2766 0 
L 2766 531 
Q 2569 213 2275 61 
Q 1981 -91 1556 -91 
Q 1019 -91 701 211 
Q 384 513 384 1019 
Q 384 1609 779 1909 
Q 1175 2209 1959 2209 
L 2766 2209 
L 2766 2266 
Q 2766 2663 2505 2880 
Q 2244 3097 1772 3097 
Q 1472 3097 1187 3025 
Q 903 2953 641 2809 
L 641 3341 
Q 956 3463 1253 3523 
Q 1550 3584 1831 3584 
Q 2591 3584 2966 3190 
Q 3341 2797 3341 1997 
z
" id="DejaVuSans-61" transform="scale(0.015625)"/>
       <path d="M 2906 1791 
Q 2906 2416 2648 2759 
Q 2391 3103 1925 3103 
Q 1463 3103 1205 2759 
Q 947 2416 947 1791 
Q 947 1169 1205 825 
Q 1463 481 1925 481 
Q 2391 481 2648 825 
Q 2906 1169 2906 1791 
z
M 3481 434 
Q 3481 -459 3084 -895 
Q 2688 -1331 1869 -1331 
Q 1566 -1331 1297 -1286 
Q 1028 -1241 775 -1147 
L 775 -588 
Q 1028 -725 1275 -790 
Q 1522 -856 1778 -856 
Q 2344 -856 2625 -561 
Q 2906 -266 2906 331 
L 2906 616 
Q 2728 306 2450 153 
Q 2172 0 1784 0 
Q 1141 0 747 490 
Q 353 981 353 1791 
Q 353 2603 747 3093 
Q 1141 3584 1784 3584 
Q 2172 3584 2450 3431 
Q 2728 3278 2906 2969 
L 2906 3500 
L 3481 3500 
L 3481 434 
z
" id="DejaVuSans-67" transform="scale(0.015625)"/>
      </defs>
      <use xlink:href="#DejaVuSans-53"/>
      <use x="63.476562" xlink:href="#DejaVuSans-6f"/>
      <use x="124.658203" xlink:href="#DejaVuSans-6c"/>
      <use x="152.441406" xlink:href="#DejaVuSans-69"/>
      <use x="180.224609" xlink:href="#DejaVuSans-64"/>
      <use x="243.701172" xlink:href="#DejaVuSans-20"/>
      <use x="275.488281" xlink:href="#DejaVuSans-6c"/>
      <use x="303.271484" xlink:href="#DejaVuSans-69"/>
      <use x="331.054688" xlink:href="#DejaVuSans-6e"/>
      <use x="394.433594" xlink:href="#DejaVuSans-65"/>
      <use x="455.957031" xlink:href="#DejaVuSans-20"/>
      <use x="487.744141" xlink:href="#DejaVuSans-73"/>
      <use x="539.84375" xlink:href="#DejaVuSans-74"/>
      <use x="579.052734" xlink:href="#DejaVuSans-79"/>
      <use x="638.232422" xlink:href="#DejaVuSans-6c"/>
      <use x="666.015625" xlink:href="#DejaVuSans-65"/>
      <use x="727.539062" xlink:href="#DejaVuSans-20"/>
      <use x="759.326172" xlink:href="#DejaVuSans-69"/>
      <use x="787.109375" xlink:href="#DejaVuSans-6e"/>
      <use x="850.488281" xlink:href="#DejaVuSans-64"/>
      <use x="913.964844" xlink:href="#DejaVuSans-69"/>
      <use x="941.748047" xlink:href="#DejaVuSans-63"/>
      <use x="996.728516" xlink:href="#DejaVuSans-61"/>
      <use x="1058.007812" xlink:href="#DejaVuSans-74"/>
      <use x="1097.216797" xlink:href="#DejaVuSans-65"/>
      <use x="1158.740234" xlink:href="#DejaVuSans-20"/>
      <use x="1190.527344" xlink:href="#DejaVuSans-74"/>
      <use x="1229.736328" xlink:href="#DejaVuSans-68"/>
      <use x="1293.115234" xlink:href="#DejaVuSans-65"/>
      <use x="1354.638672" xlink:href="#DejaVuSans-20"/>
      <use x="1386.425781" xlink:href="#DejaVuSans-74"/>
      <use x="1425.634766" xlink:href="#DejaVuSans-72"/>
      <use x="1466.748047" xlink:href="#DejaVuSans-61"/>
      <use x="1528.027344" xlink:href="#DejaVuSans-69"/>
      <use x="1555.810547" xlink:href="#DejaVuSans-6e"/>
      <use x="1619.189453" xlink:href="#DejaVuSans-69"/>
      <use x="1646.972656" xlink:href="#DejaVuSans-6e"/>
      <use x="1710.351562" xlink:href="#DejaVuSans-67"/>
      <use x="1773.828125" xlink:href="#DejaVuSans-20"/>
      <use x="1805.615234" xlink:href="#DejaVuSans-64"/>
      <use x="1869.091797" xlink:href="#DejaVuSans-61"/>
      <use x="1930.371094" xlink:href="#DejaVuSans-74"/>
      <use x="1969.580078" xlink:href="#DejaVuSans-61"/>
     </g>
    </g>
    <g id="line2d_71">
     <path d="M 42.675 34.220312 
L 62.675 34.220312 
" style="fill:none;stroke:#000000;stroke-dasharray:5.55,2.4;stroke-dashoffset:0;stroke-width:1.5;"/>
    </g>
    <g id="line2d_72"/>
    <g id="text_29">
     <!-- Dashed line style indicate the validation data -->
     <g transform="translate(70.675 37.720312)scale(0.1 -0.1)">
      <defs>
       <path d="M 1259 4147 
L 1259 519 
L 2022 519 
Q 2988 519 3436 956 
Q 3884 1394 3884 2338 
Q 3884 3275 3436 3711 
Q 2988 4147 2022 4147 
L 1259 4147 
z
M 628 4666 
L 1925 4666 
Q 3281 4666 3915 4102 
Q 4550 3538 4550 2338 
Q 4550 1131 3912 565 
Q 3275 0 1925 0 
L 628 0 
L 628 4666 
z
" id="DejaVuSans-44" transform="scale(0.015625)"/>
       <path d="M 191 3500 
L 800 3500 
L 1894 563 
L 2988 3500 
L 3597 3500 
L 2284 0 
L 1503 0 
L 191 3500 
z
" id="DejaVuSans-76" transform="scale(0.015625)"/>
      </defs>
      <use xlink:href="#DejaVuSans-44"/>
      <use x="77.001953" xlink:href="#DejaVuSans-61"/>
      <use x="138.28125" xlink:href="#DejaVuSans-73"/>
      <use x="190.380859" xlink:href="#DejaVuSans-68"/>
      <use x="253.759766" xlink:href="#DejaVuSans-65"/>
      <use x="315.283203" xlink:href="#DejaVuSans-64"/>
      <use x="378.759766" xlink:href="#DejaVuSans-20"/>
      <use x="410.546875" xlink:href="#DejaVuSans-6c"/>
      <use x="438.330078" xlink:href="#DejaVuSans-69"/>
      <use x="466.113281" xlink:href="#DejaVuSans-6e"/>
      <use x="529.492188" xlink:href="#DejaVuSans-65"/>
      <use x="591.015625" xlink:href="#DejaVuSans-20"/>
      <use x="622.802734" xlink:href="#DejaVuSans-73"/>
      <use x="674.902344" xlink:href="#DejaVuSans-74"/>
      <use x="714.111328" xlink:href="#DejaVuSans-79"/>
      <use x="773.291016" xlink:href="#DejaVuSans-6c"/>
      <use x="801.074219" xlink:href="#DejaVuSans-65"/>
      <use x="862.597656" xlink:href="#DejaVuSans-20"/>
      <use x="894.384766" xlink:href="#DejaVuSans-69"/>
      <use x="922.167969" xlink:href="#DejaVuSans-6e"/>
      <use x="985.546875" xlink:href="#DejaVuSans-64"/>
      <use x="1049.023438" xlink:href="#DejaVuSans-69"/>
      <use x="1076.806641" xlink:href="#DejaVuSans-63"/>
      <use x="1131.787109" xlink:href="#DejaVuSans-61"/>
      <use x="1193.066406" xlink:href="#DejaVuSans-74"/>
      <use x="1232.275391" xlink:href="#DejaVuSans-65"/>
      <use x="1293.798828" xlink:href="#DejaVuSans-20"/>
      <use x="1325.585938" xlink:href="#DejaVuSans-74"/>
      <use x="1364.794922" xlink:href="#DejaVuSans-68"/>
      <use x="1428.173828" xlink:href="#DejaVuSans-65"/>
      <use x="1489.697266" xlink:href="#DejaVuSans-20"/>
      <use x="1521.484375" xlink:href="#DejaVuSans-76"/>
      <use x="1580.664062" xlink:href="#DejaVuSans-61"/>
      <use x="1641.943359" xlink:href="#DejaVuSans-6c"/>
      <use x="1669.726562" xlink:href="#DejaVuSans-69"/>
      <use x="1697.509766" xlink:href="#DejaVuSans-64"/>
      <use x="1760.986328" xlink:href="#DejaVuSans-61"/>
      <use x="1822.265625" xlink:href="#DejaVuSans-74"/>
      <use x="1861.474609" xlink:href="#DejaVuSans-69"/>
      <use x="1889.257812" xlink:href="#DejaVuSans-6f"/>
      <use x="1950.439453" xlink:href="#DejaVuSans-6e"/>
      <use x="2013.818359" xlink:href="#DejaVuSans-20"/>
      <use x="2045.605469" xlink:href="#DejaVuSans-64"/>
      <use x="2109.082031" xlink:href="#DejaVuSans-61"/>
      <use x="2170.361328" xlink:href="#DejaVuSans-74"/>
      <use x="2209.570312" xlink:href="#DejaVuSans-61"/>
     </g>
    </g>
   </g>
  </g>
 </g>
 <defs>
  <clipPath id="p352be58a17">
   <rect height="194.4" width="508.65" x="33.675" y="48.8"/>
  </clipPath>
 </defs>
</svg>
